<?xml version="1.0" encoding="utf-8"?>
<!-- Generator: Adobe Illustrator 16.0.4, SVG Export Plug-In . SVG Version: 6.00 Build 0)  -->
<!DOCTYPE svg PUBLIC "-//W3C//DTD SVG 1.1//EN" "http://www.w3.org/Graphics/SVG/1.1/DTD/svg11.dtd">
<svg version="1.1" id="Layer_1" xmlns="http://www.w3.org/2000/svg" xmlns:xlink="http://www.w3.org/1999/xlink" x="0px" y="0px"
	 width="132px" height="70px" viewBox="0 0 132 70" enable-background="new 0 0 132 70" xml:space="preserve">
<g>
	<path fill-rule="evenodd" clip-rule="evenodd" d="M10.853,34.626c0.12-0.085,0.343-0.187,0.476-0.145l0.332-0.926
		c-0.066,0.016-0.142,0.023-0.233,0.003c0.077-0.063,0.175-0.104,0.281-0.137l0.52-1.455c-0.064,0.046-0.146,0.081-0.266,0.071
		c0.075-0.082,0.184-0.131,0.302-0.171l0.606-1.695c-0.16,0.142-0.358,0.296-0.539,0.264c0.188-0.118,0.329-0.285,0.569-0.351
		l0.378-1.057h-3.166c-0.146,0.048-0.315,0.076-0.494,0.093c0.037-0.04,0.086-0.068,0.141-0.093H6.184l-1.386,3.876
		c0.359-0.063,0.705-0.156,1-0.251c0.22,0.202,0.801-0.177,1.028,0.042c-0.254,0.02-0.764,0.131-1.07,0.082
		c-0.119,0.037-0.045,0.062-0.041,0.166c-0.315-0.061-0.621-0.02-0.948,0.043l-0.462,1.294c0.026,0.023,0.047,0.053,0.055,0.1
		c-0.024-0.017-0.05-0.028-0.077-0.039l-0.345,0.966c0.202-0.07,0.417-0.126,0.669-0.146c-0.057,0.149-0.322,0.168-0.453,0.124
		c-0.074,0.107-0.17,0.154-0.273,0.184l-1.349,3.77c0.022,0.009,0.042,0.019,0.06,0.031c-0.021,0.061-0.06,0.104-0.082,0.164
		c-0.016-0.005-0.028-0.015-0.04-0.023L1.211,42.94h7.095l2.993-8.372C11.132,34.555,11.037,34.583,10.853,34.626z M2.554,41.364
		c-0.012-0.161,0.289-0.01,0.328-0.122C3.017,41.358,2.625,41.45,2.554,41.364z M3.827,38.9c0.031-0.133,0.15-0.178,0.328-0.164
		C4.118,38.863,3.963,38.873,3.827,38.9z M11.962,30.56c0.15,0.084,0.109-0.094,0.328-0.042c-0.118,0.075-0.162,0.221-0.369,0.206
		C11.916,30.65,11.972,30.637,11.962,30.56z M11.428,32.368c-0.071,0.051-0.108,0.139-0.247,0.123
		C11.158,32.344,11.303,32.366,11.428,32.368z M9.25,32.079c-0.146-0.16,0.243-0.137,0.328-0.204
		C9.822,32.022,9.315,31.984,9.25,32.079z M9.456,29.163c-0.111,0.081-0.273,0.111-0.452,0.124
		C9.051,29.142,9.283,29.181,9.456,29.163z M9.168,32.161c-0.191-0.055-0.732,0.364-1.068,0.29c-0.045-0.208,0.15-0.092,0.246-0.124
		C8.607,32.238,8.991,31.985,9.168,32.161z M9.209,34.134c0.033,0.259-0.246,0.109-0.328,0.123c0.021-0.033,0.042-0.066,0.041-0.123
		C9.018,34.134,9.113,34.134,9.209,34.134z M8.593,29.368c-0.125,0.022-0.28,0.16-0.534,0.165
		C8.141,29.396,8.473,29.335,8.593,29.368z M6.867,32.615c0.239-0.183,0.643-0.101,0.986-0.247
		C7.999,32.542,7.117,32.672,6.867,32.615z M6.375,29.942c0.08-0.125,0.344-0.064,0.493-0.123
		C6.809,30.035,6.578,29.851,6.375,29.942z M4.196,38.695c0.13-0.144,0.375-0.172,0.616-0.206
		C4.779,38.702,4.386,38.774,4.196,38.695z M4.608,35.12c0.057-0.11,0.364-0.194,0.328,0.042C4.822,35.068,4.733,35.202,4.608,35.12
		z M4.978,34.997c0.059-0.114,0.396,0.052,0.246-0.165c0.048,0.062,0.171,0.049,0.165,0.165c-0.028,0.082-0.245-0.025-0.205,0.123
		C5.054,35.14,5.074,35.01,4.978,34.997z M5.142,38.448c0.135-0.158,0.411-0.224,0.698-0.328C5.755,38.378,5.35,38.314,5.142,38.448
		z M6.004,38.08c0.031-0.16,0.274-0.11,0.37-0.207C6.591,37.967,6.125,38.196,6.004,38.08z M6.621,37.873
		c-0.02-0.199,0.241-0.116,0.329-0.207C7.059,37.793,6.759,37.86,6.621,37.873z M7.565,37.462c-0.011-0.109,0.057-0.135,0.166-0.124
		C7.743,37.447,7.674,37.474,7.565,37.462z M7.483,35.408c0.013-0.056,0.103-0.035,0.165-0.042c0.007-0.035-0.017-0.038-0.042-0.041
		c0.036-0.123,0.062,0.096,0.165,0.041C7.716,35.475,7.589,35.446,7.483,35.408z M7.607,34.545c-0.824-0.1-1.484,0.369-2.26,0.287
		c0.059-0.153,0.337,0.154,0.288-0.122c0.797-0.086,1.484-0.309,2.301-0.329C7.842,34.452,7.643,34.417,7.607,34.545z M7.977,34.421
		c0.092-0.119,0.173-0.095,0.411-0.124C8.335,34.424,8.172,34.438,7.977,34.421z M8.182,35.08c0.177,0.11,0.174-0.065,0.37-0.041
		C8.613,35.205,8.167,35.224,8.182,35.08z M8.429,37.133c-0.007-0.115,0.101-0.118,0.205-0.124
		C8.64,37.125,8.534,37.128,8.429,37.133z M9.086,34.997c-0.066-0.085-0.206-0.094-0.37-0.083c0.111-0.102,0.218-0.114,0.493-0.123
		C9.172,34.864,9.042,34.844,9.086,34.997z M9.126,36.806c0.026-0.147,0.277-0.07,0.371-0.043
		C9.456,36.928,9.25,36.805,9.126,36.806z M10.073,36.599c-0.173-0.022-0.231,0.072-0.371,0.082
		c0.004-0.188,0.278-0.276,0.411-0.205C10.092,36.51,10.071,36.543,10.073,36.599z M9.333,34.832
		c0.266-0.198,0.546-0.11,0.862-0.122C10.056,34.869,9.536,34.734,9.333,34.832z M10.113,33.888c0.042-0.098,0.21-0.083,0.328-0.041
		C10.41,33.939,10.211,33.862,10.113,33.888z M10.934,33.725c-0.029,0.133-0.229,0.098-0.328,0.163
		C10.654,33.773,10.81,33.764,10.934,33.725z"/>
	<path fill-rule="evenodd" clip-rule="evenodd" d="M22.435,42.937c0.005,0,0.011-0.001,0.017-0.001
		C22.446,42.936,22.44,42.936,22.435,42.937z"/>
	<path fill-rule="evenodd" clip-rule="evenodd" d="M29.629,30.271c-0.026,0.071-0.094,0.026-0.083-0.041
		c-0.214,0.17-0.612,0.252-0.944,0.412c-0.314-0.07-0.569,0.191-0.986,0.329c-0.169,0.056-0.369,0.032-0.494,0.083
		c-0.247,0.098-0.614,0.354-1.027,0.37c-0.048,0.007-0.034,0.075-0.042,0.124c-0.77,0.021-1.369,0.502-2.053,0.574
		c-0.048,0.007-0.035,0.074-0.042,0.123c-0.305-0.098-0.533,0.226-0.804,0.267c0.02,0.15-0.012,0.345-0.098,0.605l-0.115,0.315
		c0.042-0.077,0.069-0.167,0.196-0.159c-0.048,0.111-0.081,0.234-0.227,0.247l-0.221,0.605h7.113l0.644-1.826
		c0.371-1.038,0.41-1.796,0.122-2.3c-0.287,0.085-0.583,0.155-0.898,0.192C29.623,30.205,29.566,30.262,29.629,30.271z
		 M24.78,34.052c-0.025-0.184,0.258-0.204,0.37-0.124C25.096,34.039,24.891,33.997,24.78,34.052z M26.793,33.395
		c0.007-0.09,0.104-0.087,0.207-0.083C26.985,33.458,26.892,33.419,26.793,33.395z M27.493,33.19c0-0.042,0-0.083,0-0.125
		c0.055,0,0.11,0,0.165,0C27.669,33.175,27.571,33.173,27.493,33.19z"/>
	<path fill-rule="evenodd" clip-rule="evenodd" d="M21.578,37.237l-0.574,1.6c-0.123,0.348-0.278,0.592-0.487,0.748
		c-0.209,0.173-0.47,0.243-0.766,0.243c-0.313,0-0.504-0.069-0.591-0.224c-0.087-0.158-0.07-0.418,0.052-0.766l1.967-5.484
		c-0.222,0.132-0.721,0.082-0.877,0.372c-0.15-0.039-0.218,0.07-0.288,0c0.032-0.039,0.045-0.094,0.042-0.166
		c0.22,0.028,0.336-0.048,0.492-0.082c-0.03-0.039-0.075-0.063-0.123-0.083c0.263-0.05,0.546-0.161,0.844-0.293
		c0.12-0.341,0.275-0.596,0.481-0.75c0.191-0.157,0.434-0.227,0.748-0.227c0.331,0,0.521,0.069,0.608,0.227l0,0
		c0.12-0.03,0.239-0.053,0.359-0.066c0.076-0.007,0.025-0.139,0.082-0.164c0.302-0.031,0.644-0.116,0.945-0.288
		c0.006,0.043,0.078,0.167,0.083-0.042c0.177,0.053,0.191-0.014,0.287-0.122c0.22,0.015,0.554-0.064,0.739-0.287
		c0.114,0.1,0.251-0.058,0.329,0.041c0.651-0.431,1.72-0.522,2.424-0.944c0.73-0.05,1.388-0.489,2.115-0.622
		c-0.026-0.033-0.047-0.068-0.077-0.098c-0.469-0.486-1.547-0.729-3.216-0.729h-7.304c-0.856,0-1.594,0.075-2.225,0.222
		c-0.062,0.053-0.155,0.085-0.228,0.054c-0.134,0.037-0.263,0.078-0.385,0.122c0.035,0.001,0.072,0.008,0.103,0.024
		c-0.041,0.096-0.237,0.036-0.287,0.122c-0.02-0.025-0.021-0.049-0.012-0.071c-0.19,0.078-0.37,0.162-0.532,0.257
		c-0.817,0.504-1.426,1.34-1.86,2.539l-0.041,0.116c0.086-0.07,0.161-0.119,0.144,0.078c-0.062-0.025-0.124-0.041-0.164-0.021
		l-0.043,0.118c0,0.01,0,0.016,0.001,0.026c-0.003,0-0.007,0.001-0.011,0.001l-1.001,2.8c0.711-0.248,1.825-0.416,2.532-0.377
		c0.078-0.152,0.256-0.256,0.41-0.125c-0.187,0.146-0.64,0.248-0.985,0.287c-0.628,0.074-1.284,0.134-1.964,0.234L11.7,39.984
		c-0.365,1.026-0.295,1.774,0.227,2.243c0.503,0.47,1.495,0.713,2.973,0.713h1.969c0.007-0.021,0.012-0.041,0.011-0.069
		c0.119,0.037,0.125,0.037,0.246,0c0.027,0.016-0.012,0.044-0.072,0.069h5.151c0.013,0,0.025,0,0.038,0
		c-0.02-0.007-0.04-0.014-0.063-0.028c0.03-0.053,0.359-0.095,0.368,0.021c1.415-0.03,2.521-0.254,3.309-0.689
		c0.482-0.256,0.883-0.61,1.213-1.057c-0.249,0.014-0.469,0.269-0.617,0.04c0.284-0.053,0.525-0.15,0.762-0.25
		c0.188-0.296,0.352-0.624,0.485-0.993l0.077-0.221l-0.091-0.014c0.033-0.013,0.07-0.025,0.109-0.037l0.878-2.476H21.578z
		 M27.165,29.287c-0.183,0.004-0.242-0.116-0.452-0.083C26.804,29.055,27.096,29.167,27.165,29.287z M26.506,29.245
		c0.078,0.018,0.176,0.016,0.164,0.123C26.563,29.379,26.466,29.382,26.506,29.245z M25.809,29.615
		c-0.134,0.022-0.192-0.029-0.288-0.042C25.588,29.493,25.786,29.463,25.809,29.615z M16.769,32.984
		c0.083,0.042-0.15,0.251-0.246,0.123C16.546,33.007,16.788,33.126,16.769,32.984z M16.769,34.832
		c0.012,0.095-0.119,0.047-0.124,0.124c-0.072-0.038-0.143-0.077-0.122-0.206C16.665,34.719,16.696,34.796,16.769,34.832z
		 M16.604,31.339c0.007-0.034-0.016-0.037-0.041-0.04c0.017-0.102,0.188-0.032,0.123,0.083c-0.194-0.032-0.225,0.103-0.329,0.165
		C16.272,31.471,16.42,31.281,16.604,31.339z M15.003,32.285c-0.169-0.04-0.265,0.103-0.371,0
		C14.731,32.224,14.969,32.066,15.003,32.285z M14.139,33.928c0.163-0.125,0.403-0.061,0.617-0.163
		C14.639,33.891,14.343,34.022,14.139,33.928z M14.838,33.765c0.023-0.137,0.155-0.06,0.246-0.041
		C15.049,33.87,14.983,33.729,14.838,33.765z M15.537,32.039c-0.227-0.049-0.225,0.132-0.452,0.083
		c0.109-0.124,0.283-0.183,0.452-0.246C15.659,31.902,15.497,31.962,15.537,32.039z M15.619,33.519
		c-0.123-0.027,0.039-0.089,0-0.166c0.095-0.013,0.157,0.008,0.205,0.042C15.844,33.523,15.636,33.425,15.619,33.519z
		 M15.741,30.271c0.096,0.018,0.175,0.261,0.288,0.124C16.088,30.557,15.72,30.505,15.741,30.271z M16.235,32.696
		c-0.073-0.093-0.234-0.095-0.248-0.245c0.129-0.02,0.117,0.102,0.165,0.164c0.132,0.009,0.174-0.073,0.329-0.042
		C16.44,32.74,16.292,32.544,16.235,32.696z M16.304,40.941c0.145,0.013,0.101,0.111,0.247,0.04
		C16.595,41.118,16.208,41.112,16.304,40.941z M16.632,40.941c0.102-0.007,0.198-0.009,0.248,0.04
		C16.879,41.044,16.574,41.072,16.632,40.941z M16.92,40.941c0.007-0.127,0.221-0.088,0.205,0.04
		C17.01,41.015,17.02,40.923,16.92,40.941z M17.18,31.259c-0.17,0.01-0.16-0.055-0.288,0c0.002-0.149,0.216-0.085,0.288-0.165
		C17.304,31.121,17.141,31.182,17.18,31.259z M21.933,39.83c-0.161,0.142-0.449,0.154-0.699,0.207
		C21.358,39.87,21.675,39.822,21.933,39.83z M21.069,40.078c-0.059,0.036-0.358,0.179-0.37,0C20.828,40,20.985,40.07,21.069,40.078z
		 M20.659,40.078c-0.01,0.198-0.122,0.04-0.246,0.123C20.447,40.113,20.513,40.056,20.659,40.078z M19.275,35.861
		c-0.006-0.136,0.168-0.197,0.248-0.124C19.545,35.884,19.399,35.862,19.275,35.861z M19.728,33.847
		c0.026,0.042,0.095,0.042,0.083,0.123c-0.213-0.128-0.487,0.089-0.699,0c-0.036,0.131,0.063,0.128,0.123,0.164
		c-0.154-0.003,0.041,0.109,0.041,0.287c-0.171,0.008-0.133-0.195-0.205-0.287c-0.375,0.027-0.861,0.538-1.109,0.287
		c0.847-0.242,1.372-0.645,2.014-0.74C19.904,33.751,19.872,33.855,19.728,33.847z M18.782,33.107
		c-0.087-0.062-0.133-0.167-0.288-0.164c-0.017-0.086,0.029-0.109,0.042-0.166c0.078,0.019,0.074,0.12,0.205,0.083
		C18.711,32.986,18.783,33.01,18.782,33.107z M18.823,33.19c-0.007-0.09,0.146-0.02,0.206-0.042
		c-0.021,0.033-0.043,0.066-0.042,0.124C18.875,33.301,18.905,33.19,18.823,33.19z M19.234,31.875
		c0.12-0.014,0.358-0.049,0.452-0.042c-0.156,0.021-0.159,0.196-0.369,0.165C19.331,31.915,19.308,31.869,19.234,31.875z
		 M20.139,31.71c0.064-0.13,0.222-0.232,0.369-0.163C20.359,31.575,20.31,31.705,20.139,31.71z M22.357,30.684
		c0.175,0.042,0.158,0.024,0.287-0.042C22.684,30.768,22.341,30.845,22.357,30.684z M24.205,29.942
		c0.062,0.036,0.061,0.132,0.083,0.207c-0.118,0.009-0.225,0.003-0.206-0.123C24.153,30.027,24.188,29.996,24.205,29.942z
		 M23.672,30.271c0.117,0.148-0.257,0.154-0.412,0.166C23.283,30.266,23.593,30.385,23.672,30.271z M23.22,30.437
		c-0.04,0.101-0.396,0.095-0.288,0.206c-0.003,0.054-0.245,0.002-0.206-0.124C22.934,30.64,22.971,30.393,23.22,30.437z
		 M21.412,29.492c0.513-0.092,0.973-0.45,1.439-0.452c-0.547,0.305-1.022,0.409-1.521,0.575
		C21.154,29.493,21.554,29.562,21.412,29.492z M21.124,29.573c0,0.056,0,0.11,0,0.166c-0.563,0-0.865,0.473-1.396,0.369
		C20.292,29.91,20.565,29.833,21.124,29.573z M19.769,30.149c0,0.041,0,0.082,0,0.122c-0.102,0.008-0.199,0.008-0.247-0.041
		C19.527,30.125,19.659,30.15,19.769,30.149z M19.152,30.355c0.04-0.001,0.031-0.05,0.042-0.084
		c0.072-0.004,0.086,0.051,0.164,0.041c-0.018,0.068-0.13,0.036-0.083,0.167c-0.129-0.009-0.245-0.029-0.246-0.167
		C19.095,30.301,19.1,30.352,19.152,30.355z M19.111,31.957c0.015,0.139-0.179,0.068-0.247,0.123
		c-0.019-0.034-0.036-0.074-0.083-0.081C18.857,31.836,18.941,32.054,19.111,31.957z M18.537,31.998
		c0.051,0.058,0.192,0.025,0.245,0.081c-0.057,0.084-0.141-0.04-0.245,0.042C18.537,32.079,18.537,32.039,18.537,31.998z
		 M18.413,30.518c0.055,0.013,0.033,0.104,0.04,0.166c-0.064,0.003-0.156-0.02-0.164,0.04c-0.055-0.026-0.077-0.087-0.082-0.164
		C18.303,30.573,18.385,30.648,18.413,30.518z M18.578,32.491c-0.291,0.057-0.209-0.257-0.452-0.247
		C18.27,31.956,18.413,32.424,18.578,32.491z M17.837,31.299c0.123,0.071,0.323,0.061,0.328,0.248
		C17.998,31.523,17.887,31.44,17.837,31.299z M18.165,30.642c-0.072,0.105-0.187,0.168-0.369,0.165
		C17.833,30.667,18.067,30.721,18.165,30.642z M17.754,32.491c-0.063,0.208,0.161-0.138,0.33-0.084
		c-0.088,0.064-0.153,0.149-0.247,0.208c-0.17,0.047-0.159-0.087-0.288-0.083C17.542,32.443,17.695,32.514,17.754,32.491z
		 M17.66,40.733c0.649,0.009,1.329-0.305,2.218-0.45c-0.156,0.151-0.52,0.248-0.74,0.204C18.691,40.652,18.054,40.919,17.66,40.733z
		 M18.07,42.583c0.101-0.047,0.292-0.138,0.369-0.081C18.386,42.516,18.279,42.613,18.07,42.583z M18.728,42.379
		c0.141-0.077,0.422-0.19,0.534-0.165C19.109,42.279,18.854,42.419,18.728,42.379z M19.673,41.967
		c0.129,0.02,0.145-0.072,0.287-0.041C20.026,42.078,19.647,42.119,19.673,41.967z M20.372,40.201
		c-0.085,0.065-0.217,0.085-0.371,0.081C20.104,40.178,20.246,40.181,20.372,40.201z M20.042,41.886
		c-0.016-0.099,0.188,0.022,0.124-0.123c0.101,0.073,0.279-0.094,0.287,0.123C20.271,41.841,20.154,41.984,20.042,41.886z
		 M20.453,41.763c0.046-0.083,0.401-0.231,0.453-0.043C20.689,41.663,20.604,41.885,20.453,41.763z M21.069,41.558
		c0.33-0.123,0.656-0.25,0.987-0.371C21.993,41.394,21.347,41.562,21.069,41.558z M25.26,40.283
		c-0.406-0.002-0.47,0.086-0.781,0.164C24.639,40.34,25.151,40.043,25.26,40.283z M24.397,40.487
		c-0.028,0.039-0.163,0.041-0.328,0.042C24.103,40.437,24.321,40.417,24.397,40.487z M24.042,39.394
		c0.128-0.02,0.131,0.088,0.123,0.205C24.036,39.617,24.033,39.511,24.042,39.394z M23.165,39.502
		c0.125-0.002,0.271-0.022,0.246,0.124C23.382,39.532,23.127,39.663,23.165,39.502z M23.289,40.733
		c0.228,0.095-0.225,0.238-0.33,0.125C23.042,40.708,23.26,40.879,23.289,40.733z M22.22,39.707
		c0.101-0.021,0.233-0.042,0.452-0.041C22.641,39.764,22.203,39.828,22.22,39.707z M22.507,41.228
		c-0.061-0.048-0.182-0.035-0.164-0.164c0.163,0.052,0.084-0.135,0.247-0.082C22.61,41.11,22.531,41.142,22.507,41.228z
		 M22.631,41.021c0.078-0.148,0.112-0.087,0.287-0.121C22.922,41.039,22.767,41.02,22.631,41.021z M22.754,42.748
		c0.061-0.201,0.309-0.167,0.411-0.04C23.032,42.818,22.955,42.736,22.754,42.748z M23.371,42.667
		c-0.153,0.044-0.118-0.104-0.247-0.084c0.064-0.085,0.284-0.018,0.328-0.122C23.534,42.479,23.416,42.637,23.371,42.667z
		 M24.027,42.254c-0.014-0.214,0.236,0.09,0.165-0.162c0.077-0.04,0.137,0.122,0.165,0c0.059,0.008,0.014,0.122,0.082,0.122
		C24.381,42.308,24.153,42.229,24.027,42.254z M24.438,42.092c0.04-0.085,0.158-0.091,0.288-0.084
		C24.765,42.176,24.504,42.15,24.438,42.092z M26.042,41.434c-0.103,0.294-0.606,0.188-0.74,0.452
		c-0.169-0.032-0.209,0.062-0.37,0.04c0.457-0.242,0.925-0.471,1.479-0.616C26.358,41.396,26.166,41.556,26.042,41.434z
		 M25.876,40.078c0.167-0.112,0.37-0.25,0.616-0.165C26.344,40.024,26.15,40.091,25.876,40.078z M26.534,39.956
		c0.033-0.089,0.169-0.162,0.247-0.083C26.743,39.944,26.652,39.962,26.534,39.956z M27.068,39.83
		c0.079-0.094,0.291-0.003,0.412-0.04C27.382,39.946,27.251,39.877,27.068,39.83z"/>
	<path fill-rule="evenodd" clip-rule="evenodd" d="M41.79,31.423c-0.302,0.217-0.549,0.487-0.785,0.771h3.114l0.49-1.349
		c-0.017-0.02-0.035-0.036-0.065-0.039c0.022-0.041,0.057-0.047,0.094-0.038l0.63-1.74h-1.091c-0.752,0.731-1.493,1.473-2.303,2.146
		C41.884,31.297,41.78,31.302,41.79,31.423z"/>
	<path fill-rule="evenodd" clip-rule="evenodd" d="M30.615,41.077c0.015,0.111-0.039,0.502,0.041,0.412
		C30.641,41.378,30.693,40.989,30.615,41.077z"/>
	<path fill-rule="evenodd" clip-rule="evenodd" d="M38.01,35.983c0.074-0.007,0.086,0.05,0.164,0.041
		c-0.087-0.308,0.155-0.526,0.33-0.698c0.037-0.319,0.135-0.578,0.369-0.699c0.002-0.163,0.07-0.539,0.288-0.617
		c-0.002-0.115,0.021-0.205,0.056-0.285h-0.001l0.557-1.53h0.797c0.049-0.054,0.089-0.116,0.112-0.196
		c0.096,0.001,0.12-0.07,0.246-0.042c0.511-0.532,0.891-1.409,1.603-1.602c0.318-0.144,0.736-0.375,0.617-0.822
		c0.069-0.015,0.076,0.032,0.081,0.083c0.12-0.18,0.26-0.389,0.428-0.586h-9.849L28.834,42.94h11.46l1.13-3.165H37.06l0.384-1.078
		c-0.027-0.02-0.046-0.046-0.049-0.085c0.03-0.032,0.062-0.041,0.092-0.04l0.598-1.684h4.366l1.131-3.165h-4.013
		c-0.44,1.051-1.05,1.931-1.558,2.916C37.931,36.505,38.06,36.225,38.01,35.983z M30.698,41.736
		c-0.056,0.006-0.054-0.24-0.124-0.084c-0.09-0.519,0.021-1.043,0.082-1.603C30.885,40.448,30.718,41.211,30.698,41.736z
		 M32.587,36.024c-0.071-0.025,0.002-0.195-0.083-0.207c0.005-0.088,0.175-0.016,0.248-0.04c-0.061,0.16,0.119,0.242,0.082,0.04
		C32.948,36.008,32.724,36.001,32.587,36.024z M39.941,42.146c0.097,0.061,0.076,0.085,0.206,0.042
		c-0.002,0.107-0.243,0.123-0.042,0.204C39.983,42.538,39.899,42.301,39.941,42.146z M39.612,42.435
		c-0.229-0.062-0.256,0.236-0.41,0.122C39.238,42.432,39.586,42.188,39.612,42.435z M37.559,42.312
		c0.132-0.053,0.031,0.132,0.164,0.081c-0.021,0.104,0.001,0.247-0.123,0.246C37.657,42.453,37.44,42.436,37.559,42.312z
		 M37.723,34.421c0.104,0.045,0.08,0.221,0.082,0.37C37.638,34.808,37.76,34.536,37.723,34.421z M37.764,34.381
		c-0.139-0.073-0.011-0.228-0.082-0.411C37.816,33.994,37.833,34.282,37.764,34.381z M37.601,32.984
		c-0.108-0.137,0.008-0.4,0.041-0.533c-0.065-0.208-0.193,0.1-0.247-0.083c0.169-0.106-0.002-0.198-0.041-0.412
		C37.681,32.085,37.75,32.613,37.601,32.984z M37.189,31.751c-0.155-0.066-0.229-0.208-0.33-0.329
		C37.053,31.449,37.123,31.599,37.189,31.751z M34.395,40.462c0.062-0.303,0.243-0.261,0.575-0.247
		C34.857,40.376,34.562,40.354,34.395,40.462z M35.134,29.287c0.108-0.011,0.207-0.014,0.165,0.123
		C35.191,29.421,35.123,29.395,35.134,29.287z M35.217,30.684c0.15,0.032,0.25-0.22,0.452-0.124
		c-0.057,0.136-0.232,0.151-0.37,0.205C35.281,30.728,35.263,30.691,35.217,30.684z M35.504,39.763
		c0.054-0.097,0.099-0.202,0.247-0.206C35.741,39.698,35.663,39.771,35.504,39.763z M36.038,39.722
		c-0.125,0.029-0.12-0.07-0.246-0.042C35.808,39.605,36.099,39.514,36.038,39.722z M35.833,30.724
		c0.471,0.349,0.861,0.784,1.232,1.233C36.666,31.698,36.144,31.208,35.833,30.724z M36.984,39.271
		c0.047-0.132,0.068-0.288,0.246-0.288C37.183,39.114,37.162,39.271,36.984,39.271z M37.27,37.544
		c0.137-0.426,0.307-0.817,0.576-1.109C38.058,36.807,37.654,37.509,37.27,37.544z"/>
	<path fill-rule="evenodd" clip-rule="evenodd" d="M62.22,32.194l1.148-3.165H51.909l-1.952,5.459
		c0.095,0.011,0.242,0.088,0.338,0.097c-0.085,0.084-0.254,0.013-0.356-0.047l-3.004,8.401h7.095l2.089-5.862
		c-0.046,0.024-0.099,0.042-0.154,0.055c0.024-0.127,0.219-0.081,0.165-0.287c0.041,0,0.082,0,0.124,0
		c0,0.015-0.002,0.029-0.004,0.043h1.446c0.011-0.083,0.079-0.11,0.119-0.167c0.055,0.026,0.049,0.112,0.007,0.167h2.73l1.13-3.165
		h-4.365l0.556-1.53H62.22z M50.008,37.462c0.108-0.012,0.135,0.057,0.123,0.165C50.022,37.64,49.996,37.569,50.008,37.462z
		 M49.679,38.448c0.078-0.104,0.145,0.039,0.247-0.041c-0.071,0.053-0.108,0.14-0.247,0.123
		C49.705,38.494,49.729,38.457,49.679,38.448z M49.638,37.626c0.02,0.128-0.036,0.183-0.164,0.165
		C49.522,37.729,49.509,37.607,49.638,37.626z M49.597,38.448c0.01,0.139-0.152,0.212-0.247,0.124
		C49.385,38.484,49.452,38.426,49.597,38.448z M48.816,38.778c-0.056-0.015-0.035-0.104-0.042-0.166c0.056,0,0.11,0,0.165,0
		C48.976,38.746,48.804,38.669,48.816,38.778z M49.35,40.503c0.029-0.126,0.029-0.079,0-0.207c0.086-0.016,0.109,0.029,0.165,0.042
		c-0.01,0.044-0.081,0.028-0.082,0.083c0.057,0.081,0.212-0.088,0.328-0.083C49.711,40.479,49.521,40.479,49.35,40.503z
		 M49.844,40.421c-0.028-0.126-0.028-0.08,0-0.205c0.18-0.02,0.135,0.125,0.287,0.041c-0.007,0.047,0.009,0.072,0.041,0.082
		C50.086,40.479,49.976,40.342,49.844,40.421z M53.705,34.792c-0.16,0.144-0.324-0.057-0.411-0.123
		C53.405,34.573,53.5,34.846,53.705,34.792z M50.295,40.132c0.129-0.019,0.108,0.112,0.206,0.125
		C50.446,40.361,50.232,40.282,50.295,40.132z M50.707,42.681c-0.064,0.082-0.45,0.229-0.452,0c0.093-0.031,0.32,0.073,0.287-0.083
		C50.656,42.577,50.871,42.791,50.707,42.681z M50.912,40.216c0-0.042,0-0.084,0-0.125c0.11-0.005,0.299-0.055,0.451,0
		C51.358,40.341,51.001,40.132,50.912,40.216z M51.856,29.368c-0.003-0.125,0.124-0.123,0.248-0.123
		C52.066,29.33,51.981,29.371,51.856,29.368z M52.268,29.163c0.036-0.085,0.12-0.124,0.246-0.123
		C52.503,29.156,52.329,29.22,52.268,29.163z M52.925,38.982c-0.055,0-0.11,0-0.165,0C52.729,38.824,52.958,38.824,52.925,38.982z
		 M52.761,39.803c0-0.041,0-0.081,0-0.123c0.116,0.035,0.107-0.056,0.205-0.04C52.866,39.663,52.929,39.849,52.761,39.803z
		 M53.048,37.792c0-0.054,0-0.11,0-0.165c0.042,0,0.082,0,0.124,0C53.183,37.733,53.156,37.804,53.048,37.792z M53.377,39.024
		c-0.105-0.006-0.082-0.139-0.083-0.246c0.079,0.076,0.104,0.003,0.207,0C53.533,38.933,53.38,38.903,53.377,39.024z M53.459,36.681
		c-0.105-0.005-0.082-0.138-0.083-0.246C53.526,36.396,53.435,36.597,53.459,36.681z M53.705,38.49
		c0.086-0.089,0.134,0.004,0.206,0.041C53.918,38.598,53.642,38.612,53.705,38.49z M54.404,36.394
		c-0.027-0.148,0.003-0.204-0.123-0.083c-0.193-0.42-0.994-0.56-1.397-0.903c0.679,0.099,1.213,0.743,1.808,0.656
		c0.017-0.099-0.076-0.089-0.042-0.204C55.028,36.033,54.601,36.311,54.404,36.394z M58.677,36.23
		c-0.115-0.008-0.175-0.073-0.165-0.207c0.07,0,0.137,0,0.206,0C58.752,36.141,58.66,36.131,58.677,36.23z M58.512,34.75
		c-0.114,0.177-0.016,0.153,0.042,0.33C58.39,35.107,58.298,34.735,58.512,34.75z M58.184,34.298
		c0.032,0.037,0.044,0.095,0.042,0.165c-0.071,0.015-0.078-0.032-0.083-0.082c-0.132-0.05-0.031,0.133-0.165,0.082
		C57.973,34.334,58.085,34.321,58.184,34.298z M56.089,34.216c0.088,0.091,0.146-0.029,0.122-0.164c0.027,0,0.056,0,0.083,0
		c-0.007,0.035,0.016,0.039,0.042,0.042C56.28,34.173,56.128,34.486,56.089,34.216z M56.376,33.806
		c0.1,0.023,0.212,0.036,0.206,0.165C56.441,33.988,56.347,33.957,56.376,33.806z M56.54,35.242
		c-0.061-0.036,0.012-0.286,0.042-0.369C56.694,34.963,56.568,35.158,56.54,35.242z M56.787,36.064
		c-0.061-0.225,0.149-0.18,0.165-0.328C57.081,35.729,56.915,36.064,56.787,36.064z M56.869,35.491
		c0.079-0.101,0.106-0.252,0.289-0.249C57.092,35.356,57.063,35.507,56.869,35.491z M57.115,35.861c0-0.109-0.016-0.235,0.043-0.289
		C57.217,35.582,57.252,35.91,57.115,35.861z M57.608,36.599c0.151-0.036,0.056,0.232-0.041,0.207
		C57.534,36.689,57.625,36.7,57.608,36.599z M57.322,36.394c0.083,0.033-0.026,0.217-0.042,0.287
		C57.167,36.618,57.277,36.435,57.322,36.394z M57.814,30.271c-0.025,0.087-0.086,0.133-0.124,0.208
		C57.586,30.422,57.665,30.209,57.814,30.271z M57.774,30.56c-0.03-0.113,0.081-0.083,0.082-0.165
		c0.142,0.09,0.339,0.125,0.328,0.37c-0.054-0.067-0.232-0.014-0.287-0.081c0.012-0.057,0.103-0.035,0.164-0.042
		C58.06,30.435,57.939,30.601,57.774,30.56z"/>
	<path fill-rule="evenodd" clip-rule="evenodd" d="M22.549,42.954c0.001-0.009-0.002-0.014-0.003-0.021
		c-0.031,0-0.062,0.002-0.094,0.002C22.481,42.937,22.513,42.94,22.549,42.954z"/>
	<path fill-rule="evenodd" clip-rule="evenodd" d="M22.435,42.937c-0.066,0-0.127,0.004-0.194,0.004
		C22.31,42.959,22.366,42.938,22.435,42.937z"/>
	<path fill-rule="evenodd" clip-rule="evenodd" d="M27.754,39.761l0.022,0.003l0.001-0.002
		C27.77,39.761,27.761,39.761,27.754,39.761z"/>
</g>
<g>
	<path d="M91.547,42.517c-0.048,0.165-0.107,0.316-0.214,0.424h3.178c0.136-0.122,0.259-0.26,0.37-0.408l0.097-0.267
		c-0.051,0.009-0.114,0.075-0.187,0.046c0.023-0.217,0.01-0.396-0.246-0.33c0.029-0.111-0.081-0.082-0.084-0.164
		c-0.001-0.126,0.039-0.21,0.126-0.246c-0.029-0.13-0.111-0.054-0.205-0.041c-0.094,0.023,0.05,0.062-0.042,0.122
		c-0.122-0.069-0.193-0.189-0.37-0.204c-0.059,0.014-0.003,0.071,0.041,0.082c-0.092,0.142-0.076-0.168-0.246-0.082
		c-0.129,0.436-0.75,0.892-0.74,0.163c-0.271,0.13-0.275-0.287-0.369-0.081c-0.19-0.047,0-0.219-0.206-0.123
		c0.012-0.121-0.092-0.127-0.081-0.247c0.145-0.034,0.165-0.19,0.287-0.246c0.005,0.136,0.085,0.177-0.04,0.246
		c0.028,0.221,0.396,0.122,0.286,0.37c0.134-0.017,0.118-0.184,0.288-0.166c0.013,0.166,0.004,0.306-0.082,0.372
		c0.128,0.02,0.198-0.098,0.122,0.04c0.235-0.14,0.131-0.499,0.411-0.658c-0.046-0.234-0.154-0.15-0.327-0.246
		c0.028-0.127,0.028-0.078,0-0.205c0.327-0.095,0.1-0.315,0.082-0.576c-0.005-0.092-0.104,0.053-0.206,0
		c0.004-0.111-0.068-0.083,0-0.165c0.116,0.077,0.059,0.136,0.247,0.083c0.039-0.029,0.062-0.074,0.08-0.123
		c-0.14-0.131-0.206-0.34-0.492-0.33c-0.047,0.05,0.103,0.253,0.124,0.37c-0.109-0.091-0.21,0.062-0.287-0.041
		c-0.084,0.095-0.117,0.24-0.164,0.37c-0.13-0.028-0.055-0.11-0.042-0.207c-0.051,0.047-0.085,0.037-0.083-0.041
		c-0.147,0.206-0.312-0.078-0.451,0c-0.148-0.251,0.279-0.314,0.206-0.494c0.204,0.345,0.414-0.107,0.37,0.288
		c0.065-0.011,0.069,0.04,0.123,0.043c0.021-0.082,0.034-0.214,0.081-0.29c-0.123-0.04-0.193-0.134-0.369-0.123
		c-0.071-0.29,0.312-0.127,0.288-0.369c0.302,0,0.771-0.306,1.026-0.248c0.03,0.141-0.167,0.053-0.123,0.207
		c0.008,0.076,0.139,0.025,0.164,0.082c-0.014,0.136-0.07,0.231-0.164,0.288c-0.127-0.012-0.186-0.09-0.287-0.123
		c-0.111-0.031-0.083,0.081-0.165,0.082c0.03,0.037,0.074,0.062,0.124,0.082c0.047-0.009,0.022-0.041,0-0.041
		c0.086-0.095,0.171,0.182,0.328,0.041c0.005,0.077,0.027,0.138,0.081,0.164c0.223-0.152,0.466-0.308,0.577-0.616
		c0.186,0.064-0.029,0.145-0.042,0.246c0.043,0.247,0.188,0.366,0.41,0.329c-0.131,0.125-0.472,0.406-0.122,0.535
		c0.133-0.071,0.099-0.312,0.163-0.451c0.162,0.063,0.179,0.377,0.412,0.246c-0.082,0.083-0.14,0.192-0.246,0.246
		c0.013,0.098,0.05,0.17,0.08,0.247c0.069-0.008,0.19,0.036,0.171-0.059c0.033,0.132-0.045,0.104,0.077,0.265
		c-0.032-0.022-0.067-0.042-0.124-0.041c-0.026,0.253,0.146,0.309,0.293,0.391l0.444-1.236c-0.008-0.065,0.016-0.098,0.046-0.125
		l0.076-0.215c0.036-0.102,0.066-0.2,0.099-0.299c-0.018-0.012-0.034-0.025-0.054-0.035c0.001-0.052,0.046-0.079,0.093-0.081
		c0.296-0.977,0.339-1.727,0.123-2.262c-0.242-0.591-0.853-0.991-1.843-1.184c0.404-0.067,0.777-0.158,1.116-0.266
		c0.051-0.038,0.111-0.062,0.195-0.068c0.518-0.183,0.958-0.414,1.314-0.691c0.626-0.487,1.112-1.2,1.443-2.139
		c0.417-1.183,0.365-2.017-0.157-2.54c-0.521-0.503-1.6-0.765-3.251-0.765H83.604l-0.807,2.26c0.013-0.011,0.027-0.021,0.039-0.03
		c0.009,0.06-0.027,0.12-0.091,0.173L78.876,42.26c0.008-0.007,0.016-0.017,0.017-0.032c0.104,0.004,0.058,0.161,0.162,0.165
		c-0.062,0.104-0.16,0.027-0.213-0.037l-0.118,0.329c0.007,0.022,0.009,0.047,0.002,0.078c-0.013,0.003-0.021,0-0.029-0.002
		l-0.063,0.18h2.924c0.003-0.089,0.02-0.189,0.007-0.26c0.054,0.051,0.068,0.152,0.065,0.26h4.098l2.053-5.738h0.78
		c0.384,0,0.61,0.07,0.715,0.227c0.105,0.139,0.086,0.4-0.053,0.765l-1.688,4.747h3.618c0.036-0.135,0.07-0.267,0.106-0.384
		C91.4,42.59,91.416,42.497,91.547,42.517z M94.34,42.188c0.009,0.29,0.264-0.08,0.165-0.125c0.038-0.062,0.197,0.103,0.245,0.164
		c-0.078-0.077-0.073,0.024-0.205,0c0.101,0.23-0.114,0.23-0.084,0.495c-0.127,0.005-0.178,0.093-0.326,0.082
		C93.914,42.598,94.08,42.252,94.34,42.188z M94.054,41.939C93.957,42.291,93.721,41.746,94.054,41.939L94.054,41.939z
		 M93.229,41.036c0.022-0.139,0.2-0.061,0.287-0.041c-0.006,0.048-0.072,0.034-0.121,0.041c0.013,0.095-0.007,0.157-0.041,0.206
		c-0.035-0.021-0.067-0.042-0.125-0.041C93.192,41.125,93.354,41.063,93.229,41.036z M96.106,37.751
		c0.253,0.038,0.222,0.249,0,0.205C96.078,37.829,96.078,37.876,96.106,37.751z M96.723,34.298c0.105,0.045,0.097,0.238-0.082,0.207
		C96.609,34.377,96.753,34.425,96.723,34.298z M95.901,34.381c0.187,0.017,0.173,0.112,0.37,0.041
		c0.003,0.168-0.165,0.165-0.122,0.37C95.957,34.821,95.799,34.62,95.901,34.381z M95.778,34.504c-0.126-0.029-0.08-0.029-0.205,0
		c-0.006-0.077-0.027-0.138-0.083-0.164C95.554,34.267,95.794,34.363,95.778,34.504z M93.024,38.736
		c-0.018,0.086,0.06,0.079,0.124,0.081c-0.037,0.061-0.061,0.131-0.164,0.125c0-0.084,0-0.165,0-0.248
		c0.073,0.005,0.087-0.05,0.164-0.042c-0.001,0.042-0.05,0.032-0.083,0.042C93.169,38.766,93.134,38.8,93.024,38.736z
		 M94.011,37.504c-0.068,0-0.137,0-0.206,0c-0.001-0.106,0.032-0.05,0.083-0.042c0.007-0.047-0.009-0.074-0.041-0.083
		c0.013-0.055,0.103-0.033,0.164-0.041C94.011,37.394,94.011,37.449,94.011,37.504z M94.587,39.147
		c0.095-0.013,0.156,0.007,0.204,0.041C94.788,39.311,94.547,39.298,94.587,39.147z M94.791,38.943
		c0.144-0.021,0.144,0.101,0.207,0.163C94.924,39.215,94.753,39.079,94.791,38.943z M95.942,36.806
		c0.099,0.054-0.089-0.021-0.164,0.041c0.03-0.067-0.082-0.18-0.084-0.083C95.562,36.541,95.938,36.684,95.942,36.806z M95.819,38.9
		c-0.021,0.021-0.094,0.358,0.041,0.247c0.101,0.026,0.008,0.192-0.041,0.206c-0.211-0.014-0.053-0.184-0.206-0.206
		C95.623,39.004,95.648,38.88,95.819,38.9z M95.694,39.722c-0.076-0.079,0.025-0.075,0-0.207c0.062,0.036,0.131,0.063,0.125,0.165
		c-0.139,0.013-0.163,0.136-0.206,0.246c-0.052-0.125-0.181,0.026-0.163-0.205C95.603,39.725,95.567,39.769,95.694,39.722z
		 M95.037,35.861c0.139,0.027,0.145,0.185,0.248,0.245c-0.036,0.123-0.104-0.053-0.205,0c-0.018,0.101,0.187-0.021,0.123,0.125
		c-0.048-0.035-0.109-0.054-0.205-0.042C95.075,36.067,94.985,35.935,95.037,35.861z M94.791,38.53
		c0.009,0.034,0.043,0.042,0.041,0.082c0.216-0.065,0.054-0.255,0.289-0.286c-0.022,0.032-0.045,0.066-0.041,0.122
		c0.066-0.134,0.258,0.11,0.246-0.082c0.054,0,0.11,0,0.164,0c0.048,0.048,0.047,0.146,0.041,0.246
		c-0.201,0.023-0.156,0.081-0.328,0.083c-0.021,0.152,0.188,0.183-0.042,0.329c0.013,0.056,0.104,0.032,0.165,0.041
		c-0.028,0.081-0.109,0.109-0.205,0.123c0.013-0.242-0.523-0.341-0.371-0.451c-0.23-0.104-0.137,0.075-0.492-0.083
		c0.083-0.361,0.372-0.259,0.658-0.412C94.969,38.432,94.84,38.441,94.791,38.53z M94.669,35.572
		c-0.022,0.061-0.062,0.105-0.082,0.165c-0.038-0.025-0.074-0.05-0.082,0C94.42,35.701,94.564,35.555,94.669,35.572z M94.505,36.763
		c-0.025,0.037-0.051,0.075,0,0.083c-0.184,0.021-0.142,0.27-0.288,0.33c-0.091-0.007-0.018-0.175-0.041-0.247
		c-0.082,0-0.165,0-0.246,0c-0.033-0.038-0.046-0.093-0.042-0.166c-0.006-0.001-0.009,0-0.014,0
		c-0.013,0.019-0.023,0.034-0.027,0.043c0.003-0.021,0.007-0.041,0.027-0.043c0.064-0.081,0.221-0.238,0.343-0.286
		c0.091,0.086-0.021,0.116,0,0.246C94.28,36.853,94.462,36.671,94.505,36.763z M94.299,36.024c0.072,0.011,0.095,0.07,0.083,0.165
		c-0.038,0.032-0.094,0.045-0.165,0.042C94.186,36.104,94.359,36.18,94.299,36.024z M93.97,29.492
		c-0.006,0.104-0.061,0.157-0.165,0.164C93.811,29.552,93.866,29.496,93.97,29.492z M94.054,36.435c-0.092,0.276-0.31,0-0.493,0.164
		c-0.044-0.121-0.083-0.179-0.206-0.123C93.478,36.28,93.909,36.298,94.054,36.435z M92.244,38.736
		c0.131-0.095-0.087-0.184-0.041-0.329c0.098-0.061,0.076-0.087,0.206-0.041c-0.007-0.197,0.038-0.345,0.123-0.452
		c0.131-0.037,0.085,0.106,0.165,0.124c0.129,0.019,0.168-0.051,0.204-0.124c-0.069-0.04-0.105-0.113-0.081-0.248
		c0.19,0.03,0.35-0.298,0.575-0.369c-0.041-0.055-0.068-0.123-0.124-0.165c-0.022-0.059,0.16-0.1,0.042-0.124
		c0.198-0.099,0.31,0.103,0.574,0c-0.044,0.147-0.138,0.245-0.371,0.206c-0.008,0.056-0.086,0.149-0.08,0.329
		c-0.131,0.009-0.139,0.135-0.288,0.122c-0.027,0.151,0.088,0.158,0.081,0.29c-0.057,0.078-0.199,0.074-0.288,0.124
		c0.122,0.138,0.182,0.328,0.372,0.328c-0.127,0.06-0.022,0.123-0.084,0.205c-0.139-0.193-0.284-0.171-0.492-0.246
		c-0.023,0.106,0.017,0.147,0.124,0.123c0.004,0.209-0.322,0.088-0.246,0.369C92.426,38.884,92.299,38.846,92.244,38.736
		c-0.062-0.002-0.058,0.243-0.082,0.042c-0.148,0.152,0.22,0.133,0.122,0.369c-0.354,0.094-0.259-0.261-0.575-0.204
		C91.788,38.72,92.094,38.686,92.244,38.736z M91.793,30.642c0.029,0.126-0.042,0.15-0.041,0.246
		c-0.209,0.023-0.001-0.145-0.165-0.123C91.615,30.685,91.697,30.656,91.793,30.642z M91.3,39.434
		c-0.062-0.211,0.098-0.203,0.122-0.329c0.035-0.008,0.041,0.017,0.043,0.042c0.113,0.098,0.323-0.056,0.531,0
		c0.005,0.254-0.109,0.479-0.409,0.534c0.069,0.04,0.121,0.13,0.041,0.206c-0.055-0.009-0.076-0.17-0.081,0
		c-0.098-0.108-0.244-0.167-0.288-0.33c0.037-0.03,0.092-0.043,0.163-0.041C91.441,39.429,91.364,39.438,91.3,39.434z
		 M86.903,30.395c0.051,0.019,0.085,0.052,0.083,0.123c-0.387,0.189-0.815,0.338-1.274,0.453
		C86.035,30.614,86.522,30.676,86.903,30.395z M83.453,37.338c0.013,0.109-0.059,0.136-0.166,0.124
		C83.289,37.351,83.381,37.265,83.453,37.338z M83.123,35.449c0.018,0.085-0.028,0.109-0.04,0.166
		c-0.056-0.016-0.065-0.074-0.123-0.084C82.986,35.476,83.047,35.456,83.123,35.449z M82.96,35.655
		c-0.098,0.001-0.121-0.072-0.248-0.04C82.73,35.422,82.942,35.521,82.96,35.655z M82.712,35.242
		c0.212,0.006,0.083,0.164,0.041,0.249C82.662,35.485,82.736,35.316,82.712,35.242z M81.849,36.806
		c0.141,0.017,0.098,0.268-0.082,0.204C81.731,36.879,81.832,36.884,81.849,36.806z M81.069,40.667
		c0.077-0.06-0.086,0.279-0.206,0.288C80.798,40.726,81.04,40.804,81.069,40.667z M79.425,41.652
		c0.249,0.084,0.711,0.304,0.862,0.615C79.949,42.134,79.508,41.912,79.425,41.652z M80.412,42.393c0-0.041,0-0.081,0-0.125
		c0.134,0.055,0.086,0.062,0.206,0.084C80.624,42.439,80.471,42.369,80.412,42.393z M80.741,41.16c-0.106-0.01,0.056-0.071,0-0.165
		c0.116,0.007,0.195,0.052,0.163,0.206C80.814,41.183,80.803,40.987,80.741,41.16z M80.945,42.885
		c-0.086-0.063-0.014-0.287-0.082-0.368c0.091-0.079,0.219,0.053,0.286,0.122C81.147,42.787,80.992,42.781,80.945,42.885z
		 M81.274,40.378c-0.121-0.057,0.072-0.141,0.043-0.247C81.479,40.174,81.309,40.298,81.274,40.378z M81.398,37.667
		c0.148,0.042,0.344,0.04,0.368,0.207C81.638,37.952,81.412,37.834,81.398,37.667z M81.687,42.021
		c-0.096-0.084,0.019-0.305,0.04-0.41C81.854,41.729,81.698,41.909,81.687,42.021z M81.767,41.448
		c-0.007-0.365,0.174-0.895,0.207-1.357C82.095,40.427,81.896,41.098,81.767,41.448z M83.984,39.271c0,0.137-0.132,0.14-0.121,0.286
		c-0.501,0.31-0.692,1.143-1.399,1.11c0.817-0.474,1.31-1.269,1.893-1.972c0.047,0.006,0.033,0.074,0.041,0.122
		C84.253,38.962,84.175,39.171,83.984,39.271z M84.397,37.504c-0.066-0.161,0.176-0.013,0.163-0.125
		C84.684,37.439,84.514,37.545,84.397,37.504z M84.479,38.612c0.045-0.146,0.143-0.243,0.289-0.286
		C84.758,38.499,84.586,38.67,84.479,38.612z M85.218,31.216c0.08-0.139,0.222-0.216,0.412-0.246
		C85.598,31.157,85.377,31.156,85.218,31.216z M85.712,37.257c0.036-0.007,0.039,0.016,0.041,0.041
		c0.071-0.038,0.074-0.145,0.124-0.206C86.083,37.106,85.721,37.47,85.712,37.257z M86.493,36.435
		c0.031-0.174,0.23-0.179,0.286-0.33C86.818,36.188,86.614,36.377,86.493,36.435z M86.616,34.134
		c-0.002-0.139,0.262-0.367,0.327-0.575C87.036,33.789,86.709,33.953,86.616,34.134z M86.697,32.737
		c0.126-0.148,0.328-0.218,0.535-0.286C87.245,32.709,86.832,32.761,86.697,32.737z M87.52,34.915
		c0.206-0.291,0.491-0.543,0.616-0.698C88.114,34.469,87.761,34.744,87.52,34.915z M88.464,30.067
		c-0.035-0.13,0.066-0.127,0.081-0.205C88.628,29.879,88.621,30.15,88.464,30.067z M88.856,34.176l0.713-1.981h0.783
		c0.381,0,0.608,0.068,0.712,0.226c0.104,0.14,0.087,0.4-0.051,0.782c-0.122,0.347-0.296,0.609-0.505,0.749
		c-0.208,0.138-0.487,0.225-0.869,0.225H88.856z M89.901,40.338c-0.143-0.188,0.165-0.272,0.205-0.411
		C90.185,40.047,89.978,40.234,89.901,40.338z M90.231,39.847c0.143-0.615,0.689-0.146,1.027-0.125
		c-0.049,0.133,0.251,0.119,0.246,0.328c-0.103-0.005-0.199-0.006-0.205,0.082c-0.137-0.043-0.002-0.124-0.082-0.246
		c-0.287,0.145-0.465-0.086-0.617-0.206C90.424,39.682,90.462,39.899,90.231,39.847z M90.601,40.667
		c0.081,0.113,0.345-0.067,0.288-0.082c0.018-0.061,0.053,0.016,0.123,0C91.037,40.821,90.666,40.846,90.601,40.667z M91.218,40.421
		c-0.154,0.03-0.178-0.07-0.329-0.042c0.021-0.104-0.04-0.35,0.246-0.287C91.205,40.195,91.298,40.275,91.218,40.421z"/>
	<path d="M106.736,38.837c-0.122,0.348-0.277,0.592-0.487,0.748c-0.208,0.173-0.469,0.243-0.765,0.243
		c-0.096,0-0.177-0.01-0.248-0.023c-0.006,0.032-0.007,0.06-0.009,0.082c0.321,0.269,0.589,0.59,0.575,1.191
		c-0.098,0.025-0.188,0.06-0.329,0.041c-0.213-0.413-0.255-0.858-0.326-1.333c-0.118-0.037-0.205-0.095-0.253-0.182
		c-0.088-0.158-0.07-0.418,0.051-0.766l0.11-0.307c-0.053,0-0.105,0-0.157,0c-0.096-0.208-0.089-0.512-0.328-0.574
		c0.06-0.098,0.086-0.078,0.041-0.205c0.515-0.304,0.504,0.436,0.458,0.741l1.928-5.376c0.122-0.347,0.278-0.609,0.487-0.764
		c0.192-0.157,0.436-0.227,0.748-0.227c0.331,0,0.521,0.069,0.608,0.227c0.088,0.155,0.069,0.399-0.052,0.764l-0.365,1.008h7.112
		l0.644-1.826c0.425-1.192,0.414-2.015-0.027-2.507c-0.019,0.031-0.046,0.053-0.035,0.112c-0.2,0.025-0.238-0.183-0.141-0.273
		c-0.147-0.112-0.334-0.208-0.562-0.289c-0.045,0.398-0.531,0.136-0.778,0.356c0.014,0.096,0.042,0.177,0.123,0.205
		c-0.035,0.032-0.182-0.015-0.164,0.165c-0.121-0.015-0.299-0.102-0.371-0.041c0.264,0.067,0.255,0.404,0.577,0.41
		c0,0.054,0,0.11,0,0.164c-0.204,0.124-0.357,0.04-0.616-0.041c-0.019,0.047-0.074,0.164-0.207,0.205
		c0.055,0.105,0.037,0.259-0.081,0.166c0.007-0.047,0.04-0.023,0.04,0c0.124-0.048-0.14-0.145-0.122,0
		c-0.043-0.042-0.083-0.082-0.124-0.123c-0.109-0.013,0.109,0.159-0.082,0.123c0.01-0.235-0.018-0.301,0.041-0.535
		c-0.156,0.008-0.155,0.173-0.328,0.165c-0.033-0.035-0.045-0.093-0.042-0.165c0.069-0.067,0.242-0.033,0.37-0.04
		c-0.036-0.143-0.01-0.346-0.205-0.329c0.074-0.085,0.15-0.012,0.081-0.165c-0.107,0.083-0.242,0.142-0.369,0.205
		c0.11,0.3-0.161,0.506-0.287,0.698c0.032,0.146,0.118,0.237,0.163,0.37c-0.035,0.119-0.102-0.053-0.204,0
		c-0.063-0.379-0.038-0.753,0.081-1.027c-0.037-0.085-0.121-0.125-0.246-0.124c0.033-0.364,0.637-0.157,0.781-0.411
		c0.19,0.086,0.409-0.062,0.575,0.083c-0.13,0.09,0.017,0.379-0.123,0.287c-0.009,0.146,0.196,0.205,0.288,0.125
		c-0.011-0.071-0.071-0.094-0.165-0.083c0.048-0.047,0.045-0.145,0.041-0.245c0.197,0.019,0.128-0.229,0.246-0.288
		c0.167,0.007,0.327-0.109,0.411,0.042c0.117-0.087,0.27-0.213,0.435-0.235c-0.561-0.152-1.309-0.228-2.244-0.228h-3.719
		c0.038,0.014,0.073,0.03,0.105,0.051c0.003,0.067-0.069,0.18,0,0.082c0.086,0.078-0.116,0.21-0.288,0.165
		c-0.041-0.083-0.103-0.145-0.164-0.205c-0.034-0.088,0.034-0.075,0.07-0.093h-0.361c0.001,0.003,0,0.006,0.003,0.011
		c-0.026,0.007-0.071-0.004-0.124-0.011h-0.119c-0.05,0.01-0.095,0.034-0.126,0.093c-0.042-0.029-0.065-0.062-0.075-0.093h-2.505
		c-1.565,0-2.747,0.244-3.564,0.729c-0.277,0.171-0.528,0.385-0.759,0.632c0.058,0.026,0.113,0.055,0.165,0.088
		c0.11,0.408,0.412,0.627,0.533,1.026c0.28,0.259,0.513,0.653,0.74,1.068c0.117,0.217,0.329,0.567,0.164,0.78
		c-0.771-0.419-0.892-1.49-1.561-2.013c-0.026-0.098-0.025-0.181-0.124-0.286c-0.157-0.007-0.133,0.167-0.205,0.246
		c0.003-0.167-0.084-0.244-0.168-0.322c-0.247,0.377-0.464,0.814-0.648,1.32l-1.611,4.512c0.001-0.001,0.002-0.002,0.003-0.003
		c0.143,0.016,0.054,0.109,0.205,0.041c-0.111,0.189-0.165,0.208-0.329,0.37c0.046-0.043,0.052-0.11,0.033-0.162l-0.714,2
		c0.021-0.01,0.044-0.021,0.065-0.029c0.073,0.029,0.007,0.074,0,0.123c0.266,0.058,0.297-0.113,0.533-0.082
		c-0.01,0.044-0.08,0.028-0.08,0.082c0.152,0.028,0.402-0.201,0.491-0.369c-0.133-0.106-0.269,0.102-0.451,0.165
		c-0.029-0.163-0.194-0.554,0.083-0.371c0.006-0.116-0.101-0.12-0.206-0.124c0.075-0.232,0.456,0.092,0.574,0.206
		c0.227-0.165,0.36-0.194,0.413-0.494c-0.008-0.048-0.077-0.035-0.126-0.04c-0.001-0.126,0.088-0.159,0.126-0.247
		c0.104,0.004,0.057,0.16,0.163,0.165c0.201-0.061,0.43-0.191,0.615-0.372c0.351,0.309,0.73-0.433,1.028-0.616
		c0.096-0.057-0.008,0.03,0.083-0.122c0.062-0.108,0.229-0.161,0.327-0.248c0.256-0.224,0.481-0.551,0.74-0.617
		c0.135,0.723-1.288,1.409-1.767,2.138c-0.177-0.013-0.204,0.125-0.412,0.081c-0.468,0.779-1.247,1.246-1.889,1.849
		c0.022,0.072,0.196-0.043,0.286-0.041c-0.144,0.367-0.528,0.402-0.615,0.74c-0.229,0.006-0.395,0.125-0.542,0.266
		c-0.004,0.475,0.143,0.853,0.452,1.131c0.503,0.47,1.495,0.713,2.972,0.713h5.128c-0.018-0.032-0.033-0.064-0.039-0.097
		c-0.026-0.153,0.088-0.269,0.082-0.409c-0.009-0.262-0.272-0.397-0.205-0.658c-0.141,0.078-0.014-0.138-0.04-0.328
		c0.072-0.01,0.205,0.041,0.163-0.084c0.191,0.175,0.306,0.741,0.165,0.987c0.018,0.104,0.177,0.068,0.205,0.165
		c0.018,0.158,0.054,0.299,0.104,0.424h1.743c1.583,0,2.8-0.227,3.649-0.696c0.854-0.452,1.463-1.2,1.845-2.26l0.974-2.748h-7.095
		L106.736,38.837z M108.885,33.806c-0.059,0.002-0.115,0.006-0.123-0.041c-0.05,0.005-0.036,0.074-0.042,0.123
		c-0.143-0.013,0.003-0.111-0.081-0.123c0.053-0.11,0.134-0.126,0.246-0.084C108.885,33.725,108.885,33.765,108.885,33.806z
		 M116.074,29.984c0.092,0.007,0.088,0.104,0.083,0.206C116.073,30.16,115.988,30.067,116.074,29.984z M116.034,31.464
		c0.022,0.175-0.175,0.127-0.247,0.205C115.517,31.5,115.939,31.156,116.034,31.464z M115.171,32.451
		c-0.126,0.029-0.12-0.071-0.247-0.043c0.048-0.047,0.046-0.146,0.042-0.247c0.15-0.026,0.219,0.029,0.287,0.083
		C115.235,32.323,115.136,32.318,115.171,32.451z M115.253,29.902c0,0.082,0,0.165,0,0.247c-0.091,0.061-0.178,0.124-0.329,0.122
		C114.736,30.078,115.027,29.926,115.253,29.902z M114.76,30.149c0.104,0.003,0.082,0.137,0.082,0.246
		C114.674,30.371,114.76,30.283,114.76,30.149z M114.802,30.971c0.124,0.053,0.337,0.017,0.41,0.124
		c0.001,0.096-0.071,0.12-0.041,0.245c-0.232,0.001-0.406-0.059-0.452-0.245C114.807,31.113,114.797,31.035,114.802,30.971z
		 M114.554,31.464c0.013,0.109-0.056,0.135-0.163,0.123C114.393,31.476,114.484,31.39,114.554,31.464z M114.062,31.504
		c0.014,0.093,0.203,0.093,0.082,0c0.011-0.096,0.181-0.023,0.204,0C114.327,31.665,113.907,31.738,114.062,31.504z M112.664,33.107
		c-0.048,0.007-0.072-0.009-0.081-0.042c-0.043,0.026-0.044,0.096-0.125,0.083c0.033-0.091,0.083-0.165,0.206-0.165
		C112.664,33.025,112.664,33.065,112.664,33.107z M112.5,30.026c-0.026-0.042-0.094-0.042-0.083-0.124c0.056,0,0.11,0,0.166,0
		c0.05,0.187-0.146,0.131-0.166,0.247c-0.061-0.036-0.129-0.062-0.122-0.165C112.409,29.951,112.402,30.042,112.5,30.026z
		 M111.473,30.026c0.091,0.059-0.051,0.099,0.041,0.123c-0.092,0.213-0.384,0.232-0.574,0.082
		C111.005,30.052,111.267,30.066,111.473,30.026z M110.405,31.011c0.105-0.015,0.123-0.123,0.246-0.123
		c0.049,0.054,0.016,0.066,0,0.123c0.186,0.079,0.072-0.146,0.163-0.163c0.088-0.02,0.079,0.059,0.082,0.123
		c0.297,0.02,0.247-0.373,0.33-0.453c0.07,0.102,0.163,0.083,0.328,0.042c-0.022,0.145,0.146,0.101,0.124,0.247
		c-0.162-0.068-0.016,0.177-0.124,0.164c0.012,0.083,0.11,0.082,0.166,0.124c-0.075,0.117-0.239,0.146-0.371,0.205
		c0.029,0.126,0.029,0.079,0,0.205c-0.065,0.004-0.158-0.02-0.164,0.042c-0.112-0.038,0.073-0.145-0.042-0.208
		c-0.083,0.016-0.465,0.238-0.492,0c0.046,0.012,0.028,0.083,0.082,0.083c0.033-0.009,0.041-0.041,0.081-0.041
		c-0.024-0.043-0.093-0.044-0.081-0.124c-0.16,0.032-0.215,0.042-0.328-0.042C110.405,31.149,110.405,31.081,110.405,31.011z
		 M109.993,29.533c0.274-0.005,0.239,0.364-0.081,0.287C109.865,29.649,109.998,29.66,109.993,29.533z M110.197,30.271
		c-0.149,0.199-0.299,0.212-0.614,0.289C109.542,30.114,109.962,30.375,110.197,30.271z M109.172,31.547
		C108.657,31.239,109.545,30.966,109.172,31.547L109.172,31.547z M109.172,30.479c-0.017,0.099,0.076,0.088,0.042,0.205
		c-0.145,0.077-0.185-0.021-0.247-0.124C109.001,30.5,109.069,30.472,109.172,30.479z M109.049,31.547
		c0.007,0.034-0.017,0.037-0.041,0.041c0.016,0.079,0.159,0.032,0.123,0.164c-0.091,0.032-0.16,0.086-0.287,0.082
		C109.043,31.689,108.846,31.635,109.049,31.547z M108.473,31.998c-0.034,0.007-0.038-0.016-0.041-0.042
		c-0.039,0.001-0.031,0.051-0.04,0.082c-0.136-0.092-0.051-0.365-0.205-0.287c-0.074-0.03-0.006-0.076,0-0.123
		c0.026,0,0.055,0,0.082,0c0.06,0.184,0.23,0.062,0.37,0.204C108.589,31.893,108.473,31.889,108.473,31.998z M108.598,29.287
		c-0.053,0.199,0.033,0.419-0.084,0.616c-0.146-0.024-0.23,0.014-0.245,0.124C108.215,29.734,108.07,29.032,108.598,29.287z
		 M108.145,31.259c0.145-0.037,0.07,0.133,0.042,0.164c0.103,0.007,0.1-0.093,0.163-0.124c0.138,0.013-0.107,0.178,0.042,0.205
		c-0.063,0.006-0.271,0.003-0.288,0.165c-0.055-0.01-0.021-0.105-0.067-0.121C108.13,31.559,108.211,31.39,108.145,31.259z
		 M107.653,29.368c0.063-0.003,0.154,0.021,0.163-0.041c0.049-0.018,0.024,0.165-0.058,0.168c0.202,0.037,0.241,0.258,0.304,0.489
		c-0.105-0.108-0.082,0.057-0.083,0.165c-0.092-0.012-0.152,0.01-0.163,0.082c0.044,0.141,0.013-0.114,0.123-0.041
		c-0.021,0.034-0.042,0.067-0.04,0.122c-0.095,0.059-0.155-0.105-0.165,0C107.665,30.078,107.581,29.573,107.653,29.368z
		 M107.281,29.739c0.164,0.013-0.029,0.126,0.083,0.164c-0.01,0.045-0.082,0.027-0.083,0.082
		C107.166,29.942,107.293,29.81,107.281,29.739z M107.241,30.149c0.153-0.016,0.211,0.186,0.123,0.288
		c-0.166,0.056-0.129-0.09-0.246-0.082C107.111,30.238,107.241,30.257,107.241,30.149z M107.2,31.833c0.086-0.03,0.16-0.03,0.247,0
		c-0.084,0.207,0.05,0.191,0.04,0.411c-0.074,0.004-0.087-0.05-0.164-0.04c-0.015,0.069,0.032,0.077,0.08,0.081
		c-0.097,0.085-0.229,0.097-0.409,0.083c0.006-0.104,0.009-0.2-0.082-0.208c0.014-0.049,0.237,0.035,0.369,0
		c-0.03-0.189-0.34-0.176-0.409-0.082c-0.089-0.212,0.267-0.596,0.04-0.74c0.026-0.053,0.088-0.076,0.165-0.081
		C107.126,31.44,107.15,31.649,107.2,31.833z M106.912,29.656c-0.054,0.166,0.196,0.237,0.042,0.371
		c-0.143-0.039-0.129-0.23-0.166-0.371C106.83,29.656,106.872,29.656,106.912,29.656z M106.542,30.271
		c0.095,0.117,0.022,0.328-0.164,0.289c-0.018-0.035-0.037-0.073-0.082-0.082C106.322,30.352,106.388,30.268,106.542,30.271z
		 M99.023,36.353c0.105-0.044,0.065,0.255,0.124,0.124c0.063,0.015-0.037,0.073,0.042,0.083
		C99.117,36.665,98.981,36.494,99.023,36.353z M100.955,32.491c-0.152,0.028-0.182-0.064-0.164-0.206
		c0.076-0.006,0.135-0.026,0.164-0.081C100.965,32.235,101.022,32.402,100.955,32.491z M100.832,31.71
		c0.015-0.053,0.072-0.065,0.08-0.123c0.104,0.046,0.121,0.182,0.124,0.328C100.891,31.925,100.995,31.684,100.832,31.71z
		 M101.201,34.915c-0.11,0.03-0.083-0.082-0.165-0.083c0.062-0.095,0.101-0.062,0.205-0.041
		C101.221,34.825,101.198,34.858,101.201,34.915z M101.284,40.748c-0.148-0.057-0.188-0.222-0.205-0.41c0.026,0,0.054,0,0.081,0
		C101.331,40.363,101.355,40.598,101.284,40.748z M104.57,33.229c0.055-0.103,0.269-0.025,0.206,0.123
		c-0.11-0.114-0.312,0.144-0.33,0.247C104.208,33.5,104.592,33.232,104.57,33.229z M104.816,35.655
		c-0.069-0.014-0.078,0.032-0.081,0.082c-0.17-0.008-0.361,0.004-0.37-0.165c0.13,0.217,0.136-0.156,0.287-0.164
		C104.788,35.409,104.81,35.524,104.816,35.655z M104.201,34.134c0.095-0.013,0.156,0.007,0.205,0.041
		c0.002,0.154-0.041,0.261-0.083,0.37c-0.088,0.016-0.066-0.283-0.122-0.164C104.089,34.343,104.258,34.253,104.201,34.134z
		 M102.722,33.725c-0.003-0.313,0.336-0.266,0.493-0.125c0.085,0.503,0.455,0.722,0.491,1.273
		C103.12,34.894,103.177,33.966,102.722,33.725z M103.421,35.039c0.127,0.003,0.228-0.02,0.285-0.083
		c0.279,0.161,0.242,0.636,0.534,0.781c0.015-0.172,0.155,0.086,0.206,0.124c-0.081,0.014-0.128-0.009-0.123-0.083
		c-0.026,0-0.054,0-0.083,0c0.098,0.507,0.48,0.942,0.576,1.314c0.113-0.027,0.315-0.345,0.37-0.163
		c0.112-0.039-0.058-0.129,0-0.248c-0.108,0.068-0.343-0.021-0.451-0.082c0-0.095,0-0.192,0-0.288
		c0.049,0.008,0.072-0.009,0.081-0.041c0.099,0.269,0.436-0.323,0.166-0.287c0.058-0.142,0.267,0.025,0.245-0.123
		c0.156,0.158,0.103,0.324,0.164,0.41c-0.187,0,0.017,0.095-0.205,0.124c-0.006,0.088,0.146,0.019,0.205,0.041
		c-0.184,0.099,0.057,0.128,0.042,0.288c-0.071-0.107-0.146,0.066,0,0.04c-0.028,0.124-0.088-0.039-0.166,0
		c-0.063,0.162,0.18,0.017,0.166,0.125c0.178-0.007-0.05-0.194,0.124-0.165c0,0.096,0,0.191,0,0.287
		c-0.116,0.008-0.178,0.072-0.166,0.206c-0.229-0.024-0.24-0.04-0.409-0.083c-0.112,0.08-0.108,0.277-0.206,0.371
		c-0.182,0.015-0.318-0.011-0.411-0.082C104.321,36.637,103.587,35.958,103.421,35.039z M106.133,40.216
		c0.061-0.098,0.204,0.064,0.204,0.163C106.196,40.398,106.214,40.256,106.133,40.216z M112.008,39.557
		c0.104,0.007,0.159,0.061,0.163,0.166c-0.112-0.005-0.082,0.068-0.163,0c0.006,0.077,0.027,0.138,0.081,0.164
		c-0.035,0.12-0.131-0.024-0.205,0C111.897,39.75,111.927,39.628,112.008,39.557z M110.364,39.557
		c-0.269-0.138-0.303-0.063-0.452-0.245c0.007-0.048,0.04-0.023,0.04,0c0.236-0.024,0.288-0.049,0.453,0
		C110.435,39.436,110.334,39.432,110.364,39.557z M110.118,38.242c0.067,0.054,0.137,0.11,0.287,0.084
		c0.047,0.128,0.004,0.093,0,0.246c-0.088-0.012-0.505,0.114-0.536-0.165C109.993,38.356,110.075,38.426,110.118,38.242z
		 M109.83,39.312c0.028,0.113,0.173,0.195,0.039,0.245C109.781,39.471,109.718,39.404,109.83,39.312z M109.131,40.831
		c-0.037,0.061-0.062,0.132-0.164,0.124c-0.021-0.033-0.043-0.066-0.042-0.124C109.003,40.755,108.999,40.855,109.131,40.831z
		 M107.528,37.915c0.134-0.006,0.197,0.168,0.125,0.246c-0.099,0.017,0.021-0.187-0.125-0.122c-0.079-0.017-0.061,0.187,0.041,0.122
		c-0.026,0.123-0.089-0.039-0.166,0C107.384,38.015,107.439,37.949,107.528,37.915z"/>
	<path d="M105.062,38.53c0.003-0.011,0.005-0.025,0.007-0.039l-0.014,0.039C105.058,38.53,105.061,38.53,105.062,38.53z"/>
	<path d="M114.567,42.94h3.726c-0.015-0.234,0.184-0.32,0.329-0.178c0,0.059,0,0.118,0,0.178h2.344
		c0.021-0.217,0.341-0.225,0.368-0.014c-0.001,0.005-0.003,0.009-0.005,0.014h4.698l1.13-3.165h-4.364l0.146-0.411
		c-0.095,0.056-0.214,0.091-0.331,0.029c-0.055-0.193-0.008-0.416,0.286-0.37c0.042,0.054,0.076,0.112,0.1,0.185l0.824-2.319h0.396
		c-0.008-0.035-0.01-0.076-0.004-0.126c0.178,0.083,0.149,0.11,0.082-0.082c0.129-0.019,0.169,0.052,0.206,0.125
		c-0.002,0.033-0.01,0.061-0.021,0.083h3.706l1.131-3.165h-4.364l0.557-1.53h0.074c-0.037-0.02-0.058-0.056-0.139-0.034
		c0.004-0.118,0.232-0.108,0.206,0.034h4.204L131,29.029h-11.459L114.567,42.94z M126.346,39.803
		c0.247,0.027,0.299,0.25,0.494,0.329c-0.07,0.092-0.111,0.103-0.124,0.165c-0.169,0.02,0.04-0.111-0.124-0.122
		c-0.13,0.061-0.018,0.177-0.081,0.247C126.204,40.326,126.016,40,126.346,39.803z M127.291,30.807c0.041,0,0.082,0,0.125,0
		c-0.006,0.057-0.009,0.115,0.04,0.123C127.341,31.13,127.124,30.98,127.291,30.807z M129.675,31.299c0.053,0,0.109,0,0.163,0
		c-0.061,0.062-0.013,0.234-0.163,0.205C129.675,31.436,129.675,31.368,129.675,31.299z M129.14,30.149
		c0.102-0.017,0.091,0.075,0.206,0.041C129.324,30.263,129.083,30.347,129.14,30.149z M129.058,29.862
		c-0.071,0.052-0.107,0.139-0.246,0.122C128.846,29.896,128.913,29.839,129.058,29.862z M127.496,29.902
		c-0.069,0.074-0.161-0.013-0.164-0.123C127.439,29.768,127.509,29.794,127.496,29.902z M127.291,30.149
		c0.033,0.022,0.066,0.043,0.125,0.041c-0.023,0.114-0.265,0.338-0.289,0.082C127.206,30.254,127.304,30.257,127.291,30.149z
		 M125.566,30.189c-0.018,0.086,0.027,0.108,0.041,0.166c0.157-0.007,0.189-0.139,0.368-0.125c0.058,0.121,0.104,0.205,0,0.288
		c-0.197-0.174-0.487-0.001-0.696-0.163C125.353,30.28,125.391,30.164,125.566,30.189z M125.153,36.271
		c0.072-0.059,0.162-0.183,0.372-0.206C125.699,36.351,125.296,36.486,125.153,36.271z M124.826,33.725
		c0.153-0.018,0.239,0.031,0.246,0.163c0.075-0.144,0.397-0.007,0.41,0.165c0.052-0.018,0.086-0.053,0.084-0.124
		c0.049,0.156,0.084,0.327,0.163,0.453c-0.428-0.01-0.588-0.288-0.778-0.534c-0.145,0.012,0.003,0.11-0.085,0.123
		C124.716,34.008,124.792,33.753,124.826,33.725z M119.404,34.792c0.129-0.036,0.125,0.065,0.203,0.082
		c-0.005,0.132-0.093,0.181-0.247,0.166C119.356,34.936,119.355,34.841,119.404,34.792z M119.445,33.847
		c0.108,0.028,0.078-0.083,0.121-0.123c0.084,0.01,0.08,0.111,0.166,0.123c-0.07,0.066-0.103,0.172-0.248,0.163
		C119.489,33.938,119.436,33.924,119.445,33.847z M120.101,42.352c0.057-0.096,0.17-0.132,0.248-0.205
		c-0.156-0.122-0.091-0.459,0.204-0.37c0.068,0.179,0.165,0.329,0.328,0.412C120.814,42.414,120.271,42.614,120.101,42.352z
		 M121.703,42.927c0.099-0.096-0.034-0.141-0.082-0.204c0.009-0.061,0.122-0.015,0.122-0.084c0.066,0.203,0.13-0.058,0.167,0.205
		C121.783,42.815,121.859,42.987,121.703,42.927z M123.018,41.693c0.206,0.285,0.038,0.731-0.41,0.618
		c-0.093,0.017-0.002,0.216-0.082,0.245c-0.077,0.046-0.194,0.053-0.287,0.082c-0.15,0.041-0.035-0.186-0.165-0.164
		c-0.118,0.06,0.112,0.223,0,0.288c-0.271-0.172,0.087-0.479,0.288-0.411c-0.021-0.212-0.398-0.145-0.33-0.04
		c-0.025,0.049-0.196-0.102-0.369-0.044c-0.017,0.1,0.187-0.021,0.123,0.125c-0.14,0.108-0.335-0.207-0.288-0.287
		c-0.478-0.167-0.673-0.614-0.944-0.987c-0.791,0.361-1.062,1.238-1.891,1.562c-0.028-0.18,0.07-0.231,0.042-0.413
		c1.188-1.042,2.174-2.289,3.738-2.956c0.02,0.078,0.09,0.102,0.083,0.204c-0.452,0.563-1.142,0.887-1.727,1.315
		c0.172,0.267,0.388,0.489,0.575,0.74c0.351-0.172,0.808,0.004,0.987,0.246C122.69,41.887,122.71,41.646,123.018,41.693z
		 M120.265,31.629c0.239-0.025-0.03,0.222,0.206,0.163c-0.069,0.138-0.245,0.167-0.287,0.33c-0.156,0.005-0.222-0.081-0.247-0.206
		c0.136,0.021,0.179-0.231,0.247-0.04C120.302,31.83,120.318,31.75,120.265,31.629z M122.73,41.571
		c-0.086,0.035-0.121,0.124-0.246,0.122c-0.152-0.05,0.005-0.396-0.123-0.286C122.283,41.266,122.771,41.37,122.73,41.571z
		 M123.511,31.504c0.105,0.005,0.098,0.153,0.041,0.206C123.424,31.682,123.498,31.6,123.511,31.504z M123.718,32.86
		c0.15,0.182-0.033,0.622-0.287,0.658C123.332,33.26,123.633,33.072,123.718,32.86z M122.894,34.216
		c0.195-0.175,0.293-0.447,0.453-0.657c0.189,0.764-0.622,0.883-0.616,1.603c-0.126,0.123-0.161,0.331-0.329,0.41
		C122.23,35.087,122.859,34.761,122.894,34.216z M120.553,31.053c0.135,0.085-0.069,0.173-0.082,0.246
		c-0.088-0.024-0.224-0.142-0.248,0c-0.118-0.059-0.141-0.215-0.369-0.165c0.023-0.032,0.044-0.067,0.042-0.124
		c0.229,0.019,0.287,0.048,0.369-0.123C120.428,30.852,120.501,31.114,120.553,31.053z M120.306,30.108
		c-0.184,0.047-0.424,0.215-0.656,0.082C119.602,29.698,120.242,29.786,120.306,30.108z M119.69,30.601
		c0.023,0.086,0.101,0.117,0.082,0.247c-0.06,0.061-0.27,0.061-0.327,0C119.484,30.724,119.485,30.561,119.69,30.601z"/>
</g>
<path fill-rule="evenodd" clip-rule="evenodd" d="M66.765,44.197c0.069,0.085,0.147,0.168,0.169,0.229
	c-0.09-0.047-0.182-0.095-0.271-0.146C66.68,44.237,66.68,44.176,66.765,44.197z M81.661,29.076c-0.082-0.109-0.242-0.24-0.544-0.24
	c-0.406,0-0.929,0.239-1.184,0.4c-0.015,0.008-0.03,0.018-0.044,0.026c0.044-0.117,0.091-0.252,0.135-0.405
	c0.193-0.668,0.403-1.739,0.403-2.507c0-0.169-0.028-0.319-0.084-0.445c-0.061-0.134-0.15-0.243-0.266-0.324
	c-0.217-0.149-0.48-0.167-0.659-0.167c-0.104,0-0.202,0.006-0.298,0.013c-0.045,0.003-0.085,0.005-0.127,0.007
	c-0.232,0.01-0.511,0.085-0.829,0.222c-0.128,0.054-0.236,0.107-0.307,0.145c-0.078-0.003-0.19-0.006-0.322-0.006
	c-0.322,0-0.582,0.021-0.77,0.064c-0.204,0.044-0.436,0.149-0.688,0.311c-0.019,0.012-0.034,0.023-0.053,0.035
	c-0.068,0.046-0.131,0.091-0.175,0.124c-0.046,0.004-0.105,0.007-0.172,0.007c-0.159,0-0.354,0.053-0.476,0.091
	c-0.127-0.028-0.342-0.066-0.582-0.066c-0.195,0-0.375,0.025-0.536,0.075c-0.242,0.075-0.474,0.21-0.688,0.402
	c-0.063,0.056-0.116,0.111-0.157,0.155c-0.213,0.034-0.675,0.106-1.181,0.18c-0.003,0-0.008-0.001-0.011-0.001
	c-0.546,0-1.098,0.066-1.64,0.188c-0.299-0.36-0.692-0.821-0.961-1.072c-0.45-0.422-0.951-0.924-0.956-0.929l-0.102-0.073
	l-0.042-0.03l-0.923-0.665l0.312,0.539l0.029,0.14c-0.046-0.039-0.107-0.057-0.183-0.091c-0.143-0.065-0.207-0.08-0.211-0.083
	l-0.573-0.208l0.099,0.399l0.004,0.067l0.009,0.081c0,0.001,0.005,0.076,0.035,0.172c0.009,0.021,0.013,0.04,0.018,0.058
	c-0.054-0.022-0.102-0.052-0.126-0.071l-0.716-0.204l0.172,0.59c0.026,0.08,0.034,0.183,0.023,0.224
	c-0.063,0.025-0.133,0.038-0.207,0.038c-0.092,0-0.158-0.021-0.172-0.025l-0.614-0.132l0.177,0.609
	c0.025,0.052,0.047,0.12,0.06,0.173c-0.084-0.001-0.176-0.026-0.205-0.035l-0.708-0.157l0.314,0.687
	c0.002,0.002,0.047,0.068,0.091,0.153c0.017,0.037,0.03,0.067,0.04,0.092l-0.827,0.075l0.461,0.487l0.035,0.039
	c0.032,0.027,0.063,0.062,0.087,0.094c-0.078-0.007-0.226,0.026-0.256,0.015l-0.008,0.003l-0.401,0.075l0.136,0.295l0.069,0.166
	c0,0.001,0.005,0.046,0.024,0.056l-0.363,0.132l0.405,0.451c0,0,0.179,0.168,0.267,0.229c0.015,0.009,0.027,0.019,0.04,0.028
	c-0.055,0.039-0.098,0.094-0.123,0.16c-0.045,0.115-0.027,0.239,0.049,0.344c0.015,0.021,0.033,0.042,0.056,0.065
	c0.018,0.018,0.038,0.038,0.06,0.058c-0.072,0.053-0.121,0.134-0.137,0.226c-0.023,0.133,0.032,0.265,0.144,0.352
	c0.011,0.009,0.023,0.017,0.036,0.025c-0.034,0.046-0.057,0.099-0.064,0.158c-0.011,0.07,0.002,0.14,0.031,0.201
	c-0.234,0.347-0.451,0.713-0.65,1.099c-0.27,0.054-0.533,0.115-0.784,0.18c-0.36,0.093-0.59,0.167-0.738,0.225
	c-0.161,0.062-0.228,0.103-0.259,0.126c-0.006,0.003-0.01,0.006-0.014,0.01c-0.117,0.087-0.207,0.229-0.265,0.423
	c-0.044,0.146-0.068,0.317-0.07,0.496c-0.003,0.212,0.028,0.423,0.089,0.606c0.062,0.181,0.146,0.331,0.26,0.449
	c0.029,0.034,0.064,0.065,0.1,0.093c0.003,0.001,0.004,0.003,0.007,0.006c0.224,0.176,0.45,0.323,0.628,0.431
	c-0.643,3.526,0.608,6.968,3.288,8.646c-0.117-0.166-0.193-0.384-0.175-0.548c0.22-0.053,0.109,0.22,0.328,0.167
	c-0.001,0.095,0.071,0.119,0.042,0.246c0.127-0.029,0.454,0.28,0.363,0.447c0.061,0.03,0.119,0.062,0.182,0.09
	c0.627,0.289,1.277,0.474,1.939,0.56c0.036,0.006,0.071,0.009,0.108,0.011c0.101,0.012,0.2,0.022,0.301,0.03
	c0.053,0.004,0.108,0.006,0.163,0.008c0.082,0.006,0.165,0.008,0.249,0.009c0.026,0.001,0.054,0.002,0.081,0.002
	c0.051,0,0.104-0.001,0.155-0.002c0.03-0.001,0.061-0.001,0.092-0.002c0.12-0.006,0.24-0.011,0.359-0.021
	c0.003-0.001,0.005-0.001,0.007-0.001c0.115-0.011,0.232-0.023,0.348-0.038c0.033-0.005,0.066-0.011,0.1-0.015
	c0.089-0.015,0.179-0.028,0.267-0.045c0.033-0.007,0.067-0.013,0.101-0.021c0.108-0.018,0.215-0.042,0.322-0.068
	c0.01-0.003,0.021-0.006,0.031-0.008c0.118-0.027,0.234-0.061,0.354-0.096c0.029-0.009,0.059-0.019,0.087-0.027
	c0.089-0.027,0.179-0.058,0.266-0.087c0.034-0.012,0.069-0.024,0.104-0.036c0.092-0.033,0.184-0.068,0.275-0.105
	c0.023-0.009,0.049-0.019,0.073-0.028c0.114-0.046,0.226-0.097,0.339-0.148c0.025-0.012,0.05-0.024,0.072-0.035
	c0.089-0.041,0.178-0.085,0.266-0.131c0.034-0.018,0.069-0.037,0.104-0.055c0.083-0.044,0.164-0.089,0.244-0.134
	c0.031-0.018,0.061-0.035,0.089-0.052c0.109-0.063,0.218-0.13,0.325-0.199c0.012-0.01,0.025-0.02,0.039-0.027
	c0.094-0.061,0.186-0.123,0.276-0.188c0.032-0.022,0.065-0.047,0.098-0.07c0.076-0.054,0.15-0.109,0.223-0.166
	c0.032-0.024,0.063-0.048,0.094-0.072c0.094-0.074,0.188-0.149,0.277-0.228c0.009-0.006,0.017-0.014,0.024-0.02
	c0.1-0.084,0.195-0.172,0.293-0.26c0.027-0.027,0.055-0.054,0.084-0.08c0.068-0.065,0.138-0.134,0.205-0.2
	c0.03-0.031,0.06-0.061,0.092-0.092c0.063-0.065,0.125-0.135,0.188-0.202c-0.038-0.044-0.015-0.086,0.004-0.17
	c0.04,0,0.082,0,0.123,0c0.003,0.011,0.001,0.018,0.002,0.027c0.075-0.084,0.147-0.166,0.22-0.254
	c0.021-0.025,0.043-0.053,0.064-0.08c0.065-0.08,0.127-0.158,0.189-0.24c0.028-0.036,0.055-0.071,0.082-0.107
	c0.023-0.033,0.048-0.068,0.072-0.1c-0.051-0.03-0.077-0.086-0.138-0.107c0.061-0.109,0.192-0.14,0.256-0.058
	c0.018-0.025,0.034-0.051,0.053-0.075c0.078-0.111,0.154-0.229,0.228-0.346c0.012-0.02,0.025-0.042,0.039-0.063
	c0.062-0.097,0.12-0.196,0.179-0.297c0.023-0.039,0.045-0.077,0.067-0.117c0.049-0.089,0.098-0.179,0.146-0.27
	c0.02-0.039,0.04-0.077,0.059-0.116c0.066-0.125,0.129-0.253,0.188-0.385c0.064-0.138,0.124-0.276,0.183-0.415
	c0.024-0.058,0.044-0.114,0.066-0.172c0.002-0.003,0.002-0.005,0.004-0.01c-0.068-0.132,0.088-0.32,0.135-0.43
	c0.007,0.01,0.01,0.021,0.012,0.032c0.008-0.02,0.017-0.042,0.022-0.062c0.012-0.033,0.023-0.066,0.035-0.098
	c-0.035-0.166,0.116-0.389,0.097-0.611c0.03,0.022,0.048,0.061,0.058,0.104c0.026-0.094,0.049-0.188,0.073-0.282
	c0.009-0.036,0.017-0.07,0.026-0.105c0.026-0.109,0.049-0.218,0.072-0.328c0.004-0.022,0.008-0.047,0.014-0.07
	c0.024-0.119,0.045-0.237,0.063-0.357c0.002-0.011,0.004-0.022,0.004-0.032c0.171-1.076,0.165-2.138-0.004-3.142
	c0.115-0.128,0.236-0.267,0.36-0.428c0.254-0.327,0.445-0.62,0.501-0.708c0.051-0.055,0.228-0.234,0.473-0.39
	c0.206-0.131,0.37-0.351,0.487-0.649c0.036-0.092,0.063-0.178,0.081-0.246c0.074-0.059,0.175-0.147,0.281-0.267
	c0.275-0.299,0.48-0.655,0.592-1.026c0.036-0.123,0.051-0.232,0.046-0.334C81.767,29.28,81.729,29.168,81.661,29.076z M81.42,29.377
	c-0.005-0.018-0.008-0.035-0.014-0.049c-0.006-0.011-0.01-0.019-0.014-0.027c-0.009-0.012-0.019-0.025-0.03-0.036
	c-0.005-0.006-0.013-0.014-0.019-0.019c-0.013-0.009-0.026-0.017-0.042-0.026c-0.007-0.003-0.014-0.007-0.023-0.01
	c-0.02-0.008-0.041-0.014-0.064-0.019c-0.004,0-0.008-0.002-0.013-0.002c-0.028-0.005-0.06-0.006-0.09-0.006
	c-0.037,0-0.076,0.003-0.116,0.008c-0.005,0.001-0.013,0.002-0.018,0.003c-0.036,0.006-0.07,0.011-0.107,0.02
	c-0.014,0.003-0.027,0.009-0.041,0.012c-0.03,0.008-0.059,0.016-0.087,0.024c-0.017,0.005-0.033,0.01-0.048,0.015
	c-0.028,0.011-0.058,0.02-0.085,0.03c-0.016,0.005-0.032,0.01-0.047,0.017c-0.027,0.012-0.055,0.023-0.084,0.036
	c-0.014,0.005-0.026,0.011-0.04,0.017c-0.028,0.013-0.057,0.026-0.085,0.039c-0.011,0.006-0.022,0.012-0.034,0.018
	c-0.028,0.014-0.055,0.028-0.081,0.041c-0.01,0.004-0.019,0.009-0.025,0.014c-0.033,0.019-0.064,0.037-0.092,0.055
	c-0.058,0.037-0.115,0.063-0.172,0.087c-0.021,0.008-0.039,0.014-0.059,0.021c-0.038,0.015-0.075,0.027-0.111,0.035
	c-0.021,0.006-0.042,0.011-0.062,0.014c-0.034,0.007-0.065,0.012-0.099,0.017c-0.017,0.002-0.035,0.005-0.053,0.006
	c-0.032,0.004-0.059,0.005-0.086,0.005c-0.011,0-0.023,0.002-0.034,0.002c-0.003,0-0.005-0.001-0.01-0.001h-0.001
	c-0.029,0-0.057-0.001-0.081-0.003c-0.004,0-0.007,0-0.011,0c-0.02-0.003-0.033-0.004-0.045-0.005
	c-0.003-0.001-0.004-0.001-0.008-0.001c-0.009-0.001-0.017-0.002-0.017-0.002s0.221-0.264,0.418-0.943
	c0.197-0.68,0.391-1.709,0.391-2.411c0-0.058-0.007-0.108-0.014-0.154c-0.001-0.011-0.005-0.021-0.007-0.032
	c-0.007-0.04-0.019-0.076-0.032-0.107c-0.003-0.004-0.004-0.01-0.006-0.013c-0.016-0.036-0.035-0.066-0.056-0.093
	c-0.005-0.007-0.011-0.012-0.017-0.018c-0.019-0.022-0.039-0.041-0.062-0.057c-0.005-0.004-0.01-0.008-0.015-0.012
	c-0.028-0.019-0.06-0.034-0.089-0.046c-0.006-0.002-0.013-0.004-0.019-0.006c-0.027-0.01-0.057-0.019-0.086-0.024
	c-0.007-0.002-0.017-0.004-0.025-0.006c-0.035-0.006-0.071-0.011-0.108-0.015c-0.002,0-0.004,0-0.007,0
	c-0.035-0.002-0.072-0.003-0.109-0.003c-0.01,0-0.016,0-0.025,0c-0.062,0-0.124,0.002-0.186,0.006
	c-0.071,0.004-0.143,0.008-0.209,0.012c-0.46,0.022-1.074,0.374-1.074,0.374s-0.003-0.001-0.009-0.001
	c-0.012-0.001-0.042-0.002-0.079-0.004c-0.021,0-0.04-0.001-0.065-0.002h-0.002c-0.038-0.001-0.077-0.002-0.122-0.003
	c-0.004,0-0.01,0-0.015,0c-0.041,0-0.087-0.001-0.134,0c-0.041,0-0.084,0-0.126,0.001c-0.014,0-0.026,0-0.04,0.001
	c-0.052,0.002-0.105,0.004-0.157,0.008c-0.004,0-0.012,0.001-0.017,0.001c-0.058,0.003-0.114,0.008-0.167,0.015c0,0-0.003,0-0.004,0
	c-0.058,0.008-0.111,0.017-0.16,0.027c-0.188,0.042-0.39,0.149-0.553,0.25c-0.176,0.111-0.302,0.215-0.302,0.215
	s-0.132,0.02-0.307,0.02c-0.174,0-0.459,0.105-0.459,0.105s-0.008-0.001-0.02-0.004c-0.003-0.002-0.009-0.003-0.014-0.004
	c-0.013-0.003-0.03-0.007-0.051-0.012c-0.006-0.001-0.009-0.002-0.017-0.003c-0.026-0.006-0.057-0.013-0.092-0.019
	c-0.009-0.001-0.02-0.003-0.028-0.004c-0.031-0.005-0.064-0.01-0.098-0.015c-0.011-0.001-0.021-0.002-0.032-0.003
	c-0.044-0.005-0.092-0.009-0.143-0.012c-0.007,0-0.017,0-0.025-0.001c-0.034-0.001-0.071-0.001-0.109,0
	c-0.043,0-0.09,0.004-0.134,0.009c-0.022,0.002-0.046,0.003-0.068,0.007c-0.068,0.008-0.136,0.021-0.202,0.042
	c-0.471,0.145-0.766,0.547-0.766,0.547s-0.68,0.11-1.437,0.22c-0.06,0.008-0.122,0.02-0.183,0.034
	c-0.015,0.003-0.03,0.006-0.046,0.01c-0.053,0.012-0.106,0.024-0.161,0.039c-0.01,0.002-0.018,0.004-0.027,0.007
	c-0.062,0.017-0.129,0.036-0.193,0.057c-0.006,0.001-0.012,0.003-0.017,0.004c-0.059,0.02-0.119,0.04-0.174,0.059
	c-0.011,0.003-0.02,0.007-0.03,0.011c-0.125,0.043-0.243,0.089-0.353,0.133c-0.005,0.002-0.011,0.005-0.017,0.007
	c-0.052,0.022-0.103,0.042-0.149,0.061c0,0.002-0.001,0.002-0.001,0.002c-0.051,0.021-0.096,0.042-0.137,0.06h-0.001
	c-0.033-0.042-0.084-0.103-0.144-0.179c-0.016-0.019-0.032-0.037-0.048-0.058c-0.016-0.02-0.03-0.038-0.049-0.06
	c-0.04-0.049-0.084-0.104-0.13-0.159c-0.011-0.014-0.022-0.026-0.033-0.041c-0.053-0.062-0.104-0.125-0.16-0.191
	c-0.005-0.005-0.008-0.009-0.012-0.013c-0.057-0.068-0.116-0.137-0.177-0.205c-0.002-0.003-0.005-0.006-0.008-0.01
	c-0.057-0.066-0.113-0.13-0.169-0.192c-0.011-0.01-0.021-0.021-0.028-0.031c-0.054-0.059-0.107-0.116-0.158-0.169
	c-0.008-0.009-0.016-0.017-0.022-0.024c-0.052-0.054-0.104-0.104-0.147-0.146c-0.461-0.432-0.965-0.936-0.965-0.936
	s0.184,0.549-0.023,0.57c-0.027,0.003-0.048,0.004-0.069,0.004c0,0-0.004,0-0.006,0c-0.004,0-0.006,0-0.009,0
	c-0.024,0-0.043-0.003-0.06-0.006c-0.003,0-0.005-0.001-0.007-0.001c-0.016-0.004-0.026-0.01-0.035-0.015
	c-0.002-0.001-0.003-0.002-0.004-0.003c-0.007-0.005-0.011-0.011-0.012-0.015c-0.001-0.001-0.001-0.001-0.001-0.002
	c-0.001-0.002-0.002-0.006-0.002-0.006s-0.231-0.307-0.342-0.46c-0.012-0.017-0.026-0.033-0.044-0.05
	c-0.14-0.148-0.438-0.334-0.438-0.334s0.005,0.01,0.013,0.027c0.007,0.019,0.018,0.044,0.03,0.076
	c0.006,0.015,0.012,0.032,0.02,0.049c0.038,0.104,0.078,0.242,0.08,0.359c0,0.004,0.001,0.01,0.001,0.014
	c-0.001,0.1-0.034,0.182-0.122,0.209c-0.003,0.001-0.005,0-0.009,0.002c-0.038,0.01-0.075,0.016-0.113,0.017
	c-0.003,0-0.006,0.001-0.011,0.001c-0.021,0-0.044-0.002-0.067-0.005c-0.006-0.001-0.01,0-0.016-0.001
	c-0.007-0.001-0.013-0.002-0.02-0.003c-0.025-0.005-0.051-0.011-0.075-0.018c-0.007-0.002-0.011-0.004-0.014-0.005
	c-0.025-0.009-0.049-0.017-0.072-0.028c-0.008-0.003-0.015-0.007-0.022-0.01c-0.019-0.009-0.036-0.017-0.052-0.026
	c-0.008-0.003-0.013-0.006-0.021-0.01c-0.016-0.009-0.03-0.018-0.043-0.025c-0.004-0.003-0.007-0.005-0.009-0.007
	c-0.029-0.019-0.049-0.033-0.05-0.033c0.001,0,0.071,0.205,0.036,0.392c-0.02,0.107-0.073,0.209-0.198,0.262
	c-0.058,0.022-0.114,0.037-0.168,0.048c-0.012,0.002-0.022,0.004-0.034,0.006c0,0-0.002,0-0.003,0
	c-0.049,0.007-0.097,0.012-0.141,0.012c-0.001,0-0.004,0-0.005,0H66.11c-0.04,0-0.078-0.003-0.111-0.007
	c-0.01-0.001-0.019-0.003-0.024-0.004c-0.025-0.003-0.048-0.007-0.065-0.011c-0.009-0.002-0.017-0.003-0.024-0.005
	c-0.017-0.004-0.03-0.008-0.041-0.012c-0.005-0.001-0.008-0.002-0.012-0.003c-0.012-0.004-0.017-0.006-0.017-0.006
	s0.084,0.17,0.101,0.336c0.01,0.103-0.003,0.204-0.079,0.263c-0.032,0.025-0.072,0.041-0.114,0.053
	c-0.009,0.002-0.02,0.005-0.03,0.007c-0.039,0.008-0.079,0.014-0.121,0.014H65.57h-0.002c0,0-0.003,0-0.006,0h0.001
	c-0.037,0-0.074-0.003-0.11-0.008c-0.008-0.001-0.013-0.001-0.019-0.002c-0.03-0.004-0.057-0.009-0.081-0.013
	c-0.006-0.003-0.012-0.004-0.018-0.006c-0.022-0.005-0.04-0.01-0.054-0.013c-0.005-0.001-0.008-0.003-0.012-0.004
	c-0.013-0.003-0.022-0.007-0.022-0.007s0.074,0.107,0.136,0.241c0.071,0.153,0.128,0.344,0.036,0.455
	c-0.021,0.024-0.043,0.043-0.066,0.06c-0.007,0.005-0.015,0.009-0.023,0.013c-0.016,0.01-0.03,0.018-0.045,0.023
	c-0.01,0.003-0.019,0.006-0.029,0.008c-0.013,0.003-0.027,0.008-0.041,0.009c-0.01,0.002-0.02,0.002-0.027,0.002
	c-0.009,0.001-0.019,0.002-0.025,0.002s-0.01-0.001-0.015-0.001c-0.013,0-0.024-0.001-0.037-0.002
	c-0.01-0.001-0.021-0.002-0.029-0.005c-0.011-0.001-0.021-0.003-0.027-0.005c-0.009-0.002-0.018-0.005-0.024-0.007h-0.002
	l-0.004,0.021c0.087,0.084,0.28,0.3,0.184,0.524c-0.014,0.033-0.035,0.059-0.059,0.08c-0.008,0.006-0.018,0.011-0.025,0.017
	c-0.02,0.013-0.039,0.024-0.06,0.031c-0.01,0.003-0.021,0.008-0.033,0.01c-0.022,0.005-0.046,0.011-0.068,0.013
	c-0.012,0.001-0.023,0.002-0.035,0.002c-0.008,0-0.016,0.002-0.022,0.002c-0.025,0-0.049-0.002-0.073-0.004h-0.003
	c-0.037-0.003-0.07-0.008-0.104-0.015c-0.002,0-0.003,0-0.004-0.002c-0.032-0.005-0.06-0.012-0.085-0.019
	c-0.005-0.001-0.008-0.001-0.011-0.003c-0.023-0.007-0.043-0.013-0.056-0.017c-0.004,0-0.006-0.001-0.008-0.003
	c-0.011-0.003-0.018-0.005-0.018-0.005s0.623,0.32,0.663,0.565c0.006,0.028,0,0.051-0.007,0.069
	c-0.004,0.004-0.004,0.009-0.006,0.011c-0.01,0.019-0.025,0.033-0.042,0.046c-0.004,0.002-0.009,0.004-0.013,0.007
	c-0.02,0.01-0.043,0.019-0.069,0.026c-0.001,0-0.003,0-0.004,0c-0.023,0.005-0.051,0.011-0.081,0.013c-0.004,0-0.009,0-0.014,0.001
	c-0.008,0-0.017,0.001-0.025,0.001l-0.229-0.014l0.214,0.132c0.135,0.093,0.285,0.218,0.297,0.326
	c0.004,0.041-0.001,0.076-0.011,0.107c-0.001,0.005-0.001,0.009-0.002,0.012c-0.011,0.029-0.026,0.053-0.046,0.074
	c-0.002,0.003-0.004,0.007-0.007,0.011c-0.019,0.018-0.04,0.032-0.062,0.042c-0.005,0.001-0.009,0.002-0.012,0.005
	c-0.022,0.009-0.046,0.014-0.069,0.014c-0.001,0-0.002,0.001-0.003,0.001c-0.012,0-0.023-0.001-0.035-0.003
	c-0.01-0.003-0.011,0.001-0.013,0.003c-0.001,0.001-0.003,0.003-0.002,0.006c0.001,0.005,0.006,0.011,0.012,0.017
	c0.003,0.004,0.006,0.008,0.012,0.014c0.008,0.009,0.02,0.019,0.032,0.029c0.007,0.007,0.011,0.011,0.018,0.018
	c0.017,0.018,0.037,0.036,0.06,0.056c0.011,0.01,0.021,0.02,0.031,0.03c0.014,0.013,0.025,0.024,0.039,0.037
	c0.013,0.012,0.024,0.025,0.036,0.037c0.011,0.01,0.021,0.02,0.03,0.031c0.012,0.014,0.021,0.026,0.031,0.04
	c0.006,0.009,0.014,0.018,0.019,0.023c0.014,0.021,0.021,0.038,0.025,0.055c0.021,0.132-0.007,0.22-0.245,0.22
	c-0.239,0,0.354,0.205,0.354,0.205s0.002,0.001,0.004,0.004c0.02,0.018,0.109,0.106,0.119,0.187c0.001,0.009,0.001,0.016,0,0.025
	c-0.007,0.06-0.069,0.106-0.254,0.106c-0.121,0-0.164,0.005-0.161,0.016c0.005,0.017,0.141,0.049,0.265,0.09
	c0.004,0.001,0.006,0.001,0.008,0.002c0.02,0.008,0.037,0.012,0.053,0.02c0.008,0.002,0.015,0.004,0.021,0.008
	c0.016,0.005,0.029,0.013,0.044,0.02c0.005,0.002,0.013,0.006,0.018,0.008c0.019,0.01,0.033,0.021,0.045,0.031
	c0.006,0.009,0.013,0.017,0.016,0.024c0.012,0.035,0.02,0.072,0.026,0.107c0.001,0.006,0.001,0.012,0.002,0.018
	c0.005,0.029,0.008,0.058,0.01,0.08v0.001c-0.002,0.003-0.003,0.007-0.005,0.009c-0.067,0.088-0.127,0.178-0.183,0.267
	c-0.007,0.009-0.01,0.018-0.015,0.025c-0.055,0.085-0.101,0.168-0.145,0.25c-0.005,0.009-0.009,0.016-0.014,0.024
	c-0.042,0.083-0.081,0.16-0.115,0.233c-0.003,0.004-0.005,0.01-0.007,0.015c-0.033,0.075-0.064,0.145-0.09,0.206l-0.033,0.006
	c-0.077,0.012-0.155,0.026-0.231,0.039c-0.025,0.005-0.051,0.009-0.076,0.014c-0.061,0.012-0.123,0.023-0.185,0.034
	c-0.025,0.004-0.051,0.009-0.076,0.014c-0.079,0.016-0.16,0.031-0.238,0.046c-0.021,0.006-0.04,0.01-0.062,0.016
	c-0.058,0.013-0.114,0.024-0.172,0.037c-0.033,0.007-0.066,0.016-0.099,0.021c-0.045,0.01-0.086,0.021-0.13,0.03
	c-0.031,0.009-0.064,0.016-0.097,0.023c-0.05,0.012-0.101,0.025-0.148,0.038c-0.04,0.01-0.078,0.02-0.117,0.03
	c-0.042,0.011-0.081,0.021-0.12,0.033c-0.027,0.008-0.055,0.015-0.083,0.023c-0.032,0.01-0.063,0.019-0.094,0.028
	c-0.025,0.007-0.051,0.015-0.073,0.021c-0.042,0.013-0.08,0.025-0.117,0.038c-0.018,0.006-0.035,0.012-0.051,0.017
	c-0.034,0.012-0.067,0.024-0.096,0.035c-0.014,0.007-0.025,0.01-0.038,0.015c-0.024,0.01-0.045,0.019-0.063,0.028
	c-0.009,0.004-0.019,0.008-0.026,0.013c-0.025,0.011-0.046,0.024-0.06,0.034c0,0-0.001,0.001-0.003,0.003
	c-0.121,0.094-0.2,0.387-0.191,0.698c0.004,0.173,0.033,0.348,0.097,0.501c0.036,0.094,0.086,0.178,0.146,0.246
	c0.024,0.026,0.05,0.051,0.076,0.072c0.44,0.342,0.899,0.584,0.899,0.584l0.943,0.65l0.272,0.094
	c0.003,0.013,0.003,0.026,0.004,0.04c0.006,0.09,0.017,0.183,0.03,0.276c0,0.006,0.001,0.009,0.001,0.013
	c0.016,0.101,0.035,0.201,0.057,0.302c0.007,0.027,0.015,0.057,0.02,0.085c0.021,0.084,0.043,0.171,0.069,0.256
	c0.008,0.022,0.012,0.042,0.02,0.063c0.032,0.106,0.067,0.212,0.109,0.321c0.01,0.024,0.021,0.05,0.029,0.075
	c0.035,0.09,0.073,0.177,0.113,0.267c0.014,0.029,0.026,0.06,0.042,0.089c0.051,0.111,0.106,0.227,0.168,0.339
	c0.009,0.014,0.018,0.029,0.024,0.042c0.056,0.103,0.118,0.205,0.179,0.31c0.021,0.033,0.041,0.066,0.062,0.099
	c0.066,0.105,0.136,0.21,0.21,0.317c0.009,0.013,0.016,0.023,0.023,0.036l0,0l-0.131,0.162l0.039,0.479l-0.077,0.609l0.038,0.922
	l0.102,0.308c0,0,0.043,0.86,0.516,1.102c0.027,0.014,0.058,0.023,0.091,0.03c0.013,0.002,0.026,0.002,0.038,0.003
	c0.02,0.003,0.04,0.006,0.062,0.005c0.054,0,0.11-0.01,0.172-0.024c0.013-0.003,0.025-0.007,0.038-0.01
	c0.06-0.019,0.125-0.04,0.192-0.071c0.001,0,0.001,0,0.004-0.001c0.07-0.03,0.145-0.069,0.218-0.11
	c0.015-0.009,0.028-0.016,0.044-0.025c0.074-0.044,0.15-0.092,0.228-0.145c0.005-0.003,0.012-0.008,0.018-0.012
	c0.009-0.006,0.019-0.013,0.027-0.019c0.065-0.046,0.132-0.092,0.198-0.143c0.014-0.011,0.026-0.021,0.039-0.031
	c0.081-0.06,0.159-0.121,0.238-0.187c0.015-0.011,0.028-0.023,0.042-0.035c0.069-0.061,0.138-0.118,0.207-0.179
	c0.013-0.012,0.024-0.023,0.038-0.035c0.073-0.064,0.146-0.132,0.217-0.198c0.008-0.009,0.017-0.018,0.026-0.026
	c0.01,0.005,0.021,0.01,0.029,0.015c0.025,0.012,0.049,0.022,0.072,0.032c0.039,0.018,0.076,0.033,0.112,0.047l0.271,0.066
	c-0.003-0.002-0.006-0.003-0.011-0.003c0.038,0.01,0.078,0.02,0.124,0.03c0.032,0.006,0.068,0.015,0.105,0.022
	c-0.031,0.013-0.058,0.025-0.073,0.037c0.141,0.078,0.271,0.166,0.533,0.123c0.005-0.021,0.007-0.039,0.008-0.059
	c0.085,0.017,0.169,0.035,0.26,0.052l0.395,0.042c0.088,0.114,0.285,0.165,0.426,0.099l-0.012-0.048c0,0,0.005-0.002,0.009-0.004
	c0,0,0-0.001-0.001-0.001h0.007c0.137-0.044,1.294-0.427,2.431-1.439l0.129-2.528c0,0-0.203,1.2-0.438,1.726
	c-0.233,0.525-0.498,0.729-0.498,0.729s0.527-1.287,0.527-1.812c0-0.449,0.021-0.513,0.027-0.523l-0.962,1.167l0.7-1.432
	l-0.789,0.614L72.8,37.45l1.434-0.497c0,0,0.328,0.851,0.415,1.8c0.178-0.304,0.339-0.635,0.478-0.997
	c-0.249-0.345-0.521-0.904-0.639-1.154c-0.468-0.074-0.979-0.213-0.979-0.213s-3.204-0.247-4.503-2.289
	c-0.115-0.178-0.218-0.372-0.298-0.581c-0.236-0.604-0.319-1.333-0.165-2.214c0,0-0.062,3.027,2.388,4.093
	c2.266,0.99,3.687,0.612,4.171,0.947h0.008c0,0,0.285-0.044,0.459-0.194c0.177-0.151,0.526-0.333,0.791-0.662
	c0.265-0.329,0.286-0.755,0.286-0.755s0.02,0,0.195-0.121c0.177-0.123,0.351-0.417,0.351-0.417s0.198-0.065,0.854-0.416
	c0.165-0.089,0.341-0.237,0.513-0.411c0.51-0.521,0.979-1.266,0.979-1.266s0.219-0.253,0.563-0.473
	c0.3-0.192,0.415-0.662,0.439-0.776c0.004-0.017,0.005-0.025,0.005-0.025s0.613-0.404,0.851-1.193
	c0.014-0.045,0.022-0.087,0.026-0.125c0.001-0.013,0.001-0.023,0.002-0.034c0.001-0.024,0.003-0.047,0-0.069
	C81.424,29.397,81.422,29.388,81.42,29.377z M71.161,41.749c-0.013,0.054-0.059,0.078-0.041,0.162
	c0.094,0.044,0.248,0.026,0.328,0.083C71.426,41.84,71.33,41.756,71.161,41.749 M75.316,38.209
	c-0.006,0.075-0.138,0.025-0.164,0.082c0.017,0.134,0.009,0.292,0.205,0.247C75.333,38.439,75.41,38.239,75.316,38.209z
	 M74.537,39.771c0.104-0.006,0.158-0.06,0.163-0.165C74.605,39.619,74.509,39.632,74.537,39.771z M74.371,39.893
	c0.099-0.118-0.026-0.217,0.041-0.329C74.237,39.569,74.279,39.847,74.371,39.893z M74.659,39.893c0,0.055,0,0.11,0,0.166
	c0.126,0.002,0.209-0.039,0.247-0.124C74.81,39.936,74.785,39.864,74.659,39.893z M75.112,39.195
	c0.03-0.183-0.039-0.263-0.206-0.247C74.933,39.073,74.97,39.186,75.112,39.195z M65.977,39.035
	c-0.008-0.013-0.015-0.023-0.023-0.036C65.962,39.011,65.968,39.022,65.977,39.035L65.977,39.035z M74.146,37.537
	c0,0,0.032,1.12,0,1.957c0.098-0.125,0.192-0.256,0.284-0.392C74.361,38.46,74.146,37.537,74.146,37.537z M69.268,42.506
	L69.268,42.506L69.268,42.506L69.268,42.506z M62.574,33.258c-0.121,0.094-0.2,0.387-0.191,0.698
	C62.374,33.646,62.453,33.353,62.574,33.258z M69.647,28.304l-0.011-0.095c0,0-0.789-1.253-1.037-1.547
	c-0.247-0.294-0.293-0.231-0.293-0.231s-0.445-0.249-0.68-0.387c-0.239-0.143,0.988,1.035,1.143,1.298
	c0.155,0.264,0.419,0.604,0.356,0.805c-0.062,0.201-0.185,0.309-0.185,0.309l-1.146-1.439l-0.821-0.805c0,0,0.031,0.093,0.047,0.325
	c0.016,0.232,0.852,1.005,1.068,1.347c0.217,0.339,0.417,0.603,0.294,0.772c-0.124,0.17-0.356,0.17-0.356,0.17
	s-0.649-1.005-1.053-1.424c-0.4-0.417-0.772-0.68-0.772-0.68s0.139,0.108,0.139,0.31c0,0.201,0.078,0.293,0.078,0.293
	s0.912,0.713,1.16,1.13c0.247,0.417,0.247,0.62,0.077,0.666c-0.17,0.046-0.371-0.154-0.371-0.154s-0.433-0.667-0.805-0.992
	c-0.372-0.324-0.913-0.65-0.913-0.65s0.31,0.28,0.341,0.496c0.03,0.217,0.649,0.542,0.988,1.022c0.342,0.479,0.527,0.633,0.28,0.649
	c-0.247,0.015-0.417-0.078-0.417-0.078s-0.435-0.682-0.806-0.897c-0.371-0.217-0.511-0.294-0.511-0.294s0.046,0.187,0.062,0.279
	c0.016,0.093,0.541,0.341,0.773,0.589c0.232,0.247,0.463,0.727,0.463,0.727l-0.077,0.186l-0.356-0.403l-0.865-0.757l-0.046,0.324
	l1.021,0.82l0.015,0.17l-0.201,0.016l-0.805-0.573l0.094,0.217l0.665,0.604l-0.774-0.34l0.649,0.51l-0.54,0.046l0.387,0.11
	l0.263-0.062c0,0,1.423-1.299,1.949-1.593c0.187-0.105,0.431-0.228,0.672-0.344c0.439-0.211,0.86-0.4,0.86-0.4L69.647,28.304z
	 M69.416,33.227c-0.077-0.062-0.123-0.102-0.123-0.102S69.318,33.162,69.416,33.227z M76.579,26.75
	c-0.081,0.017-0.164,0.034-0.253,0.053c-0.654,0.138-0.873,0.392-0.873,0.392c-0.434,0.73,1.478-0.176,1.26,0.055
	c-0.412,0.432-1.275,1.365-1.651,1.656c-0.579,0.447-1.671,2.026-0.539,2.355c1.131,0.33,1.447,0.119,1.447,0.119
	s-1.526-0.131-1.5-0.618c0.025-0.489,0-0.869,0.842-1.75c0.539-0.564,1.094-1.171,1.378-1.542c0.05-0.064,0.142-0.173,0.245-0.294
	c0.23-0.268,0.523-0.591,0.523-0.591S77.1,26.644,76.579,26.75z M78.473,30.776c-0.99,0.367-1.875,0.496-1.875,0.496
	s0.89,0.02,1.9-0.337c0.656-0.233,1.366-0.625,1.915-1.292C79.887,30.158,79.154,30.525,78.473,30.776z M77.235,27.597
	c-0.07,0.102-0.13,0.208-0.183,0.316c-0.405,0.837-0.373,2.797-0.365,3.089l-0.008,0.055c0,0,0.996-0.208,1.692-0.423
	c-0.009-0.036-0.028-0.08-0.077-0.12c-0.103-0.093-0.113-0.095-0.113-0.095s0.136,0.03,0.237,0.075
	c0.034,0.017,0.064,0.034,0.083,0.052c0.015,0.013,0.025,0.023,0.036,0.033c0.112-0.038,0.212-0.076,0.294-0.112
	c0.052-0.024,0.104-0.048,0.154-0.074c-0.01-0.048-0.033-0.115-0.116-0.18c-0.137-0.104-0.15-0.105-0.15-0.105
	s0.308,0.043,0.41,0.128c0.027,0.02,0.047,0.038,0.062,0.053c0.407-0.217,0.715-0.429,0.715-0.429s-0.414-0.035-0.642-0.018
	c-0.227,0.018-0.121-0.244-0.121-0.244l0.349-1.171c0,0,0.414-1.476-0.192-1.779c-0.317,0.028-0.684,0.25-1.014,0.512
	c0.007,0.025,0.018,0.064,0.03,0.131c0.028,0.147-0.089,0.477-0.089,0.477s0.005-0.015-0.026-0.206
	c-0.021-0.127-0.087-0.191-0.131-0.221c-0.2,0.178-0.376,0.359-0.503,0.5c0.01,0.017,0.018,0.03,0.029,0.05
	c0.059,0.103,0.062,0.341,0.062,0.426c0,0.02,0,0.033,0,0.033s0-0.015-0.085-0.178c-0.047-0.089-0.108-0.13-0.155-0.151
	c-0.02,0.027-0.036,0.049-0.046,0.065c-0.086,0.147-0.324,1.011-0.456,1.503c0.108-0.605,0.232-1.225,0.339-1.476
	c0.026-0.063,0.07-0.133,0.124-0.206c0-0.001,0.001-0.002,0.001-0.002l0.028-0.037c0-0.001,0-0.002-0.002-0.004
	c0.429-0.567,1.482-1.338,1.837-1.389c0.408-0.059,0.379,0.38,0.379,0.38c0.438-0.672-0.146-0.818-0.586-0.702
	C78.653,26.261,77.744,26.84,77.235,27.597z M68.591,33.708c0,0-1.549-1.169-3.01-1.022c-0.202,0.021-0.391,0.046-0.57,0.073
	c-1.13,0.171-1.826,0.454-1.826,0.454s0.821-0.168,1.771-0.23c0.813-0.052,1.723-0.025,2.292,0.259
	c1.228,0.614,1.228,0.701,1.228,0.701s-1.607-0.496-3.215-0.438c-0.121,0.004-0.235,0.013-0.345,0.022
	c-1.339,0.114-1.788,0.562-1.788,0.562s0.62-0.289,1.772-0.328c0.22-0.008,0.454-0.008,0.712,0.006
	c1.606,0.088,2.337,0.264,2.337,0.264l-3.102,0.654l-0.493,0.104l0.491-0.064l3.134-0.404l-2.34,1.55l2.689-1.373
	c0,0-1.048,1.036-1.345,1.227c-0.45,0.288-1.906,0.31-2.051,0.419c-0.009,0.006-0.014,0.013-0.013,0.021
	c0.005,0.025,0.092,0.043,0.231,0.053c0.579,0.039,2.085-0.086,2.447-0.611c0.249-0.36,1.197-1.255,1.197-1.255L68.591,33.708z
	 M68.65,31.487c0.906,1.695,3.303,2.221,5.086,1.375c0,0-1.551,0.438-2.807,0c-1.256-0.439-1.666-1.344-1.694-1.666
	c-0.029-0.301,0.052-0.982,0.492-1.379c0.395-0.23,0.771-0.428,1.12-0.6c-0.181,0.367-0.225,0.818-0.005,1.365
	c0.816,2.046,2.748,1.754,2.748,1.754s-2.428-0.614-2.223-1.989c0.165-1.103,0.933-1.697,1.229-1.887
	c0.502-0.194,0.849-0.319,0.994-0.429c0.779-0.99-6.224-0.089-8.363,4.572c-0.001,0.003-0.004,0.008-0.005,0.01
	c0.025-0.009,0.052-0.014,0.078-0.021c0.097-0.013,0.192-0.025,0.286-0.036c0.164-0.006,0.324-0.003,0.459-0.04
	c0.061-0.016,0.116-0.039,0.166-0.076c0.796-0.741,1.568-1.347,2.295-1.848C68.452,30.875,68.483,31.177,68.65,31.487z
	 M80.634,30.125c0,0-0.854,0.696-2.083,1.208c-0.309,0.127-0.639,0.245-0.985,0.335c-1.737,0.457-3.313,0.526-3.313,0.526
	s2.979-0.047,4.326-0.577c0.07-0.029,0.141-0.059,0.201-0.089C80.001,30.913,80.634,30.125,80.634,30.125z M79.348,27.538
	c0.033,0.083,0.009,0.29,0.009,0.29s0.084-0.158,0.09-0.332c0.009-0.174-0.099-0.239-0.099-0.239l-0.123,0.148
	C79.225,27.405,79.314,27.455,79.348,27.538z M79.837,30.065c-0.13-0.018-0.185,0.035-0.166,0.165
	C79.801,30.249,79.788,30.125,79.837,30.065z M78.998,27.719c0.128,0.018,0.182-0.037,0.163-0.165
	C79.033,27.536,78.979,27.591,78.998,27.719z M62.252,34.133c-0.057-0.18,0.158-0.088,0.122-0.248
	C62.252,33.861,62.141,34.059,62.252,34.133z M63.566,36.063c-0.028,0.122-0.089-0.04-0.163,0
	C63.378,36.221,63.744,36.201,63.566,36.063z M67.494,30.92c-0.19,0.001-0.267-0.157-0.453-0.042
	C66.985,31.236,67.431,31.104,67.494,30.92z M77.987,28.896c0.123,0.002,0.208-0.038,0.246-0.123
	C78.109,28.773,77.984,28.771,77.987,28.896z M76.633,35.693c-0.072,0.003-0.13-0.01-0.165-0.041
	c-0.012,0.094,0.01,0.153,0.082,0.164C76.554,35.752,76.655,35.785,76.633,35.693z M74.945,37.501
	c-0.04-0.231-0.019-0.525-0.162-0.657C74.801,37.035,74.801,37.314,74.945,37.501z M71.698,28.261
	c-0.039,0.078-0.218,0.19-0.042,0.248C71.628,28.405,71.839,28.339,71.698,28.261z M75.357,37.749
	c-0.094-0.497-0.207-0.97-0.369-1.397C75.057,36.872,75.167,37.35,75.357,37.749z M78.398,28.668
	c0.062-0.116,0.181-0.175,0.205-0.328C78.464,28.353,78.3,28.552,78.398,28.668z M78.85,33.229
	c-0.096-0.013-0.157,0.007-0.203,0.041C78.636,33.446,78.878,33.324,78.85,33.229z M77.865,28.421
	c0.057-0.121,0.189-0.166,0.245-0.287C77.964,28.14,77.849,28.39,77.865,28.421z M78.48,37.79c-0.075,0.334-0.369,0.672-0.327,0.985
	C78.229,38.441,78.54,38.123,78.48,37.79z M77.946,39.022c0,0.19-0.156,0.226-0.124,0.452c0.148-0.005,0.261-0.042,0.288-0.164
	c-0.126-0.041-0.159,0.218-0.245,0.082C77.979,39.38,78.016,39.081,77.946,39.022z M71.549,28.736
	c-0.028-0.076-0.121-0.028-0.039-0.122c-0.174,0.021-0.279-0.023-0.369-0.083c-0.133,0.174,0.139,0.475,0.327,0.329
	C71.315,28.794,71.633,28.869,71.549,28.736z M73.924,39.481c0.001-0.02,0.002-0.039,0.003-0.059
	c0.012-0.024,0.034-0.038,0.075-0.031c0.001-0.097-0.069-0.12-0.04-0.248c-0.008,0.005-0.015,0.011-0.023,0.017
	c0.015-0.357,0.021-0.657,0.002-0.775c-0.059-0.38-0.204-0.556-0.204-0.556l-0.407,2.547c0.191-0.175,0.385-0.37,0.571-0.583
	c0.008,0.003,0.012,0.006,0.02,0.008c0.09-0.104,0.003-0.28,0.165-0.205C74.097,39.475,74.012,39.466,73.924,39.481z M75.522,39.432
	c-0.023-0.1-0.035-0.21-0.165-0.206C75.252,39.337,75.367,39.459,75.522,39.432z M73.079,37.861
	c0.031-0.182-0.038-0.263-0.207-0.246C72.898,37.74,72.938,37.853,73.079,37.861z M75.852,41.2c0.045,0.159,0.14,0.27,0.287,0.328
	c0.051-0.16,0.031-0.129-0.041-0.165c0.001-0.111,0.092-0.001,0.165-0.163c-0.358,0.032,0.032-0.453-0.289-0.41
	c-0.055,0.137-0.052,0.255,0.04,0.245C75.952,41.081,75.914,41.152,75.852,41.2z M65.333,42.021c-0.01,0.036-0.007,0.058,0.005,0.07
	C65.34,42.068,65.34,42.047,65.333,42.021z M65.005,39.802c0.117-0.021,0.314-0.175,0.203-0.288
	C65.125,39.594,65.054,39.687,65.005,39.802z M63.936,39.226c0,0.125-0.106,0.142-0.121,0.248
	C63.968,39.528,64.029,39.285,63.936,39.226z M67.962,35.118c0.018-0.069,0.053,0.009,0.124,0c-0.002-0.23,0.021-0.488-0.124-0.575
	c-0.036,0.229,0.079,0.305,0.083,0.494C67.96,34.989,67.849,35.101,67.962,35.118z M67.388,29.572
	c0.046-0.064,0.134-0.086,0.124-0.207C67.404,29.347,67.277,29.511,67.388,29.572z M65.066,42.418
	c0.057-0.109,0.174-0.158,0.206-0.287C65.019,42.096,65.024,42.353,65.066,42.418z M65.672,36.114
	c0.022,0.062-0.047,0.213,0.043,0.207c0.029-0.12,0.098-0.204,0.163-0.287C65.752,36.001,65.8,36.145,65.672,36.114z M64.39,36.352
	c-0.01,0.077,0.043,0.089,0.04,0.163c-0.023,0-0.047,0.035,0,0.042c0.083-0.146,0.113,0.1,0.162,0.122
	c-0.003-0.07,0.011-0.127,0.044-0.165C64.485,36.526,64.523,36.353,64.39,36.352z M64.129,36.052
	c0.114,0.017,0.155,0.019,0.249,0.125c-0.013-0.128,0.117,0.104,0.122-0.041c-0.112-0.065-0.207-0.149-0.329-0.206
	C64.173,35.986,64.151,36.02,64.129,36.052z M64.959,36.684c-0.112-0.347-0.102-0.235-0.329-0.412
	C64.626,36.524,64.884,36.513,64.959,36.684z M72.816,32.296c0.012-0.054,0.057-0.078,0.04-0.165
	c-0.101-0.006-0.199-0.007-0.205,0.081C72.733,32.216,72.702,32.327,72.816,32.296z M69.856,44.478
	c0.144,0.018,0.317-0.144,0.246-0.206C70.045,44.365,69.835,44.306,69.856,44.478z M74.281,42.404
	c-0.064,0.094-0.108,0.157-0.041,0.244c0.009-0.03,0.034-0.047,0.08-0.04C74.301,42.479,74.418,42.439,74.281,42.404z
	 M74.121,42.726c-0.028,0.107-0.146,0.126-0.162,0.246c0.055-0.002,0.09,0.02,0.122,0.041
	C74.068,42.914,74.261,42.815,74.121,42.726z M72.729,43.869c-0.155-0.027-0.222-0.049-0.248,0.125
	C72.624,44.008,72.749,44.09,72.729,43.869z M73.552,43.748c0.141,0.004,0.189-0.084,0.162-0.248c-0.041,0-0.081,0-0.121,0
	C73.543,43.548,73.545,43.645,73.552,43.748z M76.673,40.171c0.06,0.109,0.197,0.35,0.369,0.206
	C76.886,40.341,76.891,40.146,76.673,40.171z M76.22,40.624c0.081,0.153,0.174,0.293,0.33,0.37c-0.122,0-0.25-0.004-0.247,0.121
	c0.078,0.061,0.178,0.098,0.287,0.125c0.065-0.087,0.048-0.255,0.246-0.205C76.807,40.647,76.378,40.811,76.22,40.624z
	 M76.55,41.528c-0.053-0.002-0.058-0.053-0.123-0.041c-0.073,0.159-0.404,0.061-0.369,0.329c0.165-0.065,0.201-0.078,0.41-0.042
	C76.499,41.697,76.535,41.624,76.55,41.528z M70.421,43.747c-0.127,0.087-0.095,0.394,0.042,0.45
	C70.566,44.105,70.686,43.773,70.421,43.747 M69.148,43.007c-0.071,0.067-0.103,0.172-0.082,0.328
	c0.238,0.069,0.36,0.041,0.574,0.163c0.081-0.079,0.026-0.234,0-0.327c-0.213-0.01-0.131,0.155-0.246,0.164V43.13
	C69.309,43.094,69.273,43.005,69.148,43.007 M69.682,42.515c-0.112-0.029-0.082,0.081-0.163,0.081
	c-0.091-0.213-0.338-0.267-0.494-0.411c-0.095,0.056-0.229,0.07-0.205,0.247c0.104,0.12,0.138,0.027,0.287,0
	c0.081,0.078,0.013,0.149,0,0.247c0.296-0.065,0.277,0.167,0.288,0.286c0.14,0.019,0.23-0.016,0.327-0.041
	C69.729,42.767,69.725,42.622,69.682,42.515 M71.079,43.786c-0.001-0.241-0.254,0.014-0.246-0.206
	c0.083-0.107,0.143-0.24,0.122-0.45c-0.273-0.001-0.472-0.374-0.739-0.123c0.026,0.399,0.572,0.048,0.576,0.491
	c-0.047-0.032-0.11-0.054-0.206-0.04c-0.02,0.049-0.043,0.094-0.083,0.122C70.575,43.926,70.912,43.657,71.079,43.786
	 M67.956,42.596c0.146,0.051,0.566-0.164,0.495-0.329C68.296,42.388,68.007,42.372,67.956,42.596 M67.628,42.802
	c0.116-0.035,0.105,0.057,0.204,0.04c0.059-0.052,0.024-0.194,0.083-0.246C67.783,42.536,67.62,42.607,67.628,42.802 M67.792,43.294
	c-0.012,0.108-0.014,0.204,0.123,0.164C67.897,43.381,67.9,43.282,67.792,43.294 M70.873,42.185v0.206
	C70.998,42.452,70.998,42.122,70.873,42.185 M71.12,42.308c0.079-0.058,0.207-0.065,0.246-0.163
	c-0.142-0.009-0.155-0.146-0.287-0.166C71.023,42.04,70.994,42.305,71.12,42.308 M67.34,44.28c0.13-0.28,0.01-0.661-0.124-0.903
	c-0.003,0.276-0.37,0.201-0.451,0.492C66.938,44.013,67.031,44.398,67.34,44.28 M67.38,42.883c-0.057-0.01-0.067-0.065-0.123-0.081
	c-0.056,0.065-0.144,0.101-0.122,0.247C67.288,43.064,67.376,43.014,67.38,42.883 M70.34,42.636c-0.068-0.133-0.319-0.071-0.412,0
	C69.962,42.709,70.327,42.809,70.34,42.636 M70.709,42.596c0.104,0.239,0.57,0.113,0.822,0.206
	C71.48,42.397,70.924,42.67,70.709,42.596 M74.945,32.833c0.054-0.002,0.072-0.038,0.081-0.086
	c-0.066,0.001-0.122,0.001-0.179,0.002C74.872,32.786,74.903,32.816,74.945,32.833z M76.243,32.72
	c-0.416,0.011-0.751,0.018-1.02,0.023c0.009,0.025,0.012,0.054,0.011,0.09c-0.092-0.089-0.091,0.01-0.083,0.123
	c-0.059,0.003-0.116,0.008-0.124-0.042c-0.094-0.011-0.046,0.119-0.122,0.124c0.054,0.071,0.3,0.212,0.04,0.247
	c0.048-0.062,0.048-0.105,0-0.165c-0.038,0.125-0.174,0.154-0.328,0.165c0.059-0.092-0.004-0.307,0.124-0.329
	c-0.073-0.024-0.085-0.107-0.085-0.203c-0.217,0.003-0.312,0.003-0.312,0.003s-0.498,0.485-0.694,0.792l-0.004,0.007
	c0,0-0.7,0.709-2.423,0.3c-1.141-0.271-1.595-0.5-1.787-0.625c-0.078-0.062-0.144-0.105-0.144-0.105s0.074,0.079,0.139,0.127
	c0.375,0.296,1.539,1.115,2.842,1.042c1.073-0.06,1.349-0.186,1.417-0.261c0.024,0.091,0.062,0.197,0.114,0.3
	c-0.14,0.074-1.118,0.565-2.174,0.458c-1.14-0.117-1.812-0.497-1.812-0.497s1.638,1.052,2.778,0.731
	c0.687-0.194,1.156-0.312,1.424-0.376c0.066,0.065,0.143,0.116,0.229,0.151c-0.126,0.135-0.565,0.565-1.174,0.661
	c-0.722,0.112-1.104,0.149-1.104,0.149s1.563,0.059,2.018-0.224c0.357-0.224,0.608-0.477,0.696-0.572
	c0.136,0.027,0.263,0.06,0.396,0.084c-0.007,0.096-0.067,0.276-0.375,0.488c-0.454,0.317-0.812,0.492-0.812,0.492
	s0.818-0.133,1.184-0.492c0.223-0.218,0.343-0.38,0.402-0.471c0.245-0.032,0.526-0.153,0.884-0.468
	c0.279-0.191,1.067-0.935,1.302-1.094c0.312-0.212,0.229-0.385,0.363-0.429c0.244-0.079,0.43-0.16,0.573-0.236
	c0.006-0.187,0.007-0.373,0.001-0.557C78.006,32.38,77.085,32.699,76.243,32.72z M67.443,30.393
	c-0.042-0.205,0.126-0.201,0.122-0.37c-0.196,0.072-0.183-0.023-0.369-0.042C67.094,30.22,67.25,30.422,67.443,30.393z
	 M74.379,28.214c0,0,0.39,0.076,0.634-0.22c0.242-0.294,0.097-0.716,0.097-0.716s-0.351-0.38-0.672-0.292
	c-0.321,0.087-0.644,0.321-0.585,0.672C73.911,28.008,74.379,28.214,74.379,28.214z M67.482,37.567l1.549-0.031l-2.253,1.229
	l2.339-0.906c0,0-0.086,0.117-0.847,1.083c-0.446,0.566-0.924,1.051-1.24,1.354c-0.223,0.214-0.368,0.339-0.368,0.339
	s0.212-0.077,0.481-0.231c0.197-0.115,0.43-0.271,0.629-0.47c0.469-0.467,1.638-2.018,1.638-2.018s-0.379,1.2-0.878,1.96
	c-0.248,0.38-0.585,0.724-0.859,0.972c-0.273,0.249-0.483,0.401-0.483,0.401s0.273-0.148,0.579-0.331
	c0.182-0.109,0.376-0.232,0.53-0.342c0.41-0.293,1.697-3.069,1.697-3.069s-0.147,0.848-0.791,2.162
	c-0.249,0.513-0.683,1.024-1.116,1.458c-0.39,0.39-0.777,0.716-1.041,0.926c-0.198,0.156-0.326,0.248-0.326,0.248
	s0.146,0,0.468-0.117c0.025-0.009,0.06-0.026,0.098-0.047c0.238-0.128,0.665-0.458,1.067-0.855c0.268-0.268,0.523-0.562,0.705-0.852
	c0.497-0.788,1.46-3.157,1.46-3.157l-0.204-0.117l-0.319-0.175l-0.527-0.028L67.482,37.567z M69.482,37.132
	c0.105,0.004,0.06,0.16,0.165,0.164c-0.014-0.127,0.315-0.118,0.164-0.247c-0.009,0.064-0.068,0.006-0.083-0.04
	c0.023,0,0.048-0.033,0-0.042C69.666,37.041,69.488,37.001,69.482,37.132z M69.67,37.602c0.018-0.093,0.095-0.224-0.042-0.246
	C69.666,37.5,69.523,37.567,69.67,37.602z M75.399,33.927c0.051-0.099,0.267-0.036,0.287-0.164
	C75.504,33.705,75.307,33.845,75.399,33.927z"/>
<g>
	<path d="M128.212,42.531c0,0.379-0.298,0.678-0.686,0.678c-0.384,0-0.691-0.299-0.691-0.678c0-0.372,0.308-0.67,0.691-0.67
		C127.914,41.861,128.212,42.159,128.212,42.531z M127.006,42.531c0,0.298,0.223,0.535,0.523,0.535c0.295,0,0.512-0.237,0.512-0.532
		c0-0.297-0.217-0.54-0.515-0.54S127.006,42.237,127.006,42.531z M127.421,42.882h-0.157v-0.67c0.062-0.013,0.147-0.021,0.259-0.021
		c0.126,0,0.184,0.021,0.232,0.049c0.037,0.028,0.064,0.082,0.064,0.147c0,0.074-0.056,0.131-0.138,0.153v0.01
		c0.065,0.024,0.104,0.073,0.123,0.163c0.02,0.104,0.032,0.143,0.048,0.168h-0.167c-0.021-0.025-0.032-0.084-0.054-0.162
		c-0.012-0.075-0.053-0.106-0.138-0.106h-0.073V42.882z M127.424,42.502h0.074c0.087,0,0.155-0.028,0.155-0.098
		c0-0.062-0.046-0.103-0.144-0.103c-0.04,0-0.068,0.004-0.086,0.007V42.502z"/>
</g>
</svg>
