<?xml version="1.0" encoding="utf-8"?>
<!-- Generator: Adobe Illustrator 16.0.3, SVG Export Plug-In . SVG Version: 6.00 Build 0)  -->
<!DOCTYPE svg PUBLIC "-//W3C//DTD SVG 1.1//EN" "http://www.w3.org/Graphics/SVG/1.1/DTD/svg11.dtd">
<svg version="1.1" id="Layer_1" xmlns="http://www.w3.org/2000/svg" xmlns:xlink="http://www.w3.org/1999/xlink" x="0px" y="0px"
	 width="36px" height="10px" viewBox="0 0 36 10" enable-background="new 0 0 36 10" xml:space="preserve">
<g>
	<path fill="#333333" d="M0.5,9.643V0.117h1.873l2.639,7.371L7.73,0.117h1.672v9.526H8.141v-7.75L5.514,9.006H4.206L1.658,1.874
		v7.769H0.5z"/>
	<path fill="#333333" d="M11.854,9.643V0.117h5.324v1.01h-3.971v3.058h3.328v0.997h-3.328v3.45h4.249v1.011H11.854z"/>
	<path fill="#333333" d="M19.002,9.643V0.117h1.324l4.796,7.357V0.117h1.159v9.526h-1.32l-4.803-7.358v7.358H19.002z"/>
	<path fill="#333333" d="M28.664,0.117h1.351v6.012c0,0.957,0.179,1.653,0.531,2.089c0.354,0.437,0.918,0.653,1.69,0.653
		c0.755,0,1.292-0.203,1.606-0.615c0.315-0.408,0.474-1.102,0.474-2.082V0.117H35.5v6.039c0,1.298-0.267,2.245-0.8,2.838
		c-0.535,0.592-1.388,0.89-2.555,0.89c-1.188,0-2.064-0.308-2.633-0.921c-0.565-0.614-0.849-1.564-0.849-2.846V0.117z"/>
</g>
</svg>
