<?xml version="1.0" encoding="utf-8"?>
<!-- Generator: Adobe Illustrator 16.0.3, SVG Export Plug-In . SVG Version: 6.00 Build 0)  -->
<!DOCTYPE svg PUBLIC "-//W3C//DTD SVG 1.1//EN" "http://www.w3.org/Graphics/SVG/1.1/DTD/svg11.dtd">
<svg version="1.1" id="Layer_1" xmlns="http://www.w3.org/2000/svg" xmlns:xlink="http://www.w3.org/1999/xlink" x="0px" y="0px"
	 width="40px" height="214.25px" viewBox="0 0 40 214.25" enable-background="new 0 0 40 214.25" xml:space="preserve">
<symbol  id="clear_x__x_for_filter_1_" viewBox="-8 -8 16 16">
	<path fill="none" stroke="#808080" stroke-miterlimit="10" d="M7.5,0c0-4.142-3.358-7.5-7.5-7.5S-7.5-4.142-7.5,0S-4.142,7.5,0,7.5
		S7.5,4.142,7.5,0z"/>
	<g>
		<line fill="none" stroke="#666666" stroke-linecap="round" stroke-miterlimit="10" x1="2.99" y1="3" x2="-3.01" y2="-3"/>
		<line fill="none" stroke="#666666" stroke-linecap="round" stroke-miterlimit="10" x1="-3.01" y1="3" x2="2.99" y2="-3"/>
	</g>
	<polygon display="none" fill="none" points="-8,8 8,8 8,-8 -8,-8 	"/>
</symbol>
<symbol  id="search_icon" viewBox="-7.459 -7.717 14.918 15.435">
	
		<line fill="none" stroke="#989897" stroke-width="3" stroke-linecap="round" stroke-miterlimit="10" x1="2.031" y1="-2.292" x2="5.959" y2="-6.217"/>
	<path fill="#FFFFFF" stroke="#989897" stroke-width="2" stroke-miterlimit="10" d="M3.794,1.59c0-2.831-2.294-5.125-5.125-5.125
		c-2.832,0-5.128,2.295-5.128,5.125c0,2.832,2.296,5.127,5.128,5.127C1.5,6.717,3.794,4.421,3.794,1.59z"/>
</symbol>
<g id="About_Us_Plus_15_">
	
		<line fill="none" stroke="#333333" stroke-linecap="round" stroke-linejoin="round" stroke-miterlimit="10" x1="20.602" y1="9.375" x2="20.602" y2="24.375"/>
	
		<line fill="none" stroke="#333333" stroke-linecap="round" stroke-linejoin="round" stroke-miterlimit="10" x1="13.102" y1="16.875" x2="28.102" y2="16.875"/>
</g>
<use xlink:href="#search_icon"  width="14.918" height="15.435" x="-7.459" y="-7.717" transform="matrix(1 0 0 -1 20 122.9492)" overflow="visible"/>
<g>
	
		<line fill="none" stroke="#999999" stroke-linecap="round" stroke-miterlimit="10" x1="12.092" y1="66.875" x2="5.85" y2="74.373"/>
	
		<line fill="none" stroke="#999999" stroke-linecap="round" stroke-miterlimit="10" x1="5.85" y1="74.373" x2="12.092" y2="81.876"/>
</g>
<g>
	
		<line fill="none" stroke="#333333" stroke-linecap="round" stroke-miterlimit="10" x1="32.092" y1="66.875" x2="25.85" y2="74.373"/>
	
		<line fill="none" stroke="#333333" stroke-linecap="round" stroke-miterlimit="10" x1="25.85" y1="74.373" x2="32.092" y2="81.876"/>
</g>
<g>
	
		<line fill="none" stroke="#999999" stroke-linecap="round" stroke-miterlimit="10" x1="6.85" y1="104.877" x2="13.092" y2="97.379"/>
	
		<line fill="none" stroke="#999999" stroke-linecap="round" stroke-miterlimit="10" x1="13.092" y1="97.379" x2="6.85" y2="89.877"/>
</g>
<g>
	
		<line fill="none" stroke="#333333" stroke-linecap="round" stroke-miterlimit="10" x1="28.85" y1="104.877" x2="35.092" y2="97.379"/>
	
		<line fill="none" stroke="#333333" stroke-linecap="round" stroke-miterlimit="10" x1="35.092" y1="97.379" x2="28.85" y2="89.877"/>
</g>
<g id="About_Us_Plus_1_">
	
		<line fill="none" stroke="#333333" stroke-linecap="round" stroke-linejoin="round" stroke-miterlimit="10" x1="13.102" y1="45.375" x2="28.102" y2="45.375"/>
</g>
<g>
	
		<line fill="none" stroke="#333333" stroke-width="2" stroke-linecap="round" stroke-miterlimit="10" x1="11.576" y1="158.455" x2="16.652" y2="163.216"/>
	
		<line fill="none" stroke="#333333" stroke-width="2" stroke-linecap="round" stroke-miterlimit="10" x1="16.652" y1="163.216" x2="27.32" y2="152.549"/>
</g>
<use xlink:href="#clear_x__x_for_filter_1_"  width="16" height="16" x="-8" y="-8" transform="matrix(1 0 0 -1 10.1016 195.375)" overflow="visible"/>
<g id="clear_x__x_for_filter">
	<circle fill="none" stroke="#CCCCCC" stroke-miterlimit="10" cx="30.102" cy="195.375" r="7.5"/>
	<g>
		
			<line fill="none" stroke="#CCCCCC" stroke-linecap="round" stroke-miterlimit="10" x1="33.092" y1="192.375" x2="27.092" y2="198.375"/>
		
			<line fill="none" stroke="#CCCCCC" stroke-linecap="round" stroke-miterlimit="10" x1="27.092" y1="192.375" x2="33.092" y2="198.375"/>
	</g>
</g>
</svg>
