<?xml version="1.0" encoding="utf-8"?>
<!-- Generator: Adobe Illustrator 16.0.4, SVG Export Plug-In . SVG Version: 6.00 Build 0)  -->
<!DOCTYPE svg PUBLIC "-//W3C//DTD SVG 1.1//EN" "http://www.w3.org/Graphics/SVG/1.1/DTD/svg11.dtd">
<svg version="1.1" id="Layer_1" xmlns="http://www.w3.org/2000/svg" xmlns:xlink="http://www.w3.org/1999/xlink" x="0px" y="0px"
	 width="132px" height="70px" viewBox="0 0 132 70" enable-background="new 0 0 132 70" xml:space="preserve">
<g>
	<g>
		<path fill="#ED1C2E" d="M26.429,22.441l-0.005,6.061l-6.389,0.006l-0.001-4.017c-0.002,0,0.006-2.044,0.006-2.044
			c-0.002-2.76,4.077-3.707,6.936-3.703c2.819,0.005,6.953,0.942,6.943,3.692l0.037,0.01l-0.009,20.625c0,0-0.059,0.329,0.285,0.702
			l-0.107,0.005l-5.809-0.011l-0.421-0.657c-1.387,0.729-3.107,1.016-4.827,0.731c-1.301-0.107-3.028-0.84-3.024-3.139l-0.002-8.075
			c0.043-1.147,0.918-2.124,1.933-2.522c1.631-0.62,4.083-0.611,5.584,0.292l0.009-7.963c-0.003,0.006-0.003-0.489-0.541-0.504
			C27.024,21.932,26.432,21.809,26.429,22.441z M26.432,33.136v7.085c0,0,0,0.438,0.552,0.438c0.579,0,0.579-0.438,0.579-0.438
			v-7.085c0,0,0-0.523-0.579-0.523C26.432,32.612,26.432,33.136,26.432,33.136z"/>
		<path fill="#ED1C2E" d="M57.514,22.441l-0.005,6.061l-6.389,0.006l-0.001-4.017c-0.003,0,0.005-2.044,0.005-2.044
			c-0.002-2.76,4.078-3.707,6.938-3.703c2.819,0.005,6.951,0.942,6.942,3.692l0.036,0.01L65.03,43.071c0,0-0.059,0.329,0.284,0.702
			l-0.106,0.005l-5.809-0.011l-0.42-0.657c-1.389,0.729-3.107,1.016-4.828,0.731c-1.301-0.107-3.029-0.84-3.024-3.139l-0.003-8.075
			c0.043-1.147,0.919-2.124,1.932-2.522c1.631-0.62,4.084-0.611,5.584,0.292l0.01-7.963c-0.002,0.006-0.002-0.489-0.542-0.504
			C58.107,21.932,57.517,21.809,57.514,22.441z M57.517,33.136v7.085c0,0,0,0.438,0.55,0.438c0.581,0,0.581-0.438,0.581-0.438
			v-7.085c0,0,0-0.523-0.581-0.523C57.517,32.612,57.517,33.136,57.517,33.136z"/>
		<path fill="#ED1C2E" d="M46.186,18.974c3.746,0.001,3.471,3.198,3.468,3.184l0.005,11.763c-0.002-0.008,0.052,2.471-2.924,2.468
			l-4.581,0.001l0.007,7.395l-6.234-0.006l-0.002-24.804L46.186,18.974z M43.425,31.821l-0.003-8.034
			c0.006-0.925-0.436-1.09-0.967-1.131c-0.295,0-0.295,0.343-0.299,0.321l0.001,9.766c0,0,0.003,0.344,0.303,0.35
			C43.207,33.086,43.428,32.646,43.425,31.821z"/>
		<polygon fill="#ED1C2E" points="66.468,43.779 66.468,18.975 73.027,18.975 73.027,40.914 76.611,40.914 76.611,43.779 		"/>
		<path fill="#ED1C2E" d="M83.348,22.441l-0.004,6.061l-6.39,0.006l-0.001-4.017c-0.003,0,0.006-2.044,0.006-2.044
			c-0.002-2.76,4.075-3.707,6.936-3.703c2.819,0.005,6.954,0.942,6.944,3.692l0.036,0.01l-0.01,20.625c0,0-0.06,0.329,0.285,0.702
			l-0.109,0.005l-5.808-0.011l-0.42-0.657c-1.389,0.729-3.109,1.016-4.827,0.731c-1.302-0.107-3.029-0.84-3.025-3.139l-0.002-8.075
			c0.043-1.147,0.919-2.124,1.933-2.522c1.631-0.62,4.083-0.611,5.584,0.292l0.008-7.963c-0.002,0.006-0.002-0.489-0.541-0.504
			C83.942,21.932,83.35,21.809,83.348,22.441z M83.35,33.136v7.085c0,0,0,0.438,0.554,0.438c0.578,0,0.578-0.438,0.578-0.438v-7.085
			c0,0,0-0.523-0.578-0.523C83.35,32.612,83.35,33.136,83.35,33.136z"/>
		<path fill="#ED1C2E" d="M19.61,47.749l-6.356-0.005c0,0-0.17-0.216-0.32-0.625c-0.708-2.182-1.042-4.518-1.043-7.009l0.006-4.569
			c0.029-0.608-0.109-1.131-0.513-1.138c-0.008,0.007-2.131,0.007-2.144,0.002c-0.373,0.005-0.373,0.363-0.369,0.362L8.867,47.764
			l-7.1,0.008l-0.006-29.01l10.087-0.006c2.917-0.001,4.674,0.228,5.955,2.102c1.06,1.784,0.93,4.254,0.933,6.416
			c-0.021,2.159-0.701,4.079-2.332,5.492c0.208,0.24,0.684,0.638,0.971,1.101c0.838,1.146,1.105,2.535,0.996,4.122
			c0.158,2.69-0.149,5.557,0.67,7.959l0.531,1.675L19.61,47.749z M11.347,30.55c0.274,0,0.496-0.222,0.496-0.496v-7.112
			c0-0.273-0.222-0.495-0.496-0.495H9.363c-0.274,0-0.496,0.222-0.496,0.495v7.112c0,0.273,0.222,0.496,0.496,0.496H11.347z"/>
	</g>
	<path d="M92.549,21.177h-0.307v-1.43h0.533c0.37,0,0.588,0.105,0.588,0.432c0,0.263-0.155,0.357-0.345,0.372l0.363,0.626h-0.36
		l-0.33-0.602h-0.143V21.177z M92.818,20.334c0.138,0,0.218-0.029,0.218-0.187c0-0.147-0.158-0.158-0.273-0.158h-0.214v0.344H92.818
		z M92.768,21.791c-0.703,0-1.332-0.488-1.332-1.326c0-0.84,0.629-1.327,1.332-1.327s1.332,0.487,1.332,1.327
		C94.1,21.303,93.471,21.791,92.768,21.791z M92.768,19.445c-0.525,0-0.95,0.407-0.95,1.02c0,0.609,0.425,1.021,0.95,1.018v0.003
		c0.515,0,0.95-0.412,0.95-1.021C93.718,19.852,93.282,19.445,92.768,19.445z"/>
</g>
</svg>
