<?xml version="1.0" encoding="utf-8"?>
<!-- Generator: Adobe Illustrator 16.0.4, SVG Export Plug-In . SVG Version: 6.00 Build 0)  -->
<!DOCTYPE svg PUBLIC "-//W3C//DTD SVG 1.1//EN" "http://www.w3.org/Graphics/SVG/1.1/DTD/svg11.dtd">
<svg version="1.1" xmlns="http://www.w3.org/2000/svg" xmlns:xlink="http://www.w3.org/1999/xlink" x="0px" y="0px" width="132px"
	 height="70px" viewBox="0 0 132 70" enable-background="new 0 0 132 70" xml:space="preserve">
<symbol  id="Hamburger_Menu" viewBox="-14.559 -10.753 26.256 24.421">
	<g>
		<path fill="#333333" d="M11.441,7.1c0-0.552-0.448-1-1-1h-24c-0.552,0-1,0.448-1,1l0,0c0,0.552,0.448,1,1,1h24
			C10.993,8.1,11.441,7.652,11.441,7.1L11.441,7.1z"/>
	</g>
	<g>
		<path fill="#333333" d="M11.441,1.6c0-0.552-0.448-1-1-1h-24c-0.552,0-1,0.448-1,1l0,0c0,0.552,0.448,1,1,1h24
			C10.993,2.6,11.441,2.152,11.441,1.6L11.441,1.6z"/>
	</g>
	<g>
		<path fill="#333333" d="M-14.488-10.575v7.128h1.401l1.975-5.515l2.033,5.515h1.251v-7.128h-0.943v5.799l-1.966-5.321h-0.978
			l-1.907,5.336v-5.813H-14.488z"/>
		<path fill="#333333" d="M-5.993-10.575v7.128h3.982v-0.756h-2.971v-2.288h2.49v-0.746h-2.49v-2.582h3.179v-0.756H-5.993z"/>
		<path fill="#333333" d="M-0.646-10.575v7.128h0.991l3.589-5.505v5.505H4.8v-7.128H3.812L0.22-5.069v-5.506H-0.646z"/>
		<path fill="#333333" d="M6.582-3.447h1.012v-4.498c0-0.716,0.134-1.237,0.397-1.562c0.265-0.326,0.687-0.489,1.265-0.489
			c0.564,0,0.966,0.153,1.202,0.461c0.235,0.306,0.354,0.825,0.354,1.558v4.531h0.886v-4.518c0-0.972-0.199-1.681-0.599-2.123
			c-0.4-0.443-1.037-0.666-1.911-0.666c-0.889,0-1.545,0.23-1.97,0.689C6.795-9.605,6.582-8.895,6.582-7.935V-3.447z"/>
	</g>
	<path fill="#333333" d="M11.441,12.667c0-0.552-0.448-1-1-1h-24c-0.552,0-1,0.448-1,1l0,0c0,0.552,0.448,1,1,1h24
		C10.993,13.667,11.441,13.22,11.441,12.667L11.441,12.667z"/>
</symbol>
<g id="Layer_2" display="none">
	<rect x="-55.171" y="-0.125" display="inline" fill="#FFFFFF" width="320.001" height="70"/>
	<g display="inline">
		<g>
			<path fill="#231F20" d="M9.152,35.258c0.901,0.207,2.03,0.562,2.761,1.146c0.847,0.695,1.355,1.709,1.355,2.799
				c0,1.428-0.697,2.744-1.843,3.59c-1.22,0.92-2.667,1.275-4.19,1.275c-1.221,0-2.481-0.207-3.587-0.713
				c-0.94-0.451-2.237-1.465-2.237-2.594c0-0.525,0.377-1.031,0.92-1.031c0.508,0,0.79,0.299,1.053,0.693
				c0.393,0.602,0.656,1.072,1.278,1.486c0.695,0.451,1.579,0.676,2.405,0.676c1.296,0,2.893-0.676,2.893-2.18
				c0-0.658-0.338-1.186-0.94-1.465c-0.6-0.303-1.728-0.547-2.405-0.676c-0.958-0.17-2.236-0.508-3.044-1.055
				c-1.013-0.693-1.652-1.764-1.652-3.006c0-1.334,0.732-2.611,1.802-3.402c1.072-0.787,2.463-1.051,3.778-1.051
				c1.39,0,2.912,0.338,4.153,0.979c0.225,0.131,0.432,0.281,0.507,0.545c0.131,0.449,0.131,1.221,0.131,1.689
				c0,0.451-0.225,0.77-0.695,0.77c-1.015,0-0.865-2.668-3.944-2.668c-1.072,0-2.35,0.602-2.35,1.822
				c0,1.355,1.297,1.729,2.367,1.994L9.152,35.258z"/>
			<path fill="#231F20" d="M17.571,41.026c0,0.846,0.093,1.314,1.07,1.314c0.563,0,1.278-0.074,1.278,0.734
				c0,0.676-0.77,0.715-1.258,0.715h-2.575c-1.185,0-1.578-0.17-1.578-1.449v-6.105h-0.376c-0.545,0-1.127,0-1.127-0.73
				c0-0.49,0.337-0.604,0.752-0.68c0.507-0.074,0.958-0.131,1.26-0.58c0.243-0.396,0.45-1.24,0.525-1.713
				c0.132-0.693,0.282-0.938,1.033-0.938c0.865,0,0.94,0.113,0.94,0.902v2.254h1.108c0.565,0,1.165,0.018,1.165,0.754
				c0,0.656-0.6,0.73-1.126,0.73h-1.09V41.026z"/>
			<path fill="#231F20" d="M24.542,41.252c0,0.262,0,0.789,0.094,1.033c0.076,0.17,0.263,0.262,0.415,0.338
				c0.244,0.133,0.45,0.262,0.45,0.564c0,0.602-0.563,0.602-1.015,0.602h-2.949c-0.452,0-1.015,0-1.015-0.602
				c0-0.303,0.207-0.432,0.45-0.564c0.151-0.076,0.34-0.168,0.415-0.338c0.093-0.244,0.093-0.771,0.093-1.033v-3.439
				c0,0.264,0-0.131-0.113-0.506c-0.111-0.414-0.281-0.508-0.676-0.697c-0.282-0.131-0.508-0.281-0.508-0.619
				c0-0.471,0.565-0.695,0.921-0.846c0.396-0.15,1.56-0.545,1.973-0.545c0.845,0,0.979,1.334,1.072,1.955
				c0.452-0.922,1.372-1.955,2.461-1.955c0.808,0,1.41,0.584,1.41,1.391c0,0.582-0.338,1.295-0.997,1.295
				c-0.488,0-0.865-0.242-1.258-0.242c-0.395,0-0.697,0.357-0.865,0.695c-0.318,0.582-0.357,1.371-0.357,2.029V41.252z"/>
			<path fill="#231F20" d="M29.333,38.471c0-0.414,0-0.996-0.057-1.41c-0.073-0.395-0.225-0.488-0.542-0.676
				c-0.227-0.131-0.472-0.225-0.472-0.525c0-0.508,0.79-0.621,1.146-0.715c0.565-0.188,1.635-0.545,2.218-0.545
				c0.882,0,0.77,1.279,0.77,1.842v4.959c0,0.246-0.02,0.752,0.075,0.996c0.075,0.133,0.225,0.227,0.356,0.32
				c0.188,0.113,0.34,0.244,0.34,0.488c0,0.432-0.34,0.584-0.716,0.584h-3.175c-0.375,0-0.713-0.152-0.713-0.584
				c0-0.244,0.15-0.375,0.338-0.488c0.132-0.094,0.282-0.188,0.356-0.32c0.094-0.244,0.075-0.75,0.075-0.996V38.471z M28.768,32.122
				c0-0.998,0.921-1.58,1.823-1.58c0.921,0,1.842,0.488,1.842,1.502c0,0.979-1.033,1.484-1.878,1.484
				C29.728,33.528,28.768,33.042,28.768,32.122z"/>
			<path fill="#231F20" d="M40.852,37.909l-0.245,0.205c1.222,1.09,2.162,2.463,2.95,3.871c0.151,0.301,0.245,0.432,0.526,0.602
				c0.264,0.15,0.432,0.262,0.432,0.582c0,0.486-0.47,0.621-0.863,0.621H40.55c-0.414,0-0.938-0.057-0.938-0.602
				c0-0.432,0.563-0.432,0.563-0.791c0-0.58-1.392-2.404-1.917-2.816l-0.695,0.393v1.428c0,0.246-0.02,0.752,0.073,0.996
				c0.077,0.133,0.227,0.227,0.359,0.32c0.188,0.113,0.338,0.244,0.338,0.488c0,0.432-0.338,0.584-0.713,0.584h-3.176
				c-0.375,0-0.715-0.152-0.715-0.584c0-0.244,0.152-0.375,0.34-0.488c0.13-0.094,0.28-0.188,0.356-0.32
				c0.093-0.244,0.075-0.75,0.075-0.996v-7.967c0-0.412,0-0.996-0.057-1.408c-0.075-0.395-0.227-0.488-0.545-0.678
				c-0.225-0.129-0.47-0.225-0.47-0.523c0-0.508,0.788-0.621,1.146-0.715c0.563-0.188,1.635-0.545,2.217-0.545
				c0.884,0,0.771,1.277,0.771,1.842v7.252c0.713-0.264,2.873-1.859,2.873-2.518c0-0.168-0.111-0.244-0.241-0.32
				c-0.227-0.111-0.434-0.244-0.434-0.525c0-0.301,0.207-0.412,0.488-0.471c0.413-0.074,1.485-0.074,1.917-0.074
				c0.413,0,1.485-0.111,1.485,0.545c0,0.395-0.376,0.547-0.676,0.732c-0.377,0.207-0.809,0.658-1.108,0.959L40.852,37.909z"/>
			<path fill="#231F20" d="M50.077,42.569c1.015,0,1.785-0.451,2.537-1.127c0.263-0.229,0.395-0.416,0.77-0.416
				c0.263,0,0.545,0.227,0.545,0.508c0,0.676-1.014,1.467-1.522,1.75c-0.978,0.578-1.955,0.785-3.118,0.785
				c-2.556,0-5.056-1.672-5.056-4.432c0-3.158,2.725-5.037,5.656-5.037c1.672,0,3.853,0.77,3.853,2.744
				c0,1.389-1.428,2.18-2.576,2.555c-1.126,0.357-2.346,0.469-3.512,0.656C47.916,41.741,48.856,42.569,50.077,42.569z
				 M50.811,37.137c0-0.713-0.377-1.221-1.128-1.221c-1.579,0-2.292,2.066-2.198,3.381C48.723,39.204,50.811,38.696,50.811,37.137z"
				/>
			<path fill="#231F20" d="M65.224,31.012c0.318-0.771,0.394-0.977,1.238-0.977h3.494c0.359,0,0.639,0.244,0.639,0.676
				c0,0.469-0.373,0.582-0.731,0.695c-0.509,0.148-0.546,0.432-0.546,0.922v9.072c0,0.395-0.074,0.828,0.339,1.035l0.207,0.111
				c0.243,0.152,0.452,0.264,0.452,0.602c0,0.506-0.509,0.641-0.922,0.641h-3.57c-0.414,0-0.921-0.135-0.921-0.641
				c0-0.338,0.208-0.449,0.452-0.602l0.207-0.111c0.413-0.207,0.338-0.641,0.338-1.035v-8.152l-3.043,7.553
				c-0.34,0.789-0.415,1.184-1.373,1.184c-0.827,0-1.07-0.057-1.408-0.789l-3.308-7.74v7.986c0.018,0.223,0.057,0.449,0.114,0.617
				c0.129,0.338,0.411,0.414,0.713,0.527c0.321,0.131,0.47,0.262,0.47,0.619c0,0.639-0.845,0.584-1.279,0.584H55.15
				c-0.431,0-1.276,0.055-1.276-0.584c0-0.357,0.15-0.488,0.47-0.619c0.3-0.113,0.584-0.189,0.712-0.527
				c0.058-0.168,0.095-0.395,0.115-0.617V32.42c0-0.076,0-0.244-0.057-0.395c-0.075-0.318-0.283-0.564-0.733-0.695
				c-0.357-0.111-0.713-0.207-0.713-0.656c0-0.623,0.582-0.639,1.072-0.639h3.663c0.901,0,0.997,0.582,1.278,1.334l2.63,6.744
				L65.224,31.012z"/>
			<path fill="#231F20" d="M79.654,41.213c0,0.262-0.018,0.789,0.094,1.035c0.095,0.188,0.243,0.281,0.413,0.355
				c0.264,0.133,0.47,0.264,0.47,0.584c0,0.602-0.562,0.602-1.015,0.602h-1.88c-0.957,0-0.957-0.32-1.013-1.166
				c-0.638,1.053-1.767,1.445-2.913,1.445c-1.767,0-3.382-0.977-3.382-2.91c0-2.668,3.382-3.328,5.448-3.328h0.64
				c0-1.125-0.545-1.971-1.748-1.971c-1.145,0-1.315,1.201-2.499,1.201c-0.544,0-1.166-0.242-1.166-0.9
				c0-1.316,2.97-1.561,3.89-1.561c1.054,0,2.219,0.168,3.139,0.695c1.166,0.678,1.522,1.635,1.522,2.949V41.213z M76.271,39.016
				c-1.333,0-2.686,0.656-2.686,2.16c0,0.715,0.411,1.354,1.183,1.354c0.62,0,1.108-0.395,1.448-0.902
				c0.411-0.658,0.395-1.26,0.395-2.01v-0.602H76.271z"/>
			<path fill="#231F20" d="M86.343,38.17c1.428,0.377,2.743,0.902,2.743,2.65c0,1.051-0.62,1.953-1.503,2.518
				c-0.845,0.506-1.918,0.73-2.913,0.73c-0.884,0-1.691-0.129-2.479-0.488c-0.639-0.279-1.483-0.844-1.483-1.615
				c0-0.451,0.338-0.863,0.788-0.863c0.432,0,0.6,0.244,0.863,0.545c0.602,0.656,0.997,1.09,1.936,1.09
				c0.639,0,1.598-0.301,1.598-1.109c0-1.916-4.885-0.451-4.885-3.832c0-2.33,2.349-3.195,4.303-3.195
				c0.865,0,2.235,0.225,2.969,0.715c0.395,0.244,0.395,0.846,0.395,1.258c0,0.414-0.02,0.922-0.562,0.922
				c-0.848,0-0.772-1.615-2.596-1.615c-0.639,0-1.427,0.299-1.427,1.051c0,0.676,0.845,0.883,1.372,1.016L86.343,38.17z"/>
			<path fill="#231F20" d="M93.485,41.026c0,0.846,0.093,1.314,1.069,1.314c0.563,0,1.278-0.074,1.278,0.734
				c0,0.676-0.77,0.715-1.258,0.715h-2.577c-1.182,0-1.576-0.17-1.576-1.449v-6.105h-0.377c-0.545,0-1.126,0-1.126-0.73
				c0-0.49,0.337-0.604,0.751-0.68c0.507-0.074,0.959-0.131,1.259-0.58c0.245-0.396,0.451-1.24,0.526-1.713
				c0.132-0.693,0.281-0.938,1.033-0.938c0.864,0,0.94,0.113,0.94,0.902v2.254h1.107c0.563,0,1.165,0.018,1.165,0.754
				c0,0.656-0.602,0.73-1.126,0.73h-1.09V41.026z"/>
			<path fill="#231F20" d="M101.375,42.569c1.014,0,1.784-0.451,2.536-1.127c0.264-0.229,0.396-0.416,0.772-0.416
				c0.262,0,0.542,0.227,0.542,0.508c0,0.676-1.014,1.467-1.521,1.75c-0.976,0.578-1.952,0.785-3.119,0.785
				c-2.555,0-5.055-1.672-5.055-4.432c0-3.158,2.727-5.037,5.656-5.037c1.673,0,3.854,0.77,3.854,2.744
				c0,1.389-1.429,2.18-2.575,2.555c-1.128,0.357-2.349,0.469-3.513,0.656C99.215,41.741,100.154,42.569,101.375,42.569z
				 M102.109,37.137c0-0.713-0.377-1.221-1.129-1.221c-1.576,0-2.291,2.066-2.198,3.381
				C100.022,39.204,102.109,38.696,102.109,37.137z"/>
			<path fill="#231F20" d="M109.849,41.252c0,0.262,0,0.789,0.096,1.033c0.074,0.17,0.263,0.262,0.411,0.338
				c0.245,0.133,0.451,0.262,0.451,0.564c0,0.602-0.562,0.602-1.013,0.602h-2.951c-0.451,0-1.014,0-1.014-0.602
				c0-0.303,0.207-0.432,0.45-0.564c0.152-0.076,0.336-0.168,0.414-0.338c0.092-0.244,0.092-0.771,0.092-1.033v-3.439
				c0,0.264,0-0.131-0.11-0.506c-0.114-0.414-0.283-0.508-0.678-0.697c-0.281-0.131-0.506-0.281-0.506-0.619
				c0-0.471,0.563-0.695,0.92-0.846c0.395-0.15,1.56-0.545,1.973-0.545c0.847,0,0.977,1.334,1.07,1.955
				c0.451-0.922,1.371-1.955,2.463-1.955c0.806,0,1.408,0.584,1.408,1.391c0,0.582-0.338,1.295-0.996,1.295
				c-0.487,0-0.864-0.242-1.258-0.242c-0.395,0-0.696,0.357-0.864,0.695c-0.319,0.582-0.358,1.371-0.358,2.029V41.252z"/>
		</g>
		<g>
			<path fill="#231F20" d="M114.049,40.364c0.923,0,1.696,0.729,1.696,1.682c0,0.971-0.773,1.699-1.696,1.699
				c-0.928,0-1.705-0.729-1.705-1.699C112.344,41.092,113.122,40.364,114.049,40.364z M114.049,43.497
				c0.783,0,1.389-0.623,1.389-1.451c0-0.809-0.605-1.434-1.389-1.434c-0.791,0-1.396,0.625-1.396,1.434
				C112.653,42.874,113.258,43.497,114.049,43.497z M113.389,41.065h0.765c0.47,0,0.691,0.186,0.691,0.562
				c0,0.359-0.227,0.508-0.521,0.539l0.565,0.873h-0.329l-0.539-0.85h-0.325v0.85h-0.308V41.065z M113.697,41.942h0.32
				c0.271,0,0.521-0.014,0.521-0.326c0-0.262-0.227-0.303-0.436-0.303h-0.405V41.942z"/>
		</g>
	</g>
	
		<use xlink:href="#Hamburger_Menu"  width="26.256" height="24.421" id="XMLID_17_" x="-14.559" y="-10.753" transform="matrix(1.3748 0 0 -1.3748 -24.27 37.6313)" display="inline" overflow="visible"/>
</g>
<g id="Layer_1">
	<g>
		<path d="M8.852,34.844c0.905,0.208,2.036,0.566,2.771,1.15c0.848,0.697,1.357,1.715,1.357,2.808c0,1.433-0.698,2.752-1.848,3.6
			c-1.225,0.924-2.676,1.281-4.203,1.281c-1.226,0-2.488-0.207-3.6-0.716c-0.942-0.453-2.243-1.47-2.243-2.601
			c0-0.528,0.377-1.037,0.923-1.037c0.509,0,0.792,0.302,1.056,0.698c0.396,0.603,0.659,1.074,1.281,1.489
			c0.698,0.452,1.583,0.678,2.413,0.678c1.3,0,2.902-0.678,2.902-2.186c0-0.66-0.34-1.188-0.942-1.471
			c-0.603-0.301-1.734-0.546-2.413-0.678c-0.961-0.169-2.243-0.509-3.054-1.055c-1.017-0.697-1.658-1.772-1.658-3.016
			c0-1.338,0.735-2.62,1.81-3.412s2.469-1.055,3.788-1.055c1.395,0,2.922,0.339,4.166,0.98c0.226,0.132,0.434,0.283,0.509,0.546
			C12,31.301,12,32.074,12,32.545c0,0.452-0.227,0.772-0.697,0.772c-1.018,0-0.867-2.676-3.958-2.676
			c-1.075,0-2.356,0.603-2.356,1.828c0,1.357,1.301,1.733,2.375,1.998L8.852,34.844z"/>
		<path d="M17.296,40.631c0,0.848,0.094,1.319,1.074,1.319c0.566,0,1.282-0.075,1.282,0.735c0,0.679-0.772,0.716-1.262,0.716h-2.583
			c-1.188,0-1.583-0.17-1.583-1.452v-6.125h-0.376c-0.547,0-1.131,0-1.131-0.735c0-0.49,0.339-0.603,0.754-0.678
			c0.508-0.075,0.961-0.132,1.263-0.584c0.245-0.396,0.453-1.244,0.528-1.715c0.131-0.698,0.283-0.943,1.036-0.943
			c0.868,0,0.942,0.113,0.942,0.905v2.262h1.112c0.565,0,1.168,0.019,1.168,0.753c0,0.66-0.603,0.735-1.13,0.735h-1.094V40.631z"/>
		<path d="M24.289,40.856c0,0.264,0,0.792,0.095,1.037c0.075,0.169,0.264,0.264,0.414,0.339c0.246,0.132,0.453,0.264,0.453,0.565
			c0,0.604-0.566,0.604-1.018,0.604h-2.959c-0.452,0-1.018,0-1.018-0.604c0-0.301,0.208-0.433,0.453-0.565
			c0.151-0.075,0.339-0.169,0.415-0.339c0.094-0.245,0.094-0.773,0.094-1.037v-3.449c0,0.264,0-0.132-0.113-0.509
			c-0.113-0.415-0.283-0.509-0.679-0.697c-0.283-0.132-0.509-0.282-0.509-0.622c0-0.472,0.565-0.697,0.924-0.848
			c0.396-0.151,1.564-0.547,1.979-0.547c0.848,0,0.98,1.338,1.075,1.96c0.452-0.923,1.375-1.96,2.469-1.96
			c0.811,0,1.414,0.584,1.414,1.395c0,0.584-0.339,1.3-0.999,1.3c-0.49,0-0.867-0.245-1.263-0.245c-0.396,0-0.698,0.358-0.867,0.698
			c-0.32,0.584-0.358,1.376-0.358,2.035V40.856z"/>
		<path d="M29.095,38.067c0-0.415,0-0.999-0.056-1.414c-0.076-0.396-0.226-0.49-0.547-0.678c-0.226-0.132-0.471-0.227-0.471-0.528
			c0-0.509,0.792-0.622,1.15-0.716c0.565-0.188,1.64-0.547,2.224-0.547c0.886,0,0.773,1.282,0.773,1.847v4.976
			c0,0.245-0.019,0.753,0.075,0.999c0.076,0.132,0.227,0.226,0.358,0.32c0.188,0.114,0.339,0.245,0.339,0.491
			c0,0.433-0.339,0.584-0.716,0.584h-3.185c-0.377,0-0.716-0.151-0.716-0.584c0-0.246,0.15-0.377,0.339-0.491
			c0.132-0.094,0.282-0.188,0.358-0.32c0.094-0.245,0.075-0.753,0.075-0.999V38.067z M28.53,31.697c0-0.999,0.923-1.583,1.828-1.583
			c0.923,0,1.848,0.49,1.848,1.508c0,0.98-1.037,1.489-1.885,1.489C29.491,33.111,28.53,32.621,28.53,31.697z"/>
		<path d="M40.649,37.501l-0.245,0.208c1.225,1.093,2.167,2.469,2.959,3.882c0.15,0.302,0.245,0.433,0.527,0.603
			c0.264,0.151,0.434,0.264,0.434,0.584c0,0.49-0.471,0.622-0.867,0.622h-3.109c-0.415,0-0.943-0.057-0.943-0.604
			c0-0.433,0.566-0.433,0.566-0.792c0-0.584-1.395-2.412-1.922-2.827l-0.698,0.396v1.432c0,0.245-0.019,0.753,0.075,0.999
			c0.076,0.132,0.227,0.226,0.358,0.32c0.189,0.114,0.34,0.245,0.34,0.491c0,0.433-0.34,0.584-0.716,0.584h-3.185
			c-0.377,0-0.716-0.151-0.716-0.584c0-0.246,0.15-0.377,0.339-0.491c0.132-0.094,0.282-0.188,0.357-0.32
			c0.095-0.245,0.076-0.753,0.076-0.999v-7.992c0-0.414,0-0.999-0.057-1.414c-0.076-0.396-0.227-0.49-0.547-0.678
			c-0.226-0.132-0.471-0.226-0.471-0.528c0-0.509,0.792-0.622,1.15-0.716c0.565-0.189,1.64-0.547,2.224-0.547
			c0.886,0,0.773,1.281,0.773,1.847v7.275c0.716-0.264,2.884-1.866,2.884-2.525c0-0.17-0.113-0.245-0.245-0.32
			c-0.226-0.114-0.434-0.246-0.434-0.528c0-0.302,0.208-0.415,0.49-0.471c0.415-0.075,1.489-0.075,1.922-0.075
			c0.415,0,1.489-0.113,1.489,0.546c0,0.396-0.377,0.546-0.678,0.734c-0.377,0.208-0.811,0.661-1.112,0.961L40.649,37.501z"/>
		<path d="M49.903,42.176c1.018,0,1.791-0.453,2.545-1.131c0.264-0.227,0.396-0.415,0.773-0.415c0.264,0,0.546,0.226,0.546,0.509
			c0,0.678-1.018,1.469-1.526,1.753c-0.98,0.584-1.96,0.791-3.129,0.791c-2.563,0-5.07-1.677-5.07-4.448
			c0-3.166,2.732-5.051,5.673-5.051c1.677,0,3.863,0.773,3.863,2.752c0,1.395-1.432,2.187-2.583,2.563
			c-1.13,0.358-2.355,0.472-3.524,0.66C47.736,41.347,48.678,42.176,49.903,42.176z M50.639,36.729c0-0.717-0.377-1.225-1.131-1.225
			c-1.583,0-2.299,2.073-2.205,3.392C48.546,38.802,50.639,38.294,50.639,36.729z"/>
		<path d="M65.094,30.585c0.321-0.772,0.396-0.98,1.245-0.98h3.505c0.358,0,0.642,0.246,0.642,0.679
			c0,0.471-0.378,0.584-0.735,0.697c-0.51,0.151-0.547,0.433-0.547,0.923v9.104c0,0.396-0.076,0.829,0.34,1.036l0.207,0.113
			c0.244,0.151,0.452,0.264,0.452,0.603c0,0.509-0.509,0.641-0.923,0.641h-3.581c-0.415,0-0.924-0.132-0.924-0.641
			c0-0.339,0.208-0.452,0.452-0.603l0.207-0.113c0.415-0.207,0.34-0.641,0.34-1.036v-8.18l-3.054,7.577
			c-0.339,0.792-0.415,1.188-1.375,1.188c-0.83,0-1.074-0.056-1.414-0.792l-3.317-7.765v8.01c0.019,0.226,0.057,0.452,0.113,0.622
			c0.131,0.339,0.415,0.415,0.715,0.528c0.321,0.132,0.471,0.264,0.471,0.623c0,0.641-0.848,0.584-1.281,0.584h-1.64
			c-0.433,0-1.281,0.057-1.281-0.584c0-0.358,0.151-0.491,0.472-0.623c0.301-0.113,0.584-0.188,0.716-0.528
			c0.057-0.169,0.094-0.396,0.113-0.622v-9.047c0-0.076,0-0.246-0.057-0.396c-0.076-0.321-0.283-0.565-0.735-0.697
			c-0.357-0.113-0.716-0.207-0.716-0.66c0-0.622,0.584-0.641,1.074-0.641h3.675c0.905,0,0.999,0.584,1.282,1.338l2.638,6.767
			L65.094,30.585z"/>
		<path d="M79.571,40.819c0,0.264-0.02,0.792,0.094,1.037c0.095,0.188,0.245,0.283,0.415,0.358c0.264,0.132,0.472,0.264,0.472,0.584
			c0,0.604-0.567,0.604-1.019,0.604h-1.885c-0.961,0-0.961-0.321-1.018-1.169c-0.64,1.056-1.771,1.451-2.921,1.451
			c-1.772,0-3.393-0.98-3.393-2.921c0-2.677,3.393-3.336,5.465-3.336h0.642c0-1.13-0.546-1.979-1.754-1.979
			c-1.148,0-1.319,1.206-2.506,1.206c-0.547,0-1.169-0.245-1.169-0.905c0-1.319,2.978-1.564,3.901-1.564
			c1.056,0,2.224,0.17,3.148,0.698c1.169,0.678,1.526,1.639,1.526,2.959V40.819z M76.177,38.614c-1.338,0-2.694,0.659-2.694,2.167
			c0,0.716,0.414,1.357,1.187,1.357c0.623,0,1.112-0.396,1.452-0.905c0.415-0.659,0.396-1.262,0.396-2.017v-0.603H76.177z"/>
		<path d="M86.281,37.766c1.432,0.376,2.752,0.905,2.752,2.657c0,1.056-0.622,1.96-1.509,2.526
			c-0.848,0.509-1.922,0.734-2.921,0.734c-0.887,0-1.696-0.132-2.487-0.49c-0.642-0.282-1.488-0.848-1.488-1.62
			c0-0.453,0.338-0.868,0.791-0.868c0.434,0,0.602,0.246,0.866,0.547c0.604,0.66,0.999,1.093,1.94,1.093
			c0.642,0,1.604-0.302,1.604-1.112c0-1.922-4.901-0.452-4.901-3.845c0-2.337,2.356-3.204,4.316-3.204
			c0.867,0,2.243,0.227,2.978,0.716c0.396,0.245,0.396,0.848,0.396,1.263c0,0.414-0.019,0.923-0.565,0.923
			c-0.849,0-0.772-1.621-2.601-1.621c-0.642,0-1.433,0.301-1.433,1.055c0,0.679,0.848,0.886,1.375,1.018L86.281,37.766z"/>
		<path d="M93.443,40.631c0,0.848,0.094,1.319,1.074,1.319c0.565,0,1.282-0.075,1.282,0.735c0,0.679-0.773,0.716-1.264,0.716h-2.582
			c-1.187,0-1.583-0.17-1.583-1.452v-6.125h-0.377c-0.547,0-1.131,0-1.131-0.735c0-0.49,0.34-0.603,0.754-0.678
			c0.509-0.075,0.961-0.132,1.264-0.584c0.244-0.396,0.451-1.244,0.527-1.715c0.131-0.698,0.282-0.943,1.036-0.943
			c0.867,0,0.942,0.113,0.942,0.905v2.262h1.112c0.564,0,1.169,0.019,1.169,0.753c0,0.66-0.604,0.735-1.132,0.735h-1.093V40.631z"/>
		<path d="M101.359,42.176c1.018,0,1.791-0.453,2.545-1.131c0.264-0.227,0.396-0.415,0.772-0.415c0.265,0,0.547,0.226,0.547,0.509
			c0,0.678-1.019,1.469-1.527,1.753c-0.98,0.584-1.96,0.791-3.129,0.791c-2.562,0-5.069-1.677-5.069-4.448
			c0-3.166,2.733-5.051,5.674-5.051c1.676,0,3.862,0.773,3.862,2.752c0,1.395-1.432,2.187-2.582,2.563
			c-1.13,0.358-2.355,0.472-3.524,0.66C99.191,41.347,100.133,42.176,101.359,42.176z M102.094,36.729
			c0-0.717-0.377-1.225-1.131-1.225c-1.583,0-2.3,2.073-2.205,3.392C100.001,38.802,102.094,38.294,102.094,36.729z"/>
		<path d="M109.86,40.856c0,0.264,0,0.792,0.093,1.037c0.076,0.169,0.266,0.264,0.416,0.339c0.245,0.132,0.452,0.264,0.452,0.565
			c0,0.604-0.565,0.604-1.019,0.604h-2.959c-0.451,0-1.018,0-1.018-0.604c0-0.301,0.207-0.433,0.453-0.565
			c0.15-0.075,0.339-0.169,0.414-0.339c0.095-0.245,0.095-0.773,0.095-1.037v-3.449c0,0.264,0-0.132-0.113-0.509
			c-0.113-0.415-0.282-0.509-0.679-0.697c-0.282-0.132-0.509-0.282-0.509-0.622c0-0.472,0.565-0.697,0.924-0.848
			c0.396-0.151,1.564-0.547,1.979-0.547c0.849,0,0.98,1.338,1.075,1.96c0.451-0.923,1.375-1.96,2.469-1.96
			c0.81,0,1.414,0.584,1.414,1.395c0,0.584-0.34,1.3-1,1.3c-0.489,0-0.867-0.245-1.263-0.245s-0.697,0.358-0.866,0.698
			c-0.32,0.584-0.358,1.376-0.358,2.035V40.856z"/>
	</g>
	<g>
		<path d="M113.237,40.396c0.836,0,1.538,0.66,1.538,1.525c0,0.881-0.702,1.541-1.538,1.541c-0.84,0-1.545-0.66-1.545-1.541
			C111.692,41.056,112.397,40.396,113.237,40.396z M113.237,43.237c0.709,0,1.259-0.566,1.259-1.316c0-0.733-0.55-1.299-1.259-1.299
			c-0.718,0-1.266,0.566-1.266,1.299C111.971,42.671,112.519,43.237,113.237,43.237z M112.639,41.031h0.692
			c0.427,0,0.627,0.168,0.627,0.512c0,0.324-0.205,0.459-0.472,0.488l0.512,0.791H113.7l-0.487-0.77h-0.295v0.77h-0.278V41.031z
			 M112.917,41.826h0.291c0.245,0,0.472-0.012,0.472-0.295c0-0.237-0.206-0.274-0.394-0.274h-0.369V41.826z"/>
	</g>
</g>
</svg>
