<?xml version="1.0" encoding="utf-8"?>
<!-- Generator: Adobe Illustrator 16.0.4, SVG Export Plug-In . SVG Version: 6.00 Build 0)  -->
<!DOCTYPE svg PUBLIC "-//W3C//DTD SVG 1.1//EN" "http://www.w3.org/Graphics/SVG/1.1/DTD/svg11.dtd">
<svg version="1.1" xmlns="http://www.w3.org/2000/svg" xmlns:xlink="http://www.w3.org/1999/xlink" x="0px" y="0px" width="132px"
	 height="70px" viewBox="0 0 132 70" enable-background="new 0 0 132 70" xml:space="preserve">
<symbol  id="Hamburger_Menu" viewBox="-14.559 -10.753 26.256 24.421">
	<g>
		<path fill="#333333" d="M11.441,7.101c0-0.553-0.448-1-1-1h-24c-0.552,0-1,0.447-1,1l0,0c0,0.552,0.448,1,1,1h24
			C10.993,8.101,11.441,7.652,11.441,7.101L11.441,7.101z"/>
	</g>
	<g>
		<path fill="#333333" d="M11.441,1.601c0-0.553-0.448-1-1-1h-24c-0.552,0-1,0.447-1,1l0,0c0,0.552,0.448,1,1,1h24
			C10.993,2.601,11.441,2.152,11.441,1.601L11.441,1.601z"/>
	</g>
	<g>
		<path fill="#333333" d="M-14.488-10.574v7.127h1.401l1.975-5.515l2.033,5.515h1.251v-7.127h-0.943v5.798l-1.966-5.321h-0.978
			l-1.907,5.337v-5.813H-14.488z"/>
		<path fill="#333333" d="M-5.993-10.574v7.127h3.982v-0.756h-2.971V-6.49h2.49v-0.747h-2.49v-2.582h3.179v-0.755H-5.993z"/>
		<path fill="#333333" d="M-0.646-10.574v7.127h0.991l3.589-5.504v5.504H4.8v-7.127H3.812L0.22-5.069v-5.505H-0.646z"/>
		<path fill="#333333" d="M6.582-3.447h1.012v-4.497c0-0.716,0.134-1.238,0.397-1.562c0.265-0.327,0.687-0.489,1.265-0.489
			c0.564,0,0.966,0.153,1.202,0.461c0.235,0.306,0.354,0.824,0.354,1.557v4.531h0.886v-4.518c0-0.972-0.199-1.68-0.599-2.122
			c-0.4-0.444-1.037-0.666-1.911-0.666c-0.889,0-1.545,0.23-1.97,0.688c-0.423,0.46-0.636,1.17-0.636,2.129V-3.447z"/>
	</g>
	<path fill="#333333" d="M11.441,12.668c0-0.553-0.448-1-1-1h-24c-0.552,0-1,0.447-1,1l0,0c0,0.552,0.448,1,1,1h24
		C10.993,13.668,11.441,13.22,11.441,12.668L11.441,12.668z"/>
</symbol>
<g id="Layer_2" display="none">
	<rect x="-53.825" y="0.166" display="inline" fill="#FFFFFF" width="320.001" height="70"/>
	<g display="inline">
		<path fill="#FFFFFF" d="M105.362,46.02c-32.385-6.449-65.186-6.449-97.57,0c-1.197-5.784-2.395-11.568-3.594-17.354
			c34.748-6.939,70.008-6.94,104.758,0C107.757,34.451,106.56,40.235,105.362,46.02"/>
		<path fill="#265BA6" d="M3.854,26.946L2.122,27.29l4.305,20.792l1.709-0.342c32.143-6.401,64.738-6.401,96.883,0l1.705,0.342
			l4.309-20.792l-1.732-0.344C74.317,19.959,38.839,19.959,3.854,26.946 M106.878,30.052c-0.521,2.511-2.375,11.466-2.885,13.917
			c-31.475-6.046-63.361-6.046-94.834,0c-0.445-2.154-2.414-11.654-2.883-13.917C39.665,23.608,73.491,23.608,106.878,30.052"/>
		<path fill="#010101" d="M105.362,46.02c-32.385-6.449-65.186-6.449-97.57,0c-1.197-5.784-2.395-11.568-3.594-17.354
			c34.748-6.939,70.008-6.94,104.758,0C107.757,34.451,106.56,40.235,105.362,46.02"/>
		<path fill="#FFFFFF" d="M4.118,28.268L3.72,28.35l3.758,18.146l0.395-0.079c32.318-6.436,65.092-6.436,97.41,0l0.393,0.079
			l3.762-18.146l-0.4-0.082C74.228,21.315,38.929,21.315,4.118,28.268 M108.478,28.985c-0.156,0.749-3.279,15.83-3.432,16.561
			c-32.166-6.351-64.773-6.351-96.938,0c-0.148-0.712-3.279-15.827-3.43-16.561C39.12,22.161,74.038,22.161,108.478,28.985"/>
		<path fill="#FFFFFF" d="M16.739,34.767c-0.127,0.807-0.254,1.629-0.381,2.47c-0.129,0.839-0.248,1.664-0.365,2.479
			c-0.117,0.81-0.213,1.535-0.291,2.168c-0.246,0.016-0.518,0.053-0.816,0.104c-0.137,0.024-0.275,0.051-0.412,0.074
			c-0.139,0.026-0.275,0.061-0.408,0.11c-0.191-0.473-0.443-1.082-0.754-1.834c-0.311-0.746-0.643-1.54-1-2.381
			c-0.355-0.841-0.721-1.688-1.09-2.544s-0.715-1.64-1.029-2.35c-0.314-0.712-0.582-1.316-0.801-1.815
			c-0.215-0.499-0.354-0.805-0.416-0.92c0.236-0.021,0.465-0.045,0.691-0.065c0.225-0.026,0.443-0.058,0.654-0.095
			c0.213-0.037,0.428-0.084,0.643-0.137c0.213-0.056,0.426-0.113,0.635-0.171c0.275,0.743,0.566,1.506,0.871,2.286
			c0.305,0.781,0.609,1.551,0.914,2.307c0.309,0.755,0.605,1.488,0.893,2.197c0.287,0.71,0.555,1.364,0.799,1.966l0.031-0.005
			c0.117-0.802,0.242-1.669,0.377-2.602c0.137-0.936,0.268-1.848,0.391-2.744c0.125-0.893,0.238-1.719,0.342-2.473
			s0.178-1.353,0.23-1.795c0.143-0.005,0.277-0.01,0.408-0.018c0.129-0.006,0.262-0.024,0.398-0.048
			c0.139-0.023,0.27-0.056,0.396-0.095c0.123-0.037,0.254-0.076,0.387-0.123c0.084,0.258,0.219,0.599,0.402,1.022
			c0.186,0.428,0.395,0.898,0.631,1.41c0.236,0.516,0.488,1.058,0.756,1.63c0.266,0.57,0.531,1.135,0.799,1.694
			c0.264,0.561,0.51,1.091,0.74,1.593c0.229,0.505,0.424,0.946,0.578,1.327l0.031-0.005c0.098-0.797,0.193-1.674,0.291-2.633
			c0.1-0.957,0.195-1.885,0.287-2.778s0.174-1.713,0.246-2.457c0.072-0.743,0.117-1.3,0.137-1.677
			c0.271,0.006,0.5-0.008,0.678-0.041c0.119-0.021,0.236-0.048,0.355-0.087c0.119-0.037,0.24-0.077,0.363-0.121
			c-0.039,0.244-0.098,0.636-0.178,1.183c-0.08,0.549-0.172,1.19-0.275,1.934c-0.105,0.744-0.215,1.551-0.332,2.429
			c-0.117,0.872-0.232,1.752-0.35,2.638c-0.113,0.889-0.225,1.756-0.328,2.604c-0.105,0.847-0.193,1.603-0.264,2.273
			c-0.25,0.019-0.52,0.053-0.816,0.104c-0.139,0.026-0.277,0.05-0.414,0.074c-0.137,0.023-0.275,0.062-0.408,0.112
			c-0.562-1.408-1.172-2.801-1.82-4.175c-0.652-1.375-1.332-2.775-2.039-4.197l-0.031,0.008
			C16.978,33.229,16.866,33.957,16.739,34.767"/>
		<path fill="#FFFFFF" d="M25.948,29.887c-0.109-0.778-0.23-1.556-0.361-2.339c0.186-0.005,0.383-0.013,0.598-0.026
			c0.217-0.014,0.459-0.036,0.725-0.071c0.266-0.036,0.506-0.076,0.717-0.12c0.213-0.042,0.41-0.087,0.588-0.132
			c0.041,0.794,0.094,1.582,0.16,2.37c0.064,0.783,0.154,1.677,0.27,2.684l0.279,2.476c0.113,1.003,0.227,1.895,0.34,2.672
			c0.111,0.78,0.236,1.543,0.367,2.289c-0.186-0.005-0.383,0.008-0.596,0.037c-0.215,0.028-0.455,0.061-0.721,0.097
			c-0.268,0.034-0.508,0.066-0.721,0.092c-0.213,0.032-0.41,0.068-0.59,0.121c-0.043-0.757-0.098-1.529-0.166-2.312
			c-0.066-0.785-0.158-1.679-0.273-2.686l-0.279-2.473C26.169,31.559,26.058,30.667,25.948,29.887"/>
		<path fill="#FFFFFF" d="M30.694,29.269c-0.096-0.777-0.203-1.561-0.32-2.346c0.184,0,0.383,0,0.598-0.009
			c0.217-0.008,0.459-0.025,0.727-0.052c0.266-0.027,0.508-0.061,0.719-0.1c0.215-0.039,0.41-0.077,0.59-0.116
			c0.029,0.794,0.068,1.582,0.119,2.367c0.049,0.789,0.121,1.686,0.211,2.694l0.223,2.478c0.061,0.691,0.125,1.359,0.189,2.003
			c0.062,0.644,0.123,1.203,0.178,1.674c0.607-0.065,1.217-0.145,1.822-0.244c0.607-0.103,1.217-0.227,1.83-0.373
			c-0.01,0.134-0.016,0.257-0.016,0.367c-0.002,0.11,0.006,0.266,0.023,0.457c0.02,0.195,0.037,0.348,0.059,0.455
			c0.02,0.108,0.043,0.197,0.07,0.266c-0.289,0.021-0.645,0.047-1.068,0.084c-0.424,0.039-1.002,0.097-1.74,0.174
			c-0.652,0.07-1.182,0.126-1.59,0.168c-0.398,0.042-0.717,0.076-0.959,0.1c-0.242,0.026-0.424,0.048-0.547,0.065
			c-0.123,0.024-0.227,0.043-0.311,0.063c-0.021-0.757-0.053-1.529-0.1-2.315c-0.047-0.788-0.115-1.685-0.205-2.693l-0.225-2.479
			C30.882,30.948,30.788,30.052,30.694,29.269"/>
		<path fill="#FFFFFF" d="M38.228,28.518c-0.07-0.783-0.156-1.569-0.252-2.358c0.184,0.008,0.383,0.013,0.598,0.013
			c0.219,0,0.459-0.009,0.727-0.027c0.27-0.021,0.51-0.045,0.725-0.076c0.213-0.031,0.41-0.063,0.592-0.096
			c0.006,0.795,0.023,1.583,0.051,2.371c0.027,0.789,0.07,1.688,0.135,2.696l0.152,2.486c0.041,0.693,0.086,1.363,0.133,2.008
			c0.045,0.644,0.088,1.203,0.129,1.679c0.609-0.045,1.221-0.105,1.83-0.187c0.609-0.079,1.221-0.181,1.836-0.312
			c-0.014,0.137-0.02,0.26-0.023,0.371c-0.006,0.109,0,0.262,0.01,0.457c0.014,0.194,0.027,0.347,0.045,0.454
			c0.018,0.11,0.039,0.2,0.064,0.273c-0.291,0.008-0.646,0.021-1.07,0.047c-0.424,0.024-1.006,0.061-1.746,0.116
			c-0.652,0.044-1.186,0.084-1.594,0.112c-0.398,0.029-0.719,0.053-0.961,0.066c-0.24,0.019-0.424,0.036-0.549,0.05
			c-0.123,0.019-0.227,0.034-0.312,0.053c0.002-0.757-0.01-1.532-0.033-2.318c-0.025-0.788-0.068-1.687-0.129-2.698l-0.154-2.486
			C38.368,30.199,38.3,29.303,38.228,28.518"/>
		<path fill="#FFFFFF" d="M45.804,28.029c-0.051-0.786-0.111-1.574-0.186-2.365c0.184,0.013,0.383,0.021,0.6,0.027
			c0.215,0.005,0.457,0.004,0.727-0.01c0.27-0.013,0.51-0.03,0.725-0.053c0.215-0.027,0.414-0.054,0.594-0.084
			c-0.018,0.797-0.023,1.588-0.018,2.376s0.029,1.688,0.066,2.701l0.096,2.486c0.037,1.014,0.084,1.913,0.137,2.699
			c0.055,0.785,0.119,1.556,0.197,2.31c-0.184-0.019-0.385-0.021-0.6-0.014c-0.215,0.011-0.455,0.021-0.725,0.032
			c-0.27,0.013-0.51,0.023-0.727,0.031c-0.215,0.011-0.412,0.031-0.594,0.065c0.014-0.757,0.018-1.529,0.006-2.317
			c-0.01-0.788-0.031-1.688-0.07-2.699l-0.094-2.491C45.899,29.716,45.854,28.814,45.804,28.029"/>
		<path fill="#FFFFFF" d="M59.521,37.918c-0.258-0.027-0.502-0.034-0.734-0.032c-0.23,0.003-0.459,0.005-0.684,0.008
			s-0.453,0.006-0.686,0.008c-0.23,0.006-0.457,0.019-0.684,0.048c-0.18-0.595-0.361-1.204-0.551-1.821
			c-0.189-0.62-0.391-1.24-0.602-1.86c-0.342-0.008-0.686-0.014-1.029-0.016c-0.346-0.003-0.688-0.003-1.033,0.002
			c-0.277,0.006-0.557,0.014-0.836,0.021c-0.279,0.01-0.559,0.023-0.838,0.039c-0.209,0.626-0.4,1.248-0.576,1.874
			c-0.176,0.625-0.336,1.235-0.48,1.834c-0.129-0.023-0.256-0.034-0.379-0.034c-0.125,0-0.25,0.003-0.379,0.006
			c-0.129,0-0.258,0.002-0.385,0.005c-0.129,0-0.27,0.016-0.42,0.042c0.125-0.318,0.293-0.76,0.502-1.322
			c0.207-0.567,0.438-1.206,0.688-1.915c0.25-0.712,0.52-1.475,0.807-2.294c0.285-0.815,0.572-1.638,0.859-2.474
			c0.287-0.833,0.568-1.655,0.844-2.468c0.277-0.806,0.529-1.561,0.758-2.26c0.109,0.024,0.211,0.045,0.307,0.063
			c0.098,0.021,0.199,0.026,0.307,0.024c0.107-0.001,0.209-0.012,0.307-0.032c0.096-0.02,0.199-0.042,0.307-0.073
			c0.354,1.035,0.732,2.141,1.139,3.324c0.402,1.18,0.811,2.336,1.219,3.477c0.41,1.135,0.809,2.212,1.195,3.234
			S59.202,37.211,59.521,37.918 M53.722,28.844c-0.271,0.735-0.527,1.463-0.768,2.178c-0.24,0.721-0.473,1.454-0.701,2.199
			l2.949-0.036c-0.246-0.741-0.488-1.47-0.725-2.179C54.239,30.294,53.985,29.571,53.722,28.844"/>
		<path fill="#FFFFFF" d="M60.733,33.839c-0.131,1.364-0.262,2.726-0.393,4.089c-0.129-0.031-0.256-0.05-0.387-0.055
			c-0.127-0.003-0.252-0.008-0.371-0.014c-0.127-0.005-0.254-0.011-0.377-0.016c-0.123-0.003-0.248,0.005-0.379,0.026
			c0.412-2.084,0.787-4.16,1.125-6.224c0.336-2.064,0.652-4.161,0.949-6.288c0.117,0.026,0.227,0.048,0.328,0.066
			c0.1,0.021,0.211,0.034,0.328,0.039c0.098,0.003,0.199,0,0.307-0.013c0.109-0.014,0.223-0.026,0.34-0.04
			c0.268,0.742,0.545,1.498,0.836,2.266c0.293,0.77,0.584,1.534,0.877,2.297c0.291,0.765,0.584,1.511,0.877,2.241
			c0.291,0.733,0.572,1.43,0.844,2.087c0.686-1.343,1.377-2.747,2.064-4.218c0.688-1.469,1.346-2.934,1.975-4.388
			c0.266,0.062,0.496,0.099,0.689,0.106c0.182,0.006,0.408-0.011,0.68-0.052c0.072,1.053,0.148,2.186,0.232,3.397
			c0.086,1.214,0.166,2.398,0.246,3.558c0.08,1.156,0.164,2.237,0.248,3.243c0.084,1.004,0.166,1.812,0.242,2.428
			c-0.213-0.034-0.432-0.055-0.65-0.062c-0.219-0.011-0.438-0.019-0.652-0.026s-0.434-0.016-0.662-0.026
			c-0.225-0.008-0.449-0.006-0.676,0.014c-0.014-1.259-0.055-2.623-0.131-4.093c-0.076-1.469-0.152-2.925-0.234-4.37h-0.033
			c-0.66,1.417-1.307,2.807-1.943,4.177c-0.635,1.369-1.266,2.743-1.893,4.123c-0.055-0.016-0.104-0.026-0.152-0.034
			c-0.047-0.011-0.1-0.014-0.152-0.017c-0.057-0.002-0.104,0-0.154,0.003c-0.047,0.005-0.1,0.014-0.154,0.023
			c-0.533-1.388-1.066-2.777-1.594-4.168c-0.531-1.385-1.078-2.796-1.645-4.22h-0.031C61.04,31.096,60.864,32.476,60.733,33.839"/>
		<path fill="#FFFFFF" d="M76.864,27.119c-0.494-0.043-0.908,0.087-1.244,0.389c-0.334,0.303-0.518,0.671-0.549,1.112
			c-0.035,0.452,0.061,0.83,0.279,1.138s0.502,0.592,0.85,0.854s0.721,0.517,1.123,0.77c0.402,0.247,0.773,0.544,1.115,0.888
			c0.34,0.339,0.615,0.744,0.824,1.209c0.205,0.466,0.285,1.047,0.234,1.742c-0.047,0.61-0.189,1.156-0.43,1.646
			c-0.24,0.488-0.561,0.896-0.963,1.225c-0.4,0.328-0.867,0.562-1.398,0.707c-0.533,0.145-1.123,0.187-1.764,0.132
			c-0.578-0.048-1.09-0.164-1.535-0.345c-0.441-0.179-0.775-0.384-0.996-0.615c0.141-0.418,0.26-0.799,0.361-1.146
			c0.1-0.347,0.193-0.723,0.277-1.133l0.305,0.023c0.023,0.276,0.084,0.534,0.184,0.781c0.102,0.247,0.234,0.47,0.404,0.667
			c0.168,0.197,0.377,0.362,0.625,0.486c0.25,0.126,0.535,0.202,0.855,0.229c0.643,0.058,1.129-0.084,1.461-0.423
			s0.518-0.765,0.555-1.277c0.035-0.463-0.057-0.849-0.27-1.162c-0.217-0.312-0.488-0.596-0.828-0.851
			c-0.338-0.258-0.705-0.508-1.107-0.757c-0.402-0.25-0.771-0.542-1.102-0.875c-0.33-0.337-0.598-0.736-0.803-1.201
			c-0.203-0.465-0.275-1.044-0.227-1.737c0.049-0.633,0.188-1.185,0.422-1.655c0.236-0.468,0.531-0.854,0.889-1.154
			c0.355-0.299,0.758-0.516,1.203-0.648c0.449-0.135,0.91-0.179,1.393-0.137c0.58,0.05,1.08,0.172,1.502,0.365
			c0.422,0.194,0.779,0.444,1.066,0.749c-0.115,0.271-0.221,0.536-0.309,0.791s-0.199,0.578-0.336,0.972l-0.242-0.021
			C78.425,27.782,77.815,27.199,76.864,27.119"/>
		<path fill="#FFFFFF" d="M80.979,30.342c0.383-0.752,0.875-1.386,1.475-1.911c0.602-0.522,1.299-0.906,2.096-1.146
			s1.662-0.297,2.588-0.176c0.855,0.112,1.635,0.349,2.344,0.715c0.707,0.365,1.303,0.849,1.785,1.455
			c0.486,0.604,0.838,1.338,1.062,2.197c0.221,0.859,0.27,1.837,0.148,2.93c-0.102,0.907-0.352,1.735-0.746,2.483
			c-0.391,0.749-0.891,1.383-1.496,1.9c-0.605,0.515-1.301,0.891-2.086,1.119c-0.785,0.229-1.625,0.284-2.525,0.165
			c-0.842-0.112-1.623-0.333-2.336-0.669c-0.717-0.331-1.318-0.8-1.811-1.401c-0.49-0.6-0.852-1.329-1.076-2.188
			c-0.229-0.862-0.277-1.863-0.148-3.004C80.353,31.915,80.595,31.09,80.979,30.342 M89.876,31.526
			c-0.1-0.646-0.277-1.209-0.533-1.688c-0.256-0.476-0.586-0.858-0.992-1.153c-0.404-0.292-0.863-0.473-1.377-0.541
			c-0.545-0.071-1.051,0.013-1.516,0.252c-0.467,0.242-0.877,0.597-1.234,1.064c-0.355,0.471-0.65,1.038-0.883,1.7
			c-0.234,0.665-0.391,1.385-0.48,2.16c-0.111,0.97-0.111,1.8-0.004,2.491c0.105,0.688,0.291,1.256,0.555,1.703
			c0.264,0.446,0.59,0.788,0.975,1.021c0.385,0.234,0.801,0.382,1.25,0.441c0.48,0.063,0.953,0.011,1.416-0.162
			c0.465-0.171,0.889-0.476,1.266-0.904c0.379-0.429,0.709-0.996,0.988-1.695c0.279-0.701,0.477-1.547,0.586-2.541
			C89.981,32.888,89.978,32.17,89.876,31.526"/>
		<path fill="#265BA6" d="M79.558,43.644c0,1.579-1.279,2.859-2.857,2.859H34.243c-1.578,0-2.857-1.28-2.857-2.859
			c0-1.577,1.279-2.856,2.857-2.856H76.7C78.278,40.787,79.558,42.066,79.558,43.644"/>
		<polygon fill="#FFFFFF" points="35.747,42.498 36.388,42.498 36.388,44.537 38.245,44.537 38.245,44.941 35.747,44.941 		"/>
		<path fill="#FFFFFF" d="M44.571,42.498h0.643v1.379c0,0.34,0.018,0.752,0.854,0.752c0.838,0,0.855-0.412,0.855-0.752v-1.379h0.641
			v1.393c0,0.404-0.016,1.122-1.496,1.122c-1.479,0-1.496-0.718-1.496-1.122V42.498z"/>
		<path fill="#FFFFFF" d="M54.161,42.498h1.934c0.779,0,1.033,0.283,1.033,0.662c0,0.32-0.219,0.518-0.506,0.591v0.006
			c0.363,0.062,0.445,0.315,0.445,0.662c0,0.115,0.004,0.389,0.129,0.522h-0.695c-0.047-0.068-0.078-0.191-0.078-0.37
			c0-0.347-0.059-0.594-0.529-0.594h-1.092v0.964h-0.641V42.498z M55.911,43.591c0.355,0,0.549-0.084,0.549-0.357
			c0-0.255-0.211-0.354-0.549-0.354h-1.109v0.712H55.911z"/>
		<polygon fill="#FFFFFF" points="63.646,42.498 66.3,42.498 66.3,42.879 64.286,42.879 64.286,43.496 66.22,43.496 66.22,43.88 
			64.286,43.88 64.286,44.559 66.335,44.559 66.335,44.941 63.646,44.941 		"/>
		<path fill="#FFFFFF" d="M73.999,42.43c0.473,0,1.412,0.068,1.496,0.775H74.8c-0.021-0.188-0.236-0.393-0.77-0.393
			c-0.428,0-0.711,0.105-0.711,0.334c0,0.576,2.277,0.026,2.277,1.07c0,0.631-0.818,0.796-1.469,0.796
			c-1.102,0-1.543-0.347-1.551-0.859h0.695c0.016,0.32,0.352,0.476,0.877,0.476c0.391,0,0.754-0.095,0.754-0.36
			c0-0.606-2.252-0.081-2.252-1.082C72.651,42.64,73.255,42.43,73.999,42.43"/>
		<path fill="#FFFFFF" d="M94.446,29.939c0.072-0.57,0.135-1.075,0.197-1.507c0.283,0.104,0.521,0.174,0.699,0.208
			c0.178,0.035,0.42,0.053,0.725,0.056c0.92,1.669,1.83,3.313,2.73,4.93c0.898,1.622,1.824,3.267,2.775,4.94l0.25-1.569l0.279-1.749
			c0.096-0.589,0.186-1.173,0.271-1.743c0.086-0.572,0.164-1.101,0.236-1.582c0.07-0.48,0.127-0.901,0.164-1.251
			c0.043-0.352,0.061-0.591,0.059-0.714c0.287,0.104,0.521,0.176,0.701,0.207c0.178,0.034,0.42,0.053,0.723,0.058
			c-0.227,1.086-0.424,2.065-0.598,2.946c-0.172,0.875-0.33,1.705-0.477,2.483c-0.145,0.777-0.281,1.551-0.41,2.312
			c-0.123,0.762-0.258,1.576-0.398,2.443l-0.346,2.166c-0.205-0.063-0.42-0.118-0.641-0.16c-0.232-0.042-0.441-0.068-0.627-0.076
			c-1.715-3.293-3.561-6.628-5.537-10.008c-0.064,0.351-0.131,0.694-0.191,1.044c-0.062,0.347-0.121,0.701-0.178,1.062l-0.336,2.095
			c-0.115,0.723-0.211,1.335-0.287,1.842c-0.074,0.504-0.137,0.933-0.182,1.285s-0.082,0.636-0.107,0.861
			c-0.027,0.227-0.043,0.405-0.055,0.539c-0.123-0.05-0.244-0.087-0.375-0.11c-0.125-0.021-0.244-0.044-0.361-0.065
			c-0.242-0.045-0.486-0.079-0.736-0.098c0.039-0.095,0.119-0.431,0.244-1.015c0.125-0.583,0.275-1.295,0.447-2.136
			c0.174-0.844,0.352-1.758,0.537-2.744c0.186-0.987,0.352-1.938,0.496-2.854C94.272,31.206,94.376,30.506,94.446,29.939"/>
		<polygon fill="#FFFFFF" points="104.7,30.294 105.921,30.521 105.878,30.746 105.399,30.659 105.161,31.939 104.897,31.889 
			105.136,30.609 104.659,30.521 		"/>
		<polygon fill="#FFFFFF" points="106.05,30.543 106.421,30.614 106.618,31.871 106.622,31.873 107.247,30.768 107.616,30.836 
			107.333,32.341 107.081,32.296 107.298,31.132 107.294,31.132 106.659,32.218 106.44,32.176 106.241,30.938 106.237,30.936 
			106.021,32.097 105.767,32.052 		"/>
	</g>
	
		<use xlink:href="#Hamburger_Menu"  width="26.256" height="24.421" id="XMLID_16_" x="-14.559" y="-10.753" transform="matrix(1.3748 0 0 -1.3748 -22.9238 38.2402)" display="inline" overflow="visible"/>
</g>
<g id="Layer_1">
	<path fill="#FFFFFF" d="M8.579,45.544c31.858-6.344,64.127-6.344,95.984,0c1.18-5.689,2.357-11.378,3.537-17.071
		c-34.187-6.824-68.872-6.825-103.058,0C6.222,34.166,7.4,39.854,8.579,45.544z"/>
	<path fill="#026CB6" d="M108.438,26.78c-34.418-6.872-69.318-6.872-103.732,0L3,27.122l4.236,20.451l1.681-0.335
		c31.622-6.298,63.687-6.298,95.31,0l1.68,0.335l4.235-20.451L108.438,26.78 M106.056,29.836
		c-0.462,2.225-2.397,11.573-2.836,13.692c-30.963-5.947-62.333-5.947-93.297,0c-0.499-2.412-2.322-11.221-2.835-13.692
		C39.932,23.498,73.209,23.498,106.056,29.836z"/>
	<path d="M8.579,45.544c31.858-6.344,64.127-6.344,95.984,0c1.18-5.689,2.357-11.378,3.537-17.071
		c-34.187-6.824-68.872-6.825-103.058,0C6.222,34.166,7.4,39.854,8.579,45.544z"/>
	<path fill="#FFFFFF" d="M108.178,28.083c-34.244-6.841-68.971-6.841-103.212,0l-0.392,0.08L8.27,46.014l0.387-0.077
		c31.793-6.33,64.035-6.33,95.829,0l0.389,0.077l3.697-17.851L108.178,28.083 M107.627,28.787
		c-0.148,0.721-3.228,15.596-3.373,16.293c-31.643-6.25-63.723-6.25-95.365,0C8.74,44.363,5.667,29.527,5.516,28.787
		C39.396,22.074,73.746,22.074,107.627,28.787z"/>
	<path fill="#026CB6" d="M33.964,43.209c0,1.555,1.258,2.812,2.81,2.812h41.768c1.554,0,2.813-1.258,2.813-2.812l0,0
		c0-1.553-1.26-2.812-2.813-2.812H36.774C35.222,40.397,33.964,41.656,33.964,43.209L33.964,43.209z"/>
	<path fill="#026CB6" d="M36.774,40.181c-1.669,0-3.027,1.358-3.027,3.028c0,1.671,1.358,3.028,3.027,3.028h41.768
		c1.671,0,3.029-1.357,3.029-3.028c0-1.67-1.358-3.028-3.029-3.028H36.774z M78.542,45.804H36.774c-1.43,0-2.593-1.164-2.593-2.595
		c0-1.432,1.163-2.595,2.593-2.595h41.768c1.432,0,2.597,1.163,2.597,2.595C81.139,44.64,79.974,45.804,78.542,45.804z"/>
	<g>
		<path fill="#FFFFFF" d="M17.288,34.472c-0.125,0.796-0.25,1.608-0.375,2.432c-0.126,0.826-0.245,1.638-0.358,2.439
			c-0.115,0.797-0.21,1.511-0.286,2.132c-0.243,0.017-0.511,0.055-0.803,0.104c-0.135,0.022-0.271,0.048-0.407,0.07
			c-0.135,0.025-0.269,0.061-0.4,0.11c-0.189-0.465-0.436-1.063-0.742-1.802c-0.305-0.739-0.632-1.519-0.983-2.344
			c-0.351-0.829-0.708-1.661-1.074-2.503c-0.363-0.843-0.701-1.613-1.011-2.314c-0.311-0.696-0.573-1.293-0.787-1.785
			c-0.214-0.49-0.351-0.792-0.411-0.903c0.232-0.022,0.459-0.041,0.68-0.068c0.221-0.024,0.437-0.053,0.645-0.091
			c0.208-0.039,0.42-0.084,0.63-0.136c0.211-0.052,0.419-0.106,0.625-0.166c0.271,0.731,0.557,1.481,0.857,2.25
			c0.3,0.766,0.6,1.523,0.902,2.267c0.299,0.743,0.592,1.463,0.875,2.163c0.283,0.696,0.545,1.341,0.786,1.932l0.031-0.006
			c0.116-0.785,0.239-1.639,0.371-2.558c0.134-0.92,0.262-1.819,0.384-2.7c0.123-0.878,0.234-1.689,0.335-2.431
			c0.101-0.743,0.177-1.332,0.229-1.766c0.138-0.005,0.272-0.011,0.399-0.019s0.259-0.022,0.395-0.045
			c0.135-0.026,0.264-0.056,0.387-0.095c0.123-0.036,0.251-0.076,0.383-0.123c0.082,0.254,0.213,0.589,0.395,1.01
			c0.182,0.417,0.388,0.879,0.621,1.386c0.232,0.504,0.48,1.04,0.743,1.601s0.524,1.118,0.785,1.667
			c0.262,0.551,0.503,1.074,0.729,1.567c0.226,0.496,0.416,0.93,0.568,1.307l0.032-0.004c0.095-0.784,0.19-1.647,0.286-2.59
			c0.098-0.944,0.192-1.854,0.283-2.734s0.17-1.687,0.242-2.417c0.07-0.732,0.115-1.282,0.134-1.651
			c0.269,0.002,0.491-0.007,0.667-0.042c0.116-0.021,0.231-0.048,0.349-0.084c0.119-0.036,0.238-0.078,0.359-0.119
			c-0.039,0.241-0.097,0.627-0.176,1.165c-0.079,0.537-0.169,1.171-0.272,1.902c-0.103,0.73-0.21,1.525-0.326,2.386
			c-0.114,0.86-0.228,1.727-0.342,2.599c-0.114,0.871-0.222,1.726-0.325,2.559c-0.103,0.834-0.189,1.581-0.26,2.239
			c-0.244,0.017-0.511,0.052-0.803,0.104c-0.136,0.024-0.271,0.05-0.407,0.073c-0.136,0.023-0.269,0.059-0.401,0.109
			c-0.553-1.387-1.151-2.756-1.792-4.108c-0.64-1.354-1.309-2.728-2.004-4.128l-0.029,0.006
			C17.523,32.962,17.412,33.678,17.288,34.472z"/>
		<path fill="#FFFFFF" d="M26.346,29.677c-0.108-0.768-0.227-1.535-0.355-2.302c0.183-0.004,0.376-0.013,0.589-0.026
			c0.211-0.011,0.449-0.037,0.712-0.07c0.263-0.038,0.497-0.076,0.705-0.117c0.208-0.043,0.402-0.087,0.577-0.13
			c0.041,0.781,0.094,1.558,0.158,2.329c0.063,0.772,0.151,1.652,0.264,2.643l0.275,2.432c0.113,0.989,0.225,1.868,0.334,2.632
			c0.111,0.766,0.232,1.516,0.361,2.25c-0.18-0.004-0.375,0.012-0.585,0.036c-0.21,0.03-0.448,0.061-0.709,0.094
			c-0.262,0.039-0.5,0.07-0.71,0.094c-0.208,0.031-0.402,0.068-0.578,0.118c-0.042-0.744-0.098-1.503-0.165-2.275
			s-0.156-1.649-0.269-2.641l-0.275-2.432C26.563,31.321,26.454,30.441,26.346,29.677z"/>
		<path fill="#FFFFFF" d="M31.015,29.069c-0.092-0.767-0.198-1.537-0.315-2.308c0.181,0,0.378-0.001,0.589-0.011
			c0.212-0.008,0.45-0.022,0.714-0.053c0.262-0.026,0.499-0.059,0.709-0.097c0.209-0.037,0.401-0.073,0.58-0.112
			c0.029,0.781,0.066,1.557,0.116,2.327c0.048,0.777,0.118,1.66,0.208,2.651l0.218,2.438c0.062,0.679,0.124,1.337,0.188,1.97
			c0.062,0.635,0.121,1.185,0.174,1.649c0.6-0.066,1.197-0.146,1.793-0.244c0.597-0.098,1.195-0.22,1.798-0.365
			c-0.008,0.133-0.015,0.255-0.015,0.363c0,0.107,0.008,0.258,0.026,0.45c0.015,0.189,0.035,0.338,0.055,0.445
			c0.02,0.105,0.043,0.195,0.071,0.264c-0.285,0.016-0.636,0.045-1.052,0.083c-0.416,0.035-0.985,0.094-1.712,0.17
			c-0.642,0.066-1.163,0.12-1.565,0.164c-0.39,0.039-0.704,0.072-0.941,0.097c-0.238,0.027-0.418,0.049-0.537,0.068
			c-0.122,0.017-0.224,0.041-0.306,0.061c-0.021-0.746-0.053-1.506-0.1-2.277c-0.045-0.774-0.113-1.659-0.202-2.651l-0.221-2.439
			C31.199,30.719,31.107,29.839,31.015,29.069z"/>
		<path fill="#FFFFFF" d="M38.427,28.331c-0.071-0.771-0.155-1.545-0.248-2.321c0.18,0.005,0.376,0.008,0.588,0.01
			c0.214,0,0.451-0.007,0.715-0.026c0.263-0.021,0.501-0.042,0.71-0.074c0.211-0.03,0.405-0.063,0.583-0.096
			c0.007,0.782,0.023,1.559,0.051,2.333c0.027,0.775,0.07,1.658,0.131,2.655l0.151,2.442c0.041,0.683,0.084,1.341,0.13,1.976
			c0.044,0.638,0.086,1.188,0.127,1.65c0.601-0.044,1.202-0.102,1.801-0.182c0.598-0.078,1.2-0.18,1.807-0.306
			c-0.013,0.134-0.02,0.252-0.025,0.363c-0.004,0.107,0,0.26,0.012,0.45c0.013,0.192,0.027,0.34,0.043,0.448
			c0.016,0.106,0.04,0.196,0.065,0.265c-0.285,0.008-0.637,0.025-1.055,0.045c-0.417,0.027-0.989,0.062-1.716,0.118
			c-0.644,0.043-1.167,0.082-1.569,0.108c-0.392,0.03-0.707,0.054-0.944,0.07c-0.238,0.015-0.419,0.032-0.54,0.049
			c-0.122,0.014-0.225,0.03-0.308,0.048c0-0.743-0.011-1.504-0.034-2.28c-0.023-0.774-0.065-1.658-0.126-2.654l-0.149-2.445
			C38.562,29.985,38.499,29.101,38.427,28.331z"/>
		<path fill="#FFFFFF" d="M45.88,27.848c-0.051-0.773-0.111-1.55-0.182-2.328c0.181,0.013,0.376,0.021,0.588,0.028
			c0.212,0.003,0.451,0,0.716-0.01c0.264-0.011,0.5-0.029,0.713-0.054c0.21-0.025,0.405-0.051,0.584-0.08
			c-0.018,0.782-0.025,1.56-0.018,2.335c0.004,0.775,0.027,1.663,0.065,2.658l0.092,2.445c0.037,1,0.082,1.883,0.137,2.658
			c0.053,0.772,0.116,1.529,0.192,2.271c-0.181-0.019-0.376-0.022-0.588-0.011c-0.212,0.008-0.449,0.021-0.714,0.031
			c-0.264,0.011-0.501,0.021-0.713,0.034c-0.212,0.006-0.406,0.027-0.585,0.062c0.013-0.744,0.016-1.508,0.006-2.281
			c-0.008-0.774-0.031-1.66-0.068-2.657l-0.094-2.447C45.974,29.506,45.93,28.619,45.88,27.848z"/>
		<path fill="#FFFFFF" d="M59.375,37.572c-0.253-0.024-0.495-0.032-0.722-0.03c-0.226,0.004-0.453,0.005-0.674,0.009
			c-0.221,0.005-0.447,0.007-0.672,0.011c-0.23,0.005-0.453,0.017-0.674,0.044c-0.175-0.582-0.355-1.18-0.542-1.791
			c-0.186-0.608-0.382-1.22-0.589-1.828c-0.337-0.01-0.676-0.014-1.015-0.016c-0.339-0.003-0.677-0.002-1.013,0.002
			c-0.275,0.003-0.55,0.009-0.826,0.021c-0.273,0.007-0.549,0.021-0.823,0.039c-0.204,0.615-0.393,1.228-0.568,1.841
			c-0.173,0.616-0.33,1.215-0.473,1.808c-0.126-0.024-0.25-0.036-0.371-0.035s-0.247,0.002-0.374,0.005
			c-0.126,0-0.253,0.004-0.379,0.006c-0.128,0-0.265,0.014-0.412,0.041c0.124-0.313,0.289-0.749,0.495-1.305
			c0.206-0.553,0.432-1.18,0.677-1.882c0.248-0.698,0.511-1.451,0.792-2.253c0.282-0.802,0.563-1.613,0.846-2.434
			c0.281-0.82,0.559-1.629,0.832-2.426c0.271-0.799,0.52-1.538,0.744-2.226c0.107,0.022,0.207,0.043,0.302,0.062
			c0.097,0.019,0.194,0.027,0.301,0.025c0.105-0.002,0.206-0.011,0.301-0.031c0.094-0.019,0.197-0.044,0.301-0.07
			c0.348,1.017,0.721,2.103,1.12,3.266c0.397,1.159,0.801,2.3,1.201,3.418c0.403,1.119,0.793,2.179,1.176,3.186
			C58.713,36.032,59.061,36.879,59.375,37.572 M53.667,28.646c-0.267,0.726-0.517,1.442-0.752,2.146
			c-0.235,0.709-0.467,1.426-0.691,2.162l2.899-0.034c-0.24-0.729-0.478-1.445-0.711-2.143
			C54.176,30.076,53.93,29.365,53.667,28.646z"/>
		<path fill="#FFFFFF" d="M60.568,33.562c-0.13,1.342-0.259,2.682-0.387,4.023c-0.127-0.029-0.252-0.049-0.38-0.052
			c-0.127-0.005-0.248-0.011-0.364-0.014c-0.127-0.006-0.25-0.011-0.371-0.017c-0.122-0.004-0.248,0.004-0.376,0.026
			c0.406-2.053,0.774-4.096,1.106-6.124c0.333-2.033,0.643-4.092,0.934-6.186c0.116,0.026,0.225,0.046,0.324,0.066
			c0.099,0.021,0.207,0.031,0.324,0.036c0.095,0.004,0.195,0,0.301-0.01c0.106-0.012,0.215-0.026,0.334-0.041
			c0.261,0.733,0.535,1.471,0.821,2.229c0.288,0.757,0.577,1.511,0.863,2.26c0.287,0.75,0.574,1.485,0.864,2.204
			c0.288,0.721,0.562,1.406,0.827,2.054c0.68-1.32,1.356-2.704,2.033-4.151c0.678-1.444,1.324-2.883,1.943-4.315
			c0.263,0.063,0.488,0.097,0.678,0.106c0.18,0.005,0.401-0.012,0.668-0.052c0.073,1.035,0.147,2.15,0.229,3.343
			s0.165,2.36,0.243,3.5c0.079,1.136,0.158,2.201,0.242,3.188c0.084,0.989,0.164,1.786,0.239,2.389
			c-0.209-0.032-0.424-0.055-0.641-0.063c-0.216-0.006-0.431-0.014-0.64-0.021c-0.212-0.011-0.43-0.021-0.652-0.027
			c-0.22-0.01-0.443-0.005-0.666,0.011c-0.012-1.237-0.054-2.578-0.129-4.024c-0.074-1.446-0.149-2.877-0.229-4.299l-0.032-0.001
			c-0.647,1.394-1.286,2.764-1.913,4.11c-0.624,1.344-1.245,2.698-1.861,4.054c-0.051-0.015-0.103-0.025-0.149-0.033
			c-0.047-0.008-0.098-0.012-0.151-0.015c-0.053-0.004-0.103-0.002-0.149,0.005c-0.049,0.004-0.1,0.012-0.151,0.021
			c-0.526-1.364-1.05-2.732-1.57-4.099c-0.522-1.365-1.061-2.75-1.616-4.151l-0.033-0.002C60.867,30.863,60.694,32.22,60.568,33.562
			z"/>
		<path fill="#FFFFFF" d="M76.434,26.952c-0.482-0.041-0.891,0.086-1.22,0.384c-0.33,0.296-0.512,0.662-0.542,1.092
			c-0.033,0.445,0.058,0.817,0.274,1.12c0.216,0.303,0.495,0.583,0.837,0.84c0.341,0.259,0.709,0.512,1.106,0.757
			c0.393,0.246,0.761,0.537,1.094,0.871c0.337,0.339,0.604,0.736,0.81,1.192c0.204,0.461,0.282,1.031,0.232,1.715
			c-0.044,0.599-0.185,1.141-0.423,1.615c-0.235,0.485-0.552,0.886-0.947,1.207c-0.392,0.321-0.853,0.555-1.377,0.695
			c-0.523,0.142-1.102,0.185-1.734,0.132c-0.568-0.049-1.07-0.165-1.509-0.34c-0.435-0.177-0.763-0.379-0.98-0.603
			c0.139-0.413,0.256-0.789,0.354-1.13c0.099-0.342,0.191-0.714,0.273-1.115l0.301,0.027c0.022,0.265,0.083,0.521,0.181,0.766
			c0.099,0.244,0.231,0.462,0.396,0.655c0.167,0.194,0.373,0.354,0.618,0.479c0.244,0.122,0.523,0.197,0.841,0.224
			c0.632,0.057,1.109-0.084,1.436-0.416c0.327-0.336,0.51-0.752,0.547-1.253c0.034-0.455-0.056-0.838-0.267-1.146
			c-0.211-0.306-0.481-0.587-0.814-0.837c-0.331-0.251-0.694-0.501-1.09-0.745c-0.395-0.246-0.756-0.533-1.083-0.863
			c-0.325-0.327-0.587-0.721-0.787-1.179c-0.201-0.458-0.275-1.026-0.227-1.708c0.048-0.626,0.188-1.167,0.416-1.629
			c0.231-0.461,0.523-0.841,0.874-1.136c0.353-0.296,0.747-0.509,1.187-0.639c0.438-0.131,0.895-0.175,1.368-0.135
			c0.57,0.049,1.061,0.167,1.477,0.361c0.417,0.189,0.766,0.436,1.05,0.735c-0.113,0.268-0.216,0.524-0.302,0.777
			c-0.089,0.251-0.199,0.57-0.333,0.958l-0.236-0.019C77.971,27.603,77.371,27.034,76.434,26.952z"/>
		<path fill="#FFFFFF" d="M80.483,30.122c0.376-0.737,0.859-1.363,1.451-1.879c0.591-0.516,1.278-0.893,2.061-1.126
			c0.785-0.236,1.634-0.292,2.549-0.174c0.841,0.111,1.607,0.345,2.305,0.705c0.694,0.358,1.28,0.832,1.756,1.43
			c0.477,0.599,0.825,1.317,1.045,2.164c0.218,0.844,0.268,1.805,0.146,2.879c-0.1,0.894-0.346,1.708-0.731,2.448
			c-0.387,0.736-0.879,1.356-1.474,1.867c-0.597,0.509-1.281,0.872-2.053,1.101c-0.771,0.226-1.6,0.279-2.482,0.161
			c-0.83-0.11-1.596-0.327-2.301-0.656c-0.704-0.327-1.297-0.786-1.778-1.381c-0.483-0.587-0.837-1.306-1.062-2.154
			c-0.226-0.846-0.273-1.83-0.146-2.953C79.867,31.67,80.105,30.862,80.483,30.122 M89.236,31.288
			c-0.098-0.639-0.274-1.188-0.525-1.658c-0.249-0.472-0.574-0.847-0.975-1.135c-0.398-0.288-0.852-0.468-1.357-0.534
			c-0.532-0.072-1.031,0.013-1.489,0.249c-0.458,0.235-0.863,0.584-1.216,1.046c-0.349,0.462-0.639,1.018-0.867,1.671
			c-0.229,0.656-0.386,1.362-0.472,2.124c-0.106,0.955-0.109,1.771-0.005,2.45c0.105,0.68,0.286,1.238,0.545,1.677
			c0.261,0.438,0.58,0.776,0.959,1.007c0.381,0.231,0.789,0.374,1.23,0.436c0.473,0.061,0.938,0.006,1.395-0.162
			c0.456-0.17,0.87-0.466,1.244-0.889c0.372-0.423,0.697-0.979,0.973-1.667c0.273-0.689,0.467-1.522,0.579-2.502
			C89.34,32.628,89.336,31.922,89.236,31.288z"/>
		<path fill="#FFFFFF" d="M93.73,29.726c0.071-0.561,0.137-1.054,0.194-1.483c0.283,0.104,0.515,0.174,0.688,0.207
			c0.179,0.03,0.414,0.051,0.715,0.055c0.905,1.643,1.799,3.258,2.685,4.853c0.887,1.59,1.796,3.21,2.731,4.858l0.246-1.544
			l0.275-1.723c0.093-0.581,0.18-1.152,0.264-1.713c0.087-0.565,0.164-1.083,0.234-1.558c0.071-0.474,0.123-0.887,0.162-1.23
			c0.039-0.347,0.059-0.583,0.057-0.704c0.282,0.105,0.512,0.174,0.689,0.205c0.177,0.035,0.413,0.052,0.712,0.056
			c-0.224,1.068-0.419,2.034-0.587,2.897c-0.169,0.864-0.326,1.677-0.469,2.446c-0.145,0.765-0.279,1.525-0.404,2.271
			c-0.124,0.754-0.256,1.553-0.392,2.407l-0.34,2.129c-0.202-0.065-0.414-0.115-0.631-0.156c-0.23-0.043-0.436-0.068-0.616-0.074
			c-1.688-3.24-3.504-6.524-5.445-9.847c-0.067,0.343-0.133,0.683-0.191,1.024c-0.061,0.345-0.119,0.693-0.177,1.047l-0.329,2.062
			c-0.112,0.707-0.206,1.312-0.281,1.809c-0.073,0.499-0.135,0.922-0.179,1.266s-0.08,0.627-0.105,0.849
			c-0.024,0.222-0.045,0.396-0.055,0.53c-0.122-0.048-0.242-0.087-0.366-0.107c-0.126-0.024-0.245-0.046-0.359-0.067
			c-0.237-0.045-0.478-0.076-0.722-0.096c0.035-0.09,0.115-0.423,0.239-0.998c0.124-0.574,0.271-1.275,0.44-2.104
			c0.169-0.825,0.346-1.728,0.528-2.698c0.181-0.97,0.343-1.907,0.488-2.805C93.561,30.972,93.661,30.286,93.73,29.726z"/>
	</g>
	<g>
		<polygon fill="#FFFFFF" points="38.161,42.08 38.794,42.08 38.794,44.088 40.62,44.088 40.62,44.486 38.161,44.486 		"/>
		<path fill="#FFFFFF" d="M46.844,42.08h0.632v1.358c0,0.333,0.017,0.737,0.838,0.737c0.826,0,0.843-0.404,0.843-0.737V42.08h0.633
			v1.368c0,0.398-0.018,1.106-1.476,1.106c-1.453,0-1.47-0.708-1.47-1.106V42.08z"/>
		<polygon fill="#FFFFFF" points="65.607,42.08 68.219,42.08 68.219,42.458 66.238,42.458 66.238,43.064 68.141,43.064 
			68.141,43.442 66.238,43.442 66.238,44.11 68.254,44.11 68.254,44.486 65.607,44.486 		"/>
		<path fill="#FFFFFF" d="M75.793,42.012c0.465,0,1.391,0.068,1.473,0.765H76.58c-0.021-0.185-0.229-0.387-0.757-0.387
			c-0.423,0-0.699,0.106-0.699,0.331c0,0.565,2.242,0.025,2.242,1.051c0,0.62-0.807,0.783-1.446,0.783
			c-1.082,0-1.517-0.341-1.526-0.845h0.685c0.018,0.316,0.344,0.466,0.863,0.466c0.383,0,0.741-0.092,0.741-0.353
			c0-0.597-2.217-0.078-2.217-1.065C74.466,42.221,75.062,42.012,75.793,42.012z"/>
		<path fill="#FFFFFF" d="M57.999,43.159c0.351,0,0.54-0.083,0.54-0.353c0-0.252-0.205-0.349-0.54-0.349h-1.09v0.701H57.999z
			 M56.275,42.08h1.905c0.766,0,1.015,0.278,1.015,0.653c0,0.313-0.214,0.51-0.499,0.582v0.005c0.361,0.062,0.439,0.312,0.439,0.649
			c0,0.114,0.006,0.385,0.126,0.517H58.58c-0.046-0.069-0.074-0.188-0.074-0.365c0-0.342-0.06-0.584-0.524-0.584h-1.074v0.949
			h-0.633V42.08"/>
	</g>
</g>
</svg>
