<?xml version="1.0" encoding="utf-8"?>
<!-- Generator: Adobe Illustrator 16.0.4, SVG Export Plug-In . SVG Version: 6.00 Build 0)  -->
<!DOCTYPE svg PUBLIC "-//W3C//DTD SVG 1.1//EN" "http://www.w3.org/Graphics/SVG/1.1/DTD/svg11.dtd">
<svg version="1.1" xmlns="http://www.w3.org/2000/svg" xmlns:xlink="http://www.w3.org/1999/xlink" x="0px" y="0px" width="132px"
	 height="70px" viewBox="0 0 132 70" enable-background="new 0 0 132 70" xml:space="preserve">
<g id="Layer_2">
</g>
<g id="Layer_1">
	<path d="M119.054,30.864h-0.229v-1.07h0.399c0.277,0,0.44,0.079,0.44,0.324c0,0.197-0.115,0.269-0.259,0.278l0.273,0.468h-0.271
		l-0.247-0.45h-0.107V30.864z M119.256,30.234c0.103,0,0.163-0.022,0.163-0.14c0-0.111-0.118-0.118-0.205-0.118h-0.16v0.258H119.256
		z M119.22,31.324c-0.53,0-0.999-0.365-0.999-0.994s0.469-0.994,0.999-0.994c0.525,0,0.996,0.366,0.996,0.994
		S119.745,31.324,119.22,31.324z M119.22,29.568c-0.396,0-0.713,0.305-0.713,0.763s0.317,0.765,0.713,0.763v0.002
		c0.383,0,0.71-0.308,0.71-0.765S119.603,29.568,119.22,29.568z"/>
	<path fill="#F58220" d="M82.966,32.653c-0.849-0.113-1.134-0.967-1.831-0.97c-0.011,0.003-3.552,0.003-3.56,0
		c0,0-0.449,0.017-0.448,0.212l0.01,1.103c0,0-0.185,0.509,0.488,0.507l1.986,0.001c0.649-0.211,0.963-0.897,1.893-0.916
		c0.346-0.03,0.582,0.039,0.864,0.151c0.804,0.45,0.223,0.943,0.474,1.159c0.245-0.374,0.708-0.871,1.074-1.235
		C83.345,32.746,82.966,32.653,82.966,32.653z M70.21,39.381c0.549-0.233,1.583-0.198,1.712-0.695l0.001-0.479v-6.354
		c-0.003-0.318-1.371-0.252-1.916-0.516c-0.414-0.182-0.421-0.557-0.155-0.789c0.222-0.316,0.854-0.417,1.877-0.417
		c3.946-0.001,11.544,0,11.531,0c1.557,0.1,1.173,0.855,1.535,1.291l0.198,0.496h0.122c2.396-1.29,5.534-1.902,9.154-1.724
		c1.679,0.114,3.351,0.471,4.743,0.929l-0.017-0.02c-0.322-0.252-0.177-0.578,0.147-0.75c0.285-0.171,0.689-0.221,1.095-0.251
		c2.245,0.075,4.571,0.068,6.796,0.021c0.567,0.021,1.233,0.103,1.434,0.417c0.262,0.375-0.207,0.677-0.654,0.95l0.121,0.202
		l1.568,1.217h0.062l1.586-1.242c0.088-0.197-0.543-0.224-0.868-0.386c-0.384-0.229-0.461-0.436-0.278-0.698
		c0.164-0.253,0.722-0.396,1.207-0.456c1.976,0.077,4.048,0.077,5.393,0.002c0.546,0.021,0.987,0.254,1.129,0.497
		c0.098,0.334-0.248,0.637-0.815,0.817c-0.75,0.212-1.843,0.129-2.27,0.624l-3.117,2.483l0.02,0.002l4.592,3.768
		c0.522,0.568,1.755,0.803,2.846,0.955c0.385,0.112,0.586,0.305,0.665,0.507c0.039,0.202-0.044,0.425-0.327,0.577
		c-0.284,0.141-0.323,0.188-0.973,0.221c-2.286-0.096-4.61-0.098-7.06-0.002c-0.889-0.031-1.444-0.07-1.495-0.452
		c-0.075-0.466,1.618-0.807,1.069-1.108l0,0l-2.404-1.914l-0.12-0.041c-0.854,0.646-1.708,1.282-2.481,1.949
		c-0.042,0.222,0.525,0.264,0.726,0.444c0.24,0.163,0.423,0.355,0.319,0.577c-0.042,0.243-0.487,0.426-0.893,0.526l-0.998,0.043
		c-1.261-0.106-3.107-0.056-4.656-0.016c-0.385-0.071-0.899-0.13-1.101-0.332c-0.201-0.185-0.22-0.415-0.179-0.628l-0.06-0.029
		c-2.88,0.976-7.19,1.281-10.442,0.506c-2.505-0.59-4.883-1.817-5.521-3.154c-0.321-0.375-0.358-0.82-0.518-1.234l-0.101-0.041
		c-0.366,0.142-0.532,0.208-1.164,0.171c-0.869-0.063-1.012-0.748-1.624-0.751c0.006,0.003-2.271,0.003-2.266,0.006
		c-0.183,0.029-0.264,0.131-0.265,0.222l0.014,3.554c0.499,0.56,1.802,0.323,2.102,0.79c0.1,0.141,0.099,0.344-0.004,0.484
		c-0.223,0.232-0.41,0.397-1.135,0.423c-1.639-0.044-3.377-0.137-5.097-0.068c-0.973,0.019-2.146,0.249-2.954-0.117
		c-0.281-0.143-0.361-0.314-0.4-0.496C69.688,39.689,69.888,39.521,70.21,39.381z M88.014,34.026
		c-0.513,1.03-0.623,2.356,0.423,3.278c0.823,0.821,2.497,1.633,4.48,1.605c2.307-0.066,4.114-1.187,4.849-2.166
		c0.841-1.637,0.328-3.54-2.619-4.586c-1.069-0.407-2.787-0.571-3.964-0.179C89.562,32.391,88.545,33.218,88.014,34.026z
		 M100.168,31.569c1.512,0.771,2.436,1.673,2.935,2.665c0.877,1.862-0.549,3.56-2.966,4.88l0.021,0.031
		c0.809-0.02,1.619-0.134,2.147-0.479l4.062-3.257l0,0c-1.348-1.023-2.711-2.146-4.059-3.169
		C101.824,31.835,101.038,31.611,100.168,31.569z"/>
	<path stroke="#000000" stroke-width="0" stroke-linecap="square" stroke-miterlimit="2" d="M58.894,32.09"/>
	<path fill="#F58220" d="M59.605,31.686c0,0-0.708-0.051-0.712,0.405c0.004,0.211,0.01,0.958,0.007,1.108
		c-0.003,0.194,0.072,0.308,0.346,0.309l1.598,0.002c0.48-0.003,0.555-1.129,2.256-0.789c0.463,0.142,0.551,0.432,0.521,0.658
		c-0.268,0.626-0.15,1.254-0.053,1.9c0.039,0.265-0.307,0.496-0.793,0.586c-0.486,0.091-1.011-0.002-1.354-0.174
		c-0.404-0.183-0.543-0.466-1.028-0.578c-0.465-0.002-1.275-0.111-1.521,0.182c0,0.006-0.025,3.281-0.005,3.278
		c0.005,0.206,0.157,0.307,0.743,0.303l4.107,0.004c0.869,0,0.844-0.63,1.229-0.941c0.184-0.143,0.529-0.358,0.934-0.349
		c0.566-0.029,0.85,0.032,1.232,0.225c0.511,0.244,0.434,0.598,0.43,0.806v1.462c0.004,0.181-0.292,0.466-1.034,0.467l-0.577,0.002
		H53.155c-0.629-0.002-1.232-0.173-1.474-0.477c-0.1-0.182-0.058-0.403,0.146-0.565c0.488-0.384,1.988-0.39,1.987-0.854l-0.002-1.81
		l-0.001-4.651c0.004-0.249,0.282-0.635-1.303-0.675c-0.426,0.04-1.247,0.002-1.317,0.479l-0.008,0.381l-0.003,4.868
		c-0.231,1.224-2.125,2.438-4.394,2.931c-3.403,0.732-8.074,0.542-10.919-0.655c-0.081-0.02-0.162,0.029-0.162,0.07
		c0.005,0.324,0.057,0.88-0.866,0.924l-0.982,0.014l-12.754,0.004c-0.918-0.011-1.626-0.303-1.685-0.676
		c-0.674,0.26-1.408,0.501-2.493,0.634l-0.976,0.028L4.064,40.523c-0.667-0.021-1.36-0.037-1.763-0.309
		c-0.196-0.186-0.164-0.36-0.062-0.541c0.244-0.504,1.862-0.516,1.988-1.015l0.007-0.492l-0.018-6.082
		c-0.038-0.424-0.756-0.446-1.3-0.62c-0.635-0.171-0.939-0.349-0.962-0.633c-0.002-0.474,0.756-0.651,1.526-0.7l0.122,0H13.9
		c2.239-0.001,4.084,0.997,4.499,1.855c0.379,0.79-0.152,1.557-1.147,2.112l0,0c2.882,0.873,3.811,1.946,4.167,3.019l0-0.129
		l0.009-5.021c-0.005-0.409-1.75-0.674-1.776-0.797c-0.247-0.057-0.682-0.446-0.069-0.759c0.424-0.243,1.119-0.278,1.18-0.278
		c0,0,3.258,0.048,3.467,0.048c0.329,0,3.14-0.065,3.365-0.039c0.384,0,0.857,0.052,1.121,0.285c0.37,0.247,0.344,0.462-0.036,0.739
		c-0.632,0.482-2.124,0.279-2.135,0.777l0.023,6.481c0.019,0.172,0.014,0.418,0.665,0.416c0,0,4.001,0.002,4.01-0.002
		c1.103,0.004,0.994-1.213,2.534-1.433l0.101-0.052l0.017-5.44c-0.261-0.244-0.868-0.214-1.211-0.396
		c-0.626-0.184-0.685-0.477-0.723-0.791c-0.018-0.178,0.462-0.595,1.05-0.593c0.145-0.066,3.306,0.073,3.661,0.073
		c0.556,0,3.413-0.151,3.688-0.073c0.408-0.002,0.727,0.213,0.847,0.385c0.281,0.375,0.016,0.775-0.553,0.966
		c-0.306,0.14-1.707,0.196-1.713,0.601l0.012,5.006c0.171,0.649,1.23,1.193,2.423,1.428c1.879,0.357,4.267,0.2,5.728-0.495
		c0.427-0.232,0.727-0.495,0.749-0.809c0,0-0.004-5.29-0.002-5.302c-0.504-0.334-1.492-0.395-1.772-0.8
		c-0.14-0.212-0.159-0.476,0.025-0.678c0.183-0.142,0.43-0.268,0.856-0.305l17.69-0.001c1.396,0.073,1.43,0.986,1.695,1.433
		c0.191,0.32,0.359,0.8-0.269,1.011c-0.507,0.141-1.195,0.109-1.699-0.013c-0.849-0.163-0.871-0.734-1.699-0.878L59.605,31.686z
		 M9.361,31.985c-0.003,0.415,0,1.274-0.003,1.277c0.039,0.142,0.269,0.187,0.494,0.209c1.132,0.032,2.588,0.186,3.441-0.268
		c0.467-0.313,0.571-0.717,0.128-1.051c-0.744-0.609-2.344-0.419-3.598-0.421C9.581,31.741,9.361,31.818,9.361,31.985z
		 M9.357,38.598c0.06,0.091,0.004,0.193,0.398,0.241l3.257-0.003c1.433,0.006,2.409-0.218,3-0.773
		c0.511-0.748,0.532-1.586-0.885-2.247c-1.276-0.697-2.716-0.733-4.314-0.665c-0.547,0.021-1.399,0.082-1.443,0.347L9.357,38.598z"
		/>
	<g>
		<path fill="#FFFFFF" stroke="#F58220" stroke-width="0.8833" d="M3.903,30.673l9.412-0.001c1.496,0.073,3.005,0.493,3.668,1.202
			c0.341,0.446,0.417,1.053-0.07,1.467c-0.509,0.444-1.461,0.665-2.312,0.836l0,0.03c2.345,0.227,4.665,1.243,5.365,2.396
			c0.681,1.032,0.107,2.125-1.577,2.83c-1.156,0.422-2.457,0.599-3.974,0.556L3.86,39.99c-0.213,0.002-0.29,0.002-0.394-0.117
			c-0.06-0.162,0.312-0.307,0.614-0.364c0.856-0.161,1.412-0.439,1.417-0.686l-0.009-0.252l0.009-4.239l0-2.516
			c-0.125-0.57-1.951-0.611-2.09-0.929C3.366,30.776,3.445,30.674,3.903,30.673z M8.351,37.338c-0.001,0.005-0.001,1.49-0.001,1.598
			c0.126,0.443,1.012,0.501,1.604,0.503l3.444-0.002c1.457-0.048,3.134-0.534,3.624-1.262c0.533-0.799,0.28-1.597-0.395-2.197
			c-0.937-0.835-2.797-1.359-4.719-1.371c-1.042-0.007-3.558,0.006-3.557,0.795C8.35,35.408,8.353,37.33,8.351,37.338z
			 M8.351,33.538c0.012,0.006-0.001,0,0-0.003c0.151,0.363,0.83,0.439,1.275,0.451c1.7-0.018,3.64,0.147,4.657-0.61
			c0.468-0.374,0.472-0.96,0.11-1.355c-0.763-0.841-2.671-0.847-4.263-0.776c-0.516,0.023-1.78-0.066-1.776,0.341L8.351,33.538z
			 M24.233,30.724c-1.395,0.001-2.759-0.138-3.459-0.067c-0.162,0.041-0.363,0.081-0.265,0.243c0.523,0.385,2.203,0.205,2.159,0.863
			l-0.068,6.98c-0.022,0.181-0.124,0.353-0.448,0.463c-0.487,0.192-1.564,0.231-1.541,0.574c0.04,0.071,0.18,0.213,0.605,0.214
			l11.915-0.003c0.682,0.002,1.263-0.011,1.286-0.218l0.001-1.559c-0.024-0.155-0.226-0.207-0.485-0.142
			c-0.944,0.423-1.056,1.364-2.27,1.364l-4.708,0.002l0,0c-0.451-0.002-0.901-0.034-1.163-0.166
			c-0.241-0.103-0.403-0.244-0.402-0.405l0-2.604l0.003-4.494l-0.006,0c-0.122-0.704,1.597-0.451,2.297-0.879
			c0.034-0.001,0.211-0.216-0.12-0.215C26.986,30.573,25.602,30.724,24.233,30.724z M33.133,30.9
			c0.402,0.396,1.516,0.286,1.948,0.704l0.002,5.328c-0.018,1.181,1.635,2.299,3.878,2.717c2.423,0.591,5.823,0.455,8.112-0.198
			c1.764-0.502,2.862-1.421,3.01-2.393l-0.023-5.502c0.114-0.388,1.328-0.413,1.562-0.614c0.082-0.071,0.062-0.172-0.08-0.223
			c-0.504-0.102-1.395-0.012-1.962-0.022c-0.769-0.001-1.294-0.074-2.002,0.006c-0.122,0.04-0.285,0.121-0.184,0.222
			c0.422,0.325,1.323,0.26,1.665,0.615l0.014,5.485c-0.045,0.577-0.493,1.083-1.366,1.466c-1.887,0.886-5.103,0.942-7.345,0.402
			c-1.272-0.295-2.501-1.036-2.659-1.789l0.015-5.093l-0.005-0.339c-0.005-0.454,1.891-0.306,2.198-0.811
			c-0.02-0.102-0.129-0.174-0.551-0.163c-1.092,0.049-2.056,0.064-3.231,0.044c-0.932-0.016-1.8-0.134-2.69-0.075
			C33.235,30.688,33.133,30.799,33.133,30.9z M53.017,31.014c0.686,0.234,1.96,0.246,1.896,0.833l-0.015,6.948
			c-0.064,0.414-0.907,0.627-1.575,0.767c-0.203,0.06-0.527,0.12-0.487,0.272c0.221,0.223,0.75,0.158,1.208,0.156l11.859,0.002
			c0.202-0.021,0.496-0.147,0.558-0.27c-0.003-0.021,0.002-1.348,0.002-1.348l-0.006-0.013c0.001-0.418-0.555-0.355-0.785-0.084
			c-0.353,0.4-0.427,1.158-1.767,1.158c0.023,0-3.997-0.004-3.971,0l-0.491-0.002c-1.558,0.002-1.706-0.523-1.744-0.816l0.008-3.696
			v0.002c0.178-0.52,2.082-0.328,3.054-0.367c0.792,0.139,0.867,0.498,1.35,0.711c0.102,0.021,0.243,0.021,0.304-0.039
			c0.164-0.334-0.077-0.678-0.075-1.032c-0.019-0.294,0.223-0.513,0.229-0.839c0.07-0.079,0.044-0.255-0.323-0.132
			c-0.392,0.206-0.568,0.787-1.224,0.788c0.024-0.001-2.53,0.011-2.524-0.003c-0.411,0.002-0.791-0.162-0.795-0.656
			c0.005,0.013,0.005-1.555,0.002-1.565c0.003-0.355,0.509-0.621,1.222-0.619l4.157-0.002c0.921,0,1.25,0.974,1.961,1
			c0.142-0.009,0.284-0.08,0.243-0.151c-0.159-0.445-0.601-1.342-1.18-1.343c-0.002,0.001-10.673,0.001-10.678,0
			C52.588,30.699,52.715,30.959,53.017,31.014z"/>
		<path fill="#FFFFFF" stroke="#F58220" stroke-width="0.8833" d="M71.184,30.974c0.747,0.123,2,0.244,2.003,0.732l0.003,7.177
			l-0.059,0.177c-0.265,0.353-1.055,0.563-1.724,0.674c-0.143,0.051-0.405,0.08-0.386,0.191c-0.021,0.062,0.12,0.092,0.202,0.112
			c2.164-0.157,4.532-0.135,6.716-0.02c0.121-0.02,0.243-0.081,0.204-0.161c-0.404-0.213-1.072-0.174-1.516-0.367
			c-0.424-0.173-0.627-0.346-0.687-0.609l0.003-3.493l-0.008-0.467c0.003-0.364,0.838-0.363,1.192-0.362l2.921-0.004
			c0.67,0.002,0.756,0.261,0.998,0.412c0.201,0.091,0.2,0.272,0.524,0.284c0.102-0.029,0.082-0.081,0.122-0.121
			c-0.157-0.567-0.235-1.174-0.029-1.74c0-0.071-0.1-0.192-0.302-0.132c-0.365,0.252-0.744,0.755-1.37,0.755
			c-0.008,0-2.864,0-2.867,0.003c-0.301-0.003-1.187,0.105-1.187-0.51c0,0.001,0-1.933-0.002-1.934
			c0.002-0.202,0.56-0.404,1.188-0.406l4.601,0.004c0.747,0.123,1.002,0.573,1.466,0.827l0.264,0.051
			c0.08-0.01,0.121-0.05,0.162-0.08c0.042-0.304-0.22-0.577-0.318-0.86c-0.08-0.142-0.14-0.345-0.483-0.365l-11.511,0.001
			C71.043,30.751,70.857,30.902,71.184,30.974z"/>
		<path fill="#FFFFFF" stroke="#F58220" stroke-width="0.8833" d="M89.51,31.035c3.423-0.682,7.547-0.25,10.068,1.1
			c2.337,1.177,3.155,2.918,2.193,4.544c-0.818,1.476-3.68,2.888-6.717,3.197c-3.827,0.438-7.504-0.276-9.778-1.878
			c-1.954-1.329-2.101-3.513-0.371-4.937C85.902,32.162,87.667,31.417,89.51,31.035z M86.941,33.964
			c-0.902,1.729-0.287,3.602,2.314,4.84c1.473,0.7,3.857,0.956,5.701,0.495c2.33-0.543,3.611-1.725,4.105-2.876
			c0.66-1.841-0.278-3.713-3.306-4.791c-1.514-0.528-3.94-0.563-5.501-0.05C88.492,32.126,87.434,33.055,86.941,33.964z"/>
		<path fill="#FFFFFF" stroke="#F58220" stroke-width="0.8833" d="M100.232,30.932c1.313,0.063,2.566,0.44,3.21,1.058l4.355,3.468
			l0,0l-4.403,3.48c-0.691,0.566-1.887,0.705-2.979,0.855c-0.102,0.069-0.021,0.172,0.121,0.183
			c1.599-0.028,3.276-0.036,4.855,0.027l0.222-0.08c-0.038-0.243-0.646-0.295-0.866-0.508c-0.181-0.142-0.261-0.334-0.138-0.495
			c0,0,3.792-2.984,3.797-2.984h-0.005l3.782,3.056c0.442,0.455-0.615,0.597-1.047,0.896c-0.125,0.117-0.048,0.206,0.444,0.124
			c2.186-0.097,4.309-0.091,6.514-0.018l0.243-0.05c0.101-0.051,0.021-0.131-0.08-0.183c-1.07-0.113-2.142-0.366-2.827-0.863
			l-3.923-3.132l-1.47-1.21l0.036-0.001l3.626-2.913c0.345-0.272,0.854-0.464,1.42-0.574c0.364-0.1,0.822-0.116,1.194-0.2
			c0.412-0.118,0.098-0.203-0.044-0.222c-1.668,0.079-3.21,0.117-4.85,0.032l-0.162,0.06c-0.022,0.273,0.686,0.265,0.968,0.477
			c0.222,0.102,0.262,0.263,0.24,0.405l-2.949,2.478l0,0l-2.537-1.972c-0.301-0.253-0.644-0.497-0.703-0.79
			c0.043-0.293,0.833-0.303,0.936-0.555c-0.021-0.071-0.161-0.091-0.283-0.092c-2.104,0.067-4.35,0.063-6.493-0.011
			C100.154,30.659,99.95,30.861,100.232,30.932z"/>
	</g>
	<g>
		<path fill="#005BAA" d="M3.903,30.673l9.412-0.001c1.496,0.073,3.005,0.493,3.668,1.202c0.341,0.446,0.417,1.053-0.07,1.467
			c-0.509,0.444-1.461,0.665-2.312,0.836l0,0.03c2.345,0.227,4.665,1.243,5.365,2.396c0.681,1.032,0.107,2.125-1.577,2.83
			c-1.156,0.422-2.457,0.599-3.974,0.556L3.86,39.99c-0.213,0.002-0.29,0.002-0.394-0.117c-0.06-0.162,0.312-0.307,0.614-0.364
			c0.856-0.161,1.412-0.439,1.417-0.686l-0.009-0.252l0.009-4.239l0-2.516c-0.125-0.57-1.951-0.611-2.09-0.929
			C3.366,30.776,3.445,30.674,3.903,30.673z M8.351,37.338c-0.001,0.005-0.001,1.49-0.001,1.598
			c0.126,0.443,1.012,0.501,1.604,0.503l3.444-0.002c1.457-0.048,3.134-0.534,3.624-1.262c0.533-0.799,0.28-1.597-0.395-2.197
			c-0.937-0.835-2.797-1.359-4.719-1.371c-1.042-0.007-3.558,0.006-3.557,0.795C8.35,35.408,8.353,37.33,8.351,37.338z
			 M8.351,33.538c0.012,0.006-0.001,0,0-0.003c0.151,0.363,0.83,0.439,1.275,0.451c1.7-0.018,3.64,0.147,4.657-0.61
			c0.468-0.374,0.472-0.96,0.11-1.355c-0.763-0.841-2.671-0.847-4.263-0.776c-0.516,0.023-1.78-0.066-1.776,0.341L8.351,33.538z
			 M24.233,30.724c-1.395,0.001-2.759-0.138-3.459-0.067c-0.162,0.041-0.363,0.081-0.265,0.243c0.523,0.385,2.203,0.205,2.159,0.863
			l-0.068,6.98c-0.022,0.181-0.124,0.353-0.448,0.463c-0.487,0.192-1.564,0.231-1.541,0.574c0.04,0.071,0.18,0.213,0.605,0.214
			l11.915-0.003c0.682,0.002,1.263-0.011,1.286-0.218l0.001-1.559c-0.024-0.155-0.226-0.207-0.485-0.142
			c-0.944,0.423-1.056,1.364-2.27,1.364l-4.708,0.002l0,0c-0.451-0.002-0.901-0.034-1.163-0.166
			c-0.241-0.103-0.403-0.244-0.402-0.405l0-2.604l0.003-4.494l-0.006,0c-0.122-0.704,1.597-0.451,2.297-0.879
			c0.034-0.001,0.211-0.216-0.12-0.215C26.986,30.573,25.602,30.724,24.233,30.724z M33.133,30.9
			c0.402,0.396,1.516,0.286,1.948,0.704l0.002,5.328c-0.018,1.181,1.635,2.299,3.878,2.717c2.423,0.591,5.823,0.455,8.112-0.198
			c1.764-0.502,2.862-1.421,3.01-2.393l-0.023-5.502c0.114-0.388,1.328-0.413,1.562-0.614c0.082-0.071,0.062-0.172-0.08-0.223
			c-0.504-0.102-1.395-0.012-1.962-0.022c-0.769-0.001-1.294-0.074-2.002,0.006c-0.122,0.04-0.285,0.121-0.184,0.222
			c0.422,0.325,1.323,0.26,1.665,0.615l0.014,5.485c-0.045,0.577-0.493,1.083-1.366,1.466c-1.887,0.886-5.103,0.942-7.345,0.402
			c-1.272-0.295-2.501-1.036-2.659-1.789l0.015-5.093l-0.005-0.339c-0.005-0.454,1.891-0.306,2.198-0.811
			c-0.02-0.102-0.129-0.174-0.551-0.163c-1.092,0.049-2.056,0.064-3.231,0.044c-0.932-0.016-1.8-0.134-2.69-0.075
			C33.235,30.688,33.133,30.799,33.133,30.9z M53.017,31.014c0.686,0.234,1.96,0.246,1.896,0.833l-0.015,6.948
			c-0.064,0.414-0.907,0.627-1.575,0.767c-0.203,0.06-0.527,0.12-0.487,0.272c0.221,0.223,0.75,0.158,1.208,0.156l11.859,0.002
			c0.202-0.021,0.496-0.147,0.558-0.27c-0.003-0.021,0.002-1.348,0.002-1.348l-0.006-0.013c0.001-0.418-0.555-0.355-0.785-0.084
			c-0.353,0.4-0.427,1.158-1.767,1.158c0.023,0-3.997-0.004-3.971,0l-0.491-0.002c-1.558,0.002-1.706-0.523-1.744-0.816l0.008-3.696
			v0.002c0.178-0.52,2.082-0.328,3.054-0.367c0.792,0.139,0.867,0.498,1.35,0.711c0.102,0.021,0.243,0.021,0.304-0.039
			c0.164-0.334-0.077-0.678-0.075-1.032c-0.019-0.294,0.223-0.513,0.229-0.839c0.07-0.079,0.044-0.255-0.323-0.132
			c-0.392,0.206-0.568,0.787-1.224,0.788c0.024-0.001-2.53,0.011-2.524-0.003c-0.411,0.002-0.791-0.162-0.795-0.656
			c0.005,0.013,0.005-1.555,0.002-1.565c0.003-0.355,0.509-0.621,1.222-0.619l4.157-0.002c0.921,0,1.25,0.974,1.961,1
			c0.142-0.009,0.284-0.08,0.243-0.151c-0.159-0.445-0.601-1.342-1.18-1.343c-0.002,0.001-10.673,0.001-10.678,0
			C52.588,30.699,52.715,30.959,53.017,31.014z"/>
		<path fill="#005BAA" d="M71.184,30.974c0.747,0.123,2,0.244,2.003,0.732l0.003,7.177l-0.059,0.177
			c-0.265,0.353-1.055,0.563-1.724,0.674c-0.143,0.051-0.405,0.08-0.386,0.191c-0.021,0.062,0.12,0.092,0.202,0.112
			c2.164-0.157,4.532-0.135,6.716-0.02c0.121-0.02,0.243-0.081,0.204-0.161c-0.404-0.213-1.072-0.174-1.516-0.367
			c-0.424-0.173-0.627-0.346-0.687-0.609l0.003-3.493l-0.008-0.467c0.003-0.364,0.838-0.363,1.192-0.362l2.921-0.004
			c0.67,0.002,0.756,0.261,0.998,0.412c0.201,0.091,0.2,0.272,0.524,0.284c0.102-0.029,0.082-0.081,0.122-0.121
			c-0.157-0.567-0.235-1.174-0.029-1.74c0-0.071-0.1-0.192-0.302-0.132c-0.365,0.252-0.744,0.755-1.37,0.755
			c-0.008,0-2.864,0-2.867,0.003c-0.301-0.003-1.187,0.105-1.187-0.51c0,0.001,0-1.933-0.002-1.934
			c0.002-0.202,0.56-0.404,1.188-0.406l4.601,0.004c0.747,0.123,1.002,0.573,1.466,0.827l0.264,0.051
			c0.08-0.01,0.121-0.05,0.162-0.08c0.042-0.304-0.22-0.577-0.318-0.86c-0.08-0.142-0.14-0.345-0.483-0.365l-11.511,0.001
			C71.043,30.751,70.857,30.902,71.184,30.974z"/>
		<path fill="#005BAA" d="M89.51,31.035c3.423-0.682,7.547-0.25,10.068,1.1c2.337,1.177,3.155,2.918,2.193,4.544
			c-0.818,1.476-3.68,2.888-6.717,3.197c-3.827,0.438-7.504-0.276-9.778-1.878c-1.954-1.329-2.101-3.513-0.371-4.937
			C85.902,32.162,87.667,31.417,89.51,31.035z M86.941,33.964c-0.902,1.729-0.287,3.602,2.314,4.84
			c1.473,0.7,3.857,0.956,5.701,0.495c2.33-0.543,3.611-1.725,4.105-2.876c0.66-1.841-0.278-3.713-3.306-4.791
			c-1.514-0.528-3.94-0.563-5.501-0.05C88.492,32.126,87.434,33.055,86.941,33.964z"/>
		<path fill="#005BAA" d="M100.232,30.932c1.313,0.063,2.566,0.44,3.21,1.058l4.355,3.468l0,0l-4.403,3.48
			c-0.691,0.566-1.887,0.705-2.979,0.855c-0.102,0.069-0.021,0.172,0.121,0.183c1.599-0.028,3.276-0.036,4.855,0.027l0.222-0.08
			c-0.038-0.243-0.646-0.295-0.866-0.508c-0.181-0.142-0.261-0.334-0.138-0.495c0,0,3.792-2.984,3.797-2.984h-0.005l3.782,3.056
			c0.442,0.455-0.615,0.597-1.047,0.896c-0.125,0.117-0.048,0.206,0.444,0.124c2.186-0.097,4.309-0.091,6.514-0.018l0.243-0.05
			c0.101-0.051,0.021-0.131-0.08-0.183c-1.07-0.113-2.142-0.366-2.827-0.863l-3.923-3.132l-1.47-1.21l0.036-0.001l3.626-2.913
			c0.345-0.272,0.854-0.464,1.42-0.574c0.364-0.1,0.822-0.116,1.194-0.2c0.412-0.118,0.098-0.203-0.044-0.222
			c-1.668,0.079-3.21,0.117-4.85,0.032l-0.162,0.06c-0.022,0.273,0.686,0.265,0.968,0.477c0.222,0.102,0.262,0.263,0.24,0.405
			l-2.949,2.478l0,0l-2.537-1.972c-0.301-0.253-0.644-0.497-0.703-0.79c0.043-0.293,0.833-0.303,0.936-0.555
			c-0.021-0.071-0.161-0.091-0.283-0.092c-2.104,0.067-4.35,0.063-6.493-0.011C100.154,30.659,99.95,30.861,100.232,30.932z"/>
	</g>
</g>
</svg>
