<?xml version="1.0" encoding="utf-8"?>
<!-- Generator: Adobe Illustrator 21.1.0, SVG Export Plug-In . SVG Version: 6.00 Build 0)  -->
<svg version="1.1" id="Layer_1" xmlns="http://www.w3.org/2000/svg" xmlns:xlink="http://www.w3.org/1999/xlink" x="0px" y="0px"
	 viewBox="0 0 92.3 29.4" style="enable-background:new 0 0 92.3 29.4;" xml:space="preserve">
<style type="text/css">
	.st0{fill:#ED1C2E;}
</style>
<g>
	<g>
		<path class="st0" d="M24.7,4.1l0,6.1l-6.4,0l0-4c0,0,0-2,0-2c0-2.8,4.1-3.7,6.9-3.7c2.8,0,7,0.9,6.9,3.7l0,0l0,20.6
			c0,0-0.1,0.3,0.3,0.7l-0.1,0l-5.8,0l-0.4-0.7c-1.4,0.7-3.1,1-4.8,0.7c-1.3-0.1-3-0.8-3-3.1l0-8.1c0-1.1,0.9-2.1,1.9-2.5
			c1.6-0.6,4.1-0.6,5.6,0.3l0-8c0,0,0-0.5-0.5-0.5C25.3,3.6,24.7,3.5,24.7,4.1z M24.7,14.8v7.1c0,0,0,0.4,0.6,0.4
			c0.6,0,0.6-0.4,0.6-0.4v-7.1c0,0,0-0.5-0.6-0.5C24.7,14.3,24.7,14.8,24.7,14.8z"/>
		<path class="st0" d="M55.8,4.1l0,6.1l-6.4,0l0-4c0,0,0-2,0-2c0-2.8,4.1-3.7,6.9-3.7c2.8,0,7,0.9,6.9,3.7l0,0l0,20.6
			c0,0-0.1,0.3,0.3,0.7l-0.1,0l-5.8,0l-0.4-0.7c-1.4,0.7-3.1,1-4.8,0.7c-1.3-0.1-3-0.8-3-3.1l0-8.1c0-1.1,0.9-2.1,1.9-2.5
			c1.6-0.6,4.1-0.6,5.6,0.3l0-8c0,0,0-0.5-0.5-0.5C56.3,3.6,55.8,3.5,55.8,4.1z M55.8,14.8v7.1c0,0,0,0.4,0.6,0.4
			c0.6,0,0.6-0.4,0.6-0.4v-7.1c0,0,0-0.5-0.6-0.5C55.8,14.3,55.8,14.8,55.8,14.8z"/>
		<path class="st0" d="M44.4,0.6c3.7,0,3.5,3.2,3.5,3.2l0,11.8c0,0,0.1,2.5-2.9,2.5l-4.6,0l0,7.4l-6.2,0l0-24.8L44.4,0.6z
			 M41.7,13.5l0-8c0-0.9-0.4-1.1-1-1.1c-0.3,0-0.3,0.3-0.3,0.3l0,9.8c0,0,0,0.3,0.3,0.3C41.4,14.7,41.7,14.3,41.7,13.5z"/>
		<polygon class="st0" points="64.7,25.4 64.7,0.6 71.3,0.6 71.3,22.6 74.8,22.6 74.8,25.4 		"/>
		<path class="st0" d="M81.6,4.1l0,6.1l-6.4,0l0-4c0,0,0-2,0-2c0-2.8,4.1-3.7,6.9-3.7c2.8,0,7,0.9,6.9,3.7l0,0l0,20.6
			c0,0-0.1,0.3,0.3,0.7l-0.1,0l-5.8,0l-0.4-0.7c-1.4,0.7-3.1,1-4.8,0.7c-1.3-0.1-3-0.8-3-3.1l0-8.1c0-1.1,0.9-2.1,1.9-2.5
			c1.6-0.6,4.1-0.6,5.6,0.3l0-8c0,0,0-0.5-0.5-0.5C82.2,3.6,81.6,3.5,81.6,4.1z M81.6,14.8v7.1c0,0,0,0.4,0.6,0.4
			c0.6,0,0.6-0.4,0.6-0.4v-7.1c0,0,0-0.5-0.6-0.5C81.6,14.3,81.6,14.8,81.6,14.8z"/>
		<path class="st0" d="M17.8,29.4l-6.4,0c0,0-0.2-0.2-0.3-0.6c-0.7-2.2-1-4.5-1-7l0-4.6c0-0.6-0.1-1.1-0.5-1.1c0,0-2.1,0-2.1,0
			c-0.4,0-0.4,0.4-0.4,0.4l0,13l-7.1,0l0-29l10.1,0c2.9,0,4.7,0.2,6,2.1C17.1,4.3,17,6.8,17,8.9c0,2.2-0.7,4.1-2.3,5.5
			c0.2,0.2,0.7,0.6,1,1.1c0.8,1.1,1.1,2.5,1,4.1c0.2,2.7-0.1,5.6,0.7,8l0.5,1.7L17.8,29.4z M9.6,12.2c0.3,0,0.5-0.2,0.5-0.5V4.6
			c0-0.3-0.2-0.5-0.5-0.5h-2c-0.3,0-0.5,0.2-0.5,0.5v7.1c0,0.3,0.2,0.5,0.5,0.5H9.6z"/>
	</g>
	<path d="M90.8,2.8h-0.3V1.4H91c0.4,0,0.6,0.1,0.6,0.4c0,0.3-0.2,0.4-0.3,0.4l0.4,0.6h-0.4l-0.3-0.6h-0.1L90.8,2.8L90.8,2.8z
		 M91.1,2c0.1,0,0.2,0,0.2-0.2c0-0.1-0.2-0.2-0.3-0.2h-0.2V2L91.1,2L91.1,2z M91,3.4c-0.7,0-1.3-0.5-1.3-1.3c0-0.8,0.6-1.3,1.3-1.3
		s1.3,0.5,1.3,1.3C92.3,3,91.7,3.4,91,3.4z M91,1.1c-0.5,0-0.9,0.4-0.9,1c0,0.6,0.4,1,0.9,1v0c0.5,0,0.9-0.4,0.9-1
		C92,1.5,91.5,1.1,91,1.1z"/>
</g>
</svg>
