<?xml version="1.0" encoding="utf-8"?>
<!-- Generator: Adobe Illustrator 16.0.4, SVG Export Plug-In . SVG Version: 6.00 Build 0)  -->
<!DOCTYPE svg PUBLIC "-//W3C//DTD SVG 1.1//EN" "http://www.w3.org/Graphics/SVG/1.1/DTD/svg11.dtd">
<svg version="1.1" id="brand" xmlns="http://www.w3.org/2000/svg" xmlns:xlink="http://www.w3.org/1999/xlink" x="0px" y="0px"
	 width="61.583px" height="12px" viewBox="0 0 61.583 12" enable-background="new 0 0 61.583 12" xml:space="preserve">
<g id="terminator_line_art_5_" opacity="0.6">
	<path fill="#666666" d="M6.893,4.042H4.774v5.326h-1.76V4.042H1V2.405h5.893V4.042z"/>
	<path fill="#666666" d="M46.323,4.042h-2.119v5.326h-1.759V4.042h-2.018V2.405h5.895L46.323,4.042L46.323,4.042z"/>
	<path fill="#666666" d="M7.187,2.405h3.223l1.419,1.66H8.946v1.013h3.311v1.561H8.946v0.986h3.338v1.743H7.187V2.405z"/>
	<path fill="#666666" d="M18.869,9.368H16.81l-1.469-2.536h-1.049v2.536h-1.76V5.203L13.021,5.2l-2.387-2.795h5.343
		c1.192,0,2.365,0.743,2.365,2.147c0,1.078-0.341,1.742-1.049,2.026L18.869,9.368z M13.272,5.218h2.498
		c0.53,0,0.814-0.082,0.814-0.61c0-0.516-0.398-0.498-0.889-0.498h-2.422V5.218z"/>
	<path fill="#666666" d="M59.646,9.368h-2.059l-1.467-2.536h-1.048v2.536h-1.761V5.203L53.8,5.2l-2.387-2.795h5.342
		c1.193,0,2.364,0.743,2.364,2.147c0,1.078-0.34,1.742-1.051,2.026L59.646,9.368z M54.051,5.218h2.496
		c0.53,0,0.813-0.082,0.813-0.61c0-0.516-0.397-0.498-0.888-0.498h-2.422V5.218z"/>
	<path fill="#666666" d="M18.709,2.405h2.457l1.349,4.406h0.02l1.4-4.406h2.309v6.963h-1.657V4.907h-0.02L23.31,9.369h-1.507
		l-1.418-4.462h-0.02v4.462h-1.656V2.405z"/>
	<path fill="#666666" d="M26.706,2.405h1.76v6.963h-1.76V2.405z"/>
	<path fill="#666666" d="M28.928,2.405h1.861l2.42,4.025h0.018V2.405h1.707v6.963h-1.862l-2.42-4.341h-0.021v4.341h-1.705V2.405
		H28.928z"/>
	<path fill="#666666" d="M49.439,2.259c2.132,0,3.333,1.367,3.333,3.628c0,2.539-1.201,3.629-3.333,3.629
		c-2.126,0-3.33-1.271-3.33-3.629C46.107,3.576,47.313,2.259,49.439,2.259z M49.439,7.954c1.138,0,1.496-1.11,1.496-2.145
		c0-1.034-0.358-1.99-1.496-1.99c-1.135,0-1.431,1.034-1.431,2.068C48.005,6.918,48.304,7.954,49.439,7.954z"/>
	<path fill="#666666" d="M39.488,2.405h-1.633l-2.896,6.963h2.022l0.666-1.905h0.187c0.176,0.311,0.506,0.521,0.885,0.521
		c0.383,0,0.711-0.21,0.887-0.521h0.171l0.727,1.905h1.98L39.488,2.405z M38.702,4.733l0.586,1.384
		c-0.162-0.109-0.356-0.174-0.568-0.174c-0.252,0-0.481,0.096-0.657,0.248l0.624-1.458H38.702z"/>
	<text transform="matrix(1 0 0 1 58.8638 3.1187)" fill="#666666" font-family="'HelveticaNeue-Medium'" font-size="1.0377">®</text>
</g>
</svg>
