<svg xmlns="http://www.w3.org/2000/svg" width="37" height="38" viewBox="0 0 37 38">
    <g fill="none" fill-rule="evenodd">
        <path fill="#0A0B09" d="M37 18.732c0 10.218-8.283 18.5-18.5 18.5S0 28.95 0 18.732C0 8.515 8.283.232 18.5.232S37 8.515 37 18.732"/>
        <path fill="#FFFFFE" d="M18.5 6.232c-3.395 0-3.821.015-5.154.076-1.33.06-2.239.272-3.034.581A6.119 6.119 0 0 0 8.098 8.33a6.135 6.135 0 0 0-1.442 2.214c-.309.795-.52 1.704-.581 3.035C6.014 14.912 6 15.338 6 18.732c0 3.395.014 3.821.075 5.154.061 1.331.272 2.239.581 3.034.32.822.747 1.519 1.442 2.214a6.122 6.122 0 0 0 2.214 1.442c.795.309 1.704.52 3.034.581 1.333.061 1.759.075 5.154.075s3.821-.014 5.154-.075c1.33-.061 2.239-.272 3.034-.581a6.122 6.122 0 0 0 2.214-1.442 6.135 6.135 0 0 0 1.442-2.214c.309-.795.52-1.703.581-3.034.061-1.333.075-1.759.075-5.154 0-3.394-.014-3.82-.075-5.153-.061-1.331-.272-2.24-.581-3.035a6.135 6.135 0 0 0-1.442-2.214 6.119 6.119 0 0 0-2.214-1.441c-.795-.309-1.704-.521-3.034-.581-1.333-.061-1.759-.076-5.154-.076zm0 2.253c3.338 0 3.733.012 5.051.073 1.219.055 1.881.259 2.321.43.584.227 1 .498 1.437.935.438.437.709.854.935 1.437.172.441.375 1.103.431 2.321.06 1.318.073 1.714.073 5.051 0 3.338-.013 3.733-.073 5.051-.056 1.219-.259 1.881-.431 2.321a3.86 3.86 0 0 1-.935 1.438 3.872 3.872 0 0 1-1.437.935c-.44.171-1.102.375-2.321.43-1.318.06-1.713.073-5.051.073s-3.733-.013-5.051-.073c-1.219-.055-1.881-.259-2.321-.43-.584-.227-1-.498-1.437-.935a3.874 3.874 0 0 1-.936-1.438c-.171-.44-.374-1.102-.43-2.321-.06-1.318-.073-1.713-.073-5.051 0-3.337.013-3.733.073-5.051.056-1.218.259-1.88.43-2.321.227-.583.498-1 .936-1.437a3.872 3.872 0 0 1 1.437-.935c.44-.171 1.102-.375 2.321-.43 1.318-.061 1.713-.073 5.051-.073z"/>
        <path fill="#FFFFFE" d="M18.5 22.899a4.167 4.167 0 1 1 0-8.334 4.167 4.167 0 0 1 0 8.334zm0-10.586a6.42 6.42 0 1 0 0 12.838 6.42 6.42 0 0 0 0-12.838zM26.673 12.06a1.5 1.5 0 1 1-3.001-.001 1.5 1.5 0 0 1 3.001.001"/>
    </g>
</svg>
