<svg xmlns="http://www.w3.org/2000/svg" width="26" height="25">
    <path d="M25.56 22.389c.591.586.605 1.55.034 2.154a1.46 1.46 0 0 1-2.102.034l-6.404-6.362a1.484 1.484 0 0 1-.374-.689 9.463 9.463 0 0 1-6.282 2.388c-5.245 0-9.512-4.268-9.512-9.513C.92 5.155 5.187.888 10.432.888c5.246 0 9.514 4.267 9.514 9.513a9.451 9.451 0 0 1-1.584 5.244c.288.049.568.157.794.381l6.404 6.363zM10.432 3.355c-3.885 0-7.045 3.161-7.045 7.046a7.052 7.052 0 0 0 7.045 7.045 7.053 7.053 0 0 0 7.046-7.045 7.054 7.054 0 0 0-7.046-7.046z"/>
</svg>
