<?xml version="1.0" encoding="utf-8"?>
<!-- Generator: Adobe Illustrator 16.0.3, SVG Export Plug-In . SVG Version: 6.00 Build 0)  -->
<!DOCTYPE svg PUBLIC "-//W3C//DTD SVG 1.1//EN" "http://www.w3.org/Graphics/SVG/1.1/DTD/svg11.dtd">
<svg version="1.1" id="Layer_1" xmlns="http://www.w3.org/2000/svg" xmlns:xlink="http://www.w3.org/1999/xlink" x="0px" y="0px"
	 width="30px" height="100px" viewBox="0 0 30 100" enable-background="new 0 0 30 100" xml:space="preserve">
<g>
	<path fill="#336600" d="M6.29,83.152l2.095,0.29c0,0,2.874,1.503,4.208,3.795l-0.759,1.38L6.29,83.152z"/>
	<path fill="#336600" d="M25.426,78.865l-0.688,1.195c0,0-5.891,2.652-12.604,12.883C12.133,92.943,13.488,81.809,25.426,78.865z"/>
	<path fill="#52A300" d="M5.328,84.326l0.962-1.174c0,0,2.283,0.619,5.583,4.134c0,0,5.622-8.768,13.33-9.742l0.223,1.321
		c0,0-8.385,3.241-13.293,14.079C12.133,92.943,10.555,87.425,5.328,84.326z"/>
</g>
<g>
	<path fill="#999999" d="M27,71c1.103,0,2,0.897,2,2v24c0,1.103-0.897,2-2,2H3c-1.103,0-2-0.897-2-2V73c0-1.103,0.897-2,2-2H27
		 M27,70H3c-1.657,0-3,1.343-3,3v24c0,1.657,1.343,3,3,3h24c1.657,0,3-1.343,3-3V73C30,71.343,28.657,70,27,70L27,70z"/>
</g>
<g>
	<path fill="#999999" d="M27,1c1.103,0,2,0.897,2,2v24c0,1.103-0.897,2-2,2H3c-1.103,0-2-0.897-2-2V3c0-1.103,0.897-2,2-2H27 M27,0
		H3C1.343,0,0,1.343,0,3v24c0,1.657,1.343,3,3,3h24c1.657,0,3-1.343,3-3V3C30,1.343,28.657,0,27,0L27,0z"/>
</g>
</svg>
