<?xml version="1.0" encoding="utf-8"?>
<!-- Generator: Adobe Illustrator 16.0.4, SVG Export Plug-In . SVG Version: 6.00 Build 0)  -->
<!DOCTYPE svg PUBLIC "-//W3C//DTD SVG 1.1//EN" "http://www.w3.org/Graphics/SVG/1.1/DTD/svg11.dtd">
<svg version="1.1" id="Layer_1" xmlns="http://www.w3.org/2000/svg" xmlns:xlink="http://www.w3.org/1999/xlink" x="0px" y="0px"
	 width="40px" height="115.5px" viewBox="0 0 40 115.5" enable-background="new 0 0 40 115.5" xml:space="preserve">
<g id="Layer_1_1_">
</g>
<g id="option_5" display="none">
	<g id="Prod__x24__x24__copy_3" display="inline">
	</g>
	<g id="View_Cart_x2F_sub_copy_4" display="inline">
	</g>
	<g id="Item_2_copy_4" display="inline">
		<g id="shipping_limitations_copy_4">
		</g>
	</g>
	<g id="Item_1_copy_4" display="inline">
		<g id="New_Icon_copy_4">
		</g>
	</g>
	<g id="items_x2F_qty_x2F_price_copy_4" display="inline">
	</g>
	<g id="nearness_message_copy_6" display="inline">
	</g>
	<g id="Lines_x2F_dividers_copy_4" display="inline">
	</g>
</g>
<g id="option_4" display="none">
	<g id="C_-_Prod__x24__x24__copy_4" display="inline">
		<g id="nearness_message_copy_5">
		</g>
	</g>
	<g id="O_-_Prod__x24__x24__copy_3" display="inline">
		<g id="nearness_message_copy_4">
		</g>
	</g>
	<g id="View_Cart_x2F_sub_copy_3" display="inline">
	</g>
	<g id="Item_2_copy_3" display="inline">
		<g id="shipping_limitations_copy_3">
		</g>
	</g>
	<g id="Item_1_copy_3" display="inline">
		<g id="New_Icon_copy_3">
		</g>
	</g>
	<g id="items_x2F_qty_x2F_price_copy_3" display="inline">
	</g>
	<g id="nearness_message_copy_3" display="inline">
	</g>
	<g id="Lines_x2F_dividers_copy_3" display="inline">
	</g>
</g>
<g id="option_3" display="none">
	<g id="Prod__x24__x24__copy_2" display="inline">
	</g>
	<g id="View_Cart_x2F_sub_copy_2" display="inline">
	</g>
	<g id="Item_2_copy_2" display="inline">
		<g id="shipping_limitations_copy_2">
		</g>
	</g>
	<g id="Item_1_copy_2" display="inline">
		<g id="New_Icon_copy_2">
		</g>
	</g>
	<g id="items_x2F_qty_x2F_price_copy_2" display="inline">
	</g>
	<g id="nearness_message_copy_2" display="inline">
	</g>
	<g id="Lines_x2F_dividers_copy_2" display="inline">
	</g>
</g>
<g id="option_2" display="none">
	<g id="Prod__x24__x24__copy" display="inline">
	</g>
	<g id="View_Cart_x2F_sub_copy" display="inline">
	</g>
	<g id="Item_2_copy" display="inline">
		<g id="shipping_limitations_copy">
		</g>
	</g>
	<g id="Item_1_copy" display="inline">
		<g id="New_Icon_copy">
		</g>
	</g>
	<g id="items_x2F_qty_x2F_price_copy" display="inline">
	</g>
	<g id="nearness_message_copy" display="inline">
	</g>
	<g id="Lines_x2F_dividers_copy" display="inline">
	</g>
</g>
<g id="Option_1">
	<g id="Prod__x24__x24_">
	</g>
	<g id="View_Cart_x2F_sub">
	</g>
	<g id="Buttons">
	</g>
	<g id="Item_1">
		<g id="New_Icon">
		</g>
	</g>
	<g id="items_x2F_qty_x2F_price">
	</g>
	<g id="nearness_message">
	</g>
	<g id="Item_2">
		<g id="shipping_limitations">
		</g>
	</g>
	<g id="mini_cart_bar">
	</g>
	<g id="Lines_x2F_dividers">
		<g>
			
				<image overflow="visible" enable-background="new    " width="179" height="171" xlink:href="AD8878130A96DF53.png"  transform="matrix(0.2346 0 0 0.2344 4.501 4.5)">
			</image>
			<g>
				
					<linearGradient id="SVGID_1_" gradientUnits="userSpaceOnUse" x1="-70.251" y1="5.8271" x2="-57.749" y2="-15.8268" gradientTransform="matrix(1 0 0 -1 84 15)">
					<stop  offset="0" style="stop-color:#3E3E3E"/>
					<stop  offset="1" style="stop-color:#000000"/>
				</linearGradient>
				<circle fill="url(#SVGID_1_)" cx="20" cy="20" r="12.5"/>
			</g>
		</g>
		<g>
			<path fill="#F1F1F2" d="M24.792,22.706c0.39,0.389,0.39,1.024,0,1.415l-0.42,0.42c-0.39,0.389-1.024,0.389-1.414,0l-7.498-7.497
				c-0.389-0.389-0.389-1.025,0-1.414l0.42-0.42c0.389-0.389,1.025-0.389,1.414,0L24.792,22.706z"/>
		</g>
		<g>
			<path fill="#F1F1F2" d="M17.294,24.541c-0.389,0.389-1.025,0.389-1.414,0l-0.42-0.42c-0.389-0.389-0.389-1.026,0-1.415
				l7.498-7.497c0.39-0.389,1.024-0.389,1.414,0l0.42,0.42c0.39,0.389,0.39,1.025,0,1.414L17.294,24.541z"/>
		</g>
	</g>
</g>
<g id="Layer_59">
</g>
<g id="Mini_Cart_Header">
</g>
<g id="spacing" display="none">
</g>
<g id="Layer_61">
</g>
<g id="scroll_bar">
</g>
<g id="annoations">
</g>
<g id="Option_1_1_">
	<g id="Prod__x24__x24__1_">
	</g>
	<g id="View_Cart_x2F_sub_1_">
	</g>
	<g id="Buttons_1_">
	</g>
	<g id="Item_1_1_">
		<g id="New_Icon_1_">
		</g>
	</g>
	<g id="items_x2F_qty_x2F_price_1_">
	</g>
	<g id="nearness_message_1_">
	</g>
	<g id="Item_2_1_">
		<g id="shipping_limitations_1_">
		</g>
	</g>
	<g id="mini_cart_bar_1_">
	</g>
	<g id="Lines_x2F_dividers_1_">
		<g>
			
				<image overflow="visible" enable-background="new    " width="179" height="171" xlink:href="AD8878130A96DF51.png"  transform="matrix(0.2346 0 0 0.2344 4.5 39.5)">
			</image>
			<g>
				
					<linearGradient id="SVGID_2_" gradientUnits="userSpaceOnUse" x1="-55.1597" y1="-48.8374" x2="-72.8372" y2="-31.1599" gradientTransform="matrix(1 0 0 -1 84 15)">
					<stop  offset="0" style="stop-color:#3E3E3E"/>
					<stop  offset="1" style="stop-color:#000000"/>
				</linearGradient>
				<circle fill="url(#SVGID_2_)" cx="20" cy="55" r="12.5"/>
			</g>
		</g>
		<g>
			<path fill="#F1F1F2" d="M24.792,57.706c0.39,0.389,0.39,1.024,0,1.415l-0.42,0.42c-0.39,0.389-1.024,0.389-1.414,0l-7.498-7.497
				c-0.389-0.389-0.389-1.024,0-1.414l0.42-0.42c0.389-0.39,1.025-0.39,1.414,0L24.792,57.706z"/>
		</g>
		<g>
			<path fill="#F1F1F2" d="M17.294,59.541c-0.389,0.389-1.025,0.389-1.414,0l-0.42-0.42c-0.389-0.389-0.389-1.026,0-1.415
				l7.498-7.497c0.39-0.389,1.024-0.389,1.414,0l0.42,0.42c0.39,0.389,0.39,1.025,0,1.414L17.294,59.541z"/>
		</g>
	</g>
</g>
<g id="annoations_1_">
</g>
<g id="annoations_2_">
</g>
<g id="Option_1_2_">
	<g id="Prod__x24__x24__2_">
	</g>
	<g id="View_Cart_x2F_sub_2_">
	</g>
	<g id="Buttons_2_">
	</g>
	<g id="Item_1_2_">
		<g id="New_Icon_2_">
		</g>
	</g>
	<g id="items_x2F_qty_x2F_price_2_">
	</g>
	<g id="nearness_message_2_">
	</g>
	<g id="Item_2_2_">
		<g id="shipping_limitations_2_">
		</g>
	</g>
	<g id="mini_cart_bar_2_">
	</g>
	<g id="Lines_x2F_dividers_2_">
		<g>
			
				<linearGradient id="SVGID_3_" gradientUnits="userSpaceOnUse" x1="-55.1602" y1="-68.1611" x2="-72.8371" y2="-85.8381" gradientTransform="matrix(1 0 0 -1 84 15)">
				<stop  offset="0" style="stop-color:#0E0E0E"/>
				<stop  offset="1" style="stop-color:#000000"/>
			</linearGradient>
			<circle fill="url(#SVGID_3_)" cx="20.001" cy="92" r="12.5"/>
		</g>
		<g>
			<path fill="#F1F1F2" d="M24.792,94.706c0.39,0.389,0.39,1.024,0,1.415l-0.42,0.42c-0.39,0.389-1.024,0.389-1.414,0l-7.498-7.497
				c-0.389-0.389-0.389-1.024,0-1.414l0.42-0.42c0.389-0.39,1.025-0.39,1.414,0L24.792,94.706z"/>
		</g>
		<g>
			<path fill="#F1F1F2" d="M17.294,96.541c-0.389,0.389-1.025,0.389-1.414,0l-0.42-0.42c-0.389-0.389-0.389-1.026,0-1.415
				l7.498-7.497c0.39-0.389,1.024-0.389,1.414,0l0.42,0.42c0.39,0.389,0.39,1.025,0,1.414L17.294,96.541z"/>
		</g>
	</g>
</g>
<g id="annoations_3_">
</g>
</svg>
