<?xml version="1.0" encoding="utf-8"?>
<!-- Generator: Adobe Illustrator 16.0.3, SVG Export Plug-In . SVG Version: 6.00 Build 0)  -->
<!DOCTYPE svg PUBLIC "-//W3C//DTD SVG 1.1//EN" "http://www.w3.org/Graphics/SVG/1.1/DTD/svg11.dtd">
<svg version="1.1" id="Layer_1" xmlns="http://www.w3.org/2000/svg" xmlns:xlink="http://www.w3.org/1999/xlink" x="0px" y="0px"
	 width="61.212px" height="59.396px" viewBox="0 0 61.212 59.396" enable-background="new 0 0 61.212 59.396" xml:space="preserve">
<circle fill="#4D4D4D" cx="12.601" cy="13.636" r="4"/>
<path fill="#CCCCCC" d="M51.678,13.636c0,2.207-1.795,4-4,4s-4-1.793-4-4s1.795-4,4-4S51.678,11.43,51.678,13.636z"/>
<path fill="#4D4D4D" d="M20.101,44.636c0,4.135-3.362,7.5-7.5,7.5c-4.138,0-7.5-3.365-7.5-7.5c0-4.133,3.362-7.5,7.5-7.5
	C16.739,37.136,20.101,40.503,20.101,44.636z"/>
<path fill="#CCCCCC" d="M55.178,44.636c0,4.139-3.364,7.5-7.5,7.5s-7.5-3.361-7.5-7.5c0-4.137,3.364-7.5,7.5-7.5
	S55.178,40.5,55.178,44.636z"/>
</svg>
