<?xml version="1.0" encoding="utf-8"?>
<!-- Generator: Adobe Illustrator 16.0.3, SVG Export Plug-In . SVG Version: 6.00 Build 0)  -->
<!DOCTYPE svg PUBLIC "-//W3C//DTD SVG 1.1//EN" "http://www.w3.org/Graphics/SVG/1.1/DTD/svg11.dtd">
<svg version="1.1" id="Layer_1" xmlns="http://www.w3.org/2000/svg" xmlns:xlink="http://www.w3.org/1999/xlink" x="0px" y="0px"
	 width="20px" height="20px" viewBox="0 0 20 20" enable-background="new 0 0 20 20" xml:space="preserve">
<g>
	<path id="Blue_1_" fill="#3D5A98" d="M18.599,19.666c0.59,0,1.067-0.478,1.067-1.065V1.401c0-0.59-0.478-1.067-1.067-1.067H1.4
		c-0.589,0-1.066,0.478-1.066,1.067v17.199c0,0.588,0.478,1.065,1.066,1.065H18.599z"/>
	<path id="f" fill="#FFFFFF" d="M13.673,19.666V12.18h2.512l0.376-2.917h-2.888V7.399c0-0.845,0.233-1.42,1.445-1.42l1.544-0.001
		V3.369c-0.266-0.035-1.183-0.115-2.25-0.115c-2.229,0-3.752,1.359-3.752,3.856v2.152h-2.52v2.917h2.52v7.486H13.673z"/>
</g>
</svg>
