<?xml version="1.0" encoding="utf-8"?>
<!-- Generator: Adobe Illustrator 16.0.5, SVG Export Plug-In . SVG Version: 6.00 Build 0)  -->
<!DOCTYPE svg PUBLIC "-//W3C//DTD SVG 1.1//EN" "http://www.w3.org/Graphics/SVG/1.1/DTD/svg11.dtd">
<svg version="1.1" id="Layer_1" xmlns="http://www.w3.org/2000/svg" xmlns:xlink="http://www.w3.org/1999/xlink" x="0px" y="0px"
	 width="78px" height="13px" viewBox="0 0 78 13" enable-background="new 0 0 78 13" xml:space="preserve">
<g>
	<g>
		<path fill-rule="evenodd" clip-rule="evenodd" d="M7.328,6.361c0.068-0.05,0.196-0.108,0.273-0.083l0.189-0.533
			c-0.038,0.01-0.081,0.015-0.133,0.003c0.044-0.036,0.1-0.061,0.161-0.079l0.297-0.833C8.079,4.863,8.033,4.881,7.963,4.876
			c0.044-0.048,0.106-0.075,0.173-0.098l0.347-0.973C8.393,3.887,8.279,3.977,8.176,3.958c0.107-0.067,0.188-0.162,0.325-0.2
			l0.217-0.605H6.904C6.82,3.179,6.724,3.195,6.621,3.205c0.022-0.023,0.051-0.039,0.082-0.053H4.651L3.857,5.374
			c0.206-0.036,0.404-0.089,0.573-0.145C4.557,5.346,4.89,5.128,5.02,5.252C4.875,5.265,4.582,5.329,4.407,5.3
			C4.339,5.321,4.381,5.336,4.384,5.394C4.203,5.361,4.028,5.383,3.841,5.42L3.576,6.162C3.59,6.175,3.602,6.193,3.606,6.218
			c-0.013-0.01-0.028-0.016-0.043-0.022L3.365,6.75C3.48,6.71,3.604,6.678,3.748,6.667C3.715,6.75,3.563,6.762,3.489,6.736
			c-0.043,0.063-0.099,0.09-0.157,0.107L2.559,9.004c0.013,0.005,0.024,0.01,0.035,0.018C2.582,9.057,2.559,9.081,2.547,9.115
			C2.538,9.113,2.531,9.108,2.524,9.102l-0.723,2.023h4.067l1.715-4.799C7.488,6.318,7.433,6.335,7.328,6.361z M2.57,10.222
			c-0.006-0.092,0.166-0.007,0.188-0.07C2.836,10.218,2.611,10.271,2.57,10.222z M3.301,8.809c0.018-0.075,0.085-0.103,0.188-0.094
			C3.467,8.788,3.378,8.794,3.301,8.809z M7.963,4.029C8.05,4.078,8.026,3.975,8.152,4.005C8.084,4.047,8.06,4.132,7.94,4.123
			C7.937,4.081,7.969,4.073,7.963,4.029z M7.658,5.065c-0.041,0.03-0.062,0.079-0.142,0.071C7.502,5.051,7.586,5.065,7.658,5.065z
			 M6.409,4.9c-0.083-0.093,0.14-0.08,0.188-0.117C6.737,4.867,6.447,4.844,6.409,4.9z M6.527,3.228
			C6.463,3.275,6.371,3.292,6.268,3.299C6.295,3.215,6.428,3.239,6.527,3.228z M6.362,4.948C6.252,4.915,5.942,5.156,5.75,5.113
			C5.723,4.994,5.835,5.061,5.891,5.042C6.041,4.991,6.26,4.845,6.362,4.948z M6.386,6.077c0.019,0.149-0.141,0.062-0.188,0.071
			c0.012-0.02,0.024-0.038,0.023-0.071C6.276,6.077,6.331,6.077,6.386,6.077z M6.033,3.345C5.961,3.359,5.873,3.437,5.727,3.44
			C5.773,3.362,5.964,3.327,6.033,3.345z M5.043,5.206C5.18,5.101,5.412,5.148,5.608,5.065C5.692,5.165,5.186,5.239,5.043,5.206z
			 M4.76,3.674c0.046-0.071,0.198-0.037,0.283-0.07C5.009,3.727,4.878,3.623,4.76,3.674z M3.512,8.692
			c0.075-0.084,0.216-0.099,0.354-0.118C3.846,8.696,3.621,8.738,3.512,8.692z M3.748,6.643C3.781,6.58,3.957,6.531,3.936,6.667
			C3.871,6.613,3.82,6.691,3.748,6.643z M3.96,6.572c0.034-0.064,0.227,0.03,0.141-0.094c0.028,0.035,0.098,0.027,0.095,0.094
			C4.179,6.62,4.055,6.558,4.078,6.643C4.004,6.654,4.016,6.58,3.96,6.572z M4.054,8.55C4.132,8.459,4.29,8.421,4.455,8.363
			C4.405,8.51,4.173,8.473,4.054,8.55z M4.549,8.339c0.018-0.094,0.157-0.063,0.211-0.12C4.885,8.276,4.618,8.407,4.549,8.339z
			 M4.902,8.219C4.89,8.107,5.04,8.156,5.09,8.103C5.153,8.174,4.981,8.213,4.902,8.219z M5.444,7.985
			C5.436,7.923,5.476,7.909,5.538,7.914C5.545,7.977,5.505,7.992,5.444,7.985z M5.397,6.806c0.007-0.029,0.059-0.019,0.094-0.022
			c0.004-0.02-0.01-0.021-0.024-0.024c0.021-0.068,0.036,0.057,0.095,0.024C5.53,6.846,5.457,6.83,5.397,6.806z M5.467,6.313
			C4.995,6.256,4.616,6.525,4.172,6.478C4.205,6.39,4.365,6.567,4.336,6.407c0.458-0.048,0.852-0.175,1.319-0.188
			C5.603,6.259,5.488,6.241,5.467,6.313z M5.679,6.242c0.052-0.067,0.1-0.054,0.235-0.07C5.884,6.245,5.792,6.252,5.679,6.242z
			 M5.797,6.62c0.101,0.062,0.099-0.038,0.212-0.023C6.044,6.691,5.789,6.702,5.797,6.62z M5.939,7.796
			c-0.004-0.065,0.057-0.067,0.117-0.07C6.06,7.792,5.999,7.794,5.939,7.796z M6.316,6.572C6.277,6.525,6.197,6.517,6.104,6.526
			c0.063-0.061,0.125-0.066,0.282-0.071C6.364,6.495,6.29,6.484,6.316,6.572z M6.338,7.608c0.015-0.084,0.159-0.039,0.213-0.023
			C6.527,7.678,6.409,7.608,6.338,7.608z M6.88,7.491C6.781,7.478,6.749,7.532,6.668,7.537c0.003-0.107,0.16-0.158,0.236-0.116
			C6.892,7.439,6.88,7.458,6.88,7.491z M6.456,6.478C6.608,6.364,6.77,6.414,6.951,6.407C6.871,6.499,6.573,6.421,6.456,6.478z
			 M6.904,5.937C6.928,5.88,7.024,5.889,7.092,5.912C7.075,5.966,6.96,5.922,6.904,5.937z M7.375,5.842
			C7.357,5.919,7.243,5.9,7.187,5.937C7.214,5.871,7.304,5.864,7.375,5.842z"/>
		<path fill-rule="evenodd" clip-rule="evenodd" d="M13.967,11.123c0.004,0,0.006,0,0.01,0
			C13.973,11.123,13.971,11.123,13.967,11.123z"/>
		<path fill-rule="evenodd" clip-rule="evenodd" d="M18.091,3.864c-0.015,0.041-0.054,0.015-0.047-0.024
			c-0.123,0.098-0.351,0.146-0.542,0.236c-0.18-0.039-0.325,0.109-0.564,0.188c-0.097,0.031-0.211,0.018-0.283,0.048
			c-0.142,0.055-0.352,0.203-0.589,0.211c-0.028,0.004-0.02,0.043-0.024,0.07c-0.442,0.014-0.784,0.289-1.177,0.33
			c-0.028,0.005-0.02,0.043-0.023,0.07c-0.175-0.055-0.306,0.13-0.461,0.153c0.011,0.086-0.007,0.198-0.057,0.347l-0.065,0.181
			c0.024-0.044,0.04-0.096,0.112-0.092c-0.027,0.063-0.047,0.135-0.13,0.143l-0.125,0.347h4.077l0.368-1.047
			c0.213-0.597,0.234-1.03,0.07-1.318c-0.165,0.049-0.334,0.089-0.515,0.11C18.087,3.826,18.055,3.858,18.091,3.864z M15.312,6.032
			c-0.015-0.106,0.147-0.12,0.211-0.071C15.492,6.023,15.375,6,15.312,6.032z M16.466,5.654c0.003-0.052,0.059-0.051,0.117-0.047
			C16.575,5.689,16.521,5.667,16.466,5.654z M16.866,5.537c0-0.024,0-0.048,0-0.071c0.031,0,0.063,0,0.094,0
			C16.968,5.528,16.912,5.526,16.866,5.537z"/>
		<path fill-rule="evenodd" clip-rule="evenodd" d="M13.476,7.856l-0.329,0.917c-0.07,0.199-0.16,0.339-0.28,0.429
			c-0.12,0.1-0.269,0.14-0.438,0.14c-0.18,0-0.29-0.04-0.339-0.129c-0.05-0.09-0.04-0.24,0.03-0.439l1.127-3.143
			c-0.127,0.075-0.413,0.046-0.502,0.212c-0.086-0.02-0.125,0.041-0.165,0c0.018-0.02,0.026-0.053,0.023-0.095
			c0.127,0.017,0.193-0.027,0.283-0.046c-0.017-0.023-0.042-0.037-0.07-0.048c0.151-0.029,0.313-0.093,0.484-0.167
			c0.069-0.196,0.158-0.344,0.276-0.432c0.11-0.089,0.249-0.13,0.429-0.13c0.189,0,0.299,0.041,0.349,0.13v0.001
			c0.068-0.018,0.137-0.029,0.206-0.038c0.043-0.004,0.014-0.08,0.046-0.095c0.173-0.018,0.369-0.065,0.542-0.165
			c0.004,0.024,0.044,0.095,0.047-0.023c0.101,0.031,0.109-0.008,0.164-0.071c0.126,0.01,0.317-0.036,0.424-0.164
			c0.066,0.059,0.144-0.033,0.189,0.023c0.374-0.247,0.985-0.299,1.389-0.541c0.419-0.029,0.796-0.28,1.212-0.356
			c-0.015-0.019-0.027-0.038-0.043-0.057c-0.269-0.278-0.888-0.417-1.844-0.417h-4.187c-0.491,0-0.914,0.043-1.275,0.127
			c-0.036,0.03-0.088,0.048-0.13,0.03c-0.077,0.021-0.151,0.045-0.221,0.069c0.021,0.001,0.041,0.005,0.06,0.015
			c-0.024,0.055-0.137,0.021-0.166,0.07c-0.011-0.016-0.012-0.028-0.006-0.041c-0.109,0.044-0.212,0.092-0.305,0.146
			c-0.469,0.29-0.818,0.769-1.067,1.456L9.365,5.091c0.049-0.04,0.092-0.068,0.083,0.045C9.412,5.122,9.377,5.113,9.353,5.124
			L9.329,5.191c0.001,0.007,0,0.009,0.001,0.015c-0.002,0-0.004,0.002-0.006,0.002L8.75,6.812c0.407-0.141,1.045-0.238,1.452-0.216
			c0.044-0.086,0.146-0.146,0.235-0.07c-0.108,0.082-0.367,0.142-0.564,0.165C9.511,6.733,9.136,6.766,8.745,6.824L7.813,9.431
			c-0.209,0.588-0.169,1.017,0.13,1.285c0.289,0.27,0.857,0.409,1.705,0.409h1.128c0.004-0.012,0.007-0.023,0.006-0.04
			c0.069,0.021,0.072,0.021,0.142,0c0.015,0.009-0.008,0.026-0.042,0.04h2.952c0.007,0,0.014,0,0.021,0
			c-0.011-0.004-0.023-0.008-0.035-0.017c0.017-0.029,0.206-0.055,0.211,0.013c0.811-0.018,1.444-0.146,1.896-0.395
			c0.276-0.146,0.506-0.351,0.695-0.606c-0.142,0.008-0.269,0.154-0.354,0.022c0.163-0.03,0.301-0.086,0.437-0.144
			c0.108-0.168,0.202-0.356,0.278-0.568l0.044-0.125l-0.053-0.01c0.019-0.008,0.04-0.014,0.063-0.021l0.503-1.419H13.476z
			 M16.678,3.299C16.573,3.3,16.54,3.232,16.418,3.251C16.472,3.166,16.639,3.231,16.678,3.299z M16.301,3.275
			c0.045,0.01,0.101,0.009,0.094,0.07C16.333,3.352,16.277,3.354,16.301,3.275z M15.9,3.487C15.824,3.5,15.791,3.47,15.736,3.463
			C15.774,3.417,15.888,3.4,15.9,3.487z M10.719,5.417c0.047,0.024-0.086,0.146-0.141,0.071C10.591,5.431,10.73,5.5,10.719,5.417z
			 M10.719,6.478c0.007,0.056-0.068,0.025-0.07,0.071c-0.042-0.022-0.083-0.044-0.071-0.119C10.659,6.413,10.678,6.457,10.719,6.478
			z M10.625,4.475c0.004-0.02-0.009-0.021-0.023-0.023c0.01-0.058,0.108-0.017,0.071,0.048c-0.112-0.018-0.128,0.06-0.188,0.094
			C10.435,4.55,10.519,4.442,10.625,4.475z M9.707,5.018c-0.097-0.023-0.152,0.059-0.213,0C9.551,4.982,9.687,4.894,9.707,5.018z
			 M9.212,5.96c0.093-0.073,0.23-0.036,0.354-0.094C9.498,5.938,9.329,6.014,9.212,5.96z M9.612,5.867
			C9.626,5.79,9.702,5.833,9.754,5.842C9.733,5.927,9.695,5.845,9.612,5.867z M10.013,4.876c-0.13-0.027-0.128,0.075-0.259,0.047
			c0.062-0.07,0.162-0.104,0.259-0.141C10.083,4.797,9.99,4.833,10.013,4.876z M10.06,5.724c-0.071-0.015,0.022-0.05,0-0.094
			c0.055-0.008,0.09,0.004,0.118,0.023C10.188,5.729,10.07,5.671,10.06,5.724z M10.13,3.864c0.055,0.01,0.1,0.149,0.165,0.07
			C10.329,4.028,10.118,3.999,10.13,3.864z M10.413,5.252C10.372,5.2,10.279,5.2,10.271,5.113c0.074-0.012,0.066,0.059,0.094,0.093
			c0.076,0.007,0.1-0.041,0.189-0.024C10.531,5.278,10.445,5.167,10.413,5.252z M10.453,9.979c0.083,0.008,0.058,0.064,0.141,0.023
			C10.62,10.081,10.397,10.077,10.453,9.979z M10.641,9.979c0.059-0.004,0.114-0.004,0.142,0.023
			C10.782,10.039,10.608,10.055,10.641,9.979z M10.806,9.979c0.004-0.071,0.127-0.05,0.118,0.023
			C10.856,10.022,10.863,9.97,10.806,9.979z M10.955,4.428c-0.098,0.008-0.092-0.03-0.165,0c0.001-0.085,0.124-0.049,0.165-0.093
			C11.025,4.35,10.933,4.385,10.955,4.428z M13.678,9.344c-0.091,0.08-0.257,0.087-0.399,0.116
			C13.349,9.365,13.531,9.337,13.678,9.344z M13.185,9.484c-0.035,0.021-0.206,0.103-0.213,0C13.045,9.44,13.136,9.481,13.185,9.484
			z M12.949,9.484c-0.005,0.114-0.07,0.023-0.141,0.07C12.828,9.503,12.866,9.472,12.949,9.484z M12.156,7.067
			c-0.004-0.077,0.095-0.113,0.141-0.071C12.311,7.081,12.227,7.067,12.156,7.067z M12.415,5.912
			c0.015,0.025,0.054,0.025,0.047,0.071c-0.122-0.072-0.279,0.052-0.4,0c-0.021,0.075,0.037,0.074,0.071,0.094
			c-0.089-0.002,0.024,0.062,0.024,0.165c-0.099,0.005-0.077-0.112-0.118-0.165c-0.216,0.017-0.494,0.309-0.637,0.165
			c0.486-0.138,0.787-0.369,1.155-0.423C12.516,5.858,12.498,5.918,12.415,5.912z M11.873,5.489
			c-0.05-0.035-0.077-0.096-0.165-0.095c-0.01-0.048,0.016-0.062,0.023-0.094c0.045,0.011,0.043,0.066,0.118,0.046
			C11.832,5.418,11.874,5.433,11.873,5.489z M11.896,5.537c-0.004-0.052,0.083-0.012,0.118-0.024
			c-0.012,0.02-0.024,0.038-0.023,0.07C11.926,5.6,11.944,5.537,11.896,5.537z M12.132,4.783c0.068-0.009,0.205-0.028,0.259-0.024
			c-0.089,0.014-0.092,0.112-0.211,0.095C12.188,4.805,12.175,4.779,12.132,4.783z M12.651,4.688
			c0.037-0.075,0.127-0.133,0.212-0.095C12.777,4.611,12.749,4.686,12.651,4.688z M13.922,4.099
			c0.101,0.024,0.091,0.014,0.165-0.023C14.11,4.148,13.913,4.191,13.922,4.099z M14.982,3.674c0.035,0.021,0.034,0.076,0.047,0.119
			c-0.068,0.004-0.129,0.002-0.118-0.071C14.952,3.724,14.972,3.706,14.982,3.674z M14.676,3.864
			c0.068,0.085-0.147,0.088-0.235,0.094C14.453,3.86,14.632,3.928,14.676,3.864z M14.417,3.958
			c-0.023,0.058-0.227,0.054-0.165,0.118c-0.002,0.03-0.14,0.002-0.118-0.07C14.253,4.075,14.274,3.934,14.417,3.958z M13.381,3.417
			c0.294-0.053,0.557-0.258,0.825-0.26c-0.314,0.176-0.586,0.235-0.872,0.33C13.232,3.417,13.462,3.456,13.381,3.417z M13.215,3.463
			c0,0.031,0,0.062,0,0.095c-0.322,0-0.496,0.271-0.8,0.211C12.739,3.656,12.896,3.613,13.215,3.463z M12.438,3.793
			c0,0.023,0,0.046,0,0.07c-0.058,0.003-0.113,0.004-0.141-0.024C12.3,3.781,12.375,3.793,12.438,3.793z M12.085,3.911
			c0.023,0,0.018-0.029,0.024-0.047c0.042-0.002,0.05,0.028,0.094,0.023c-0.01,0.038-0.074,0.02-0.046,0.095
			c-0.075-0.005-0.14-0.017-0.142-0.095C12.052,3.88,12.055,3.91,12.085,3.911z M12.062,4.83C12.07,4.909,11.96,4.869,11.92,4.9
			c-0.01-0.021-0.021-0.042-0.047-0.047C11.916,4.759,11.965,4.885,12.062,4.83z M11.732,4.853c0.03,0.033,0.111,0.015,0.141,0.047
			c-0.033,0.049-0.081-0.023-0.141,0.023C11.732,4.9,11.732,4.876,11.732,4.853z M11.662,4.005c0.031,0.006,0.019,0.058,0.023,0.094
			c-0.037,0.002-0.089-0.011-0.094,0.023c-0.032-0.015-0.044-0.051-0.047-0.094C11.599,4.037,11.645,4.08,11.662,4.005z
			 M11.756,5.136c-0.167,0.031-0.12-0.147-0.259-0.143C11.579,4.829,11.662,5.098,11.756,5.136z M11.332,4.452
			c0.069,0.042,0.185,0.036,0.188,0.142C11.424,4.58,11.36,4.533,11.332,4.452z M11.52,4.076c-0.042,0.061-0.107,0.096-0.211,0.095
			C11.33,4.09,11.463,4.122,11.52,4.076z M11.285,5.136c-0.037,0.119,0.091-0.079,0.188-0.048c-0.05,0.036-0.088,0.084-0.141,0.117
			c-0.098,0.027-0.092-0.05-0.165-0.046C11.163,5.108,11.25,5.148,11.285,5.136z M11.229,9.862c0.373,0.003,0.762-0.176,1.271-0.26
			c-0.089,0.086-0.298,0.142-0.423,0.117C11.821,9.814,11.455,9.967,11.229,9.862z M11.465,10.92
			c0.058-0.026,0.167-0.079,0.211-0.048C11.645,10.881,11.585,10.938,11.465,10.92z M11.842,10.803
			c0.081-0.043,0.242-0.108,0.306-0.094C12.061,10.748,11.914,10.827,11.842,10.803z M12.384,10.568
			c0.074,0.011,0.083-0.043,0.164-0.023C12.586,10.63,12.369,10.654,12.384,10.568z M12.784,9.554
			c-0.049,0.038-0.125,0.051-0.211,0.047C12.63,9.542,12.712,9.544,12.784,9.554z M12.595,10.52
			c-0.009-0.057,0.108,0.014,0.071-0.07c0.057,0.043,0.16-0.053,0.165,0.07C12.726,10.494,12.659,10.578,12.595,10.52z
			 M12.832,10.45c0.026-0.047,0.229-0.133,0.259-0.022C12.967,10.393,12.918,10.52,12.832,10.45z M13.185,10.332
			c0.189-0.068,0.375-0.142,0.565-0.213C13.713,10.24,13.344,10.334,13.185,10.332z M15.587,9.602
			c-0.232-0.001-0.27,0.05-0.448,0.094C15.23,9.634,15.525,9.464,15.587,9.602z M15.092,9.719c-0.016,0.023-0.094,0.023-0.188,0.023
			C14.923,9.69,15.048,9.68,15.092,9.719z M14.888,9.093c0.074-0.012,0.076,0.049,0.07,0.116C14.884,9.221,14.883,9.16,14.888,9.093
			z M14.385,9.155c0.072-0.002,0.155-0.014,0.141,0.07C14.51,9.171,14.363,9.247,14.385,9.155z M14.457,9.861
			c0.131,0.054-0.129,0.137-0.188,0.071C14.315,9.846,14.44,9.943,14.457,9.861z M13.843,9.273c0.059-0.013,0.134-0.023,0.26-0.023
			C14.085,9.304,13.834,9.341,13.843,9.273z M14.009,10.143c-0.035-0.026-0.105-0.02-0.094-0.093c0.092,0.03,0.047-0.078,0.14-0.048
			C14.068,10.077,14.023,10.095,14.009,10.143z M14.08,10.027c0.044-0.086,0.063-0.052,0.165-0.071
			C14.246,10.036,14.157,10.026,14.08,10.027z M14.15,11.016c0.035-0.116,0.178-0.097,0.235-0.025
			C14.31,11.055,14.265,11.008,14.15,11.016z M14.503,10.969c-0.088,0.024-0.067-0.06-0.141-0.049
			c0.036-0.05,0.162-0.01,0.188-0.069C14.597,10.862,14.53,10.953,14.503,10.969z M14.879,10.733
			c-0.007-0.123,0.136,0.05,0.095-0.095c0.044-0.022,0.079,0.071,0.095,0c0.034,0.006,0.008,0.071,0.047,0.071
			C15.083,10.762,14.952,10.718,14.879,10.733z M15.116,10.638c0.022-0.047,0.09-0.051,0.165-0.046
			C15.303,10.687,15.153,10.672,15.116,10.638z M16.035,10.263c-0.059,0.167-0.348,0.106-0.424,0.257
			c-0.097-0.018-0.121,0.037-0.212,0.024c0.261-0.139,0.53-0.271,0.848-0.353C16.216,10.241,16.105,10.332,16.035,10.263z
			 M15.94,9.484c0.096-0.062,0.212-0.143,0.353-0.095C16.208,9.455,16.097,9.492,15.94,9.484z M16.317,9.413
			c0.019-0.049,0.097-0.091,0.142-0.045C16.436,9.407,16.384,9.419,16.317,9.413z M16.623,9.344
			c0.046-0.056,0.167-0.003,0.236-0.024C16.803,9.408,16.728,9.37,16.623,9.344z"/>
		<path fill-rule="evenodd" clip-rule="evenodd" d="M25.062,4.523c-0.173,0.125-0.315,0.279-0.45,0.443h1.785l0.28-0.773
			c-0.009-0.012-0.019-0.021-0.037-0.022c0.012-0.023,0.033-0.028,0.054-0.021l0.361-0.997h-0.625
			c-0.431,0.418-0.856,0.843-1.32,1.231C25.116,4.451,25.056,4.455,25.062,4.523z"/>
		<path fill-rule="evenodd" clip-rule="evenodd" d="M18.656,10.057c0.008,0.064-0.022,0.287,0.023,0.235
			C18.67,10.23,18.701,10.007,18.656,10.057z"/>
		<path fill-rule="evenodd" clip-rule="evenodd" d="M22.895,7.137c0.042-0.004,0.05,0.028,0.094,0.023
			c-0.05-0.176,0.089-0.302,0.189-0.401c0.021-0.181,0.078-0.329,0.211-0.398c0.002-0.095,0.041-0.31,0.165-0.354
			c-0.001-0.066,0.013-0.117,0.032-0.163h0l0.319-0.877h0.458c0.028-0.032,0.051-0.067,0.063-0.113c0.055,0,0.069-0.041,0.141-0.023
			c0.292-0.305,0.511-0.809,0.919-0.919c0.183-0.081,0.422-0.213,0.353-0.471c0.04-0.009,0.044,0.019,0.047,0.047
			c0.069-0.104,0.149-0.223,0.245-0.335h-5.645l-2.851,7.974h6.569l0.647-1.814H22.35l0.22-0.618
			c-0.015-0.01-0.026-0.024-0.029-0.049c0.018-0.018,0.036-0.023,0.054-0.021l0.343-0.967h2.502l0.647-1.813h-2.3
			c-0.252,0.603-0.603,1.107-0.893,1.672C22.851,7.436,22.923,7.276,22.895,7.137z M18.703,10.435
			c-0.032,0.004-0.03-0.137-0.071-0.048c-0.051-0.298,0.012-0.598,0.047-0.918C18.811,9.697,18.715,10.135,18.703,10.435z
			 M19.787,7.161c-0.041-0.014,0.001-0.112-0.048-0.118c0.004-0.051,0.101-0.009,0.142-0.022c-0.035,0.092,0.069,0.138,0.047,0.022
			C19.994,7.151,19.865,7.148,19.787,7.161z M24.002,10.67c0.055,0.035,0.043,0.05,0.118,0.023
			c-0.002,0.063-0.139,0.071-0.024,0.117C24.026,10.895,23.979,10.758,24.002,10.67z M23.813,10.836
			c-0.131-0.035-0.146,0.135-0.235,0.069C23.6,10.834,23.798,10.694,23.813,10.836z M22.636,10.765
			c0.076-0.03,0.018,0.076,0.094,0.046c-0.012,0.06,0,0.144-0.07,0.142C22.692,10.846,22.569,10.836,22.636,10.765z M22.73,6.242
			c0.06,0.025,0.046,0.128,0.047,0.213C22.683,6.464,22.752,6.307,22.73,6.242z M22.754,6.218c-0.08-0.04-0.006-0.13-0.047-0.235
			C22.784,5.997,22.794,6.162,22.754,6.218z M22.66,5.417c-0.062-0.077,0.004-0.229,0.023-0.305
			c-0.037-0.119-0.109,0.058-0.142-0.048c0.097-0.06-0.001-0.113-0.023-0.235C22.707,4.902,22.746,5.206,22.66,5.417z M22.425,4.712
			c-0.088-0.038-0.132-0.12-0.189-0.189C22.346,4.538,22.386,4.625,22.425,4.712z M20.823,9.705c0.036-0.173,0.14-0.15,0.33-0.142
			C21.088,9.655,20.918,9.643,20.823,9.705z M21.247,3.299c0.062-0.007,0.118-0.009,0.094,0.07
			C21.279,3.375,21.24,3.361,21.247,3.299z M21.294,4.099c0.086,0.019,0.143-0.126,0.258-0.07c-0.032,0.077-0.133,0.086-0.212,0.118
			C21.331,4.126,21.32,4.105,21.294,4.099z M21.458,9.303C21.49,9.25,21.515,9.189,21.6,9.185
			C21.594,9.266,21.549,9.308,21.458,9.303z M21.764,9.281c-0.071,0.017-0.069-0.041-0.14-0.022
			C21.633,9.213,21.799,9.162,21.764,9.281z M21.647,4.123c0.27,0.201,0.494,0.448,0.706,0.707
			C22.125,4.682,21.825,4.4,21.647,4.123z M22.307,9.022c0.027-0.075,0.039-0.165,0.141-0.165
			C22.421,8.932,22.409,9.022,22.307,9.022z M22.471,8.034c0.078-0.246,0.176-0.47,0.331-0.637
			C22.922,7.61,22.692,8.013,22.471,8.034z"/>
		<path fill-rule="evenodd" clip-rule="evenodd" d="M36.774,4.966l0.656-1.814h-6.568L29.744,6.28
			c0.054,0.006,0.138,0.052,0.194,0.057c-0.049,0.048-0.146,0.008-0.204-0.027l-1.722,4.816h4.067l1.196-3.359
			c-0.026,0.014-0.057,0.021-0.088,0.03c0.014-0.072,0.126-0.047,0.095-0.165c0.023,0,0.046,0,0.071,0
			c0,0.01-0.002,0.018-0.004,0.025h0.83c0.006-0.049,0.045-0.063,0.067-0.097c0.033,0.017,0.029,0.065,0.005,0.097h1.565
			l0.647-1.813h-2.502l0.317-0.877H36.774z M29.771,7.985c0.063-0.006,0.079,0.033,0.072,0.094
			C29.781,8.086,29.767,8.047,29.771,7.985z M29.584,8.55c0.044-0.059,0.083,0.022,0.14-0.023c-0.04,0.03-0.061,0.08-0.14,0.071
			C29.599,8.577,29.613,8.555,29.584,8.55z M29.561,8.079c0.01,0.074-0.021,0.105-0.094,0.096
			C29.495,8.138,29.487,8.069,29.561,8.079z M29.537,8.55c0.005,0.079-0.087,0.122-0.142,0.071
			C29.416,8.572,29.455,8.539,29.537,8.55z M29.09,8.739c-0.033-0.008-0.021-0.059-0.024-0.095c0.031,0,0.062,0,0.094,0
			C29.18,8.72,29.082,8.677,29.09,8.739z M29.395,9.728c0.018-0.073,0.018-0.046,0-0.117c0.05-0.01,0.062,0.015,0.095,0.023
			c-0.006,0.024-0.047,0.015-0.048,0.048c0.033,0.046,0.122-0.051,0.188-0.048C29.602,9.715,29.493,9.715,29.395,9.728z
			 M29.678,9.682c-0.017-0.073-0.017-0.047,0-0.119c0.104-0.01,0.078,0.072,0.165,0.023c-0.003,0.027,0.005,0.042,0.024,0.048
			C29.817,9.715,29.754,9.637,29.678,9.682z M31.891,6.455c-0.092,0.082-0.184-0.033-0.235-0.07
			C31.72,6.329,31.774,6.484,31.891,6.455z M29.938,9.516c0.073-0.011,0.062,0.062,0.119,0.07
			C30.023,9.647,29.902,9.601,29.938,9.516z M30.172,10.976c-0.036,0.048-0.258,0.132-0.259,0c0.053-0.017,0.185,0.042,0.165-0.047
			C30.145,10.918,30.267,11.039,30.172,10.976z M30.291,9.563c0-0.023,0-0.047,0-0.071c0.062-0.001,0.171-0.031,0.258,0
			C30.547,9.635,30.341,9.516,30.291,9.563z M30.832,3.345c-0.002-0.073,0.071-0.07,0.142-0.07
			C30.952,3.324,30.903,3.347,30.832,3.345z M31.068,3.228c0.021-0.049,0.069-0.072,0.14-0.071
			C31.203,3.224,31.103,3.261,31.068,3.228z M31.445,8.857c-0.032,0-0.064,0-0.095,0C31.333,8.766,31.463,8.766,31.445,8.857z
			 M31.35,9.327c0-0.023,0-0.046,0-0.068c0.067,0.017,0.062-0.033,0.118-0.025C31.411,9.247,31.447,9.353,31.35,9.327z
			 M31.515,8.174c0-0.032,0-0.062,0-0.096c0.024,0,0.047,0,0.071,0C31.592,8.141,31.577,8.181,31.515,8.174z M31.703,8.88
			c-0.06-0.003-0.046-0.079-0.047-0.142c0.046,0.043,0.059,0.003,0.119,0C31.794,8.83,31.705,8.811,31.703,8.88z M31.75,7.537
			c-0.06-0.002-0.047-0.077-0.047-0.14C31.789,7.375,31.736,7.489,31.75,7.537z M31.891,8.574c0.05-0.05,0.077,0.004,0.119,0.024
			C32.014,8.635,31.856,8.645,31.891,8.574z M32.292,7.374c-0.016-0.085,0.002-0.118-0.071-0.048c-0.109-0.241-0.568-0.321-0.8-0.52
			c0.39,0.058,0.696,0.429,1.036,0.379c0.011-0.058-0.042-0.052-0.022-0.118C32.65,7.166,32.405,7.326,32.292,7.374z M34.742,7.28
			c-0.066-0.006-0.101-0.042-0.094-0.119c0.039,0,0.079,0,0.117,0C34.784,7.228,34.732,7.222,34.742,7.28z M34.648,6.43
			c-0.066,0.104-0.011,0.087,0.022,0.189C34.578,6.636,34.524,6.421,34.648,6.43z M34.459,6.171
			c0.018,0.022,0.025,0.053,0.023,0.095c-0.04,0.009-0.044-0.019-0.048-0.048c-0.076-0.028-0.018,0.076-0.094,0.048
			C34.338,6.193,34.402,6.185,34.459,6.171z M33.258,6.125c0.051,0.054,0.083-0.016,0.069-0.093c0.017,0,0.032,0,0.048,0
			C33.372,6.05,33.384,6.052,33.4,6.055C33.368,6.1,33.28,6.279,33.258,6.125z M33.422,5.889c0.058,0.013,0.121,0.021,0.118,0.094
			C33.461,5.994,33.407,5.976,33.422,5.889z M33.516,6.714c-0.033-0.022,0.008-0.165,0.024-0.213
			C33.605,6.553,33.533,6.665,33.516,6.714z M33.658,7.185c-0.035-0.13,0.086-0.104,0.096-0.189
			C33.827,6.991,33.731,7.185,33.658,7.185z M33.706,6.854c0.046-0.057,0.061-0.144,0.165-0.14
			C33.833,6.778,33.817,6.864,33.706,6.854z M33.846,7.067c0-0.062-0.008-0.134,0.024-0.165C33.904,6.909,33.925,7.095,33.846,7.067
			z M34.129,7.491c0.086-0.021,0.031,0.133-0.023,0.117C34.086,7.542,34.139,7.548,34.129,7.491z M33.964,7.374
			c0.048,0.02-0.015,0.124-0.024,0.163C33.875,7.501,33.938,7.397,33.964,7.374z M34.247,3.864c-0.013,0.05-0.048,0.076-0.07,0.118
			C34.117,3.95,34.162,3.829,34.247,3.864z M34.224,4.029c-0.018-0.065,0.046-0.048,0.046-0.095
			c0.081,0.052,0.195,0.071,0.189,0.213c-0.031-0.041-0.134-0.009-0.165-0.048c0.008-0.032,0.059-0.019,0.094-0.023
			C34.388,3.958,34.318,4.052,34.224,4.029z"/>
		<path fill-rule="evenodd" clip-rule="evenodd" d="M14.033,11.132c0-0.004-0.001-0.007-0.001-0.011c-0.018,0-0.036,0-0.054,0.001
			C13.994,11.123,14.012,11.125,14.033,11.132z"/>
		<path fill-rule="evenodd" clip-rule="evenodd" d="M13.967,11.123c-0.037,0.001-0.073,0.003-0.111,0.003
			C13.896,11.136,13.927,11.125,13.967,11.123z"/>
		<polygon fill-rule="evenodd" clip-rule="evenodd" points="17.016,9.302 17.029,9.306 17.03,9.302 		"/>
	</g>
	<g>
		<path d="M53.583,10.881c-0.027,0.096-0.061,0.184-0.122,0.244h1.822c0.077-0.07,0.148-0.149,0.213-0.234l0.054-0.152
			c-0.028,0.005-0.064,0.043-0.104,0.026c0.011-0.123,0.005-0.226-0.143-0.189c0.017-0.064-0.047-0.046-0.047-0.094
			c-0.001-0.071,0.021-0.121,0.07-0.142c-0.017-0.075-0.062-0.031-0.118-0.023c-0.052,0.014,0.029,0.036-0.023,0.07
			c-0.069-0.041-0.11-0.108-0.212-0.117c-0.033,0.008-0.002,0.041,0.024,0.047c-0.054,0.081-0.044-0.096-0.143-0.047
			c-0.073,0.25-0.429,0.511-0.424,0.095c-0.156,0.073-0.156-0.165-0.211-0.048c-0.11-0.027,0-0.123-0.119-0.071
			c0.008-0.069-0.052-0.072-0.045-0.142c0.081-0.019,0.093-0.109,0.164-0.14c0.003,0.077,0.047,0.102-0.023,0.14
			c0.017,0.126,0.227,0.071,0.165,0.213c0.075-0.01,0.068-0.104,0.165-0.095c0.008,0.095,0,0.175-0.048,0.213
			c0.073,0.011,0.113-0.056,0.071,0.022c0.133-0.08,0.075-0.286,0.233-0.377c-0.024-0.134-0.088-0.086-0.187-0.142
			c0.016-0.071,0.016-0.044,0-0.116c0.187-0.056,0.058-0.181,0.047-0.331c-0.004-0.052-0.06,0.03-0.117,0
			c0.001-0.064-0.039-0.047,0-0.094c0.065,0.044,0.033,0.077,0.141,0.048c0.021-0.019,0.035-0.043,0.048-0.071
			c-0.083-0.075-0.119-0.194-0.284-0.189c-0.026,0.029,0.059,0.146,0.071,0.213c-0.062-0.053-0.119,0.036-0.165-0.023
			c-0.048,0.055-0.066,0.138-0.094,0.212c-0.073-0.017-0.031-0.062-0.023-0.117c-0.029,0.026-0.05,0.021-0.048-0.023
			c-0.085,0.117-0.178-0.045-0.258,0c-0.085-0.145,0.159-0.18,0.118-0.284c0.116,0.198,0.235-0.06,0.211,0.165
			c0.037-0.006,0.041,0.023,0.07,0.024c0.013-0.045,0.021-0.121,0.048-0.166c-0.072-0.023-0.113-0.075-0.213-0.07
			c-0.04-0.166,0.179-0.072,0.165-0.211c0.174,0.001,0.443-0.176,0.589-0.141c0.018,0.079-0.096,0.029-0.071,0.117
			c0.004,0.044,0.08,0.015,0.095,0.048c-0.008,0.077-0.041,0.132-0.095,0.165c-0.071-0.008-0.105-0.052-0.164-0.071
			c-0.063-0.018-0.047,0.047-0.094,0.048c0.018,0.021,0.043,0.034,0.07,0.045c0.025-0.003,0.014-0.021,0-0.021
			c0.049-0.056,0.098,0.104,0.188,0.021c0.004,0.045,0.016,0.08,0.049,0.095c0.125-0.087,0.266-0.177,0.328-0.353
			c0.108,0.037-0.015,0.082-0.023,0.14c0.025,0.144,0.106,0.21,0.236,0.188c-0.075,0.073-0.271,0.234-0.071,0.307
			c0.077-0.041,0.057-0.177,0.096-0.259c0.092,0.036,0.101,0.217,0.233,0.142c-0.045,0.048-0.078,0.109-0.14,0.142
			c0.007,0.056,0.028,0.098,0.047,0.142c0.038-0.005,0.107,0.02,0.098-0.034c0.019,0.074-0.026,0.059,0.042,0.152
			c-0.018-0.014-0.038-0.024-0.068-0.024c-0.017,0.146,0.083,0.178,0.167,0.225l0.255-0.71c-0.005-0.035,0.008-0.055,0.024-0.069
			l0.044-0.125c0.022-0.058,0.039-0.114,0.057-0.171c-0.009-0.007-0.02-0.016-0.03-0.021c0.001-0.029,0.025-0.044,0.053-0.047
			c0.171-0.56,0.194-0.989,0.071-1.297c-0.14-0.338-0.488-0.568-1.057-0.678c0.232-0.039,0.445-0.091,0.641-0.152
			c0.028-0.021,0.064-0.035,0.11-0.038c0.298-0.106,0.55-0.238,0.755-0.397c0.358-0.277,0.638-0.688,0.827-1.227
			c0.239-0.678,0.209-1.156-0.09-1.455C57.185,3.3,56.567,3.152,55.62,3.152h-6.589l-0.462,1.294
			c0.006-0.006,0.015-0.01,0.021-0.018c0.004,0.036-0.016,0.069-0.053,0.1l-2.218,6.207c0.005-0.003,0.009-0.008,0.009-0.019
			c0.062,0.003,0.034,0.094,0.095,0.095c-0.037,0.06-0.092,0.017-0.124-0.021l-0.065,0.188c0.003,0.012,0.004,0.026,0.001,0.045
			c-0.007,0.002-0.014,0-0.017-0.001l-0.037,0.103h1.677c0.001-0.051,0.01-0.108,0.002-0.149c0.032,0.029,0.041,0.089,0.038,0.149
			h2.35l1.175-3.29h0.449c0.22,0,0.35,0.041,0.408,0.13c0.062,0.08,0.052,0.229-0.028,0.438l-0.968,2.722h2.073
			c0.021-0.078,0.041-0.151,0.061-0.22C53.5,10.924,53.508,10.871,53.583,10.881z M55.184,10.694
			c0.006,0.168,0.151-0.045,0.095-0.07c0.022-0.037,0.113,0.059,0.142,0.093c-0.045-0.044-0.043,0.016-0.118,0
			c0.058,0.133-0.065,0.132-0.047,0.283c-0.075,0.004-0.104,0.053-0.188,0.048C54.94,10.929,55.037,10.732,55.184,10.694z
			 M55.019,10.552C54.965,10.753,54.829,10.441,55.019,10.552L55.019,10.552z M54.549,10.034c0.013-0.08,0.113-0.035,0.165-0.021
			c-0.005,0.025-0.043,0.019-0.071,0.021c0.008,0.056-0.004,0.092-0.022,0.118c-0.02-0.012-0.041-0.024-0.071-0.023
			C54.526,10.084,54.62,10.05,54.549,10.034z M56.198,8.151c0.145,0.021,0.127,0.143,0,0.118C56.18,8.195,56.18,8.222,56.198,8.151z
			 M56.55,6.171c0.061,0.026,0.056,0.136-0.047,0.118C56.486,6.217,56.568,6.245,56.55,6.171z M56.08,6.218
			c0.106,0.011,0.1,0.065,0.212,0.023c0.003,0.098-0.094,0.095-0.07,0.213C56.112,6.472,56.022,6.356,56.08,6.218z M56.008,6.29
			c-0.071-0.016-0.045-0.016-0.117,0c-0.004-0.044-0.016-0.078-0.047-0.094C55.88,6.153,56.018,6.208,56.008,6.29z M54.43,8.715
			c-0.009,0.051,0.034,0.046,0.071,0.048c-0.021,0.033-0.036,0.074-0.094,0.069c0-0.046,0-0.094,0-0.141
			c0.042,0.003,0.049-0.029,0.094-0.023c0,0.023-0.028,0.018-0.048,0.023C54.512,8.733,54.493,8.752,54.43,8.715z M54.997,8.009
			c-0.04,0-0.079,0-0.117,0c-0.002-0.061,0.017-0.029,0.046-0.024c0.004-0.027-0.005-0.041-0.023-0.047
			c0.008-0.032,0.059-0.019,0.095-0.024C54.997,7.947,54.997,7.977,54.997,8.009z M55.326,8.952
			c0.055-0.008,0.091,0.002,0.119,0.022C55.441,9.045,55.303,9.038,55.326,8.952z M55.445,8.833c0.08-0.01,0.08,0.06,0.115,0.096
			C55.519,8.991,55.421,8.913,55.445,8.833z M56.103,7.608c0.057,0.031-0.052-0.011-0.095,0.023
			c0.017-0.038-0.047-0.101-0.047-0.047C55.885,7.458,56.1,7.54,56.103,7.608z M56.033,8.809c-0.011,0.014-0.053,0.205,0.023,0.143
			c0.058,0.015,0.004,0.108-0.023,0.118c-0.122-0.01-0.03-0.106-0.119-0.118C55.919,8.87,55.934,8.797,56.033,8.809z M55.961,9.281
			c-0.044-0.045,0.014-0.043,0-0.119c0.034,0.021,0.075,0.036,0.071,0.097c-0.08,0.006-0.094,0.077-0.119,0.14
			c-0.028-0.071-0.103,0.015-0.093-0.117C55.908,9.284,55.887,9.307,55.961,9.281z M55.585,7.067
			c0.078,0.015,0.082,0.106,0.14,0.142c-0.02,0.069-0.059-0.03-0.117,0c-0.008,0.056,0.107-0.014,0.07,0.071
			c-0.025-0.021-0.062-0.032-0.118-0.024C55.606,7.185,55.554,7.109,55.585,7.067z M55.445,8.598
			c0.004,0.019,0.023,0.023,0.022,0.046c0.124-0.037,0.029-0.146,0.166-0.165c-0.014,0.02-0.026,0.04-0.025,0.071
			c0.038-0.077,0.148,0.064,0.142-0.047c0.032,0,0.063,0,0.095,0c0.027,0.027,0.026,0.084,0.023,0.141
			c-0.115,0.015-0.09,0.047-0.189,0.048c-0.011,0.088,0.109,0.104-0.021,0.188c0.006,0.032,0.058,0.02,0.093,0.023
			c-0.016,0.047-0.062,0.063-0.116,0.07c0.007-0.138-0.301-0.194-0.213-0.259c-0.132-0.059-0.08,0.043-0.282-0.047
			c0.046-0.206,0.213-0.148,0.375-0.236C55.544,8.541,55.47,8.547,55.445,8.598z M55.373,6.902c-0.012,0.035-0.035,0.06-0.047,0.094
			c-0.021-0.015-0.042-0.027-0.047,0C55.229,6.976,55.314,6.891,55.373,6.902z M55.279,7.584c-0.015,0.021-0.029,0.042,0,0.047
			c-0.105,0.014-0.08,0.155-0.164,0.188c-0.053-0.002-0.01-0.1-0.024-0.14c-0.047,0-0.094,0-0.142,0
			c-0.019-0.021-0.024-0.055-0.023-0.096c-0.002,0-0.005,0-0.008,0c-0.008,0.011-0.014,0.019-0.016,0.023
			c0.002-0.012,0.004-0.023,0.016-0.023c0.036-0.046,0.128-0.138,0.197-0.164c0.051,0.049-0.014,0.067,0,0.14
			C55.15,7.635,55.255,7.532,55.279,7.584z M55.161,7.161c0.041,0.006,0.054,0.042,0.047,0.095
			c-0.021,0.019-0.052,0.024-0.093,0.024C55.096,7.207,55.195,7.25,55.161,7.161z M54.972,3.417
			c-0.002,0.06-0.034,0.091-0.093,0.093C54.881,3.451,54.914,3.418,54.972,3.417z M55.019,7.397c-0.051,0.157-0.176,0-0.281,0.094
			c-0.025-0.069-0.048-0.103-0.117-0.07C54.69,7.307,54.938,7.318,55.019,7.397z M53.984,8.715c0.074-0.054-0.051-0.104-0.023-0.188
			c0.054-0.034,0.044-0.05,0.118-0.023c-0.004-0.114,0.021-0.197,0.069-0.261c0.075-0.018,0.048,0.063,0.095,0.071
			c0.074,0.013,0.097-0.028,0.118-0.071c-0.04-0.021-0.06-0.063-0.048-0.14c0.108,0.017,0.2-0.173,0.33-0.213
			c-0.023-0.029-0.04-0.07-0.07-0.094c-0.013-0.033,0.092-0.057,0.023-0.07c0.114-0.057,0.177,0.06,0.329,0
			C54.9,7.81,54.846,7.867,54.714,7.844c-0.007,0.032-0.052,0.086-0.048,0.189c-0.074,0.003-0.08,0.076-0.165,0.069
			c-0.015,0.086,0.05,0.09,0.048,0.166c-0.033,0.044-0.114,0.042-0.165,0.07c0.069,0.078,0.103,0.188,0.212,0.188
			c-0.071,0.036-0.014,0.071-0.047,0.117c-0.081-0.11-0.165-0.097-0.283-0.141c-0.014,0.061,0.009,0.085,0.07,0.07
			c0.003,0.121-0.185,0.051-0.141,0.213C54.086,8.799,54.014,8.78,53.984,8.715c-0.036-0.001-0.033,0.141-0.049,0.023
			c-0.086,0.087,0.127,0.077,0.071,0.213c-0.204,0.054-0.148-0.148-0.329-0.119C53.722,8.707,53.897,8.687,53.984,8.715z
			 M53.725,4.076c0.016,0.072-0.025,0.086-0.024,0.143c-0.121,0.013,0-0.085-0.094-0.071C53.622,4.099,53.669,4.083,53.725,4.076z
			 M53.442,9.115C53.407,8.995,53.499,9,53.511,8.928c0.021-0.006,0.023,0.009,0.025,0.023c0.064,0.054,0.186-0.032,0.306,0
			c0.001,0.146-0.063,0.273-0.235,0.307c0.039,0.021,0.069,0.072,0.023,0.116c-0.033-0.005-0.044-0.099-0.048,0
			c-0.056-0.062-0.141-0.096-0.165-0.189c0.022-0.017,0.055-0.023,0.094-0.023C53.523,9.113,53.478,9.119,53.442,9.115z
			 M50.921,3.934c0.03,0.01,0.05,0.029,0.047,0.071c-0.223,0.108-0.466,0.192-0.73,0.259C50.423,4.059,50.703,4.095,50.921,3.934z
			 M48.944,7.914c0.006,0.063-0.033,0.078-0.095,0.071C48.85,7.922,48.903,7.872,48.944,7.914z M48.755,6.831
			c0.01,0.051-0.017,0.063-0.023,0.095c-0.033-0.008-0.036-0.041-0.072-0.046C48.675,6.847,48.711,6.833,48.755,6.831z M48.66,6.951
			c-0.056,0-0.067-0.042-0.141-0.025C48.53,6.816,48.651,6.873,48.66,6.951z M48.519,6.714c0.121,0.002,0.049,0.092,0.023,0.14
			C48.49,6.852,48.535,6.754,48.519,6.714z M48.025,7.608c0.08,0.01,0.056,0.154-0.047,0.118
			C47.958,7.652,48.014,7.654,48.025,7.608z M47.578,9.823c0.045-0.036-0.049,0.161-0.118,0.164
			C47.422,9.856,47.561,9.9,47.578,9.823z M46.635,10.387c0.142,0.048,0.407,0.175,0.494,0.353
			C46.935,10.663,46.682,10.538,46.635,10.387z M47.201,10.811c0-0.023,0-0.046,0-0.071c0.076,0.031,0.051,0.035,0.118,0.048
			C47.323,10.838,47.234,10.799,47.201,10.811z M47.389,10.104c-0.061-0.006,0.032-0.04,0-0.092
			c0.067,0.002,0.111,0.028,0.095,0.116C47.431,10.118,47.424,10.005,47.389,10.104z M47.507,11.094
			c-0.05-0.037-0.008-0.163-0.048-0.213c0.052-0.044,0.125,0.032,0.164,0.071C47.623,11.038,47.534,11.036,47.507,11.094z
			 M47.696,9.658c-0.068-0.033,0.04-0.081,0.022-0.142C47.812,9.54,47.715,9.611,47.696,9.658z M47.765,8.103
			c0.088,0.023,0.198,0.023,0.213,0.116C47.903,8.266,47.774,8.199,47.765,8.103z M47.93,10.598
			c-0.054-0.048,0.013-0.173,0.023-0.233C48.028,10.43,47.938,10.535,47.93,10.598z M47.978,10.27
			c-0.005-0.209,0.099-0.513,0.117-0.778C48.167,9.683,48.052,10.069,47.978,10.27z M49.25,9.022c0,0.078-0.078,0.08-0.073,0.163
			c-0.285,0.179-0.395,0.656-0.799,0.638c0.467-0.272,0.749-0.728,1.083-1.131c0.027,0.003,0.019,0.043,0.023,0.071
			C49.403,8.844,49.357,8.963,49.25,9.022z M49.485,8.009C49.447,7.916,49.587,8,49.579,7.938
			C49.649,7.972,49.551,8.034,49.485,8.009z M49.531,8.644c0.027-0.084,0.082-0.139,0.165-0.165
			C49.693,8.579,49.593,8.677,49.531,8.644z M49.957,4.405C50,4.326,50.083,4.281,50.192,4.264
			C50.172,4.371,50.046,4.371,49.957,4.405z M50.238,7.868c0.021-0.005,0.023,0.01,0.023,0.022c0.042-0.02,0.043-0.081,0.071-0.117
			C50.452,7.781,50.243,7.99,50.238,7.868z M50.687,7.397c0.017-0.1,0.132-0.104,0.163-0.188
			C50.874,7.255,50.755,7.364,50.687,7.397z M50.755,6.077c0-0.078,0.151-0.21,0.188-0.329C50.999,5.878,50.81,5.973,50.755,6.077z
			 M50.803,5.278c0.072-0.087,0.188-0.126,0.308-0.165C51.118,5.26,50.881,5.29,50.803,5.278z M51.275,6.526
			c0.118-0.167,0.281-0.312,0.354-0.401C51.617,6.269,51.414,6.426,51.275,6.526z M51.817,3.746
			c-0.021-0.075,0.037-0.072,0.046-0.116C51.91,3.639,51.907,3.793,51.817,3.746z M52.042,6.101l0.407-1.135h0.449
			c0.22,0,0.349,0.039,0.408,0.129c0.06,0.079,0.05,0.229-0.029,0.449c-0.07,0.199-0.17,0.35-0.289,0.428
			c-0.12,0.08-0.279,0.129-0.499,0.129H52.042z M52.641,9.634c-0.085-0.107,0.094-0.157,0.117-0.236
			C52.802,9.467,52.684,9.576,52.641,9.634z M52.83,9.351c0.081-0.352,0.395-0.082,0.588-0.07c-0.027,0.077,0.144,0.068,0.142,0.188
			c-0.057-0.004-0.114-0.005-0.117,0.047c-0.077-0.025-0.001-0.071-0.047-0.142c-0.164,0.083-0.267-0.048-0.354-0.116
			C52.939,9.258,52.962,9.382,52.83,9.351z M53.042,9.823c0.045,0.063,0.197-0.038,0.164-0.047c0.011-0.036,0.03,0.009,0.072,0
			C53.292,9.91,53.078,9.924,53.042,9.823z M53.395,9.682c-0.088,0.016-0.101-0.042-0.189-0.024c0.013-0.061-0.022-0.2,0.142-0.166
			C53.388,9.553,53.44,9.598,53.395,9.682z"/>
		<path d="M62.292,8.773c-0.07,0.199-0.16,0.339-0.28,0.429c-0.118,0.1-0.269,0.14-0.438,0.14c-0.055,0-0.102-0.006-0.144-0.014
			c-0.001,0.018-0.004,0.035-0.004,0.047c0.185,0.154,0.337,0.339,0.33,0.683c-0.057,0.015-0.108,0.035-0.188,0.023
			c-0.122-0.236-0.146-0.49-0.188-0.764c-0.067-0.021-0.116-0.054-0.145-0.104c-0.051-0.09-0.041-0.24,0.029-0.439l0.062-0.175
			c-0.029,0-0.059,0-0.09,0c-0.054-0.119-0.052-0.295-0.188-0.329c0.034-0.057,0.049-0.043,0.023-0.118
			c0.294-0.175,0.287,0.25,0.262,0.424l1.105-3.081c0.07-0.198,0.159-0.348,0.279-0.438c0.109-0.089,0.25-0.13,0.428-0.13
			c0.191,0,0.301,0.041,0.35,0.13c0.051,0.091,0.04,0.229-0.029,0.438l-0.21,0.578h4.077l0.369-1.047
			c0.243-0.684,0.236-1.154-0.015-1.438c-0.011,0.019-0.027,0.03-0.021,0.065c-0.115,0.013-0.136-0.106-0.081-0.158
			c-0.083-0.063-0.191-0.119-0.322-0.164c-0.025,0.228-0.304,0.077-0.445,0.204c0.009,0.054,0.023,0.101,0.071,0.118
			c-0.021,0.018-0.104-0.01-0.096,0.093c-0.068-0.01-0.17-0.057-0.21-0.023c0.148,0.038,0.144,0.232,0.329,0.235
			c0,0.032,0,0.063,0,0.095c-0.116,0.071-0.205,0.022-0.353-0.023c-0.011,0.027-0.043,0.094-0.119,0.118
			c0.031,0.059,0.021,0.147-0.046,0.094c0.004-0.027,0.023-0.014,0.022,0c0.071-0.028-0.081-0.083-0.07,0
			c-0.023-0.022-0.048-0.047-0.071-0.07c-0.062-0.008,0.062,0.091-0.047,0.07c0.006-0.135-0.009-0.173,0.024-0.307
			c-0.091,0.005-0.091,0.1-0.189,0.095c-0.017-0.021-0.024-0.053-0.023-0.095c0.04-0.039,0.14-0.019,0.213-0.023
			c-0.021-0.081-0.006-0.198-0.118-0.188c0.042-0.049,0.086-0.006,0.047-0.093c-0.062,0.047-0.14,0.08-0.211,0.116
			c0.062,0.171-0.094,0.291-0.165,0.401c0.017,0.084,0.068,0.134,0.093,0.212c-0.02,0.068-0.059-0.031-0.117,0
			c-0.036-0.218-0.021-0.434,0.048-0.59c-0.022-0.048-0.07-0.071-0.143-0.07c0.02-0.207,0.366-0.091,0.448-0.235
			c0.109,0.049,0.234-0.036,0.33,0.046c-0.075,0.054,0.01,0.218-0.07,0.165c-0.006,0.085,0.11,0.117,0.165,0.071
			c-0.006-0.04-0.042-0.054-0.095-0.047c0.025-0.028,0.025-0.083,0.023-0.141c0.113,0.011,0.072-0.132,0.14-0.165
			c0.097,0.004,0.188-0.062,0.236,0.023c0.068-0.05,0.155-0.122,0.25-0.133c-0.321-0.089-0.75-0.132-1.287-0.132h-2.131
			c0.021,0.007,0.041,0.018,0.06,0.028c0.003,0.039-0.039,0.104,0,0.048c0.051,0.044-0.066,0.119-0.165,0.095
			c-0.024-0.048-0.059-0.084-0.095-0.118c-0.02-0.052,0.021-0.043,0.041-0.053h-0.207c0,0.001,0,0.004,0.002,0.005
			c-0.015,0.005-0.041-0.001-0.07-0.005h-0.069c-0.029,0.005-0.054,0.019-0.072,0.053c-0.024-0.018-0.038-0.034-0.044-0.053h-1.435
			c-0.896,0-1.576,0.139-2.044,0.417c-0.159,0.099-0.303,0.222-0.435,0.364c0.033,0.014,0.065,0.029,0.095,0.049
			c0.062,0.233,0.236,0.359,0.305,0.588c0.163,0.147,0.294,0.375,0.425,0.611c0.068,0.127,0.189,0.326,0.095,0.449
			c-0.443-0.24-0.511-0.854-0.895-1.155c-0.016-0.057-0.016-0.104-0.071-0.163C59.027,4.307,59.042,4.408,59,4.452
			c0.003-0.095-0.047-0.139-0.096-0.185c-0.142,0.217-0.267,0.468-0.372,0.758l-0.925,2.586c0.003-0.001,0.004-0.001,0.004-0.003
			c0.08,0.01,0.029,0.063,0.117,0.023c-0.064,0.108-0.095,0.121-0.188,0.213c0.025-0.025,0.029-0.062,0.019-0.093l-0.41,1.146
			c0.014-0.005,0.026-0.012,0.039-0.017c0.041,0.017,0.002,0.042,0,0.071c0.15,0.032,0.169-0.066,0.305-0.048
			c-0.005,0.025-0.046,0.016-0.046,0.048c0.088,0.016,0.229-0.115,0.282-0.213c-0.076-0.061-0.154,0.059-0.259,0.094
			c-0.017-0.091-0.111-0.316,0.047-0.211c0.004-0.066-0.058-0.067-0.118-0.071c0.045-0.134,0.262,0.052,0.33,0.118
			c0.13-0.096,0.206-0.111,0.236-0.283c-0.005-0.027-0.044-0.02-0.071-0.022c-0.002-0.071,0.05-0.093,0.071-0.144
			c0.059,0.004,0.033,0.093,0.093,0.095c0.116-0.034,0.247-0.107,0.354-0.211c0.2,0.176,0.418-0.249,0.589-0.354
			c0.055-0.033-0.004,0.017,0.047-0.069c0.037-0.062,0.133-0.093,0.189-0.144c0.146-0.126,0.275-0.314,0.423-0.352
			c0.078,0.413-0.737,0.807-1.014,1.224c-0.1-0.006-0.115,0.072-0.234,0.049c-0.269,0.445-0.714,0.713-1.083,1.059
			c0.014,0.041,0.113-0.025,0.164-0.024c-0.081,0.212-0.303,0.231-0.352,0.424c-0.132,0.005-0.227,0.071-0.311,0.153
			c-0.004,0.271,0.081,0.489,0.257,0.647c0.291,0.27,0.859,0.409,1.705,0.409h2.94c-0.013-0.019-0.02-0.037-0.023-0.055
			c-0.015-0.088,0.049-0.155,0.047-0.234c-0.005-0.151-0.156-0.229-0.117-0.379c-0.081,0.045-0.009-0.078-0.023-0.188
			c0.041-0.006,0.117,0.023,0.094-0.048c0.109,0.1,0.176,0.425,0.095,0.565c0.01,0.06,0.102,0.04,0.116,0.094
			c0.01,0.093,0.031,0.171,0.061,0.244h0.999c0.906,0,1.605-0.13,2.092-0.398c0.489-0.26,0.838-0.688,1.057-1.296l0.559-1.575H62.62
			L62.292,8.773z M63.521,5.889c-0.033,0.002-0.066,0.005-0.069-0.022c-0.028,0.002-0.021,0.042-0.023,0.07
			c-0.084-0.008,0.002-0.064-0.048-0.07c0.031-0.062,0.077-0.074,0.141-0.048C63.521,5.842,63.521,5.867,63.521,5.889z
			 M67.645,3.699c0.05,0.004,0.05,0.06,0.046,0.118C67.642,3.8,67.593,3.746,67.645,3.699z M67.62,4.548
			c0.014,0.1-0.1,0.071-0.141,0.115C67.324,4.568,67.566,4.37,67.62,4.548z M67.125,5.113c-0.07,0.017-0.069-0.042-0.141-0.024
			c0.027-0.027,0.026-0.083,0.023-0.141c0.086-0.016,0.126,0.016,0.165,0.046C67.163,5.04,67.106,5.037,67.125,5.113z M67.172,3.653
			c0,0.046,0,0.093,0,0.141c-0.052,0.035-0.101,0.072-0.188,0.07C66.875,3.752,67.043,3.665,67.172,3.653z M66.89,3.793
			c0.06,0.002,0.046,0.079,0.046,0.141C66.84,3.919,66.89,3.871,66.89,3.793z M66.914,4.264c0.07,0.031,0.194,0.01,0.235,0.071
			c0.001,0.055-0.041,0.068-0.024,0.14c-0.133,0.002-0.232-0.033-0.259-0.14C66.917,4.346,66.912,4.3,66.914,4.264z M66.771,4.548
			c0.008,0.062-0.032,0.076-0.093,0.069C66.679,4.554,66.732,4.504,66.771,4.548z M66.49,4.57c0.009,0.053,0.115,0.053,0.047,0
			c0.006-0.055,0.102-0.014,0.118,0C66.642,4.661,66.401,4.705,66.49,4.57z M65.688,5.489c-0.027,0.004-0.041-0.005-0.046-0.023
			c-0.024,0.015-0.024,0.055-0.071,0.047c0.02-0.052,0.048-0.094,0.117-0.095C65.688,5.442,65.688,5.465,65.688,5.489z
			 M65.594,3.722c-0.015-0.023-0.055-0.023-0.048-0.069c0.033,0,0.063,0,0.096,0c0.028,0.106-0.084,0.073-0.096,0.141
			c-0.033-0.021-0.074-0.035-0.069-0.095C65.543,3.679,65.538,3.732,65.594,3.722z M65.006,3.722
			c0.052,0.035-0.031,0.057,0.021,0.071c-0.052,0.122-0.219,0.132-0.328,0.046C64.738,3.736,64.888,3.746,65.006,3.722z
			 M64.393,4.289c0.061-0.01,0.07-0.07,0.141-0.07c0.029,0.029,0.01,0.036,0,0.07c0.107,0.043,0.042-0.085,0.094-0.095
			c0.052-0.012,0.047,0.033,0.048,0.07c0.171,0.011,0.142-0.213,0.189-0.259c0.04,0.058,0.092,0.047,0.188,0.023
			c-0.013,0.084,0.083,0.058,0.069,0.142c-0.092-0.038-0.008,0.102-0.069,0.094c0.007,0.049,0.062,0.048,0.095,0.071
			c-0.044,0.066-0.137,0.083-0.213,0.116c0.017,0.073,0.017,0.046,0,0.118c-0.037,0.003-0.09-0.011-0.095,0.023
			c-0.064-0.021,0.042-0.082-0.023-0.118c-0.048,0.01-0.268,0.137-0.283,0c0.025,0.007,0.016,0.048,0.048,0.048
			C64.601,4.52,64.605,4.5,64.627,4.5c-0.015-0.024-0.052-0.024-0.046-0.071c-0.092,0.021-0.122,0.025-0.188-0.023
			C64.393,4.367,64.393,4.327,64.393,4.289z M64.159,3.44c0.156-0.003,0.137,0.208-0.048,0.164
			C64.083,3.507,64.16,3.513,64.159,3.44z M64.274,3.864c-0.085,0.113-0.171,0.122-0.352,0.165
			C63.899,3.773,64.14,3.923,64.274,3.864z M63.686,4.593C63.392,4.417,63.899,4.261,63.686,4.593L63.686,4.593z M63.686,3.982
			c-0.01,0.057,0.045,0.051,0.024,0.117c-0.082,0.044-0.105-0.011-0.143-0.07C63.589,3.995,63.628,3.977,63.686,3.982z
			 M63.616,4.593c0.004,0.02-0.01,0.023-0.023,0.024c0.009,0.045,0.092,0.019,0.07,0.095c-0.052,0.018-0.091,0.048-0.165,0.046
			C63.614,4.676,63.5,4.645,63.616,4.593z M63.287,4.853c-0.02,0.004-0.022-0.01-0.023-0.023c-0.023,0-0.019,0.029-0.023,0.047
			c-0.079-0.053-0.029-0.209-0.118-0.164c-0.042-0.019-0.004-0.043,0-0.071c0.015,0,0.031,0,0.047,0
			c0.034,0.107,0.132,0.036,0.212,0.117C63.353,4.792,63.287,4.791,63.287,4.853z M63.357,3.299
			c-0.028,0.114,0.021,0.24-0.049,0.354c-0.083-0.016-0.131,0.008-0.14,0.069C63.137,3.555,63.055,3.153,63.357,3.299z
			 M63.098,4.428c0.081-0.021,0.039,0.078,0.023,0.095c0.058,0.004,0.058-0.053,0.094-0.071c0.077,0.009-0.062,0.104,0.024,0.118
			c-0.036,0.004-0.156,0.001-0.165,0.094c-0.032-0.004-0.012-0.06-0.039-0.069C63.089,4.602,63.136,4.504,63.098,4.428z
			 M62.815,3.345c0.038-0.002,0.09,0.012,0.095-0.022c0.027-0.011,0.013,0.094-0.033,0.096c0.116,0.021,0.138,0.147,0.174,0.28
			c-0.061-0.062-0.047,0.032-0.047,0.095c-0.054-0.007-0.089,0.005-0.094,0.046c0.025,0.081,0.007-0.063,0.069-0.022
			c-0.011,0.019-0.023,0.038-0.022,0.07c-0.054,0.032-0.088-0.062-0.095,0C62.823,3.752,62.775,3.463,62.815,3.345z M62.604,3.558
			c0.093,0.007-0.019,0.072,0.045,0.095c-0.005,0.024-0.045,0.015-0.045,0.046C62.538,3.674,62.61,3.598,62.604,3.558z
			 M62.581,3.793c0.087-0.01,0.12,0.106,0.068,0.164c-0.095,0.033-0.073-0.051-0.14-0.047C62.505,3.844,62.581,3.855,62.581,3.793z
			 M62.556,4.758c0.05-0.018,0.092-0.018,0.141,0c-0.048,0.119,0.03,0.109,0.023,0.235c-0.041,0.003-0.049-0.027-0.095-0.022
			c-0.008,0.04,0.019,0.044,0.049,0.047c-0.057,0.049-0.133,0.055-0.236,0.047c0.005-0.059,0.005-0.113-0.046-0.117
			c0.006-0.029,0.136,0.019,0.212,0c-0.02-0.109-0.197-0.104-0.235-0.048c-0.052-0.122,0.152-0.342,0.023-0.425
			c0.015-0.03,0.051-0.043,0.094-0.047C62.514,4.533,62.528,4.653,62.556,4.758z M62.392,3.509
			c-0.032,0.097,0.112,0.137,0.023,0.213c-0.081-0.021-0.074-0.131-0.095-0.213C62.344,3.509,62.369,3.509,62.392,3.509z
			 M62.179,3.864c0.055,0.066,0.013,0.188-0.095,0.165c-0.01-0.021-0.021-0.043-0.047-0.047C62.052,3.91,62.089,3.862,62.179,3.864z
			 M57.87,7.35c0.062-0.026,0.038,0.146,0.071,0.07c0.035,0.009-0.022,0.042,0.023,0.048C57.923,7.529,57.846,7.43,57.87,7.35z
			 M58.975,5.136c-0.086,0.016-0.104-0.038-0.093-0.118c0.044-0.004,0.078-0.017,0.093-0.047C58.983,4.99,59.016,5.085,58.975,5.136
			z M58.906,4.688c0.008-0.03,0.042-0.037,0.047-0.07c0.06,0.027,0.068,0.104,0.07,0.188C58.939,4.811,59,4.673,58.906,4.688z
			 M59.118,6.526c-0.065,0.018-0.048-0.048-0.095-0.048c0.036-0.055,0.058-0.036,0.118-0.023
			C59.128,6.474,59.117,6.493,59.118,6.526z M59.165,9.871c-0.085-0.033-0.107-0.128-0.118-0.236c0.016,0,0.03,0,0.048,0
			C59.192,9.648,59.207,9.783,59.165,9.871z M61.049,5.559c0.031-0.059,0.153-0.015,0.119,0.071
			c-0.065-0.066-0.181,0.081-0.19,0.142C60.839,5.714,61.061,5.561,61.049,5.559z M61.19,6.951
			c-0.039-0.009-0.045,0.017-0.048,0.045c-0.096-0.005-0.206,0.003-0.211-0.094c0.075,0.125,0.077-0.09,0.166-0.096
			C61.174,6.809,61.185,6.874,61.19,6.951z M60.836,6.077c0.055-0.006,0.091,0.005,0.118,0.023c0.001,0.089-0.023,0.15-0.047,0.213
			c-0.052,0.009-0.038-0.161-0.071-0.095C60.772,6.196,60.87,6.146,60.836,6.077z M59.989,5.842c0-0.179,0.191-0.151,0.283-0.07
			c0.05,0.288,0.261,0.413,0.282,0.729C60.217,6.513,60.25,5.981,59.989,5.842z M60.389,6.596c0.073,0.001,0.131-0.012,0.165-0.047
			c0.159,0.092,0.138,0.364,0.307,0.446c0.007-0.1,0.087,0.051,0.117,0.071c-0.047,0.008-0.073-0.005-0.07-0.047
			c-0.017,0-0.032,0-0.047,0c0.056,0.291,0.274,0.54,0.329,0.753c0.065-0.016,0.182-0.196,0.212-0.093
			c0.064-0.022-0.033-0.074,0-0.144c-0.062,0.041-0.196-0.012-0.26-0.046c0-0.055,0-0.11,0-0.165
			c0.028,0.005,0.043-0.005,0.048-0.022c0.056,0.152,0.25-0.188,0.095-0.166c0.033-0.081,0.153,0.014,0.141-0.07
			c0.09,0.091,0.06,0.188,0.095,0.236c-0.108,0,0.009,0.053-0.118,0.07c-0.004,0.051,0.084,0.011,0.118,0.023
			c-0.105,0.057,0.032,0.072,0.023,0.163c-0.041-0.06-0.082,0.04,0,0.024c-0.016,0.07-0.051-0.022-0.094,0
			c-0.039,0.093,0.102,0.009,0.094,0.07c0.103-0.003-0.028-0.111,0.071-0.095c0,0.056,0,0.111,0,0.166
			c-0.066,0.005-0.101,0.041-0.095,0.118c-0.133-0.015-0.139-0.024-0.235-0.048c-0.064,0.046-0.062,0.159-0.116,0.213
			c-0.104,0.009-0.184-0.007-0.237-0.048C60.907,7.512,60.486,7.124,60.389,6.596z M61.943,9.563
			c0.036-0.056,0.118,0.038,0.118,0.095C61.981,9.667,61.991,9.586,61.943,9.563z M65.312,9.185c0.06,0.004,0.092,0.036,0.094,0.096
			c-0.063-0.002-0.048,0.039-0.094,0c0.003,0.044,0.015,0.079,0.046,0.094c-0.02,0.069-0.075-0.014-0.117,0
			C65.249,9.296,65.266,9.226,65.312,9.185z M64.371,9.185c-0.155-0.077-0.174-0.035-0.26-0.14c0.005-0.027,0.023-0.014,0.023,0
			c0.135-0.014,0.164-0.027,0.259,0C64.411,9.118,64.353,9.114,64.371,9.185z M64.229,8.432c0.039,0.032,0.077,0.062,0.164,0.047
			c0.026,0.075,0.002,0.055,0,0.143c-0.05-0.007-0.289,0.064-0.306-0.095C64.159,8.498,64.204,8.539,64.229,8.432z M64.064,9.045
			c0.018,0.066,0.1,0.11,0.023,0.14C64.036,9.136,64,9.099,64.064,9.045z M63.663,9.916c-0.021,0.036-0.034,0.075-0.095,0.071
			c-0.012-0.018-0.023-0.038-0.023-0.071C63.59,9.873,63.587,9.931,63.663,9.916z M62.746,8.243
			c0.076-0.002,0.112,0.098,0.069,0.143c-0.057,0.009,0.014-0.106-0.069-0.071c-0.047-0.008-0.035,0.108,0.023,0.071
			c-0.017,0.072-0.051-0.021-0.095,0C62.662,8.303,62.694,8.264,62.746,8.243z"/>
		<path d="M61.332,8.598c0.002-0.008,0.002-0.015,0.003-0.023l-0.008,0.023C61.329,8.598,61.331,8.598,61.332,8.598z"/>
		<path d="M66.78,11.125h2.136c-0.009-0.135,0.105-0.184,0.188-0.102c0,0.033,0,0.068,0,0.102h1.343
			c0.013-0.123,0.196-0.13,0.211-0.008c0,0.004-0.002,0.004-0.002,0.008h2.693l0.648-1.814h-2.502l0.084-0.235
			c-0.056,0.032-0.123,0.052-0.191,0.018c-0.03-0.112-0.003-0.24,0.165-0.213c0.023,0.03,0.045,0.065,0.058,0.105l0.473-1.329h0.227
			c-0.005-0.021-0.006-0.042-0.003-0.072c0.102,0.047,0.085,0.063,0.049-0.048c0.072-0.01,0.095,0.03,0.116,0.071
			c0,0.019-0.005,0.036-0.012,0.049h2.125l0.648-1.813H72.73l0.318-0.877h0.043c-0.021-0.013-0.033-0.032-0.079-0.019
			c0.003-0.069,0.133-0.062,0.118,0.019h2.411L76.2,3.152h-6.568L66.78,11.125z M73.532,9.327c0.142,0.016,0.17,0.144,0.281,0.189
			c-0.038,0.053-0.063,0.06-0.069,0.095c-0.098,0.011,0.023-0.063-0.071-0.071c-0.075,0.036-0.011,0.101-0.046,0.143
			C73.451,9.628,73.342,9.44,73.532,9.327z M74.072,4.17c0.024,0,0.049,0,0.072,0c-0.004,0.033-0.005,0.066,0.023,0.07
			C74.101,4.356,73.977,4.27,74.072,4.17z M75.44,4.452c0.03,0,0.062,0,0.093,0c-0.034,0.036-0.007,0.135-0.093,0.118
			C75.44,4.531,75.44,4.493,75.44,4.452z M75.132,3.793c0.058-0.01,0.052,0.044,0.118,0.023C75.239,3.859,75.101,3.907,75.132,3.793
			z M75.085,3.629c-0.041,0.029-0.062,0.078-0.141,0.069C74.963,3.648,75.002,3.616,75.085,3.629z M74.191,3.653
			c-0.042,0.041-0.094-0.008-0.095-0.071C74.158,3.575,74.197,3.589,74.191,3.653z M74.072,3.793
			c0.02,0.012,0.039,0.023,0.072,0.023c-0.014,0.064-0.151,0.193-0.166,0.047C74.024,3.854,74.081,3.855,74.072,3.793z
			 M73.083,3.817c-0.01,0.049,0.017,0.063,0.025,0.094c0.09-0.004,0.106-0.08,0.21-0.071c0.033,0.069,0.06,0.118,0,0.166
			c-0.113-0.1-0.28-0.002-0.399-0.095C72.961,3.868,72.983,3.802,73.083,3.817z M72.848,7.303c0.04-0.034,0.092-0.107,0.213-0.118
			C73.159,7.349,72.929,7.426,72.848,7.303z M72.66,5.842c0.089-0.01,0.139,0.019,0.142,0.095c0.042-0.084,0.229-0.004,0.236,0.095
			C73.066,6.02,73.083,6,73.083,5.96c0.028,0.09,0.05,0.186,0.094,0.258c-0.244-0.005-0.337-0.165-0.446-0.307
			c-0.082,0.008,0.002,0.065-0.048,0.071C72.597,6.005,72.64,5.858,72.66,5.842z M69.551,6.455c0.075-0.021,0.072,0.037,0.117,0.047
			c-0.003,0.076-0.054,0.104-0.142,0.095C69.524,6.537,69.524,6.483,69.551,6.455z M69.575,5.912
			c0.063,0.018,0.045-0.048,0.071-0.069c0.047,0.007,0.046,0.063,0.094,0.069c-0.04,0.04-0.059,0.101-0.142,0.095
			C69.602,5.963,69.57,5.958,69.575,5.912z M69.951,10.788c0.033-0.055,0.098-0.074,0.142-0.117
			c-0.089-0.07-0.052-0.264,0.119-0.213c0.038,0.103,0.093,0.189,0.188,0.236C70.361,10.824,70.049,10.938,69.951,10.788z
			 M70.87,11.118c0.057-0.056-0.019-0.081-0.048-0.118c0.006-0.033,0.072-0.009,0.072-0.047c0.036,0.117,0.071-0.033,0.094,0.118
			C70.916,11.052,70.959,11.152,70.87,11.118z M71.624,10.411c0.117,0.163,0.021,0.418-0.236,0.354c-0.051,0.01,0,0.124-0.048,0.141
			c-0.043,0.026-0.11,0.031-0.164,0.047c-0.085,0.022-0.019-0.106-0.093-0.095c-0.067,0.035,0.062,0.128,0,0.166
			c-0.156-0.098,0.048-0.275,0.164-0.236c-0.012-0.121-0.228-0.083-0.188-0.022c-0.015,0.028-0.113-0.06-0.212-0.025
			c-0.01,0.059,0.107-0.012,0.07,0.071c-0.08,0.062-0.191-0.119-0.165-0.164c-0.274-0.097-0.385-0.353-0.54-0.566
			c-0.455,0.207-0.609,0.711-1.083,0.896c-0.018-0.104,0.039-0.132,0.021-0.236c0.682-0.598,1.248-1.312,2.145-1.694
			c0.01,0.045,0.05,0.059,0.045,0.116c-0.257,0.324-0.651,0.51-0.987,0.754c0.099,0.153,0.222,0.282,0.329,0.425
			c0.201-0.099,0.463,0.001,0.565,0.142C71.436,10.521,71.447,10.384,71.624,10.411z M70.045,4.641
			c0.137-0.014-0.017,0.127,0.118,0.094c-0.039,0.079-0.14,0.096-0.165,0.188c-0.09,0.004-0.126-0.046-0.143-0.118
			c0.079,0.012,0.104-0.132,0.143-0.022C70.067,4.757,70.077,4.711,70.045,4.641z M71.459,10.34
			c-0.051,0.021-0.069,0.072-0.142,0.07c-0.086-0.027,0.003-0.226-0.071-0.165C71.202,10.165,71.481,10.225,71.459,10.34z
			 M71.906,4.57c0.06,0.004,0.057,0.089,0.023,0.118C71.856,4.672,71.899,4.625,71.906,4.57z M72.025,5.346
			c0.086,0.104-0.02,0.358-0.166,0.378C71.803,5.577,71.977,5.469,72.025,5.346z M71.552,6.125c0.112-0.102,0.168-0.257,0.26-0.377
			c0.108,0.438-0.356,0.508-0.353,0.919c-0.073,0.068-0.094,0.189-0.189,0.235C71.172,6.625,71.533,6.437,71.552,6.125z
			 M70.211,4.312c0.076,0.048-0.042,0.099-0.048,0.14c-0.05-0.014-0.129-0.081-0.143,0c-0.067-0.033-0.08-0.121-0.21-0.093
			c0.012-0.019,0.023-0.038,0.023-0.07c0.13,0.01,0.163,0.026,0.211-0.07C70.139,4.195,70.181,4.347,70.211,4.312z M70.069,3.769
			c-0.104,0.027-0.243,0.124-0.377,0.048C69.666,3.535,70.032,3.586,70.069,3.769z M69.716,4.052
			c0.014,0.049,0.059,0.067,0.047,0.142c-0.035,0.034-0.155,0.034-0.188,0C69.598,4.123,69.599,4.03,69.716,4.052z"/>
	</g>
	<path fill-rule="evenodd" clip-rule="evenodd" d="M39.378,11.846c0.039,0.048,0.083,0.097,0.097,0.131
		c-0.053-0.026-0.104-0.054-0.155-0.083C39.33,11.868,39.33,11.833,39.378,11.846z M47.917,3.179
		c-0.047-0.063-0.139-0.14-0.312-0.14c-0.232,0-0.532,0.138-0.676,0.23c-0.011,0.005-0.019,0.011-0.027,0.015
		c0.027-0.066,0.053-0.144,0.077-0.231c0.112-0.384,0.231-0.996,0.231-1.438c0-0.097-0.016-0.184-0.048-0.255
		c-0.033-0.077-0.085-0.141-0.152-0.186c-0.123-0.086-0.276-0.096-0.378-0.096c-0.059,0-0.117,0.002-0.171,0.007
		c-0.024,0.003-0.05,0.003-0.071,0.004c-0.134,0.007-0.293,0.049-0.477,0.128c-0.073,0.03-0.135,0.062-0.177,0.082
		c-0.044-0.001-0.107-0.002-0.184-0.002c-0.186,0-0.333,0.012-0.441,0.035c-0.117,0.024-0.25,0.085-0.394,0.18
		c-0.011,0.006-0.02,0.013-0.03,0.019c-0.04,0.025-0.075,0.052-0.102,0.071c-0.024,0.003-0.058,0.004-0.099,0.004
		c-0.091,0-0.201,0.03-0.271,0.053c-0.072-0.016-0.196-0.039-0.333-0.039c-0.112,0-0.217,0.016-0.308,0.043
		c-0.139,0.044-0.271,0.122-0.394,0.231c-0.037,0.031-0.066,0.062-0.091,0.088c-0.123,0.02-0.387,0.061-0.677,0.104
		c-0.001,0-0.004,0-0.007,0c-0.313,0-0.628,0.037-0.938,0.108c-0.172-0.207-0.398-0.471-0.552-0.615
		c-0.259-0.242-0.545-0.528-0.548-0.532l-0.058-0.042l-0.024-0.018l-0.53-0.38l0.18,0.308l0.016,0.08
		c-0.025-0.021-0.059-0.032-0.103-0.052c-0.083-0.037-0.118-0.046-0.122-0.047l-0.328-0.12l0.058,0.229l0.001,0.039l0.006,0.047
		c0,0,0.002,0.043,0.02,0.099c0.005,0.012,0.009,0.022,0.011,0.033c-0.03-0.013-0.059-0.031-0.071-0.041l-0.411-0.118l0.099,0.34
		c0.016,0.046,0.02,0.104,0.014,0.128c-0.037,0.015-0.079,0.022-0.119,0.022c-0.052,0-0.092-0.013-0.099-0.014l-0.353-0.077
		l0.102,0.349c0.015,0.031,0.026,0.069,0.034,0.1c-0.048-0.001-0.101-0.015-0.118-0.02l-0.406-0.091l0.182,0.394
		c0.001,0.003,0.025,0.039,0.051,0.089c0.011,0.02,0.019,0.038,0.024,0.053l-0.475,0.043l0.264,0.279l0.021,0.021
		c0.02,0.016,0.036,0.036,0.05,0.055c-0.045-0.005-0.13,0.015-0.146,0.009l-0.005,0.001L37.9,2.788l0.077,0.169l0.039,0.095
		c0,0,0.004,0.026,0.015,0.033l-0.208,0.074l0.233,0.259c0,0,0.102,0.097,0.152,0.131c0.008,0.006,0.016,0.012,0.022,0.016
		c-0.031,0.023-0.057,0.054-0.07,0.092c-0.025,0.065-0.017,0.138,0.027,0.197c0.009,0.013,0.019,0.024,0.033,0.038
		c0.01,0.01,0.021,0.022,0.034,0.033c-0.042,0.03-0.071,0.076-0.08,0.129c-0.013,0.076,0.019,0.152,0.084,0.202
		c0.005,0.006,0.012,0.01,0.019,0.015c-0.019,0.025-0.031,0.057-0.036,0.09c-0.006,0.04,0.001,0.081,0.019,0.115
		c-0.134,0.199-0.26,0.41-0.373,0.629c-0.154,0.033-0.307,0.067-0.449,0.104c-0.207,0.053-0.339,0.096-0.424,0.129
		c-0.093,0.036-0.131,0.06-0.148,0.071c-0.004,0.003-0.005,0.004-0.007,0.007c-0.068,0.05-0.12,0.131-0.153,0.242
		c-0.024,0.083-0.038,0.182-0.038,0.282c-0.002,0.123,0.015,0.244,0.05,0.35c0.034,0.104,0.084,0.188,0.148,0.257
		c0.018,0.019,0.037,0.037,0.058,0.054c0.002,0,0.002,0.002,0.003,0.003c0.13,0.1,0.26,0.185,0.359,0.246
		c-0.367,2.021,0.351,3.994,1.886,4.957c-0.067-0.095-0.11-0.221-0.101-0.313c0.127-0.03,0.063,0.126,0.188,0.095
		c0,0.056,0.042,0.069,0.024,0.142c0.073-0.018,0.26,0.161,0.209,0.257c0.034,0.018,0.068,0.035,0.104,0.052
		c0.359,0.165,0.732,0.27,1.112,0.321c0.019,0.004,0.039,0.004,0.062,0.006c0.057,0.006,0.114,0.014,0.172,0.018
		c0.031,0.002,0.062,0.002,0.094,0.006c0.048,0,0.095,0.004,0.143,0.004c0.017,0,0.031,0,0.046,0c0.03,0,0.06,0,0.09,0
		c0.019-0.002,0.035-0.002,0.053-0.004c0.068,0,0.138-0.004,0.206-0.01c0.002,0,0.003,0,0.004,0
		c0.066-0.008,0.135-0.014,0.201-0.023c0.018-0.004,0.035-0.006,0.055-0.01c0.051-0.006,0.102-0.014,0.154-0.023
		c0.019-0.004,0.037-0.008,0.057-0.012c0.062-0.012,0.124-0.025,0.186-0.041c0.005,0,0.012-0.002,0.018-0.004
		c0.067-0.016,0.135-0.033,0.201-0.055c0.019-0.004,0.036-0.012,0.052-0.016c0.051-0.016,0.101-0.031,0.151-0.049
		c0.019-0.006,0.039-0.014,0.061-0.022c0.052-0.018,0.104-0.039,0.156-0.059c0.015-0.006,0.028-0.011,0.041-0.018
		c0.065-0.026,0.131-0.055,0.196-0.085c0.014-0.006,0.026-0.015,0.042-0.02c0.049-0.024,0.101-0.049,0.149-0.076
		c0.022-0.009,0.041-0.021,0.061-0.03c0.047-0.026,0.094-0.051,0.14-0.078c0.018-0.01,0.035-0.02,0.052-0.029
		c0.063-0.035,0.125-0.075,0.187-0.113c0.006-0.006,0.015-0.011,0.021-0.016c0.053-0.036,0.107-0.071,0.159-0.107
		c0.02-0.015,0.038-0.027,0.055-0.042c0.044-0.029,0.087-0.062,0.13-0.095c0.017-0.013,0.035-0.026,0.054-0.04
		c0.055-0.043,0.104-0.086,0.157-0.132c0.005-0.002,0.01-0.006,0.015-0.01c0.057-0.049,0.112-0.099,0.168-0.148
		c0.016-0.017,0.032-0.032,0.048-0.047c0.039-0.038,0.079-0.075,0.118-0.116c0.017-0.017,0.034-0.034,0.052-0.052
		c0.038-0.038,0.073-0.077,0.109-0.115c-0.022-0.025-0.009-0.049,0.001-0.099c0.023,0,0.047,0,0.07,0
		c0.001,0.008,0.001,0.012,0.001,0.017c0.042-0.047,0.085-0.097,0.127-0.145c0.012-0.015,0.023-0.031,0.037-0.047
		c0.036-0.046,0.073-0.091,0.108-0.139c0.016-0.021,0.03-0.039,0.046-0.061c0.014-0.02,0.028-0.038,0.042-0.058
		c-0.028-0.017-0.044-0.049-0.078-0.062c0.034-0.062,0.11-0.078,0.147-0.033c0.01-0.015,0.02-0.027,0.029-0.042
		c0.044-0.064,0.087-0.131,0.131-0.199c0.008-0.011,0.015-0.024,0.021-0.035c0.034-0.056,0.07-0.112,0.104-0.171
		c0.013-0.022,0.024-0.046,0.038-0.066c0.028-0.052,0.057-0.104,0.084-0.155c0.011-0.022,0.021-0.044,0.033-0.066
		c0.038-0.071,0.075-0.146,0.108-0.221c0.036-0.079,0.072-0.159,0.104-0.238c0.013-0.033,0.025-0.066,0.039-0.099
		c0-0.002,0-0.005,0.001-0.006c-0.04-0.075,0.051-0.184,0.078-0.246c0.003,0.005,0.005,0.013,0.007,0.019
		c0.004-0.013,0.009-0.023,0.013-0.036c0.006-0.018,0.012-0.038,0.019-0.058c-0.019-0.093,0.068-0.223,0.056-0.348
		c0.019,0.012,0.027,0.033,0.033,0.059C46.237,8.108,46.25,8.052,46.263,8c0.007-0.02,0.01-0.041,0.015-0.061
		c0.016-0.062,0.028-0.125,0.042-0.188c0.003-0.014,0.005-0.027,0.009-0.04c0.013-0.068,0.024-0.135,0.037-0.204
		c0-0.006,0-0.014,0.002-0.02c0.097-0.615,0.094-1.226-0.002-1.801c0.065-0.072,0.134-0.153,0.205-0.245
		c0.146-0.188,0.255-0.355,0.288-0.407c0.028-0.029,0.129-0.133,0.271-0.224c0.118-0.075,0.212-0.2,0.28-0.371
		c0.021-0.053,0.036-0.103,0.046-0.141c0.042-0.034,0.099-0.085,0.161-0.152c0.157-0.172,0.275-0.377,0.338-0.589
		c0.021-0.07,0.031-0.133,0.026-0.191C47.978,3.294,47.958,3.231,47.917,3.179z M47.778,3.35c-0.001-0.009-0.005-0.019-0.008-0.027
		c-0.002-0.005-0.005-0.011-0.007-0.015c-0.007-0.009-0.01-0.015-0.018-0.021c-0.002-0.004-0.007-0.009-0.01-0.012
		c-0.009-0.006-0.018-0.01-0.024-0.015c-0.005-0.002-0.01-0.004-0.014-0.006c-0.013-0.005-0.023-0.008-0.037-0.01
		c-0.002-0.002-0.005-0.003-0.009-0.003c-0.016-0.002-0.033-0.004-0.052-0.004c-0.021,0-0.043,0.003-0.064,0.007
		c-0.004,0-0.008,0-0.012,0.001c-0.02,0.002-0.04,0.007-0.06,0.011c-0.008,0.003-0.017,0.005-0.023,0.007
		c-0.018,0.005-0.034,0.008-0.052,0.015c-0.009,0.002-0.018,0.005-0.026,0.009c-0.016,0.005-0.034,0.01-0.049,0.016
		c-0.009,0.004-0.019,0.006-0.025,0.01c-0.018,0.006-0.033,0.014-0.05,0.02c-0.007,0.003-0.015,0.008-0.023,0.011
		C47.2,3.35,47.182,3.359,47.167,3.366c-0.006,0.003-0.012,0.005-0.02,0.009c-0.018,0.009-0.032,0.016-0.047,0.024
		c-0.006,0.003-0.01,0.005-0.015,0.008c-0.019,0.011-0.037,0.021-0.053,0.03C47,3.458,46.967,3.474,46.935,3.488
		c-0.011,0.005-0.022,0.01-0.033,0.012c-0.022,0.009-0.043,0.015-0.063,0.021c-0.013,0.004-0.023,0.005-0.036,0.007
		c-0.02,0.005-0.037,0.008-0.056,0.01c-0.011,0.002-0.021,0.004-0.031,0.004c-0.018,0.002-0.033,0.002-0.05,0.003
		c-0.006,0-0.014,0.001-0.02,0.001c-0.001,0-0.002,0-0.004,0h-0.001c-0.019,0-0.033-0.001-0.047-0.002c-0.002,0-0.004,0-0.006,0
		c-0.011-0.002-0.02-0.002-0.026-0.003C46.56,3.54,46.56,3.54,46.557,3.54c-0.005,0-0.01-0.002-0.01-0.002s0.127-0.15,0.24-0.539
		c0.113-0.391,0.224-0.98,0.224-1.383c0-0.033-0.004-0.062-0.009-0.089C47.002,1.522,47,1.514,47,1.509
		c-0.004-0.023-0.011-0.044-0.018-0.062c-0.001-0.002-0.003-0.006-0.004-0.007c-0.009-0.021-0.021-0.038-0.032-0.055
		c-0.003-0.002-0.006-0.006-0.01-0.01c-0.01-0.012-0.021-0.022-0.035-0.032c-0.003-0.002-0.006-0.005-0.009-0.007
		c-0.015-0.01-0.033-0.02-0.051-0.026c-0.003-0.002-0.006-0.003-0.01-0.003C46.817,1.3,46.8,1.296,46.783,1.292
		c-0.006-0.001-0.01-0.002-0.014-0.003c-0.021-0.003-0.042-0.007-0.063-0.009c-0.002,0-0.003,0-0.004,0
		c-0.02,0-0.041-0.001-0.062-0.001c-0.004,0-0.011,0-0.016,0c-0.035,0-0.071,0.001-0.105,0.003c-0.042,0.003-0.082,0.007-0.12,0.007
		c-0.264,0.013-0.616,0.214-0.616,0.214s0,0-0.004,0C45.77,1.501,45.753,1.501,45.732,1.5c-0.011,0-0.023-0.001-0.037-0.001h-0.001
		c-0.022,0-0.045-0.001-0.071-0.002c-0.002,0-0.005,0-0.007,0c-0.025,0-0.051,0-0.078,0c-0.023,0-0.047,0-0.072,0.001
		c-0.008,0-0.015,0-0.022,0.001c-0.03,0-0.059,0.001-0.09,0.004c-0.002,0-0.007,0.001-0.01,0.001
		c-0.033,0.001-0.065,0.004-0.096,0.009c0,0-0.001,0.001-0.003,0.001c-0.031,0.003-0.062,0.009-0.091,0.015
		c-0.108,0.023-0.225,0.086-0.316,0.145c-0.102,0.062-0.173,0.123-0.173,0.123s-0.076,0.011-0.178,0.011
		c-0.1,0-0.263,0.061-0.263,0.061s-0.005,0-0.01-0.003c-0.003,0-0.006-0.001-0.009-0.002c-0.008-0.002-0.016-0.004-0.028-0.008
		c-0.004,0-0.006,0-0.01-0.001c-0.015-0.004-0.033-0.008-0.053-0.012c-0.005,0-0.011-0.001-0.017-0.002
		c-0.017-0.003-0.036-0.005-0.057-0.008c-0.006-0.001-0.011-0.002-0.017-0.003c-0.027-0.003-0.055-0.004-0.083-0.007
		c-0.003,0-0.01,0-0.013,0c-0.021,0-0.043,0-0.064,0c-0.025,0-0.05,0.003-0.076,0.004c-0.015,0.001-0.027,0.001-0.039,0.005
		c-0.038,0.004-0.078,0.013-0.116,0.023c-0.27,0.084-0.438,0.315-0.438,0.315s-0.391,0.062-0.824,0.125
		c-0.033,0.005-0.069,0.013-0.104,0.019c-0.011,0.002-0.018,0.004-0.026,0.006c-0.031,0.008-0.062,0.015-0.093,0.023
		c-0.005,0-0.01,0.003-0.017,0.003c-0.036,0.011-0.073,0.021-0.11,0.033c-0.004,0.001-0.006,0.002-0.009,0.002
		c-0.034,0.011-0.067,0.022-0.101,0.033c-0.005,0.003-0.011,0.004-0.016,0.006c-0.073,0.025-0.142,0.051-0.202,0.077
		c-0.004,0.001-0.008,0.002-0.011,0.005c-0.03,0.011-0.059,0.023-0.085,0.035l0,0c-0.03,0.013-0.057,0.023-0.08,0.034l0,0
		c-0.02-0.024-0.048-0.06-0.083-0.103c-0.008-0.01-0.017-0.021-0.026-0.033s-0.019-0.021-0.027-0.033
		c-0.024-0.03-0.049-0.06-0.076-0.092c-0.006-0.007-0.013-0.016-0.02-0.023c-0.028-0.035-0.06-0.071-0.091-0.109
		c-0.003-0.003-0.004-0.005-0.007-0.007c-0.033-0.04-0.066-0.079-0.101-0.117c-0.001-0.001-0.003-0.004-0.005-0.006
		c-0.032-0.037-0.065-0.074-0.098-0.109c-0.005-0.007-0.01-0.012-0.016-0.018c-0.03-0.034-0.061-0.067-0.09-0.097
		c-0.005-0.007-0.011-0.011-0.015-0.014c-0.029-0.032-0.059-0.061-0.084-0.085c-0.263-0.247-0.552-0.536-0.552-0.536
		s0.104,0.313-0.014,0.325c-0.015,0.002-0.028,0.003-0.041,0.003l-0.002,0.001c-0.003,0-0.004-0.001-0.006-0.001
		c-0.014-0.001-0.026-0.001-0.033-0.004c-0.002,0-0.004,0-0.006,0c-0.01-0.002-0.013-0.006-0.02-0.009
		c-0.001,0-0.001-0.001-0.001-0.001C40.102,1.5,40.1,1.497,40.098,1.495c0,0,0-0.001,0-0.002c0-0.002,0-0.004,0-0.004
		s-0.134-0.174-0.196-0.264c-0.007-0.008-0.015-0.017-0.024-0.028c-0.08-0.084-0.253-0.191-0.253-0.191s0.003,0.006,0.008,0.016
		c0.004,0.01,0.011,0.024,0.019,0.043c0.002,0.009,0.006,0.019,0.01,0.03c0.022,0.059,0.045,0.138,0.045,0.205
		c0,0.002,0.002,0.005,0.002,0.008c-0.002,0.058-0.019,0.104-0.069,0.12c-0.002,0-0.005,0-0.006,0
		c-0.021,0.008-0.043,0.009-0.064,0.01c-0.001,0-0.004,0.001-0.006,0.001c-0.014,0-0.026-0.002-0.039-0.002
		c-0.004-0.001-0.005,0-0.009-0.001c-0.004-0.002-0.007-0.003-0.011-0.003c-0.016-0.002-0.029-0.006-0.044-0.011
		c-0.003,0-0.004-0.002-0.008-0.003c-0.015-0.004-0.029-0.01-0.042-0.016c-0.005-0.001-0.007-0.004-0.013-0.006
		c-0.01-0.004-0.021-0.009-0.029-0.014c-0.004-0.003-0.009-0.005-0.012-0.008c-0.009-0.004-0.018-0.009-0.025-0.014
		c-0.001-0.001-0.003-0.002-0.005-0.004c-0.018-0.011-0.026-0.018-0.028-0.018c0.002,0,0.041,0.116,0.021,0.224
		c-0.012,0.062-0.043,0.12-0.115,0.149c-0.032,0.013-0.063,0.021-0.094,0.027c-0.008,0.003-0.016,0.003-0.021,0.004
		c0,0.001,0,0.001-0.002,0.001c-0.027,0.004-0.054,0.008-0.08,0.008h-0.002h-0.001c-0.022,0-0.045-0.003-0.065-0.005
		c-0.005,0-0.01-0.002-0.015-0.002c-0.013-0.003-0.025-0.005-0.037-0.007c-0.004,0-0.009-0.003-0.013-0.003
		c-0.01-0.002-0.018-0.006-0.023-0.006c-0.004-0.001-0.005-0.002-0.007-0.002c-0.006-0.003-0.01-0.004-0.01-0.004
		s0.048,0.097,0.059,0.191c0.005,0.06-0.003,0.117-0.046,0.151c-0.02,0.015-0.042,0.023-0.065,0.031
		C38.775,2.1,38.77,2.101,38.764,2.102c-0.022,0.006-0.047,0.009-0.069,0.009c-0.001,0-0.002,0-0.002,0h-0.002h-0.002l0,0
		c-0.021,0-0.042-0.002-0.062-0.006c-0.004,0-0.008,0-0.012-0.001c-0.016-0.002-0.03-0.004-0.044-0.008
		c-0.005-0.001-0.009-0.001-0.013-0.002c-0.014-0.004-0.021-0.007-0.03-0.008c-0.003-0.001-0.004-0.001-0.008-0.001
		c-0.006-0.003-0.012-0.005-0.012-0.005s0.043,0.062,0.078,0.138c0.041,0.089,0.073,0.198,0.021,0.261
		c-0.013,0.015-0.025,0.024-0.038,0.033c-0.005,0.004-0.011,0.006-0.015,0.009c-0.009,0.005-0.018,0.01-0.026,0.012
		c-0.005,0.004-0.011,0.004-0.016,0.005c-0.009,0.003-0.017,0.005-0.024,0.007c-0.005,0.001-0.011,0.001-0.016,0.001
		c-0.004,0-0.01,0-0.014,0s-0.006,0-0.009,0c-0.008,0-0.014,0-0.021-0.001c-0.006-0.002-0.012-0.002-0.019-0.003
		c-0.005-0.001-0.01-0.002-0.015-0.004c-0.006-0.001-0.011-0.001-0.015-0.003h-0.001L38.38,2.546
		c0.05,0.048,0.159,0.173,0.105,0.302c-0.009,0.019-0.021,0.033-0.034,0.044c-0.005,0.005-0.01,0.008-0.015,0.01
		c-0.011,0.009-0.021,0.015-0.034,0.018c-0.006,0.004-0.013,0.005-0.021,0.007c-0.012,0.003-0.023,0.005-0.038,0.007
		c-0.006,0.001-0.014,0.001-0.019,0.001c-0.006,0-0.011,0.001-0.015,0.001c-0.014,0-0.027-0.001-0.042-0.001l0,0
		c-0.021-0.003-0.042-0.006-0.061-0.009c-0.001-0.001-0.002-0.001-0.003-0.001c-0.018-0.004-0.035-0.008-0.049-0.011
		c-0.003-0.002-0.004-0.002-0.006-0.003c-0.014-0.002-0.024-0.006-0.032-0.009c-0.001,0-0.003,0-0.004,0
		c-0.006-0.004-0.011-0.005-0.011-0.005s0.357,0.184,0.382,0.325c0.001,0.016,0,0.028-0.006,0.039c0,0.003-0.002,0.005-0.002,0.006
		c-0.006,0.012-0.015,0.019-0.024,0.026c-0.003,0.001-0.005,0.002-0.007,0.004c-0.012,0.006-0.024,0.012-0.04,0.015
		c-0.001,0-0.002,0-0.003,0.001c-0.014,0.004-0.03,0.005-0.045,0.008c-0.002,0-0.006,0-0.009,0c-0.005,0-0.01,0-0.015,0.001
		l-0.131-0.008l0.122,0.075c0.077,0.053,0.164,0.125,0.17,0.188c0.003,0.022-0.001,0.044-0.006,0.062c0,0.001,0,0.004-0.001,0.006
		c-0.006,0.018-0.015,0.029-0.025,0.042c-0.001,0.002-0.003,0.004-0.005,0.005c-0.011,0.011-0.022,0.02-0.035,0.024
		c-0.003,0.003-0.005,0.003-0.007,0.004c-0.014,0.005-0.027,0.007-0.04,0.007c-0.001,0-0.002,0.002-0.002,0.002
		c-0.007,0-0.014-0.002-0.019-0.003c-0.007-0.001-0.008,0.001-0.009,0.003c0,0.001-0.002,0.001-0.001,0.003s0.003,0.005,0.008,0.011
		c0.002,0.001,0.002,0.003,0.005,0.007c0.006,0.005,0.012,0.011,0.02,0.018c0.003,0.002,0.005,0.006,0.009,0.01
		c0.011,0.01,0.022,0.02,0.035,0.032c0.007,0.005,0.013,0.011,0.019,0.017c0.007,0.007,0.015,0.014,0.022,0.021
		c0.007,0.006,0.014,0.013,0.021,0.021c0.005,0.006,0.01,0.013,0.016,0.018c0.007,0.008,0.013,0.016,0.019,0.021
		c0.004,0.007,0.008,0.01,0.01,0.015c0.008,0.013,0.014,0.021,0.015,0.031c0.013,0.076-0.004,0.125-0.141,0.125
		s0.204,0.117,0.204,0.117s0,0.001,0.002,0.003c0.011,0.012,0.062,0.062,0.067,0.107c0,0.005,0.001,0.01,0,0.016
		c-0.003,0.033-0.039,0.059-0.146,0.059c-0.068,0-0.094,0.004-0.093,0.01c0.003,0.01,0.081,0.028,0.152,0.052
		c0.002,0,0.003,0.001,0.005,0.001c0.012,0.004,0.02,0.008,0.03,0.012c0.004,0.001,0.007,0.002,0.012,0.005
		c0.01,0.002,0.017,0.006,0.025,0.011c0.003,0.001,0.007,0.004,0.011,0.005c0.01,0.005,0.019,0.013,0.023,0.019
		c0.006,0.004,0.008,0.009,0.01,0.014c0.007,0.02,0.012,0.042,0.015,0.06c0.001,0.004,0.002,0.008,0.002,0.012
		c0.003,0.015,0.005,0.033,0.007,0.045l0,0c-0.002,0.003-0.003,0.005-0.004,0.005c-0.038,0.052-0.072,0.103-0.104,0.154
		c-0.003,0.005-0.007,0.01-0.009,0.014c-0.029,0.048-0.058,0.097-0.083,0.144c-0.003,0.005-0.005,0.01-0.007,0.014
		C38.5,5,38.477,5.044,38.458,5.086c-0.003,0.003-0.003,0.005-0.005,0.009c-0.02,0.042-0.037,0.082-0.051,0.117l-0.021,0.005
		c-0.044,0.006-0.087,0.012-0.132,0.021c-0.015,0.003-0.029,0.005-0.044,0.008C38.17,5.251,38.135,5.259,38.1,5.266
		c-0.014,0.003-0.027,0.004-0.042,0.008C38.012,5.283,37.966,5.292,37.92,5.3c-0.011,0.003-0.022,0.005-0.035,0.008
		c-0.033,0.008-0.065,0.015-0.099,0.021c-0.02,0.005-0.038,0.009-0.056,0.014c-0.025,0.005-0.051,0.012-0.075,0.018
		c-0.019,0.005-0.036,0.009-0.055,0.014c-0.029,0.006-0.059,0.014-0.085,0.021c-0.023,0.005-0.045,0.013-0.068,0.018
		c-0.022,0.006-0.046,0.012-0.067,0.019c-0.017,0.003-0.033,0.009-0.049,0.014c-0.019,0.005-0.037,0.011-0.055,0.016
		c-0.014,0.004-0.028,0.009-0.041,0.013c-0.023,0.007-0.046,0.015-0.066,0.021c-0.011,0.004-0.021,0.008-0.03,0.01
		c-0.019,0.009-0.038,0.015-0.055,0.02c-0.008,0.004-0.015,0.008-0.021,0.01c-0.014,0.007-0.025,0.01-0.037,0.015
		c-0.005,0.004-0.01,0.005-0.015,0.008c-0.014,0.007-0.024,0.014-0.034,0.02l-0.001,0.001c-0.07,0.056-0.114,0.223-0.11,0.401
		c0.003,0.099,0.021,0.199,0.055,0.288c0.022,0.053,0.049,0.102,0.085,0.14c0.014,0.017,0.027,0.03,0.044,0.042
		c0.251,0.195,0.514,0.333,0.514,0.333l0.541,0.374l0.157,0.055c0.001,0.007,0.001,0.015,0.001,0.021
		c0.005,0.053,0.011,0.104,0.019,0.159c0.001,0.004,0.001,0.006,0.001,0.01c0.009,0.057,0.019,0.113,0.033,0.171
		c0.003,0.017,0.007,0.033,0.011,0.05c0.012,0.047,0.023,0.097,0.04,0.146c0.003,0.012,0.006,0.023,0.009,0.036
		c0.019,0.062,0.041,0.123,0.063,0.184c0.005,0.015,0.013,0.029,0.018,0.044c0.021,0.051,0.042,0.102,0.064,0.152
		c0.008,0.019,0.017,0.034,0.023,0.052c0.03,0.064,0.062,0.128,0.098,0.193c0.005,0.009,0.01,0.017,0.014,0.025
		c0.032,0.058,0.066,0.117,0.103,0.178c0.012,0.019,0.023,0.036,0.035,0.057c0.037,0.06,0.078,0.12,0.12,0.181
		c0.004,0.007,0.009,0.014,0.014,0.021l0,0l-0.074,0.093l0.022,0.275l-0.046,0.351l0.023,0.527l0.057,0.176
		c0,0,0.024,0.493,0.295,0.631c0.018,0.009,0.035,0.016,0.052,0.018c0.01,0.001,0.016,0.001,0.023,0.003
		c0.01,0.001,0.022,0.002,0.035,0.002c0.031-0.001,0.064-0.005,0.1-0.014c0.007-0.002,0.014-0.005,0.021-0.006
		c0.035-0.011,0.072-0.023,0.11-0.041c0.001,0,0.001,0,0.003-0.001c0.039-0.018,0.083-0.038,0.124-0.063
		c0.009-0.004,0.017-0.009,0.025-0.014c0.041-0.024,0.087-0.052,0.13-0.083c0.004-0.001,0.008-0.005,0.011-0.007
		c0.004-0.003,0.011-0.006,0.016-0.01c0.038-0.026,0.076-0.053,0.114-0.083c0.009-0.005,0.015-0.012,0.023-0.017
		c0.044-0.035,0.09-0.07,0.133-0.108c0.01-0.006,0.017-0.013,0.025-0.02c0.041-0.033,0.079-0.068,0.119-0.103
		c0.007-0.007,0.014-0.014,0.021-0.02c0.042-0.038,0.083-0.075,0.124-0.113c0.005-0.006,0.011-0.011,0.016-0.015
		c0.007,0.001,0.012,0.005,0.018,0.009c0.014,0.006,0.027,0.011,0.041,0.017c0.021,0.011,0.044,0.019,0.064,0.027l0.156,0.037
		c-0.004,0-0.005-0.001-0.009-0.001c0.022,0.006,0.046,0.011,0.072,0.016c0.02,0.006,0.039,0.01,0.059,0.016
		c-0.018,0.007-0.03,0.014-0.039,0.021c0.08,0.044,0.154,0.096,0.305,0.071c0.004-0.013,0.004-0.023,0.005-0.033
		c0.048,0.01,0.096,0.02,0.148,0.029l0.226,0.023c0.051,0.065,0.165,0.095,0.243,0.057l-0.006-0.028c0,0,0.003,0,0.006-0.001
		c-0.001-0.002-0.001-0.002-0.001-0.002h0.003c0.08-0.024,0.742-0.244,1.395-0.825L43.19,8.23c0,0-0.117,0.686-0.251,0.988
		c-0.135,0.301-0.287,0.419-0.287,0.419s0.303-0.737,0.303-1.039c0-0.259,0.013-0.295,0.016-0.301l-0.552,0.67l0.402-0.821
		l-0.453,0.352l0.47-0.521l0.822-0.284c0,0,0.186,0.49,0.237,1.032c0.101-0.173,0.194-0.364,0.274-0.57
		c-0.143-0.198-0.299-0.52-0.367-0.661c-0.267-0.044-0.561-0.123-0.561-0.123s-1.837-0.143-2.582-1.312
		c-0.065-0.102-0.123-0.213-0.17-0.332c-0.135-0.347-0.183-0.765-0.095-1.27c0,0-0.034,1.734,1.369,2.348
		c1.298,0.565,2.112,0.349,2.391,0.542l0.005-0.001c0,0,0.163-0.024,0.265-0.11c0.1-0.087,0.3-0.191,0.451-0.379
		c0.152-0.188,0.163-0.434,0.163-0.434s0.014,0,0.113-0.07c0.101-0.068,0.202-0.238,0.202-0.238s0.111-0.037,0.489-0.237
		C45.94,5.825,46.04,5.74,46.138,5.64c0.293-0.299,0.561-0.726,0.561-0.726s0.127-0.146,0.323-0.271
		c0.173-0.111,0.238-0.38,0.253-0.445c0.001-0.01,0.002-0.015,0.002-0.015s0.352-0.231,0.488-0.685
		c0.007-0.026,0.013-0.05,0.015-0.071c0-0.006,0-0.014,0-0.02c0.003-0.014,0.003-0.028,0-0.039C47.78,3.362,47.78,3.357,47.778,3.35
		z M41.898,10.443c-0.007,0.03-0.033,0.044-0.023,0.093c0.055,0.024,0.142,0.015,0.188,0.048
		C42.049,10.494,41.996,10.446,41.898,10.443 M44.28,8.414c-0.003,0.044-0.079,0.014-0.093,0.047
		c0.009,0.078,0.004,0.168,0.116,0.142C44.29,8.545,44.333,8.431,44.28,8.414z M43.834,9.308c0.059-0.002,0.09-0.033,0.092-0.094
		C43.873,9.222,43.816,9.23,43.834,9.308z M43.738,9.378c0.057-0.067-0.016-0.124,0.023-0.188
		C43.662,9.193,43.685,9.353,43.738,9.378z M43.903,9.378c0,0.032,0,0.062,0,0.095c0.071,0.001,0.121-0.022,0.142-0.07
		C43.989,9.404,43.974,9.363,43.903,9.378z M44.163,8.979c0.019-0.104-0.022-0.15-0.118-0.142
		C44.059,8.909,44.082,8.974,44.163,8.979z M38.926,8.886c-0.005-0.007-0.01-0.014-0.014-0.021
		C38.917,8.873,38.92,8.879,38.926,8.886L38.926,8.886z M43.609,8.028c0,0,0.019,0.641,0,1.122c0.056-0.071,0.11-0.146,0.162-0.225
		C43.732,8.557,43.609,8.028,43.609,8.028z M40.813,10.876L40.813,10.876L40.813,10.876L40.813,10.876z M36.976,5.575
		c-0.07,0.056-0.114,0.223-0.11,0.401C36.862,5.797,36.906,5.63,36.976,5.575z M41.031,2.736L41.023,2.68
		c0,0-0.451-0.718-0.593-0.887c-0.143-0.168-0.168-0.131-0.168-0.131s-0.256-0.144-0.391-0.223
		c-0.138-0.082,0.567,0.594,0.655,0.744c0.09,0.151,0.24,0.347,0.204,0.461c-0.035,0.115-0.106,0.179-0.106,0.179l-0.655-0.826
		l-0.471-0.461c0,0,0.018,0.053,0.026,0.186c0.008,0.133,0.487,0.577,0.613,0.772c0.124,0.194,0.238,0.346,0.167,0.443
		c-0.071,0.099-0.203,0.099-0.203,0.099s-0.374-0.577-0.604-0.817c-0.231-0.239-0.443-0.39-0.443-0.39s0.079,0.062,0.079,0.177
		c0,0.114,0.045,0.169,0.045,0.169s0.523,0.408,0.665,0.648c0.143,0.238,0.143,0.354,0.045,0.381
		c-0.099,0.026-0.213-0.089-0.213-0.089s-0.249-0.381-0.461-0.568c-0.213-0.186-0.524-0.372-0.524-0.372s0.178,0.16,0.195,0.284
		c0.019,0.124,0.373,0.311,0.569,0.585c0.193,0.274,0.3,0.363,0.158,0.372s-0.239-0.045-0.239-0.045s-0.249-0.39-0.462-0.514
		c-0.213-0.123-0.292-0.169-0.292-0.169s0.026,0.107,0.035,0.16s0.311,0.195,0.443,0.337c0.134,0.142,0.267,0.418,0.267,0.418
		l-0.044,0.105l-0.205-0.23l-0.496-0.435l-0.027,0.187l0.586,0.47l0.009,0.098l-0.115,0.009l-0.461-0.328l0.053,0.125l0.382,0.345
		l-0.443-0.194l0.372,0.292l-0.311,0.026l0.222,0.062l0.15-0.034c0,0,0.817-0.745,1.118-0.914c0.107-0.061,0.246-0.129,0.384-0.196
		c0.254-0.121,0.495-0.229,0.495-0.229L41.031,2.736z M40.898,5.556c-0.044-0.035-0.071-0.058-0.071-0.058S40.842,5.52,40.898,5.556
		z M45.004,1.844c-0.046,0.01-0.095,0.02-0.146,0.03C44.485,1.955,44.357,2.1,44.357,2.1C44.111,2.52,45.205,2,45.081,2.13
		c-0.236,0.248-0.731,0.783-0.946,0.951c-0.333,0.255-0.96,1.161-0.31,1.35c0.649,0.188,0.829,0.066,0.829,0.066
		s-0.874-0.075-0.859-0.354c0.015-0.277,0-0.497,0.482-1.002c0.309-0.322,0.629-0.672,0.79-0.885c0.028-0.037,0.081-0.1,0.14-0.169
		c0.133-0.152,0.302-0.338,0.302-0.338S45.301,1.783,45.004,1.844z M46.088,4.152c-0.566,0.21-1.074,0.284-1.074,0.284
		s0.51,0.013,1.09-0.193c0.376-0.133,0.782-0.356,1.097-0.739C46.9,3.798,46.48,4.008,46.088,4.152z M45.379,2.331
		c-0.04,0.059-0.074,0.119-0.104,0.181c-0.232,0.48-0.215,1.604-0.21,1.77L45.06,4.314c0,0,0.572-0.119,0.973-0.242
		c-0.005-0.021-0.018-0.046-0.045-0.068c-0.059-0.054-0.065-0.056-0.065-0.056S46,3.965,46.058,3.992
		C46.078,4,46.096,4.01,46.106,4.02c0.009,0.009,0.015,0.015,0.02,0.02c0.065-0.021,0.123-0.043,0.17-0.063
		c0.029-0.014,0.058-0.027,0.088-0.042c-0.004-0.027-0.019-0.066-0.065-0.104c-0.079-0.059-0.088-0.062-0.088-0.062
		s0.178,0.026,0.236,0.075c0.014,0.011,0.027,0.021,0.034,0.029c0.235-0.124,0.412-0.246,0.412-0.246s-0.239-0.02-0.368-0.01
		c-0.131,0.01-0.07-0.139-0.07-0.139l0.199-0.673c0,0,0.239-0.845-0.108-1.02c-0.182,0.017-0.394,0.144-0.582,0.295
		c0.004,0.014,0.01,0.036,0.018,0.074c0.016,0.085-0.051,0.272-0.051,0.272s0.003-0.009-0.016-0.116
		c-0.012-0.074-0.051-0.111-0.074-0.128c-0.116,0.103-0.217,0.206-0.289,0.289c0.005,0.008,0.01,0.016,0.017,0.028
		c0.033,0.058,0.035,0.194,0.036,0.244c0,0.01-0.001,0.019-0.001,0.019s0-0.01-0.048-0.104c-0.027-0.05-0.062-0.073-0.09-0.086
		c-0.011,0.017-0.021,0.029-0.024,0.038c-0.05,0.085-0.188,0.579-0.262,0.86c0.06-0.346,0.134-0.701,0.194-0.846
		c0.015-0.035,0.039-0.076,0.069-0.118h0.002l0.016-0.021c-0.001-0.001-0.001-0.002-0.001-0.002c0.246-0.325,0.85-0.768,1.052-0.798
		c0.234-0.031,0.218,0.22,0.218,0.22C47,1.522,46.665,1.438,46.414,1.504C46.192,1.565,45.671,1.896,45.379,2.331z M40.425,5.833
		c0,0-0.889-0.669-1.728-0.587c-0.113,0.013-0.223,0.025-0.326,0.042c-0.646,0.099-1.047,0.26-1.047,0.26s0.471-0.097,1.014-0.132
		c0.469-0.029,0.991-0.014,1.314,0.148c0.705,0.354,0.705,0.402,0.705,0.402s-0.923-0.284-1.843-0.251
		c-0.07,0.003-0.135,0.008-0.197,0.013c-0.767,0.065-1.026,0.322-1.026,0.322s0.357-0.165,1.018-0.188
		c0.125-0.005,0.261-0.005,0.406,0.004c0.923,0.052,1.341,0.151,1.341,0.151l-1.778,0.376l-0.282,0.06l0.28-0.036l1.797-0.232
		l-1.34,0.888l1.541-0.787c0,0-0.6,0.595-0.771,0.704c-0.258,0.166-1.093,0.177-1.176,0.238c-0.006,0.005-0.008,0.01-0.008,0.014
		c0.004,0.014,0.054,0.026,0.133,0.031c0.333,0.021,1.195-0.051,1.403-0.35c0.143-0.207,0.687-0.721,0.687-0.721L40.425,5.833z
		 M40.458,4.56c0.52,0.972,1.894,1.273,2.916,0.787c0,0-0.889,0.251-1.609,0s-0.954-0.77-0.972-0.954
		c-0.015-0.174,0.029-0.563,0.283-0.791c0.226-0.132,0.441-0.245,0.642-0.345c-0.104,0.212-0.128,0.47-0.004,0.784
		c0.471,1.172,1.575,1.005,1.575,1.005s-1.391-0.353-1.273-1.14c0.095-0.633,0.535-0.973,0.705-1.083
		c0.287-0.111,0.486-0.183,0.568-0.245c0.448-0.567-3.566-0.051-4.794,2.621c-0.001,0.001-0.001,0.003-0.003,0.006
		c0.016-0.006,0.031-0.008,0.045-0.013c0.056-0.008,0.11-0.014,0.165-0.021c0.095-0.003,0.185-0.001,0.264-0.023
		c0.033-0.01,0.066-0.021,0.095-0.044c0.457-0.423,0.899-0.772,1.315-1.059C40.344,4.209,40.363,4.383,40.458,4.56z M47.329,3.779
		c0,0-0.49,0.398-1.195,0.691c-0.175,0.074-0.365,0.142-0.564,0.193c-0.997,0.262-1.899,0.303-1.899,0.303s1.708-0.027,2.48-0.332
		c0.041-0.015,0.08-0.032,0.115-0.051C46.964,4.231,47.329,3.779,47.329,3.779z M46.592,2.297c0.019,0.048,0.003,0.166,0.003,0.166
		s0.049-0.092,0.054-0.189c0.003-0.102-0.057-0.139-0.057-0.139L46.521,2.22C46.521,2.22,46.571,2.249,46.592,2.297z M46.87,3.745
		c-0.072-0.011-0.104,0.021-0.093,0.094C46.85,3.85,46.843,3.779,46.87,3.745z M46.39,2.4c0.072,0.012,0.104-0.02,0.094-0.093
		C46.41,2.294,46.379,2.327,46.39,2.4z M36.791,6.077c-0.032-0.104,0.092-0.05,0.071-0.142C36.791,5.92,36.728,6.035,36.791,6.077z
		 M37.544,7.184c-0.017,0.07-0.052-0.023-0.095,0C37.436,7.274,37.646,7.262,37.544,7.184z M39.794,4.236
		c-0.108,0.001-0.15-0.09-0.259-0.025C39.504,4.417,39.76,4.341,39.794,4.236z M45.811,3.076c0.07,0.001,0.12-0.021,0.142-0.07
		C45.881,3.005,45.808,3.003,45.811,3.076z M45.034,6.971c-0.041,0.002-0.073-0.005-0.094-0.023
		c-0.008,0.054,0.005,0.09,0.047,0.095C44.989,7.004,45.047,7.024,45.034,6.971z M44.068,8.008
		c-0.024-0.133-0.011-0.303-0.094-0.378C43.983,7.74,43.983,7.901,44.068,8.008z M42.206,2.71c-0.021,0.044-0.126,0.109-0.023,0.142
		C42.165,2.793,42.286,2.754,42.206,2.71z M44.303,8.148c-0.054-0.282-0.118-0.555-0.212-0.799
		C44.13,7.646,44.195,7.922,44.303,8.148z M46.045,2.944c0.036-0.066,0.104-0.1,0.12-0.189C46.083,2.764,45.989,2.877,46.045,2.944z
		 M46.305,5.558c-0.054-0.008-0.09,0.005-0.117,0.023C46.182,5.684,46.322,5.613,46.305,5.558z M45.741,2.802
		c0.032-0.068,0.109-0.095,0.141-0.163C45.797,2.641,45.731,2.786,45.741,2.802z M46.094,8.173
		c-0.044,0.191-0.211,0.385-0.188,0.564C45.95,8.547,46.128,8.364,46.094,8.173z M45.788,8.879c0,0.109-0.09,0.13-0.071,0.258
		c0.083-0.002,0.148-0.023,0.165-0.092C45.808,9.02,45.79,9.17,45.741,9.092C45.806,9.084,45.827,8.914,45.788,8.879z M42.121,2.983
		c-0.018-0.044-0.07-0.016-0.023-0.069c-0.099,0.012-0.16-0.014-0.212-0.049c-0.074,0.102,0.082,0.273,0.188,0.189
		C41.987,3.016,42.169,3.059,42.121,2.983z M43.481,9.142c0.001-0.011,0.003-0.022,0.003-0.033c0.006-0.014,0.02-0.021,0.043-0.017
		c0.001-0.056-0.041-0.07-0.023-0.144c-0.005,0.004-0.009,0.007-0.014,0.01c0.009-0.204,0.011-0.377,0.001-0.444
		c-0.033-0.217-0.116-0.319-0.116-0.319l-0.234,1.46c0.112-0.101,0.222-0.211,0.329-0.334c0.002,0.002,0.006,0.005,0.011,0.006
		c0.052-0.061,0.001-0.16,0.094-0.118C43.582,9.138,43.532,9.133,43.481,9.142z M44.398,9.114c-0.014-0.057-0.021-0.119-0.095-0.117
		C44.244,9.06,44.309,9.13,44.398,9.114z M42.997,8.214c0.019-0.105-0.022-0.151-0.117-0.141
		C42.894,8.145,42.916,8.208,42.997,8.214z M44.585,10.127c0.027,0.093,0.08,0.155,0.166,0.188c0.028-0.093,0.019-0.073-0.023-0.095
		c0-0.062,0.051,0,0.094-0.094c-0.204,0.019,0.019-0.258-0.165-0.236c-0.031,0.079-0.03,0.147,0.023,0.142
		C44.645,10.06,44.623,10.1,44.585,10.127z M38.557,10.597c-0.006,0.022-0.004,0.033,0.002,0.041
		C38.56,10.625,38.56,10.614,38.557,10.597z M38.369,9.327c0.068-0.012,0.181-0.102,0.118-0.165
		C38.438,9.207,38.397,9.26,38.369,9.327z M37.757,8.997c-0.002,0.07-0.062,0.08-0.072,0.141C37.774,9.17,37.81,9.031,37.757,8.997z
		 M40.064,6.641c0.01-0.039,0.03,0.007,0.071,0c-0.002-0.131,0.013-0.279-0.071-0.329c-0.02,0.132,0.047,0.175,0.048,0.283
		C40.063,6.568,39.999,6.63,40.064,6.641z M39.734,3.461c0.027-0.036,0.077-0.048,0.071-0.116
		C39.745,3.333,39.671,3.428,39.734,3.461z M38.404,10.827c0.033-0.063,0.1-0.092,0.118-0.165
		C38.376,10.642,38.38,10.79,38.404,10.827z M38.752,7.213c0.012,0.034-0.028,0.122,0.023,0.117
		c0.018-0.068,0.057-0.116,0.093-0.165C38.797,7.148,38.825,7.231,38.752,7.213z M38.016,7.349
		c-0.007,0.044,0.026,0.052,0.023,0.095c-0.013,0-0.027,0.019,0,0.021c0.048-0.083,0.064,0.059,0.094,0.071
		c-0.002-0.04,0.005-0.073,0.023-0.093C38.073,7.45,38.093,7.35,38.016,7.349z M37.869,7.178c0.063,0.008,0.087,0.008,0.141,0.069
		c-0.007-0.072,0.068,0.06,0.07-0.023c-0.065-0.038-0.119-0.084-0.188-0.117C37.893,7.138,37.88,7.16,37.869,7.178z M38.342,7.54
		c-0.064-0.199-0.059-0.136-0.188-0.236C38.153,7.447,38.3,7.441,38.342,7.54z M42.846,5.024c0.008-0.032,0.033-0.044,0.023-0.094
		c-0.059-0.003-0.113-0.005-0.118,0.047C42.798,4.977,42.781,5.042,42.846,5.024z M41.15,12.007c0.081,0.01,0.183-0.084,0.143-0.118
		C41.259,11.943,41.139,11.909,41.15,12.007z M43.686,10.818c-0.036,0.053-0.062,0.091-0.024,0.14
		c0.007-0.017,0.021-0.026,0.048-0.021C43.698,10.862,43.765,10.838,43.686,10.818z M43.595,11.002
		c-0.017,0.062-0.085,0.071-0.095,0.141c0.033-0.001,0.052,0.012,0.071,0.023C43.565,11.11,43.675,11.052,43.595,11.002z
		 M42.796,11.659c-0.089-0.016-0.127-0.029-0.142,0.07C42.737,11.738,42.808,11.785,42.796,11.659z M43.268,11.588
		c0.08,0.002,0.108-0.049,0.094-0.143c-0.023,0-0.047,0-0.07,0C43.263,11.474,43.264,11.529,43.268,11.588z M45.058,9.539
		c0.033,0.062,0.112,0.2,0.212,0.118C45.18,9.635,45.182,9.524,45.058,9.539z M44.797,9.796c0.048,0.089,0.101,0.169,0.189,0.214
		c-0.07,0-0.143-0.003-0.142,0.07c0.044,0.033,0.103,0.055,0.165,0.07c0.037-0.049,0.027-0.146,0.142-0.118
		C45.135,9.811,44.888,9.904,44.797,9.796z M44.987,10.316c-0.031-0.001-0.033-0.029-0.07-0.023
		c-0.042,0.092-0.232,0.034-0.213,0.188c0.096-0.037,0.117-0.045,0.236-0.023C44.958,10.413,44.978,10.371,44.987,10.316z
		 M41.473,11.587c-0.073,0.05-0.055,0.226,0.023,0.259C41.556,11.793,41.625,11.604,41.473,11.587 M40.745,11.164
		c-0.041,0.038-0.06,0.098-0.049,0.189c0.139,0.038,0.208,0.021,0.331,0.093c0.047-0.047,0.015-0.135,0-0.189
		c-0.121-0.005-0.075,0.09-0.143,0.097v-0.118C40.835,11.213,40.814,11.164,40.745,11.164 M41.05,10.88
		c-0.065-0.016-0.048,0.047-0.095,0.047c-0.05-0.121-0.193-0.152-0.281-0.235c-0.055,0.032-0.133,0.041-0.119,0.143
		c0.059,0.069,0.079,0.015,0.166,0c0.045,0.043,0.006,0.085,0,0.141c0.168-0.037,0.158,0.096,0.163,0.165
		c0.083,0.01,0.133-0.009,0.189-0.023C41.078,11.026,41.075,10.942,41.05,10.88 M41.851,11.611
		c-0.001-0.139-0.146,0.008-0.143-0.118c0.049-0.062,0.084-0.138,0.072-0.258c-0.157-0.002-0.271-0.214-0.425-0.071
		c0.015,0.229,0.329,0.028,0.329,0.282c-0.027-0.02-0.062-0.03-0.117-0.023c-0.012,0.028-0.024,0.054-0.048,0.07
		C41.561,11.69,41.754,11.536,41.851,11.611 M40.061,10.927c0.083,0.029,0.325-0.093,0.282-0.188
		C40.256,10.809,40.089,10.799,40.061,10.927 M39.874,11.045c0.066-0.02,0.059,0.033,0.116,0.024
		c0.033-0.031,0.014-0.112,0.047-0.143C39.961,10.894,39.869,10.934,39.874,11.045 M39.968,11.328
		c-0.008,0.063-0.01,0.118,0.068,0.095C40.027,11.377,40.028,11.321,39.968,11.328 M41.733,10.692v0.118
		C41.804,10.846,41.804,10.657,41.733,10.692 M41.875,10.762c0.046-0.032,0.118-0.037,0.142-0.094
		c-0.082-0.005-0.091-0.083-0.165-0.095C41.819,10.61,41.802,10.761,41.875,10.762 M39.708,11.894
		c0.075-0.161,0.006-0.379-0.071-0.518c0,0.157-0.212,0.115-0.258,0.281C39.477,11.74,39.531,11.961,39.708,11.894 M39.731,11.093
		c-0.033-0.006-0.04-0.039-0.07-0.048c-0.033,0.039-0.084,0.059-0.07,0.143C39.677,11.197,39.728,11.168,39.731,11.093
		 M41.427,10.952c-0.038-0.077-0.183-0.041-0.236,0C41.209,10.994,41.42,11.05,41.427,10.952 M41.64,10.927
		c0.058,0.138,0.325,0.066,0.47,0.118C42.08,10.814,41.761,10.97,41.64,10.927 M44.068,5.332c0.029-0.001,0.041-0.021,0.046-0.049
		c-0.037,0.001-0.072,0.001-0.104,0.002C44.025,5.304,44.042,5.322,44.068,5.332z M44.812,5.267
		c-0.24,0.007-0.432,0.011-0.587,0.014c0.006,0.015,0.009,0.031,0.008,0.051c-0.052-0.051-0.052,0.006-0.048,0.071
		c-0.033,0.001-0.066,0.004-0.07-0.023c-0.056-0.008-0.027,0.067-0.071,0.07c0.033,0.04,0.172,0.122,0.024,0.142
		c0.025-0.036,0.025-0.061,0-0.095c-0.023,0.071-0.1,0.088-0.189,0.095c0.034-0.053-0.003-0.176,0.071-0.188
		c-0.042-0.014-0.049-0.062-0.049-0.117c-0.125,0-0.179,0-0.179,0s-0.285,0.281-0.397,0.457l-0.002,0.002c0,0-0.4,0.407-1.389,0.174
		c-0.655-0.156-0.914-0.287-1.023-0.359c-0.046-0.036-0.084-0.061-0.084-0.061s0.044,0.046,0.08,0.073
		c0.215,0.169,0.883,0.638,1.629,0.598c0.614-0.035,0.773-0.107,0.812-0.15c0.016,0.052,0.037,0.112,0.066,0.172
		c-0.081,0.042-0.643,0.325-1.246,0.263c-0.653-0.066-1.039-0.284-1.039-0.284s0.938,0.603,1.593,0.418
		c0.394-0.11,0.661-0.179,0.816-0.215c0.037,0.036,0.081,0.066,0.132,0.086c-0.072,0.077-0.326,0.324-0.674,0.38
		c-0.414,0.063-0.634,0.085-0.634,0.085s0.896,0.034,1.156-0.128c0.205-0.129,0.35-0.273,0.401-0.328
		c0.076,0.015,0.149,0.034,0.226,0.049c-0.003,0.054-0.039,0.156-0.216,0.279c-0.26,0.182-0.466,0.281-0.466,0.281
		S43.935,7,44.143,6.795c0.129-0.127,0.196-0.218,0.229-0.27c0.142-0.019,0.303-0.089,0.509-0.27
		c0.158-0.11,0.611-0.536,0.745-0.626c0.18-0.123,0.132-0.222,0.209-0.247c0.141-0.046,0.246-0.091,0.328-0.134
		c0.004-0.108,0.004-0.215,0.002-0.32C45.821,5.071,45.293,5.255,44.812,5.267z M39.766,3.933c-0.023-0.118,0.072-0.116,0.07-0.212
		c-0.112,0.041-0.104-0.014-0.212-0.023C39.567,3.834,39.657,3.95,39.766,3.933z M43.743,2.684c0,0,0.223,0.043,0.363-0.126
		c0.139-0.168,0.056-0.41,0.056-0.41S43.959,1.93,43.776,1.98c-0.184,0.051-0.368,0.184-0.335,0.386
		C43.474,2.566,43.743,2.684,43.743,2.684z M39.789,8.045l0.888-0.018l-1.289,0.703l1.34-0.518c0,0-0.051,0.065-0.486,0.619
		c-0.256,0.326-0.528,0.603-0.711,0.778c-0.127,0.122-0.21,0.193-0.21,0.193s0.12-0.045,0.274-0.132
		c0.114-0.066,0.247-0.155,0.361-0.27c0.27-0.268,0.938-1.157,0.938-1.157s-0.217,0.688-0.502,1.123
		c-0.143,0.218-0.335,0.416-0.492,0.559c-0.156,0.142-0.279,0.229-0.279,0.229s0.158-0.085,0.332-0.189
		c0.106-0.062,0.217-0.133,0.307-0.195c0.233-0.167,0.971-1.759,0.971-1.759s-0.085,0.485-0.451,1.239
		c-0.145,0.293-0.392,0.587-0.64,0.835c-0.225,0.223-0.448,0.411-0.599,0.529c-0.113,0.09-0.186,0.145-0.186,0.145
		s0.081,0,0.266-0.068c0.017-0.005,0.036-0.015,0.058-0.025c0.137-0.074,0.381-0.264,0.613-0.492
		c0.151-0.152,0.299-0.321,0.402-0.487c0.285-0.452,0.837-1.81,0.837-1.81L41.415,7.81l-0.186-0.1l-0.302-0.018L39.789,8.045z
		 M40.936,7.795c0.061,0.004,0.033,0.092,0.095,0.095c-0.009-0.071,0.181-0.067,0.094-0.142c-0.005,0.037-0.04,0.004-0.048-0.023
		c0.014,0,0.028-0.02,0-0.023C41.04,7.744,40.939,7.721,40.936,7.795z M41.043,8.065c0.01-0.052,0.054-0.127-0.023-0.142
		C41.04,8.007,40.959,8.045,41.043,8.065z M44.328,5.96c0.029-0.059,0.152-0.021,0.165-0.097C44.387,5.833,44.276,5.912,44.328,5.96
		z"/>
	<g>
		<path d="M74.602,10.891c0,0.218-0.171,0.389-0.396,0.389c-0.219,0-0.396-0.171-0.396-0.389c0-0.213,0.177-0.385,0.396-0.385
			C74.431,10.506,74.602,10.678,74.602,10.891z M73.911,10.891c0,0.17,0.125,0.307,0.299,0.307c0.169,0,0.294-0.137,0.294-0.304
			c0-0.171-0.125-0.311-0.297-0.311C74.036,10.583,73.911,10.723,73.911,10.891z M74.147,11.092h-0.09v-0.384
			c0.035-0.008,0.085-0.012,0.148-0.012c0.073,0,0.106,0.012,0.133,0.027c0.021,0.016,0.038,0.048,0.038,0.085
			c0,0.042-0.033,0.075-0.08,0.089v0.006c0.037,0.012,0.06,0.042,0.07,0.092c0.012,0.06,0.019,0.083,0.028,0.097h-0.096
			c-0.013-0.014-0.02-0.049-0.029-0.094c-0.009-0.042-0.032-0.061-0.081-0.061h-0.042V11.092z M74.149,10.875h0.042
			c0.049,0,0.089-0.017,0.089-0.056c0-0.036-0.026-0.059-0.081-0.059c-0.023,0-0.04,0.002-0.05,0.005V10.875z"/>
	</g>
</g>
</svg>
