<?xml version="1.0" encoding="utf-8"?>
<!-- Generator: Adobe Illustrator 16.0.5, SVG Export Plug-In . SVG Version: 6.00 Build 0)  -->
<!DOCTYPE svg PUBLIC "-//W3C//DTD SVG 1.1//EN" "http://www.w3.org/Graphics/SVG/1.1/DTD/svg11.dtd">
<svg version="1.1" id="Layer_1" xmlns="http://www.w3.org/2000/svg" xmlns:xlink="http://www.w3.org/1999/xlink" x="0px" y="0px"
	 width="27px" height="27px" viewBox="52.502 52.5 27 27" enable-background="new 52.502 52.5 27 27" xml:space="preserve">
<radialGradient id="SVGID_1_" cx="-216.6099" cy="-258.8843" r="12.26" gradientTransform="matrix(0 -1.982 -1.8439 0 -417.0918 -349.1754)" gradientUnits="userSpaceOnUse">
	<stop  offset="0" style="stop-color:#FFDD55"/>
	<stop  offset="0.1" style="stop-color:#FFDD55"/>
	<stop  offset="0.5" style="stop-color:#FF543E"/>
	<stop  offset="1" style="stop-color:#C837AB"/>
</radialGradient>
<path fill="url(#SVGID_1_)" d="M66.017,53.735c-5.12,0-6.617,0.005-6.908,0.029c-1.051,0.087-1.705,0.253-2.417,0.607
	c-0.549,0.273-0.982,0.589-1.409,1.032c-0.778,0.808-1.25,1.801-1.42,2.982c-0.083,0.574-0.107,0.69-0.112,3.62
	c-0.002,0.976,0,2.261,0,3.984c0,5.115,0.005,6.612,0.03,6.902c0.085,1.022,0.245,1.665,0.585,2.37
	c0.649,1.347,1.888,2.357,3.348,2.733c0.506,0.131,1.063,0.202,1.781,0.236c0.304,0.014,3.398,0.022,6.496,0.022
	c3.098,0,6.195-0.004,6.491-0.02c0.83-0.038,1.312-0.103,1.845-0.24c1.469-0.379,2.686-1.375,3.349-2.741
	c0.332-0.687,0.501-1.354,0.577-2.323c0.017-0.211,0.024-3.579,0.024-6.943c0-3.364-0.008-6.727-0.024-6.938
	c-0.077-0.985-0.246-1.647-0.59-2.347c-0.282-0.573-0.596-1-1.05-1.438c-0.811-0.774-1.804-1.247-2.985-1.417
	c-0.573-0.083-0.688-0.107-3.618-0.112H66.017z"/>
<radialGradient id="SVGID_2_" cx="391.5029" cy="52.1001" r="12.261" gradientTransform="matrix(0.1739 0.8687 3.5818 -0.7172 -205.0707 -247.2407)" gradientUnits="userSpaceOnUse">
	<stop  offset="0" style="stop-color:#3771C8"/>
	<stop  offset="0.128" style="stop-color:#3771C8"/>
	<stop  offset="1" style="stop-color:#6600FF;stop-opacity:0"/>
</radialGradient>
<path fill="url(#SVGID_2_)" d="M66.017,53.735c-5.12,0-6.617,0.005-6.908,0.029c-1.051,0.087-1.705,0.253-2.417,0.607
	c-0.549,0.273-0.982,0.589-1.409,1.032c-0.778,0.808-1.25,1.801-1.42,2.982c-0.083,0.574-0.107,0.69-0.112,3.62
	c-0.002,0.976,0,2.261,0,3.984c0,5.115,0.005,6.612,0.03,6.902c0.085,1.022,0.245,1.665,0.585,2.37
	c0.649,1.347,1.888,2.357,3.348,2.733c0.506,0.131,1.063,0.202,1.781,0.236c0.304,0.014,3.398,0.022,6.496,0.022
	c3.098,0,6.195-0.004,6.491-0.02c0.83-0.038,1.312-0.103,1.845-0.24c1.469-0.379,2.686-1.375,3.349-2.741
	c0.332-0.687,0.501-1.354,0.577-2.323c0.017-0.211,0.024-3.579,0.024-6.943c0-3.364-0.008-6.727-0.024-6.938
	c-0.077-0.985-0.246-1.647-0.59-2.347c-0.282-0.573-0.596-1-1.05-1.438c-0.811-0.774-1.804-1.247-2.985-1.417
	c-0.573-0.083-0.688-0.107-3.618-0.112H66.017z"/>
<path fill="#FFFFFF" d="M66.011,56.941c-2.459,0-2.768,0.011-3.733,0.055c-0.963,0.043-1.622,0.197-2.197,0.42
	c-0.596,0.231-1.101,0.541-1.604,1.044c-0.503,0.503-0.813,1.008-1.044,1.604c-0.225,0.576-0.377,1.234-0.421,2.198
	c-0.043,0.966-0.054,1.274-0.054,3.734c0,2.458,0.011,2.766,0.054,3.732c0.045,0.964,0.198,1.622,0.421,2.197
	c0.231,0.596,0.541,1.1,1.044,1.604c0.503,0.504,1.008,0.813,1.604,1.046c0.576,0.224,1.234,0.376,2.198,0.419
	c0.966,0.045,1.274,0.056,3.733,0.056c2.459,0,2.766-0.011,3.733-0.056c0.964-0.043,1.622-0.195,2.198-0.419
	c0.595-0.232,1.1-0.542,1.603-1.046c0.504-0.504,0.813-1.008,1.045-1.604c0.224-0.575,0.375-1.233,0.421-2.197
	c0.044-0.966,0.055-1.274,0.055-3.732c0-2.459-0.011-2.768-0.055-3.734c-0.046-0.964-0.197-1.622-0.421-2.197
	c-0.231-0.596-0.541-1.101-1.045-1.604c-0.503-0.503-1.007-0.813-1.604-1.044c-0.576-0.224-1.235-0.377-2.198-0.42
	c-0.967-0.044-1.274-0.055-3.734-0.055H66.011z M65.199,58.573c0.241,0,0.51,0,0.812,0c2.417,0,2.705,0.009,3.659,0.052
	c0.883,0.041,1.361,0.188,1.681,0.312c0.423,0.164,0.724,0.36,1.041,0.677c0.316,0.317,0.513,0.619,0.677,1.041
	c0.124,0.319,0.272,0.798,0.312,1.681c0.043,0.955,0.053,1.241,0.053,3.657s-0.01,2.703-0.053,3.657
	c-0.04,0.883-0.188,1.362-0.312,1.682c-0.164,0.422-0.36,0.723-0.677,1.039c-0.317,0.317-0.617,0.514-1.041,0.678
	c-0.318,0.124-0.798,0.271-1.681,0.312c-0.954,0.045-1.241,0.053-3.659,0.053s-2.704-0.008-3.659-0.053
	c-0.883-0.04-1.362-0.188-1.681-0.312c-0.423-0.164-0.724-0.36-1.041-0.678c-0.317-0.316-0.513-0.618-0.678-1.04
	c-0.124-0.319-0.271-0.798-0.312-1.681c-0.043-0.954-0.053-1.241-0.053-3.659c0-2.417,0.009-2.703,0.053-3.657
	c0.04-0.883,0.188-1.362,0.312-1.681c0.164-0.423,0.361-0.724,0.678-1.041s0.618-0.513,1.041-0.678
	c0.319-0.125,0.798-0.271,1.681-0.312c0.835-0.038,1.159-0.049,2.847-0.051V58.573z M70.845,60.077
	c-0.601,0-1.087,0.486-1.087,1.086c0,0.6,0.486,1.086,1.087,1.086c0.6,0,1.086-0.487,1.086-1.086
	C71.931,60.562,71.444,60.077,70.845,60.077L70.845,60.077z M66.011,61.346c-2.568,0-4.649,2.082-4.649,4.65
	c0,2.567,2.082,4.648,4.649,4.648s4.649-2.081,4.649-4.648C70.66,63.428,68.579,61.346,66.011,61.346L66.011,61.346z M66.011,62.978
	c1.667,0,3.018,1.352,3.018,3.019c0,1.666-1.352,3.019-3.018,3.019s-3.018-1.353-3.018-3.019
	C62.993,64.329,64.345,62.978,66.011,62.978z"/>
</svg>
