<?xml version="1.0" encoding="utf-8"?>
<!-- Generator: Adobe Illustrator 16.0.3, SVG Export Plug-In . SVG Version: 6.00 Build 0)  -->
<!DOCTYPE svg PUBLIC "-//W3C//DTD SVG 1.1//EN" "http://www.w3.org/Graphics/SVG/1.1/DTD/svg11.dtd">
<svg version="1.1" xmlns="http://www.w3.org/2000/svg" xmlns:xlink="http://www.w3.org/1999/xlink" x="0px" y="0px"
	 width="12.312px" height="15px" viewBox="0 0 12.312 15" enable-background="new 0 0 12.312 15" xml:space="preserve">
<g>
	<g>
		<path fill-rule="evenodd" clip-rule="evenodd" fill="#FFFFFF" d="M3.53,4.562c0-1.559,1.25-2.822,2.791-2.822
			c1.538,0,2.787,1.263,2.787,2.822c0,0.016-0.002,0.029-0.002,0.044C9.481,4.604,9.98,4.6,10.774,4.598
			C10.774,2.06,8.763,0,6.284,0c-2.48,0-4.489,2.06-4.489,4.598C2.622,4.691,3.159,4.74,3.541,4.757
			C3.536,4.698,3.53,4.635,3.53,4.562z"/>
	</g>
	<path fill-rule="evenodd" clip-rule="evenodd" fill="#FFFFFF" d="M10.438,5.226H1.875C0.842,5.226,0,6.063,0,7.1v6.027
		C0,14.161,0.842,15,1.875,15h8.562c1.034,0,1.875-0.839,1.875-1.874V7.1C12.312,6.063,11.472,5.226,10.438,5.226z M6.952,11.634
		c0,0.459-0.373,0.831-0.832,0.831s-0.832-0.372-0.832-0.831v-1.34c-0.227-0.218-0.366-0.52-0.366-0.856
		c0-0.654,0.53-1.187,1.187-1.187s1.187,0.533,1.187,1.187c0,0.326-0.132,0.62-0.343,0.835V11.634z"/>
</g>
</svg>
