<?xml version="1.0" encoding="utf-8"?>
<!-- Generator: Adobe Illustrator 16.0.5, SVG Export Plug-In . SVG Version: 6.00 Build 0)  -->
<!DOCTYPE svg PUBLIC "-//W3C//DTD SVG 1.1//EN" "http://www.w3.org/Graphics/SVG/1.1/DTD/svg11.dtd">
<svg version="1.1" xmlns="http://www.w3.org/2000/svg" xmlns:xlink="http://www.w3.org/1999/xlink" x="0px" y="0px" width="78px"
	 height="20px" viewBox="0 0 78 20" enable-background="new 0 0 78 20" xml:space="preserve">
<symbol  id="Hamburger_Menu" viewBox="-14.559 -10.753 26.256 24.421">
	<g>
		<path fill="#343434" d="M11.441,7.1c0-0.552-0.448-1-1-1h-24c-0.552,0-1,0.448-1,1l0,0c0,0.552,0.448,1,1,1h24
			C10.993,8.1,11.441,7.652,11.441,7.1L11.441,7.1z"/>
	</g>
	<g>
		<path fill="#343434" d="M11.441,1.6c0-0.552-0.448-1-1-1h-24c-0.552,0-1,0.448-1,1l0,0c0,0.552,0.448,1,1,1h24
			C10.993,2.6,11.441,2.152,11.441,1.6L11.441,1.6z"/>
	</g>
	<g>
		<path fill="#343434" d="M-14.488-10.575v7.128h1.401l1.975-5.515l2.033,5.515h1.251v-7.128h-0.943v5.799l-1.966-5.321h-0.978
			l-1.907,5.336v-5.813H-14.488z"/>
		<path fill="#343434" d="M-5.993-10.575v7.128h3.982v-0.756h-2.971v-2.288h2.49v-0.746h-2.49v-2.582h3.179v-0.756H-5.993z"/>
		<path fill="#343434" d="M-0.646-10.575v7.128h0.991l3.589-5.505v5.505H4.8v-7.128H3.812L0.22-5.069v-5.506H-0.646z"/>
		<path fill="#343434" d="M6.582-3.447h1.012v-4.498c0-0.716,0.134-1.237,0.397-1.562c0.265-0.326,0.687-0.489,1.265-0.489
			c0.564,0,0.966,0.153,1.202,0.461c0.235,0.306,0.354,0.825,0.354,1.558v4.531h0.886v-4.518c0-0.972-0.199-1.681-0.599-2.123
			c-0.4-0.443-1.037-0.666-1.911-0.666c-0.889,0-1.545,0.23-1.97,0.689C6.795-9.605,6.582-8.895,6.582-7.935V-3.447z"/>
	</g>
	<path fill="#343434" d="M11.441,12.667c0-0.552-0.448-1-1-1h-24c-0.552,0-1,0.448-1,1l0,0c0,0.552,0.448,1,1,1h24
		C10.993,13.667,11.441,13.22,11.441,12.667L11.441,12.667z"/>
</symbol>
<g id="Layer_2" display="none">
	<rect x="-83.722" y="-25.058" display="inline" fill="#FFFFFF" width="320" height="70"/>
	
		<use xlink:href="#Hamburger_Menu"  width="26.256" height="24.421" x="-14.559" y="-10.753" transform="matrix(1.3748 0 0 -1.3748 -53.0562 11.7861)" display="inline" overflow="visible"/>
	<g display="inline">
		
			<image overflow="visible" width="1770" height="439" xlink:href="B01F898CDB72D7F9.png"  transform="matrix(0.0551 0 0 0.0551 -26.4683 -3.314)">
		</image>
	</g>
</g>
<g id="Calque_1">
	<g>
		<g>
			<path fill="#FFFFFF" d="M10.27,19.475c-5.225,0-9.475-4.251-9.475-9.476c0-5.224,4.25-9.475,9.475-9.475
				c5.224,0,9.474,4.251,9.474,9.475C19.743,15.224,15.493,19.475,10.27,19.475z"/>
			<path fill="#E42313" d="M10.27,0.955c-4.995,0-9.044,4.049-9.044,9.044c0,3.89,2.456,7.204,5.901,8.482
				C8.084,14.898,9.703,5.734,9.882,1.007c0,0,0.72,9.759,3.491,17.479c-0.876-0.907-2.426-3.317-2.971-4.158
				c-0.164,1.101-0.343,2.777-0.49,4.706c0.119,0.005,0.237,0.01,0.357,0.01c4.994,0,9.044-4.051,9.044-9.045
				C19.313,5.004,15.264,0.955,10.27,0.955z"/>
		</g>
		<g>
			<polygon points="50.016,1.7 48.551,4.728 47.283,1.7 33.503,1.7 31.821,5.251 30.335,1.7 20.228,1.7 26.912,18.278 
				42.511,18.277 43.28,16.568 43.933,18.278 52.654,18.278 53.734,15.827 54.771,18.277 70.484,18.277 77.205,1.7 			"/>
			<polygon fill="#FFFFFF" points="28.925,3.825 31.7,10.452 34.843,3.825 40.402,3.825 35.173,16.169 28.343,16.169 23.368,3.825 
							"/>
			<polygon fill="#FFFFFF" points="45.874,3.825 48.411,9.877 51.344,3.825 56.267,3.825 61.1,16.169 56.177,16.169 53.771,10.479 
				51.272,16.169 45.392,16.169 43.434,11.027 41.136,16.169 36.239,16.169 41.453,3.825 			"/>
			<path fill="#FFFFFF" d="M72.477,7.909c0,0-7.314,0-7.656,0c-0.34,0-0.568,0.233-0.382,0.666c0.184,0.432,1.284,2.972,1.284,2.972
				h5.114l-1.924,4.622c0,0-4.725,0-5.787,0s-1.304-0.761-1.593-1.489c-0.288-0.729-3.22-8.038-3.413-8.521
				c-0.195-0.482-0.286-1.177-0.136-1.646c0.151-0.467,0.729-0.688,1.107-0.688c0.381,0,14.998,0,14.998,0L72.477,7.909z"/>
			<g>
				<path d="M72.297,16.507c0.549,0,0.975,0.427,0.975,0.957c0,0.542-0.426,0.964-0.979,0.964c-0.549,0-0.987-0.422-0.987-0.964
					c0-0.53,0.438-0.957,0.987-0.957H72.297z M72.286,16.699c-0.422,0-0.736,0.344-0.736,0.765c0,0.425,0.314,0.764,0.747,0.764
					c0.42,0.008,0.729-0.339,0.729-0.764c0-0.421-0.31-0.765-0.734-0.765H72.286z M72.14,17.961h-0.223v-0.953
					c0.088-0.018,0.21-0.035,0.369-0.035c0.179,0,0.261,0.029,0.331,0.076c0.054,0.041,0.094,0.117,0.094,0.205
					c0,0.11-0.082,0.192-0.197,0.228v0.012c0.093,0.029,0.146,0.104,0.175,0.233c0.028,0.146,0.046,0.204,0.069,0.234h-0.24
					c-0.027-0.035-0.045-0.117-0.074-0.229c-0.018-0.105-0.075-0.152-0.199-0.152H72.14V17.961z M72.146,17.424h0.105
					c0.123,0,0.222-0.041,0.222-0.142c0-0.087-0.066-0.146-0.204-0.146c-0.059,0-0.1,0.006-0.123,0.012V17.424z"/>
			</g>
		</g>
	</g>
</g>
</svg>
