<?xml version="1.0" encoding="utf-8"?>
<!-- Generator: Adobe Illustrator 16.0.5, SVG Export Plug-In . SVG Version: 6.00 Build 0)  -->
<!DOCTYPE svg PUBLIC "-//W3C//DTD SVG 1.1//EN" "http://www.w3.org/Graphics/SVG/1.1/DTD/svg11.dtd">
<svg version="1.1" id="Layer_1" xmlns="http://www.w3.org/2000/svg" xmlns:xlink="http://www.w3.org/1999/xlink" x="0px" y="0px"
	 width="78px" height="15px" viewBox="0 0 78 15" enable-background="new 0 0 78 15" xml:space="preserve">
<g>
	<path fill="#0078AE" d="M16.568,3.274c-0.036-0.081,0.291,0.238,0.404-0.056c0.028-0.074-0.164-0.579-0.297-1.053
		c-0.137-0.484-0.129-0.76-0.29-0.906c-0.27-0.246-0.79-0.183-1.624-0.245c-0.832-0.062-1.972-0.562-3.657-0.636
		C9.575,0.312,8.042,0.38,6.653,0.996C6.431,1.094,5.973,1.581,6.278,1.676C7.123,1.939,7.399,2.222,7.28,2.322
		C6.755,2.759,6.078,1.998,6.072,2.256c0.137,0.748,0.955,1.037,1.544,1.41c0.492,0.312,1.105,0.366,1.627,0.599
		c0.523,0.233,0.941,0.69,1.47,0.982c0.349,0.194,0.753,0.44,0.875-0.135c0.767,0.342,1.487,0.72,2.037,1.428
		c0.104,0.135,0.362,0.022,0.441-0.205c0.254,0.308-0.117,0.718-0.334,0.743c-1.237,0.146-2.479-0.089-3.676,0.304
		C9.844,7.453,9.796,7.792,9.915,7.96c0.339,0.479,0.875,0.668,1.381,0.958c0.662,0.377,0.747,1.244,1.33,1.688
		c1.039,0.793,1.49-1.033,2.01-1.758c0.379-0.526,0.897-0.859,1.348-1.293c0.108,0.29,0.344,0.398,0.637,0.318
		c0.191-0.05,0.195-0.274,0.209-0.395C16.985,6.081,17.173,4.65,16.568,3.274z"/>
	<path fill="#0078AE" d="M5.439,10.139c0,0,0.001,0.367,0.003,0.605c-0.002,0.494,0.209,0.664,0.647,0.664
		c0.254-0.002,0.395,0.002,0.395,0.002l4.579,0.002l-0.004,3.23l-5.176-0.004c0,0-0.152-0.002-0.263-0.002
		c-1.912,0.004-3.411-1.436-3.411-3.488c0-0.006,0-0.412,0-0.412V0.413L5.44,0.41L5.439,10.139z"/>
	<path fill="#EF3E42" d="M4.54,10.855l-0.004-9.5L3.095,1.354L3.1,6.172l-0.006,4.074c0,0,0,0.445,0,0.703
		c-0.001,1.67,1.056,2.807,2.668,2.807c0.23,0,0.441,0,0.441,0h4.017l-0.003-1.424L6.425,12.33c0,0-0.284,0.004-0.581,0.004
		C4.949,12.332,4.538,11.859,4.539,11C4.539,10.969,4.54,10.855,4.54,10.855z"/>
	<path fill="#0078AE" d="M17.78,0.41l3.231,0.003v10.323c0,0,0,0.406,0,0.412c0,2.053-1.499,3.492-3.411,3.488
		c-0.111,0-0.263,0.002-0.263,0.002l-5.177,0.004l-0.003-3.23l4.579-0.002c0,0,0.141-0.004,0.394-0.002
		c0.438,0,0.649-0.17,0.648-0.664c0.001-0.238,0.003-0.605,0.003-0.605L17.78,0.41z"/>
	<path fill="#EF3E42" d="M18.682,11c0.002,0.859-0.409,1.332-1.304,1.334c-0.297,0-0.582-0.004-0.582-0.004l-3.792,0.002
		l-0.002,1.424h4.017c0,0,0.21,0,0.44,0c1.612,0,2.67-1.137,2.669-2.807c0-0.258,0-0.703,0-0.703l-0.007-4.074l0.005-4.819
		l-1.44,0.001l-0.005,9.5C18.681,10.855,18.682,10.969,18.682,11z"/>
	<g>
		<g>
			<g>
				<ellipse fill="#0078AE" cx="45.145" cy="5.753" rx="0.588" ry="0.558"/>
			</g>
			<path fill="#0078AE" d="M29.083,2.517V7.97c0,0-0.007,0.285,0.157,0.449c0.134,0.137,0.473,0.145,0.473,0.145l1.065,0.006
				c0,0,0.372,0,0.516-0.141c0.124-0.122,0.124-0.453,0.124-0.453V2.509l1.144,0.006l0.002,5.794c0,0-0.002,0.607-0.299,0.927
				c-0.341,0.367-0.85,0.41-0.85,0.41l-2.339,0.006c0,0-0.402-0.006-0.783-0.396c-0.359-0.367-0.354-0.899-0.354-0.899l-0.014-5.831
				L29.083,2.517z"/>
			<polygon fill="#0078AE" points="37.903,2.509 37.893,9.65 36.694,9.656 36.703,6.24 34.573,6.244 34.575,9.654 33.319,9.658 
				33.323,2.521 34.57,2.508 34.573,5.107 36.699,5.099 36.699,2.513 			"/>
			<path fill="#0078AE" d="M42.036,2.512c0,0,0.352,0.001,0.819,0.458c0.422,0.409,0.411,0.968,0.411,0.968l-0.009,0.984
				c0,0-0.08,0.502-0.467,0.842c-0.538,0.448-0.771,0.386-1.235,0.484c0.75,1.067,2.777,3.405,2.777,3.405l-1.479,0.004
				l-2.996-3.632l0.005,3.625h-1.207l-0.001-7.131L42.036,2.512z M41.647,3.653h-1.784l-0.005,1.446l1.826-0.005
				c0,0,0.45-0.11,0.447-0.73C42.13,3.82,41.647,3.653,41.647,3.653z"/>
			<path fill="#0078AE" d="M46.749,8.562c0,0,0.248,0.016,0.458-0.241c0.149-0.183,0.139-0.468,0.139-0.468l-0.007-5.339
				l1.233,0.004l-0.011,5.723c0,0,0.02,0.415-0.359,0.895c-0.38,0.482-0.995,0.52-0.995,0.52L45.04,9.645l-0.892-1.078L46.749,8.562
				z"/>
			<path fill="#0078AE" d="M62.406,9.652L59.069,9.65l0.002-1.084l2.902-0.006c0,0,0.317,0.098,0.492-0.206
				c0.162-0.281-0.176-0.573-0.176-0.573l-2.768-3.109c0,0-0.558-0.504-0.324-1.29c0.218-0.739,1.223-0.875,1.223-0.875l3.276,0.01
				l0.013,1.028l-2.699,0.002c0,0-0.493-0.062-0.608,0.171c-0.106,0.215,0.139,0.47,0.139,0.47l2.688,3.021
				c0,0,0.691,0.71,0.241,1.64C63.095,9.625,62.406,9.652,62.406,9.652z"/>
			<polygon fill="#0078AE" points="57.521,9.652 55.021,5.354 55.021,9.658 53.79,9.648 53.794,2.516 54.75,2.517 57.273,6.945 
				57.279,2.509 58.479,2.509 58.482,9.658 			"/>
			<polygon fill="#0078AE" points="49.219,9.658 49.223,2.513 53.141,2.508 53.134,3.549 50.386,3.545 50.393,5.365 53.146,5.364 
				53.142,6.387 50.398,6.397 50.386,8.566 53.146,8.57 53.146,9.65 			"/>
			<path fill="#0078AE" d="M24.92,8.562c0,0-0.28,0.041-0.498-0.227c-0.189-0.236-0.14-0.572-0.14-0.572l0.007-5.249l-1.206,0.004
				l0.012,5.607c0,0-0.006,0.595,0.387,1.023c0.423,0.465,0.913,0.508,0.913,0.508l3.052-0.012l-0.008-1.078L24.92,8.562z"/>
			<polygon fill="#0078AE" points="64.299,9.658 64.304,2.513 68.22,2.508 68.216,3.549 65.467,3.545 65.472,5.365 68.228,5.364 
				68.222,6.387 65.478,6.397 65.467,8.566 68.228,8.57 68.227,9.65 			"/>
			<polygon fill="#0078AE" points="72.549,9.652 70.048,5.354 70.048,9.658 68.817,9.648 68.82,2.516 69.775,2.517 72.3,6.945 
				72.307,2.509 73.505,2.509 73.511,9.658 			"/>
		</g>
	</g>
	<path fill="#0078AE" d="M23.991,10.568c0.604,0,0.96,0.447,0.96,1.025c0,0.561-0.356,1.01-0.96,1.01c-0.604,0-0.96-0.449-0.96-1.01
		C23.031,11.016,23.387,10.568,23.991,10.568z M23.991,12.244c0.386,0,0.53-0.326,0.53-0.65c0-0.34-0.145-0.666-0.53-0.666
		s-0.53,0.326-0.53,0.666C23.461,11.918,23.605,12.244,23.991,12.244z"/>
	<path fill="#0078AE" d="M26.009,10.613h1.373v0.359h-0.943v0.449h0.817v0.332h-0.817v0.803h-0.43V10.613z"/>
	<path fill="#0078AE" d="M29.923,10.613h0.43v0.746h0.79v-0.746h0.429v1.943h-0.429v-0.838h-0.79v0.838h-0.43V10.613z"/>
	<path fill="#0078AE" d="M33.59,10.568c0.604,0,0.959,0.447,0.959,1.025c0,0.561-0.354,1.01-0.959,1.01s-0.96-0.449-0.96-1.01
		C32.63,11.016,32.985,10.568,33.59,10.568z M33.59,12.244c0.385,0,0.53-0.326,0.53-0.65c0-0.34-0.146-0.666-0.53-0.666
		c-0.386,0-0.531,0.326-0.531,0.666C33.059,11.918,33.204,12.244,33.59,12.244z"/>
	<path fill="#0078AE" d="M36.483,10.568c0.604,0,0.959,0.447,0.959,1.025c0,0.561-0.355,1.01-0.959,1.01
		c-0.605,0-0.961-0.449-0.961-1.01C35.522,11.016,35.878,10.568,36.483,10.568z M36.483,12.244c0.385,0,0.529-0.326,0.529-0.65
		c0-0.34-0.145-0.666-0.529-0.666c-0.387,0-0.531,0.326-0.531,0.666C35.952,11.918,36.097,12.244,36.483,12.244z"/>
	<path fill="#0078AE" d="M38.501,10.613h0.842c0.505,0,0.886,0.316,0.886,0.961c0,0.562-0.29,0.982-0.886,0.982h-0.842V10.613z
		 M38.93,12.197h0.383c0.249,0,0.487-0.152,0.487-0.582c0-0.393-0.138-0.643-0.563-0.643H38.93V12.197z"/>
	<path fill="#0078AE" d="M42.818,10.613h1.053c0.351,0,0.571,0.242,0.571,0.537c0,0.229-0.092,0.398-0.309,0.486v0.006
		c0.211,0.053,0.271,0.258,0.284,0.453c0.009,0.123,0.006,0.352,0.082,0.461h-0.429c-0.053-0.123-0.047-0.311-0.068-0.465
		c-0.03-0.205-0.109-0.293-0.326-0.293h-0.43v0.758h-0.429V10.613z M43.247,11.492h0.471c0.192,0,0.296-0.08,0.296-0.277
		c0-0.188-0.104-0.27-0.296-0.27h-0.471V11.492z"/>
	<path fill="#0078AE" d="M45.559,10.613h0.429v1.943h-0.429V10.613z"/>
	<path fill="#0078AE" d="M48.039,12.557h-0.484l-0.635-1.943h0.443l0.436,1.367h0.005l0.438-1.367h0.444L48.039,12.557z"/>
	<path fill="#0078AE" d="M49.619,10.613h1.459v0.359h-1.029v0.418h0.946v0.33h-0.946v0.477h1.052v0.359h-1.481V10.613z"/>
	<path fill="#0078AE" d="M52.157,10.613h1.052c0.351,0,0.571,0.242,0.571,0.537c0,0.229-0.092,0.398-0.309,0.486v0.006
		c0.211,0.053,0.271,0.258,0.285,0.453c0.007,0.123,0.005,0.352,0.082,0.461h-0.43c-0.052-0.123-0.047-0.311-0.068-0.465
		c-0.03-0.205-0.109-0.293-0.325-0.293h-0.429v0.758h-0.43V10.613z M52.587,11.492h0.469c0.192,0,0.296-0.08,0.296-0.277
		c0-0.188-0.104-0.27-0.296-0.27h-0.469V11.492z"/>
	<path fill="#0078AE" d="M54.875,12.137h0.43v0.42c0,0.25-0.191,0.416-0.427,0.451v-0.195c0.115-0.018,0.198-0.135,0.193-0.256
		h-0.196V12.137z"/>
	<path fill="#0078AE" d="M58.824,10.568c0.604,0,0.958,0.447,0.958,1.025c0,0.561-0.354,1.01-0.958,1.01
		c-0.606,0-0.96-0.449-0.96-1.01C57.864,11.016,58.218,10.568,58.824,10.568z M58.824,12.244c0.385,0,0.53-0.326,0.53-0.65
		c0-0.34-0.146-0.666-0.53-0.666c-0.388,0-0.532,0.326-0.532,0.666C58.292,11.918,58.437,12.244,58.824,12.244z"/>
	<path fill="#0078AE" d="M60.842,10.613h1.053c0.35,0,0.571,0.242,0.571,0.537c0,0.229-0.093,0.398-0.309,0.486v0.006
		c0.211,0.053,0.27,0.258,0.284,0.453c0.008,0.123,0.006,0.352,0.081,0.461h-0.429c-0.051-0.123-0.046-0.311-0.068-0.465
		c-0.03-0.205-0.109-0.293-0.326-0.293h-0.428v0.758h-0.43V10.613z M61.271,11.492h0.469c0.192,0,0.296-0.08,0.296-0.277
		c0-0.188-0.104-0.27-0.296-0.27h-0.469V11.492z"/>
	<path fill="#0078AE" d="M63.581,10.613h1.461v0.359H64.01v0.418h0.946v0.33H64.01v0.477h1.055v0.359h-1.483V10.613z"/>
	<path fill="#0078AE" d="M67.53,12.336c-0.151,0.193-0.348,0.268-0.536,0.268c-0.604,0-0.96-0.449-0.96-1.01
		c0-0.578,0.355-1.025,0.96-1.025c0.398,0,0.776,0.244,0.823,0.686h-0.409c-0.05-0.215-0.212-0.326-0.414-0.326
		c-0.386,0-0.53,0.326-0.53,0.666c0,0.324,0.145,0.65,0.53,0.65c0.278,0,0.441-0.15,0.466-0.42h-0.433v-0.318h0.82v1.051h-0.274
		L67.53,12.336z"/>
	<path fill="#0078AE" d="M69.835,10.568c0.604,0,0.961,0.447,0.961,1.025c0,0.561-0.356,1.01-0.961,1.01
		c-0.604,0-0.961-0.449-0.961-1.01C68.874,11.016,69.231,10.568,69.835,10.568z M69.835,12.244c0.386,0,0.531-0.326,0.531-0.65
		c0-0.34-0.146-0.666-0.531-0.666c-0.387,0-0.531,0.326-0.531,0.666C69.304,11.918,69.448,12.244,69.835,12.244z"/>
	<path fill="#0078AE" d="M71.853,10.613h0.428l0.814,1.305H73.1v-1.305h0.403v1.943h-0.431l-0.812-1.301h-0.005v1.301h-0.403V10.613
		z"/>
	<g>
		<path fill="#0078AE" d="M75.062,2.453c0.405,0,0.728,0.329,0.728,0.74c0,0.418-0.322,0.743-0.73,0.743
			c-0.404,0-0.733-0.325-0.733-0.743c0-0.411,0.329-0.74,0.733-0.74H75.062z M75.06,2.568c-0.325,0-0.593,0.279-0.593,0.625
			c0,0.353,0.268,0.629,0.596,0.629c0.329,0.003,0.593-0.276,0.593-0.626c0-0.349-0.264-0.628-0.593-0.628H75.06z M74.922,3.625
			H74.79V2.798c0.069-0.01,0.135-0.021,0.233-0.021c0.125,0,0.208,0.026,0.257,0.063c0.049,0.036,0.076,0.092,0.076,0.17
			c0,0.109-0.072,0.175-0.162,0.201v0.007c0.073,0.014,0.122,0.079,0.139,0.201c0.02,0.128,0.039,0.177,0.053,0.204h-0.139
			c-0.02-0.027-0.039-0.103-0.056-0.211c-0.02-0.105-0.072-0.145-0.178-0.145h-0.092V3.625z M74.922,3.167h0.095
			c0.109,0,0.2-0.039,0.2-0.142c0-0.072-0.052-0.145-0.2-0.145c-0.042,0-0.072,0.003-0.095,0.006V3.167z"/>
	</g>
</g>
</svg>
