<?xml version="1.0" encoding="utf-8"?>
<!-- Generator: Adobe Illustrator 16.0.5, SVG Export Plug-In . SVG Version: 6.00 Build 0)  -->
<!DOCTYPE svg PUBLIC "-//W3C//DTD SVG 1.1//EN" "http://www.w3.org/Graphics/SVG/1.1/DTD/svg11.dtd">
<svg version="1.1" id="Layer_1" xmlns="http://www.w3.org/2000/svg" xmlns:xlink="http://www.w3.org/1999/xlink" x="0px" y="0px"
	 width="78px" height="20px" viewBox="0 0 78 20" enable-background="new 0 0 78 20" xml:space="preserve">
<g>
	<path fill="#FFFFFF" d="M4.871,17.782c22.655-4.512,45.603-4.512,68.257,0c0.842-4.046,1.678-8.091,2.518-12.139
		c-24.312-4.853-48.979-4.854-73.289,0C3.195,9.691,4.033,13.736,4.871,17.782z"/>
	<path fill="#026CB6" d="M75.886,4.439c-24.477-4.886-49.296-4.886-73.77,0L0.903,4.682l3.013,14.543l1.194-0.238
		c22.488-4.479,45.291-4.479,67.781,0l1.193,0.238l3.012-14.543L75.886,4.439 M74.19,6.612c-0.328,1.583-1.705,8.229-2.018,9.737
		c-22.018-4.23-44.326-4.23-66.347,0C5.472,14.635,4.175,8.37,3.811,6.612C27.168,2.105,50.831,2.105,74.19,6.612z"/>
	<path d="M4.871,17.782c22.655-4.512,45.603-4.512,68.257,0c0.842-4.046,1.678-8.091,2.518-12.139
		c-24.312-4.853-48.979-4.854-73.289,0C3.195,9.691,4.033,13.736,4.871,17.782z"/>
	<path fill="#FFFFFF" d="M75.7,5.366c-24.354-4.865-49.048-4.865-73.399,0L2.022,5.423l2.629,12.694l0.274-0.055
		c22.609-4.502,45.538-4.502,68.147,0l0.277,0.055l2.629-12.694L75.7,5.366 M75.308,5.866c-0.105,0.513-2.295,11.091-2.398,11.587
		c-22.502-4.445-45.316-4.445-67.817,0C4.986,16.942,2.8,6.393,2.692,5.866C26.785,1.093,51.214,1.093,75.308,5.866z"/>
	<path fill="#026CB6" d="M22.924,16.122c0,1.105,0.895,2,1.998,2h29.702c1.105,0,2.002-0.895,2.002-2l0,0
		c0-1.104-0.896-1.998-2.002-1.998H24.922C23.818,14.124,22.924,15.018,22.924,16.122L22.924,16.122z"/>
	<path fill="#026CB6" d="M24.922,13.969c-1.188,0-2.153,0.967-2.153,2.153c0,1.188,0.966,2.153,2.153,2.153h29.702
		c1.189,0,2.154-0.965,2.154-2.153c0-1.187-0.965-2.153-2.154-2.153H24.922z M54.624,17.967H24.922
		c-1.018,0-1.845-0.827-1.845-1.845c0-1.019,0.827-1.846,1.845-1.846h29.702c1.02,0,1.848,0.827,1.848,1.846
		C56.472,17.14,55.644,17.967,54.624,17.967z"/>
	<g>
		<path fill="#FFFFFF" d="M11.064,9.91c-0.089,0.567-0.179,1.143-0.268,1.729c-0.09,0.587-0.175,1.166-0.255,1.734
			c-0.081,0.566-0.148,1.074-0.203,1.517c-0.173,0.012-0.363,0.039-0.571,0.073c-0.097,0.017-0.193,0.034-0.289,0.052
			s-0.191,0.042-0.285,0.077c-0.135-0.33-0.31-0.755-0.527-1.28c-0.218-0.527-0.449-1.081-0.7-1.667
			c-0.249-0.591-0.503-1.182-0.763-1.78C6.945,9.766,6.704,9.218,6.483,8.72C6.263,8.224,6.076,7.8,5.924,7.45
			C5.772,7.101,5.675,6.888,5.632,6.808c0.165-0.016,0.327-0.029,0.484-0.049c0.156-0.016,0.31-0.038,0.458-0.064
			c0.147-0.028,0.299-0.06,0.448-0.097C7.173,6.56,7.32,6.522,7.468,6.48C7.66,7,7.863,7.534,8.077,8.08
			c0.212,0.545,0.426,1.083,0.641,1.612c0.213,0.528,0.421,1.041,0.623,1.538c0.201,0.494,0.388,0.954,0.558,1.374L9.921,12.6
			c0.082-0.559,0.17-1.166,0.265-1.817c0.095-0.655,0.186-1.294,0.272-1.92c0.088-0.625,0.167-1.201,0.239-1.729
			c0.071-0.528,0.125-0.947,0.162-1.256c0.098-0.004,0.193-0.007,0.283-0.013c0.091-0.006,0.184-0.017,0.281-0.032
			c0.097-0.019,0.188-0.039,0.275-0.068c0.087-0.025,0.179-0.054,0.271-0.087c0.059,0.18,0.152,0.419,0.281,0.718
			c0.13,0.297,0.276,0.625,0.442,0.986c0.165,0.359,0.341,0.739,0.527,1.139c0.188,0.399,0.373,0.795,0.559,1.185
			c0.186,0.392,0.357,0.764,0.519,1.114c0.161,0.353,0.296,0.662,0.404,0.929l0.022-0.002c0.067-0.558,0.136-1.172,0.203-1.842
			c0.07-0.671,0.138-1.319,0.202-1.944c0.063-0.626,0.12-1.201,0.171-1.718c0.05-0.521,0.082-0.913,0.095-1.175
			c0.192,0.002,0.35-0.006,0.476-0.029c0.082-0.016,0.164-0.035,0.248-0.061c0.084-0.026,0.169-0.055,0.256-0.085
			c-0.028,0.171-0.069,0.446-0.125,0.829c-0.057,0.381-0.12,0.832-0.194,1.352c-0.072,0.52-0.149,1.085-0.231,1.696
			c-0.082,0.612-0.162,1.228-0.243,1.849c-0.081,0.619-0.157,1.227-0.231,1.818c-0.073,0.594-0.134,1.126-0.185,1.594
			c-0.174,0.011-0.363,0.036-0.571,0.073c-0.097,0.018-0.193,0.034-0.289,0.052c-0.097,0.017-0.191,0.042-0.286,0.078
			c-0.394-0.986-0.818-1.96-1.273-2.921c-0.455-0.964-0.931-1.94-1.426-2.936L11.3,8.38C11.231,8.835,11.152,9.345,11.064,9.91z"/>
		<path fill="#FFFFFF" d="M17.506,6.5c-0.077-0.547-0.16-1.093-0.253-1.638c0.13-0.002,0.268-0.009,0.419-0.019
			c0.15-0.007,0.319-0.025,0.507-0.049c0.187-0.027,0.354-0.054,0.501-0.084c0.148-0.029,0.286-0.061,0.411-0.091
			c0.028,0.556,0.066,1.107,0.112,1.656c0.045,0.549,0.107,1.175,0.188,1.879l0.196,1.73c0.08,0.703,0.159,1.329,0.237,1.871
			c0.079,0.545,0.165,1.077,0.257,1.601c-0.128-0.003-0.266,0.008-0.416,0.025c-0.149,0.021-0.319,0.044-0.505,0.065
			c-0.187,0.029-0.355,0.051-0.505,0.068c-0.147,0.021-0.286,0.049-0.411,0.084c-0.03-0.529-0.069-1.07-0.117-1.619
			c-0.047-0.549-0.11-1.172-0.19-1.877l-0.196-1.73C17.66,7.668,17.582,7.043,17.506,6.5z"/>
		<path fill="#FFFFFF" d="M20.825,6.067c-0.064-0.546-0.14-1.093-0.224-1.641c0.129,0,0.269-0.001,0.419-0.008
			c0.15-0.005,0.32-0.017,0.509-0.037c0.186-0.019,0.354-0.042,0.504-0.069c0.148-0.026,0.285-0.052,0.411-0.081
			c0.021,0.556,0.048,1.108,0.083,1.655c0.034,0.553,0.084,1.18,0.148,1.885l0.154,1.734c0.044,0.482,0.088,0.95,0.134,1.4
			c0.044,0.452,0.086,0.843,0.124,1.174c0.426-0.048,0.852-0.104,1.275-0.174c0.425-0.069,0.85-0.157,1.279-0.261
			c-0.007,0.095-0.012,0.182-0.012,0.259c0,0.076,0.006,0.183,0.02,0.32c0.011,0.134,0.024,0.24,0.039,0.316
			c0.014,0.075,0.03,0.139,0.051,0.188c-0.203,0.011-0.453,0.032-0.749,0.06c-0.295,0.024-0.7,0.066-1.218,0.121
			c-0.457,0.046-0.827,0.085-1.113,0.116c-0.276,0.027-0.5,0.051-0.67,0.068c-0.168,0.02-0.297,0.035-0.381,0.049
			c-0.087,0.012-0.159,0.029-0.219,0.043c-0.015-0.531-0.037-1.07-0.07-1.619c-0.033-0.552-0.081-1.18-0.144-1.886L21.02,7.945
			C20.958,7.241,20.892,6.614,20.825,6.067z"/>
		<path fill="#FFFFFF" d="M26.098,5.542c-0.051-0.549-0.11-1.099-0.177-1.651c0.128,0.004,0.268,0.005,0.418,0.007
			c0.152,0,0.321-0.005,0.508-0.019c0.188-0.015,0.357-0.03,0.506-0.052c0.15-0.022,0.288-0.046,0.415-0.069
			c0.006,0.557,0.017,1.108,0.036,1.66s0.049,1.179,0.093,1.888l0.107,1.736c0.029,0.486,0.061,0.954,0.093,1.405
			c0.031,0.453,0.062,0.844,0.091,1.173c0.427-0.031,0.854-0.072,1.28-0.128c0.425-0.057,0.854-0.129,1.285-0.219
			c-0.01,0.096-0.014,0.179-0.018,0.259c-0.004,0.076,0,0.185,0.008,0.32c0.01,0.137,0.02,0.242,0.031,0.318
			c0.011,0.076,0.027,0.141,0.046,0.188c-0.203,0.006-0.453,0.018-0.751,0.032c-0.296,0.02-0.703,0.044-1.22,0.084
			c-0.458,0.03-0.83,0.058-1.116,0.076c-0.278,0.022-0.503,0.039-0.672,0.051c-0.169,0.011-0.298,0.022-0.384,0.033
			c-0.087,0.012-0.16,0.022-0.219,0.035c0.001-0.529-0.008-1.069-0.024-1.621c-0.016-0.551-0.047-1.179-0.09-1.887l-0.106-1.739
			C26.193,6.719,26.148,6.09,26.098,5.542z"/>
		<path fill="#FFFFFF" d="M31.397,5.198c-0.036-0.549-0.079-1.102-0.13-1.655c0.129,0.009,0.268,0.015,0.419,0.021
			c0.15,0.003,0.32,0,0.51-0.007c0.187-0.007,0.355-0.021,0.507-0.039c0.149-0.018,0.288-0.036,0.415-0.057
			c-0.013,0.557-0.018,1.109-0.013,1.661c0.003,0.552,0.019,1.183,0.047,1.89l0.065,1.739c0.025,0.71,0.058,1.338,0.098,1.89
			c0.037,0.549,0.081,1.087,0.136,1.614c-0.128-0.014-0.268-0.017-0.418-0.009c-0.151,0.006-0.319,0.016-0.509,0.022
			c-0.188,0.009-0.356,0.017-0.507,0.025c-0.151,0.004-0.288,0.019-0.416,0.043c0.01-0.528,0.012-1.071,0.004-1.621
			c-0.005-0.551-0.021-1.181-0.048-1.889l-0.067-1.74C31.464,6.378,31.433,5.748,31.397,5.198z"/>
		<path fill="#FFFFFF" d="M40.993,12.114c-0.18-0.018-0.352-0.023-0.514-0.021c-0.159,0.003-0.322,0.003-0.479,0.006
			c-0.158,0.003-0.318,0.005-0.479,0.008c-0.163,0.004-0.322,0.013-0.479,0.03c-0.125-0.414-0.253-0.838-0.386-1.272
			c-0.133-0.433-0.272-0.868-0.42-1.299c-0.24-0.008-0.48-0.01-0.722-0.012c-0.241-0.002-0.481-0.002-0.721,0.001
			c-0.195,0.002-0.392,0.007-0.587,0.015c-0.194,0.005-0.391,0.014-0.585,0.027c-0.146,0.436-0.28,0.872-0.404,1.308
			c-0.123,0.438-0.234,0.863-0.337,1.285c-0.09-0.017-0.177-0.025-0.264-0.024c-0.086,0.001-0.176,0.002-0.266,0.004
			c-0.09,0-0.18,0.002-0.27,0.004c-0.091,0-0.188,0.009-0.293,0.029c0.088-0.224,0.205-0.532,0.352-0.929
			c0.146-0.392,0.307-0.838,0.481-1.338c0.176-0.496,0.363-1.031,0.563-1.602c0.2-0.571,0.399-1.147,0.601-1.731
			c0.201-0.583,0.398-1.159,0.592-1.725c0.193-0.568,0.37-1.093,0.529-1.583c0.076,0.016,0.147,0.031,0.215,0.044
			c0.069,0.013,0.139,0.019,0.215,0.019c0.074-0.001,0.146-0.009,0.213-0.023s0.141-0.032,0.215-0.05
			c0.247,0.725,0.512,1.497,0.796,2.324c0.283,0.823,0.569,1.635,0.854,2.431c0.286,0.796,0.564,1.55,0.836,2.266
			C40.522,11.019,40.769,11.621,40.993,12.114 M36.936,5.766c-0.189,0.516-0.368,1.025-0.535,1.526
			c-0.167,0.504-0.333,1.014-0.492,1.538l2.062-0.024c-0.169-0.518-0.34-1.028-0.505-1.523C37.297,6.784,37.122,6.278,36.936,5.766z
			"/>
		<path fill="#FFFFFF" d="M41.843,9.263c-0.094,0.954-0.186,1.906-0.275,2.859c-0.09-0.021-0.18-0.034-0.271-0.036
			c-0.091-0.003-0.177-0.007-0.259-0.01c-0.09-0.004-0.18-0.008-0.264-0.012c-0.086-0.003-0.176,0.002-0.268,0.02
			c0.288-1.46,0.551-2.913,0.787-4.355c0.236-1.446,0.457-2.91,0.664-4.399c0.082,0.019,0.16,0.034,0.23,0.047
			s0.147,0.021,0.231,0.024c0.065,0.004,0.138,0,0.214-0.006c0.074-0.008,0.152-0.018,0.236-0.029
			c0.186,0.521,0.381,1.046,0.584,1.585c0.205,0.539,0.412,1.075,0.615,1.607c0.203,0.534,0.408,1.056,0.613,1.567
			c0.203,0.513,0.4,1,0.588,1.461c0.484-0.939,0.965-1.923,1.445-2.952c0.482-1.027,0.941-2.05,1.383-3.069
			c0.186,0.045,0.348,0.068,0.482,0.076c0.127,0.004,0.285-0.009,0.475-0.038c0.051,0.736,0.104,1.529,0.162,2.378
			c0.059,0.848,0.117,1.678,0.174,2.488c0.057,0.808,0.113,1.565,0.172,2.268c0.061,0.703,0.117,1.271,0.17,1.698
			c-0.148-0.022-0.301-0.038-0.455-0.045c-0.154-0.004-0.305-0.009-0.455-0.015c-0.15-0.008-0.307-0.015-0.463-0.02
			c-0.158-0.008-0.316-0.003-0.473,0.008c-0.01-0.88-0.039-1.833-0.092-2.861c-0.055-1.029-0.107-2.046-0.164-3.057l-0.023-0.001
			c-0.461,0.99-0.914,1.965-1.361,2.923c-0.443,0.955-0.885,1.918-1.324,2.882c-0.037-0.01-0.072-0.019-0.105-0.024
			c-0.033-0.005-0.07-0.007-0.107-0.009c-0.037-0.003-0.072-0.001-0.105,0.004c-0.035,0.002-0.072,0.007-0.107,0.013
			c-0.375-0.969-0.748-1.941-1.117-2.913c-0.371-0.971-0.754-1.956-1.148-2.953l-0.024-0.001
			C42.056,7.343,41.933,8.308,41.843,9.263z"/>
		<path fill="#FFFFFF" d="M53.124,4.561c-0.342-0.029-0.633,0.062-0.867,0.273c-0.234,0.21-0.363,0.471-0.385,0.776
			c-0.023,0.317,0.041,0.582,0.195,0.797s0.352,0.415,0.596,0.597c0.242,0.184,0.504,0.364,0.785,0.538
			c0.279,0.176,0.541,0.382,0.779,0.62c0.238,0.241,0.428,0.523,0.574,0.848c0.146,0.327,0.201,0.732,0.166,1.22
			c-0.031,0.425-0.131,0.81-0.301,1.147c-0.168,0.345-0.393,0.631-0.674,0.858c-0.277,0.229-0.605,0.395-0.979,0.494
			c-0.373,0.101-0.783,0.131-1.232,0.095c-0.406-0.035-0.762-0.117-1.074-0.242c-0.309-0.126-0.541-0.27-0.697-0.429
			c0.1-0.294,0.182-0.561,0.252-0.803c0.07-0.243,0.137-0.508,0.195-0.794l0.215,0.021c0.014,0.188,0.057,0.371,0.129,0.544
			c0.068,0.174,0.162,0.328,0.279,0.466s0.266,0.252,0.439,0.34c0.174,0.089,0.373,0.142,0.6,0.16c0.449,0.04,0.789-0.06,1.02-0.296
			c0.232-0.238,0.363-0.534,0.389-0.891c0.025-0.323-0.039-0.596-0.189-0.815c-0.15-0.217-0.342-0.417-0.58-0.595
			c-0.234-0.179-0.492-0.357-0.773-0.529c-0.279-0.177-0.539-0.38-0.77-0.615c-0.23-0.233-0.418-0.514-0.562-0.838
			c-0.143-0.326-0.195-0.73-0.158-1.215c0.031-0.446,0.131-0.83,0.295-1.158c0.162-0.329,0.373-0.598,0.621-0.809
			c0.25-0.21,0.529-0.361,0.844-0.454c0.312-0.093,0.637-0.124,0.973-0.096c0.406,0.035,0.756,0.119,1.051,0.257
			c0.297,0.135,0.545,0.309,0.746,0.522c-0.08,0.191-0.154,0.374-0.215,0.553c-0.062,0.179-0.143,0.405-0.236,0.682l-0.168-0.014
			C54.218,5.025,53.792,4.62,53.124,4.561z"/>
		<path fill="#FFFFFF" d="M56.005,6.816c0.266-0.524,0.611-0.969,1.031-1.336c0.422-0.367,0.91-0.635,1.465-0.801
			c0.561-0.168,1.164-0.208,1.814-0.124c0.598,0.08,1.143,0.246,1.637,0.501c0.496,0.254,0.912,0.591,1.25,1.016
			c0.338,0.427,0.586,0.937,0.742,1.54c0.156,0.601,0.191,1.283,0.105,2.046c-0.072,0.636-0.246,1.214-0.521,1.741
			c-0.275,0.523-0.623,0.964-1.047,1.327c-0.424,0.362-0.912,0.621-1.461,0.783c-0.549,0.16-1.137,0.198-1.766,0.115
			c-0.59-0.079-1.135-0.233-1.635-0.467c-0.502-0.232-0.924-0.561-1.266-0.983c-0.344-0.417-0.594-0.928-0.754-1.53
			c-0.162-0.602-0.195-1.302-0.105-2.101C55.567,7.917,55.735,7.342,56.005,6.816 M62.229,7.646
			c-0.068-0.455-0.195-0.845-0.373-1.18c-0.176-0.335-0.41-0.602-0.693-0.807c-0.285-0.206-0.605-0.334-0.965-0.379
			c-0.381-0.052-0.734,0.009-1.061,0.176c-0.324,0.168-0.613,0.417-0.863,0.745c-0.248,0.329-0.455,0.724-0.615,1.188
			c-0.164,0.467-0.277,0.968-0.336,1.51c-0.078,0.679-0.08,1.26-0.004,1.743c0.074,0.482,0.203,0.879,0.387,1.191
			c0.184,0.312,0.412,0.552,0.682,0.716c0.27,0.166,0.561,0.266,0.875,0.31c0.336,0.043,0.668,0.004,0.992-0.115
			c0.322-0.121,0.619-0.331,0.883-0.631c0.266-0.301,0.498-0.697,0.691-1.186c0.195-0.491,0.334-1.082,0.414-1.78
			C62.304,8.599,62.3,8.096,62.229,7.646z"/>
		<path fill="#FFFFFF" d="M65.425,6.535c0.051-0.399,0.098-0.75,0.139-1.055c0.201,0.074,0.365,0.123,0.488,0.146
			c0.129,0.022,0.295,0.037,0.51,0.04c0.645,1.167,1.279,2.317,1.908,3.451c0.631,1.13,1.277,2.283,1.943,3.456l0.174-1.099
			l0.195-1.225c0.068-0.414,0.129-0.82,0.191-1.219c0.059-0.402,0.113-0.769,0.164-1.108c0.051-0.337,0.088-0.63,0.115-0.875
			c0.027-0.247,0.041-0.415,0.039-0.5c0.201,0.075,0.367,0.124,0.492,0.147c0.125,0.024,0.295,0.036,0.506,0.039
			c-0.158,0.759-0.299,1.446-0.416,2.061c-0.121,0.614-0.232,1.192-0.336,1.739c-0.102,0.544-0.197,1.085-0.285,1.614
			c-0.09,0.536-0.184,1.104-0.279,1.712l-0.242,1.514c-0.145-0.046-0.295-0.081-0.449-0.111c-0.162-0.029-0.311-0.048-0.438-0.052
			c-1.201-2.305-2.492-4.639-3.871-7.002c-0.051,0.244-0.096,0.485-0.137,0.728c-0.043,0.246-0.086,0.493-0.125,0.744l-0.236,1.467
			c-0.078,0.502-0.146,0.933-0.199,1.286c-0.051,0.354-0.096,0.655-0.127,0.899c-0.031,0.245-0.057,0.446-0.074,0.604
			c-0.018,0.158-0.033,0.282-0.039,0.377c-0.086-0.034-0.172-0.062-0.26-0.076c-0.09-0.017-0.176-0.032-0.256-0.049
			c-0.17-0.031-0.342-0.054-0.514-0.066c0.023-0.064,0.08-0.302,0.17-0.71c0.088-0.409,0.193-0.906,0.312-1.497
			c0.121-0.588,0.246-1.228,0.375-1.918c0.129-0.689,0.246-1.355,0.348-1.994C65.304,7.42,65.376,6.933,65.425,6.535z"/>
	</g>
	<g>
		<polygon fill="#FFFFFF" points="25.908,15.319 26.358,15.319 26.358,16.747 27.657,16.747 27.657,17.03 25.908,17.03 		"/>
		<path fill="#FFFFFF" d="M32.082,15.319h0.449v0.966c0,0.237,0.013,0.524,0.597,0.524c0.587,0,0.599-0.287,0.599-0.524v-0.966h0.45
			v0.973c0,0.283-0.012,0.787-1.049,0.787c-1.033,0-1.046-0.504-1.046-0.787V15.319z"/>
		<polygon fill="#FFFFFF" points="45.425,15.319 47.284,15.319 47.284,15.588 45.876,15.588 45.876,16.02 47.226,16.02 
			47.226,16.288 45.876,16.288 45.876,16.763 47.31,16.763 47.31,17.03 45.425,17.03 		"/>
		<path fill="#FFFFFF" d="M52.669,15.271c0.33,0,0.988,0.049,1.049,0.544h-0.488c-0.016-0.131-0.164-0.274-0.537-0.274
			c-0.301,0-0.5,0.075-0.5,0.234c0,0.402,1.596,0.019,1.596,0.748c0,0.44-0.574,0.557-1.029,0.557c-0.77,0-1.078-0.242-1.084-0.6
			h0.486c0.012,0.224,0.244,0.33,0.613,0.33c0.273,0,0.527-0.064,0.527-0.251c0-0.424-1.576-0.056-1.576-0.757
			C51.726,15.42,52.149,15.271,52.669,15.271z"/>
		<path fill="#FFFFFF" d="M40.017,16.087c0.247,0,0.383-0.059,0.383-0.25c0-0.181-0.146-0.249-0.383-0.249h-0.777v0.499H40.017z
			 M38.79,15.319h1.354c0.545,0,0.723,0.198,0.723,0.465c0,0.223-0.152,0.362-0.355,0.413v0.004
			c0.256,0.045,0.312,0.223,0.312,0.462c0,0.082,0.006,0.274,0.09,0.367h-0.484c-0.033-0.05-0.054-0.133-0.054-0.26
			c0-0.241-0.042-0.415-0.372-0.415h-0.764v0.675H38.79V15.319"/>
	</g>
</g>
</svg>
