<?xml version="1.0" encoding="utf-8"?>
<!-- Generator: Adobe Illustrator 16.0.5, SVG Export Plug-In . SVG Version: 6.00 Build 0)  -->
<!DOCTYPE svg PUBLIC "-//W3C//DTD SVG 1.1//EN" "http://www.w3.org/Graphics/SVG/1.1/DTD/svg11.dtd">
<svg version="1.1" xmlns="http://www.w3.org/2000/svg" xmlns:xlink="http://www.w3.org/1999/xlink" x="0px" y="0px" width="78px"
	 height="30px" viewBox="0 0 78 30" enable-background="new 0 0 78 30" xml:space="preserve">
<symbol  id="Hamburger_Menu" viewBox="-14.559 -10.753 26.256 24.421">
	<g>
		<path fill="#333333" d="M11.441,7.1c0-0.552-0.448-1-1-1h-24c-0.552,0-1,0.448-1,1l0,0c0,0.552,0.448,1,1,1h24
			C10.993,8.1,11.441,7.652,11.441,7.1L11.441,7.1z"/>
	</g>
	<g>
		<path fill="#333333" d="M11.441,1.6c0-0.552-0.448-1-1-1h-24c-0.552,0-1,0.448-1,1l0,0c0,0.552,0.448,1,1,1h24
			C10.993,2.6,11.441,2.152,11.441,1.6L11.441,1.6z"/>
	</g>
	<g>
		<path fill="#333333" d="M-14.488-10.575v7.128h1.401l1.975-5.515l2.033,5.515h1.251v-7.128h-0.943v5.799l-1.966-5.321h-0.978
			l-1.907,5.336v-5.813H-14.488z"/>
		<path fill="#333333" d="M-5.993-10.575v7.128h3.982v-0.756h-2.971v-2.288h2.49v-0.746h-2.49v-2.582h3.179v-0.756H-5.993z"/>
		<path fill="#333333" d="M-0.646-10.575v7.128h0.991l3.589-5.505v5.505H4.8v-7.128H3.812L0.22-5.069v-5.506H-0.646z"/>
		<path fill="#333333" d="M6.582-3.447h1.012v-4.498c0-0.716,0.134-1.237,0.397-1.562c0.265-0.326,0.687-0.489,1.265-0.489
			c0.564,0,0.966,0.153,1.202,0.461c0.235,0.306,0.354,0.825,0.354,1.558v4.531h0.886v-4.518c0-0.972-0.199-1.681-0.599-2.123
			c-0.4-0.443-1.037-0.666-1.911-0.666c-0.889,0-1.545,0.23-1.97,0.689C6.795-9.605,6.582-8.895,6.582-7.935V-3.447z"/>
	</g>
	<path fill="#333333" d="M11.441,12.667c0-0.552-0.448-1-1-1h-24c-0.552,0-1,0.448-1,1l0,0c0,0.552,0.448,1,1,1h24
		C10.993,13.667,11.441,13.22,11.441,12.667L11.441,12.667z"/>
</symbol>
<g id="Layer_2" display="none">
	<rect x="-81.825" y="-19.835" display="inline" fill="#FFFFFF" width="320.001" height="70"/>
	<g display="inline">
		
			<image overflow="visible" width="470" height="201" xlink:href="DACF7862CA3AF48C.png"  transform="matrix(0.2192 0 0 0.2192 -34.0005 -4.9697)">
		</image>
	</g>
	
		<use xlink:href="#Hamburger_Menu"  width="26.256" height="24.421" id="XMLID_4_" x="-14.559" y="-10.753" transform="matrix(1.3748 0 0 -1.3748 -52.3887 17.9805)" display="inline" overflow="visible"/>
</g>
<g id="Layer_1">
	<g>
		<ellipse cx="39" cy="17.519" rx="36.723" ry="10.421"/>
		<g>
			<path fill="#FFFFFF" d="M11.162,19.102c0,0.256,0.043,0.484,0.114,0.67c0.228,0.611,0.912,0.74,1.495,0.74
				c0.513,0,1.296-0.17,1.296-0.926c0-0.527-0.442-0.67-2.193-1.168c-1.611-0.457-3.452-0.898-3.452-2.952
				c0-2.35,2.012-3.361,4.107-3.361c2.208,0,4.165,0.84,4.25,3.319h-2.969c0.057-0.385-0.114-0.641-0.366-0.811
				c-0.257-0.185-0.614-0.257-0.927-0.257c-0.429,0-1.128,0.114-1.128,0.685c0.058,0.728,1.513,0.885,2.949,1.281
				c1.441,0.398,2.869,1.068,2.869,2.936c0,2.65-2.441,3.506-4.707,3.506c-1.154,0-4.45-0.414-4.479-3.662H11.162z"/>
			<path fill="#FFFFFF" d="M20.559,14.955h-2.854V12.34h8.849v2.614h-2.854v7.575h-3.141V14.955z"/>
			<path fill="#FFFFFF" d="M49.777,14.765h1.473c1.2,0,1.559,0.372,1.559,1.017c0,0.915-0.802,1.015-1.387,1.015h-1.645V14.765z
				 M46.639,22.529h3.139v-3.553h1.673c1.245,0,1.33,1.014,1.416,1.984c0.043,0.527,0.101,1.055,0.257,1.568h3.14
				c-0.286-0.471-0.301-1.684-0.344-2.184c-0.113-1.27-0.642-2.209-1.497-2.537c1.041-0.385,1.526-1.496,1.526-2.556
				c0-1.929-1.542-2.913-3.326-2.913h-5.983V22.529z"/>
			<path fill="#FFFFFF" d="M57.212,12.34h4.465l1.455,5.994h0.029l1.455-5.994h4.468v10.189h-2.969v-6.537h-0.028l-1.77,6.537
				h-2.342l-1.769-6.537h-0.029v6.537h-2.966V12.34z"/>
			<path fill="#FFFFFF" d="M39.79,17.434c0,2.977-1.469,4.346-3.48,4.346s-3.48-1.369-3.48-4.346s1.469-4.344,3.48-4.344
				S39.79,14.457,39.79,17.434z M46.019,17.434c0-4.344-2.613-7.644-9.708-7.644c-3.741,0-5.529,0.624-6.916,1.609
				c-1.667,1.187-2.792,3.219-2.792,6.035c0,4.346,2.612,7.645,9.708,7.645c3.741,0,6.253-1.006,7.819-2.514
				C45.334,21.416,46.019,19.668,46.019,17.434z"/>
		</g>
		<polygon points="43.897,2.734 40.739,6.126 43.507,6.126 37.972,11.351 41.559,11.351 35.632,17.783 49.551,9.362 45.534,9.362 
			56.491,2.734 		"/>
		<polygon fill="#FFF200" points="43.897,2.06 40.739,5.452 43.507,5.452 37.972,10.677 41.559,10.677 35.632,17.109 49.551,8.688 
			45.534,8.688 56.491,2.06 		"/>
		<g>
			<path d="M70.617,23.926c0.506,0,0.908,0.412,0.908,0.926c0,0.523-0.402,0.932-0.914,0.932c-0.506,0-0.916-0.408-0.916-0.932
				c0-0.514,0.41-0.926,0.916-0.926H70.617z M70.611,24.07c-0.407,0-0.74,0.35-0.74,0.781c0,0.441,0.333,0.787,0.746,0.787
				c0.41,0.004,0.74-0.346,0.74-0.783c0-0.436-0.33-0.785-0.74-0.785H70.611z M70.438,25.391h-0.165v-1.031
				c0.087-0.014,0.17-0.025,0.294-0.025c0.156,0,0.259,0.031,0.321,0.078c0.061,0.045,0.094,0.115,0.094,0.213
				c0,0.137-0.091,0.219-0.201,0.252v0.008c0.09,0.018,0.151,0.098,0.172,0.252c0.025,0.158,0.051,0.223,0.066,0.254h-0.174
				c-0.023-0.031-0.049-0.127-0.069-0.264c-0.023-0.131-0.09-0.18-0.223-0.18h-0.115V25.391z M70.438,24.818h0.121
				c0.136,0,0.251-0.049,0.251-0.176c0-0.09-0.066-0.182-0.251-0.182c-0.055,0-0.092,0.004-0.121,0.008V24.818z"/>
		</g>
	</g>
</g>
</svg>
