<?xml version="1.0" encoding="utf-8"?>
<!-- Generator: Adobe Illustrator 16.0.5, SVG Export Plug-In . SVG Version: 6.00 Build 0)  -->
<!DOCTYPE svg PUBLIC "-//W3C//DTD SVG 1.1//EN" "http://www.w3.org/Graphics/SVG/1.1/DTD/svg11.dtd">
<svg version="1.1" id="Layer_1" xmlns="http://www.w3.org/2000/svg" xmlns:xlink="http://www.w3.org/1999/xlink" x="0px" y="0px"
	 width="78px" height="20px" viewBox="0 0 78 20" enable-background="new 0 0 78 20" xml:space="preserve">
<g>
	<g>
		<path d="M1.132,13.565L3.94,0.823h5.322l0.557,6.024l3.318-6.024h5.386l-2.808,12.742h-3.753l0.858-3.895l0.488-1.981l0.72-2.301
			h-0.035l-4.119,8.177H6.972L6.457,5.389H6.42L6.185,7.267L5.836,9.246l-0.95,4.319H1.132z"/>
		<path d="M21.885,11.742c-0.726,0-1.098-0.318-0.996-0.777c0.264-1.204,1.797-0.921,3.128-1.505
			C23.824,10.735,23.179,11.742,21.885,11.742z M27.288,13.565l0.04-0.179c-0.394-0.389-0.353-0.653-0.236-1.184l0.954-4.336
			c0.49-2.213,0.583-3.841-3.809-3.841c-3.66,0-5.312,1.148-5.745,3.116h3.538c0.265-0.797,0.979-0.904,1.49-0.904
			c0.393,0,1.184,0.09,1.038,0.762c-0.383,1.734-6.565-0.178-7.489,4.035c-0.425,1.928,0.939,2.795,2.691,2.795
			c1.382,0,2.507-0.282,3.765-1.255l-0.042,0.99H27.288z"/>
		<path d="M57.247,13.565h-3.416l0.303-1.362c-1.202,1.272-2.186,1.627-3.707,1.627c-2.017,0-3.053-1.238-2.468-3.893l1.243-5.646
			h3.681l-1.101,5.009c-0.282,1.274,0.069,1.681,0.955,1.681c1.061,0,1.574-0.798,1.889-2.23l0.984-4.459h3.68L57.247,13.565z"/>
		<path d="M60.01,4.292h3.382l-0.308,1.38c0.618-0.707,1.975-1.646,3.303-1.646c1.66,0,2.428,0.708,2.651,1.699
			c1.041-1.114,2.215-1.699,3.578-1.699c2.706,0,3.221,1.522,2.663,4.053l-1.207,5.486h-3.682l1.039-4.725
			c0.299-1.363,0.157-1.913-0.813-1.913c-1.082,0-1.501,0.939-1.748,2.054l-1.007,4.584H64.18l1.04-4.725
			c0.299-1.363,0.155-1.913-0.817-1.913c-1.079,0-1.501,0.939-1.743,2.054l-1.013,4.584h-3.679L60.01,4.292z"/>
		<g>
			<polygon points="70.015,15.771 70.656,15.771 70.937,14.713 70.293,14.713 			"/>
			<polygon points="68.744,15.771 69.385,15.771 69.667,14.713 69.024,14.713 			"/>
			<polygon points="67.472,15.771 68.114,15.771 68.394,14.713 67.754,14.713 			"/>
			<polygon fill="#E31837" points="0.686,15.771 66.841,15.771 67.122,14.713 0.966,14.713 			"/>
			<polygon fill="#E31837" points="71.287,15.771 73.722,15.771 74.002,14.713 71.567,14.713 			"/>
		</g>
		<g>
			<path d="M29,16.674l-0.144,0.653h-1.142l-0.418,1.913h-0.819l0.417-1.913h-1.143l0.143-0.653H29z"/>
			<path d="M32.208,16.674l-0.133,0.604h-2.069l-0.081,0.373h1.965l-0.123,0.564h-1.966l-0.09,0.407h2.086l-0.135,0.617h-2.854
				l0.56-2.566H32.208z"/>
			<path d="M35.52,18.251c-0.026,0.154-0.038,0.208-0.05,0.262c-0.086,0.393-0.238,0.584-0.54,0.678
				c-0.214,0.062-0.512,0.088-1.046,0.088c-1.043,0-1.352-0.031-1.534-0.149c-0.147-0.098-0.194-0.238-0.167-0.501
				c0.013-0.115,0.052-0.327,0.124-0.654c0.125-0.573,0.185-0.784,0.274-0.928c0.215-0.346,0.51-0.41,1.845-0.41
				c0.693,0,0.926,0.027,1.082,0.119c0.19,0.111,0.23,0.299,0.142,0.704l-0.028,0.135h-0.782c0.03-0.17,0.03-0.204-0.009-0.242
				c-0.046-0.052-0.269-0.073-0.764-0.073c-0.485,0-0.63,0.015-0.72,0.076c-0.109,0.077-0.173,0.227-0.257,0.615
				c-0.085,0.389-0.089,0.512-0.008,0.581c0.073,0.069,0.201,0.087,0.729,0.087c0.823,0,0.839-0.01,0.926-0.387H35.52z"/>
			<path d="M37.112,16.674l-0.201,0.92h1.766l0.201-0.92h0.819l-0.561,2.566h-0.819l0.204-0.927h-1.766l-0.204,0.927h-0.819
				l0.56-2.566H37.112z"/>
			<path d="M41.572,16.674l0.925,1.912h0.081l0.398-1.912h0.796l-0.561,2.566h-1.358l-0.933-1.913h-0.084l-0.398,1.913h-0.797
				l0.561-2.566H41.572z"/>
			<path d="M47.464,16.813c0.164,0.15,0.166,0.406,0.005,1.145c-0.161,0.734-0.274,0.993-0.505,1.144
				c-0.229,0.15-0.473,0.177-1.546,0.177s-1.306-0.026-1.471-0.177c-0.162-0.15-0.164-0.409-0.003-1.144
				c0.162-0.738,0.273-0.991,0.503-1.145c0.23-0.15,0.47-0.178,1.57-0.178C47.064,16.636,47.299,16.666,47.464,16.813z
				 M44.896,17.462c-0.065,0.089-0.113,0.235-0.184,0.559c-0.071,0.322-0.07,0.427,0.007,0.501c0.081,0.079,0.205,0.091,0.845,0.091
				c0.639,0,0.765-0.012,0.885-0.091c0.104-0.07,0.155-0.181,0.223-0.489c0.083-0.385,0.093-0.531,0.043-0.615
				c-0.066-0.104-0.144-0.117-0.895-0.117C45.084,17.3,45.005,17.316,44.896,17.462z"/>
			<path d="M49.024,16.674l-0.417,1.912h1.824l-0.144,0.654h-2.645l0.562-2.566H49.024z"/>
			<path d="M54.419,16.813c0.163,0.15,0.166,0.406,0.005,1.145c-0.161,0.734-0.276,0.993-0.505,1.144s-0.474,0.177-1.546,0.177
				c-1.073,0-1.307-0.026-1.47-0.177s-0.165-0.409-0.004-1.144c0.159-0.738,0.274-0.991,0.502-1.145
				c0.23-0.15,0.472-0.178,1.57-0.178C54.021,16.636,54.255,16.666,54.419,16.813z M51.849,17.462
				c-0.065,0.089-0.111,0.235-0.183,0.559c-0.069,0.322-0.069,0.427,0.006,0.501c0.083,0.079,0.207,0.091,0.847,0.091
				c0.637,0,0.765-0.012,0.886-0.091c0.104-0.07,0.153-0.181,0.222-0.489c0.083-0.385,0.092-0.531,0.042-0.615
				c-0.066-0.104-0.144-0.117-0.896-0.117C52.038,17.3,51.957,17.316,51.849,17.462z"/>
			<path d="M58.265,17.786l-0.015,0.068c-0.056,0.254-0.166,0.693-0.205,0.815c-0.096,0.3-0.301,0.478-0.623,0.54
				c-0.272,0.053-0.549,0.068-1.241,0.068c-0.88,0-1.146-0.034-1.33-0.182c-0.13-0.099-0.166-0.245-0.138-0.515
				c0.012-0.104,0.061-0.366,0.128-0.674c0.15-0.684,0.271-0.944,0.521-1.091c0.212-0.133,0.632-0.182,1.531-0.182
				c0.954,0,1.294,0.064,1.42,0.266c0.078,0.126,0.075,0.284-0.003,0.661h-0.78c0.027-0.15,0.027-0.181-0.014-0.216
				c-0.067-0.054-0.239-0.068-0.836-0.068c-0.916,0-0.92,0.003-1.065,0.67c-0.095,0.435-0.101,0.564-0.032,0.634
				c0.054,0.056,0.121,0.066,0.338,0.073l0.457,0.008c0.666,0,0.811-0.013,0.897-0.077c0.051-0.043,0.072-0.089,0.116-0.288h-1.026
				l0.111-0.512H58.265z"/>
			<path d="M59.79,16.674l-0.562,2.566h-0.82l0.561-2.566H59.79z"/>
			<path d="M63.132,16.674L63,17.278h-2.069l-0.081,0.373h1.967l-0.124,0.564h-1.968l-0.088,0.407h2.083l-0.134,0.617h-2.854
				l0.561-2.566H63.132z"/>
			<path d="M63.882,18.39c-0.032,0.153-0.029,0.204,0.024,0.241c0.063,0.047,0.146,0.055,0.697,0.055c0.837,0,0.837,0,0.888-0.231
				c0.034-0.149-0.017-0.188-0.267-0.192l-0.405-0.014l-0.205-0.009c-0.183-0.007-0.384-0.015-0.617-0.027
				c-0.631-0.019-0.771-0.18-0.648-0.746c0.107-0.488,0.294-0.708,0.664-0.784c0.162-0.031,0.512-0.046,1.143-0.046
				c0.729,0,0.996,0.035,1.148,0.156c0.129,0.101,0.157,0.267,0.093,0.56c-0.004,0.021-0.015,0.076-0.031,0.13h-0.754
				c0.023-0.143,0.02-0.177-0.03-0.212c-0.056-0.038-0.151-0.045-0.728-0.045c-0.636,0-0.697,0.014-0.738,0.203
				c-0.021,0.097,0.003,0.146,0.08,0.166c0.063,0.02,0.273,0.031,0.812,0.045c0.841,0.028,1.002,0.047,1.145,0.15
				c0.148,0.112,0.179,0.289,0.105,0.631c-0.103,0.466-0.253,0.682-0.544,0.781c-0.167,0.058-0.494,0.077-1.26,0.077
				c-0.797,0-1.1-0.038-1.256-0.149c-0.153-0.112-0.178-0.263-0.103-0.604l0.028-0.135H63.882z"/>
		</g>
		<path d="M48.134,5.926c0.385-3.274-1.365-5.204-5.26-5.204c-2.461,0-4.83,1.231-6.356,3.356c-0.154-0.019-0.302-0.052-0.458-0.052
			c-1.432,0-2.485,0.69-3.32,2.142h-0.036l0.413-1.876h-3.345l-2.043,9.273h3.68l0.706-3.203c0.443-1.998,1.36-2.708,2.863-2.708
			c0.008,0,0.015,0.002,0.023,0.002c-0.784,3.997,1.197,6.479,5.325,6.479c3.364,0,6.152-1.981,7.249-5.273H43.56
			c-0.43,1.222-1.273,2.159-2.619,2.159c-2.123,0-2.143-1.68-1.748-3.469c0.542-2.46,1.704-3.715,3.171-3.715
			c1.309,0,1.973,0.759,1.808,2.088H48.134z"/>
	</g>
	<g>
		<path d="M75.966,12.139v0.155h-0.368v1.048h-0.181v-1.048h-0.366v-0.155H75.966z M77.129,13.342l-0.049-0.726
			c-0.006-0.093,0-0.209-0.002-0.326h-0.009c-0.03,0.112-0.066,0.238-0.104,0.345l-0.251,0.692h-0.139l-0.244-0.711
			c-0.032-0.097-0.06-0.214-0.087-0.326h-0.01c-0.003,0.115,0,0.218-0.006,0.326l-0.047,0.726h-0.174l0.094-1.203h0.237l0.236,0.653
			c0.03,0.09,0.055,0.19,0.085,0.302h0.005c0.028-0.111,0.056-0.217,0.086-0.306l0.236-0.649h0.235l0.091,1.203H77.129z"/>
	</g>
</g>
</svg>
