<?xml version="1.0" encoding="utf-8"?>
<!-- Generator: Adobe Illustrator 16.0.5, SVG Export Plug-In . SVG Version: 6.00 Build 0)  -->
<!DOCTYPE svg PUBLIC "-//W3C//DTD SVG 1.1//EN" "http://www.w3.org/Graphics/SVG/1.1/DTD/svg11.dtd">
<svg version="1.1" id="Layer_1" xmlns="http://www.w3.org/2000/svg" xmlns:xlink="http://www.w3.org/1999/xlink" x="0px" y="0px"
	 width="78px" height="15px" viewBox="0 0 78 15" enable-background="new 0 0 78 15" xml:space="preserve">
<g>
	<g>
		<g>
			<path d="M65.514,1.096l-3.697,6.403l3.697,6.405h7.396l3.697-6.405l-3.697-6.403H65.514z"/>
		</g>
		<g>
			<g>
				<path fill="#A0CF67" d="M70.837,4.355c0,0-1.274,1.238-1.682,1.634c-0.413-0.395-1.706-1.634-1.706-1.634h-2.857
					c0,0,2.669,2.552,3.152,3.016c-0.489,0.479-3.347,3.272-3.347,3.272h2.961c0,0,1.455-1.426,1.879-1.842
					c0.428,0.413,1.903,1.842,1.903,1.842h2.886c0,0-2.882-2.752-3.377-3.226c0.483-0.47,3.154-3.062,3.154-3.062H70.837z"/>
			</g>
		</g>
	</g>
	<path d="M6.009,5.665v5.101H4.376V5.665H1.394V4.269H8.99v1.396H6.009z"/>
	<path d="M16.659,10.857c-0.283-1.742-1.256-2.574-2.417-2.574h-2.496v2.574h-1.585V8.283H8.7V6.887h1.461V4.36h8.146
		c-0.189,1.475-1.225,2.746-2.449,3.217c1.209,0.393,2.386,1.916,2.496,3.28H16.659z M11.746,5.679v1.208h2.48
		c0.769,0,1.742-0.502,2.024-1.208H11.746z"/>
	<path d="M23.77,10.766c-0.502-0.895-0.831-2.024-0.831-3.248c0-1.24,0.329-2.354,0.831-3.249h7.299v1.396h-6.137
		c-0.235,0.581-0.361,1.209-0.361,1.853c0,0.628,0.126,1.255,0.361,1.852h4.489V8.191h-1.885V6.795h3.532v3.971H23.77z"/>
	<path d="M33.241,10.766c-0.502-0.895-0.831-2.024-0.831-3.248c0-1.24,0.329-2.354,0.831-3.249h7.298v1.396h-6.137
		c-0.234,0.581-0.36,1.209-0.36,1.853c0,0.628,0.126,1.255,0.36,1.852h4.489V8.191h-1.883V6.795h3.53v3.971H33.241z"/>
	<path d="M42.868,10.766V8.191h-1.46V6.795h1.46V4.269h7.314v1.318h-5.729v1.208h4.787v1.396h-4.787v1.256h5.729v1.318H42.868z"/>
	<path d="M58.469,10.766c-0.282-1.741-1.255-2.574-2.417-2.574h-2.496v2.574h-1.585V8.191h-1.46V6.795h1.46V4.269h8.146
		c-0.188,1.476-1.224,2.746-2.448,3.217c1.208,0.393,2.387,1.916,2.496,3.28H58.469z M53.556,5.587v1.208h2.48
		c0.769,0,1.742-0.502,2.024-1.208H53.556z"/>
	<rect x="19.834" y="4.268" width="1.633" height="6.498"/>
	<g>
		<path fill="#FFFFFF" d="M75.393,6.959c0.288,0,0.529,0.228,0.529,0.526c0,0.304-0.241,0.531-0.529,0.531
			c-0.29,0-0.533-0.228-0.533-0.531C74.859,7.187,75.103,6.959,75.393,6.959z M75.393,7.938c0.244,0,0.434-0.194,0.434-0.453
			c0-0.254-0.189-0.448-0.434-0.448c-0.248,0-0.438,0.194-0.438,0.448C74.955,7.744,75.145,7.938,75.393,7.938z M75.186,7.179h0.239
			c0.146,0,0.216,0.058,0.216,0.176c0,0.112-0.07,0.159-0.162,0.169l0.177,0.272h-0.104L75.384,7.53h-0.102v0.266h-0.097V7.179z
			 M75.282,7.452h0.101c0.084,0,0.162-0.004,0.162-0.102c0-0.082-0.071-0.095-0.135-0.095h-0.128V7.452z"/>
	</g>
</g>
</svg>
