<?xml version="1.0" encoding="utf-8"?>
<!-- Generator: Adobe Illustrator 23.1.1, SVG Export Plug-In . SVG Version: 6.00 Build 0)  -->
<!DOCTYPE svg PUBLIC "-//W3C//DTD SVG 1.1//EN" "http://www.w3.org/Graphics/SVG/1.1/DTD/svg11.dtd">
<svg version="1.1" id="Layer_1" xmlns="http://www.w3.org/2000/svg" xmlns:xlink="http://www.w3.org/1999/xlink" x="0px" y="0px"
	 width="105px" height="25px" viewBox="0 0 105 25" enable-background="new 0 0 105 25" xml:space="preserve">
<g>
	<g>
		<path d="M70.9,14.6C70.9,14.5,70.9,14.5,70.9,14.6c-0.3-0.3-0.9-0.5-1.4-0.5c-0.6,0-1,0-1.5,0.3c-0.4,0.2-1.1,0.7-1,0.1
			c0-0.1-0.1-0.2-0.1-0.2c-0.1-0.1-0.3-0.1-0.5,0c-0.2,0.1-0.3,0.2-0.7,0.4c-0.4,0.2-0.9,0.5-1.4,0.6c-0.4,0.1-0.5,0.4-0.5,0.5
			c0,0.2,0,0.4,0.3,0.4c0.2,0.1,0.5,0.2,0.5,0.3c0,0.2,0,0.3-0.2,1.1c-0.2,0.7-0.4,1.6-0.5,2.1c-0.1,0.5-0.1,0.7-0.5,0.8
			c-0.5,0.2-0.6,0.4-0.6,0.5c0,0.1,0,0.3,0.1,0.3c0.1,0.1,0.1,0.2,0.4,0.2h2.8c0.2,0,0.4,0,0.5-0.1c0.1-0.1,0.2-0.1,0.3-0.3
			c0-0.3-0.1-0.5-0.4-0.6c-0.3-0.1-0.4-0.2-0.5-0.3c-0.1-0.2,0-0.3,0.1-0.7c0.3-1.3,0.5-2,0.7-3.1c0.1-0.2,0.2-0.4,0.5-0.6
			c0.5-0.5,1.7-0.7,2.1-0.1c0.2,0.5,0,1.2-0.2,2c-0.2,0.7-0.4,1.6-0.5,2.1c-0.1,0.5-0.1,0.7-0.5,0.8c-0.5,0.2-0.6,0.4-0.6,0.5
			c0,0.1,0,0.3,0.1,0.3c0.1,0.1,0.1,0.2,0.4,0.2h2.8c0.2,0,0.4,0,0.5-0.1c0.1-0.1,0.2-0.1,0.3-0.3c0-0.3-0.1-0.5-0.4-0.6
			s-0.4-0.2-0.5-0.3c-0.1-0.2,0-0.3,0.1-0.7c0.4-1.9,0.3-1.3,0.8-3.6C71.2,15.6,71.4,15,70.9,14.6"/>
		<path d="M46,14.1c-0.4-0.2-1.1,0.2-1.2,0.2c-0.4,0.2-1,0.7-1,0.1c0-0.1-0.1-0.2-0.1-0.2c-0.1-0.1-0.3-0.1-0.5,0
			c-0.2,0.1-0.3,0.2-0.7,0.4C42,14.7,41.5,15,41,15.1c-0.4,0.1-0.5,0.4-0.5,0.5c0,0.2,0,0.4,0.3,0.4c0.2,0.1,0.5,0.2,0.5,0.3
			c0,0.2,0,0.3-0.2,1.1c-0.2,0.7-0.4,1.6-0.5,2.1c-0.1,0.5-0.1,0.7-0.5,0.8c-0.5,0.2-0.6,0.4-0.6,0.5c0,0.1,0,0.3,0.1,0.3
			s0.1,0.2,0.4,0.2h2.8c0.2,0,0.4,0,0.5-0.1c0.1-0.1,0.2-0.1,0.3-0.3c0-0.3-0.1-0.5-0.4-0.6c-0.3-0.1-0.4-0.2-0.5-0.3
			c-0.1-0.2,0-0.3,0.1-0.7c0.3-1.3,0.7-2.9,0.7-3.1c0.1-0.2,0-0.3,0.3-0.6c0.4-0.4,0.8-0.2,1.3,0c0.7,0.3,1.3-0.3,1.4-0.6
			C46.4,14.8,46.4,14.3,46,14.1"/>
		<path d="M76.1,12.8c0-0.2-0.1-0.4-0.2-0.6c-0.2-0.3-0.5-0.4-0.8-0.4c-0.6,0-1,0.5-1,1c0,0.6,0.4,1,1,1c0.3,0,0.6-0.2,0.8-0.4
			C76,13.2,76.1,13,76.1,12.8"/>
		<path d="M75.7,14.2c-0.1-0.1-0.3-0.1-0.5,0c-0.2,0.1-0.3,0.2-0.7,0.4c-0.4,0.2-0.9,0.5-1.4,0.6c-0.4,0.1-0.5,0.4-0.5,0.5
			c0,0.2,0,0.4,0.3,0.4c0.2,0.1,0.5,0.2,0.5,0.3c0,0.2,0,0.3-0.2,1.1c-0.2,0.7-0.4,1.6-0.5,2.1c-0.1,0.5-0.1,0.7-0.5,0.8
			c-0.5,0.2-0.6,0.4-0.6,0.5c0,0.1,0,0.3,0.1,0.3c0.1,0.1,0.1,0.2,0.4,0.2h2.8c0.2,0,0.4,0,0.5-0.1c0.1-0.1,0.2-0.1,0.3-0.3
			c0-0.3-0.1-0.5-0.4-0.6c-0.3-0.1-0.4-0.2-0.5-0.3c-0.1-0.2,0-0.3,0.1-0.7c0.4-1.9,0.6-2.5,1.1-4.8C75.9,14.4,75.8,14.3,75.7,14.2"
			/>
		<path d="M50.7,14.2c-0.1,0-0.9,0-1.1,0c-0.2,0-0.3-0.1-0.2-0.4c0.1-0.3,0.4-1.2,0.4-1.5c0.1-0.3,0-0.5-0.3-0.5
			c-0.2,0-0.5,0-0.8,0.5c-0.3,0.5-0.7,1.7-1.3,1.9c-0.3,0.1-0.5,0.1-0.7,0.1c-0.2,0.1-0.3,0.2-0.4,0.4c-0.1,0.2-0.1,0.4,0,0.5
			c0.1,0.1,0.2,0.1,0.4,0.1c0.1,0,0.2,0.1,0.2,0.2c-0.4,1.5-0.8,3-1,3.7c-0.2,0.7-0.1,1.1,0,1.5c0.1,0.1,0.2,0.3,0.4,0.5
			c0.2,0.1,0.4,0.2,0.9,0.3c0.7,0.1,1.5,0,1.8-0.5c0.1-0.3,0-0.6-0.6-0.6c-0.6,0-1.1-0.1-0.8-0.9c0,0,0.9-3.4,0.9-3.7
			c0.1-0.3,0.3-0.5,0.6-0.5c0.3-0.1,0.6-0.1,0.8-0.1c0.2,0,0.4-0.1,0.5-0.2c0.1-0.1,0.1-0.2,0.2-0.3C51.1,14.4,50.9,14.2,50.7,14.2"
			/>
		<path d="M55.3,14.2c-0.1,0-0.9,0-1.1,0c-0.2,0-0.3-0.1-0.2-0.4c0.1-0.3,0.4-1.2,0.4-1.5c0.1-0.3,0-0.5-0.3-0.5
			c-0.2,0-0.5,0-0.8,0.5c-0.3,0.5-0.7,1.7-1.3,1.9c-0.3,0.1-0.5,0.1-0.7,0.1c-0.2,0.1-0.3,0.2-0.4,0.4c-0.1,0.2-0.1,0.4,0,0.5
			c0.1,0.1,0.2,0.1,0.4,0.1c0.1,0,0.2,0.1,0.2,0.2c-0.4,1.5-0.8,3-1,3.7c-0.2,0.7-0.1,1.1,0,1.5c0.1,0.1,0.2,0.3,0.4,0.5
			c0.2,0.1,0.4,0.2,0.9,0.3c0.7,0.1,1.5,0,1.8-0.5c0.1-0.3,0-0.6-0.6-0.6c-0.6,0-1.1-0.1-0.8-0.9c0,0,0.9-3.4,0.9-3.7
			c0.1-0.3,0.3-0.5,0.6-0.5c0.3-0.1,0.6-0.1,0.8-0.1c0.2,0,0.4-0.1,0.5-0.2c0.1-0.1,0.1-0.2,0.2-0.3C55.7,14.4,55.5,14.2,55.3,14.2"
			/>
		<path d="M58.8,12.8c0-0.2-0.1-0.4-0.2-0.6c-0.2-0.3-0.5-0.4-0.8-0.4c-0.6,0-1,0.5-1,1c0,0.6,0.4,1,1,1c0.3,0,0.6-0.2,0.8-0.4
			C58.8,13.2,58.8,13,58.8,12.8"/>
		<path d="M58.5,14.2c-0.1-0.1-0.3-0.1-0.5,0c-0.2,0.1-0.3,0.2-0.7,0.4c-0.4,0.2-0.9,0.5-1.4,0.6c-0.4,0.1-0.5,0.4-0.5,0.5
			c0,0.2,0,0.4,0.3,0.4c0.2,0.1,0.5,0.2,0.5,0.3c0,0.2,0,0.3-0.2,1.1c-0.2,0.7-0.4,1.6-0.5,2.1c-0.1,0.5-0.1,0.7-0.5,0.8
			c-0.5,0.2-0.6,0.4-0.6,0.5c0,0.1,0,0.3,0.1,0.3c0.1,0.1,0.1,0.2,0.4,0.2h2.8c0.2,0,0.4,0,0.5-0.1c0.1-0.1,0.2-0.1,0.3-0.3
			c0-0.3-0.1-0.5-0.4-0.6c-0.3-0.1-0.4-0.2-0.5-0.3c-0.1-0.2,0-0.3,0.1-0.7c0.4-1.9,0.6-2.5,1.1-4.8C58.6,14.4,58.6,14.3,58.5,14.2"
			/>
		<path d="M63,12.8c0-0.2-0.1-0.4-0.2-0.6c-0.2-0.3-0.5-0.4-0.8-0.4c-0.6,0-1,0.5-1,1c0,0.6,0.4,1,1,1c0.3,0,0.6-0.2,0.8-0.4
			C63,13.2,63,13,63,12.8"/>
		<path d="M62.7,14.2c-0.1-0.1-0.3-0.1-0.5,0c-0.2,0.1-0.3,0.2-0.7,0.4c-0.4,0.2-0.9,0.5-1.4,0.6c-0.4,0.1-0.5,0.4-0.5,0.5
			c0,0.2,0,0.4,0.3,0.4c0.2,0.1,0.5,0.2,0.5,0.3c0,0.2,0,0.3-0.2,1.1c-0.2,0.7-0.4,1.6-0.5,2.1c-0.1,0.5-0.1,0.7-0.5,0.8
			c-0.5,0.2-0.6,0.4-0.6,0.5c0,0.1,0,0.3,0.1,0.3c0.1,0.1,0.1,0.2,0.4,0.2h2.8c0.2,0,0.4,0,0.5-0.1c0.1-0.1,0.2-0.1,0.3-0.3
			c0-0.3-0.1-0.5-0.4-0.6c-0.3-0.1-0.4-0.2-0.5-0.3c-0.1-0.2,0-0.3,0.1-0.7c0.4-1.9,0.6-2.5,1.1-4.8C62.8,14.4,62.8,14.3,62.7,14.2"
			/>
		<path d="M37.3,18.5c-0.1,0.4-0.2,0.8-0.3,1.1c-0.2,0.3-0.5,0.5-1,0.6c-0.2,0-0.2,0-0.3,0c-0.6,0-1.2-0.3-1-1
			c0.1-0.2,0.3-0.7,0.7-0.9c0.3-0.2,0.4-0.2,0.7-0.3c0.2-0.1,0.6-0.2,1-0.2C37.3,17.7,37.3,18.1,37.3,18.5 M39.7,15.4
			c-0.2-0.9-1.2-1.4-2.4-1.4c-0.5,0-0.9,0-1.5,0.2c-0.9,0.2-1.6,0.7-1.9,1.5c-0.1,0.5,0.2,0.8,0.7,0.8c0.5,0,0.7-0.2,1.1-0.7
			s0.8-0.9,1.3-0.9c0.6,0,0.8,0.4,0.6,1c-0.2,0.8-1.3,0.9-1.7,1c-0.5,0.1-1.2,0.3-1.5,0.4c-1.2,0.6-2.2,1.4-2.2,2.6
			c0,0.3,0.1,0.5,0.3,0.8c0.2,0.3,0.7,0.6,1.3,0.6c1.2,0.1,2-0.1,2.9-0.4c0.7-0.3,0.3,0.4,1.1,0.4c0.4,0,0.6,0,0.8-0.1
			c0.5-0.1,0.8-1,0.3-1.2c-0.2-0.1-0.4-0.2-0.3-0.6c0.1-0.4,0.7-2.8,0.8-3.1C39.7,16.2,39.8,15.7,39.7,15.4"/>
		<path d="M21.2,12c0,0-1.4,5.9-1.7,6.8c-0.2,0.9-1.8,1.4-2.4,1.4H7.5c-2.3,0-3.3,1.4-3.3,1.4s0.1-0.3,0.2-0.8c0.1-0.3,1-4,1.5-5.8
			c0.3-1.1,0.9-2.3,1.2-2.7c1.1-1.3,2.8-2,5.1-2h8.1C21.2,10.3,21.4,11,21.2,12 M100,9.1H31.8c-1.1,0-1.7,0.8-2.1,1.5l-3.3,5.6
			c-0.1,0.2-0.2,0.1-0.2,0l-0.2-5c0-1.1-0.1-1.5-0.5-1.9c-0.2-0.1-0.4-0.2-0.7-0.2h-12c-2,0-5.5,0.2-7.8,2.7
			c-0.6,0.6-1.6,2.1-2.5,4.3c-1.4,3.3-2.3,5.3-2.3,5.4c-0.3,0.6-0.3,1.2,0.4,1.5c0.8,0.4,2,0.8,2.9,1C4,24,4.3,24,4.9,23.3
			C4.9,23.1,5,23,5.1,22.9c0.7-1,1.6-1.5,2.6-1.5h8.8c0.3,0,0.6,0,0.9-0.1c2-0.2,3.9-1,4.3-2.8c0.4-1.8,1.5-6.3,1.5-6.3
			c0-0.2,0.3-0.2,0.3,0c0,0,0.4,7,0.5,7.8c0,0.8,0,1.3,0.4,1.4c0.3,0,0.4-0.1,0.6-0.3c0.3-0.5,5.1-8.9,5.1-8.9
			c0.1-0.1,0.3-0.1,0.3,0.1c0,0-1.7,6.9-1.8,7.1c0,0.2-0.1,0.2-0.1,0.3c-0.4,0.7-1.3,0.4-1.7,1.4c-0.1,0.2,0.1,0.4,0.3,0.4h4.6
			c0.2,0,0.3-0.1,0.4-0.3c0-0.2,0-0.3,0-0.5c-0.1-0.2-0.2-0.3-0.3-0.4c-0.4-0.4-0.8-0.6-0.7-1.2c0.1-0.6,1.9-7.4,1.9-7.4
			c0.2-0.9,0.9-1.4,1.8-1.4h61.8c-0.9,2-3,5-6.3,7c-2.4,1.4-5,2.1-7.6,2.4c-1.8,0.2-4.5,0.1-6.5,1.7h5.4c1.7,0,3.5-0.2,5-0.5
			c5.9-1.4,10.2-5.2,12.8-10.6C99.7,9.9,99.8,9.5,100,9.1"/>
	</g>
</g>
</svg>
