<?xml version="1.0" encoding="utf-8"?>
<!-- Generator: Adobe Illustrator 16.0.5, SVG Export Plug-In . SVG Version: 6.00 Build 0)  -->
<!DOCTYPE svg PUBLIC "-//W3C//DTD SVG 1.1//EN" "http://www.w3.org/Graphics/SVG/1.1/DTD/svg11.dtd">
<svg version="1.1" id="Layer_1" xmlns="http://www.w3.org/2000/svg" xmlns:xlink="http://www.w3.org/1999/xlink" x="0px" y="0px"
	 width="78px" height="10px" viewBox="0 0 78 10" enable-background="new 0 0 78 10" xml:space="preserve">
<g>
	<path d="M76.609,2.334h-0.148V1.64h0.258c0.182,0,0.287,0.051,0.287,0.21c0,0.127-0.076,0.174-0.168,0.181l0.178,0.303H76.84
		l-0.16-0.291h-0.07V2.334z M76.74,1.926c0.066,0,0.107-0.015,0.107-0.091c0-0.072-0.078-0.077-0.135-0.077h-0.104v0.167H76.74z
		 M76.717,2.633c-0.344,0-0.648-0.237-0.648-0.645c0-0.408,0.305-0.646,0.648-0.646c0.34,0,0.646,0.237,0.646,0.646
		C77.363,2.396,77.057,2.633,76.717,2.633z M76.717,1.493c-0.256,0-0.463,0.198-0.463,0.496c0,0.296,0.207,0.496,0.463,0.495v0.001
		c0.248,0,0.461-0.2,0.461-0.496C77.178,1.691,76.965,1.493,76.717,1.493z"/>
	<path fill="#F58220" d="M53.195,3.495c-0.551-0.073-0.734-0.627-1.188-0.629c-0.008,0.002-2.305,0.002-2.309,0
		c0,0-0.293,0.011-0.293,0.137l0.008,0.716c0,0-0.119,0.33,0.316,0.328l1.289,0.001c0.422-0.137,0.625-0.582,1.229-0.594
		c0.223-0.019,0.377,0.025,0.561,0.099c0.52,0.292,0.143,0.612,0.307,0.751c0.158-0.243,0.459-0.564,0.697-0.801
		C53.441,3.556,53.195,3.495,53.195,3.495z M44.92,7.86c0.355-0.152,1.027-0.129,1.109-0.451l0.002-0.311V2.976
		c-0.002-0.207-0.889-0.164-1.244-0.335c-0.268-0.118-0.271-0.361-0.1-0.512c0.143-0.205,0.555-0.27,1.217-0.27
		c2.561,0,7.49,0,7.482,0c1.01,0.064,0.76,0.555,0.996,0.837l0.129,0.322h0.078c1.555-0.837,3.592-1.234,5.939-1.119
		c1.088,0.074,2.174,0.305,3.078,0.603l-0.01-0.013c-0.211-0.164-0.117-0.375,0.094-0.486c0.186-0.111,0.447-0.144,0.711-0.163
		c1.457,0.049,2.967,0.044,4.408,0.014c0.369,0.014,0.801,0.067,0.932,0.271c0.168,0.243-0.135,0.439-0.426,0.616l0.08,0.131
		l1.016,0.79h0.041l1.029-0.806c0.057-0.128-0.352-0.146-0.562-0.25c-0.25-0.149-0.299-0.283-0.182-0.453
		c0.107-0.164,0.469-0.257,0.783-0.295c1.281,0.05,2.625,0.05,3.498,0.001c0.355,0.014,0.643,0.165,0.732,0.323
		c0.064,0.216-0.16,0.413-0.527,0.53c-0.486,0.138-1.197,0.083-1.473,0.405l-2.023,1.612l0.014,0.001l2.979,2.444
		c0.338,0.368,1.139,0.521,1.846,0.619c0.25,0.073,0.381,0.198,0.432,0.328c0.025,0.132-0.029,0.277-0.211,0.376
		c-0.186,0.091-0.211,0.121-0.633,0.143c-1.482-0.062-2.99-0.063-4.58-0.001c-0.576-0.021-0.938-0.046-0.969-0.294
		c-0.049-0.302,1.049-0.523,0.693-0.719l0,0l-1.561-1.242L69.66,6.357c-0.555,0.42-1.107,0.832-1.609,1.264
		c-0.027,0.145,0.342,0.172,0.471,0.29c0.156,0.104,0.275,0.229,0.207,0.374c-0.027,0.157-0.316,0.276-0.578,0.341l-0.648,0.028
		c-0.818-0.068-2.016-0.036-3.021-0.011c-0.25-0.045-0.582-0.083-0.713-0.215c-0.131-0.12-0.143-0.269-0.115-0.408l-0.039-0.019
		c-1.869,0.634-4.666,0.831-6.775,0.328c-1.625-0.382-3.168-1.179-3.584-2.047c-0.207-0.242-0.23-0.531-0.334-0.801l-0.066-0.026
		C52.617,5.548,52.51,5.592,52.1,5.567c-0.564-0.041-0.656-0.485-1.055-0.487c0.004,0.002-1.473,0.002-1.469,0.004
		c-0.119,0.02-0.172,0.085-0.174,0.144l0.01,2.306c0.324,0.362,1.168,0.21,1.363,0.513c0.064,0.092,0.064,0.223-0.002,0.314
		c-0.145,0.151-0.268,0.258-0.736,0.274c-1.062-0.029-2.191-0.09-3.307-0.045c-0.631,0.013-1.393,0.162-1.916-0.075
		c-0.184-0.094-0.234-0.204-0.26-0.322C44.582,8.061,44.711,7.951,44.92,7.86z M56.471,4.386c-0.332,0.669-0.404,1.529,0.273,2.128
		c0.535,0.532,1.621,1.06,2.908,1.041c1.496-0.043,2.668-0.771,3.146-1.404c0.543-1.062,0.211-2.297-1.699-2.976
		c-0.695-0.265-1.809-0.371-2.572-0.117C57.475,3.326,56.816,3.861,56.471,4.386z M64.355,2.792c0.982,0.501,1.58,1.086,1.904,1.729
		c0.568,1.208-0.355,2.31-1.924,3.166l0.014,0.02c0.525-0.013,1.051-0.087,1.393-0.311l2.635-2.112l0,0
		c-0.873-0.664-1.758-1.392-2.631-2.056C65.432,2.964,64.922,2.819,64.355,2.792z"/>
	<path stroke="#000000" stroke-width="0" stroke-linecap="square" stroke-miterlimit="2" d="M37.578,3.131"/>
	<path fill="#F58220" d="M38.04,2.868c0,0-0.459-0.034-0.462,0.263c0.003,0.137,0.006,0.622,0.005,0.718
		c-0.002,0.126,0.046,0.2,0.225,0.201l1.037,0.002c0.312-0.003,0.36-0.733,1.463-0.512c0.301,0.092,0.357,0.28,0.34,0.427
		C40.473,4.372,40.549,4.78,40.611,5.2c0.023,0.171-0.199,0.32-0.516,0.379c-0.314,0.06-0.656-0.001-0.878-0.112
		c-0.263-0.119-0.353-0.302-0.667-0.375c-0.301-0.001-0.828-0.072-0.986,0.117c0,0.005-0.017,2.13-0.004,2.128
		c0.004,0.133,0.102,0.199,0.482,0.195l2.665,0.004c0.564,0,0.547-0.409,0.797-0.611c0.119-0.093,0.344-0.232,0.605-0.226
		c0.367-0.02,0.551,0.02,0.799,0.145c0.334,0.159,0.283,0.388,0.279,0.522v0.949c0.004,0.116-0.189,0.302-0.67,0.303l-0.375,0.001
		h-8.288c-0.408-0.001-0.8-0.112-0.956-0.309c-0.065-0.118-0.038-0.262,0.095-0.367c0.316-0.249,1.289-0.253,1.289-0.554
		l-0.001-1.174l0-3.019c0.002-0.162,0.183-0.412-0.845-0.438c-0.276,0.025-0.809,0.001-0.855,0.311l-0.005,0.248l-0.002,3.158
		c-0.15,0.793-1.379,1.581-2.851,1.9c-2.208,0.476-5.238,0.352-7.084-0.425c-0.052-0.013-0.105,0.019-0.105,0.046
		c0.003,0.21,0.037,0.57-0.562,0.6l-0.637,0.008l-8.275,0.004c-0.596-0.008-1.056-0.197-1.094-0.439
		c-0.437,0.169-0.913,0.325-1.617,0.411L9.715,8.6L2.004,8.602c-0.433-0.014-0.882-0.024-1.144-0.2
		C0.734,8.28,0.754,8.167,0.821,8.051c0.158-0.327,1.208-0.335,1.29-0.659l0.005-0.319L2.104,3.126
		C2.08,2.852,1.614,2.837,1.26,2.725C0.848,2.614,0.651,2.498,0.636,2.314C0.635,2.007,1.127,1.892,1.627,1.86h0.079h6.68
		c1.453-0.001,2.65,0.647,2.919,1.204c0.246,0.512-0.099,1.01-0.745,1.37l0,0c1.871,0.567,2.473,1.263,2.704,1.959V6.309
		l0.006-3.258c-0.003-0.266-1.135-0.437-1.152-0.518c-0.16-0.037-0.442-0.289-0.045-0.493c0.275-0.157,0.726-0.181,0.765-0.18
		c0,0,2.114,0.031,2.25,0.031c0.213,0,2.037-0.043,2.184-0.025c0.249,0,0.556,0.034,0.727,0.185c0.24,0.16,0.223,0.3-0.023,0.479
		c-0.41,0.313-1.378,0.181-1.386,0.504l0.015,4.205c0.012,0.112,0.009,0.271,0.432,0.27c0,0,2.595,0.002,2.601-0.001
		c0.716,0.003,0.646-0.787,1.645-0.93l0.065-0.033l0.011-3.53c-0.169-0.158-0.563-0.139-0.786-0.257
		c-0.406-0.119-0.444-0.309-0.469-0.513c-0.011-0.115,0.3-0.386,0.682-0.385c0.094-0.042,2.145,0.048,2.375,0.048
		c0.361,0,2.214-0.098,2.393-0.047c0.265-0.001,0.472,0.138,0.549,0.25c0.183,0.244,0.011,0.503-0.358,0.627
		c-0.199,0.09-1.107,0.127-1.111,0.39l0.008,3.249c0.111,0.42,0.798,0.773,1.572,0.926c1.219,0.231,2.768,0.129,3.716-0.321
		c0.277-0.151,0.472-0.322,0.486-0.525c0,0-0.002-3.431-0.001-3.439c-0.328-0.217-0.968-0.256-1.15-0.519
		c-0.091-0.138-0.104-0.309,0.016-0.439c0.119-0.092,0.279-0.174,0.556-0.198l11.476,0c0.908,0.048,0.928,0.64,1.1,0.93
		c0.125,0.207,0.234,0.519-0.174,0.656c-0.328,0.091-0.775,0.071-1.102-0.01c-0.551-0.104-0.564-0.476-1.103-0.569L38.04,2.868z
		 M5.441,3.062c-0.002,0.269,0,0.826-0.002,0.829c0.025,0.092,0.174,0.12,0.32,0.136c0.735,0.02,1.679,0.12,2.233-0.174
		C8.295,3.648,8.363,3.387,8.075,3.17C7.592,2.775,6.555,2.898,5.741,2.896C5.583,2.903,5.441,2.953,5.441,3.062z M5.438,7.353
		c0.039,0.059,0.003,0.125,0.258,0.155L7.81,7.507c0.93,0.004,1.563-0.142,1.946-0.502c0.332-0.485,0.346-1.028-0.574-1.458
		C8.354,5.095,7.419,5.071,6.382,5.116C6.027,5.129,5.475,5.169,5.446,5.341L5.438,7.353z"/>
	<g>
		<path fill="#FFFFFF" stroke="#F58220" stroke-width="0.8833" d="M1.9,2.21l6.106,0c0.971,0.047,1.95,0.32,2.38,0.78
			c0.221,0.289,0.271,0.683-0.046,0.952c-0.33,0.288-0.948,0.431-1.5,0.542v0.02c1.521,0.146,3.026,0.807,3.48,1.555
			c0.442,0.67,0.07,1.379-1.023,1.836c-0.75,0.273-1.594,0.389-2.578,0.36L1.873,8.256C1.734,8.257,1.685,8.257,1.617,8.18
			C1.579,8.075,1.819,7.98,2.015,7.943c0.556-0.104,0.917-0.285,0.919-0.444L2.929,7.336l0.005-2.751V2.953
			C2.853,2.583,1.668,2.556,1.578,2.35C1.552,2.277,1.603,2.211,1.9,2.21z M4.786,6.534c0,0.004,0,0.968-0.001,1.037
			c0.083,0.287,0.657,0.324,1.041,0.327L8.06,7.896c0.945-0.03,2.033-0.346,2.352-0.817c0.346-0.519,0.181-1.036-0.256-1.426
			C9.547,5.11,8.34,4.771,7.093,4.762C6.418,4.758,4.786,4.767,4.786,5.278C4.786,5.282,4.787,6.529,4.786,6.534z M4.786,4.069
			c0.007,0.004,0,0,0-0.002C4.884,4.304,5.324,4.353,5.613,4.36c1.103-0.012,2.361,0.096,3.021-0.396
			C8.938,3.722,8.94,3.341,8.706,3.085C8.211,2.54,6.973,2.536,5.94,2.582C5.606,2.597,4.786,2.54,4.788,2.803L4.786,4.069z
			 M15.09,2.244c-0.905,0-1.791-0.09-2.245-0.043c-0.104,0.026-0.235,0.052-0.171,0.157c0.339,0.25,1.43,0.133,1.401,0.56
			l-0.044,4.528c-0.014,0.118-0.081,0.229-0.291,0.301c-0.316,0.125-1.015,0.149-1,0.372c0.026,0.047,0.116,0.139,0.393,0.139
			l7.73-0.001c0.442,0.001,0.82-0.007,0.834-0.142l0.001-1.011c-0.016-0.101-0.146-0.135-0.314-0.092
			c-0.612,0.274-0.686,0.884-1.473,0.884l-3.054,0.003l0,0c-0.292-0.003-0.584-0.022-0.754-0.108
			c-0.157-0.066-0.261-0.159-0.261-0.263V5.838l0.002-2.916H15.84c-0.079-0.457,1.036-0.292,1.491-0.57
			c0.021-0.001,0.136-0.141-0.078-0.14C16.876,2.146,15.978,2.244,15.09,2.244z M20.864,2.358c0.261,0.256,0.984,0.186,1.264,0.457
			l0.001,3.456c-0.012,0.767,1.061,1.492,2.516,1.763c1.572,0.384,3.778,0.296,5.263-0.128c1.145-0.326,1.857-0.922,1.953-1.552
			l-0.015-3.57c0.074-0.251,0.861-0.268,1.014-0.398c0.053-0.046,0.04-0.112-0.052-0.145c-0.327-0.066-0.905-0.008-1.273-0.015
			c-0.498-0.001-0.839-0.048-1.299,0.003c-0.079,0.026-0.185,0.079-0.119,0.144c0.274,0.211,0.858,0.169,1.08,0.399l0.009,3.559
			c-0.029,0.375-0.32,0.702-0.886,0.951c-1.224,0.574-3.311,0.611-4.766,0.261c-0.826-0.19-1.623-0.672-1.725-1.16l0.01-3.305
			l-0.003-0.22c-0.003-0.294,1.227-0.198,1.426-0.526c-0.013-0.066-0.083-0.113-0.357-0.105c-0.709,0.032-1.334,0.042-2.097,0.029
			c-0.604-0.01-1.168-0.086-1.746-0.048C20.931,2.22,20.865,2.292,20.864,2.358z M33.765,2.432c0.445,0.152,1.271,0.159,1.23,0.54
			l-0.01,4.508c-0.041,0.269-0.588,0.406-1.021,0.497c-0.132,0.038-0.342,0.078-0.316,0.177c0.143,0.145,0.487,0.103,0.783,0.102
			l7.694,0.001c0.131-0.014,0.322-0.096,0.361-0.175c-0.002-0.014,0.002-0.875,0.002-0.875L42.484,7.2
			c0-0.271-0.359-0.231-0.51-0.056c-0.229,0.26-0.275,0.751-1.146,0.751c0.018,0-2.591-0.002-2.576,0l-0.318-0.001
			c-1.011,0.001-1.106-0.339-1.131-0.529l0.005-2.397v0.001c0.115-0.338,1.35-0.213,1.981-0.238c0.513,0.09,0.562,0.323,0.875,0.461
			c0.067,0.014,0.16,0.014,0.199-0.025c0.105-0.217-0.051-0.439-0.049-0.67c-0.012-0.19,0.145-0.332,0.148-0.544
			c0.045-0.051,0.028-0.166-0.209-0.086c-0.254,0.133-0.369,0.512-0.795,0.512c0.015,0-1.641,0.007-1.637-0.002
			c-0.267,0.002-0.513-0.105-0.516-0.427c0.003,0.009,0.003-1.008,0.001-1.015c0.001-0.23,0.331-0.402,0.792-0.401l2.697-0.001
			c0.598,0,0.811,0.631,1.273,0.648c0.09-0.005,0.182-0.052,0.156-0.097c-0.104-0.289-0.391-0.871-0.766-0.872
			c-0.002,0-6.924,0-6.927,0C33.487,2.228,33.569,2.396,33.765,2.432z"/>
		<path fill="#FFFFFF" stroke="#F58220" stroke-width="0.8833" d="M45.551,2.406c0.484,0.079,1.299,0.158,1.301,0.475l0.002,4.656
			l-0.039,0.115c-0.172,0.228-0.684,0.365-1.117,0.437c-0.094,0.032-0.264,0.052-0.252,0.124c-0.014,0.04,0.078,0.061,0.133,0.073
			c1.402-0.103,2.939-0.087,4.357-0.013c0.078-0.013,0.156-0.053,0.131-0.104c-0.262-0.139-0.695-0.113-0.984-0.238
			c-0.273-0.112-0.404-0.225-0.443-0.395l0.002-2.268l-0.004-0.303c0-0.236,0.541-0.235,0.773-0.234l1.893-0.003
			c0.436,0.001,0.49,0.169,0.648,0.268c0.129,0.059,0.129,0.176,0.34,0.185c0.066-0.02,0.055-0.053,0.08-0.079
			c-0.104-0.368-0.152-0.761-0.02-1.129c0-0.045-0.064-0.125-0.197-0.086c-0.236,0.165-0.48,0.491-0.887,0.491
			c-0.006,0-1.857,0-1.861,0.001c-0.193-0.001-0.77,0.068-0.77-0.331c0,0.001,0-1.254,0-1.254c0-0.131,0.361-0.262,0.77-0.264
			l2.984,0.003c0.484,0.08,0.65,0.372,0.953,0.536l0.17,0.033c0.053-0.006,0.078-0.032,0.105-0.052
			c0.027-0.197-0.143-0.374-0.207-0.559c-0.051-0.092-0.09-0.224-0.314-0.237l-7.467,0C45.459,2.261,45.34,2.359,45.551,2.406z"/>
		<path fill="#FFFFFF" stroke="#F58220" stroke-width="0.8833" d="M57.441,2.446c2.221-0.442,4.896-0.163,6.533,0.713
			c1.516,0.764,2.047,1.894,1.422,2.948c-0.531,0.957-2.387,1.873-4.357,2.074c-2.482,0.283-4.869-0.18-6.344-1.219
			c-1.27-0.861-1.363-2.279-0.242-3.203C55.1,3.176,56.246,2.693,57.441,2.446z M55.775,4.346c-0.586,1.121-0.188,2.337,1.5,3.141
			c0.957,0.454,2.504,0.619,3.701,0.32c1.51-0.352,2.342-1.118,2.662-1.865c0.428-1.195-0.18-2.409-2.145-3.108
			c-0.982-0.343-2.557-0.365-3.57-0.032C56.781,3.153,56.094,3.756,55.775,4.346z"/>
		<path fill="#FFFFFF" stroke="#F58220" stroke-width="0.8833" d="M64.398,2.378c0.852,0.041,1.664,0.286,2.082,0.686l2.826,2.25
			l0,0l-2.857,2.259c-0.447,0.367-1.223,0.457-1.934,0.555c-0.064,0.045-0.014,0.111,0.08,0.118c1.037-0.019,2.125-0.023,3.15,0.018
			l0.143-0.052c-0.025-0.158-0.418-0.191-0.561-0.33c-0.119-0.091-0.17-0.216-0.09-0.32c0,0,2.459-1.937,2.463-1.937h-0.004
			l2.455,1.982c0.287,0.295-0.398,0.387-0.68,0.582c-0.08,0.076-0.031,0.134,0.287,0.08c1.42-0.063,2.797-0.059,4.229-0.012
			l0.156-0.032c0.066-0.033,0.014-0.085-0.053-0.118c-0.693-0.074-1.389-0.238-1.834-0.561l-2.543-2.031L70.76,4.73l0.023-0.001
			l2.352-1.89c0.225-0.177,0.555-0.301,0.922-0.373c0.236-0.064,0.533-0.075,0.775-0.129c0.268-0.077,0.062-0.131-0.029-0.144
			c-1.082,0.051-2.082,0.076-3.146,0.021l-0.104,0.039c-0.016,0.177,0.443,0.172,0.627,0.31c0.145,0.066,0.17,0.171,0.156,0.263
			l-1.914,1.607l0,0l-1.646-1.279c-0.193-0.164-0.416-0.322-0.455-0.513c0.027-0.19,0.539-0.196,0.607-0.359
			c-0.014-0.046-0.105-0.06-0.184-0.06c-1.365,0.044-2.822,0.042-4.213-0.007C64.348,2.202,64.215,2.333,64.398,2.378z"/>
	</g>
	<g>
		<path fill="#005BAA" d="M1.9,2.21l6.106,0c0.971,0.047,1.95,0.32,2.38,0.78c0.221,0.289,0.271,0.683-0.046,0.952
			c-0.33,0.288-0.948,0.431-1.5,0.542v0.02c1.521,0.146,3.026,0.807,3.48,1.555c0.442,0.67,0.07,1.379-1.023,1.836
			c-0.75,0.273-1.594,0.389-2.578,0.36L1.873,8.256C1.734,8.257,1.685,8.257,1.617,8.18C1.579,8.075,1.819,7.98,2.015,7.943
			c0.556-0.104,0.917-0.285,0.919-0.444L2.929,7.336l0.005-2.751V2.953C2.853,2.583,1.668,2.556,1.578,2.35
			C1.552,2.277,1.603,2.211,1.9,2.21z M4.786,6.534c0,0.004,0,0.968-0.001,1.037c0.083,0.287,0.657,0.324,1.041,0.327L8.06,7.896
			c0.945-0.03,2.033-0.346,2.352-0.817c0.346-0.519,0.181-1.036-0.256-1.426C9.547,5.11,8.34,4.771,7.093,4.762
			C6.418,4.758,4.786,4.767,4.786,5.278C4.786,5.282,4.787,6.529,4.786,6.534z M4.786,4.069c0.007,0.004,0,0,0-0.002
			C4.884,4.304,5.324,4.353,5.613,4.36c1.103-0.012,2.361,0.096,3.021-0.396C8.938,3.722,8.94,3.341,8.706,3.085
			C8.211,2.54,6.973,2.536,5.94,2.582C5.606,2.597,4.786,2.54,4.788,2.803L4.786,4.069z M15.09,2.244
			c-0.905,0-1.791-0.09-2.245-0.043c-0.104,0.026-0.235,0.052-0.171,0.157c0.339,0.25,1.43,0.133,1.401,0.56l-0.044,4.528
			c-0.014,0.118-0.081,0.229-0.291,0.301c-0.316,0.125-1.015,0.149-1,0.372c0.026,0.047,0.116,0.139,0.393,0.139l7.73-0.001
			c0.442,0.001,0.82-0.007,0.834-0.142l0.001-1.011c-0.016-0.101-0.146-0.135-0.314-0.092c-0.612,0.274-0.686,0.884-1.473,0.884
			l-3.054,0.003l0,0c-0.292-0.003-0.584-0.022-0.754-0.108c-0.157-0.066-0.261-0.159-0.261-0.263V5.838l0.002-2.916H15.84
			c-0.079-0.457,1.036-0.292,1.491-0.57c0.021-0.001,0.136-0.141-0.078-0.14C16.876,2.146,15.978,2.244,15.09,2.244z M20.864,2.358
			c0.261,0.256,0.984,0.186,1.264,0.457l0.001,3.456c-0.012,0.767,1.061,1.492,2.516,1.763c1.572,0.384,3.778,0.296,5.263-0.128
			c1.145-0.326,1.857-0.922,1.953-1.552l-0.015-3.57c0.074-0.251,0.861-0.268,1.014-0.398c0.053-0.046,0.04-0.112-0.052-0.145
			c-0.327-0.066-0.905-0.008-1.273-0.015c-0.498-0.001-0.839-0.048-1.299,0.003c-0.079,0.026-0.185,0.079-0.119,0.144
			c0.274,0.211,0.858,0.169,1.08,0.399l0.009,3.559c-0.029,0.375-0.32,0.702-0.886,0.951c-1.224,0.574-3.311,0.611-4.766,0.261
			c-0.826-0.19-1.623-0.672-1.725-1.16l0.01-3.305l-0.003-0.22c-0.003-0.294,1.227-0.198,1.426-0.526
			c-0.013-0.066-0.083-0.113-0.357-0.105c-0.709,0.032-1.334,0.042-2.097,0.029c-0.604-0.01-1.168-0.086-1.746-0.048
			C20.931,2.22,20.865,2.292,20.864,2.358z M33.765,2.432c0.445,0.152,1.271,0.159,1.23,0.54l-0.01,4.508
			c-0.041,0.269-0.588,0.406-1.021,0.497c-0.132,0.038-0.342,0.078-0.316,0.177c0.143,0.145,0.487,0.103,0.783,0.102l7.694,0.001
			c0.131-0.014,0.322-0.096,0.361-0.175c-0.002-0.014,0.002-0.875,0.002-0.875L42.484,7.2c0-0.271-0.359-0.231-0.51-0.056
			c-0.229,0.26-0.275,0.751-1.146,0.751c0.018,0-2.591-0.002-2.576,0l-0.318-0.001c-1.011,0.001-1.106-0.339-1.131-0.529
			l0.005-2.397v0.001c0.115-0.338,1.35-0.213,1.981-0.238c0.513,0.09,0.562,0.323,0.875,0.461c0.067,0.014,0.16,0.014,0.199-0.025
			c0.105-0.217-0.051-0.439-0.049-0.67c-0.012-0.19,0.145-0.332,0.148-0.544c0.045-0.051,0.028-0.166-0.209-0.086
			c-0.254,0.133-0.369,0.512-0.795,0.512c0.015,0-1.641,0.007-1.637-0.002c-0.267,0.002-0.513-0.105-0.516-0.427
			c0.003,0.009,0.003-1.008,0.001-1.015c0.001-0.23,0.331-0.402,0.792-0.401l2.697-0.001c0.598,0,0.811,0.631,1.273,0.648
			c0.09-0.005,0.182-0.052,0.156-0.097c-0.104-0.289-0.391-0.871-0.766-0.872c-0.002,0-6.924,0-6.927,0
			C33.487,2.228,33.569,2.396,33.765,2.432z"/>
		<path fill="#005BAA" d="M45.551,2.406c0.484,0.079,1.299,0.158,1.301,0.475l0.002,4.656l-0.039,0.115
			c-0.172,0.228-0.684,0.365-1.117,0.437c-0.094,0.032-0.264,0.052-0.252,0.124c-0.014,0.04,0.078,0.061,0.133,0.073
			c1.402-0.103,2.939-0.087,4.357-0.013c0.078-0.013,0.156-0.053,0.131-0.104c-0.262-0.139-0.695-0.113-0.984-0.238
			c-0.273-0.112-0.404-0.225-0.443-0.395l0.002-2.268l-0.004-0.303c0-0.236,0.541-0.235,0.773-0.234l1.893-0.003
			c0.436,0.001,0.49,0.169,0.648,0.268c0.129,0.059,0.129,0.176,0.34,0.185c0.066-0.02,0.055-0.053,0.08-0.079
			c-0.104-0.368-0.152-0.761-0.02-1.129c0-0.045-0.064-0.125-0.197-0.086c-0.236,0.165-0.48,0.491-0.887,0.491
			c-0.006,0-1.857,0-1.861,0.001c-0.193-0.001-0.77,0.068-0.77-0.331c0,0.001,0-1.254,0-1.254c0-0.131,0.361-0.262,0.77-0.264
			l2.984,0.003c0.484,0.08,0.65,0.372,0.953,0.536l0.17,0.033c0.053-0.006,0.078-0.032,0.105-0.052
			c0.027-0.197-0.143-0.374-0.207-0.559c-0.051-0.092-0.09-0.224-0.314-0.237l-7.467,0C45.459,2.261,45.34,2.359,45.551,2.406z"/>
		<path fill="#005BAA" d="M57.441,2.446c2.221-0.442,4.896-0.163,6.533,0.713c1.516,0.764,2.047,1.894,1.422,2.948
			c-0.531,0.957-2.387,1.873-4.357,2.074c-2.482,0.283-4.869-0.18-6.344-1.219c-1.27-0.861-1.363-2.279-0.242-3.203
			C55.1,3.176,56.246,2.693,57.441,2.446z M55.775,4.346c-0.586,1.121-0.188,2.337,1.5,3.141c0.957,0.454,2.504,0.619,3.701,0.32
			c1.51-0.352,2.342-1.118,2.662-1.865c0.428-1.195-0.18-2.409-2.145-3.108c-0.982-0.343-2.557-0.365-3.57-0.032
			C56.781,3.153,56.094,3.756,55.775,4.346z"/>
		<path fill="#005BAA" d="M64.398,2.378c0.852,0.041,1.664,0.286,2.082,0.686l2.826,2.25l0,0l-2.857,2.259
			c-0.447,0.367-1.223,0.457-1.934,0.555c-0.064,0.045-0.014,0.111,0.08,0.118c1.037-0.019,2.125-0.023,3.15,0.018l0.143-0.052
			c-0.025-0.158-0.418-0.191-0.561-0.33c-0.119-0.091-0.17-0.216-0.09-0.32c0,0,2.459-1.937,2.463-1.937h-0.004l2.455,1.982
			c0.287,0.295-0.398,0.387-0.68,0.582c-0.08,0.076-0.031,0.134,0.287,0.08c1.42-0.063,2.797-0.059,4.229-0.012l0.156-0.032
			c0.066-0.033,0.014-0.085-0.053-0.118c-0.693-0.074-1.389-0.238-1.834-0.561l-2.543-2.031L70.76,4.73l0.023-0.001l2.352-1.89
			c0.225-0.177,0.555-0.301,0.922-0.373c0.236-0.064,0.533-0.075,0.775-0.129c0.268-0.077,0.062-0.131-0.029-0.144
			c-1.082,0.051-2.082,0.076-3.146,0.021l-0.104,0.039c-0.016,0.177,0.443,0.172,0.627,0.31c0.145,0.066,0.17,0.171,0.156,0.263
			l-1.914,1.607l0,0l-1.646-1.279c-0.193-0.164-0.416-0.322-0.455-0.513c0.027-0.19,0.539-0.196,0.607-0.359
			c-0.014-0.046-0.105-0.06-0.184-0.06c-1.365,0.044-2.822,0.042-4.213-0.007C64.348,2.202,64.215,2.333,64.398,2.378z"/>
	</g>
</g>
</svg>
