<?xml version="1.0" encoding="utf-8"?>
<!-- Generator: Adobe Illustrator 16.0.5, SVG Export Plug-In . SVG Version: 6.00 Build 0)  -->
<!DOCTYPE svg PUBLIC "-//W3C//DTD SVG 1.1//EN" "http://www.w3.org/Graphics/SVG/1.1/DTD/svg11.dtd">
<svg version="1.1" id="Layer_1" xmlns="http://www.w3.org/2000/svg" xmlns:xlink="http://www.w3.org/1999/xlink" x="0px" y="0px"
	 width="78px" height="20px" viewBox="0 0 78 20" enable-background="new 0 0 78 20" xml:space="preserve">
<g>
	<g>
		<path d="M6.123,8.952c0.606,0.139,1.364,0.379,1.856,0.77c0.568,0.467,0.91,1.149,0.91,1.881c0,0.959-0.468,1.843-1.238,2.412
			c-0.821,0.619-1.793,0.858-2.815,0.858c-0.821,0-1.667-0.139-2.412-0.479c-0.631-0.303-1.502-0.985-1.502-1.743
			c0-0.354,0.253-0.694,0.619-0.694c0.341,0,0.531,0.202,0.708,0.467c0.265,0.404,0.441,0.719,0.858,0.998
			c0.468,0.303,1.061,0.454,1.617,0.454c0.871,0,1.944-0.454,1.944-1.464c0-0.442-0.228-0.795-0.631-0.985
			c-0.404-0.201-1.162-0.366-1.616-0.454c-0.644-0.114-1.502-0.341-2.045-0.707c-0.682-0.467-1.111-1.187-1.111-2.02
			c0-0.896,0.492-1.755,1.212-2.286s1.654-0.707,2.538-0.707c0.935,0,1.958,0.227,2.791,0.656c0.151,0.088,0.29,0.189,0.34,0.366
			c0.088,0.303,0.088,0.821,0.088,1.137c0,0.303-0.152,0.517-0.467,0.517c-0.682,0-0.582-1.792-2.651-1.792
			c-0.72,0-1.579,0.404-1.579,1.224c0,0.909,0.871,1.162,1.591,1.339L6.123,8.952z"/>
		<path d="M11.779,12.828c0,0.568,0.063,0.884,0.72,0.884c0.379,0,0.859-0.05,0.859,0.493c0,0.455-0.518,0.48-0.846,0.48h-1.73
			c-0.795,0-1.061-0.114-1.061-0.973V9.608H9.469c-0.366,0-0.758,0-0.758-0.493c0-0.328,0.227-0.403,0.505-0.454
			c0.34-0.05,0.644-0.088,0.846-0.392c0.165-0.265,0.303-0.833,0.354-1.148c0.087-0.468,0.189-0.632,0.694-0.632
			c0.581,0,0.631,0.076,0.631,0.606v1.515h0.745c0.379,0,0.783,0.013,0.783,0.504c0,0.442-0.404,0.493-0.757,0.493h-0.733V12.828z"
			/>
		<path d="M16.463,12.979c0,0.177,0,0.531,0.063,0.695c0.05,0.114,0.177,0.177,0.277,0.227c0.165,0.088,0.303,0.177,0.303,0.378
			c0,0.405-0.379,0.405-0.682,0.405h-1.982c-0.303,0-0.682,0-0.682-0.405c0-0.202,0.139-0.29,0.303-0.378
			c0.101-0.05,0.227-0.113,0.278-0.227c0.063-0.164,0.063-0.518,0.063-0.695v-2.31c0,0.176,0-0.089-0.076-0.341
			c-0.076-0.278-0.189-0.341-0.455-0.467c-0.189-0.088-0.341-0.189-0.341-0.416c0-0.316,0.379-0.467,0.619-0.568
			c0.265-0.102,1.047-0.366,1.325-0.366c0.568,0,0.657,0.896,0.72,1.313c0.303-0.619,0.922-1.313,1.654-1.313
			c0.543,0,0.947,0.391,0.947,0.935c0,0.391-0.227,0.871-0.669,0.871c-0.329,0-0.581-0.164-0.846-0.164s-0.467,0.24-0.581,0.467
			c-0.215,0.392-0.24,0.922-0.24,1.364V12.979z"/>
		<path d="M19.683,11.111c0-0.277,0-0.669-0.038-0.947c-0.051-0.265-0.151-0.328-0.366-0.455c-0.151-0.088-0.316-0.151-0.316-0.353
			c0-0.341,0.531-0.417,0.771-0.48c0.379-0.126,1.098-0.366,1.49-0.366c0.593,0,0.518,0.859,0.518,1.237v3.333
			c0,0.165-0.013,0.505,0.05,0.669c0.051,0.088,0.152,0.151,0.24,0.214c0.126,0.076,0.227,0.164,0.227,0.329
			c0,0.29-0.227,0.392-0.479,0.392h-2.134c-0.252,0-0.479-0.102-0.479-0.392c0-0.165,0.1-0.252,0.227-0.329
			c0.088-0.063,0.189-0.126,0.239-0.214c0.063-0.165,0.051-0.505,0.051-0.669V11.111z M19.305,6.844
			c0-0.669,0.619-1.061,1.224-1.061c0.619,0,1.238,0.329,1.238,1.01c0,0.657-0.694,0.998-1.263,0.998
			C19.948,7.791,19.305,7.462,19.305,6.844z"/>
		<path d="M27.423,10.732l-0.164,0.14c0.821,0.732,1.452,1.653,1.982,2.601c0.101,0.202,0.164,0.29,0.353,0.404
			c0.177,0.101,0.291,0.177,0.291,0.392c0,0.329-0.315,0.417-0.581,0.417h-2.083c-0.278,0-0.631-0.038-0.631-0.405
			c0-0.29,0.378-0.29,0.378-0.53c0-0.392-0.935-1.616-1.288-1.894l-0.467,0.266v0.959c0,0.165-0.013,0.505,0.05,0.669
			c0.051,0.088,0.152,0.151,0.24,0.214c0.126,0.076,0.228,0.164,0.228,0.329c0,0.29-0.228,0.392-0.48,0.392h-2.133
			c-0.252,0-0.479-0.102-0.479-0.392c0-0.165,0.101-0.252,0.227-0.329c0.088-0.063,0.189-0.126,0.239-0.214
			c0.063-0.165,0.051-0.505,0.051-0.669V7.728c0-0.278,0-0.669-0.038-0.947c-0.051-0.265-0.152-0.328-0.367-0.454
			c-0.151-0.089-0.315-0.152-0.315-0.354c0-0.341,0.53-0.417,0.77-0.479c0.379-0.126,1.099-0.366,1.489-0.366
			c0.594,0,0.518,0.858,0.518,1.237v4.874c0.479-0.177,1.932-1.25,1.932-1.692c0-0.114-0.076-0.164-0.165-0.214
			C26.83,9.255,26.69,9.167,26.69,8.978c0-0.203,0.139-0.278,0.329-0.316c0.278-0.05,0.997-0.05,1.288-0.05
			c0.277,0,0.997-0.076,0.997,0.366c0,0.265-0.252,0.366-0.455,0.492c-0.253,0.139-0.542,0.443-0.745,0.644L27.423,10.732z"/>
		<path d="M33.622,13.864c0.682,0,1.2-0.303,1.705-0.758c0.176-0.152,0.265-0.278,0.518-0.278c0.177,0,0.366,0.151,0.366,0.341
			c0,0.455-0.681,0.984-1.022,1.175c-0.657,0.391-1.313,0.53-2.096,0.53c-1.717,0-3.396-1.124-3.396-2.98
			c0-2.121,1.831-3.383,3.801-3.383c1.123,0,2.588,0.518,2.588,1.843c0,0.934-0.959,1.465-1.73,1.717
			c-0.757,0.24-1.578,0.315-2.361,0.442C32.17,13.308,32.802,13.864,33.622,13.864z M34.115,10.215c0-0.48-0.252-0.821-0.757-0.821
			c-1.061,0-1.54,1.389-1.478,2.272C32.713,11.604,34.115,11.263,34.115,10.215z"/>
		<path d="M43.799,6.099c0.215-0.518,0.266-0.657,0.834-0.657h2.348c0.24,0,0.43,0.165,0.43,0.455c0,0.316-0.252,0.392-0.492,0.467
			c-0.342,0.101-0.365,0.29-0.365,0.619v6.098c0,0.265-0.053,0.556,0.227,0.694l0.139,0.076c0.164,0.101,0.303,0.177,0.303,0.404
			c0,0.341-0.342,0.43-0.617,0.43h-2.4c-0.277,0-0.619-0.088-0.619-0.43c0-0.227,0.139-0.303,0.303-0.404l0.139-0.076
			c0.279-0.138,0.229-0.429,0.229-0.694V7.601l-2.045,5.075c-0.227,0.53-0.279,0.796-0.922,0.796c-0.557,0-0.721-0.038-0.947-0.531
			L38.117,7.74v5.366c0.014,0.152,0.039,0.303,0.076,0.417c0.088,0.228,0.277,0.277,0.479,0.354
			c0.215,0.088,0.316,0.177,0.316,0.417c0,0.43-0.568,0.392-0.857,0.392h-1.099c-0.291,0-0.859,0.038-0.859-0.392
			c0-0.24,0.102-0.329,0.316-0.417c0.202-0.076,0.391-0.126,0.479-0.354c0.038-0.113,0.063-0.265,0.076-0.417v-6.06
			c0-0.051,0-0.165-0.038-0.266c-0.051-0.215-0.189-0.379-0.493-0.467c-0.239-0.076-0.479-0.139-0.479-0.442
			c0-0.417,0.391-0.429,0.72-0.429h2.462c0.605,0,0.668,0.391,0.857,0.896l1.768,4.533L43.799,6.099z"/>
		<path d="M53.496,12.954c0,0.177-0.012,0.53,0.064,0.694c0.062,0.126,0.164,0.189,0.277,0.24c0.176,0.088,0.316,0.177,0.316,0.391
			c0,0.405-0.381,0.405-0.684,0.405h-1.262c-0.645,0-0.645-0.215-0.682-0.783c-0.43,0.707-1.188,0.972-1.957,0.972
			c-1.188,0-2.273-0.657-2.273-1.957c0-1.793,2.273-2.235,3.662-2.235h0.43c0-0.757-0.365-1.325-1.176-1.325
			c-0.77,0-0.883,0.808-1.678,0.808c-0.367,0-0.783-0.164-0.783-0.606c0-0.884,1.994-1.048,2.613-1.048
			c0.707,0,1.49,0.114,2.109,0.467c0.783,0.454,1.021,1.098,1.021,1.982V12.954z M51.223,11.477c-0.896,0-1.805,0.442-1.805,1.452
			c0,0.48,0.277,0.909,0.795,0.909c0.418,0,0.746-0.265,0.973-0.606c0.279-0.442,0.266-0.846,0.266-1.351v-0.404H51.223z"/>
		<path d="M57.992,10.909c0.959,0.252,1.844,0.606,1.844,1.78c0,0.707-0.418,1.313-1.012,1.692
			c-0.568,0.341-1.287,0.492-1.955,0.492c-0.596,0-1.137-0.088-1.668-0.328c-0.43-0.189-0.996-0.568-0.996-1.086
			c0-0.303,0.227-0.581,0.529-0.581c0.291,0,0.402,0.165,0.58,0.367c0.404,0.442,0.67,0.732,1.301,0.732
			c0.43,0,1.074-0.202,1.074-0.745c0-1.287-3.283-0.303-3.283-2.576c0-1.565,1.578-2.146,2.891-2.146
			c0.58,0,1.504,0.151,1.994,0.479c0.266,0.164,0.266,0.568,0.266,0.846c0,0.277-0.012,0.619-0.379,0.619
			c-0.568,0-0.516-1.085-1.742-1.085c-0.43,0-0.959,0.202-0.959,0.707c0,0.455,0.568,0.594,0.922,0.682L57.992,10.909z"/>
		<path d="M62.789,12.828c0,0.568,0.064,0.884,0.721,0.884c0.379,0,0.857-0.05,0.857,0.493c0,0.455-0.518,0.48-0.846,0.48h-1.729
			c-0.797,0-1.061-0.114-1.061-0.973V9.608h-0.254c-0.365,0-0.758,0-0.758-0.493c0-0.328,0.229-0.403,0.506-0.454
			c0.34-0.05,0.643-0.088,0.846-0.392c0.164-0.265,0.303-0.833,0.354-1.148c0.088-0.468,0.189-0.632,0.693-0.632
			c0.582,0,0.633,0.076,0.633,0.606v1.515h0.744c0.379,0,0.783,0.013,0.783,0.504c0,0.442-0.404,0.493-0.758,0.493h-0.732V12.828z"
			/>
		<path d="M68.094,13.864c0.682,0,1.199-0.303,1.703-0.758c0.178-0.152,0.266-0.278,0.518-0.278c0.178,0,0.367,0.151,0.367,0.341
			c0,0.455-0.684,0.984-1.023,1.175c-0.656,0.391-1.312,0.53-2.096,0.53c-1.717,0-3.396-1.124-3.396-2.98
			c0-2.121,1.832-3.383,3.801-3.383c1.123,0,2.588,0.518,2.588,1.843c0,0.934-0.959,1.465-1.73,1.717
			c-0.756,0.24-1.578,0.315-2.361,0.442C66.641,13.308,67.271,13.864,68.094,13.864z M68.586,10.215c0-0.48-0.254-0.821-0.758-0.821
			c-1.061,0-1.541,1.389-1.479,2.272C67.184,11.604,68.586,11.263,68.586,10.215z"/>
		<path d="M73.787,12.979c0,0.177,0,0.531,0.062,0.695c0.051,0.114,0.178,0.177,0.279,0.227c0.164,0.088,0.303,0.177,0.303,0.378
			c0,0.405-0.379,0.405-0.684,0.405h-1.98c-0.303,0-0.682,0-0.682-0.405c0-0.202,0.139-0.29,0.303-0.378
			c0.1-0.05,0.227-0.113,0.277-0.227c0.062-0.164,0.062-0.518,0.062-0.695v-2.31c0,0.176,0-0.089-0.074-0.341
			c-0.076-0.278-0.189-0.341-0.455-0.467c-0.189-0.088-0.342-0.189-0.342-0.416c0-0.316,0.379-0.467,0.619-0.568
			c0.266-0.102,1.049-0.366,1.326-0.366c0.568,0,0.656,0.896,0.719,1.313c0.303-0.619,0.922-1.313,1.654-1.313
			c0.543,0,0.947,0.391,0.947,0.935c0,0.391-0.227,0.871-0.67,0.871c-0.326,0-0.58-0.164-0.846-0.164s-0.467,0.24-0.58,0.467
			c-0.215,0.392-0.24,0.922-0.24,1.364V12.979z"/>
	</g>
	<g>
		<path d="M76.049,12.671c0.561,0,1.031,0.442,1.031,1.021c0,0.59-0.471,1.032-1.031,1.032s-1.033-0.442-1.033-1.032
			C75.016,13.113,75.488,12.671,76.049,12.671z M76.049,14.574c0.475,0,0.844-0.379,0.844-0.882c0-0.491-0.369-0.871-0.844-0.871
			c-0.48,0-0.846,0.379-0.846,0.871C75.203,14.195,75.568,14.574,76.049,14.574z M75.65,13.097h0.463c0.285,0,0.42,0.112,0.42,0.343
			c0,0.217-0.137,0.308-0.316,0.327l0.344,0.529h-0.201l-0.326-0.516h-0.197v0.516H75.65V13.097z M75.836,13.629h0.195
			c0.164,0,0.316-0.007,0.316-0.197c0-0.159-0.139-0.184-0.266-0.184h-0.246V13.629z"/>
	</g>
</g>
</svg>
