<?xml version="1.0" encoding="utf-8"?>
<!-- Generator: Adobe Illustrator 16.0.4, SVG Export Plug-In . SVG Version: 6.00 Build 0)  -->
<!DOCTYPE svg PUBLIC "-//W3C//DTD SVG 1.1//EN" "http://www.w3.org/Graphics/SVG/1.1/DTD/svg11.dtd">
<svg version="1.1" id="Layer_1" xmlns="http://www.w3.org/2000/svg" xmlns:xlink="http://www.w3.org/1999/xlink" x="0px" y="0px"
	 width="7.74px" height="15.745px" viewBox="0 0 7.74 15.745" enable-background="new 0 0 7.74 15.745" xml:space="preserve">
<g>
	<circle fill="#FFFFFF" cx="3.87" cy="3.87" r="2.87"/>
	<path fill="#C6C6C6" d="M3.87,1.5c1.307,0,2.37,1.063,2.37,2.37c0,1.307-1.064,2.37-2.37,2.37c-1.306,0-2.37-1.063-2.37-2.37
		C1.5,2.563,2.563,1.5,3.87,1.5 M3.87,0.5C2.008,0.5,0.5,2.01,0.5,3.87c0,1.861,1.508,3.37,3.37,3.37c1.861,0,3.37-1.509,3.37-3.37
		C7.24,2.01,5.731,0.5,3.87,0.5L3.87,0.5z"/>
</g>
<g>
	<circle fill="#FFFFFF" cx="3.87" cy="11.495" r="2.87"/>
	<path fill="#999999" d="M3.87,9.125c1.307,0,2.37,1.063,2.37,2.37s-1.064,2.37-2.37,2.37c-1.306,0-2.37-1.063-2.37-2.37
		S2.563,9.125,3.87,9.125 M3.87,8.125c-1.862,0-3.37,1.51-3.37,3.37c0,1.861,1.508,3.37,3.37,3.37c1.861,0,3.37-1.509,3.37-3.37
		C7.24,9.635,5.731,8.125,3.87,8.125L3.87,8.125z"/>
</g>
</svg>
