<?xml version="1.0" encoding="utf-8"?>
<!-- Generator: Adobe Illustrator 16.0.3, SVG Export Plug-In . SVG Version: 6.00 Build 0)  -->
<!DOCTYPE svg PUBLIC "-//W3C//DTD SVG 1.1//EN" "http://www.w3.org/Graphics/SVG/1.1/DTD/svg11.dtd">
<svg version="1.1" id="svg14712" xmlns:svg="http://www.w3.org/2000/svg"
	 xmlns="http://www.w3.org/2000/svg" xmlns:xlink="http://www.w3.org/1999/xlink" x="0px" y="0px" width="151px" height="31px"
	 viewBox="258 120 151 31" enable-background="new 258 120 151 31" xml:space="preserve">
<path fill="#FFC43A" d="M409,148c0,1.657-1.343,3-3,3H261c-1.657,0-3-1.343-3-3v-25c0-1.657,1.343-3,3-3h145c1.657,0,3,1.343,3,3
	V148z"/>
<g>
	<g>
		<path id="path14519_1_" fill="#FFFFFF" d="M370.516,133.821h-1.942c-0.186,0-0.36,0.092-0.464,0.247l-2.679,3.944l-1.135-3.791
			c-0.071-0.237-0.29-0.4-0.537-0.4h-1.909c-0.23,0-0.393,0.227-0.318,0.445l2.139,6.277l-2.012,2.838
			c-0.158,0.223,0.002,0.531,0.275,0.531h1.94c0.184,0,0.356-0.091,0.461-0.241l6.458-9.322
			C370.946,134.125,370.787,133.821,370.516,133.821 M357.532,137.582c-0.187,1.104-1.063,1.846-2.181,1.846
			c-0.56,0-1.009-0.182-1.297-0.522c-0.286-0.339-0.394-0.82-0.303-1.357c0.174-1.094,1.064-1.859,2.166-1.859
			c0.549,0,0.994,0.183,1.288,0.526C357.5,136.562,357.617,137.047,357.532,137.582 M360.225,133.821h-1.932
			c-0.165,0-0.307,0.12-0.333,0.284l-0.084,0.54l-0.135-0.195c-0.419-0.607-1.352-0.811-2.283-0.811
			c-2.135,0-3.958,1.618-4.313,3.887c-0.185,1.132,0.078,2.214,0.72,2.969c0.589,0.693,1.431,0.982,2.433,0.982
			c1.721,0,2.675-1.105,2.675-1.105l-0.086,0.537c-0.032,0.204,0.125,0.389,0.333,0.389h1.739c0.277,0,0.511-0.201,0.554-0.473
			l1.045-6.614C360.589,134.005,360.431,133.821,360.225,133.821 M348.63,133.867c-0.221,1.448-1.327,1.448-2.397,1.448h-0.609
			l0.427-2.704c0.026-0.164,0.167-0.284,0.332-0.284h0.279c0.729,0,1.416,0,1.771,0.415
			C348.646,132.99,348.71,133.359,348.63,133.867 M348.164,130.088h-4.035c-0.276,0-0.511,0.201-0.554,0.473l-1.631,10.347
			c-0.032,0.204,0.125,0.389,0.332,0.389h1.927c0.276,0,0.51-0.201,0.554-0.473l0.441-2.792c0.042-0.273,0.277-0.474,0.553-0.474
			h1.277c2.658,0,4.192-1.286,4.593-3.835c0.18-1.114,0.007-1.991-0.515-2.604C350.531,130.445,349.514,130.088,348.164,130.088"/>
		<path id="path14523_1_" fill="#FFFFFF" d="M391.282,130.373l-1.656,10.536c-0.032,0.204,0.125,0.389,0.332,0.389h1.667
			c0.275,0,0.51-0.201,0.553-0.473l1.633-10.348c0.032-0.204-0.126-0.388-0.333-0.388h-1.863
			C391.449,130.088,391.308,130.208,391.282,130.373 M386.312,137.582c-0.187,1.104-1.062,1.846-2.181,1.846
			c-0.56,0-1.009-0.182-1.297-0.522c-0.287-0.339-0.393-0.82-0.303-1.357c0.174-1.094,1.065-1.859,2.166-1.859
			c0.549,0,0.994,0.183,1.288,0.526C386.281,136.562,386.397,137.047,386.312,137.582 M389.005,133.821h-1.933
			c-0.165,0-0.306,0.12-0.332,0.284l-0.085,0.54l-0.135-0.195c-0.418-0.607-1.351-0.811-2.282-0.811
			c-2.135,0-3.958,1.618-4.313,3.887c-0.185,1.132,0.078,2.214,0.72,2.969c0.589,0.693,1.431,0.982,2.433,0.982
			c1.721,0,2.676-1.105,2.676-1.105l-0.087,0.537c-0.032,0.204,0.125,0.389,0.333,0.389h1.74c0.276,0,0.511-0.201,0.554-0.473
			l1.044-6.614C389.37,134.005,389.211,133.821,389.005,133.821 M377.41,133.867c-0.22,1.448-1.326,1.448-2.396,1.448h-0.609
			l0.427-2.704c0.026-0.164,0.167-0.284,0.333-0.284h0.279c0.729,0,1.416,0,1.771,0.415
			C377.426,132.99,377.49,133.359,377.41,133.867 M376.944,130.088h-4.036c-0.276,0-0.51,0.201-0.553,0.473l-1.632,10.347
			c-0.032,0.204,0.126,0.389,0.332,0.389h2.07c0.193,0,0.358-0.141,0.388-0.33l0.462-2.935c0.042-0.273,0.278-0.474,0.554-0.474
			h1.276c2.658,0,4.193-1.286,4.593-3.835c0.181-1.114,0.007-1.991-0.515-2.604C379.312,130.445,378.294,130.088,376.944,130.088"/>
	</g>
	<g>
		<path id="path14519" fill="#002F86" d="M370.516,132.821h-1.942c-0.186,0-0.36,0.092-0.464,0.247l-2.679,3.944l-1.135-3.791
			c-0.071-0.237-0.29-0.4-0.537-0.4h-1.909c-0.23,0-0.393,0.227-0.318,0.445l2.139,6.277l-2.012,2.838
			c-0.158,0.223,0.002,0.531,0.275,0.531h1.94c0.184,0,0.356-0.091,0.461-0.241l6.458-9.322
			C370.946,133.125,370.787,132.821,370.516,132.821 M357.532,136.582c-0.187,1.104-1.063,1.846-2.181,1.846
			c-0.56,0-1.009-0.182-1.297-0.522c-0.286-0.339-0.394-0.82-0.303-1.357c0.174-1.094,1.064-1.859,2.166-1.859
			c0.549,0,0.994,0.183,1.288,0.526C357.5,135.562,357.617,136.047,357.532,136.582 M360.225,132.821h-1.932
			c-0.165,0-0.307,0.12-0.333,0.284l-0.084,0.54l-0.135-0.195c-0.419-0.607-1.352-0.811-2.283-0.811
			c-2.135,0-3.958,1.618-4.313,3.887c-0.185,1.132,0.078,2.214,0.72,2.969c0.589,0.693,1.431,0.982,2.433,0.982
			c1.721,0,2.675-1.105,2.675-1.105l-0.086,0.537c-0.032,0.204,0.125,0.389,0.333,0.389h1.739c0.277,0,0.511-0.201,0.554-0.473
			l1.045-6.614C360.589,133.005,360.431,132.821,360.225,132.821 M348.63,132.867c-0.221,1.448-1.327,1.448-2.397,1.448h-0.609
			l0.427-2.704c0.026-0.164,0.167-0.284,0.332-0.284h0.279c0.729,0,1.416,0,1.771,0.415
			C348.646,131.99,348.71,132.359,348.63,132.867 M348.164,129.088h-4.035c-0.276,0-0.511,0.201-0.554,0.473l-1.631,10.347
			c-0.032,0.204,0.125,0.389,0.332,0.389h1.927c0.276,0,0.51-0.201,0.554-0.473l0.441-2.792c0.042-0.273,0.277-0.474,0.553-0.474
			h1.277c2.658,0,4.192-1.286,4.593-3.835c0.18-1.114,0.007-1.991-0.515-2.604C350.531,129.445,349.514,129.088,348.164,129.088"/>
		<path id="path14523" fill="#009CDE" d="M391.282,129.373l-1.656,10.536c-0.032,0.204,0.125,0.389,0.332,0.389h1.667
			c0.275,0,0.51-0.201,0.553-0.473l1.633-10.348c0.032-0.204-0.126-0.388-0.333-0.388h-1.863
			C391.449,129.088,391.308,129.208,391.282,129.373 M386.312,136.582c-0.187,1.104-1.062,1.846-2.181,1.846
			c-0.56,0-1.009-0.182-1.297-0.522c-0.287-0.339-0.393-0.82-0.303-1.357c0.174-1.094,1.065-1.859,2.166-1.859
			c0.549,0,0.994,0.183,1.288,0.526C386.281,135.562,386.397,136.047,386.312,136.582 M389.005,132.821h-1.933
			c-0.165,0-0.306,0.12-0.332,0.284l-0.085,0.54l-0.135-0.195c-0.418-0.607-1.351-0.811-2.282-0.811
			c-2.135,0-3.958,1.618-4.313,3.887c-0.185,1.132,0.078,2.214,0.72,2.969c0.589,0.693,1.431,0.982,2.433,0.982
			c1.721,0,2.676-1.105,2.676-1.105l-0.087,0.537c-0.032,0.204,0.125,0.389,0.333,0.389h1.74c0.276,0,0.511-0.201,0.554-0.473
			l1.044-6.614C389.37,133.005,389.211,132.821,389.005,132.821 M377.41,132.867c-0.22,1.448-1.326,1.448-2.396,1.448h-0.609
			l0.427-2.704c0.026-0.164,0.167-0.284,0.333-0.284h0.279c0.729,0,1.416,0,1.771,0.415
			C377.426,131.99,377.49,132.359,377.41,132.867 M376.944,129.088h-4.036c-0.276,0-0.51,0.201-0.553,0.473l-1.632,10.347
			c-0.032,0.204,0.126,0.389,0.332,0.389h2.07c0.193,0,0.358-0.141,0.388-0.33l0.462-2.935c0.042-0.273,0.278-0.474,0.554-0.474
			h1.276c2.658,0,4.193-1.286,4.593-3.835c0.181-1.114,0.007-1.991-0.515-2.604C379.312,129.445,378.294,129.088,376.944,129.088"/>
	</g>
</g>
<g>
	<path d="M271.266,140.153c-1.112,0-1.97-0.362-2.576-1.087c-0.606-0.727-0.909-1.752-0.909-3.081c0-1.325,0.308-2.353,0.925-3.083
		s1.487-1.096,2.608-1.096c0.642,0,1.393,0.116,2.253,0.349v1.058c-0.98-0.376-1.735-0.564-2.267-0.564
		c-0.777,0-1.378,0.292-1.803,0.875s-0.638,1.407-0.638,2.471c0,1.014,0.228,1.812,0.682,2.398c0.455,0.586,1.075,0.878,1.861,0.878
		c0.677,0,1.402-0.231,2.175-0.692v0.967C272.871,139.951,272.101,140.153,271.266,140.153z"/>
	<path d="M275.08,139.955v-8.481h0.953v3.744c0.502-0.816,1.118-1.225,1.846-1.225c0.455,0,0.817,0.16,1.088,0.48
		c0.271,0.321,0.406,0.751,0.406,1.292v4.19h-0.953v-3.846c0-0.434-0.057-0.743-0.171-0.927c-0.115-0.184-0.304-0.276-0.568-0.276
		c-0.583,0-1.133,0.424-1.648,1.273v3.776H275.08z"/>
	<path d="M285.072,139.767c-0.638,0.215-1.185,0.322-1.639,0.322c-0.773,0-1.404-0.286-1.893-0.856
		c-0.488-0.571-0.732-1.312-0.732-2.221c0-0.885,0.215-1.61,0.646-2.176c0.43-0.566,0.98-0.849,1.65-0.849
		c0.635,0,1.125,0.25,1.472,0.752c0.346,0.501,0.52,1.214,0.52,2.138l-0.005,0.328h-3.311c0.138,1.385,0.749,2.078,1.832,2.078
		c0.396,0,0.883-0.118,1.46-0.354V139.767z M281.824,136.41h2.315c0-1.085-0.364-1.628-1.092-1.628
		C282.315,134.782,281.907,135.325,281.824,136.41z"/>
	<path d="M288.79,140.089c-0.709,0-1.297-0.292-1.765-0.876c-0.467-0.583-0.701-1.318-0.701-2.207c0-0.949,0.231-1.688,0.694-2.218
		c0.462-0.53,1.107-0.795,1.936-0.795c0.41,0,0.867,0.062,1.373,0.188v0.886c-0.538-0.175-0.977-0.263-1.315-0.263
		c-0.486,0-0.877,0.203-1.172,0.61c-0.295,0.406-0.442,0.948-0.442,1.625c0,0.655,0.151,1.185,0.454,1.59
		c0.303,0.405,0.699,0.606,1.189,0.606c0.435,0,0.883-0.123,1.344-0.37v0.913C289.769,139.984,289.237,140.089,288.79,140.089z"/>
	<path d="M291.811,139.955v-8.481h0.953v5.479l2.224-2.831h1.024l-2.122,2.723l2.562,3.11h-1.218l-2.47-2.992v2.992H291.811z"/>
	<path d="M302.784,140.089c-0.751,0-1.351-0.276-1.798-0.829c-0.448-0.555-0.672-1.295-0.672-2.222c0-0.938,0.225-1.68,0.674-2.226
		c0.45-0.546,1.06-0.819,1.83-0.819s1.38,0.273,1.83,0.819c0.45,0.546,0.674,1.284,0.674,2.215c0,0.953-0.226,1.701-0.677,2.245
		S303.574,140.089,302.784,140.089z M302.799,139.294c1.008,0,1.513-0.755,1.513-2.267c0-1.493-0.498-2.24-1.494-2.24
		c-0.993,0-1.489,0.75-1.489,2.25C301.329,138.542,301.819,139.294,302.799,139.294z"/>
	<path d="M310.093,139.955v-1.096c-0.506,0.819-1.12,1.229-1.842,1.229c-0.458,0-0.822-0.16-1.092-0.481
		c-0.271-0.32-0.406-0.752-0.406-1.297v-4.189h0.953v3.845c0,0.438,0.057,0.748,0.171,0.932c0.114,0.186,0.305,0.277,0.573,0.277
		c0.58,0,1.128-0.424,1.644-1.273v-3.781h0.953v5.833H310.093z"/>
	<path d="M314.531,140.089c-0.483,0-0.861-0.153-1.131-0.462s-0.406-0.736-0.406-1.283v-3.427h-0.657v-0.795h0.657v-1.058
		l0.953-0.102v1.16h1.373v0.795h-1.373v3.234c0,0.762,0.296,1.144,0.889,1.144c0.126,0,0.279-0.023,0.459-0.069v0.73
		C315.001,140.044,314.747,140.089,314.531,140.089z"/>
	<path d="M320.399,139.955l-1.503-5.833h0.933l1.151,4.517l1.242-4.517h0.952l1.088,4.517l1.319-4.517h0.817l-1.711,5.833h-0.957
		l-1.112-4.518l-1.257,4.518H320.399z"/>
	<path d="M327.417,133.063v-1.058h0.953v1.058H327.417z M327.417,139.955v-5.833h0.953v5.833H327.417z"/>
	<path d="M331.855,140.089c-0.483,0-0.861-0.153-1.131-0.462s-0.406-0.736-0.406-1.283v-3.427h-0.657v-0.795h0.657v-1.058
		l0.953-0.102v1.16h1.373v0.795h-1.373v3.234c0,0.762,0.296,1.144,0.889,1.144c0.126,0,0.279-0.023,0.459-0.069v0.73
		C332.326,140.044,332.071,140.089,331.855,140.089z"/>
	<path d="M333.982,139.955v-8.481h0.953v3.744c0.502-0.816,1.118-1.225,1.846-1.225c0.455,0,0.817,0.16,1.088,0.48
		c0.271,0.321,0.406,0.751,0.406,1.292v4.19h-0.953v-3.846c0-0.434-0.057-0.743-0.171-0.927c-0.115-0.184-0.304-0.276-0.568-0.276
		c-0.583,0-1.133,0.424-1.648,1.273v3.776H333.982z"/>
</g>
<text transform="matrix(1 0 0 1 395 130.0874)" font-family="'MyriadPro-Regular'" font-size="2.8003">TM</text>
</svg>
