<?xml version="1.0" encoding="utf-8"?>
<!-- Generator: Adobe Illustrator 15.0.0, SVG Export Plug-In . SVG Version: 6.00 Build 0)  -->
<!DOCTYPE svg PUBLIC "-//W3C//DTD SVG 1.1//EN" "http://www.w3.org/Graphics/SVG/1.1/DTD/svg11.dtd">
<svg version="1.1"
	 id="svg2" xmlns:svg="http://www.w3.org/2000/svg" xmlns:dc="http://purl.org/dc/elements/1.1/" xmlns:sodipodi="http://sodipodi.sourceforge.net/DTD/sodipodi-0.dtd" xmlns:inkscape="http://www.inkscape.org/namespaces/inkscape" xmlns:rdf="http://www.w3.org/1999/02/22-rdf-syntax-ns#" xmlns:cc="http://creativecommons.org/ns#" inkscape:version="0.48.4 r9939" sodipodi:docname="AJAX1.svg"
	 xmlns="http://www.w3.org/2000/svg" xmlns:xlink="http://www.w3.org/1999/xlink" x="0px" y="0px" width="576.539px"
	 height="507.943px" viewBox="0 0 576.539 507.943" enable-background="new 0 0 576.539 507.943" xml:space="preserve">
<sodipodi:namedview  pagecolor="#ffffff" id="namedview16" inkscape:window-maximized="1" inkscape:current-layer="svg2" inkscape:window-y="-8" inkscape:window-x="-8" fit-margin-bottom="0.3" fit-margin-right="0.3" inkscape:window-height="1004" inkscape:window-width="1280" inkscape:pageshadow="2" inkscape:pageopacity="0" showgrid="false" inkscape:zoom="1.1586937" gridtolerance="10" inkscape:cy="212.19877" objecttolerance="10" borderopacity="1" inkscape:cx="188.2308" bordercolor="#666666" fit-margin-left="0.3" fit-margin-top="0.3" guidetolerance="10">
	</sodipodi:namedview>
<path id="path8" inkscape:connector-curvature="0" d="M31.39,494.183h512.191c6.617,0,12.734-3.531,16.043-9.265
	c3.311-5.73,3.311-12.794,0-18.524L303.529,22.822c-3.31-5.732-9.425-9.263-16.043-9.263c-6.619,0-12.734,3.531-16.043,9.263
	L15.346,466.394c-3.31,5.73-3.31,12.794,0,18.524C18.655,490.65,24.771,494.183,31.39,494.183z"/>
<polygon id="polygon10" fill="#FFFF00" points="287.485,69.346 511.312,457.025 63.658,457.025 "/>
<circle id="circle12" sodipodi:ry="25.643" sodipodi:rx="25.643" sodipodi:cy="398.10199" sodipodi:cx="287.21899" cx="287.485" cy="399.078" r="25.644">
</circle>
<path id="path14" inkscape:connector-curvature="0" d="M303.068,344.582l18.396-167.807c1.5-13.68-5.305-26.936-17.297-33.69
	c-11.99-6.754-26.853-5.705-37.775,2.668c-10.922,8.373-15.797,22.454-12.389,35.787l19.122,166.535
	c0.615,5.355,4.044,9.977,8.993,12.116c4.949,2.14,10.665,1.473,14.989-1.749C301.429,355.222,303.703,349.935,303.068,344.582"/>
</svg>
