<?xml version="1.0" encoding="utf-8"?>
<!-- Generator: Adobe Illustrator 16.0.3, SVG Export Plug-In . SVG Version: 6.00 Build 0)  -->
<!DOCTYPE svg PUBLIC "-//W3C//DTD SVG 1.1//EN" "http://www.w3.org/Graphics/SVG/1.1/DTD/svg11.dtd">
<svg version="1.1" id="Layer_1" xmlns="http://www.w3.org/2000/svg" xmlns:xlink="http://www.w3.org/1999/xlink" x="0px" y="0px"
	 width="12px" height="12px" viewBox="0 0 12 12" enable-background="new 0 0 12 12" xml:space="preserve">
<g>
	<g>
		<rect fill="#E6BA45" width="12" height="12"/>
	</g>
	<g>
		<path fill="#FFFFFF" d="M5.295,9.873c0-0.19,0.07-0.355,0.209-0.495C5.644,9.239,5.809,9.169,6,9.169
			c0.19,0,0.355,0.07,0.495,0.209c0.139,0.14,0.209,0.305,0.209,0.495c0,0.191-0.07,0.356-0.209,0.495
			C6.355,10.507,6.19,10.577,6,10.577c-0.191,0-0.356-0.07-0.495-0.209S5.295,10.064,5.295,9.873z M5.769,8.63
			c-0.096,0-0.15-0.051-0.165-0.154l-0.242-2.31C5.354,6.122,5.351,6.071,5.351,6.012s0-0.11,0-0.154V2.954
			c0-0.103,0.051-0.154,0.154-0.154h0.99c0.103,0,0.154,0.052,0.154,0.154v2.904c0,0.044,0,0.096,0,0.154s-0.004,0.11-0.011,0.154
			l-0.242,2.31C6.381,8.579,6.326,8.63,6.23,8.63H5.769z"/>
	</g>
</g>
</svg>
