<?xml version="1.0" encoding="utf-8"?>
<!-- Generator: Adobe Illustrator 16.0.4, SVG Export Plug-In . SVG Version: 6.00 Build 0)  -->
<!DOCTYPE svg PUBLIC "-//W3C//DTD SVG 1.1//EN" "http://www.w3.org/Graphics/SVG/1.1/DTD/svg11.dtd">
<svg version="1.1" id="Layer_1" xmlns="http://www.w3.org/2000/svg" xmlns:xlink="http://www.w3.org/1999/xlink" x="0px" y="0px"
	 width="20px" height="15px" viewBox="0 0 20 15" enable-background="new 0 0 20 15" xml:space="preserve">
<g>
	<rect x="3.914" y="3.823" fill="#FFFFFF" width="12" height="8"/>
	<g id="Lozenge_3_">
		<g>
			<linearGradient id="SVGID_1_" gradientUnits="userSpaceOnUse" x1="10.0454" y1="1.5063" x2="10.0454" y2="13.7788">
				<stop  offset="0" style="stop-color:#E52D27"/>
				<stop  offset="1" style="stop-color:#BF171D"/>
			</linearGradient>
			<path fill="url(#SVGID_1_)" d="M18.596,4.154c0,0-0.17-1.202-0.693-1.732c-0.664-0.694-1.406-0.697-1.748-0.738
				c-2.441-0.177-6.105-0.177-6.105-0.177h-0.007c0,0-3.663,0-6.105,0.177C3.596,1.724,2.853,1.727,2.189,2.421
				c-0.523,0.53-0.693,1.732-0.693,1.732S1.322,5.566,1.322,6.978v1.324c0,1.412,0.174,2.824,0.174,2.824s0.17,1.201,0.693,1.73
				c0.664,0.695,1.535,0.674,1.924,0.746c1.396,0.135,5.934,0.176,5.934,0.176s3.667-0.006,6.108-0.182
				c0.342-0.041,1.084-0.045,1.748-0.74c0.523-0.529,0.693-1.73,0.693-1.73s0.174-1.412,0.174-2.824V6.978
				C18.77,5.566,18.596,4.154,18.596,4.154z M8.244,9.905V5.003l4.715,2.459L8.244,9.905z"/>
		</g>
	</g>
</g>
</svg>
