<?xml version="1.0" encoding="utf-8"?>
<!-- Generator: Adobe Illustrator 16.0.3, SVG Export Plug-In . SVG Version: 6.00 Build 0)  -->
<!DOCTYPE svg PUBLIC "-//W3C//DTD SVG 1.1//EN" "http://www.w3.org/Graphics/SVG/1.1/DTD/svg11.dtd">
<svg version="1.1" id="Layer_1" xmlns="http://www.w3.org/2000/svg" xmlns:xlink="http://www.w3.org/1999/xlink" x="0px" y="0px"
	 width="36px" height="16px" viewBox="0 0 36 16" enable-background="new 0 0 36 16" xml:space="preserve">
<g>
	<path id="lozenge_2_" fill="#D92632" d="M35.456,3.808c0,0-0.205-1.444-0.837-2.081c-0.801-0.835-1.698-0.839-2.109-0.888
		c-2.947-0.212-7.368-0.212-7.368-0.212h-0.009c0,0-4.421,0-7.367,0.212c-0.412,0.049-1.309,0.053-2.11,0.888
		c-0.631,0.636-0.837,2.081-0.837,2.081s-0.21,1.696-0.21,3.393v1.59c0,1.697,0.21,3.393,0.21,3.393s0.206,1.445,0.837,2.082
		c0.801,0.834,1.854,0.809,2.322,0.896c1.685,0.16,7.16,0.211,7.16,0.211s4.425-0.008,7.372-0.219
		c0.411-0.051,1.309-0.055,2.109-0.889c0.632-0.637,0.837-2.082,0.837-2.082s0.211-1.695,0.211-3.393v-1.59
		C35.667,5.504,35.456,3.808,35.456,3.808z"/>
	<path id="u_3_" d="M13.521,12.561h-1.34v-0.777c-0.508,0.582-0.939,0.877-1.408,0.877c-0.412,0-0.698-0.193-0.841-0.545
		c-0.087-0.213-0.148-0.547-0.148-1.037V5.437h1.34v5.29c0,0.299,0,0.422,0,0.492c0.031,0.199,0.115,0.271,0.286,0.271
		c0.256,0,0.489-0.223,0.772-0.623V5.437h1.34V12.561z"/>
	<path id="o_2_" d="M8.796,7.764c0-0.761-0.153-1.333-0.423-1.693C8.016,5.584,7.456,5.385,6.892,5.385
		c-0.639,0-1.125,0.199-1.481,0.687C5.136,6.431,4.989,7.009,4.989,7.77l-0.001,2.533c0,0.758,0.131,1.279,0.405,1.637
		c0.356,0.486,0.935,0.742,1.499,0.742c0.564,0,1.152-0.256,1.509-0.742c0.271-0.357,0.395-0.879,0.395-1.637V7.764z M7.456,10.443
		c0.07,0.705-0.148,1.057-0.564,1.057s-0.635-0.352-0.564-1.057V7.623C6.257,6.917,6.476,6.587,6.892,6.587s0.635,0.331,0.565,1.036
		L7.456,10.443z"/>
	<path id="y_2_" d="M3.507,8.682v3.879H2.096V8.682c0,0-1.462-4.756-1.763-5.643h1.481l0.99,3.715l0.985-3.715H5.27L3.507,8.682z"/>
	<path id="e_2_" fill="#FFFFFF" d="M33.904,9.244V7.803c0-0.753-0.148-1.304-0.415-1.661c-0.358-0.482-0.866-0.737-1.507-0.737
		c-0.652,0-1.16,0.255-1.529,0.737c-0.271,0.356-0.43,0.938-0.43,1.692v2.468c0,0.748,0.174,1.273,0.445,1.625
		c0.369,0.482,0.877,0.723,1.545,0.723c0.667,0,1.191-0.252,1.545-0.764c0.155-0.227,0.255-0.482,0.298-0.766
		c0.012-0.127,0.046-0.418,0.046-0.83v-0.199h-1.34c0,0.512,0.002,0.816-0.01,0.887c-0.073,0.34-0.256,0.512-0.57,0.512
		c-0.438,0-0.624-0.328-0.619-0.979V9.244H33.904z M31.363,7.409c0-0.659,0.181-0.839,0.607-0.839c0.423,0,0.592,0.196,0.592,0.848
		v0.77l-1.199,0.002V7.409z"/>
	<path id="b_2_" fill="#FFFFFF" d="M27.985,5.394c-0.47,0-0.937,0.289-1.349,0.796l0.002-3.081h-1.27v9.451h1.27l0.001-0.711
		c0.427,0.527,0.893,0.801,1.346,0.801c0.509,0,0.88-0.271,1.051-0.797c0.085-0.299,0.141-0.758,0.141-1.41V7.623
		c0-0.667-0.085-1.124-0.171-1.407C28.836,5.688,28.494,5.394,27.985,5.394z M27.837,10.514c0,0.705-0.166,0.977-0.534,0.977
		c-0.21,0-0.452-0.107-0.666-0.322l0.002-4.277c0.213-0.21,0.454-0.321,0.664-0.321c0.368,0,0.534,0.207,0.534,0.912V10.514z"/>
	<path id="u_2_" fill="#FFFFFF" d="M24.311,12.561h-1.34v-0.777c-0.508,0.582-0.938,0.877-1.407,0.877
		c-0.412,0-0.698-0.193-0.842-0.545c-0.087-0.213-0.148-0.547-0.148-1.037V5.507h1.34v5.219c0,0.299,0,0.422,0,0.492
		c0.031,0.199,0.115,0.271,0.286,0.271c0.256,0,0.488-0.223,0.771-0.623v-5.36h1.34V12.561z"/>
	<polygon id="T_2_" fill="#FFFFFF" points="19.233,12.561 17.823,12.561 17.823,4.449 16.342,4.449 16.342,3.111 20.785,3.109 
		20.785,4.449 19.233,4.449 	"/>
</g>
</svg>
