<?xml version="1.0" encoding="utf-8"?>
<!-- Generator: Adobe Illustrator 16.0.3, SVG Export Plug-In . SVG Version: 6.00 Build 0)  -->
<!DOCTYPE svg PUBLIC "-//W3C//DTD SVG 1.1//EN" "http://www.w3.org/Graphics/SVG/1.1/DTD/svg11.dtd">
<svg version="1.1" id="Layer_1" xmlns="http://www.w3.org/2000/svg" xmlns:xlink="http://www.w3.org/1999/xlink" x="0px" y="0px"
	 width="36px" height="16px" viewBox="0 0 36 16" enable-background="new 0 0 36 16" xml:space="preserve">
<g>
	<path id="u_6_" fill="#FFFFFF" d="M13.563,12.518h-1.327v-0.77c-0.503,0.578-0.929,0.867-1.395,0.867
		c-0.408,0-0.691-0.191-0.833-0.541c-0.086-0.209-0.147-0.539-0.147-1.025V5.461h1.327v5.238c0,0.297,0,0.42,0,0.488
		c0.031,0.197,0.115,0.27,0.283,0.27c0.254,0,0.484-0.221,0.765-0.617V5.461h1.327V12.518z"/>
	<path id="o_3_" fill="#FFFFFF" d="M8.883,7.766c0-0.754-0.152-1.32-0.419-1.677c-0.354-0.482-0.908-0.68-1.467-0.68
		c-0.633,0-1.114,0.198-1.467,0.68C5.257,6.446,5.112,7.019,5.112,7.772L5.11,10.281c0,0.75,0.129,1.268,0.401,1.619
		c0.354,0.482,0.926,0.738,1.485,0.738s1.142-0.256,1.496-0.738c0.267-0.352,0.391-0.869,0.391-1.619V7.766z M7.556,10.42
		c0.07,0.699-0.147,1.047-0.56,1.047c-0.412,0-0.628-0.348-0.559-1.047V7.626c-0.07-0.699,0.147-1.026,0.559-1.026
		s0.629,0.327,0.56,1.026L7.556,10.42z"/>
	<path id="y_3_" fill="#FFFFFF" d="M3.644,8.674v3.844H2.246V8.674c0,0-1.447-4.71-1.746-5.588h1.467l0.98,3.68l0.975-3.68H5.39
		L3.644,8.674z"/>
	<g>
		<path fill="#FFFFFF" d="M27.215,6.583c-0.209,0-0.445,0.11-0.658,0.318l-0.001,4.237c0.212,0.211,0.45,0.318,0.659,0.318
			c0.364,0,0.53-0.27,0.53-0.967V7.487C27.745,6.788,27.579,6.583,27.215,6.583z"/>
		<path fill="#FFFFFF" d="M32.425,7.422c0-0.646-0.167-0.839-0.586-0.839c-0.422,0-0.602,0.178-0.602,0.831v0.772l1.188-0.001V7.422
			z"/>
		<path fill="#FFFFFF" d="M35.292,3.848c0,0-0.203-1.431-0.829-2.062c-0.795-0.826-1.684-0.831-2.092-0.879
			c-2.918-0.21-7.296-0.21-7.296-0.21h-0.01c0,0-4.378,0-7.298,0.21c-0.408,0.048-1.296,0.053-2.09,0.879
			c-0.625,0.63-0.829,2.062-0.829,2.062s-0.208,1.68-0.208,3.361v1.575c0,1.682,0.208,3.361,0.208,3.361s0.203,1.43,0.829,2.062
			c0.794,0.826,1.836,0.801,2.301,0.887c1.668,0.158,7.092,0.209,7.092,0.209s4.383-0.006,7.301-0.217
			c0.408-0.049,1.297-0.053,2.092-0.879c0.626-0.633,0.829-2.062,0.829-2.062s0.208-1.68,0.208-3.361V7.208
			C35.5,5.527,35.292,3.848,35.292,3.848z M19.222,12.518h-1.397V4.483h-1.467V3.157l4.401-0.001v1.327h-1.537V12.518z
			 M24.251,12.518h-1.326v-0.77c-0.504,0.578-0.931,0.867-1.396,0.867c-0.408,0-0.691-0.191-0.834-0.541
			c-0.087-0.209-0.146-0.539-0.146-1.025V5.531h1.325v5.168c0,0.297,0,0.42,0,0.488c0.032,0.197,0.115,0.27,0.285,0.27
			c0.253,0,0.483-0.221,0.765-0.617V5.531h1.326V12.518z M29.071,10.42c0,0.646-0.056,1.102-0.14,1.398
			c-0.169,0.52-0.537,0.789-1.041,0.789c-0.449,0-0.909-0.271-1.332-0.793l-0.002,0.703H25.3V3.156h1.257l-0.001,3.052
			c0.408-0.502,0.87-0.789,1.335-0.789c0.504,0,0.843,0.291,1.012,0.813c0.084,0.28,0.169,0.732,0.169,1.394V10.42z M31.851,11.457
			c0.311,0,0.493-0.17,0.565-0.508c0.011-0.068,0.009-0.371,0.009-0.877h1.326v0.197c0,0.406-0.032,0.695-0.043,0.82
			c-0.045,0.283-0.144,0.537-0.296,0.76c-0.351,0.506-0.87,0.758-1.531,0.758c-0.66,0-1.164-0.24-1.53-0.717
			c-0.269-0.348-0.441-0.869-0.441-1.609V7.836c0-0.746,0.157-1.323,0.427-1.676c0.364-0.478,0.868-0.73,1.515-0.73
			c0.635,0,1.139,0.252,1.491,0.73c0.267,0.353,0.412,0.899,0.412,1.645v1.427h-2.517v1.256
			C31.232,11.133,31.417,11.457,31.851,11.457z"/>
	</g>
</g>
</svg>
