<?xml version="1.0" encoding="utf-8"?>
<!-- Generator: Adobe Illustrator 16.0.3, SVG Export Plug-In . SVG Version: 6.00 Build 0)  -->
<!DOCTYPE svg PUBLIC "-//W3C//DTD SVG 1.1//EN" "http://www.w3.org/Graphics/SVG/1.1/DTD/svg11.dtd">
<svg version="1.1" id="Layer_1" xmlns="http://www.w3.org/2000/svg" xmlns:xlink="http://www.w3.org/1999/xlink" x="0px" y="0px"
	 width="36px" height="16px" viewBox="0 0 36 16" enable-background="new 0 0 36 16" xml:space="preserve">
<g>
	<path id="lozenge_3_" d="M35.487,3.801c0,0-0.206-1.447-0.839-2.084c-0.802-0.836-1.701-0.841-2.113-0.89
		c-2.952-0.212-7.381-0.212-7.381-0.212h-0.009c0,0-4.429,0-7.38,0.212c-0.413,0.049-1.311,0.053-2.114,0.89
		c-0.632,0.637-0.838,2.084-0.838,2.084S14.602,5.5,14.602,7.2v1.593c0,1.699,0.211,3.4,0.211,3.4s0.206,1.445,0.838,2.082
		c0.803,0.838,1.857,0.811,2.326,0.898c1.688,0.162,7.173,0.212,7.173,0.212s4.433-0.006,7.385-0.22
		c0.412-0.049,1.312-0.053,2.113-0.891c0.633-0.637,0.839-2.082,0.839-2.082s0.211-1.701,0.211-3.4V7.2
		C35.698,5.5,35.487,3.801,35.487,3.801z"/>
	<path id="u_7_" d="M13.513,12.568h-1.342v-0.777c-0.509,0.582-0.94,0.878-1.411,0.878c-0.413,0-0.699-0.195-0.843-0.547
		c-0.087-0.214-0.149-0.547-0.149-1.037V5.432h1.342v5.298c0,0.3,0,0.424,0,0.495c0.031,0.198,0.116,0.27,0.287,0.27
		c0.256,0,0.489-0.222,0.773-0.624V5.432h1.342V12.568z"/>
	<path id="o_4_" d="M8.78,7.764c0-0.762-0.153-1.335-0.424-1.696C7.998,5.581,7.437,5.38,6.872,5.38c-0.64,0-1.126,0.2-1.484,0.688
		C5.113,6.428,4.966,7.007,4.966,7.77l-0.001,2.538c0,0.759,0.131,1.282,0.406,1.639c0.357,0.485,0.937,0.743,1.501,0.743
		s1.154-0.258,1.512-0.743c0.27-0.356,0.396-0.88,0.396-1.639V7.764z M7.437,10.448c0.071,0.706-0.148,1.058-0.565,1.058
		s-0.635-0.352-0.564-1.058V7.623C6.236,6.916,6.455,6.585,6.872,6.585s0.636,0.331,0.566,1.038L7.437,10.448z"/>
	<path id="y_4_" d="M3.481,8.682v3.887H2.068V8.682c0,0-1.464-4.764-1.766-5.651h1.484l0.991,3.722L3.764,3.03h1.483L3.481,8.682z"
		/>
	<path id="e_1_" fill="#FFFFFF" d="M33.934,9.248l-0.002-1.445c0-0.754-0.148-1.306-0.415-1.664
		c-0.358-0.483-0.867-0.738-1.51-0.738c-0.652,0-1.162,0.255-1.532,0.738c-0.271,0.357-0.43,0.94-0.43,1.695v2.474
		c0,0.75,0.174,1.275,0.445,1.628c0.371,0.481,0.88,0.723,1.548,0.723c0.669,0,1.194-0.251,1.547-0.765
		c0.156-0.227,0.257-0.484,0.3-0.767c0.012-0.128,0.045-0.419,0.045-0.832v-0.199h-1.342c0,0.512,0.002,0.817-0.009,0.887
		c-0.073,0.344-0.257,0.513-0.572,0.513c-0.438,0-0.624-0.326-0.62-0.98V9.248H33.934z M31.387,7.408
		c0-0.661,0.182-0.841,0.608-0.841c0.425,0,0.593,0.197,0.593,0.85v0.771l-1.201,0.002V7.408z"/>
	<path id="b_1_" fill="#FFFFFF" d="M28.003,5.39c-0.47,0-0.938,0.289-1.351,0.798l0.001-3.086h-1.271v9.467h1.271l0.002-0.713
		c0.428,0.53,0.894,0.803,1.348,0.803c0.51,0,0.882-0.272,1.052-0.796c0.086-0.3,0.142-0.761,0.142-1.414V7.623
		c0-0.669-0.085-1.126-0.171-1.41C28.855,5.684,28.513,5.39,28.003,5.39z M27.854,10.52c0,0.706-0.166,0.976-0.535,0.976
		c-0.211,0-0.453-0.106-0.667-0.32l0.001-4.286c0.214-0.211,0.455-0.322,0.666-0.322c0.369,0,0.535,0.208,0.535,0.914V10.52z"/>
	<path id="u_1_" fill="#FFFFFF" d="M24.321,12.568h-1.342v-0.777c-0.509,0.582-0.94,0.878-1.41,0.878
		c-0.412,0-0.699-0.195-0.843-0.547c-0.087-0.214-0.148-0.547-0.148-1.037V5.503h1.342v5.228c0,0.3,0,0.424,0,0.495
		c0.031,0.198,0.116,0.27,0.287,0.27c0.256,0,0.489-0.222,0.772-0.624V5.503h1.342V12.568z"/>
	<polygon id="T_1_" fill="#FFFFFF" points="19.235,12.568 17.822,12.568 17.822,4.443 16.339,4.443 16.339,3.103 20.789,3.101 
		20.789,4.443 19.235,4.443 	"/>
</g>
</svg>
