<svg id="Layer_1" data-name="Layer 1" xmlns="http://www.w3.org/2000/svg" viewBox="0 0 100 33"><defs><style>.cls-1{fill:#ed1b2e;}.cls-2{fill:#231f20;}</style></defs><title>rapala-logo</title><path class="cls-1" d="M26.34,5.52v6H20v-6c0-2.73,4-3.67,6.87-3.66s6.88.93,6.87,3.65h0V25.94a.88.88,0,0,0,.28.7H28.2L27.79,26A7.64,7.64,0,0,1,23,26.7a3,3,0,0,1-3-3.1v-8a3,3,0,0,1,1.92-2.5,7.05,7.05,0,0,1,5.52.29V5.51a.51.51,0,0,0-.53-.5A.47.47,0,0,0,26.34,5.52Zm0,10.58v7s0,.43.55.43.57-.43.57-.43v-7a.52.52,0,0,0-.57-.51A.51.51,0,0,0,26.34,16.1Z"/><path class="cls-1" d="M57.11,5.52v6H50.78v-6c0-2.73,4-3.67,6.87-3.66s6.88.93,6.87,3.65h0V25.94a.92.92,0,0,0,.29.7H59L58.56,26a7.61,7.61,0,0,1-4.78.72,3,3,0,0,1-3-3.1v-8a3,3,0,0,1,1.91-2.5,7.08,7.08,0,0,1,5.53.29V5.51A.52.52,0,0,0,57.7,5,.48.48,0,0,0,57.11,5.52Zm0,10.58v7s0,.43.54.43.58-.43.58-.43v-7a.52.52,0,0,0-.58-.51A.51.51,0,0,0,57.12,16.1Z"/><path class="cls-1" d="M45.9,2.08c3.71,0,3.43,3.17,3.43,3.16V16.88s0,2.45-2.9,2.45H41.91v7.32H35.74V2.08ZM43.17,14.8v-8c0-.92-.43-1.08-1-1.12-.29,0-.29.34-.29.32v9.66s0,.34.3.35C43,16.05,43.17,15.62,43.17,14.8Z"/><polygon class="cls-1" points="65.98 26.64 65.98 2.08 72.47 2.08 72.47 23.8 76.02 23.8 76.02 26.64 65.98 26.64"/><path class="cls-1" d="M82.69,5.52v6H76.36v-6c0-2.73,4-3.67,6.87-3.66s6.88.93,6.88,3.65h0V25.94a.88.88,0,0,0,.28.7H84.56L84.14,26a7.62,7.62,0,0,1-4.78.72,3,3,0,0,1-3-3.1v-8a3,3,0,0,1,1.92-2.5,7.08,7.08,0,0,1,5.53.29V5.51a.51.51,0,0,0-.53-.5A.47.47,0,0,0,82.69,5.52Zm0,10.58v7s0,.43.55.43.57-.43.57-.43v-7a.52.52,0,0,0-.57-.51A.51.51,0,0,0,82.69,16.1Z"/><path class="cls-1" d="M19.59,30.57h-6.3A2.84,2.84,0,0,1,13,30,22.36,22.36,0,0,1,12,23V18.49c0-.61-.11-1.12-.51-1.13,0,0-2.11,0-2.12,0a.36.36,0,0,0-.37.36V30.59h-7V1.87h10c2.89,0,4.63.22,5.9,2.08,1.05,1.76.92,4.21.92,6.35a6.94,6.94,0,0,1-2.31,5.44,7,7,0,0,1,1,1.09,6,6,0,0,1,1,4.08c.16,2.66-.15,5.5.66,7.88l.53,1.66Zm-8.18-17a.49.49,0,0,0,.49-.49V6a.49.49,0,0,0-.49-.49h-2A.49.49,0,0,0,9,6v7a.49.49,0,0,0,.49.49Z"/><path class="cls-2" d="M91.8,4.26h-.3V2.85H92c.37,0,.58.1.58.43a.33.33,0,0,1-.34.37l.36.61h-.35l-.33-.59H91.8Zm.27-.83c.13,0,.21,0,.21-.18s-.16-.16-.27-.16H91.8v.34Zm0,1.44A1.27,1.27,0,0,1,90.7,3.56a1.32,1.32,0,0,1,2.63,0A1.26,1.26,0,0,1,92,4.87Zm0-2.32a1,1,0,0,0-1,1,1,1,0,0,0,1,1h0a1,1,0,0,0,.94-1A1,1,0,0,0,92,2.55Z"/></svg>