<?xml version="1.0" encoding="utf-8"?>
<!-- Generator: Adobe Illustrator 16.0.4, SVG Export Plug-In . SVG Version: 6.00 Build 0)  -->
<!DOCTYPE svg PUBLIC "-//W3C//DTD SVG 1.1//EN" "http://www.w3.org/Graphics/SVG/1.1/DTD/svg11.dtd">
<svg version="1.1" id="Layer_1" xmlns="http://www.w3.org/2000/svg" xmlns:xlink="http://www.w3.org/1999/xlink" x="0px" y="0px"
	 width="36px" height="36px" viewBox="0 0 36 36" enable-background="new 0 0 36 36" xml:space="preserve">
<symbol  id="Cart_Active" viewBox="-17.5 -17.5 35 35">
	<g>
		<path fill="#F3F3F3" d="M0-17c-9.374,0-17,7.626-17,17c0,9.374,7.626,17,17,17S17,9.374,17,0C17-9.374,9.374-17,0-17z"/>
		<path fill="#4E4E4E" d="M0,16.5c9.098,0,16.5-7.402,16.5-16.5c0-9.098-7.402-16.5-16.5-16.5S-16.5-9.098-16.5,0
			C-16.5,9.098-9.098,16.5,0,16.5 M0,17.5c-9.667,0-17.5-7.833-17.5-17.5c0-9.667,7.833-17.5,17.5-17.5
			c9.665,0,17.5,7.833,17.5,17.5C17.5,9.667,9.665,17.5,0,17.5L0,17.5z"/>
	</g>
	<g>
		<g>
			<path fill="#4E4E4E" d="M9.841,3.361v-7.106c0-0.221-0.162-0.42-0.377-0.464l-14.1-2.92C-5.068-7.35-5.269-7.883-5.068-8.341
				c0.145-0.33,0.479-0.55,0.836-0.55h0.033c0.005,0,0.005,0,0.005,0H9.193c0.264,0,0.474-0.215,0.474-0.474
				c0-0.259-0.21-0.475-0.474-0.475h-1.05c0.118-0.204,0.174-0.43,0.174-0.657c0-0.419-0.18-0.786-0.466-1.04
				c-0.614,0.032-1.266,0.064-1.949,0.086c-0.238,0.253-0.388,0.582-0.388,0.953c0,0.227,0.064,0.454,0.182,0.657h-6.923
				c0.109-0.204,0.173-0.43,0.173-0.657c0-0.361-0.135-0.694-0.357-0.937c-0.703-0.022-1.368-0.048-1.995-0.086
				c-0.262,0.258-0.435,0.62-0.435,1.023c0,0.227,0.051,0.454,0.159,0.657h-0.546c-0.734,0-1.412,0.442-1.712,1.121
				c-0.352,0.803-0.088,1.746,0.607,2.263l-2.155,9.704c0,0.01,0,0.017-0.006,0.026l-0.57,2.555h-4.068
				c-0.253,0-0.474,0.215-0.474,0.474c0,0.264,0.221,0.469,0.474,0.469h4.445c0.227,0,0.416-0.147,0.468-0.368l0.562-2.575H9.366
				c0.128,0,0.242-0.049,0.339-0.134C9.788,3.61,9.841,3.485,9.841,3.361z M7.377-10.497c0,0.249-0.204,0.447-0.461,0.447
				c-0.249,0-0.454-0.199-0.454-0.447c0-0.252,0.205-0.458,0.454-0.458C7.173-10.954,7.377-10.749,7.377-10.497z M1.308-3.244
				l0.186-1.649 M0.891,0.387l0.308-2.693 M0.611,2.887l0.178-1.568 M0.266-2.441l-0.307,2.753 M-1.992-10.497
				c0,0.249-0.204,0.447-0.462,0.447c-0.248,0-0.446-0.199-0.446-0.447c0-0.252,0.198-0.458,0.446-0.458
				C-2.196-10.954-1.992-10.749-1.992-10.497z M-6.438,2.887"/>
			<path fill="#4E4E4E" d="M7.852-11.536c-0.251-0.227-0.576-0.361-0.936-0.361c-0.396,0-0.766,0.172-1.014,0.448
				C6.586-11.472,7.237-11.504,7.852-11.536z"/>
			<polygon fill="#4E4E4E" points="0.374,-3.378 0.558,-5.091 -2.057,-3.724 			"/>
			<path fill="#4E4E4E" d="M-1.411-11.434c-0.263-0.285-0.634-0.464-1.043-0.464c-0.371,0-0.695,0.14-0.952,0.377
				C-2.779-11.482-2.114-11.456-1.411-11.434z"/>
			<path fill="#4E4E4E" d="M-2.998-3.857"/>
		</g>
	</g>
</symbol>
<symbol  id="Cart_Non_Active_2" viewBox="-17.5 -17.5 35 35">
	<g>
		<path fill="#F3F3F3" d="M17.5,0c0-9.665-7.837-17.5-17.5-17.5c-9.666,0-17.5,7.835-17.5,17.5S-9.666,17.5,0,17.5
			C9.663,17.5,17.5,9.664,17.5,0z"/>
	</g>
	<g>
		<g>
			<path fill="#989898" d="M9.84,3.36v-7.106c0-0.22-0.159-0.417-0.378-0.464L-4.632-7.13C-5.071-7.35-5.27-7.885-5.071-8.341
				c0.146-0.331,0.479-0.551,0.841-0.551h0.033c0.006,0,0.006,0,0.006,0H9.193c0.261,0,0.473-0.212,0.473-0.472
				c0-0.26-0.212-0.473-0.473-0.473H8.147c0.11-0.204,0.174-0.432,0.174-0.66c0-0.417-0.183-0.786-0.474-1.039
				c-0.613,0.031-1.266,0.063-1.949,0.087c-0.237,0.251-0.379,0.582-0.379,0.952c0,0.229,0.062,0.457,0.172,0.66h-6.917
				c0.111-0.204,0.174-0.432,0.174-0.66c0-0.362-0.134-0.692-0.362-0.937c-0.699-0.023-1.369-0.047-1.988-0.086
				c-0.27,0.259-0.443,0.622-0.443,1.023c0,0.229,0.057,0.457,0.167,0.66h-0.545c-0.74,0-1.415,0.441-1.714,1.119
				c-0.354,0.802-0.094,1.747,0.605,2.265l-2.156,9.703c0,0.008,0,0.016-0.008,0.023L-8.062,5.83h-4.068
				c-0.259,0-0.472,0.213-0.472,0.473c0,0.267,0.213,0.472,0.472,0.472h4.446c0.221,0,0.418-0.15,0.464-0.37l0.566-2.573H9.366
				c0.125,0,0.244-0.048,0.339-0.133C9.792,3.611,9.84,3.485,9.84,3.36z M7.375-10.498c0,0.251-0.204,0.448-0.455,0.448
				c-0.252,0-0.457-0.197-0.457-0.448s0.205-0.457,0.457-0.457C7.171-10.954,7.375-10.749,7.375-10.498z M1.311-3.243l0.18-1.652
				 M0.892,0.385l0.308-2.69 M0.609,2.887L0.79,1.321 M0.263-2.44l-0.306,2.754 M-1.996-10.498c0,0.251-0.203,0.448-0.455,0.448
				c-0.251,0-0.448-0.197-0.448-0.448s0.197-0.457,0.448-0.457C-2.199-10.954-1.996-10.749-1.996-10.498z M-6.441,2.887"/>
			<path fill="#989898" d="M7.848-11.537c-0.242-0.228-0.574-0.362-0.928-0.362c-0.401,0-0.77,0.173-1.021,0.449
				C6.582-11.473,7.234-11.505,7.848-11.537z"/>
			<polygon fill="#989898" points="0.373,-3.376 0.561,-5.091 -2.059,-3.723 			"/>
			<path fill="#989898" d="M-1.414-11.434c-0.26-0.283-0.629-0.464-1.037-0.464c-0.37,0-0.7,0.142-0.951,0.378
				C-2.783-11.481-2.113-11.458-1.414-11.434z"/>
			<path fill="#989898" d="M-2.995-3.856"/>
		</g>
	</g>
</symbol>
<use xlink:href="#Cart_Non_Active_2"  width="35" height="35" id="XMLID_32_" x="-17.5" y="-17.5" transform="matrix(0.9997 0 0 -1 18 18)" display="none" overflow="visible"/>
<use xlink:href="#Cart_Active"  width="35" height="35" x="-17.5" y="-17.5" transform="matrix(1 0 0 -1 18 18)" overflow="visible"/>
</svg>
