<?xml version="1.0" encoding="utf-8"?>
<!-- Generator: Adobe Illustrator 16.0.4, SVG Export Plug-In . SVG Version: 6.00 Build 0)  -->
<!DOCTYPE svg PUBLIC "-//W3C//DTD SVG 1.1//EN" "http://www.w3.org/Graphics/SVG/1.1/DTD/svg11.dtd">
<svg version="1.1" id="Layer_1" xmlns="http://www.w3.org/2000/svg" xmlns:xlink="http://www.w3.org/1999/xlink" x="0px" y="0px"
	 width="36px" height="36px" viewBox="0 0 36 36" enable-background="new 0 0 36 36" xml:space="preserve">
<g id="search_icon_Active" display="none">
	<g display="inline">
		<path fill="#F3F3F3" d="M18,35C8.626,35,1,27.374,1,18S8.626,1,18,1s17,7.626,17,17S27.374,35,18,35z"/>
		<g>
			<path fill="#4E4E4E" d="M18,1.5c9.098,0,16.5,7.402,16.5,16.5c0,9.098-7.402,16.5-16.5,16.5C8.902,34.5,1.5,27.098,1.5,18
				C1.5,8.901,8.902,1.5,18,1.5 M18,0.5C8.334,0.5,0.5,8.337,0.5,18c0,9.666,7.834,17.5,17.5,17.5c9.665,0,17.5-7.834,17.5-17.5
				C35.5,8.337,27.665,0.5,18,0.5L18,0.5z"/>
		</g>
	</g>
	<g display="inline">
		
			<line fill="none" stroke="#4E4E4E" stroke-width="3" stroke-linecap="round" stroke-miterlimit="10" x1="21.654" y1="21.879" x2="27.152" y2="27.376"/>
		<path fill="#F3F3F3" stroke="#4E4E4E" stroke-width="2" stroke-miterlimit="10" d="M24.122,16.446c0,3.963-3.21,7.175-7.174,7.175
			c-3.965,0-7.179-3.212-7.179-7.175c0-3.964,3.214-7.179,7.179-7.179C20.912,9.267,24.122,12.481,24.122,16.446z"/>
	</g>
</g>
<g id="Search_Non_active_2">
	<g>
		<circle fill="#F3F3F3" cx="18" cy="18.001" r="17.495"/>
	</g>
	<g>
		<g>
			<path fill="#989898" d="M27.151,28.877c-0.384,0-0.768-0.146-1.06-0.438l-5.499-5.498c-0.585-0.586-0.586-1.535,0-2.121
				c0.585-0.586,1.535-0.587,2.12-0.001l5.499,5.498c0.586,0.586,0.586,1.535,0,2.121C27.919,28.73,27.535,28.877,27.151,28.877z"/>
		</g>
		<g>
			<path fill="#F3F3F3" d="M24.121,16.447c0,3.963-3.212,7.176-7.173,7.176c-3.964,0-7.178-3.213-7.178-7.176
				c0-3.964,3.214-7.179,7.178-7.179C20.909,9.268,24.121,12.482,24.121,16.447z"/>
			<path fill="#989898" d="M16.948,24.623c-4.509,0-8.177-3.668-8.177-8.176c0-4.51,3.668-8.179,8.177-8.179
				c4.507,0,8.173,3.669,8.173,8.179C25.121,20.955,21.455,24.623,16.948,24.623z M16.948,10.268c-3.407,0-6.178,2.772-6.178,6.179
				c0,3.406,2.771,6.176,6.178,6.176c3.404,0,6.173-2.771,6.173-6.176C23.121,13.04,20.353,10.268,16.948,10.268z"/>
		</g>
	</g>
</g>
</svg>
