<svg xmlns="http://www.w3.org/2000/svg" width="21" height="17">
    <path d="M20.967 3.615l-2.666 8.123a.639.639 0 0 1-.609.447l-10.981.269a.628.628 0 0 1-.247-.052l-.593 1.666h10.222c.295 0 .533.241.533.538a.534.534 0 0 1-.533.537h-1.141c.199.196.325.468.325.771 0 .597-.48 1.081-1.071 1.081a1.076 1.076 0 0 1-1.071-1.081c0-.303.126-.575.325-.771H8.097c.2.196.325.468.325.771 0 .597-.48 1.081-1.071 1.081s-1.07-.484-1.07-1.081c0-.303.125-.575.325-.771H5.112a.534.534 0 0 1-.5-.72l.959-2.689a.529.529 0 0 1 .327-.323L2.579 1.759.401 1.222A.646.646 0 0 1 .04.386.637.637 0 0 1 .869.022l2.453.645a.643.643 0 0 1 .369.388l.593 1.723a.737.737 0 0 1 .082-.005h15.991c.206 0 .397.099.518.266.119.166.154.38.092.576zm-5.744 7.28h2.003l.444-1.13h-2.447v1.13zm0-2.42h2.857l.529-1.668h-3.386v1.668zM9.181 4.064H4.726l.499 1.453h3.956V4.064zm0 2.743H5.669l.573 1.668h2.939V6.807zm0 2.958H6.687l.48 1.399h2.014V9.765zm4.762-5.701H10.46v1.453h3.483V4.064zm0 2.743H10.46v1.668h3.483V6.807zm0 2.958H10.46v1.399h3.483V9.765zm1.28-5.701v1.453h3.797l.461-1.453h-4.258z"/>
</svg>
