<svg id="Layer_1" data-name="Layer 1" xmlns="http://www.w3.org/2000/svg" viewBox="0 0 291 39"><defs><style>.cls-1{fill:#b3b3b3;}</style></defs><title>YOUR-BEST-SHOT</title><path class="cls-1" d="M5,22.2l-3-10.92H5.28l1.55,7h0l1.65-7h2.72l-3,10.62v7.18H5Z"/><path class="cls-1" d="M11.4,20.17a24.37,24.37,0,0,1,.34-4.39,9.45,9.45,0,0,1,1-2.86,3.94,3.94,0,0,1,1.5-1.53,4.13,4.13,0,0,1,1.95-.47,4.07,4.07,0,0,1,2,.47,3.81,3.81,0,0,1,1.5,1.53,8.93,8.93,0,0,1,1,2.86,23.49,23.49,0,0,1,.34,4.39,23.79,23.79,0,0,1-.34,4.41,8.8,8.8,0,0,1-1,2.84A3.78,3.78,0,0,1,18.1,29a4.07,4.07,0,0,1-2,.46A4.12,4.12,0,0,1,14.2,29a3.9,3.9,0,0,1-1.5-1.54,9.31,9.31,0,0,1-1-2.84A24.69,24.69,0,0,1,11.4,20.17ZM15,22.05c0,1,0,1.75.09,2.35a8.09,8.09,0,0,0,.24,1.41,1.37,1.37,0,0,0,.37.69.78.78,0,0,0,.5.17.76.76,0,0,0,.5-.17,1.37,1.37,0,0,0,.38-.69,8.09,8.09,0,0,0,.24-1.41c.05-.6.08-1.38.08-2.35V18.3c0-1,0-1.75-.08-2.35a7.78,7.78,0,0,0-.24-1.4,1.47,1.47,0,0,0-.38-.69.78.78,0,0,0-.5-.19.8.8,0,0,0-.5.19,1.47,1.47,0,0,0-.37.69A7.78,7.78,0,0,0,15,16c-.06.6-.09,1.38-.09,2.35Z"/><path class="cls-1" d="M22.4,11.28h3.25V25.05a5.65,5.65,0,0,0,0,.59,1.5,1.5,0,0,0,.16.52,1,1,0,0,0,.35.38,1.11,1.11,0,0,0,.58.13,1,1,0,0,0,.93-.48A2.34,2.34,0,0,0,28,25.05V11.28h2.75V24.62a5.14,5.14,0,0,1-1.1,3.72,4.18,4.18,0,0,1-3.05,1.08,5,5,0,0,1-1.71-.26,3.35,3.35,0,0,1-1.32-.82,3.87,3.87,0,0,1-.85-1.48,7.23,7.23,0,0,1-.3-2.24Z"/><path class="cls-1" d="M32.7,11.28h3.65a7.65,7.65,0,0,1,2.1.26,3.93,3.93,0,0,1,1.63.86A4,4,0,0,1,41.13,14a6.55,6.55,0,0,1,.37,2.37,10.21,10.21,0,0,1-.08,1.2,5.94,5.94,0,0,1-.32,1.22,4.31,4.31,0,0,1-.59,1.1,2.87,2.87,0,0,1-.91.82l1.93,8.41H38.25l-1.52-7.66H36v7.66H32.7ZM36,18.83h.65a1.31,1.31,0,0,0,.76-.22,1.72,1.72,0,0,0,.52-.55,2.48,2.48,0,0,0,.29-.78,5.74,5.74,0,0,0,.08-.93,2.86,2.86,0,0,0-.49-2,1.72,1.72,0,0,0-1.31-.51H36Z"/><path class="cls-1" d="M47.73,11.28h4a5.43,5.43,0,0,1,1.52.22,3.87,3.87,0,0,1,2.46,2.14,4.83,4.83,0,0,1,.42,2.14,4.66,4.66,0,0,1-.7,2.57,3.33,3.33,0,0,1-2.2,1.4v.05a4.06,4.06,0,0,1,2.46,1.51,4.78,4.78,0,0,1,.79,2.81,5.55,5.55,0,0,1-.39,2.16,4.72,4.72,0,0,1-1,1.55,4.23,4.23,0,0,1-1.46.93,4.77,4.77,0,0,1-1.72.32H47.73ZM51,18.58A1.91,1.91,0,0,0,52.61,18,3,3,0,0,0,53,16.22,6.76,6.76,0,0,0,52.94,15a1.34,1.34,0,0,0-.33-.72A1.1,1.1,0,0,0,52,14a5.64,5.64,0,0,0-1-.07Zm0,7.9a4.11,4.11,0,0,0,1.17-.15,1.4,1.4,0,0,0,.69-.47,1.74,1.74,0,0,0,.31-.81,8.1,8.1,0,0,0,.08-1.2,5.7,5.7,0,0,0-.09-1.07,1.77,1.77,0,0,0-.34-.8,1.48,1.48,0,0,0-.69-.49A3.26,3.26,0,0,0,51,21.33Z"/><path class="cls-1" d="M57.9,11.28h7.35V14h-4.1v4.55h3v2.9h-3v4.85h4.28v2.75H57.9Z"/><path class="cls-1" d="M68.93,23.92c0,.25,0,.54,0,.86a4.24,4.24,0,0,0,.15.89,1.6,1.6,0,0,0,.41.72,1.13,1.13,0,0,0,.82.28,1.28,1.28,0,0,0,.67-.16,1.51,1.51,0,0,0,.45-.42,1.75,1.75,0,0,0,.25-.56,2.45,2.45,0,0,0,.08-.58,2.42,2.42,0,0,0-.44-1.42,6.73,6.73,0,0,0-1.09-1.2c-.43-.39-.91-.78-1.42-1.18A9.61,9.61,0,0,1,67.4,19.8a7.51,7.51,0,0,1-1.09-1.72,5.65,5.65,0,0,1-.43-2.3,6.44,6.44,0,0,1,.27-1.89,4.51,4.51,0,0,1,.8-1.54,4,4,0,0,1,1.31-1,4.06,4.06,0,0,1,1.82-.39,4,4,0,0,1,1.87.41,3.22,3.22,0,0,1,1.26,1.11,4.94,4.94,0,0,1,.73,1.71,10.62,10.62,0,0,1,.26,2.2H71.3c0-.25,0-.53,0-.84a4.65,4.65,0,0,0-.14-.87,1.56,1.56,0,0,0-.39-.69,1,1,0,0,0-.75-.28,1.08,1.08,0,0,0-.9.45,2,2,0,0,0-.32,1.18,2.32,2.32,0,0,0,.43,1.37,7.65,7.65,0,0,0,1.09,1.22c.43.39.91.79,1.43,1.21a10.43,10.43,0,0,1,1.42,1.4,7.59,7.59,0,0,1,1.09,1.75,5.55,5.55,0,0,1,.44,2.28,6.21,6.21,0,0,1-.29,1.91A4.57,4.57,0,0,1,73.54,28,4.1,4.1,0,0,1,72.14,29a4.57,4.57,0,0,1-1.94.38,3.9,3.9,0,0,1-2.11-.51,3.82,3.82,0,0,1-1.28-1.31,5.39,5.39,0,0,1-.62-1.77A11.54,11.54,0,0,1,66,23.92Z"/><path class="cls-1" d="M77.45,14h-2.8V11.28H83.5V14H80.7V29.08H77.45Z"/><path class="cls-1" d="M91.38,23.92c0,.25,0,.54,0,.86a4.24,4.24,0,0,0,.15.89,1.6,1.6,0,0,0,.41.72,1.12,1.12,0,0,0,.82.28,1.28,1.28,0,0,0,.67-.16,1.51,1.51,0,0,0,.45-.42,1.75,1.75,0,0,0,.25-.56,2.45,2.45,0,0,0,.08-.58,2.42,2.42,0,0,0-.44-1.42,6.73,6.73,0,0,0-1.09-1.2c-.43-.39-.91-.78-1.42-1.18a9.61,9.61,0,0,1-1.43-1.35,7.51,7.51,0,0,1-1.09-1.72,5.65,5.65,0,0,1-.43-2.3,6.44,6.44,0,0,1,.27-1.89,4.51,4.51,0,0,1,.8-1.54,4,4,0,0,1,1.31-1,4.06,4.06,0,0,1,1.82-.39,4,4,0,0,1,1.87.41,3.22,3.22,0,0,1,1.26,1.11,4.94,4.94,0,0,1,.73,1.71,10.62,10.62,0,0,1,.26,2.2h-2.9c0-.25,0-.53,0-.84a4.65,4.65,0,0,0-.14-.87A1.56,1.56,0,0,0,93.2,14a1,1,0,0,0-.75-.28,1.08,1.08,0,0,0-.9.45,2,2,0,0,0-.32,1.18,2.32,2.32,0,0,0,.43,1.37,7.65,7.65,0,0,0,1.09,1.22c.43.39.91.79,1.43,1.21a10.43,10.43,0,0,1,1.42,1.4,7.59,7.59,0,0,1,1.09,1.75,5.55,5.55,0,0,1,.44,2.28,6.21,6.21,0,0,1-.29,1.91A4.57,4.57,0,0,1,96,28,4.1,4.1,0,0,1,94.59,29a4.57,4.57,0,0,1-1.94.38,3.9,3.9,0,0,1-2.11-.51,3.82,3.82,0,0,1-1.28-1.31,5.39,5.39,0,0,1-.62-1.77,11.54,11.54,0,0,1-.16-1.91Z"/><path class="cls-1" d="M98.4,11.28h3.25v7.14h2V11.28H107v17.8H103.7V21.53h-2v7.55H98.4Z"/><path class="cls-1" d="M108.58,20.17a24.48,24.48,0,0,1,.33-4.39,9.17,9.17,0,0,1,1-2.86,3.81,3.81,0,0,1,1.5-1.53,4.07,4.07,0,0,1,2-.47,4.13,4.13,0,0,1,2,.47,3.94,3.94,0,0,1,1.5,1.53,9.45,9.45,0,0,1,1,2.86,24.37,24.37,0,0,1,.34,4.39,24.69,24.69,0,0,1-.34,4.41,9.31,9.31,0,0,1-1,2.84,3.9,3.9,0,0,1-1.5,1.54,4.12,4.12,0,0,1-2,.46,4.07,4.07,0,0,1-2-.46,3.78,3.78,0,0,1-1.5-1.54,9,9,0,0,1-1-2.84A24.8,24.8,0,0,1,108.58,20.17Zm3.55,1.88c0,1,0,1.75.08,2.35a8.09,8.09,0,0,0,.24,1.41,1.37,1.37,0,0,0,.38.69.76.76,0,0,0,.5.17.78.78,0,0,0,.5-.17,1.37,1.37,0,0,0,.37-.69,8.09,8.09,0,0,0,.24-1.41c.06-.6.09-1.38.09-2.35V18.3c0-1,0-1.75-.09-2.35a7.78,7.78,0,0,0-.24-1.4,1.47,1.47,0,0,0-.37-.69.8.8,0,0,0-.5-.19.78.78,0,0,0-.5.19,1.47,1.47,0,0,0-.38.69,7.78,7.78,0,0,0-.24,1.4c-.06.6-.08,1.38-.08,2.35Z"/><path class="cls-1" d="M121.2,14h-2.8V11.28h8.85V14h-2.8V29.08H121.2Z"/><path class="cls-1" d="M134.5,11.28h4.7l2.2,17.8h-3.13l-.47-4h-2.62l-.45,4H132ZM136.58,14h-.06l-1,8.5h2Z"/><path class="cls-1" d="M144.1,14h-2.8V11.28h8.85V14h-2.8V29.08H144.1Z"/><path class="cls-1" d="M157.4,11.28h4.7l2.2,17.8h-3.13l-.47-4h-2.62l-.46,4H154.9ZM159.47,14h-.05l-1,8.5h2Z"/><path class="cls-1" d="M169.4,11.28h2.95l1.15,10.45h.05l1.55-10.45H178l1.43,10.45h.05l1.27-10.45h2.33l-2.33,17.8h-3L176.27,17.8h-.05l-1.6,11.28h-2.85Z"/><path class="cls-1" d="M183.77,20.17a24.37,24.37,0,0,1,.34-4.39,9.45,9.45,0,0,1,1-2.86,3.94,3.94,0,0,1,1.5-1.53,4.13,4.13,0,0,1,2-.47,4.07,4.07,0,0,1,1.95.47,3.81,3.81,0,0,1,1.5,1.53,9.17,9.17,0,0,1,1,2.86,24.48,24.48,0,0,1,.33,4.39,24.8,24.8,0,0,1-.33,4.41,9,9,0,0,1-1,2.84,3.78,3.78,0,0,1-1.5,1.54,4.07,4.07,0,0,1-1.95.46,4.12,4.12,0,0,1-2-.46,3.9,3.9,0,0,1-1.5-1.54,9.31,9.31,0,0,1-1-2.84A24.69,24.69,0,0,1,183.77,20.17Zm3.55,1.88c0,1,0,1.75.09,2.35a8.09,8.09,0,0,0,.24,1.41,1.37,1.37,0,0,0,.37.69.78.78,0,0,0,.5.17.76.76,0,0,0,.5-.17,1.37,1.37,0,0,0,.38-.69,8.09,8.09,0,0,0,.24-1.41c.06-.6.08-1.38.08-2.35V18.3c0-1,0-1.75-.08-2.35a7.78,7.78,0,0,0-.24-1.4,1.47,1.47,0,0,0-.38-.69.78.78,0,0,0-.5-.19.8.8,0,0,0-.5.19,1.47,1.47,0,0,0-.37.69,7.78,7.78,0,0,0-.24,1.4c-.06.6-.09,1.38-.09,2.35Z"/><path class="cls-1" d="M194.9,11.28h3.65a7.69,7.69,0,0,1,2.1.26A3.83,3.83,0,0,1,203.32,14a6.54,6.54,0,0,1,.38,2.37,8.5,8.5,0,0,1-.09,1.2,5.91,5.91,0,0,1-.31,1.22,4.64,4.64,0,0,1-.59,1.1,2.87,2.87,0,0,1-.91.82l1.92,8.41h-3.27l-1.53-7.66h-.77v7.66H194.9Zm3.25,7.55h.65a1.34,1.34,0,0,0,.76-.22,1.59,1.59,0,0,0,.51-.55,2.26,2.26,0,0,0,.29-.78,4.81,4.81,0,0,0,.09-.93,2.86,2.86,0,0,0-.49-2,1.72,1.72,0,0,0-1.31-.51h-.5Z"/><path class="cls-1" d="M205.07,11.28h3.25V26.33h4.15v2.75h-7.4Z"/><path class="cls-1" d="M213.87,11.28h2.83a7,7,0,0,1,3.24.63,4.34,4.34,0,0,1,1.8,1.8,7.81,7.81,0,0,1,.77,2.8c.11,1.09.16,2.32.16,3.66s0,2.48-.15,3.57a8.45,8.45,0,0,1-.7,2.82,4.13,4.13,0,0,1-1.63,1.85,5.73,5.73,0,0,1-3,.67h-3.35Zm3.25,15.05a2.73,2.73,0,0,0,1.2-.22,1.35,1.35,0,0,0,.64-.86,7.16,7.16,0,0,0,.26-1.86c0-.81.05-1.89.05-3.24s0-2.43-.05-3.23a6.9,6.9,0,0,0-.26-1.83,1.33,1.33,0,0,0-.64-.85,2.75,2.75,0,0,0-1.2-.21Z"/><path class="cls-1" d="M229.37,11.28H233a7.65,7.65,0,0,1,2.1.26,3.93,3.93,0,0,1,1.63.86A4,4,0,0,1,237.8,14a6.55,6.55,0,0,1,.37,2.37,10.21,10.21,0,0,1-.08,1.2,5.94,5.94,0,0,1-.32,1.22,4.61,4.61,0,0,1-.58,1.1,3,3,0,0,1-.92.82l1.93,8.41h-3.28l-1.52-7.66h-.78v7.66h-3.25Zm3.25,7.55h.65a1.37,1.37,0,0,0,.77-.22,1.69,1.69,0,0,0,.51-.55,2.48,2.48,0,0,0,.29-.78,5.74,5.74,0,0,0,.08-.93,2.92,2.92,0,0,0-.48-2,1.76,1.76,0,0,0-1.32-.51h-.5Z"/><path class="cls-1" d="M239.55,11.28h7.35V14h-4.1v4.55h3v2.9h-3v4.85h4.27v2.75h-7.52Z"/><path class="cls-1" d="M253.8,17.72a11.78,11.78,0,0,0-.29-3.13c-.19-.61-.49-.92-.89-.92a.94.94,0,0,0-.5.17,1.48,1.48,0,0,0-.43.81,10,10,0,0,0-.3,2q-.12,1.3-.12,3.57c0,1.47,0,2.63.08,3.49a13.29,13.29,0,0,0,.22,2,1.43,1.43,0,0,0,.42.87,1.07,1.07,0,0,0,.63.18c.54,0,.89-.37,1.07-1.13a17.3,17.3,0,0,0,.31-3.09l2.75.13a21.48,21.48,0,0,1-.13,2.38,6.91,6.91,0,0,1-.57,2.2,4.22,4.22,0,0,1-1.29,1.63,4.27,4.27,0,0,1-4.45,0A4.3,4.3,0,0,1,248.89,27a10.58,10.58,0,0,1-.78-2.9,28.51,28.51,0,0,1-.24-3.92,21.15,21.15,0,0,1,.37-4.31,10,10,0,0,1,1-2.86,4.23,4.23,0,0,1,1.47-1.59,3.56,3.56,0,0,1,1.81-.49A3.52,3.52,0,0,1,256,13.05a6.72,6.72,0,0,1,.56,2.15,21.67,21.67,0,0,1,.13,2.42Z"/><path class="cls-1" d="M258.05,20.17a24.48,24.48,0,0,1,.33-4.39,9.17,9.17,0,0,1,1-2.86,3.81,3.81,0,0,1,1.5-1.53,4.07,4.07,0,0,1,1.95-.47,4.13,4.13,0,0,1,1.95.47,3.94,3.94,0,0,1,1.5,1.53,9.18,9.18,0,0,1,1,2.86,23.49,23.49,0,0,1,.34,4.39,23.79,23.79,0,0,1-.34,4.41,9,9,0,0,1-1,2.84,3.9,3.9,0,0,1-1.5,1.54,4.12,4.12,0,0,1-1.95.46,4.07,4.07,0,0,1-1.95-.46,3.78,3.78,0,0,1-1.5-1.54,9,9,0,0,1-1-2.84A24.8,24.8,0,0,1,258.05,20.17Zm3.55,1.88c0,1,0,1.75.09,2.35a7.35,7.35,0,0,0,.23,1.41,1.37,1.37,0,0,0,.38.69.76.76,0,0,0,.5.17.78.78,0,0,0,.5-.17,1.37,1.37,0,0,0,.37-.69,8.09,8.09,0,0,0,.24-1.41c.06-.6.09-1.38.09-2.35V18.3c0-1,0-1.75-.09-2.35a7.78,7.78,0,0,0-.24-1.4,1.47,1.47,0,0,0-.37-.69.8.8,0,0,0-.5-.19.78.78,0,0,0-.5.19,1.47,1.47,0,0,0-.38.69,7.09,7.09,0,0,0-.23,1.4c-.06.6-.09,1.38-.09,2.35Z"/><path class="cls-1" d="M269.17,11.28h3.65a7.65,7.65,0,0,1,2.1.26,3.93,3.93,0,0,1,1.63.86A4,4,0,0,1,277.6,14a6.55,6.55,0,0,1,.37,2.37,8.5,8.5,0,0,1-.09,1.2,5.33,5.33,0,0,1-.31,1.22,4.31,4.31,0,0,1-.59,1.1,2.87,2.87,0,0,1-.91.82L278,29.08h-3.28l-1.52-7.66h-.78v7.66h-3.25Zm3.25,7.55h.65a1.31,1.31,0,0,0,.76-.22,1.72,1.72,0,0,0,.52-.55,2.25,2.25,0,0,0,.28-.78,4.81,4.81,0,0,0,.09-.93,2.86,2.86,0,0,0-.49-2,1.72,1.72,0,0,0-1.31-.51h-.5Z"/><path class="cls-1" d="M279.35,11.28h2.82a7,7,0,0,1,3.24.63,4.34,4.34,0,0,1,1.8,1.8,7.42,7.42,0,0,1,.77,2.8c.11,1.09.17,2.32.17,3.66s0,2.48-.15,3.57a8.7,8.7,0,0,1-.7,2.82,4.22,4.22,0,0,1-1.64,1.85,5.69,5.69,0,0,1-3,.67h-3.35Zm3.25,15.05a2.79,2.79,0,0,0,1.2-.22,1.37,1.37,0,0,0,.63-.86,7.09,7.09,0,0,0,.27-1.86c0-.81.05-1.89.05-3.24s0-2.43-.05-3.23a6.83,6.83,0,0,0-.27-1.83,1.35,1.35,0,0,0-.63-.85,2.81,2.81,0,0,0-1.2-.21Z"/></svg>