<svg xmlns="http://www.w3.org/2000/svg" width="38" height="38" viewBox="0 0 38 38">
    <g fill="none" fill-rule="evenodd">
        <path fill="#0A0B09" d="M37.855 18.982c0 10.218-8.282 18.5-18.5 18.5-10.217 0-18.5-8.282-18.5-18.5 0-10.217 8.283-18.5 18.5-18.5 10.218 0 18.5 8.283 18.5 18.5"/>
        <path fill="#FFFFFE" d="M16.722 22.298l-.01-7.19 6.916 3.609-6.906 3.581zm15.167-8.431s-.246-1.763-1.014-2.539c-.976-1.024-2.065-1.024-2.567-1.09-3.572-.256-8.943-.256-8.943-.256h-.01s-5.371 0-8.952.256c-.502.066-1.592.066-2.558 1.09-.768.776-1.023 2.539-1.023 2.539s-.256 2.065-.256 4.14v1.942c0 2.074.256 4.14.256 4.14s.255 1.762 1.023 2.539c.966 1.023 2.245.994 2.813 1.099 2.047.198 8.697.255 8.697.255s5.381-.009 8.953-.265c.502-.057 1.591-.066 2.567-1.089.768-.777 1.014-2.539 1.014-2.539s.256-2.066.256-4.14v-1.942c0-2.075-.256-4.14-.256-4.14z"/>
    </g>
</svg>
