<?xml version="1.0" encoding="utf-8"?>
<!-- Generator: Adobe Illustrator 16.0.3, SVG Export Plug-In . SVG Version: 6.00 Build 0)  -->
<!DOCTYPE svg PUBLIC "-//W3C//DTD SVG 1.1//EN" "http://www.w3.org/Graphics/SVG/1.1/DTD/svg11.dtd">
<svg version="1.1" id="Layer_1" xmlns="http://www.w3.org/2000/svg" xmlns:xlink="http://www.w3.org/1999/xlink" x="0px" y="0px"
	 width="194.822px" height="50.303px" viewBox="0 0 194.822 50.303" enable-background="new 0 0 194.822 50.303"
	 xml:space="preserve">
<g>
	<g>
		<g>
			<path fill="#ED1C2E" d="M21.752,25.386l-0.004,5.344l-5.634,0.004v-3.541c-0.004,0,0.005-1.803,0.005-1.803
				c-0.003-2.434,3.593-3.269,6.114-3.266c2.485,0.006,6.133,0.832,6.123,3.258l0.03,0.008L28.38,43.576c0,0-0.052,0.29,0.252,0.62
				l-0.097,0.005l-5.121-0.011l-0.371-0.579c-1.224,0.643-2.74,0.896-4.258,0.643c-1.144-0.094-2.669-0.738-2.665-2.766
				l-0.001-7.119c0.039-1.01,0.81-1.871,1.703-2.225c1.438-0.545,3.6-0.538,4.922,0.26l0.01-7.021
				c-0.004,0.004-0.004-0.431-0.478-0.445C22.276,24.937,21.756,24.83,21.752,25.386z M21.756,34.816v6.246c0,0,0,0.388,0.485,0.388
				c0.509,0,0.509-0.388,0.509-0.388v-6.246c0,0,0-0.463-0.509-0.463C21.756,34.353,21.756,34.816,21.756,34.816z"/>
			<path fill="#ED1C2E" d="M49.16,25.386l-0.003,5.344l-5.636,0.004v-3.541c-0.002,0,0.006-1.803,0.006-1.803
				c-0.002-2.434,3.596-3.269,6.117-3.266c2.482,0.006,6.128,0.832,6.118,3.258l0.036,0.008l-0.01,18.186c0,0-0.053,0.29,0.249,0.62
				l-0.093,0.005l-5.122-0.011l-0.37-0.579c-1.226,0.643-2.74,0.896-4.257,0.643c-1.146-0.094-2.671-0.738-2.668-2.766l-0.001-7.119
				c0.039-1.01,0.81-1.871,1.701-2.225c1.438-0.545,3.604-0.538,4.925,0.26l0.007-7.021c-0.002,0.004-0.002-0.431-0.475-0.445
				C49.686,24.937,49.164,24.83,49.16,25.386z M49.164,34.816v6.246c0,0,0,0.388,0.484,0.388c0.51,0,0.51-0.388,0.51-0.388v-6.246
				c0,0,0-0.463-0.51-0.463C49.164,34.353,49.164,34.816,49.164,34.816z"/>
			<path fill="#ED1C2E" d="M39.172,22.329c3.303,0.001,3.06,2.819,3.059,2.808l0.004,10.373c-0.003-0.008,0.045,2.179-2.578,2.176
				h-4.039l0.008,6.52l-5.498-0.003L30.125,22.33L39.172,22.329z M36.737,33.658l-0.003-7.084c0.006-0.818-0.383-0.964-0.853-0.999
				c-0.26,0-0.26,0.303-0.265,0.282l0.003,8.612c0,0,0.002,0.304,0.267,0.309C36.546,34.773,36.74,34.384,36.737,33.658z"/>
			<polygon fill="#ED1C2E" points="57.056,44.202 57.056,22.33 62.838,22.33 62.838,41.673 65.999,41.673 65.999,44.202 			"/>
			<path fill="#ED1C2E" d="M71.938,25.386l-0.003,5.344l-5.633,0.004L66.3,27.193l0.007-1.803c-0.003-2.434,3.593-3.269,6.115-3.266
				c2.484,0.006,6.132,0.832,6.122,3.258l0.03,0.008l-0.007,18.186c0,0-0.052,0.29,0.252,0.62l-0.095,0.005l-5.122-0.011
				l-0.37-0.579c-1.225,0.643-2.744,0.896-4.26,0.643c-1.147-0.094-2.669-0.738-2.664-2.766l-0.002-7.119
				c0.035-1.01,0.811-1.871,1.703-2.225c1.438-0.545,3.6-0.538,4.925,0.26l0.007-7.021c-0.003,0.004-0.003-0.431-0.479-0.445
				C72.463,24.937,71.939,24.83,71.938,25.386z M71.939,34.816v6.246c0,0,0,0.388,0.488,0.388c0.511,0,0.511-0.388,0.511-0.388
				v-6.246c0,0,0-0.463-0.511-0.463C71.939,34.353,71.939,34.816,71.939,34.816z"/>
			<path fill="#ED1C2E" d="M15.739,47.701l-5.604-0.003c0,0-0.15-0.192-0.282-0.55c-0.624-1.925-0.917-3.986-0.919-6.184
				l0.004-4.028c0.026-0.536-0.097-0.997-0.452-1.003c-0.008,0.006-1.878,0.006-1.888,0.002c-0.331,0.004-0.331,0.318-0.329,0.318
				L6.267,47.714l-6.26,0.006L0,22.141l8.896-0.005c2.573,0,4.119,0.2,5.251,1.853c0.936,1.574,0.821,3.751,0.821,5.657
				c-0.018,1.904-0.618,3.596-2.057,4.843c0.186,0.212,0.603,0.562,0.858,0.971c0.738,1.009,0.974,2.235,0.877,3.634
				c0.14,2.371-0.131,4.899,0.59,7.018l0.468,1.479L15.739,47.701z M8.454,32.535c0.241,0,0.438-0.193,0.438-0.436v-6.27
				c0-0.242-0.196-0.438-0.438-0.438H6.703c-0.242,0-0.437,0.195-0.437,0.438v6.27c0,0.242,0.194,0.436,0.437,0.436H8.454z"/>
		</g>
		<path fill="#231F20" d="M80.052,24.272h-0.269v-1.261h0.468c0.327,0,0.521,0.092,0.521,0.381c0,0.23-0.139,0.314-0.308,0.327
			l0.322,0.553h-0.316l-0.29-0.53h-0.129V24.272z M80.289,23.528c0.12,0,0.193-0.024,0.193-0.165c0-0.13-0.139-0.139-0.243-0.139
			h-0.188v0.304H80.289z M80.248,24.812c-0.625,0-1.179-0.43-1.179-1.168c0-0.742,0.554-1.172,1.179-1.172
			c0.616,0,1.172,0.43,1.172,1.172C81.42,24.382,80.864,24.812,80.248,24.812z M80.248,22.745c-0.465,0-0.841,0.358-0.841,0.899
			c0,0.537,0.376,0.9,0.841,0.896v0.004c0.45,0,0.835-0.363,0.835-0.9C81.083,23.103,80.698,22.745,80.248,22.745z"/>
	</g>
	<line fill="none" stroke="#333333" stroke-miterlimit="10" x1="91.721" y1="22.125" x2="91.721" y2="46.875"/>
	<g>
		<path fill="#4D4D4D" d="M96.949,33.238v-7.732h6.358c1.112,0,1.668,0.5,1.668,1.498v1.814c0,0.998-0.556,1.498-1.668,1.498h-0.979
			l3.424,2.922h-2.475l-2.991-2.922h-1.641v2.922H96.949z M102.53,26.824h-3.884v2.174h3.884c0.269,0,0.456-0.031,0.562-0.092
			c0.144-0.09,0.216-0.266,0.216-0.527v-0.936c0-0.262-0.072-0.438-0.216-0.527C102.986,26.855,102.799,26.824,102.53,26.824z"/>
		<path fill="#4D4D4D" d="M108.485,33.238v-7.732h7.595v1.318h-5.868v1.724h3.423v1.319h-3.423v1.917h5.94v1.454H108.485z"/>
		<path fill="#4D4D4D" d="M125.775,26.855h-4.876v1.662h4.643c0.711,0,1.198,0.125,1.463,0.375c0.264,0.25,0.396,0.734,0.396,1.453
			v1.064c0,0.719-0.132,1.203-0.396,1.453s-0.751,0.375-1.46,0.375h-4.589c-0.71,0-1.196-0.125-1.46-0.375s-0.396-0.734-0.396-1.453
			V31.2l1.524-0.329v0.913h5.25v-1.769h-4.631c-0.71,0-1.194-0.124-1.453-0.374c-0.259-0.249-0.389-0.733-0.389-1.453v-0.854
			c0-0.719,0.13-1.203,0.389-1.453s0.743-0.375,1.453-0.375h4.214c0.681,0,1.158,0.12,1.432,0.359c0.273,0.24,0.41,0.686,0.41,1.334
			v0.165l-1.525,0.374V26.855z"/>
		<path fill="#4D4D4D" d="M130.982,33.238v-7.732h6.358c1.112,0,1.668,0.5,1.668,1.498v1.724c0,0.999-0.556,1.499-1.668,1.499
			h-4.661v3.012H130.982z M136.563,26.824h-3.884v2.084h3.884c0.269,0,0.456-0.031,0.562-0.092c0.144-0.092,0.216-0.269,0.216-0.532
			v-0.836c0-0.264-0.072-0.44-0.216-0.532C137.02,26.855,136.832,26.824,136.563,26.824z"/>
		<path fill="#4D4D4D" d="M141.67,33.238v-7.732h7.595v1.318h-5.868v1.724h3.423v1.319h-3.423v1.917h5.94v1.454H141.67z"/>
		<path fill="#4D4D4D" d="M158.759,26.884h-4.66v4.899h4.66v-1.663l1.727,0.375v0.914c0,0.719-0.13,1.203-0.389,1.453
			s-0.743,0.375-1.453,0.375h-4.43c-0.71,0-1.194-0.125-1.453-0.375s-0.389-0.734-0.389-1.453v-4.076
			c0-0.719,0.13-1.203,0.389-1.453s0.743-0.375,1.453-0.375h4.43c0.71,0,1.194,0.125,1.453,0.375s0.389,0.734,0.389,1.453v0.734
			l-1.727,0.285V26.884z"/>
		<path fill="#4D4D4D" d="M167.504,26.884v6.354h-1.726v-6.354h-3.409v-1.379h8.559v1.379H167.504z"/>
		<path fill="#4D4D4D" d="M173.042,33.238v-7.732h7.595v1.318h-5.868v1.724h3.423v1.319h-3.423v1.917h5.94v1.454H173.042z"/>
		<path fill="#4D4D4D" d="M183.902,33.238v-7.732h4.775c1.372,0,2.422,0.335,3.15,1.004c0.729,0.67,1.094,1.609,1.094,2.817
			c0,0.769-0.168,1.468-0.504,2.098c-0.364,0.659-0.873,1.134-1.524,1.423c-0.595,0.26-1.481,0.391-2.661,0.391H183.902z
			 M185.629,31.784h2.229c1.141,0,1.961-0.175,2.46-0.524c0.546-0.379,0.819-1.033,0.819-1.963c0-1.607-0.815-2.412-2.445-2.412
			h-3.063V31.784z"/>
		<path fill="#4D4D4D" d="M96.369,45.224V40.07h4.415c0.772,0,1.159,0.333,1.159,0.999v1.208c0,0.666-0.387,1-1.159,1h-0.679
			l2.377,1.947h-1.718l-2.078-1.947h-1.139v1.947H96.369z M100.245,40.949h-2.697v1.449h2.697c0.187,0,0.316-0.021,0.39-0.061
			c0.1-0.061,0.149-0.178,0.149-0.353v-0.624c0-0.174-0.05-0.291-0.149-0.352C100.562,40.968,100.432,40.949,100.245,40.949z"/>
		<path fill="#4D4D4D" d="M103.392,45.224l2.916-5.154h1.159l2.957,5.154h-1.349l-0.619-1.129h-3.267l-0.6,1.129H103.392z
			 M105.698,43.167h2.258l-1.108-2.098L105.698,43.167z"/>
		<path fill="#4D4D4D" d="M112.081,45.224V40.07h4.415c0.772,0,1.159,0.333,1.159,0.999v1.148c0,0.666-0.387,0.999-1.159,0.999
			h-3.236v2.008H112.081z M115.957,40.949h-2.697v1.389h2.697c0.187,0,0.316-0.021,0.39-0.061c0.1-0.061,0.149-0.18,0.149-0.355
			v-0.557c0-0.176-0.05-0.295-0.149-0.355C116.273,40.969,116.144,40.949,115.957,40.949z"/>
		<path fill="#4D4D4D" d="M118.515,45.224l2.916-5.154h1.159l2.957,5.154h-1.349l-0.619-1.129h-3.267l-0.6,1.129H118.515z
			 M120.821,43.167h2.258l-1.108-2.098L120.821,43.167z"/>
		<path fill="#4D4D4D" d="M127.204,45.224V40.07h1.199v4.186h3.865v0.969H127.204z"/>
		<path fill="#4D4D4D" d="M133.038,45.224l2.916-5.154h1.159l2.957,5.154h-1.349l-0.619-1.129h-3.267l-0.6,1.129H133.038z
			 M135.345,43.167h2.258l-1.108-2.098L135.345,43.167z"/>
		<path fill="#4D4D4D" d="M145.593,45.224V40.07h4.415c0.772,0,1.159,0.333,1.159,0.999v0.629c0,0.507-0.297,0.796-0.889,0.869
			c0.619,0.08,0.929,0.409,0.929,0.989v0.659c0,0.673-0.507,1.009-1.519,1.009H145.593z M149.509,40.909h-2.737v1.229h2.737
			c0.366,0,0.549-0.124,0.549-0.37v-0.489C150.058,41.033,149.875,40.909,149.509,40.909z M149.509,42.987h-2.737v1.308h2.737
			c0.199,0,0.34-0.022,0.419-0.069c0.106-0.066,0.16-0.196,0.16-0.39v-0.389c0-0.193-0.054-0.324-0.16-0.391
			C149.849,43.009,149.708,42.987,149.509,42.987z"/>
		<path fill="#4D4D4D" d="M153.524,45.224V40.07h4.415c0.772,0,1.159,0.333,1.159,0.999v1.208c0,0.666-0.387,1-1.159,1h-0.679
			l2.377,1.947h-1.718l-2.078-1.947h-1.139v1.947H153.524z M157.4,40.949h-2.697v1.449h2.697c0.187,0,0.316-0.021,0.39-0.061
			c0.1-0.061,0.149-0.178,0.149-0.353v-0.624c0-0.174-0.05-0.291-0.149-0.352C157.717,40.968,157.587,40.949,157.4,40.949z"/>
		<path fill="#4D4D4D" d="M160.547,45.224l2.916-5.154h1.159l2.957,5.154h-1.349l-0.619-1.129h-3.267l-0.6,1.129H160.547z
			 M162.854,43.167h2.258l-1.108-2.098L162.854,43.167z"/>
		<path fill="#4D4D4D" d="M169.227,45.224V40.07h0.819l3.626,3.037c0.26,0.219,0.456,0.406,0.589,0.559
			c-0.033-0.479-0.05-0.775-0.05-0.889V40.07h1.079v5.154h-0.819l-3.786-3.187c-0.159-0.134-0.303-0.272-0.429-0.419
			c0.033,0.332,0.05,0.605,0.05,0.818v2.787H169.227z"/>
		<path fill="#4D4D4D" d="M177.917,45.224V40.07h3.316c0.952,0,1.682,0.223,2.188,0.67c0.506,0.445,0.76,1.072,0.76,1.877
			c0,0.514-0.117,0.979-0.35,1.398c-0.254,0.439-0.606,0.756-1.06,0.949c-0.413,0.174-1.028,0.26-1.848,0.26H177.917z
			 M179.116,44.255h1.548c0.793,0,1.362-0.117,1.708-0.35c0.38-0.254,0.569-0.689,0.569-1.309c0-1.072-0.565-1.608-1.698-1.608
			h-2.127V44.255z"/>
		<path fill="#4D4D4D" d="M190.843,40.968h-3.386v1.109h3.224c0.494,0,0.832,0.084,1.016,0.25s0.275,0.489,0.275,0.969v0.709
			c0,0.479-0.091,0.803-0.274,0.969c-0.184,0.167-0.521,0.25-1.014,0.25h-3.187c-0.493,0-0.831-0.083-1.014-0.25
			c-0.184-0.166-0.275-0.489-0.275-0.969v-0.14l1.06-0.22v0.609h3.646v-1.179h-3.217c-0.492,0-0.829-0.083-1.009-0.25
			s-0.27-0.489-0.27-0.969v-0.569c0-0.479,0.09-0.803,0.27-0.969s0.517-0.25,1.009-0.25h2.927c0.474,0,0.805,0.08,0.994,0.24
			c0.19,0.159,0.285,0.455,0.285,0.889v0.109l-1.06,0.25V40.968z"/>
	</g>
</g>
</svg>
