<?xml version="1.0" encoding="utf-8"?>
<!-- Generator: Adobe Illustrator 16.0.3, SVG Export Plug-In . SVG Version: 6.00 Build 0)  -->
<!DOCTYPE svg PUBLIC "-//W3C//DTD SVG 1.1//EN" "http://www.w3.org/Graphics/SVG/1.1/DTD/svg11.dtd">
<svg version="1.1" id="Layer_1" xmlns="http://www.w3.org/2000/svg" xmlns:xlink="http://www.w3.org/1999/xlink" x="0px" y="0px"
	 width="65px" height="12px" viewBox="0 0 65 12" enable-background="new 0 0 65 12" xml:space="preserve">
<g opacity="0.75">
	<path opacity="0.75" d="M63.921,3.383h-0.125v-0.58h0.217c0.15,0,0.239,0.042,0.239,0.175c0,0.105-0.063,0.146-0.142,0.151
		l0.149,0.254h-0.146l-0.135-0.245h-0.058V3.383z M64.029,3.041c0.056,0,0.089-0.014,0.089-0.077c0-0.059-0.063-0.062-0.111-0.062
		h-0.086v0.14H64.029z M64.011,3.631c-0.288,0-0.542-0.198-0.542-0.538c0-0.341,0.254-0.54,0.542-0.54
		c0.285,0,0.539,0.199,0.539,0.54C64.55,3.433,64.296,3.631,64.011,3.631z M64.011,2.68c-0.215,0-0.387,0.165-0.387,0.413
		s0.172,0.414,0.387,0.413v0.001c0.208,0,0.385-0.166,0.385-0.414S64.219,2.68,64.011,2.68z"/>
	<path fill="#898989" d="M44.36,4.351c-0.461-0.061-0.615-0.523-0.993-0.525c-0.006,0.002-1.926,0.002-1.93,0
		c0,0-0.243,0.01-0.242,0.114L41.2,4.538c0,0-0.1,0.275,0.266,0.274l1.076,0.001c0.352-0.115,0.521-0.487,1.026-0.496
		c0.186-0.017,0.314,0.021,0.467,0.081c0.437,0.243,0.121,0.512,0.257,0.629c0.134-0.203,0.385-0.473,0.583-0.67
		C44.565,4.402,44.36,4.351,44.36,4.351z M37.446,7.998c0.297-0.126,0.857-0.107,0.928-0.377l0.001-0.26V3.918
		c-0.003-0.174-0.744-0.138-1.039-0.279c-0.225-0.1-0.229-0.303-0.085-0.428c0.121-0.173,0.464-0.227,1.019-0.227
		c2.139-0.001,6.256,0,6.25,0c0.844,0.054,0.635,0.464,0.832,0.7l0.107,0.269h0.065c1.298-0.699,3-1.031,4.963-0.936
		c0.908,0.062,1.815,0.256,2.57,0.505l-0.01-0.011c-0.175-0.137-0.094-0.314,0.081-0.407c0.155-0.092,0.373-0.119,0.594-0.136
		c1.216,0.042,2.478,0.037,3.684,0.012c0.307,0.012,0.668,0.056,0.777,0.227c0.141,0.202-0.113,0.367-0.355,0.515l0.066,0.11
		l0.849,0.659h0.034l0.86-0.674c0.048-0.105-0.294-0.12-0.472-0.209c-0.208-0.124-0.249-0.236-0.15-0.379
		c0.089-0.136,0.391-0.214,0.654-0.246c1.07,0.042,2.194,0.042,2.923,0.001c0.296,0.012,0.536,0.138,0.611,0.27
		c0.055,0.181-0.133,0.346-0.441,0.443c-0.406,0.114-0.999,0.068-1.229,0.337l-1.69,1.347h0.01l2.491,2.044
		c0.281,0.308,0.95,0.435,1.541,0.517c0.21,0.062,0.318,0.166,0.36,0.274c0.021,0.111-0.024,0.231-0.177,0.313
		c-0.154,0.076-0.176,0.103-0.527,0.12c-1.239-0.052-2.498-0.053-3.827-0.001c-0.48-0.017-0.782-0.037-0.809-0.246
		c-0.041-0.251,0.876-0.437,0.578-0.601l0,0L58.18,6.765l-0.064-0.021c-0.463,0.351-0.927,0.693-1.345,1.057
		c-0.022,0.12,0.285,0.142,0.393,0.24c0.132,0.088,0.23,0.193,0.174,0.312c-0.023,0.132-0.265,0.231-0.484,0.285l-0.541,0.024
		c-0.683-0.058-1.684-0.03-2.524-0.009c-0.207-0.038-0.487-0.071-0.596-0.18c-0.108-0.101-0.118-0.225-0.097-0.341l-0.032-0.017
		c-1.561,0.528-3.897,0.695-5.661,0.274c-1.356-0.319-2.646-0.984-2.992-1.71c-0.174-0.202-0.194-0.444-0.279-0.669L44.074,5.99
		c-0.197,0.077-0.288,0.113-0.631,0.093c-0.471-0.035-0.548-0.406-0.881-0.407c0.004,0.001-1.229,0.001-1.228,0.003
		c-0.099,0.017-0.142,0.071-0.143,0.12l0.007,1.926c0.271,0.304,0.977,0.176,1.14,0.429c0.053,0.076,0.053,0.187-0.003,0.263
		c-0.12,0.125-0.223,0.216-0.614,0.229c-0.889-0.023-1.83-0.073-2.763-0.037c-0.527,0.011-1.163,0.135-1.602-0.063
		c-0.152-0.077-0.196-0.17-0.217-0.269C37.162,8.165,37.271,8.074,37.446,7.998z M47.096,5.096
		c-0.278,0.559-0.337,1.276,0.229,1.776c0.446,0.445,1.354,0.887,2.429,0.871c1.25-0.036,2.23-0.644,2.628-1.174
		c0.456-0.887,0.177-1.918-1.42-2.485c-0.579-0.222-1.512-0.311-2.147-0.098C47.936,4.209,47.384,4.657,47.096,5.096z M53.684,3.764
		c0.819,0.419,1.32,0.907,1.591,1.445c0.475,1.008-0.297,1.93-1.607,2.645l0.011,0.019c0.438-0.013,0.878-0.074,1.165-0.261
		l2.201-1.766l0,0c-0.73-0.554-1.471-1.162-2.2-1.719C54.581,3.908,54.155,3.786,53.684,3.764z"/>
	<path stroke="#000000" stroke-width="0" stroke-linecap="square" stroke-miterlimit="2" d="M31.312,4.047"/>
	<path fill="#898989" d="M31.699,3.827c0,0-0.385-0.027-0.387,0.22c0.002,0.114,0.006,0.52,0.003,0.601
		c-0.001,0.104,0.04,0.166,0.188,0.168h0.867c0.261-0.002,0.301-0.611,1.222-0.428c0.252,0.077,0.3,0.233,0.283,0.357
		c-0.146,0.34-0.083,0.68-0.028,1.029c0.021,0.144-0.167,0.271-0.431,0.318c-0.264,0.05-0.548-0.001-0.733-0.095
		c-0.219-0.099-0.295-0.252-0.558-0.313c-0.252-0.001-0.691-0.061-0.824,0.099c0,0.003-0.014,1.779-0.003,1.777
		c0.003,0.111,0.085,0.165,0.402,0.164l2.226,0.001c0.472,0,0.458-0.339,0.667-0.509c0.1-0.077,0.286-0.194,0.506-0.189
		c0.307-0.017,0.461,0.017,0.668,0.122C36.043,7.281,36.001,7.473,36,7.586v0.793c0.001,0.098-0.159,0.253-0.562,0.253l-0.312,0.001
		h-6.926c-0.341-0.001-0.668-0.094-0.798-0.259c-0.055-0.099-0.032-0.22,0.079-0.306c0.265-0.209,1.077-0.212,1.077-0.463
		l-0.002-0.981l-0.001-2.521c0.003-0.136,0.154-0.345-0.705-0.366c-0.23,0.021-0.677,0.001-0.714,0.259l-0.005,0.207l-0.002,2.639
		c-0.125,0.664-1.151,1.322-2.382,1.588c-1.845,0.398-4.377,0.294-5.918-0.354c-0.044-0.012-0.088,0.016-0.088,0.037
		c0.003,0.176,0.03,0.479-0.469,0.501l-0.532,0.008l-6.913,0.002c-0.498-0.006-0.882-0.164-0.914-0.366
		C9.55,8.397,9.152,8.528,8.564,8.601l-0.53,0.016l-6.44,0.001C1.231,8.605,0.855,8.598,0.638,8.45
		C0.531,8.35,0.549,8.255,0.604,8.157c0.133-0.273,1.01-0.279,1.077-0.551L1.686,7.34l-0.01-3.296
		C1.655,3.814,1.267,3.801,0.972,3.707C0.627,3.615,0.462,3.519,0.45,3.365c-0.002-0.257,0.409-0.354,0.827-0.38h0.066h5.58
		c1.214-0.001,2.215,0.54,2.439,1.006C9.568,4.419,9.28,4.834,8.741,5.136l0,0C10.304,5.608,10.807,6.19,11,6.772V6.701l0.005-2.722
		c-0.002-0.221-0.948-0.364-0.962-0.432c-0.135-0.03-0.37-0.241-0.038-0.412c0.23-0.131,0.606-0.15,0.64-0.15
		c0,0,1.766,0.026,1.879,0.026c0.178,0,1.702-0.036,1.824-0.021c0.208,0,0.465,0.026,0.607,0.153c0.2,0.134,0.186,0.251-0.02,0.401
		c-0.342,0.26-1.15,0.151-1.157,0.421l0.013,3.513c0.01,0.093,0.007,0.226,0.36,0.226c0,0,2.169,0,2.174-0.001
		c0.599,0.001,0.539-0.657,1.373-0.776l0.055-0.028l0.01-2.949c-0.143-0.133-0.472-0.115-0.657-0.215
		c-0.339-0.1-0.371-0.258-0.392-0.429c-0.01-0.096,0.251-0.322,0.569-0.321c0.079-0.036,1.792,0.04,1.984,0.04
		c0.302,0,1.85-0.082,1.999-0.04c0.221-0.001,0.394,0.116,0.459,0.21c0.152,0.202,0.008,0.42-0.3,0.522
		c-0.166,0.076-0.925,0.106-0.929,0.326l0.007,2.714c0.093,0.352,0.667,0.646,1.312,0.773c1.02,0.193,2.313,0.109,3.104-0.269
		c0.231-0.126,0.395-0.269,0.407-0.438c0,0-0.003-2.867-0.002-2.874c-0.273-0.182-0.809-0.214-0.961-0.434
		c-0.076-0.115-0.086-0.259,0.014-0.367c0.1-0.077,0.233-0.146,0.465-0.166l9.588-0.001c0.756,0.039,0.775,0.535,0.918,0.776
		c0.104,0.175,0.195,0.434-0.145,0.548c-0.275,0.077-0.647,0.061-0.921-0.006c-0.461-0.089-0.473-0.398-0.922-0.477L31.699,3.827z
		 M4.464,3.988c-0.001,0.226,0,0.692-0.001,0.694C4.484,4.759,4.608,4.783,4.73,4.795c0.613,0.017,1.403,0.1,1.865-0.145
		c0.253-0.17,0.31-0.39,0.069-0.57c-0.403-0.33-1.271-0.228-1.95-0.229C4.583,3.856,4.464,3.898,4.464,3.988z M4.462,7.573
		c0.032,0.051,0.002,0.105,0.216,0.131l1.766-0.001c0.776,0.002,1.306-0.118,1.625-0.42c0.277-0.405,0.288-0.859-0.479-1.217
		c-0.691-0.38-1.473-0.398-2.338-0.361C4.954,5.717,4.492,5.75,4.469,5.893L4.462,7.573z"/>
	<g>
		<path fill="#FFFFFF" stroke="#898989" stroke-width="0.8833" d="M1.506,3.278l5.102-0.001c0.812,0.039,1.629,0.267,1.988,0.651
			c0.185,0.242,0.227,0.57-0.038,0.796c-0.275,0.241-0.792,0.36-1.253,0.453L7.304,5.193c1.271,0.123,2.529,0.673,2.908,1.299
			c0.369,0.56,0.058,1.151-0.854,1.535c-0.627,0.228-1.332,0.324-2.154,0.3L1.482,8.328C1.367,8.329,1.325,8.329,1.269,8.266
			c-0.031-0.089,0.17-0.167,0.334-0.197C2.066,7.98,2.367,7.828,2.37,7.697L2.365,7.559L2.37,5.261L2.369,3.897
			C2.301,3.589,1.312,3.566,1.236,3.394C1.215,3.334,1.258,3.278,1.506,3.278z M3.917,6.891c0,0.003,0,0.809-0.001,0.866
			c0.068,0.24,0.548,0.271,0.87,0.272l1.866-0.001c0.789-0.026,1.698-0.289,1.964-0.683c0.289-0.434,0.151-0.866-0.214-1.192
			C7.895,5.701,6.886,5.416,5.845,5.41C5.28,5.406,3.917,5.414,3.917,5.841C3.917,5.845,3.918,6.887,3.917,6.891z M3.917,4.831
			c0.006,0.003,0,0,0-0.002c0.082,0.196,0.449,0.239,0.691,0.246c0.921-0.011,1.973,0.078,2.523-0.331
			C7.386,4.54,7.388,4.224,7.192,4.009c-0.414-0.456-1.448-0.458-2.311-0.42c-0.28,0.012-0.965-0.036-0.963,0.185L3.917,4.831z
			 M12.525,3.306C11.77,3.307,11.03,3.231,10.65,3.27c-0.088,0.021-0.196,0.044-0.144,0.132c0.284,0.208,1.194,0.11,1.171,0.467
			l-0.037,3.783c-0.012,0.099-0.067,0.191-0.243,0.252c-0.264,0.104-0.848,0.125-0.835,0.311c0.021,0.038,0.097,0.115,0.328,0.115
			l6.458-0.001c0.369,0.001,0.685-0.005,0.697-0.118V7.366c-0.013-0.085-0.122-0.112-0.263-0.077
			c-0.512,0.229-0.572,0.739-1.23,0.739l-2.551,0.001l0,0c-0.245-0.001-0.488-0.018-0.631-0.09c-0.131-0.056-0.218-0.133-0.218-0.22
			V6.309l0.002-2.436h-0.003c-0.066-0.382,0.865-0.245,1.245-0.477c0.018-0.001,0.113-0.118-0.065-0.117
			C14.018,3.223,13.268,3.306,12.525,3.306z M17.35,3.402c0.218,0.213,0.821,0.154,1.056,0.381l0.001,2.888
			c-0.01,0.64,0.886,1.245,2.102,1.473c1.313,0.319,3.156,0.246,4.397-0.108c0.956-0.271,1.551-0.771,1.632-1.297l-0.014-2.982
			c0.062-0.209,0.72-0.224,0.847-0.332c0.045-0.038,0.034-0.093-0.043-0.12c-0.273-0.056-0.756-0.008-1.062-0.014
			c-0.417,0-0.702-0.04-1.086,0.004c-0.066,0.021-0.154,0.066-0.1,0.12c0.229,0.176,0.717,0.141,0.902,0.333l0.008,2.974
			c-0.024,0.312-0.268,0.587-0.74,0.795c-1.022,0.48-2.767,0.512-3.981,0.218c-0.69-0.16-1.356-0.562-1.441-0.969l0.008-2.762
			l-0.003-0.184c-0.003-0.245,1.025-0.165,1.191-0.438c-0.011-0.056-0.069-0.095-0.298-0.09c-0.592,0.027-1.115,0.036-1.753,0.024
			c-0.504-0.009-0.975-0.071-1.457-0.04C17.404,3.286,17.35,3.347,17.35,3.402z M28.127,3.464c0.372,0.126,1.062,0.132,1.028,0.451
			l-0.008,3.767c-0.034,0.223-0.491,0.338-0.854,0.414c-0.109,0.032-0.285,0.065-0.264,0.148c0.119,0.12,0.407,0.085,0.654,0.084
			l6.428,0.001c0.109-0.011,0.27-0.079,0.302-0.146c-0.001-0.011,0.002-0.731,0.002-0.731l-0.004-0.006
			c0.001-0.228-0.3-0.192-0.425-0.047c-0.191,0.22-0.232,0.629-0.958,0.629c0.013,0-2.167-0.001-2.152,0h-0.267
			c-0.843,0-0.924-0.284-0.944-0.443l0.004-2.004v0.001c0.098-0.281,1.129-0.177,1.656-0.198c0.429,0.074,0.47,0.271,0.731,0.384
			c0.055,0.014,0.131,0.014,0.164-0.021C33.31,5.566,33.18,5.38,33.18,5.188c-0.009-0.16,0.121-0.278,0.125-0.455
			c0.039-0.042,0.023-0.139-0.175-0.072c-0.212,0.111-0.308,0.426-0.663,0.428c0.013-0.002-1.372,0.007-1.368-0.003
			c-0.223,0.001-0.429-0.087-0.432-0.355c0.003,0.008,0.003-0.842,0-0.848c0.003-0.191,0.278-0.336,0.664-0.335l2.252-0.002
			c0.499,0.001,0.678,0.527,1.063,0.542c0.076-0.004,0.153-0.043,0.132-0.081c-0.086-0.242-0.326-0.729-0.64-0.729
			c-0.001,0-5.784,0-5.787,0C27.895,3.293,27.963,3.433,28.127,3.464z"/>
		<path fill="#FFFFFF" stroke="#898989" stroke-width="0.8833" d="M37.974,3.442c0.405,0.065,1.084,0.132,1.085,0.396l0.002,3.891
			l-0.031,0.095c-0.144,0.191-0.572,0.307-0.935,0.366c-0.077,0.026-0.22,0.044-0.209,0.104c-0.011,0.034,0.065,0.05,0.11,0.061
			c1.173-0.084,2.456-0.072,3.64-0.01c0.065-0.011,0.131-0.043,0.11-0.088c-0.22-0.115-0.582-0.095-0.821-0.198
			c-0.23-0.095-0.341-0.188-0.372-0.332l0.001-1.892L40.55,5.581c0.001-0.197,0.454-0.197,0.647-0.196l1.582-0.004
			c0.362,0.003,0.41,0.143,0.541,0.225c0.109,0.049,0.109,0.147,0.284,0.153c0.056-0.016,0.045-0.043,0.066-0.064
			c-0.085-0.309-0.127-0.638-0.016-0.944c0-0.037-0.054-0.104-0.164-0.071c-0.197,0.137-0.403,0.408-0.742,0.408
			c-0.006,0-1.552,0-1.555,0.004c-0.164-0.004-0.644,0.056-0.644-0.278c0,0.001,0-1.048,0-1.048c0-0.108,0.303-0.218,0.644-0.221
			l2.494,0.003c0.405,0.067,0.543,0.311,0.794,0.448l0.144,0.028c0.042-0.006,0.065-0.028,0.088-0.044
			c0.022-0.165-0.119-0.313-0.173-0.468c-0.043-0.075-0.075-0.186-0.262-0.197l-6.24,0.001C37.896,3.32,37.797,3.403,37.974,3.442z"
			/>
		<path fill="#FFFFFF" stroke="#898989" stroke-width="0.8833" d="M47.906,3.475c1.855-0.37,4.091-0.136,5.458,0.596
			c1.267,0.639,1.711,1.582,1.189,2.463c-0.444,0.8-1.996,1.565-3.642,1.733c-2.073,0.237-4.067-0.15-5.3-1.018
			c-1.06-0.722-1.14-1.904-0.201-2.676C45.95,4.085,46.908,3.682,47.906,3.475z M46.515,5.062c-0.489,0.938-0.155,1.954,1.255,2.623
			c0.798,0.381,2.091,0.52,3.09,0.269c1.264-0.294,1.958-0.935,2.225-1.558c0.359-0.999-0.149-2.013-1.791-2.597
			c-0.82-0.287-2.137-0.307-2.981-0.027C47.356,4.065,46.781,4.569,46.515,5.062z"/>
		<path fill="#FFFFFF" stroke="#898989" stroke-width="0.8833" d="M53.719,3.419c0.713,0.033,1.393,0.237,1.739,0.572l2.361,1.88
			l0,0l-2.387,1.888c-0.375,0.307-1.022,0.38-1.615,0.463c-0.056,0.038-0.012,0.092,0.065,0.1c0.867-0.016,1.777-0.02,2.633,0.015
			l0.12-0.044c-0.021-0.133-0.351-0.16-0.47-0.275c-0.098-0.076-0.141-0.181-0.074-0.269c0,0,2.056-1.618,2.058-1.618h-0.002
			l2.05,1.656c0.238,0.248-0.334,0.324-0.567,0.486c-0.068,0.063-0.026,0.112,0.24,0.067c1.185-0.053,2.335-0.049,3.53-0.009
			l0.133-0.027c0.053-0.028,0.01-0.07-0.044-0.099c-0.58-0.062-1.16-0.198-1.532-0.469L59.83,6.039l-0.796-0.655h0.019l1.966-1.58
			c0.187-0.147,0.463-0.252,0.77-0.312c0.197-0.053,0.445-0.062,0.646-0.108c0.225-0.064,0.055-0.109-0.022-0.119
			c-0.903,0.042-1.739,0.062-2.628,0.016l-0.089,0.033c-0.012,0.149,0.372,0.145,0.524,0.259c0.12,0.054,0.143,0.143,0.131,0.22
			l-1.599,1.344l0,0l-1.375-1.068c-0.163-0.139-0.35-0.271-0.382-0.429c0.023-0.159,0.452-0.165,0.508-0.302
			c-0.012-0.038-0.088-0.048-0.154-0.049c-1.141,0.037-2.357,0.034-3.52-0.005C53.677,3.271,53.565,3.381,53.719,3.419z"/>
	</g>
	<g>
		<path fill="#494949" d="M1.506,3.278l5.102-0.001c0.812,0.039,1.629,0.267,1.988,0.651c0.185,0.242,0.227,0.57-0.038,0.796
			c-0.275,0.241-0.792,0.36-1.253,0.453L7.304,5.193c1.271,0.123,2.529,0.673,2.908,1.299c0.369,0.56,0.058,1.151-0.854,1.535
			c-0.627,0.228-1.332,0.324-2.154,0.3L1.482,8.328C1.367,8.329,1.325,8.329,1.269,8.266c-0.031-0.089,0.17-0.167,0.334-0.197
			C2.066,7.98,2.367,7.828,2.37,7.697L2.365,7.559L2.37,5.261L2.369,3.897C2.301,3.589,1.312,3.566,1.236,3.394
			C1.215,3.334,1.258,3.278,1.506,3.278z M3.917,6.891c0,0.003,0,0.809-0.001,0.866c0.068,0.24,0.548,0.271,0.87,0.272l1.866-0.001
			c0.789-0.026,1.698-0.289,1.964-0.683c0.289-0.434,0.151-0.866-0.214-1.192C7.895,5.701,6.886,5.416,5.845,5.41
			C5.28,5.406,3.917,5.414,3.917,5.841C3.917,5.845,3.918,6.887,3.917,6.891z M3.917,4.831c0.006,0.003,0,0,0-0.002
			c0.082,0.196,0.449,0.239,0.691,0.246c0.921-0.011,1.973,0.078,2.523-0.331C7.386,4.54,7.388,4.224,7.192,4.009
			c-0.414-0.456-1.448-0.458-2.311-0.42c-0.28,0.012-0.965-0.036-0.963,0.185L3.917,4.831z M12.525,3.306
			C11.77,3.307,11.03,3.231,10.65,3.27c-0.088,0.021-0.196,0.044-0.144,0.132c0.284,0.208,1.194,0.11,1.171,0.467l-0.037,3.783
			c-0.012,0.099-0.067,0.191-0.243,0.252c-0.264,0.104-0.848,0.125-0.835,0.311c0.021,0.038,0.097,0.115,0.328,0.115l6.458-0.001
			c0.369,0.001,0.685-0.005,0.697-0.118V7.366c-0.013-0.085-0.122-0.112-0.263-0.077c-0.512,0.229-0.572,0.739-1.23,0.739
			l-2.551,0.001l0,0c-0.245-0.001-0.488-0.018-0.631-0.09c-0.131-0.056-0.218-0.133-0.218-0.22V6.309l0.002-2.436h-0.003
			c-0.066-0.382,0.865-0.245,1.245-0.477c0.018-0.001,0.113-0.118-0.065-0.117C14.018,3.223,13.268,3.306,12.525,3.306z
			 M17.35,3.402c0.218,0.213,0.821,0.154,1.056,0.381l0.001,2.888c-0.01,0.64,0.886,1.245,2.102,1.473
			c1.313,0.319,3.156,0.246,4.397-0.108c0.956-0.271,1.551-0.771,1.632-1.297l-0.014-2.982c0.062-0.209,0.72-0.224,0.847-0.332
			c0.045-0.038,0.034-0.093-0.043-0.12c-0.273-0.056-0.756-0.008-1.062-0.014c-0.417,0-0.702-0.04-1.086,0.004
			c-0.066,0.021-0.154,0.066-0.1,0.12c0.229,0.176,0.717,0.141,0.902,0.333l0.008,2.974c-0.024,0.312-0.268,0.587-0.74,0.795
			c-1.022,0.48-2.767,0.512-3.981,0.218c-0.69-0.16-1.356-0.562-1.441-0.969l0.008-2.762l-0.003-0.184
			c-0.003-0.245,1.025-0.165,1.191-0.438c-0.011-0.056-0.069-0.095-0.298-0.09c-0.592,0.027-1.115,0.036-1.753,0.024
			c-0.504-0.009-0.975-0.071-1.457-0.04C17.404,3.286,17.35,3.347,17.35,3.402z M28.127,3.464c0.372,0.126,1.062,0.132,1.028,0.451
			l-0.008,3.767c-0.034,0.223-0.491,0.338-0.854,0.414c-0.109,0.032-0.285,0.065-0.264,0.148c0.119,0.12,0.407,0.085,0.654,0.084
			l6.428,0.001c0.109-0.011,0.27-0.079,0.302-0.146c-0.001-0.011,0.002-0.731,0.002-0.731l-0.004-0.006
			c0.001-0.228-0.3-0.192-0.425-0.047c-0.191,0.22-0.232,0.629-0.958,0.629c0.013,0-2.167-0.001-2.152,0h-0.267
			c-0.843,0-0.924-0.284-0.944-0.443l0.004-2.004v0.001c0.098-0.281,1.129-0.177,1.656-0.198c0.429,0.074,0.47,0.271,0.731,0.384
			c0.055,0.014,0.131,0.014,0.164-0.021C33.31,5.566,33.18,5.38,33.18,5.188c-0.009-0.16,0.121-0.278,0.125-0.455
			c0.039-0.042,0.023-0.139-0.175-0.072c-0.212,0.111-0.308,0.426-0.663,0.428c0.013-0.002-1.372,0.007-1.368-0.003
			c-0.223,0.001-0.429-0.087-0.432-0.355c0.003,0.008,0.003-0.842,0-0.848c0.003-0.191,0.278-0.336,0.664-0.335l2.252-0.002
			c0.499,0.001,0.678,0.527,1.063,0.542c0.076-0.004,0.153-0.043,0.132-0.081c-0.086-0.242-0.326-0.729-0.64-0.729
			c-0.001,0-5.784,0-5.787,0C27.895,3.293,27.963,3.433,28.127,3.464z"/>
		<path fill="#494949" d="M37.974,3.442c0.405,0.065,1.084,0.132,1.085,0.396l0.002,3.891l-0.031,0.095
			c-0.144,0.191-0.572,0.307-0.935,0.366c-0.077,0.026-0.22,0.044-0.209,0.104c-0.011,0.034,0.065,0.05,0.11,0.061
			c1.173-0.084,2.456-0.072,3.64-0.01c0.065-0.011,0.131-0.043,0.11-0.088c-0.22-0.115-0.582-0.095-0.821-0.198
			c-0.23-0.095-0.341-0.188-0.372-0.332l0.001-1.892L40.55,5.581c0.001-0.197,0.454-0.197,0.647-0.196l1.582-0.004
			c0.362,0.003,0.41,0.143,0.541,0.225c0.109,0.049,0.109,0.147,0.284,0.153c0.056-0.016,0.045-0.043,0.066-0.064
			c-0.085-0.309-0.127-0.638-0.016-0.944c0-0.037-0.054-0.104-0.164-0.071c-0.197,0.137-0.403,0.408-0.742,0.408
			c-0.006,0-1.552,0-1.555,0.004c-0.164-0.004-0.644,0.056-0.644-0.278c0,0.001,0-1.048,0-1.048c0-0.108,0.303-0.218,0.644-0.221
			l2.494,0.003c0.405,0.067,0.543,0.311,0.794,0.448l0.144,0.028c0.042-0.006,0.065-0.028,0.088-0.044
			c0.022-0.165-0.119-0.313-0.173-0.468c-0.043-0.075-0.075-0.186-0.262-0.197l-6.24,0.001C37.896,3.32,37.797,3.403,37.974,3.442z"
			/>
		<path fill="#494949" d="M47.906,3.475c1.855-0.37,4.091-0.136,5.458,0.596c1.267,0.639,1.711,1.582,1.189,2.463
			c-0.444,0.8-1.996,1.565-3.642,1.733c-2.073,0.237-4.067-0.15-5.3-1.018c-1.06-0.722-1.14-1.904-0.201-2.676
			C45.95,4.085,46.908,3.682,47.906,3.475z M46.515,5.062c-0.489,0.938-0.155,1.954,1.255,2.623c0.798,0.381,2.091,0.52,3.09,0.269
			c1.264-0.294,1.958-0.935,2.225-1.558c0.359-0.999-0.149-2.013-1.791-2.597c-0.82-0.287-2.137-0.307-2.981-0.027
			C47.356,4.065,46.781,4.569,46.515,5.062z"/>
		<path fill="#494949" d="M53.719,3.419c0.713,0.033,1.393,0.237,1.739,0.572l2.361,1.88l0,0l-2.387,1.888
			c-0.375,0.307-1.022,0.38-1.615,0.463c-0.056,0.038-0.012,0.092,0.065,0.1c0.867-0.016,1.777-0.02,2.633,0.015l0.12-0.044
			c-0.021-0.133-0.351-0.16-0.47-0.275c-0.098-0.076-0.141-0.181-0.074-0.269c0,0,2.056-1.618,2.058-1.618h-0.002l2.05,1.656
			c0.238,0.248-0.334,0.324-0.567,0.486c-0.068,0.063-0.026,0.112,0.24,0.067c1.185-0.053,2.335-0.049,3.53-0.009l0.133-0.027
			c0.053-0.028,0.01-0.07-0.044-0.099c-0.58-0.062-1.16-0.198-1.532-0.469L59.83,6.039l-0.796-0.655h0.019l1.966-1.58
			c0.187-0.147,0.463-0.252,0.77-0.312c0.197-0.053,0.445-0.062,0.646-0.108c0.225-0.064,0.055-0.109-0.022-0.119
			c-0.903,0.042-1.739,0.062-2.628,0.016l-0.089,0.033c-0.012,0.149,0.372,0.145,0.524,0.259c0.12,0.054,0.143,0.143,0.131,0.22
			l-1.599,1.344l0,0l-1.375-1.068c-0.163-0.139-0.35-0.271-0.382-0.429c0.023-0.159,0.452-0.165,0.508-0.302
			c-0.012-0.038-0.088-0.048-0.154-0.049c-1.141,0.037-2.357,0.034-3.52-0.005C53.677,3.271,53.565,3.381,53.719,3.419z"/>
	</g>
</g>
</svg>
