<?xml version="1.0" encoding="utf-8"?>
<!-- Generator: Adobe Illustrator 16.0.3, SVG Export Plug-In . SVG Version: 6.00 Build 0)  -->
<!DOCTYPE svg PUBLIC "-//W3C//DTD SVG 1.1//EN" "http://www.w3.org/Graphics/SVG/1.1/DTD/svg11.dtd">
<svg version="1.1" id="Layer_1" xmlns="http://www.w3.org/2000/svg" xmlns:xlink="http://www.w3.org/1999/xlink" x="0px" y="0px"
	 width="53px" height="12px" viewBox="0 0 53 12" enable-background="new 0 0 53 12" xml:space="preserve">
<g>
	<g opacity="0.5">
		<path fill-rule="evenodd" clip-rule="evenodd" d="M4.421,5.902c0.047-0.033,0.137-0.074,0.19-0.057l0.132-0.37
			C4.716,5.481,4.686,5.485,4.65,5.477c0.03-0.024,0.069-0.041,0.111-0.055L4.97,4.843C4.943,4.861,4.911,4.874,4.862,4.871
			c0.031-0.033,0.074-0.052,0.121-0.068l0.242-0.676C5.162,4.184,5.082,4.245,5.01,4.232c0.075-0.048,0.131-0.113,0.227-0.14
			l0.15-0.422H4.126C4.068,3.691,4.001,3.701,3.93,3.709c0.015-0.017,0.035-0.028,0.056-0.038H2.559L2.007,5.217
			c0.143-0.025,0.28-0.062,0.398-0.1c0.088,0.079,0.319-0.071,0.409,0.016c-0.1,0.008-0.304,0.053-0.426,0.033
			C2.342,5.18,2.371,5.191,2.374,5.23C2.248,5.207,2.126,5.224,1.996,5.249L1.811,5.765c0.011,0.009,0.019,0.021,0.022,0.04
			c-0.01-0.007-0.021-0.012-0.03-0.016L1.664,6.175c0.082-0.028,0.167-0.051,0.267-0.06c-0.022,0.06-0.128,0.068-0.181,0.05
			C1.721,6.208,1.683,6.227,1.642,6.238L1.104,7.741c0.009,0.004,0.018,0.007,0.024,0.013C1.121,7.778,1.104,7.795,1.096,7.819
			C1.09,7.816,1.085,7.813,1.08,7.811L0.577,9.217h2.828L4.599,5.88C4.532,5.874,4.494,5.886,4.421,5.902z M1.112,8.589
			C1.107,8.524,1.227,8.584,1.243,8.54C1.297,8.587,1.141,8.623,1.112,8.589z M1.62,7.606C1.632,7.554,1.68,7.535,1.75,7.541
			C1.735,7.591,1.675,7.596,1.62,7.606z M4.862,4.281c0.061,0.034,0.044-0.037,0.132-0.016C4.947,4.294,4.93,4.354,4.847,4.347
			C4.844,4.317,4.867,4.312,4.862,4.281z M4.65,5.002c-0.029,0.021-0.043,0.056-0.1,0.05C4.542,4.993,4.6,5.001,4.65,5.002z
			 M3.782,4.887C3.724,4.823,3.879,4.832,3.913,4.806C4.01,4.863,3.808,4.849,3.782,4.887z M3.863,3.725
			C3.819,3.757,3.755,3.77,3.684,3.773C3.703,3.717,3.794,3.731,3.863,3.725z M3.749,4.92C3.673,4.897,3.457,5.064,3.323,5.034
			c-0.019-0.082,0.06-0.035,0.099-0.049C3.526,4.95,3.679,4.85,3.749,4.92z M3.766,5.706C3.779,5.81,3.668,5.75,3.635,5.755
			C3.643,5.743,3.652,5.729,3.65,5.706C3.689,5.706,3.728,5.706,3.766,5.706z M3.521,3.807C3.471,3.815,3.408,3.87,3.307,3.872
			C3.34,3.818,3.472,3.793,3.521,3.807z M2.833,5.1c0.094-0.072,0.256-0.04,0.392-0.098C3.283,5.071,2.931,5.124,2.833,5.1z
			 M2.635,4.036C2.667,3.985,2.773,4.01,2.833,3.987C2.81,4.071,2.717,3.999,2.635,4.036z M1.767,7.524
			c0.052-0.058,0.15-0.069,0.246-0.082C1.999,7.527,1.843,7.556,1.767,7.524z M1.931,6.099c0.022-0.043,0.145-0.076,0.131,0.017
			C2.017,6.079,1.981,6.132,1.931,6.099z M2.079,6.05c0.024-0.044,0.158,0.021,0.098-0.065c0.02,0.024,0.068,0.02,0.065,0.065
			C2.231,6.082,2.145,6.04,2.161,6.099C2.109,6.107,2.118,6.055,2.079,6.05z M2.144,7.427c0.055-0.063,0.164-0.091,0.278-0.132
			C2.389,7.398,2.227,7.373,2.144,7.427z M2.488,7.279C2.5,7.214,2.597,7.235,2.635,7.197C2.722,7.234,2.536,7.325,2.488,7.279z
			 M2.733,7.197C2.726,7.117,2.829,7.15,2.865,7.115C2.908,7.165,2.79,7.191,2.733,7.197z M3.11,7.033
			C3.106,6.99,3.133,6.979,3.176,6.983C3.181,7.027,3.153,7.037,3.11,7.033z M3.078,6.214c0.005-0.022,0.041-0.013,0.065-0.017
			c0.002-0.014-0.006-0.016-0.016-0.017c0.014-0.049,0.024,0.038,0.065,0.017C3.17,6.241,3.12,6.229,3.078,6.214z M3.127,5.87
			C2.799,5.831,2.535,6.017,2.226,5.984C2.249,5.924,2.36,6.046,2.34,5.935c0.318-0.032,0.592-0.121,0.917-0.13
			C3.22,5.833,3.141,5.819,3.127,5.87z M3.274,5.82c0.036-0.047,0.069-0.038,0.163-0.049C3.417,5.821,3.352,5.828,3.274,5.82z
			 M3.356,6.083c0.07,0.044,0.068-0.026,0.147-0.017C3.528,6.133,3.351,6.141,3.356,6.083z M3.455,6.902
			c-0.003-0.046,0.04-0.048,0.081-0.049C3.539,6.898,3.496,6.899,3.455,6.902z M3.717,6.05C3.69,6.017,3.635,6.013,3.569,6.018
			c0.044-0.041,0.087-0.045,0.196-0.05C3.751,5.997,3.699,5.989,3.717,6.05z M3.732,6.771c0.011-0.06,0.11-0.027,0.148-0.017
			C3.863,6.82,3.782,6.771,3.732,6.771z M4.109,6.689C4.041,6.68,4.018,6.717,3.962,6.722c0.002-0.075,0.111-0.11,0.164-0.082
			C4.117,6.653,4.108,6.667,4.109,6.689z M3.814,5.984c0.107-0.079,0.218-0.044,0.345-0.05C4.104,5.999,3.896,5.945,3.814,5.984z
			 M4.126,5.608c0.018-0.04,0.083-0.034,0.131-0.017C4.245,5.629,4.165,5.599,4.126,5.608z M4.453,5.542
			c-0.012,0.054-0.091,0.04-0.131,0.066C4.341,5.562,4.404,5.558,4.453,5.542z"/>
		<path fill-rule="evenodd" clip-rule="evenodd" d="M9.038,9.216c0.002,0,0.004,0,0.006,0C9.042,9.216,9.04,9.216,9.038,9.216z"/>
		<path fill-rule="evenodd" clip-rule="evenodd" d="M11.906,4.167c-0.01,0.027-0.038,0.01-0.033-0.017
			c-0.086,0.067-0.244,0.101-0.377,0.164c-0.125-0.028-0.226,0.076-0.393,0.131c-0.067,0.022-0.147,0.013-0.196,0.033
			c-0.099,0.038-0.245,0.14-0.41,0.147c-0.019,0.002-0.013,0.029-0.016,0.049c-0.308,0.009-0.546,0.2-0.82,0.229
			c-0.019,0.003-0.013,0.03-0.017,0.049C9.523,4.914,9.433,5.043,9.325,5.06c0.008,0.06-0.005,0.137-0.04,0.241L9.24,5.426
			c0.017-0.03,0.027-0.066,0.078-0.063C9.3,5.406,9.286,5.456,9.228,5.461L9.14,5.702h2.835l0.257-0.728
			c0.147-0.415,0.164-0.717,0.048-0.917c-0.115,0.034-0.233,0.062-0.358,0.077C11.903,4.14,11.881,4.163,11.906,4.167z M9.973,5.674
			c-0.01-0.073,0.103-0.082,0.147-0.05C10.099,5.668,10.017,5.651,9.973,5.674z M10.775,5.411c0.003-0.035,0.042-0.034,0.082-0.032
			C10.852,5.437,10.814,5.421,10.775,5.411z M11.055,5.33c0-0.017,0-0.033,0-0.05c0.021,0,0.043,0,0.065,0
			C11.125,5.323,11.085,5.322,11.055,5.33z"/>
		<path fill-rule="evenodd" clip-rule="evenodd" d="M8.696,6.943L8.467,7.581C8.419,7.72,8.357,7.816,8.274,7.879
			C8.19,7.948,8.086,7.976,7.968,7.976c-0.125,0-0.201-0.027-0.236-0.089C7.698,7.823,7.705,7.72,7.753,7.581l0.784-2.187
			C8.449,5.448,8.25,5.427,8.188,5.542c-0.061-0.014-0.087,0.029-0.114,0c0.013-0.014,0.019-0.036,0.016-0.065
			c0.089,0.012,0.134-0.019,0.197-0.033c-0.012-0.015-0.03-0.024-0.05-0.032c0.105-0.02,0.219-0.063,0.337-0.116
			c0.048-0.136,0.11-0.238,0.192-0.3c0.076-0.062,0.173-0.09,0.298-0.09c0.132,0,0.208,0.027,0.243,0.09l0,0
			C9.354,4.983,9.401,4.975,9.449,4.97c0.031-0.003,0.011-0.056,0.033-0.066c0.12-0.012,0.256-0.046,0.377-0.113
			C9.861,4.806,9.89,4.855,9.891,4.772c0.071,0.021,0.076-0.006,0.115-0.049c0.087,0.007,0.221-0.025,0.294-0.114
			c0.045,0.04,0.099-0.024,0.131,0.017c0.26-0.173,0.686-0.208,0.966-0.377C11.689,4.229,11.951,4.054,12.241,4
			c-0.01-0.012-0.019-0.026-0.031-0.038c-0.187-0.193-0.617-0.291-1.283-0.291H8.017c-0.341,0-0.636,0.03-0.888,0.088
			C7.104,3.78,7.068,3.793,7.039,3.781C6.985,3.796,6.934,3.812,6.885,3.829C6.9,3.83,6.914,3.833,6.927,3.84
			C6.911,3.878,6.832,3.854,6.812,3.889c-0.009-0.01-0.009-0.021-0.004-0.029C6.732,3.891,6.661,3.925,6.595,3.962
			C6.271,4.163,6.027,4.496,5.854,4.975L5.838,5.021c0.033-0.027,0.063-0.048,0.057,0.031C5.87,5.041,5.845,5.035,5.83,5.043
			L5.812,5.091c0,0.003,0,0.006,0,0.009c0,0-0.001,0.002-0.003,0.002L5.409,6.218c0.285-0.1,0.728-0.167,1.01-0.151
			C6.45,6.006,6.521,5.965,6.583,6.018C6.508,6.075,6.327,6.116,6.19,6.132C5.94,6.16,5.678,6.186,5.407,6.226L4.759,8.039
			c-0.146,0.408-0.118,0.706,0.09,0.894C5.05,9.12,5.445,9.217,6.034,9.217h0.785C6.821,9.21,6.823,9.2,6.823,9.188
			c0.048,0.017,0.05,0.017,0.099,0c0.011,0.007-0.005,0.018-0.029,0.028h2.053c0.004,0,0.009,0,0.015,0
			C8.953,9.215,8.945,9.211,8.936,9.205c0.011-0.021,0.143-0.038,0.146,0.01c0.563-0.013,1.005-0.102,1.319-0.275
			c0.192-0.102,0.351-0.243,0.483-0.422c-0.099,0.006-0.188,0.107-0.245,0.017c0.113-0.021,0.209-0.06,0.303-0.101
			c0.075-0.116,0.14-0.247,0.193-0.395l0.032-0.089L11.13,7.944c0.013-0.005,0.029-0.009,0.045-0.014l0.35-0.987H8.696z
			 M10.923,3.773c-0.073,0.002-0.096-0.046-0.18-0.032C10.779,3.682,10.896,3.727,10.923,3.773z M10.661,3.758
			c0.031,0.007,0.07,0.006,0.065,0.049C10.684,3.811,10.645,3.812,10.661,3.758z M10.383,3.904c-0.053,0.01-0.076-0.011-0.115-0.016
			C10.295,3.856,10.374,3.845,10.383,3.904z M6.779,5.248c0.034,0.017-0.06,0.1-0.098,0.049C6.69,5.257,6.787,5.305,6.779,5.248z
			 M6.779,5.984C6.784,6.022,6.732,6.003,6.73,6.033c-0.029-0.015-0.058-0.03-0.049-0.081C6.738,5.939,6.75,5.971,6.779,5.984z
			 M6.714,4.593c0.003-0.015-0.007-0.015-0.017-0.017c0.006-0.041,0.075-0.013,0.049,0.033c-0.077-0.014-0.09,0.041-0.13,0.065
			C6.581,4.645,6.64,4.569,6.714,4.593z M6.076,4.97c-0.068-0.017-0.106,0.04-0.148,0C5.967,4.945,6.062,4.883,6.076,4.97z
			 M5.731,5.624c0.064-0.05,0.16-0.023,0.246-0.065C5.93,5.609,5.812,5.661,5.731,5.624z M6.01,5.559
			C6.02,5.504,6.071,5.535,6.108,5.542C6.094,5.602,6.067,5.545,6.01,5.559z M6.288,4.871c-0.09-0.02-0.089,0.052-0.18,0.032
			c0.043-0.05,0.113-0.072,0.18-0.098C6.336,4.815,6.272,4.841,6.288,4.871z M6.321,5.461c-0.05-0.012,0.016-0.035,0-0.065
			C6.358,5.39,6.383,5.398,6.403,5.411C6.41,5.463,6.327,5.424,6.321,5.461z M6.37,4.167c0.038,0.007,0.069,0.104,0.115,0.049
			C6.508,4.28,6.361,4.26,6.37,4.167z M6.566,5.133C6.537,5.097,6.473,5.095,6.468,5.034C6.519,5.027,6.514,5.076,6.534,5.1
			c0.053,0.004,0.069-0.028,0.131-0.016C6.648,5.149,6.589,5.072,6.566,5.133z M6.594,8.42c0.058,0.005,0.041,0.045,0.098,0.016
			C6.71,8.49,6.555,8.488,6.594,8.42z M6.725,8.42c0.041-0.003,0.079-0.003,0.099,0.016C6.823,8.461,6.701,8.472,6.725,8.42z
			 M6.84,8.42c0.003-0.051,0.087-0.035,0.082,0.016C6.875,8.45,6.878,8.412,6.84,8.42z M6.943,4.56
			c-0.068,0.005-0.065-0.021-0.115,0c0-0.059,0.086-0.033,0.115-0.065C6.993,4.505,6.927,4.529,6.943,4.56z M8.837,7.978
			C8.773,8.034,8.658,8.039,8.559,8.06C8.608,7.992,8.735,7.974,8.837,7.978z M8.494,8.075c-0.024,0.015-0.143,0.072-0.148,0
			C8.397,8.046,8.459,8.072,8.494,8.075z M8.33,8.075c-0.003,0.079-0.048,0.016-0.098,0.05C8.246,8.09,8.271,8.067,8.33,8.075z
			 M7.778,6.394C7.775,6.34,7.846,6.315,7.876,6.345C7.887,6.404,7.828,6.395,7.778,6.394z M7.959,5.592
			c0.01,0.017,0.037,0.017,0.032,0.049c-0.084-0.051-0.194,0.036-0.278,0C7.699,5.694,7.739,5.692,7.762,5.706
			C7.701,5.705,7.778,5.75,7.778,5.82C7.709,5.824,7.726,5.743,7.696,5.706C7.547,5.717,7.354,5.92,7.254,5.82
			c0.338-0.096,0.547-0.257,0.803-0.294C8.029,5.553,8.016,5.595,7.959,5.592z M7.582,5.297C7.547,5.271,7.528,5.23,7.467,5.23
			C7.46,5.196,7.479,5.188,7.484,5.166c0.03,0.007,0.029,0.047,0.081,0.032C7.553,5.249,7.582,5.258,7.582,5.297z M7.598,5.33
			C7.595,5.295,7.657,5.322,7.68,5.313C7.671,5.327,7.663,5.34,7.664,5.362C7.619,5.374,7.631,5.33,7.598,5.33z M7.762,4.806
			C7.81,4.8,7.904,4.786,7.942,4.79C7.879,4.798,7.878,4.867,7.795,4.854C7.801,4.821,7.791,4.803,7.762,4.806z M8.122,4.74
			C8.148,4.688,8.211,4.647,8.27,4.675C8.21,4.687,8.191,4.737,8.122,4.74z M9.007,4.33C9.077,4.348,9.07,4.339,9.122,4.314
			C9.137,4.364,9,4.395,9.007,4.33z M9.744,4.036c0.024,0.013,0.024,0.052,0.033,0.082c-0.047,0.003-0.09,0.001-0.082-0.049
			C9.722,4.069,9.737,4.056,9.744,4.036z M9.531,4.167c0.047,0.059-0.102,0.062-0.163,0.065C9.376,4.164,9.5,4.212,9.531,4.167z
			 M9.351,4.232c-0.016,0.04-0.158,0.038-0.115,0.082C9.235,4.335,9.138,4.315,9.155,4.266C9.237,4.313,9.251,4.216,9.351,4.232z
			 M8.63,3.856c0.204-0.038,0.388-0.18,0.574-0.181C8.985,3.797,8.796,3.839,8.598,3.904C8.527,3.856,8.687,3.884,8.63,3.856z
			 M8.515,3.889c0,0.021,0,0.043,0,0.065c-0.225,0-0.345,0.188-0.556,0.147C8.184,4.021,8.293,3.993,8.515,3.889z M7.975,4.118
			c0,0.017,0,0.032,0,0.049C7.935,4.169,7.896,4.169,7.876,4.15C7.878,4.108,7.932,4.118,7.975,4.118z M7.729,4.199
			c0.015,0,0.012-0.02,0.017-0.032c0.029-0.002,0.034,0.02,0.064,0.016C7.804,4.209,7.76,4.197,7.778,4.249
			C7.727,4.246,7.681,4.237,7.68,4.183C7.706,4.179,7.709,4.198,7.729,4.199z M7.713,4.838c0.006,0.056-0.071,0.028-0.099,0.049
			C7.607,4.874,7.6,4.857,7.582,4.854C7.611,4.79,7.646,4.877,7.713,4.838z M7.484,4.854c0.02,0.023,0.076,0.01,0.098,0.032
			C7.559,4.921,7.525,4.871,7.484,4.903C7.484,4.887,7.484,4.871,7.484,4.854z M7.435,4.266c0.021,0.005,0.014,0.04,0.017,0.064
			C7.425,4.332,7.388,4.322,7.385,4.347c-0.021-0.011-0.03-0.035-0.032-0.065C7.391,4.286,7.423,4.316,7.435,4.266z M7.5,5.052
			c-0.115,0.022-0.083-0.103-0.181-0.1C7.377,4.838,7.435,5.024,7.5,5.052z M7.206,4.576c0.048,0.028,0.127,0.024,0.131,0.099
			C7.269,4.665,7.225,4.633,7.206,4.576z M7.337,4.314C7.307,4.355,7.261,4.381,7.188,4.38C7.203,4.324,7.297,4.346,7.337,4.314z
			 M7.173,5.052C7.147,5.135,7.236,4.996,7.304,5.019C7.269,5.043,7.242,5.077,7.206,5.1C7.137,5.12,7.141,5.066,7.091,5.067
			C7.087,5.032,7.148,5.06,7.173,5.052z M7.135,8.338c0.258,0.003,0.529-0.123,0.884-0.181C7.957,8.218,7.812,8.256,7.724,8.239
			C7.545,8.305,7.291,8.412,7.135,8.338z M7.298,9.075c0.041-0.019,0.117-0.057,0.147-0.033C7.423,9.047,7.381,9.086,7.298,9.075z
			 M7.56,8.992c0.057-0.03,0.169-0.075,0.213-0.064C7.712,8.953,7.61,9.009,7.56,8.992z M7.938,8.829
			C7.989,8.837,7.995,8.8,8.051,8.812C8.078,8.872,7.927,8.889,7.938,8.829z M8.216,8.125C8.181,8.15,8.129,8.159,8.067,8.157
			C8.109,8.116,8.166,8.116,8.216,8.125z M8.084,8.797c-0.006-0.04,0.075,0.009,0.05-0.05c0.039,0.029,0.111-0.037,0.114,0.05
			C8.175,8.778,8.129,8.837,8.084,8.797z M8.248,8.747C8.267,8.714,8.407,8.654,8.429,8.73C8.343,8.707,8.309,8.796,8.248,8.747z
			 M8.494,8.665c0.131-0.049,0.261-0.099,0.393-0.147C8.861,8.601,8.604,8.668,8.494,8.665z M10.165,8.157
			c-0.162,0-0.188,0.034-0.312,0.065C9.917,8.181,10.121,8.062,10.165,8.157z M9.821,8.239C9.809,8.255,9.755,8.255,9.69,8.256
			C9.702,8.219,9.79,8.211,9.821,8.239z M9.678,7.803c0.051-0.007,0.052,0.035,0.05,0.082C9.677,7.893,9.674,7.85,9.678,7.803z
			 M9.329,7.847c0.05-0.002,0.108-0.01,0.099,0.049C9.416,7.858,9.314,7.91,9.329,7.847z M9.378,8.338
			C9.47,8.375,9.289,8.433,9.247,8.387C9.28,8.327,9.368,8.396,9.378,8.338z M8.953,7.928c0.04-0.008,0.092-0.017,0.18-0.016
			C9.12,7.95,8.945,7.976,8.953,7.928z M9.067,8.534C9.043,8.516,8.994,8.521,9.001,8.469C9.066,8.49,9.035,8.415,9.1,8.436
			C9.107,8.487,9.077,8.5,9.067,8.534z M9.116,8.452c0.032-0.06,0.045-0.035,0.115-0.049C9.231,8.459,9.17,8.452,9.116,8.452z
			 M9.166,9.14c0.024-0.08,0.124-0.066,0.163-0.017C9.276,9.168,9.245,9.136,9.166,9.14z M9.412,9.107
			c-0.062,0.018-0.048-0.04-0.1-0.032c0.026-0.035,0.114-0.008,0.132-0.05C9.476,9.033,9.429,9.096,9.412,9.107z M9.673,8.943
			C9.667,8.857,9.767,8.979,9.738,8.878c0.031-0.016,0.056,0.05,0.065,0c0.024,0.004,0.007,0.049,0.033,0.05
			C9.813,8.964,9.722,8.933,9.673,8.943z M9.836,8.878c0.016-0.033,0.063-0.035,0.115-0.033C9.967,8.912,9.863,8.902,9.836,8.878z
			 M10.476,8.616c-0.041,0.117-0.241,0.074-0.295,0.181c-0.068-0.014-0.084,0.025-0.147,0.016c0.182-0.097,0.368-0.188,0.589-0.246
			C10.602,8.602,10.525,8.664,10.476,8.616z M10.41,8.075c0.066-0.044,0.147-0.1,0.245-0.065C10.596,8.055,10.52,8.081,10.41,8.075z
			 M10.673,8.026c0.012-0.035,0.067-0.063,0.098-0.033C10.755,8.022,10.719,8.029,10.673,8.026z M10.885,7.978
			c0.031-0.038,0.117-0.002,0.165-0.017C11.011,8.023,10.958,7.996,10.885,7.978z"/>
		<path fill-rule="evenodd" clip-rule="evenodd" d="M16.753,4.626c-0.12,0.086-0.217,0.193-0.312,0.307h1.24l0.195-0.537
			c-0.005-0.009-0.013-0.014-0.025-0.016c0.007-0.016,0.022-0.02,0.038-0.015l0.25-0.694h-0.436
			c-0.299,0.291-0.594,0.588-0.917,0.856C16.79,4.575,16.75,4.578,16.753,4.626z"/>
		<path fill-rule="evenodd" clip-rule="evenodd" d="M12.299,8.475c0.005,0.043-0.016,0.199,0.017,0.163
			C12.309,8.594,12.331,8.439,12.299,8.475z"/>
		<path fill-rule="evenodd" clip-rule="evenodd" d="M15.247,6.443c0.03-0.002,0.035,0.021,0.065,0.017
			c-0.035-0.122,0.063-0.21,0.132-0.279c0.015-0.126,0.052-0.229,0.147-0.278c0-0.064,0.027-0.215,0.114-0.245
			c-0.002-0.046,0.008-0.082,0.022-0.115l0,0l0.221-0.609h0.318c0.02-0.021,0.037-0.046,0.045-0.078
			c0.039,0.001,0.048-0.028,0.099-0.017c0.202-0.212,0.354-0.562,0.638-0.639c0.126-0.057,0.294-0.148,0.246-0.327
			c0.027-0.006,0.03,0.012,0.032,0.032c0.048-0.071,0.104-0.155,0.17-0.233h-3.925l-1.983,5.546h4.568l0.451-1.262h-1.74l0.153-0.43
			c-0.011-0.008-0.018-0.018-0.018-0.033c0.011-0.013,0.023-0.017,0.035-0.016l0.24-0.673h1.741l0.449-1.262h-1.598
			c-0.176,0.42-0.419,0.771-0.622,1.164C15.215,6.651,15.267,6.54,15.247,6.443z M12.332,8.736
			c-0.021,0.003-0.021-0.095-0.049-0.033c-0.036-0.206,0.008-0.416,0.033-0.639C12.407,8.224,12.34,8.527,12.332,8.736z
			 M13.085,6.46c-0.028-0.011,0-0.077-0.033-0.082c0.002-0.036,0.07-0.007,0.099-0.017c-0.024,0.064,0.048,0.097,0.032,0.017
			C13.229,6.454,13.139,6.451,13.085,6.46z M16.016,8.9c0.04,0.024,0.03,0.035,0.083,0.016c0,0.045-0.096,0.05-0.017,0.083
			C16.034,9.057,16,8.962,16.016,8.9z M15.886,9.015c-0.092-0.023-0.102,0.095-0.164,0.049C15.737,9.014,15.875,8.916,15.886,9.015z
			 M15.067,8.966c0.052-0.02,0.013,0.053,0.064,0.033c-0.007,0.041,0,0.099-0.049,0.098C15.106,9.023,15.02,9.015,15.067,8.966z
			 M15.132,5.82c0.042,0.019,0.033,0.089,0.033,0.147C15.099,5.975,15.147,5.866,15.132,5.82z M15.148,5.805
			c-0.055-0.028-0.004-0.09-0.032-0.164C15.169,5.65,15.177,5.766,15.148,5.805z M15.083,5.248C15.04,5.192,15.087,5.087,15.1,5.034
			c-0.026-0.082-0.077,0.042-0.097-0.032C15.07,4.961,15,4.923,14.984,4.838C15.116,4.89,15.142,5.1,15.083,5.248z M14.92,4.756
			c-0.062-0.025-0.093-0.082-0.133-0.13C14.865,4.636,14.893,4.695,14.92,4.756z M13.806,8.229c0.025-0.121,0.096-0.104,0.229-0.099
			C13.991,8.194,13.871,8.187,13.806,8.229z M14.102,3.773c0.042-0.004,0.082-0.005,0.064,0.05
			C14.124,3.827,14.096,3.817,14.102,3.773z M14.134,4.33c0.06,0.014,0.099-0.087,0.18-0.049c-0.022,0.054-0.093,0.062-0.147,0.082
			C14.159,4.349,14.151,4.334,14.134,4.33z M14.248,7.95c0.021-0.038,0.039-0.08,0.098-0.082C14.342,7.925,14.311,7.953,14.248,7.95
			z M14.461,7.934c-0.051,0.013-0.048-0.028-0.098-0.016C14.37,7.887,14.486,7.852,14.461,7.934z M14.38,4.347
			c0.187,0.14,0.343,0.312,0.49,0.491C14.71,4.736,14.503,4.54,14.38,4.347z M14.838,7.754c0.018-0.053,0.027-0.114,0.097-0.114
			C14.917,7.691,14.908,7.754,14.838,7.754z M14.952,7.066c0.054-0.171,0.123-0.326,0.229-0.442
			C15.266,6.771,15.104,7.052,14.952,7.066z"/>
		<path fill-rule="evenodd" clip-rule="evenodd" d="M24.897,4.933l0.458-1.262h-4.567l-0.779,2.177
			c0.038,0.004,0.096,0.036,0.134,0.039c-0.033,0.033-0.101,0.005-0.141-0.019l-1.196,3.349h2.827l0.834-2.337
			c-0.019,0.01-0.04,0.017-0.063,0.022c0.011-0.051,0.088-0.032,0.066-0.114c0.017,0,0.035,0,0.05,0
			c0,0.005-0.002,0.011-0.002,0.016h0.577c0.003-0.032,0.031-0.043,0.047-0.065c0.021,0.011,0.02,0.044,0.003,0.065h1.087
			l0.452-1.262h-1.739l0.222-0.609H24.897z M20.029,7.033c0.045-0.005,0.055,0.022,0.05,0.065
			C20.036,7.104,20.024,7.076,20.029,7.033z M19.9,7.427c0.03-0.042,0.058,0.015,0.098-0.018C19.969,7.431,19.955,7.466,19.9,7.46
			C19.91,7.444,19.919,7.429,19.9,7.427z M19.881,7.099c0.008,0.051-0.013,0.072-0.064,0.065C19.837,7.14,19.83,7.091,19.881,7.099z
			 M19.865,7.427c0.005,0.055-0.06,0.083-0.098,0.049C19.782,7.439,19.807,7.417,19.865,7.427z M19.555,7.558
			c-0.023-0.005-0.013-0.042-0.019-0.065c0.023,0,0.045,0,0.068,0C19.618,7.545,19.55,7.515,19.555,7.558z M19.767,8.245
			c0.012-0.051,0.012-0.031,0-0.081c0.035-0.009,0.045,0.01,0.066,0.016C19.83,8.197,19.8,8.19,19.8,8.212
			c0.023,0.032,0.084-0.034,0.131-0.032C19.911,8.236,19.835,8.236,19.767,8.245z M19.964,8.212c-0.013-0.051-0.013-0.03,0-0.081
			c0.073-0.008,0.053,0.05,0.114,0.017c-0.001,0.019,0.003,0.028,0.017,0.032C20.061,8.236,20.018,8.182,19.964,8.212z
			 M21.504,5.968c-0.063,0.059-0.129-0.022-0.164-0.048C21.385,5.882,21.421,5.989,21.504,5.968z M20.144,8.098
			c0.051-0.008,0.044,0.044,0.083,0.05C20.205,8.188,20.119,8.157,20.144,8.098z M20.309,9.113c-0.026,0.032-0.181,0.092-0.181,0
			c0.037-0.013,0.127,0.029,0.113-0.033C20.289,9.072,20.374,9.156,20.309,9.113z M20.39,8.131c0-0.018,0-0.033,0-0.049
			c0.043-0.003,0.12-0.022,0.181,0C20.569,8.182,20.427,8.098,20.39,8.131z M20.767,3.807c0-0.051,0.05-0.049,0.098-0.049
			C20.851,3.791,20.816,3.808,20.767,3.807z M20.931,3.725c0.015-0.034,0.048-0.05,0.098-0.049
			C21.025,3.722,20.956,3.747,20.931,3.725z M21.192,7.64c-0.021,0-0.043,0-0.066,0C21.114,7.575,21.206,7.575,21.192,7.64z
			 M21.126,7.966c0-0.016,0-0.032,0-0.048c0.046,0.013,0.045-0.023,0.083-0.017C21.169,7.91,21.194,7.984,21.126,7.966z
			 M21.242,7.164c0-0.021,0-0.044,0-0.065c0.017,0,0.033,0,0.048,0C21.295,7.142,21.285,7.169,21.242,7.164z M21.373,7.655
			C21.33,7.653,21.34,7.602,21.34,7.558c0.031,0.03,0.04,0.001,0.083,0C21.436,7.619,21.375,7.607,21.373,7.655z M21.406,6.722
			c-0.042-0.001-0.033-0.055-0.033-0.098C21.433,6.608,21.395,6.688,21.406,6.722z M21.504,7.442
			c0.033-0.035,0.053,0.002,0.081,0.018C21.589,7.485,21.478,7.493,21.504,7.442z M21.782,6.607c-0.01-0.06,0.002-0.082-0.05-0.033
			c-0.076-0.168-0.394-0.224-0.557-0.36c0.272,0.039,0.484,0.296,0.721,0.262c0.007-0.039-0.029-0.035-0.017-0.082
			C22.032,6.463,21.86,6.574,21.782,6.607z M23.486,6.542c-0.045-0.003-0.07-0.028-0.065-0.082c0.026,0,0.055,0,0.081,0
			C23.516,6.506,23.478,6.502,23.486,6.542z M23.421,5.952c-0.046,0.07-0.008,0.061,0.016,0.131
			C23.37,6.094,23.335,5.945,23.421,5.952z M23.289,5.771c0.013,0.016,0.018,0.037,0.017,0.065
			c-0.027,0.007-0.032-0.012-0.032-0.032c-0.055-0.02-0.013,0.053-0.066,0.032C23.204,5.786,23.249,5.781,23.289,5.771z
			 M22.453,5.739c0.037,0.037,0.059-0.012,0.052-0.065c0.01,0,0.02,0,0.031,0c-0.003,0.014,0.005,0.015,0.015,0.016
			C22.529,5.722,22.469,5.847,22.453,5.739z M22.569,5.575c0.04,0.01,0.083,0.014,0.081,0.065
			C22.595,5.647,22.557,5.636,22.569,5.575z M22.634,6.148c-0.024-0.015,0.004-0.115,0.017-0.147
			C22.695,6.036,22.645,6.115,22.634,6.148z M22.731,6.476c-0.022-0.09,0.06-0.071,0.066-0.131
			C22.848,6.342,22.783,6.476,22.731,6.476z M22.765,6.246c0.032-0.038,0.042-0.099,0.114-0.098
			C22.854,6.193,22.843,6.254,22.765,6.246z M22.864,6.394c0-0.043-0.008-0.093,0.015-0.114C22.904,6.284,22.919,6.414,22.864,6.394
			z M23.062,6.689c0.058-0.016,0.021,0.093-0.019,0.082C23.03,6.725,23.066,6.729,23.062,6.689z M22.945,6.607
			c0.033,0.013-0.012,0.086-0.017,0.114C22.885,6.696,22.928,6.624,22.945,6.607z M23.142,4.167
			c-0.011,0.034-0.035,0.053-0.05,0.082C23.052,4.227,23.083,4.142,23.142,4.167z M23.126,4.281
			c-0.013-0.045,0.032-0.033,0.032-0.065c0.056,0.035,0.136,0.051,0.131,0.147c-0.021-0.027-0.093-0.006-0.116-0.033
			c0.007-0.021,0.043-0.014,0.066-0.016C23.239,4.231,23.192,4.298,23.126,4.281z"/>
		<path fill-rule="evenodd" clip-rule="evenodd" d="M9.083,9.222c0-0.003-0.001-0.005-0.001-0.007c-0.012,0-0.025,0-0.038,0.001
			C9.057,9.216,9.069,9.217,9.083,9.222z"/>
		<path fill-rule="evenodd" clip-rule="evenodd" d="M9.038,9.216c-0.027,0-0.051,0.001-0.077,0.001
			C8.988,9.225,9.011,9.216,9.038,9.216z"/>
		<polygon fill-rule="evenodd" clip-rule="evenodd" points="11.158,7.949 11.167,7.95 11.168,7.949 		"/>
	</g>
	<g opacity="0.5">
		<path d="M36.589,9.047c-0.018,0.066-0.043,0.127-0.086,0.17h1.268c0.055-0.05,0.104-0.104,0.147-0.163l0.038-0.106
			c-0.02,0.004-0.045,0.03-0.074,0.019c0.01-0.086,0.003-0.156-0.098-0.132c0.012-0.044-0.031-0.032-0.033-0.064
			c0-0.051,0.015-0.084,0.05-0.099c-0.012-0.052-0.043-0.021-0.081-0.017c-0.037,0.009,0.02,0.025-0.017,0.049
			c-0.05-0.028-0.078-0.075-0.147-0.081c-0.025,0.006-0.002,0.028,0.017,0.032c-0.037,0.057-0.032-0.066-0.099-0.032
			c-0.051,0.173-0.3,0.355-0.295,0.065c-0.109,0.052-0.11-0.114-0.147-0.033c-0.076-0.019,0-0.086-0.082-0.049
			c0.005-0.048-0.037-0.051-0.032-0.099c0.057-0.013,0.064-0.075,0.114-0.098c0.002,0.054,0.033,0.071-0.017,0.098
			c0.011,0.087,0.158,0.049,0.114,0.147c0.054-0.007,0.047-0.073,0.115-0.065c0.005,0.065,0.001,0.122-0.032,0.147
			c0.05,0.009,0.078-0.039,0.049,0.017c0.094-0.057,0.053-0.199,0.164-0.263c-0.019-0.094-0.063-0.061-0.132-0.098
			c0.011-0.051,0.011-0.031,0-0.082c0.132-0.038,0.04-0.126,0.033-0.229c-0.003-0.037-0.043,0.021-0.082,0
			c0.001-0.046-0.027-0.033,0-0.066c0.046,0.031,0.024,0.054,0.099,0.033c0.016-0.013,0.025-0.03,0.032-0.05
			c-0.057-0.052-0.082-0.136-0.196-0.131c-0.02,0.02,0.04,0.101,0.049,0.147c-0.044-0.036-0.083,0.024-0.114-0.017
			c-0.033,0.038-0.047,0.096-0.065,0.148c-0.053-0.012-0.022-0.045-0.017-0.083c-0.021,0.02-0.034,0.015-0.033-0.016
			c-0.06,0.081-0.124-0.031-0.181,0C36.76,7.948,36.929,7.923,36.9,7.853c0.08,0.137,0.164-0.043,0.147,0.113
			c0.026-0.003,0.026,0.016,0.049,0.018c0.01-0.032,0.015-0.086,0.032-0.115c-0.049-0.016-0.077-0.053-0.147-0.049
			c-0.027-0.116,0.125-0.052,0.115-0.147c0.12,0,0.308-0.121,0.409-0.099c0.013,0.057-0.066,0.021-0.05,0.082
			c0.005,0.03,0.056,0.01,0.066,0.033c-0.007,0.055-0.026,0.092-0.066,0.114c-0.05-0.004-0.071-0.036-0.113-0.049
			c-0.044-0.012-0.034,0.032-0.065,0.032c0.011,0.016,0.029,0.024,0.049,0.033c0.017-0.004,0.009-0.017,0-0.017
			c0.033-0.037,0.068,0.073,0.13,0.017c0.005,0.03,0.012,0.055,0.033,0.065c0.088-0.061,0.186-0.123,0.23-0.245
			c0.074,0.025-0.012,0.057-0.017,0.098c0.017,0.099,0.074,0.146,0.164,0.131c-0.054,0.05-0.189,0.161-0.05,0.214
			c0.053-0.029,0.038-0.125,0.064-0.181c0.064,0.024,0.071,0.15,0.166,0.098c-0.033,0.033-0.057,0.076-0.1,0.099
			c0.007,0.038,0.02,0.068,0.033,0.099c0.026-0.004,0.074,0.013,0.066-0.024c0.015,0.053-0.016,0.042,0.031,0.105
			c-0.012-0.008-0.026-0.017-0.05-0.016c-0.01,0.102,0.06,0.123,0.117,0.155l0.178-0.492c-0.003-0.026,0.007-0.039,0.017-0.05
			l0.031-0.087c0.015-0.04,0.026-0.079,0.04-0.118c-0.007-0.005-0.014-0.011-0.021-0.015c0.002-0.02,0.017-0.031,0.036-0.032
			c0.118-0.389,0.136-0.688,0.05-0.901c-0.096-0.236-0.34-0.396-0.734-0.472c0.161-0.026,0.311-0.063,0.444-0.106
			c0.021-0.015,0.045-0.024,0.078-0.026c0.207-0.073,0.381-0.166,0.523-0.275c0.25-0.195,0.444-0.479,0.577-0.854
			c0.165-0.472,0.144-0.804-0.063-1.012c-0.207-0.202-0.638-0.306-1.296-0.306h-4.582l-0.323,0.901
			c0.005-0.005,0.012-0.008,0.017-0.013c0.002,0.024-0.013,0.048-0.036,0.068l-1.545,4.318c0.005-0.003,0.009-0.007,0.009-0.014
			c0.041,0.002,0.023,0.064,0.064,0.066c-0.025,0.041-0.064,0.01-0.085-0.015l-0.048,0.131c0.002,0.008,0.004,0.019,0.002,0.03
			c-0.005,0.001-0.01,0-0.01,0L31.44,9.217h1.167c0.001-0.035,0.006-0.075,0.001-0.104c0.021,0.021,0.028,0.062,0.026,0.104h1.635
			l0.818-2.287h0.312c0.152,0,0.242,0.027,0.283,0.09c0.042,0.056,0.035,0.159-0.02,0.305L34.99,9.217h1.441
			c0.015-0.054,0.028-0.105,0.041-0.153C36.531,9.077,36.536,9.04,36.589,9.047z M37.703,8.916c0.003,0.116,0.104-0.031,0.064-0.049
			c0.017-0.024,0.079,0.041,0.1,0.065c-0.032-0.03-0.03,0.01-0.083,0c0.041,0.092-0.045,0.092-0.033,0.196
			c-0.052,0.004-0.071,0.037-0.13,0.033C37.532,9.08,37.6,8.942,37.703,8.916z M37.589,8.818C37.551,8.958,37.456,8.74,37.589,8.818
			L37.589,8.818z M37.261,8.458c0.008-0.057,0.079-0.024,0.114-0.016c-0.002,0.019-0.03,0.013-0.049,0.016
			c0.006,0.037-0.003,0.062-0.017,0.082c-0.013-0.009-0.026-0.017-0.049-0.017C37.245,8.493,37.31,8.469,37.261,8.458z
			 M38.407,7.148c0.101,0.015,0.088,0.099,0,0.082C38.396,7.18,38.396,7.198,38.407,7.148z M38.652,5.771
			c0.043,0.019,0.038,0.095-0.031,0.082C38.607,5.804,38.666,5.822,38.652,5.771z M38.324,5.805
			c0.076,0.006,0.069,0.044,0.149,0.016c0,0.067-0.066,0.066-0.05,0.147C38.346,5.98,38.284,5.899,38.324,5.805z M38.276,5.854
			c-0.052-0.012-0.032-0.012-0.081,0c-0.004-0.029-0.012-0.056-0.035-0.065C38.187,5.76,38.281,5.798,38.276,5.854z M37.179,7.541
			c-0.008,0.034,0.023,0.031,0.049,0.032c-0.016,0.023-0.025,0.053-0.066,0.05c0-0.033,0-0.065,0-0.099
			c0.031,0.002,0.036-0.021,0.066-0.017c0,0.017-0.021,0.013-0.033,0.017C37.235,7.554,37.223,7.566,37.179,7.541z M37.572,7.05
			c-0.027,0-0.057,0-0.083,0c0-0.042,0.013-0.021,0.033-0.017c0.003-0.02-0.004-0.029-0.017-0.032
			c0.005-0.022,0.041-0.015,0.066-0.018C37.572,7.007,37.572,7.028,37.572,7.05z M37.801,7.705c0.038-0.005,0.062,0.002,0.081,0.016
			C37.882,7.77,37.784,7.765,37.801,7.705z M37.882,7.623c0.058-0.009,0.058,0.041,0.083,0.065
			C37.937,7.732,37.867,7.678,37.882,7.623z M38.341,6.771c0.04,0.021-0.035-0.008-0.064,0.017c0.012-0.027-0.032-0.071-0.033-0.033
			C38.189,6.666,38.339,6.722,38.341,6.771z M38.291,7.606c-0.007,0.008-0.036,0.142,0.017,0.099
			c0.041,0.01,0.003,0.076-0.017,0.081c-0.083-0.005-0.02-0.073-0.081-0.081C38.215,7.647,38.225,7.598,38.291,7.606z M38.243,7.934
			c-0.031-0.031,0.01-0.029,0-0.081c0.023,0.013,0.053,0.024,0.048,0.065c-0.053,0.005-0.064,0.054-0.081,0.098
			c-0.021-0.05-0.071,0.01-0.064-0.082C38.207,7.936,38.191,7.952,38.243,7.934z M37.981,6.394c0.055,0.012,0.056,0.074,0.098,0.099
			c-0.014,0.049-0.042-0.021-0.081,0c-0.007,0.039,0.074-0.009,0.05,0.05c-0.021-0.015-0.045-0.022-0.083-0.017
			C37.996,6.477,37.96,6.424,37.981,6.394z M37.882,7.46c0.003,0.012,0.019,0.016,0.017,0.032c0.088-0.026,0.021-0.103,0.116-0.115
			c-0.009,0.013-0.017,0.026-0.017,0.05c0.026-0.054,0.101,0.043,0.098-0.033c0.023,0,0.043,0,0.064,0
			c0.02,0.02,0.02,0.058,0.019,0.099c-0.081,0.009-0.065,0.031-0.131,0.032c-0.009,0.062,0.074,0.072-0.019,0.131
			c0.005,0.022,0.043,0.014,0.066,0.017c-0.012,0.032-0.043,0.043-0.081,0.049c0.005-0.097-0.209-0.136-0.147-0.18
			c-0.093-0.042-0.057,0.029-0.197-0.033c0.033-0.144,0.148-0.104,0.262-0.164C37.951,7.419,37.901,7.424,37.882,7.46z
			 M37.835,6.279c-0.01,0.024-0.026,0.041-0.034,0.065c-0.016-0.01-0.03-0.02-0.033,0C37.734,6.33,37.792,6.272,37.835,6.279z
			 M37.768,6.755c-0.009,0.015-0.019,0.028,0,0.033c-0.073,0.008-0.055,0.107-0.114,0.131c-0.037-0.002-0.007-0.07-0.016-0.099
			c-0.032,0-0.065,0-0.099,0c-0.014-0.015-0.019-0.038-0.017-0.065c-0.002-0.001-0.004,0-0.007,0
			c-0.005,0.006-0.009,0.013-0.01,0.017c0.001-0.009,0.003-0.017,0.01-0.017c0.026-0.033,0.09-0.096,0.138-0.115
			c0.036,0.034-0.009,0.048,0,0.099C37.678,6.79,37.751,6.717,37.768,6.755z M37.687,6.46c0.028,0.004,0.036,0.027,0.033,0.065
			c-0.016,0.013-0.037,0.018-0.066,0.017C37.642,6.492,37.709,6.521,37.687,6.46z M37.556,3.856
			c-0.002,0.04-0.025,0.062-0.066,0.065C37.49,3.879,37.514,3.857,37.556,3.856z M37.589,6.624c-0.037,0.109-0.123,0-0.197,0.065
			c-0.017-0.049-0.033-0.071-0.082-0.05C37.358,6.562,37.53,6.569,37.589,6.624z M36.867,7.541c0.052-0.038-0.034-0.073-0.017-0.132
			c0.04-0.023,0.032-0.034,0.083-0.016c-0.003-0.078,0.016-0.137,0.048-0.18c0.054-0.016,0.033,0.042,0.066,0.049
			c0.052,0.007,0.066-0.021,0.081-0.049c-0.027-0.016-0.043-0.046-0.032-0.099c0.076,0.012,0.141-0.12,0.229-0.147
			c-0.017-0.021-0.027-0.05-0.049-0.065c-0.009-0.023,0.062-0.04,0.016-0.049c0.08-0.04,0.125,0.04,0.229,0
			c-0.017,0.059-0.055,0.098-0.147,0.082c-0.004,0.021-0.035,0.06-0.032,0.131c-0.053,0.003-0.056,0.054-0.115,0.049
			c-0.011,0.06,0.034,0.062,0.033,0.115c-0.023,0.031-0.08,0.028-0.115,0.049c0.049,0.055,0.071,0.13,0.147,0.13
			c-0.051,0.024-0.01,0.051-0.032,0.083c-0.055-0.078-0.115-0.068-0.196-0.099c-0.01,0.042,0.005,0.059,0.049,0.049
			c0.001,0.084-0.13,0.035-0.099,0.147C36.938,7.6,36.891,7.584,36.867,7.541c-0.024,0-0.024,0.097-0.033,0.017
			c-0.058,0.061,0.088,0.054,0.049,0.147c-0.142,0.038-0.104-0.104-0.228-0.082C36.686,7.534,36.807,7.521,36.867,7.541z
			 M36.687,4.314c0.012,0.05-0.017,0.06-0.017,0.099c-0.082,0.008,0-0.059-0.064-0.05C36.615,4.331,36.648,4.319,36.687,4.314z
			 M36.491,7.819c-0.024-0.085,0.036-0.081,0.048-0.131c0.016-0.004,0.017,0.007,0.017,0.017c0.045,0.038,0.13-0.022,0.213,0
			c0.001,0.101-0.044,0.19-0.163,0.213c0.028,0.015,0.048,0.051,0.016,0.081c-0.022-0.003-0.03-0.068-0.032,0
			c-0.039-0.042-0.098-0.066-0.116-0.131c0.016-0.013,0.039-0.017,0.066-0.016C36.548,7.816,36.517,7.821,36.491,7.819z
			 M34.738,4.216c0.02,0.007,0.033,0.021,0.033,0.05c-0.156,0.074-0.325,0.133-0.509,0.18C34.392,4.304,34.586,4.327,34.738,4.216z
			 M33.362,6.983c0.005,0.044-0.022,0.054-0.064,0.05C33.298,6.989,33.334,6.954,33.362,6.983z M33.231,6.23
			c0.005,0.033-0.012,0.043-0.017,0.065c-0.021-0.006-0.024-0.029-0.05-0.033C33.176,6.241,33.2,6.233,33.231,6.23z M33.165,6.312
			c-0.038,0-0.048-0.028-0.098-0.017C33.074,6.22,33.16,6.259,33.165,6.312z M33.067,6.148C33.15,6.15,33.1,6.214,33.084,6.246
			C33.048,6.245,33.077,6.178,33.067,6.148z M32.723,6.771c0.059,0.007,0.038,0.105-0.033,0.082
			C32.677,6.801,32.715,6.803,32.723,6.771z M32.413,8.311c0.03-0.024-0.035,0.112-0.083,0.114
			C32.304,8.333,32.399,8.364,32.413,8.311z M31.757,8.703c0.098,0.033,0.283,0.121,0.345,0.246
			C31.966,8.895,31.788,8.807,31.757,8.703z M32.151,8.999c0-0.018,0-0.033,0-0.05c0.051,0.021,0.034,0.023,0.081,0.032
			C32.235,9.018,32.173,8.989,32.151,8.999z M32.28,8.507c-0.041-0.004,0.023-0.027,0-0.064c0.048,0.002,0.078,0.02,0.066,0.081
			C32.311,8.516,32.306,8.438,32.28,8.507z M32.363,9.194c-0.035-0.025-0.005-0.114-0.033-0.147c0.036-0.03,0.088,0.022,0.116,0.05
			C32.443,9.155,32.382,9.153,32.363,9.194z M32.494,8.196c-0.048-0.023,0.028-0.057,0.017-0.099
			C32.575,8.113,32.508,8.164,32.494,8.196z M32.542,7.115c0.062,0.017,0.138,0.016,0.147,0.082
			C32.639,7.229,32.549,7.182,32.542,7.115z M32.658,8.851c-0.038-0.034,0.007-0.122,0.017-0.163
			C32.725,8.734,32.663,8.806,32.658,8.851z M32.689,8.622c-0.001-0.145,0.071-0.357,0.083-0.54
			C32.82,8.215,32.743,8.482,32.689,8.622z M33.576,7.754c0,0.056-0.055,0.056-0.051,0.114c-0.197,0.123-0.275,0.455-0.556,0.442
			c0.323-0.188,0.521-0.506,0.753-0.786c0.02,0.003,0.015,0.029,0.017,0.049C33.683,7.631,33.649,7.715,33.576,7.754z M33.739,7.05
			c-0.027-0.065,0.069-0.006,0.064-0.049C33.854,7.023,33.785,7.066,33.739,7.05z M33.771,7.492c0.017-0.06,0.057-0.098,0.115-0.115
			C33.883,7.446,33.813,7.515,33.771,7.492z M34.066,4.544c0.032-0.057,0.088-0.087,0.163-0.099
			C34.218,4.52,34.128,4.519,34.066,4.544z M34.263,6.951c0.013-0.003,0.017,0.006,0.017,0.017c0.029-0.016,0.029-0.059,0.05-0.082
			C34.412,6.891,34.266,7.036,34.263,6.951z M34.574,6.624c0.015-0.069,0.091-0.071,0.114-0.132
			C34.705,6.525,34.624,6.602,34.574,6.624z M34.624,5.706c0-0.055,0.104-0.146,0.131-0.229C34.791,5.568,34.66,5.634,34.624,5.706z
			 M34.655,5.149c0.05-0.06,0.131-0.088,0.212-0.115C34.874,5.138,34.71,5.159,34.655,5.149z M34.983,6.018
			c0.083-0.115,0.197-0.217,0.247-0.278C35.222,5.84,35.079,5.95,34.983,6.018z M35.359,4.085c-0.013-0.052,0.026-0.051,0.033-0.082
			C35.426,4.01,35.423,4.118,35.359,4.085z M35.517,5.723l0.285-0.79h0.312c0.152,0,0.242,0.028,0.283,0.09
			c0.042,0.057,0.035,0.16-0.02,0.312c-0.05,0.14-0.117,0.243-0.202,0.299c-0.083,0.055-0.194,0.089-0.345,0.089H35.517z
			 M35.935,8.18c-0.06-0.074,0.064-0.109,0.081-0.164C36.047,8.063,35.965,8.139,35.935,8.18z M36.063,7.983
			c0.059-0.245,0.275-0.059,0.409-0.05c-0.018,0.054,0.102,0.048,0.1,0.131c-0.041-0.003-0.079-0.003-0.081,0.033
			c-0.055-0.019-0.002-0.049-0.033-0.099c-0.114,0.058-0.186-0.034-0.247-0.081C36.142,7.918,36.156,8.004,36.063,7.983z
			 M36.211,8.311c0.033,0.046,0.138-0.027,0.114-0.033c0.009-0.024,0.022,0.008,0.052,0C36.387,8.372,36.238,8.381,36.211,8.311z
			 M36.458,8.212c-0.062,0.013-0.069-0.028-0.133-0.016c0.011-0.042-0.015-0.14,0.1-0.114C36.453,8.122,36.488,8.154,36.458,8.212z"
			/>
		<path d="M42.645,7.581c-0.048,0.139-0.111,0.235-0.194,0.298c-0.083,0.069-0.187,0.097-0.305,0.097
			c-0.038,0-0.071-0.003-0.1-0.008c-0.001,0.012-0.001,0.022-0.003,0.031c0.128,0.107,0.233,0.235,0.229,0.476
			c-0.038,0.01-0.074,0.023-0.131,0.016c-0.084-0.165-0.103-0.342-0.129-0.532c-0.049-0.014-0.082-0.037-0.104-0.071
			c-0.033-0.063-0.026-0.167,0.021-0.306l0.044-0.121c-0.021,0-0.042,0-0.062,0c-0.038-0.084-0.035-0.206-0.133-0.229
			c0.026-0.039,0.036-0.031,0.017-0.082c0.207-0.122,0.202,0.175,0.184,0.296l0.77-2.144c0.048-0.139,0.11-0.243,0.193-0.306
			c0.076-0.062,0.175-0.09,0.299-0.09c0.131,0,0.207,0.027,0.242,0.09c0.034,0.062,0.027,0.159-0.021,0.306l-0.146,0.401h2.835
			l0.257-0.728c0.169-0.476,0.164-0.804-0.011-1C46.39,3.988,46.38,3.996,46.383,4.02c-0.079,0.01-0.094-0.073-0.055-0.108
			c-0.06-0.045-0.134-0.084-0.224-0.115c-0.019,0.158-0.212,0.054-0.312,0.142c0.007,0.038,0.019,0.07,0.05,0.082
			c-0.015,0.013-0.071-0.007-0.066,0.065c-0.048-0.006-0.117-0.04-0.147-0.016c0.104,0.026,0.102,0.16,0.23,0.163
			c0,0.021,0,0.044,0,0.065c-0.081,0.05-0.143,0.017-0.245-0.017c-0.009,0.019-0.03,0.065-0.083,0.082
			c0.021,0.042,0.015,0.104-0.033,0.065c0.005-0.019,0.019-0.009,0.017,0c0.05-0.02-0.057-0.058-0.048,0
			c-0.017-0.016-0.033-0.032-0.05-0.049c-0.045-0.005,0.045,0.063-0.033,0.049c0.005-0.095-0.007-0.119,0.017-0.213
			c-0.062,0.003-0.062,0.068-0.131,0.065c-0.014-0.015-0.017-0.036-0.017-0.065c0.026-0.027,0.098-0.013,0.147-0.017
			c-0.014-0.057-0.003-0.138-0.081-0.13c0.029-0.034,0.06-0.005,0.031-0.066c-0.041,0.033-0.096,0.057-0.147,0.082
			c0.045,0.12-0.062,0.201-0.112,0.278c0.011,0.058,0.046,0.095,0.062,0.147c-0.012,0.048-0.04-0.021-0.081,0
			c-0.025-0.151-0.015-0.301,0.035-0.409c-0.017-0.035-0.05-0.051-0.102-0.049c0.015-0.146,0.255-0.063,0.313-0.164
			c0.076,0.033,0.164-0.025,0.229,0.033c-0.052,0.035,0.007,0.15-0.05,0.114c-0.002,0.058,0.08,0.081,0.116,0.049
			c-0.005-0.029-0.03-0.037-0.066-0.032c0.019-0.02,0.019-0.059,0.017-0.099c0.079,0.008,0.052-0.092,0.098-0.114
			c0.066,0.002,0.131-0.044,0.164,0.017c0.047-0.035,0.107-0.086,0.172-0.094c-0.222-0.062-0.52-0.092-0.893-0.092h-1.481
			c0.015,0.006,0.028,0.013,0.041,0.021c0,0.027-0.028,0.072,0,0.033c0.035,0.03-0.046,0.083-0.116,0.066
			c-0.016-0.033-0.041-0.059-0.064-0.082c-0.013-0.035,0.014-0.03,0.028-0.038h-0.144c0,0.001,0,0.003,0.001,0.005
			c-0.01,0.003-0.029-0.002-0.05-0.005h-0.048c-0.02,0.004-0.038,0.014-0.05,0.038c-0.017-0.013-0.026-0.025-0.029-0.038h-1
			c-0.623,0-1.095,0.098-1.422,0.291c-0.109,0.069-0.208,0.152-0.301,0.252c0.022,0.011,0.044,0.021,0.065,0.035
			c0.044,0.163,0.166,0.25,0.213,0.41c0.112,0.102,0.205,0.259,0.295,0.425c0.048,0.086,0.131,0.226,0.064,0.312
			c-0.307-0.167-0.354-0.595-0.622-0.803c-0.01-0.039-0.01-0.072-0.048-0.114c-0.062-0.003-0.055,0.066-0.083,0.098
			c0.002-0.066-0.033-0.098-0.065-0.129c-0.1,0.151-0.187,0.325-0.259,0.527l-0.644,1.798c0.002-0.001,0.002-0.001,0.002-0.001
			c0.057,0.006,0.021,0.044,0.081,0.017c-0.045,0.075-0.066,0.082-0.131,0.147c0.019-0.018,0.021-0.044,0.014-0.065l-0.285,0.797
			c0.008-0.004,0.019-0.008,0.026-0.012c0.028,0.012,0.002,0.029,0,0.05c0.104,0.023,0.118-0.046,0.214-0.033
			c-0.005,0.019-0.033,0.011-0.033,0.033c0.06,0.011,0.161-0.081,0.195-0.147c-0.051-0.043-0.105,0.04-0.179,0.065
			c-0.014-0.064-0.078-0.221,0.031-0.147c0.004-0.047-0.04-0.048-0.081-0.049c0.031-0.094,0.183,0.035,0.229,0.081
			c0.092-0.065,0.145-0.077,0.164-0.196c-0.001-0.02-0.029-0.015-0.048-0.017c-0.002-0.05,0.033-0.063,0.048-0.098
			c0.043,0.001,0.023,0.063,0.066,0.065c0.078-0.024,0.171-0.076,0.245-0.147c0.14,0.122,0.29-0.173,0.409-0.245
			c0.037-0.023-0.003,0.011,0.033-0.05c0.025-0.043,0.092-0.064,0.131-0.099c0.102-0.089,0.192-0.22,0.295-0.246
			c0.054,0.289-0.514,0.562-0.704,0.853c-0.069-0.005-0.081,0.05-0.164,0.032c-0.187,0.31-0.497,0.497-0.754,0.737
			c0.01,0.028,0.08-0.019,0.116-0.016c-0.058,0.146-0.212,0.16-0.247,0.294c-0.091,0.003-0.157,0.05-0.216,0.106
			c-0.001,0.188,0.057,0.34,0.18,0.45c0.202,0.188,0.597,0.284,1.187,0.284h2.043c-0.008-0.012-0.013-0.025-0.015-0.038
			c-0.012-0.062,0.035-0.107,0.031-0.164c-0.003-0.104-0.107-0.158-0.081-0.262c-0.057,0.03-0.005-0.056-0.015-0.131
			c0.026-0.003,0.081,0.017,0.064-0.033c0.074,0.069,0.121,0.295,0.064,0.393c0.008,0.043,0.071,0.027,0.083,0.065
			c0.005,0.064,0.021,0.119,0.041,0.17h0.693c0.633,0,1.116-0.09,1.456-0.277c0.34-0.18,0.584-0.479,0.736-0.9l0.388-1.096h-2.829
			L42.645,7.581z M43.501,5.575c-0.024,0.001-0.046,0.003-0.05-0.017c-0.02,0.003-0.015,0.03-0.017,0.05
			c-0.056-0.005,0.002-0.045-0.033-0.05c0.022-0.043,0.055-0.05,0.1-0.032C43.501,5.542,43.501,5.559,43.501,5.575z M46.366,4.053
			c0.038,0.001,0.035,0.041,0.033,0.082C46.366,4.122,46.333,4.084,46.366,4.053z M46.35,4.642c0.01,0.07-0.067,0.051-0.098,0.082
			C46.146,4.655,46.313,4.519,46.35,4.642z M46.007,5.034c-0.05,0.013-0.048-0.027-0.1-0.016c0.021-0.02,0.021-0.058,0.017-0.099
			c0.06-0.011,0.088,0.012,0.116,0.032C46.033,4.984,45.992,4.983,46.007,5.034z M46.04,4.02c0,0.033,0,0.065,0,0.099
			c-0.036,0.023-0.071,0.05-0.133,0.049C45.833,4.089,45.949,4.028,46.04,4.02z M45.843,4.118c0.041,0.001,0.033,0.055,0.033,0.098
			C45.808,4.205,45.843,4.171,45.843,4.118z M45.859,4.445c0.05,0.021,0.134,0.007,0.164,0.049c0,0.039-0.03,0.048-0.017,0.099
			c-0.095,0-0.162-0.024-0.181-0.099C45.861,4.502,45.857,4.471,45.859,4.445z M45.762,4.642c0.005,0.043-0.023,0.054-0.066,0.05
			C45.697,4.646,45.733,4.612,45.762,4.642z M45.564,4.659c0.005,0.036,0.081,0.036,0.033,0c0.003-0.039,0.073-0.01,0.081,0
			C45.671,4.721,45.503,4.751,45.564,4.659z M45.006,5.297C44.987,5.3,44.978,5.294,44.977,5.28
			c-0.019,0.011-0.019,0.037-0.052,0.033c0.015-0.036,0.035-0.065,0.081-0.065C45.006,5.264,45.006,5.28,45.006,5.297z
			 M44.941,4.069c-0.01-0.018-0.036-0.018-0.031-0.05c0.021,0,0.043,0,0.066,0c0.018,0.074-0.061,0.051-0.066,0.099
			c-0.025-0.015-0.054-0.025-0.05-0.065C44.906,4.038,44.903,4.075,44.941,4.069z M44.532,4.069
			c0.036,0.022-0.021,0.039,0.018,0.049C44.512,4.203,44.396,4.21,44.32,4.15C44.347,4.079,44.449,4.084,44.532,4.069z
			 M44.106,4.462c0.043-0.008,0.05-0.049,0.099-0.049c0.021,0.021,0.007,0.025,0,0.049c0.075,0.03,0.028-0.059,0.065-0.065
			c0.036-0.009,0.031,0.023,0.033,0.049c0.119,0.008,0.099-0.149,0.131-0.18c0.027,0.04,0.065,0.032,0.132,0.016
			c-0.01,0.058,0.057,0.04,0.049,0.099c-0.065-0.026-0.007,0.071-0.049,0.065c0.004,0.033,0.043,0.032,0.065,0.049
			c-0.03,0.047-0.097,0.058-0.147,0.082c0.011,0.051,0.011,0.031,0,0.083c-0.027,0-0.063-0.009-0.065,0.016
			c-0.046-0.016,0.028-0.058-0.017-0.082c-0.034,0.006-0.187,0.095-0.197,0c0.017,0.004,0.012,0.032,0.032,0.033
			c0.013-0.004,0.017-0.017,0.033-0.017c-0.011-0.017-0.037-0.018-0.033-0.05c-0.063,0.014-0.085,0.018-0.131-0.016
			C44.106,4.517,44.106,4.489,44.106,4.462z M43.943,3.872c0.108-0.002,0.095,0.145-0.033,0.115
			C43.893,3.918,43.943,3.923,43.943,3.872z M44.024,4.167c-0.061,0.079-0.119,0.084-0.245,0.114
			C43.763,4.104,43.931,4.208,44.024,4.167z M43.615,4.675C43.41,4.552,43.763,4.443,43.615,4.675L43.615,4.675z M43.615,4.249
			c-0.006,0.04,0.03,0.034,0.017,0.081c-0.058,0.031-0.074-0.008-0.099-0.049C43.548,4.257,43.574,4.246,43.615,4.249z
			 M43.565,4.675c0.004,0.014-0.006,0.015-0.017,0.017c0.009,0.03,0.065,0.013,0.05,0.064c-0.036,0.014-0.064,0.035-0.114,0.034
			C43.564,4.731,43.484,4.71,43.565,4.675z M43.337,4.854c-0.015,0.003-0.017-0.006-0.017-0.017c-0.017,0-0.013,0.021-0.017,0.033
			c-0.055-0.037-0.02-0.145-0.081-0.115c-0.029-0.012-0.003-0.029,0-0.049c0.012,0,0.021,0,0.031,0
			c0.025,0.074,0.092,0.024,0.147,0.083C43.382,4.813,43.337,4.811,43.337,4.854z M43.385,3.773c-0.02,0.08,0.016,0.167-0.031,0.246
			c-0.06-0.01-0.093,0.007-0.1,0.05C43.234,3.952,43.177,3.672,43.385,3.773z M43.206,4.56c0.059-0.015,0.028,0.053,0.017,0.066
			c0.042,0.002,0.038-0.037,0.064-0.05c0.055,0.006-0.043,0.071,0.017,0.083c-0.024,0.001-0.107,0-0.114,0.064
			c-0.021-0.004-0.008-0.041-0.026-0.048C43.199,4.68,43.232,4.612,43.206,4.56z M43.009,3.807c0.026-0.001,0.063,0.008,0.066-0.016
			c0.019-0.009,0.01,0.065-0.023,0.066c0.08,0.014,0.097,0.103,0.121,0.195c-0.041-0.044-0.033,0.021-0.033,0.065
			c-0.038-0.005-0.062,0.004-0.064,0.032c0.017,0.057,0.005-0.046,0.048-0.016c-0.008,0.012-0.017,0.025-0.017,0.048
			c-0.036,0.022-0.06-0.042-0.064,0C43.014,4.089,42.98,3.889,43.009,3.807z M42.861,3.954c0.064,0.006-0.012,0.051,0.033,0.065
			c-0.003,0.018-0.033,0.012-0.033,0.033C42.815,4.036,42.866,3.982,42.861,3.954z M42.845,4.118
			c0.062-0.006,0.085,0.073,0.05,0.114c-0.066,0.022-0.051-0.036-0.098-0.033C42.794,4.152,42.845,4.161,42.845,4.118z M42.828,4.79
			c0.035-0.013,0.064-0.013,0.1,0c-0.033,0.081,0.02,0.075,0.017,0.162c-0.03,0.003-0.035-0.02-0.066-0.016
			c-0.005,0.028,0.014,0.03,0.033,0.033c-0.04,0.033-0.093,0.038-0.164,0.032c0.002-0.041,0.003-0.079-0.031-0.082
			c0.005-0.02,0.093,0.014,0.146,0c-0.013-0.075-0.134-0.071-0.164-0.033c-0.036-0.084,0.106-0.237,0.019-0.294
			c0.01-0.022,0.033-0.03,0.064-0.033C42.8,4.633,42.809,4.716,42.828,4.79z M42.716,3.922c-0.023,0.066,0.078,0.094,0.015,0.147
			c-0.055-0.016-0.05-0.092-0.064-0.147C42.681,3.922,42.697,3.922,42.716,3.922z M42.566,4.167c0.038,0.046,0.009,0.13-0.064,0.114
			c-0.007-0.015-0.015-0.029-0.033-0.032C42.479,4.198,42.505,4.165,42.566,4.167z M39.57,6.591
			c0.041-0.018,0.025,0.102,0.048,0.049c0.025,0.006-0.013,0.029,0.017,0.033C39.608,6.715,39.552,6.646,39.57,6.591z M40.339,5.052
			c-0.061,0.011-0.072-0.026-0.064-0.082c0.03-0.003,0.054-0.011,0.064-0.033C40.345,4.949,40.367,5.016,40.339,5.052z M40.291,4.74
			c0.005-0.021,0.028-0.025,0.031-0.049c0.042,0.019,0.049,0.072,0.05,0.13C40.312,4.826,40.355,4.729,40.291,4.74z M40.438,6.018
			c-0.046,0.012-0.034-0.033-0.066-0.033c0.025-0.037,0.04-0.024,0.082-0.017C40.445,5.981,40.438,5.995,40.438,6.018z
			 M40.471,8.343c-0.059-0.022-0.075-0.088-0.082-0.163c0.012,0,0.021,0,0.033,0C40.49,8.188,40.498,8.282,40.471,8.343z
			 M41.779,5.345c0.023-0.04,0.107-0.009,0.083,0.051c-0.043-0.046-0.123,0.057-0.131,0.098C41.637,5.453,41.789,5.347,41.779,5.345
			z M41.879,6.312c-0.028-0.006-0.03,0.013-0.033,0.032c-0.066-0.003-0.143,0.002-0.146-0.065c0.05,0.087,0.053-0.062,0.114-0.065
			C41.867,6.214,41.877,6.261,41.879,6.312z M41.634,5.706c0.038-0.005,0.062,0.003,0.081,0.017
			c0.002,0.061-0.015,0.103-0.031,0.147c-0.035,0.006-0.026-0.112-0.05-0.065C41.587,5.789,41.657,5.754,41.634,5.706z
			 M41.044,5.542c-0.002-0.124,0.134-0.104,0.197-0.049c0.033,0.201,0.181,0.288,0.195,0.508C41.203,6.009,41.225,5.64,41.044,5.542
			z M41.323,6.066c0.05,0.002,0.09-0.007,0.113-0.033c0.111,0.065,0.096,0.254,0.212,0.312c0.007-0.068,0.063,0.034,0.083,0.049
			C41.7,6.399,41.68,6.391,41.684,6.361c-0.012,0-0.023,0-0.035,0c0.041,0.202,0.192,0.376,0.23,0.524
			c0.045-0.011,0.126-0.138,0.147-0.065c0.045-0.016-0.023-0.052,0-0.099c-0.043,0.027-0.138-0.009-0.181-0.032
			c0-0.038,0-0.077,0-0.115c0.02,0.003,0.031-0.004,0.033-0.017c0.04,0.108,0.176-0.129,0.066-0.114
			c0.023-0.057,0.105,0.011,0.098-0.05c0.062,0.064,0.041,0.132,0.066,0.164c-0.076,0,0.005,0.038-0.083,0.05
			c-0.003,0.035,0.058,0.007,0.083,0.017c-0.075,0.038,0.021,0.05,0.015,0.114c-0.028-0.043-0.057,0.027,0,0.017
			c-0.01,0.049-0.035-0.017-0.064,0c-0.026,0.063,0.071,0.006,0.064,0.049c0.071-0.003-0.02-0.078,0.052-0.065
			c0,0.038,0,0.077,0,0.115c-0.049,0.002-0.071,0.027-0.066,0.082c-0.093-0.011-0.097-0.017-0.164-0.033
			C41.9,6.934,41.902,7.012,41.862,7.05c-0.071,0.006-0.128-0.005-0.162-0.033C41.682,6.704,41.39,6.434,41.323,6.066z
			 M42.402,8.131c0.026-0.04,0.081,0.024,0.081,0.065C42.429,8.203,42.436,8.147,42.402,8.131z M44.744,7.868
			c0.043,0.002,0.064,0.024,0.068,0.065c-0.047-0.001-0.033,0.027-0.068,0c0.003,0.03,0.012,0.055,0.035,0.065
			c-0.016,0.048-0.054-0.009-0.082,0C44.703,7.944,44.713,7.896,44.744,7.868z M44.09,7.868c-0.106-0.055-0.12-0.025-0.18-0.098
			c0.002-0.02,0.017-0.01,0.017,0c0.093-0.01,0.114-0.021,0.18,0C44.119,7.821,44.079,7.818,44.09,7.868z M43.993,7.344
			c0.026,0.021,0.054,0.044,0.113,0.033c0.02,0.052,0.003,0.037,0,0.099c-0.035-0.005-0.201,0.045-0.213-0.066
			C43.943,7.39,43.976,7.417,43.993,7.344z M43.877,7.771c0.012,0.045,0.07,0.077,0.017,0.098
			C43.857,7.833,43.833,7.807,43.877,7.771z M43.599,8.376c-0.015,0.024-0.024,0.052-0.065,0.049
			c-0.009-0.013-0.018-0.026-0.016-0.049C43.548,8.346,43.548,8.386,43.599,8.376z M42.961,7.214
			c0.053-0.003,0.078,0.066,0.048,0.098c-0.038,0.006,0.009-0.075-0.048-0.049c-0.033-0.007-0.024,0.074,0.015,0.049
			c-0.01,0.049-0.034-0.016-0.064,0C42.901,7.253,42.925,7.227,42.961,7.214z"/>
		<polygon points="41.979,7.46 41.979,7.444 41.974,7.46 		"/>
		<path d="M45.767,9.217h1.484c-0.006-0.094,0.073-0.127,0.132-0.071c0,0.024,0,0.048,0,0.071h0.935
			c0.008-0.086,0.136-0.089,0.146-0.006c0,0.003,0,0.004-0.002,0.006h1.873l0.45-1.262h-1.738l0.059-0.163
			c-0.04,0.022-0.087,0.035-0.133,0.011c-0.021-0.077-0.004-0.166,0.114-0.147c0.017,0.021,0.029,0.045,0.04,0.073l0.328-0.925
			h0.157c-0.004-0.013-0.004-0.029-0.002-0.049c0.071,0.033,0.06,0.044,0.033-0.033c0.052-0.007,0.066,0.021,0.081,0.05
			c0,0.013-0.001,0.024-0.007,0.032h1.479l0.449-1.262h-1.74l0.223-0.609h0.029c-0.015-0.008-0.023-0.021-0.055-0.013
			c0-0.047,0.092-0.043,0.081,0.013h1.676l0.459-1.262h-4.569L45.767,9.217z M50.461,7.966c0.1,0.012,0.12,0.101,0.197,0.132
			c-0.027,0.036-0.045,0.041-0.05,0.066c-0.065,0.007,0.016-0.045-0.048-0.051c-0.053,0.025-0.008,0.071-0.033,0.099
			C50.405,8.175,50.329,8.046,50.461,7.966z M50.839,4.38c0.017,0,0.032,0,0.048,0c0,0.023-0.001,0.046,0.018,0.049
			C50.859,4.509,50.771,4.448,50.839,4.38z M51.789,4.576c0.021,0,0.045,0,0.064,0c-0.025,0.024-0.005,0.093-0.064,0.083
			C51.789,4.631,51.789,4.604,51.789,4.576z M51.575,4.118c0.041-0.008,0.036,0.028,0.083,0.017
			C51.647,4.163,51.554,4.197,51.575,4.118z M51.543,4.003c-0.029,0.021-0.044,0.056-0.099,0.05
			C51.459,4.017,51.483,3.994,51.543,4.003z M50.92,4.02c-0.027,0.028-0.064-0.005-0.064-0.05C50.897,3.966,50.926,3.977,50.92,4.02
			z M50.839,4.118c0.012,0.008,0.026,0.017,0.048,0.017c-0.008,0.045-0.104,0.134-0.114,0.032
			C50.805,4.16,50.844,4.161,50.839,4.118z M50.151,4.135c-0.008,0.033,0.01,0.043,0.017,0.064c0.062-0.002,0.076-0.055,0.146-0.049
			c0.023,0.048,0.042,0.081,0,0.115c-0.077-0.07-0.195-0.002-0.278-0.066C50.065,4.169,50.082,4.125,50.151,4.135z M49.985,6.558
			c0.03-0.022,0.065-0.073,0.147-0.082C50.203,6.59,50.044,6.645,49.985,6.558z M49.854,5.542c0.062-0.007,0.097,0.014,0.1,0.066
			c0.03-0.058,0.157-0.003,0.162,0.065c0.021-0.007,0.035-0.021,0.035-0.05c0.02,0.062,0.033,0.13,0.064,0.181
			c-0.171-0.004-0.235-0.115-0.312-0.213c-0.057,0.004,0.002,0.045-0.033,0.049C49.812,5.656,49.843,5.554,49.854,5.542z
			 M47.693,5.968c0.054-0.013,0.052,0.026,0.083,0.033c-0.003,0.054-0.038,0.072-0.099,0.065
			C47.676,6.026,47.676,5.988,47.693,5.968z M47.711,5.592c0.043,0.012,0.031-0.034,0.049-0.05c0.032,0.005,0.032,0.045,0.065,0.05
			c-0.028,0.026-0.042,0.068-0.1,0.065C47.729,5.628,47.705,5.623,47.711,5.592z M47.973,8.981C47.994,8.944,48.04,8.93,48.07,8.9
			c-0.062-0.049-0.035-0.183,0.081-0.147c0.028,0.071,0.066,0.131,0.133,0.163C48.257,9.008,48.04,9.087,47.973,8.981z M48.61,9.211
			c0.04-0.037-0.014-0.056-0.033-0.082c0.005-0.022,0.05-0.006,0.05-0.032c0.026,0.081,0.051-0.023,0.066,0.082
			C48.644,9.166,48.673,9.235,48.61,9.211z M49.134,8.72c0.083,0.113,0.015,0.292-0.162,0.246c-0.036,0.007,0,0.086-0.033,0.098
			c-0.031,0.02-0.078,0.021-0.114,0.033c-0.06,0.017-0.015-0.073-0.064-0.065c-0.049,0.023,0.043,0.089,0,0.114
			c-0.109-0.068,0.033-0.189,0.112-0.164c-0.007-0.083-0.157-0.058-0.131-0.016c-0.01,0.021-0.078-0.04-0.146-0.017
			c-0.009,0.04,0.072-0.009,0.048,0.05c-0.057,0.042-0.133-0.084-0.114-0.115c-0.19-0.066-0.269-0.244-0.378-0.394
			c-0.313,0.145-0.423,0.494-0.754,0.623c-0.01-0.071,0.029-0.092,0.018-0.164c0.473-0.416,0.867-0.913,1.49-1.179
			c0.007,0.03,0.036,0.04,0.033,0.082c-0.179,0.224-0.454,0.353-0.688,0.523c0.067,0.106,0.153,0.195,0.229,0.295
			c0.139-0.067,0.323,0.001,0.393,0.099C49.005,8.797,49.013,8.701,49.134,8.72z M48.037,4.707c0.096-0.01-0.012,0.089,0.083,0.065
			c-0.028,0.055-0.1,0.066-0.114,0.131c-0.062,0.003-0.09-0.031-0.099-0.082c0.054,0.009,0.07-0.092,0.099-0.016
			C48.052,4.788,48.061,4.756,48.037,4.707z M49.02,8.671c-0.033,0.015-0.048,0.05-0.098,0.049c-0.06-0.02,0.002-0.157-0.05-0.114
			C48.842,8.549,49.036,8.591,49.02,8.671z M49.331,4.659c0.042,0.001,0.04,0.061,0.017,0.081
			C49.296,4.729,49.326,4.696,49.331,4.659z M49.412,5.198c0.062,0.073-0.012,0.248-0.114,0.263
			C49.26,5.357,49.381,5.284,49.412,5.198z M49.086,5.739c0.078-0.07,0.116-0.179,0.181-0.263c0.076,0.305-0.249,0.354-0.247,0.639
			c-0.05,0.049-0.062,0.133-0.131,0.164C48.82,6.087,49.072,5.957,49.086,5.739z M48.151,4.479c0.055,0.033-0.026,0.068-0.031,0.098
			c-0.035-0.009-0.09-0.057-0.1,0c-0.047-0.023-0.057-0.085-0.147-0.065c0.01-0.014,0.018-0.026,0.018-0.049
			c0.09,0.007,0.115,0.019,0.146-0.049C48.104,4.398,48.131,4.502,48.151,4.479z M48.055,4.102c-0.074,0.019-0.17,0.086-0.263,0.033
			C47.771,3.938,48.028,3.973,48.055,4.102z M47.809,4.298c0.01,0.034,0.039,0.046,0.033,0.099c-0.023,0.023-0.108,0.023-0.131,0
			C47.726,4.347,47.727,4.282,47.809,4.298z"/>
	</g>
	<path opacity="0.5" fill-rule="evenodd" clip-rule="evenodd" d="M26.709,9.719c0.028,0.033,0.06,0.066,0.068,0.091
		c-0.035-0.019-0.073-0.038-0.108-0.058C26.678,9.733,26.678,9.709,26.709,9.719z M32.648,3.69
		c-0.033-0.044-0.096-0.096-0.217-0.096c-0.163,0-0.37,0.095-0.471,0.158c-0.007,0.005-0.014,0.008-0.021,0.012
		c0.021-0.048,0.038-0.101,0.055-0.162c0.078-0.266,0.161-0.692,0.161-0.999c0-0.067-0.012-0.128-0.033-0.178
		c-0.023-0.054-0.06-0.097-0.107-0.129c-0.085-0.06-0.189-0.066-0.262-0.066c-0.04,0-0.08,0.002-0.118,0.005
		c-0.019,0.001-0.034,0.002-0.05,0.003c-0.093,0.005-0.203,0.033-0.331,0.088c-0.05,0.021-0.095,0.043-0.123,0.059
		c-0.029-0.001-0.074-0.003-0.127-0.003c-0.13,0-0.232,0.009-0.309,0.025c-0.081,0.018-0.173,0.06-0.273,0.124
		c-0.009,0.005-0.014,0.009-0.02,0.014c-0.028,0.019-0.054,0.036-0.071,0.05c-0.019,0.001-0.042,0.003-0.068,0.003
		c-0.062,0-0.141,0.021-0.19,0.036c-0.05-0.012-0.135-0.026-0.23-0.026c-0.079,0-0.15,0.01-0.214,0.03
		c-0.098,0.029-0.19,0.083-0.275,0.159c-0.024,0.023-0.046,0.044-0.062,0.062C29.206,2.872,29.022,2.9,28.82,2.932l-0.003-0.001
		c-0.219,0-0.438,0.026-0.655,0.074c-0.117-0.144-0.274-0.326-0.381-0.427c-0.181-0.168-0.38-0.368-0.383-0.37l-0.04-0.029
		l-0.018-0.012l-0.366-0.265l0.124,0.215l0.01,0.056c-0.017-0.016-0.041-0.022-0.071-0.036c-0.058-0.026-0.083-0.033-0.084-0.033
		L26.724,2.02l0.04,0.159l0.002,0.026l0.003,0.033c0,0,0.002,0.03,0.015,0.068c0.004,0.008,0.006,0.017,0.006,0.023
		c-0.021-0.009-0.04-0.021-0.05-0.028l-0.285-0.081l0.069,0.235c0.012,0.031,0.014,0.072,0.008,0.088
		c-0.024,0.012-0.051,0.017-0.081,0.017c-0.036,0-0.062-0.009-0.069-0.011l-0.245-0.053l0.071,0.244
		c0.01,0.021,0.019,0.046,0.024,0.067c-0.034,0-0.071-0.01-0.083-0.014l-0.283-0.062l0.128,0.273c0,0.002,0.017,0.027,0.035,0.062
		c0.006,0.013,0.011,0.025,0.017,0.035l-0.33,0.031l0.183,0.193l0.017,0.016c0.011,0.011,0.024,0.025,0.033,0.038
		c-0.032-0.004-0.09,0.01-0.104,0.006h-0.001l-0.161,0.031l0.053,0.117l0.028,0.065c0,0,0.004,0.019,0.01,0.022l-0.144,0.053
		l0.162,0.18c0,0,0.069,0.066,0.104,0.091c0.007,0.004,0.012,0.008,0.019,0.012c-0.023,0.016-0.042,0.037-0.052,0.063
		c-0.017,0.046-0.01,0.096,0.02,0.138c0.005,0.008,0.014,0.016,0.023,0.025c0.009,0.007,0.015,0.015,0.023,0.022
		C25.9,4.23,25.881,4.262,25.872,4.3c-0.007,0.052,0.014,0.104,0.06,0.14c0.004,0.003,0.009,0.007,0.014,0.01
		c-0.012,0.019-0.021,0.04-0.025,0.062c-0.005,0.028,0,0.056,0.014,0.081c-0.095,0.139-0.181,0.284-0.26,0.438
		c-0.108,0.021-0.213,0.046-0.313,0.071c-0.145,0.037-0.235,0.067-0.294,0.09c-0.065,0.024-0.091,0.04-0.104,0.05
		c-0.002,0.002-0.004,0.003-0.006,0.004c-0.046,0.035-0.082,0.092-0.105,0.169c-0.019,0.058-0.026,0.126-0.028,0.197
		c0,0.085,0.012,0.169,0.036,0.241c0.025,0.072,0.06,0.132,0.104,0.18c0.013,0.014,0.026,0.025,0.039,0.037
		c0.002,0,0.002,0.002,0.004,0.002c0.088,0.07,0.181,0.13,0.25,0.172c-0.257,1.406,0.242,2.777,1.311,3.447
		c-0.046-0.066-0.076-0.153-0.069-0.218c0.088-0.021,0.043,0.087,0.129,0.065c0,0.038,0.032,0.049,0.019,0.099
		c0.051-0.012,0.181,0.111,0.145,0.179c0.024,0.012,0.048,0.023,0.072,0.035c0.25,0.116,0.511,0.189,0.774,0.224
		c0.015,0.001,0.028,0.003,0.043,0.005c0.04,0.004,0.079,0.008,0.119,0.012c0.021,0,0.043,0.002,0.064,0.002
		c0.033,0.003,0.066,0.003,0.102,0.004c0.01,0,0.02,0.001,0.031,0.001c0.02,0,0.04-0.001,0.06-0.002c0.014,0,0.026,0,0.038,0
		c0.048-0.002,0.095-0.005,0.145-0.008v-0.001c0.048-0.004,0.094-0.009,0.141-0.016c0.013-0.002,0.026-0.003,0.04-0.006
		c0.034-0.006,0.069-0.011,0.105-0.018c0.014-0.002,0.026-0.005,0.04-0.007c0.043-0.009,0.086-0.019,0.129-0.028
		c0.005-0.001,0.007-0.002,0.012-0.003c0.048-0.012,0.095-0.024,0.141-0.038c0.012-0.004,0.025-0.008,0.035-0.012
		c0.036-0.011,0.071-0.021,0.107-0.034c0.012-0.005,0.027-0.01,0.04-0.015c0.036-0.013,0.073-0.027,0.109-0.042
		c0.01-0.004,0.02-0.007,0.028-0.012c0.046-0.019,0.091-0.038,0.136-0.058c0.01-0.005,0.02-0.01,0.03-0.016
		c0.036-0.017,0.071-0.032,0.105-0.051c0.014-0.008,0.026-0.015,0.042-0.022c0.031-0.018,0.064-0.036,0.096-0.054
		C29.586,9.65,29.6,9.644,29.61,9.637c0.044-0.025,0.085-0.052,0.13-0.079c0.005-0.004,0.01-0.008,0.017-0.011
		c0.036-0.024,0.071-0.049,0.109-0.074c0.012-0.011,0.024-0.02,0.038-0.028c0.029-0.021,0.06-0.044,0.089-0.066
		c0.012-0.009,0.025-0.02,0.037-0.029c0.038-0.029,0.076-0.06,0.112-0.09c0.004-0.003,0.005-0.006,0.009-0.009
		c0.039-0.033,0.076-0.067,0.117-0.104c0.01-0.011,0.021-0.021,0.031-0.031c0.028-0.026,0.055-0.053,0.083-0.08
		c0.012-0.013,0.023-0.024,0.037-0.036c0.026-0.027,0.051-0.054,0.076-0.081c-0.016-0.018-0.007-0.035,0-0.068
		c0.017,0,0.033,0,0.049,0c0.002,0.005,0,0.008,0.002,0.011c0.028-0.033,0.059-0.065,0.086-0.1c0.011-0.011,0.017-0.022,0.027-0.032
		c0.024-0.032,0.049-0.064,0.074-0.097c0.01-0.014,0.023-0.028,0.033-0.043c0.01-0.013,0.02-0.025,0.028-0.04
		c-0.021-0.012-0.032-0.033-0.055-0.043c0.022-0.043,0.076-0.054,0.104-0.022c0.005-0.01,0.012-0.019,0.02-0.028
		c0.03-0.046,0.062-0.092,0.09-0.139c0.006-0.009,0.01-0.017,0.015-0.025c0.024-0.039,0.05-0.079,0.073-0.119
		c0.008-0.015,0.017-0.03,0.026-0.046c0.02-0.036,0.038-0.071,0.058-0.107c0.007-0.016,0.015-0.031,0.023-0.046
		c0.026-0.051,0.051-0.103,0.076-0.153c0.024-0.057,0.048-0.111,0.071-0.167c0.01-0.022,0.019-0.045,0.026-0.068
		c0.002-0.001,0.004-0.003,0.004-0.003c-0.028-0.054,0.034-0.129,0.051-0.173c0.004,0.005,0.005,0.009,0.007,0.014
		c0.002-0.008,0.007-0.017,0.008-0.025c0.005-0.013,0.009-0.025,0.016-0.039c-0.016-0.065,0.044-0.154,0.036-0.243
		c0.014,0.009,0.021,0.023,0.023,0.041c0.01-0.038,0.02-0.075,0.029-0.112c0.004-0.015,0.009-0.028,0.012-0.042
		c0.01-0.044,0.02-0.088,0.026-0.131c0.004-0.009,0.005-0.019,0.009-0.027c0.007-0.048,0.017-0.095,0.024-0.143
		c0-0.004,0-0.009,0.002-0.013c0.067-0.429,0.064-0.852-0.002-1.252c0.047-0.052,0.095-0.107,0.143-0.172
		c0.102-0.13,0.178-0.247,0.199-0.281c0.02-0.021,0.091-0.093,0.19-0.156c0.081-0.053,0.147-0.14,0.193-0.259
		c0.016-0.037,0.025-0.071,0.033-0.099c0.027-0.022,0.068-0.059,0.113-0.105c0.107-0.119,0.188-0.261,0.233-0.409
		c0.015-0.049,0.02-0.092,0.019-0.133C32.689,3.771,32.675,3.727,32.648,3.69z M32.553,3.81c-0.002-0.008-0.006-0.013-0.007-0.019
		c-0.002-0.005-0.004-0.009-0.005-0.011c-0.004-0.006-0.009-0.011-0.012-0.016c-0.002-0.002-0.004-0.005-0.007-0.007
		c-0.005-0.004-0.012-0.007-0.017-0.011c-0.003,0-0.007-0.003-0.01-0.004c-0.009-0.003-0.017-0.006-0.025-0.007
		c-0.003,0-0.005-0.001-0.005-0.002c-0.013-0.001-0.024-0.002-0.038-0.002c-0.013,0-0.029,0.002-0.045,0.004
		c-0.003,0-0.005,0-0.008,0.001c-0.015,0.002-0.026,0.005-0.041,0.008c-0.006,0.002-0.012,0.003-0.019,0.004
		c-0.01,0.004-0.021,0.007-0.035,0.01c-0.005,0.003-0.012,0.005-0.017,0.006c-0.013,0.005-0.023,0.008-0.034,0.013
		c-0.005,0.003-0.012,0.004-0.019,0.007c-0.014,0.004-0.023,0.009-0.033,0.013c-0.007,0.003-0.012,0.005-0.017,0.008
		c-0.012,0.005-0.023,0.011-0.033,0.015c-0.005,0.003-0.01,0.005-0.015,0.007c-0.012,0.006-0.021,0.013-0.031,0.018
		c-0.006,0.002-0.009,0.003-0.011,0.005c-0.013,0.008-0.026,0.015-0.038,0.022c-0.022,0.014-0.044,0.025-0.067,0.035
		c-0.007,0.003-0.017,0.005-0.023,0.008c-0.015,0.005-0.03,0.011-0.045,0.014c-0.008,0.003-0.017,0.004-0.022,0.006
		c-0.016,0.003-0.028,0.005-0.042,0.006c-0.007,0.002-0.015,0.003-0.02,0.003c-0.014,0.002-0.025,0.002-0.035,0.002
		c-0.005,0-0.01,0.001-0.013,0.001c-0.002,0-0.004,0-0.004,0l0,0c-0.014-0.001-0.024-0.001-0.033-0.001
		c-0.002,0-0.002-0.001-0.005-0.001c-0.007-0.001-0.012-0.001-0.017-0.001c-0.003,0-0.003-0.001-0.003-0.001
		c-0.005-0.001-0.007-0.002-0.007-0.002s0.086-0.104,0.166-0.375c0.077-0.271,0.155-0.681,0.155-0.961
		c0-0.023-0.003-0.043-0.005-0.062c-0.002-0.003-0.003-0.008-0.003-0.012c-0.004-0.016-0.007-0.03-0.014-0.043
		c-0.002-0.002-0.002-0.004-0.002-0.006c-0.006-0.014-0.015-0.025-0.021-0.037c-0.003-0.003-0.005-0.005-0.008-0.007
		c-0.007-0.009-0.015-0.017-0.023-0.022c-0.003-0.001-0.003-0.004-0.007-0.005c-0.012-0.007-0.023-0.014-0.034-0.019
		c-0.004-0.001-0.005-0.001-0.007-0.003c-0.012-0.003-0.023-0.007-0.035-0.009c-0.003-0.002-0.007-0.002-0.012-0.003
		c-0.013-0.002-0.026-0.004-0.041-0.006c-0.004,0-0.004,0-0.004-0.001c-0.015,0-0.029,0-0.043,0c-0.003,0-0.008,0-0.012,0
		c-0.022,0-0.049,0-0.072,0.002c-0.03,0.002-0.057,0.004-0.085,0.005c-0.182,0.009-0.427,0.148-0.427,0.148s-0.002,0-0.004,0
		c-0.005-0.001-0.017-0.001-0.031-0.002c-0.009,0-0.017,0-0.025,0c-0.001,0-0.001,0-0.001,0c-0.016-0.001-0.032-0.001-0.048-0.001
		c-0.002,0-0.006,0-0.007,0c-0.017-0.001-0.035-0.002-0.055-0.001c-0.016,0-0.032,0.001-0.05,0.001c-0.005,0-0.01,0-0.017,0
		c-0.021,0.001-0.04,0.001-0.062,0.003c-0.002,0-0.005,0-0.007,0c-0.022,0.002-0.045,0.004-0.066,0.007h-0.001
		c-0.023,0.003-0.045,0.007-0.063,0.011c-0.074,0.018-0.157,0.061-0.22,0.101c-0.072,0.044-0.123,0.085-0.123,0.085
		s-0.05,0.008-0.121,0.008s-0.183,0.043-0.183,0.043s-0.005-0.001-0.008-0.002c-0.002-0.001-0.003-0.002-0.005-0.002
		c-0.005-0.001-0.012-0.002-0.021-0.005c-0.002,0-0.004-0.001-0.007-0.001c-0.01-0.003-0.021-0.005-0.036-0.008
		C30,2.76,29.995,2.76,29.993,2.759c-0.013-0.002-0.024-0.004-0.039-0.006c-0.005-0.001-0.009-0.001-0.014-0.001
		c-0.017-0.003-0.036-0.004-0.057-0.005c-0.003,0-0.006,0-0.01,0c-0.013-0.001-0.028,0-0.043,0c-0.019,0-0.036,0.001-0.055,0.002
		c-0.008,0.002-0.019,0.002-0.026,0.003c-0.028,0.005-0.055,0.01-0.079,0.018c-0.188,0.059-0.307,0.218-0.307,0.218
		s-0.272,0.044-0.572,0.088c-0.024,0.003-0.048,0.008-0.074,0.014c-0.005,0.001-0.012,0.002-0.019,0.003
		c-0.02,0.005-0.041,0.011-0.062,0.016c-0.004,0.001-0.009,0.002-0.012,0.003c-0.025,0.008-0.052,0.015-0.078,0.023
		c0,0.001-0.003,0.001-0.005,0.001c-0.025,0.008-0.047,0.017-0.071,0.023c-0.003,0.002-0.005,0.004-0.01,0.004
		c-0.052,0.018-0.098,0.036-0.141,0.054c-0.002,0.001-0.006,0.001-0.007,0.002c-0.021,0.01-0.04,0.018-0.06,0.025l0,0
		c-0.021,0.009-0.038,0.018-0.057,0.024l0,0c-0.012-0.018-0.031-0.041-0.057-0.071c-0.005-0.007-0.013-0.015-0.018-0.023
		c-0.007-0.008-0.012-0.016-0.021-0.023c-0.017-0.02-0.034-0.041-0.053-0.063c-0.005-0.005-0.009-0.01-0.012-0.016
		c-0.021-0.024-0.043-0.05-0.064-0.076c-0.002-0.002-0.003-0.004-0.005-0.006c-0.023-0.026-0.045-0.055-0.07-0.081
		c0,0-0.001-0.002-0.003-0.003c-0.023-0.026-0.045-0.053-0.067-0.077c-0.006-0.004-0.007-0.009-0.012-0.012
		c-0.021-0.024-0.043-0.047-0.063-0.068c-0.001-0.003-0.007-0.006-0.01-0.01c-0.02-0.021-0.04-0.041-0.058-0.058
		c-0.183-0.173-0.385-0.374-0.385-0.374s0.074,0.219-0.009,0.228c-0.011,0.001-0.02,0.001-0.027,0.001c0,0,0,0.001-0.002,0.001
		S27.26,2.534,27.26,2.534c-0.011,0-0.019,0-0.025-0.002c0,0-0.002,0-0.003,0c-0.007-0.002-0.011-0.004-0.012-0.006
		c-0.002,0-0.004-0.001-0.004-0.002c-0.001-0.002-0.003-0.003-0.005-0.006l0,0c0-0.002-0.001-0.002-0.001-0.002
		s-0.092-0.123-0.137-0.185c-0.005-0.006-0.01-0.013-0.017-0.02c-0.055-0.06-0.175-0.134-0.175-0.134s0.001,0.005,0.005,0.011
		c0.003,0.008,0.008,0.018,0.013,0.03c0.002,0.007,0.005,0.013,0.007,0.021c0.015,0.041,0.03,0.097,0.033,0.143
		c0,0.002,0,0.004,0,0.006c0,0.04-0.014,0.072-0.05,0.084c0,0-0.002,0-0.003,0.001c-0.016,0.003-0.03,0.005-0.045,0.006
		c-0.002,0-0.002,0-0.004,0c-0.008,0-0.018-0.001-0.026-0.001c-0.003-0.001-0.005,0-0.008-0.001
		c-0.002-0.001-0.005-0.002-0.007-0.002c-0.01-0.002-0.02-0.005-0.029-0.008c-0.004,0-0.006,0-0.006-0.001
		c-0.012-0.004-0.02-0.007-0.029-0.011c-0.004-0.002-0.005-0.003-0.01-0.005c-0.007-0.003-0.014-0.006-0.021-0.011
		c-0.003,0-0.005-0.002-0.008-0.003c-0.007-0.004-0.012-0.008-0.017-0.011c0,0-0.004-0.002-0.004-0.003
		c-0.011-0.007-0.02-0.013-0.02-0.013s0.028,0.082,0.015,0.155C26.661,2.61,26.64,2.65,26.59,2.671
		c-0.023,0.01-0.045,0.016-0.068,0.021c-0.003,0.001-0.008,0.001-0.013,0.002h-0.002c-0.02,0.003-0.036,0.005-0.055,0.005H26.45l0,0
		c-0.018,0-0.033-0.001-0.046-0.002c-0.004-0.001-0.007-0.002-0.01-0.003c-0.01-0.001-0.019-0.002-0.025-0.004
		c-0.005-0.001-0.007-0.001-0.01-0.002c-0.007-0.001-0.012-0.003-0.017-0.004c-0.003-0.001-0.003-0.002-0.005-0.003
		c-0.005,0-0.007-0.001-0.007-0.001s0.033,0.067,0.04,0.133c0.003,0.042-0.002,0.082-0.031,0.105
		c-0.012,0.01-0.028,0.016-0.045,0.021c-0.005,0.001-0.007,0.003-0.012,0.004c-0.015,0.003-0.033,0.005-0.05,0.005l0,0h-0.002l0,0
		l0,0c-0.015,0-0.029-0.001-0.044-0.004c-0.002,0-0.006,0-0.009,0c-0.012-0.001-0.021-0.004-0.031-0.005
		c-0.002-0.001-0.005-0.002-0.007-0.002c-0.01-0.003-0.015-0.004-0.023-0.006c0-0.001-0.001-0.001-0.003-0.002
		c-0.003-0.001-0.009-0.002-0.009-0.002s0.03,0.043,0.055,0.096c0.027,0.062,0.05,0.138,0.014,0.182
		c-0.008,0.009-0.019,0.018-0.026,0.023c-0.002,0.002-0.007,0.003-0.01,0.006c-0.005,0.003-0.012,0.006-0.017,0.008
		s-0.009,0.003-0.012,0.004c-0.007,0.001-0.012,0.003-0.019,0.004C26.088,3.25,26.086,3.25,26.079,3.25c-0.001,0-0.005,0-0.01,0
		c0,0-0.002,0-0.005,0c-0.005,0-0.01,0-0.015-0.001c-0.004,0-0.007-0.001-0.011-0.002c-0.005-0.001-0.008-0.002-0.011-0.003
		c-0.004,0-0.009-0.001-0.011-0.001l0,0L26.015,3.25c0.035,0.034,0.112,0.12,0.074,0.21c-0.006,0.014-0.015,0.023-0.024,0.031
		c-0.002,0.003-0.005,0.005-0.01,0.007c-0.007,0.006-0.016,0.01-0.021,0.014c-0.005,0.001-0.01,0.002-0.016,0.003
		C26.01,3.517,26,3.519,25.99,3.519c-0.004,0.001-0.009,0.001-0.012,0.002c-0.005,0-0.009,0.001-0.01,0.001
		c-0.011,0-0.021-0.001-0.03-0.002l0,0c-0.015-0.002-0.03-0.003-0.041-0.006c-0.002,0-0.002,0-0.004,0
		c-0.012-0.002-0.023-0.006-0.033-0.008c-0.001,0-0.003-0.001-0.003-0.001c-0.01-0.004-0.017-0.005-0.023-0.007
		c-0.002,0-0.002-0.001-0.002-0.002c-0.005,0-0.008-0.001-0.008-0.001s0.248,0.127,0.265,0.225c0,0.012,0,0.021-0.003,0.027
		c0,0.002,0,0.004,0,0.006c-0.007,0.006-0.012,0.012-0.019,0.017c-0.003,0.001-0.005,0.003-0.005,0.003
		c-0.008,0.005-0.018,0.008-0.028,0.011l-0.001,0.001C26.023,3.786,26.013,3.787,26,3.788c0,0-0.002,0.001-0.005,0.001
		C25.993,3.79,25.988,3.79,25.984,3.79l-0.092-0.006l0.086,0.052c0.055,0.037,0.114,0.087,0.119,0.131
		c0.002,0.016,0,0.031-0.005,0.043c0,0,0,0.003,0,0.005c-0.005,0.012-0.01,0.021-0.019,0.028c0,0.002-0.002,0.003-0.003,0.005
		c-0.007,0.007-0.017,0.013-0.025,0.017c-0.001,0.001-0.003,0.001-0.003,0.001c-0.01,0.005-0.02,0.007-0.028,0.007
		c-0.002,0-0.002,0-0.002,0c-0.005,0-0.01,0-0.013-0.002c-0.005,0-0.005,0.001-0.007,0.002c0,0.002,0,0.002,0,0.002
		c0,0.002,0.002,0.005,0.005,0.007C26,4.084,26,4.085,26.003,4.086c0.002,0.005,0.007,0.009,0.012,0.013
		c0.003,0.003,0.005,0.005,0.007,0.008c0.008,0.007,0.017,0.014,0.024,0.021c0.004,0.004,0.009,0.008,0.014,0.012
		c0.005,0.005,0.01,0.011,0.015,0.016s0.012,0.01,0.015,0.014c0.004,0.005,0.009,0.009,0.012,0.013
		c0.005,0.006,0.011,0.011,0.012,0.017c0.004,0.003,0.005,0.006,0.009,0.009c0.005,0.008,0.008,0.016,0.01,0.021
		c0.008,0.053-0.004,0.088-0.098,0.088c-0.095,0,0.141,0.082,0.141,0.082h0.002c0.006,0.008,0.041,0.043,0.046,0.075
		c0,0.003,0.002,0.007,0,0.011c-0.001,0.022-0.026,0.041-0.101,0.041c-0.047,0-0.066,0.003-0.063,0.007
		c0.002,0.008,0.055,0.019,0.104,0.035c0.004,0,0.004,0.001,0.004,0.001c0.008,0.003,0.015,0.005,0.021,0.009
		c0.003,0.001,0.005,0.001,0.008,0.002c0.007,0.003,0.012,0.006,0.017,0.009c0.003,0.002,0.005,0.002,0.009,0.003
		c0.006,0.004,0.011,0.009,0.016,0.013c0.004,0.003,0.006,0.007,0.007,0.009c0.005,0.016,0.009,0.029,0.01,0.043
		c0.002,0.004,0.002,0.005,0.002,0.008c0.002,0.011,0.003,0.022,0.005,0.031v0.001c-0.002,0.001-0.003,0.002-0.003,0.004
		c-0.025,0.035-0.05,0.07-0.071,0.105c-0.004,0.004-0.005,0.007-0.007,0.01c-0.021,0.034-0.04,0.067-0.058,0.1
		c0,0.004-0.004,0.007-0.005,0.01c-0.017,0.032-0.033,0.064-0.047,0.092c0,0.003,0,0.005-0.002,0.007
		c-0.013,0.03-0.024,0.059-0.036,0.082l-0.014,0.003c-0.029,0.004-0.06,0.01-0.091,0.015c-0.012,0.003-0.021,0.004-0.031,0.006
		c-0.025,0.004-0.05,0.009-0.074,0.014c-0.011,0.001-0.021,0.003-0.03,0.006c-0.031,0.005-0.062,0.012-0.095,0.018
		c-0.008,0.003-0.017,0.004-0.022,0.006c-0.025,0.005-0.049,0.01-0.07,0.015c-0.013,0.003-0.026,0.006-0.039,0.01
		c-0.019,0.004-0.035,0.008-0.052,0.012c-0.014,0.003-0.026,0.006-0.04,0.009c-0.02,0.005-0.04,0.01-0.058,0.015
		c-0.017,0.004-0.031,0.009-0.047,0.013c-0.018,0.004-0.033,0.008-0.048,0.014c-0.012,0.002-0.021,0.005-0.035,0.009
		c-0.011,0.003-0.024,0.008-0.036,0.012c-0.01,0.001-0.02,0.005-0.029,0.007C25.204,5.29,25.188,5.295,25.173,5.3
		c-0.007,0.002-0.014,0.005-0.02,0.007c-0.016,0.005-0.026,0.01-0.037,0.014c-0.008,0.002-0.012,0.004-0.017,0.007
		c-0.008,0.003-0.018,0.007-0.026,0.01c-0.001,0.002-0.007,0.004-0.01,0.006c-0.01,0.005-0.017,0.01-0.023,0.013
		c0,0-0.001,0.001-0.001,0.002c-0.049,0.038-0.078,0.154-0.076,0.278c0.001,0.069,0.013,0.139,0.038,0.2
		c0.017,0.036,0.034,0.071,0.058,0.099c0.01,0.01,0.021,0.02,0.031,0.027c0.174,0.137,0.358,0.233,0.358,0.233l0.376,0.259
		l0.109,0.038c0,0.005,0,0.01,0.002,0.016c0.003,0.036,0.006,0.072,0.012,0.11c0.001,0.001,0.001,0.003,0.001,0.006
		c0.005,0.038,0.014,0.078,0.021,0.119c0.004,0.011,0.005,0.022,0.009,0.033c0.006,0.034,0.017,0.067,0.026,0.104
		c0.003,0.008,0.005,0.017,0.008,0.024c0.012,0.042,0.026,0.085,0.044,0.129c0.003,0.009,0.008,0.02,0.013,0.029
		c0.014,0.035,0.028,0.07,0.043,0.106c0.005,0.012,0.012,0.023,0.019,0.035c0.02,0.045,0.041,0.09,0.066,0.136
		c0.003,0.006,0.008,0.011,0.01,0.017c0.023,0.04,0.045,0.082,0.071,0.124c0.01,0.013,0.017,0.025,0.024,0.039
		c0.027,0.041,0.055,0.083,0.083,0.126c0.004,0.004,0.007,0.009,0.009,0.014l0,0l-0.052,0.064l0.017,0.191l-0.031,0.243l0.015,0.368
		l0.042,0.122c0,0,0.016,0.343,0.205,0.439c0.01,0.006,0.021,0.01,0.036,0.013c0.004,0,0.01,0,0.015,0
		c0.009,0.002,0.018,0.002,0.025,0.002c0.021,0,0.043-0.004,0.068-0.01c0.005-0.001,0.01-0.003,0.015-0.004
		c0.024-0.007,0.05-0.016,0.078-0.027V9.061c0.027-0.013,0.058-0.028,0.089-0.044c0.005-0.004,0.01-0.008,0.016-0.01
		c0.029-0.018,0.06-0.037,0.092-0.059c0.002-0.001,0.004-0.002,0.006-0.004c0.005-0.002,0.008-0.006,0.013-0.008
		c0.025-0.019,0.052-0.037,0.078-0.057c0.005-0.004,0.01-0.008,0.017-0.013c0.029-0.023,0.062-0.048,0.093-0.074
		c0.005-0.004,0.012-0.01,0.019-0.015c0.027-0.022,0.055-0.047,0.081-0.071c0.005-0.004,0.012-0.009,0.017-0.013
		c0.028-0.026,0.056-0.053,0.086-0.08c0.002-0.003,0.007-0.006,0.01-0.011c0.005,0.003,0.009,0.005,0.012,0.007
		c0.01,0.004,0.02,0.009,0.028,0.013c0.017,0.007,0.031,0.013,0.046,0.019l0.108,0.026c-0.002,0-0.004,0-0.005-0.001
		c0.015,0.003,0.031,0.007,0.049,0.012c0.014,0.003,0.027,0.007,0.042,0.01c-0.014,0.004-0.023,0.01-0.028,0.014
		c0.057,0.032,0.107,0.066,0.212,0.049c0.002-0.008,0.004-0.016,0.004-0.022c0.033,0.007,0.066,0.014,0.104,0.021l0.155,0.018
		c0.035,0.045,0.114,0.065,0.169,0.039l-0.003-0.021c0,0,0-0.001,0.003-0.001V8.783h0.002c0.055-0.017,0.516-0.169,0.97-0.574
		l0.053-1.006c0,0-0.083,0.477-0.178,0.688c-0.093,0.209-0.197,0.291-0.197,0.291s0.209-0.513,0.209-0.722
		c0-0.18,0.01-0.206,0.014-0.209l-0.385,0.464l0.278-0.57L28.79,7.39l0.325-0.361l0.57-0.198c0,0,0.133,0.34,0.167,0.718
		c0.071-0.121,0.136-0.253,0.19-0.397c-0.1-0.138-0.208-0.36-0.255-0.46c-0.186-0.029-0.39-0.084-0.39-0.084s-1.277-0.1-1.795-0.912
		c-0.046-0.072-0.088-0.149-0.119-0.233c-0.093-0.24-0.129-0.531-0.066-0.883c0,0-0.022,1.208,0.953,1.633
		c0.903,0.394,1.47,0.243,1.662,0.377h0.002c0,0,0.116-0.018,0.186-0.077s0.209-0.133,0.314-0.264
		c0.104-0.131,0.113-0.302,0.113-0.302s0.01,0,0.079-0.048c0.069-0.049,0.138-0.165,0.138-0.165s0.08-0.027,0.342-0.167
		c0.066-0.035,0.136-0.095,0.205-0.164c0.204-0.207,0.39-0.504,0.39-0.504s0.088-0.101,0.224-0.188
		c0.121-0.077,0.167-0.265,0.176-0.311c0.001-0.007,0.001-0.01,0.001-0.01s0.246-0.161,0.34-0.476
		c0.005-0.019,0.011-0.035,0.011-0.051c0-0.005,0-0.008,0-0.013c0.001-0.01,0.003-0.021,0.001-0.027
		C32.553,3.818,32.553,3.813,32.553,3.81z M28.462,8.741c-0.005,0.022-0.022,0.031-0.017,0.065c0.039,0.018,0.1,0.01,0.132,0.033
		C28.566,8.778,28.53,8.745,28.462,8.741 M30.119,7.33c-0.003,0.031-0.056,0.01-0.066,0.033c0.007,0.054,0.004,0.117,0.083,0.099
		C30.126,7.423,30.156,7.343,30.119,7.33z M29.808,7.953c0.042-0.002,0.063-0.023,0.066-0.066
		C29.836,7.893,29.798,7.897,29.808,7.953z M29.742,8.002c0.039-0.047-0.011-0.087,0.016-0.131
		C29.688,7.873,29.707,7.983,29.742,8.002z M29.857,8.002c0,0.021,0,0.044,0,0.065c0.05,0.001,0.083-0.015,0.098-0.049
		C29.917,8.019,29.907,7.991,29.857,8.002z M30.038,7.724c0.012-0.072-0.017-0.104-0.083-0.098
		C29.966,7.675,29.98,7.72,30.038,7.724z M26.395,7.659c-0.002-0.005-0.005-0.01-0.009-0.014C26.39,7.649,26.393,7.654,26.395,7.659
		L26.395,7.659z M29.65,7.063c0,0,0.014,0.445,0,0.779c0.042-0.05,0.078-0.102,0.114-0.156C29.738,7.431,29.65,7.063,29.65,7.063z
		 M27.708,9.044L27.708,9.044L27.708,9.044L27.708,9.044z M25.039,5.357c-0.049,0.038-0.078,0.154-0.076,0.278
		C24.961,5.512,24.99,5.396,25.039,5.357z M27.857,3.382l-0.002-0.038c0,0-0.316-0.499-0.414-0.617
		c-0.1-0.116-0.116-0.091-0.116-0.091s-0.179-0.1-0.271-0.155c-0.096-0.057,0.395,0.414,0.456,0.518
		c0.061,0.105,0.165,0.241,0.141,0.321c-0.025,0.08-0.073,0.123-0.073,0.123l-0.455-0.574l-0.328-0.319c0,0,0.011,0.036,0.018,0.129
		c0.009,0.092,0.34,0.401,0.426,0.537c0.087,0.135,0.166,0.24,0.118,0.309c-0.05,0.067-0.141,0.067-0.141,0.067
		s-0.261-0.401-0.421-0.567c-0.161-0.167-0.309-0.271-0.309-0.271s0.055,0.043,0.055,0.124c0,0.079,0.031,0.116,0.031,0.116
		s0.365,0.284,0.463,0.45c0.099,0.168,0.099,0.247,0.029,0.267c-0.066,0.018-0.147-0.062-0.147-0.062s-0.172-0.266-0.319-0.396
		c-0.147-0.129-0.365-0.259-0.365-0.259s0.125,0.111,0.136,0.197c0.012,0.087,0.259,0.216,0.395,0.407
		c0.138,0.191,0.211,0.254,0.113,0.26c-0.102,0.006-0.168-0.031-0.168-0.031s-0.172-0.271-0.319-0.357
		c-0.151-0.087-0.206-0.118-0.206-0.118s0.021,0.075,0.025,0.111c0.007,0.037,0.217,0.136,0.309,0.234
		c0.093,0.1,0.187,0.29,0.187,0.29L26.669,4.06l-0.139-0.16l-0.349-0.303l-0.016,0.13l0.405,0.327l0.005,0.068l-0.079,0.005
		l-0.32-0.228l0.037,0.086l0.267,0.24l-0.31-0.135l0.258,0.203l-0.215,0.019l0.153,0.043l0.104-0.024c0,0,0.569-0.518,0.777-0.636
		c0.075-0.041,0.173-0.09,0.269-0.136c0.176-0.085,0.344-0.16,0.344-0.16L27.857,3.382z M27.767,5.345
		c-0.03-0.025-0.048-0.041-0.048-0.041S27.729,5.319,27.767,5.345z M30.623,2.763c-0.033,0.007-0.066,0.014-0.101,0.021
		c-0.262,0.055-0.35,0.155-0.35,0.155C30,3.231,30.763,2.87,30.675,2.962c-0.164,0.173-0.507,0.545-0.656,0.66
		c-0.232,0.179-0.666,0.808-0.216,0.938c0.451,0.132,0.577,0.047,0.577,0.047s-0.608-0.052-0.599-0.246
		c0.01-0.193,0-0.346,0.335-0.697c0.216-0.225,0.436-0.467,0.55-0.615c0.021-0.025,0.057-0.068,0.098-0.116
		c0.094-0.107,0.209-0.236,0.209-0.236S30.83,2.72,30.623,2.763z M31.377,4.367c-0.395,0.146-0.747,0.197-0.747,0.197
		s0.354,0.009,0.758-0.134c0.262-0.093,0.543-0.249,0.764-0.515C31.94,4.121,31.649,4.267,31.377,4.367z M30.885,3.101
		c-0.027,0.04-0.055,0.082-0.074,0.125c-0.162,0.334-0.147,1.116-0.146,1.232L30.663,4.48c0,0,0.396-0.082,0.675-0.17
		c-0.005-0.015-0.012-0.032-0.032-0.048c-0.039-0.036-0.044-0.037-0.044-0.037s0.055,0.012,0.094,0.03
		c0.014,0.006,0.027,0.013,0.033,0.021c0.005,0.005,0.01,0.01,0.014,0.013c0.046-0.015,0.086-0.029,0.117-0.044
		c0.021-0.01,0.042-0.02,0.062-0.029c-0.002-0.02-0.012-0.047-0.045-0.071c-0.055-0.042-0.062-0.043-0.062-0.043
		s0.125,0.018,0.164,0.051c0.011,0.009,0.019,0.016,0.025,0.021c0.162-0.087,0.285-0.171,0.285-0.171s-0.166-0.015-0.256-0.008
		c-0.089,0.008-0.048-0.096-0.048-0.096l0.138-0.469c0,0,0.166-0.588-0.076-0.709c-0.126,0.013-0.273,0.102-0.406,0.205
		c0.005,0.011,0.009,0.026,0.016,0.053c0.012,0.059-0.037,0.189-0.037,0.189s0.002-0.007-0.01-0.082
		c-0.008-0.051-0.035-0.076-0.053-0.088c-0.08,0.07-0.149,0.143-0.199,0.2c0.002,0.007,0.007,0.012,0.01,0.02
		c0.023,0.041,0.027,0.136,0.027,0.17c0,0.008,0,0.014,0,0.014s0-0.007-0.035-0.071c-0.02-0.036-0.042-0.053-0.062-0.06
		c-0.008,0.01-0.017,0.019-0.019,0.025c-0.034,0.059-0.129,0.402-0.182,0.599c0.043-0.241,0.093-0.487,0.134-0.588
		c0.01-0.025,0.03-0.053,0.05-0.082c0,0,0,0,0-0.001l0.012-0.014c0-0.001-0.002-0.002-0.002-0.002
		c0.173-0.227,0.594-0.533,0.732-0.555c0.164-0.022,0.152,0.152,0.152,0.152c0.175-0.268-0.058-0.326-0.233-0.28
		C31.448,2.567,31.087,2.799,30.885,3.101z M27.438,5.536c0,0-0.618-0.466-1.202-0.407c-0.079,0.008-0.153,0.019-0.227,0.029
		c-0.449,0.067-0.728,0.181-0.728,0.181s0.328-0.067,0.706-0.093c0.324-0.021,0.689-0.009,0.913,0.104
		c0.49,0.245,0.49,0.28,0.49,0.28s-0.642-0.198-1.28-0.175c-0.05,0.002-0.095,0.005-0.138,0.01
		c-0.534,0.044-0.715,0.224-0.715,0.224s0.249-0.115,0.708-0.131c0.088-0.004,0.181-0.003,0.283,0.002
		c0.64,0.035,0.932,0.105,0.932,0.105l-1.236,0.261l-0.197,0.042l0.195-0.025l1.251-0.161l-0.933,0.618l1.072-0.548
		c0,0-0.418,0.412-0.537,0.489c-0.179,0.115-0.759,0.123-0.818,0.167c-0.002,0.002-0.005,0.005-0.004,0.008
		c0.002,0.01,0.037,0.018,0.092,0.021c0.231,0.016,0.83-0.034,0.976-0.243c0.1-0.144,0.478-0.501,0.478-0.501L27.438,5.536z
		 M27.461,4.65c0.361,0.677,1.316,0.886,2.027,0.549c0,0-0.616,0.174-1.119,0c-0.5-0.176-0.664-0.536-0.674-0.664
		c-0.012-0.12,0.021-0.392,0.195-0.551c0.157-0.091,0.307-0.17,0.447-0.238c-0.072,0.146-0.091,0.325-0.003,0.544
		c0.328,0.815,1.097,0.698,1.097,0.698s-0.97-0.244-0.887-0.792c0.066-0.44,0.371-0.677,0.489-0.753
		c0.2-0.077,0.34-0.127,0.397-0.171c0.311-0.395-2.48-0.034-3.334,1.823c-0.002,0.001-0.002,0.002-0.002,0.004
		c0.01-0.004,0.021-0.006,0.03-0.008c0.04-0.005,0.076-0.01,0.114-0.016c0.064-0.002,0.129,0,0.184-0.016
		c0.023-0.006,0.047-0.015,0.066-0.03c0.316-0.295,0.623-0.537,0.913-0.736C27.382,4.408,27.396,4.527,27.461,4.65z M32.239,4.108
		c0,0-0.34,0.277-0.83,0.481c-0.123,0.051-0.254,0.097-0.395,0.134c-0.691,0.182-1.321,0.21-1.321,0.21s1.188-0.02,1.726-0.231
		c0.029-0.01,0.055-0.022,0.079-0.035C31.985,4.422,32.239,4.108,32.239,4.108z M31.727,3.076c0.012,0.033,0.002,0.116,0.002,0.116
		s0.033-0.062,0.038-0.132c0.002-0.069-0.04-0.096-0.04-0.096l-0.049,0.059C31.678,3.023,31.714,3.043,31.727,3.076z M31.921,4.084
		c-0.052-0.008-0.073,0.015-0.066,0.065C31.906,4.157,31.901,4.108,31.921,4.084z M31.586,3.149
		c0.052,0.008,0.073-0.015,0.064-0.066C31.602,3.076,31.579,3.098,31.586,3.149z M24.911,5.705c-0.021-0.071,0.062-0.034,0.05-0.098
		C24.911,5.598,24.866,5.677,24.911,5.705z M25.435,6.476c-0.012,0.05-0.034-0.016-0.064,0C25.36,6.538,25.506,6.53,25.435,6.476z
		 M27.001,4.426c-0.076,0-0.106-0.063-0.181-0.018C26.799,4.551,26.976,4.499,27.001,4.426z M31.182,3.618
		c0.052,0.001,0.085-0.015,0.1-0.049C31.231,3.57,31.182,3.567,31.182,3.618z M30.644,6.328c-0.028,0.001-0.05-0.004-0.066-0.017
		c-0.005,0.038,0.005,0.061,0.033,0.066C30.611,6.351,30.653,6.364,30.644,6.328z M29.971,7.049
		c-0.017-0.093-0.007-0.21-0.064-0.263C29.914,6.863,29.914,6.974,29.971,7.049z M28.676,3.364
		c-0.013,0.031-0.086,0.077-0.017,0.099C28.648,3.423,28.732,3.396,28.676,3.364z M30.136,7.147
		c-0.038-0.197-0.083-0.387-0.147-0.557C30.016,6.798,30.06,6.989,30.136,7.147z M31.348,3.527c0.024-0.047,0.071-0.069,0.081-0.131
		C31.374,3.402,31.308,3.48,31.348,3.527z M31.528,5.345c-0.04-0.005-0.064,0.003-0.083,0.017
		C31.442,5.432,31.538,5.383,31.528,5.345z M31.134,3.429c0.023-0.048,0.076-0.066,0.098-0.114
		C31.175,3.316,31.129,3.416,31.134,3.429z M31.379,7.163c-0.028,0.134-0.146,0.269-0.129,0.394
		C31.281,7.424,31.404,7.296,31.379,7.163z M31.167,7.654c0,0.076-0.063,0.091-0.048,0.181c0.058-0.003,0.103-0.017,0.112-0.065
		c-0.05-0.017-0.062,0.087-0.098,0.032C31.18,7.798,31.195,7.679,31.167,7.654z M28.618,3.555c-0.014-0.031-0.05-0.012-0.017-0.049
		c-0.069,0.008-0.111-0.01-0.147-0.032c-0.053,0.068,0.057,0.188,0.131,0.131C28.525,3.577,28.651,3.607,28.618,3.555z
		 M29.564,7.838c0-0.008,0-0.016,0-0.023c0.005-0.01,0.015-0.015,0.029-0.013c0-0.039-0.027-0.048-0.015-0.098
		c-0.003,0.001-0.005,0.003-0.01,0.006c0.007-0.142,0.009-0.262,0.002-0.31c-0.025-0.151-0.083-0.221-0.083-0.221l-0.162,1.015
		c0.077-0.069,0.155-0.147,0.229-0.231c0.003,0.001,0.005,0.002,0.007,0.003c0.038-0.041,0.003-0.111,0.067-0.082
		C29.634,7.836,29.6,7.832,29.564,7.838z M30.201,7.818c-0.009-0.04-0.014-0.084-0.065-0.082C30.093,7.78,30.138,7.829,30.201,7.818
		z M29.227,7.192c0.013-0.072-0.016-0.104-0.083-0.098C29.155,7.144,29.17,7.188,29.227,7.192z M30.332,8.523
		c0.018,0.063,0.056,0.107,0.115,0.13c0.021-0.063,0.012-0.05-0.017-0.065c0-0.045,0.037,0,0.065-0.064
		c-0.142,0.013,0.013-0.181-0.116-0.164c-0.021,0.055-0.021,0.103,0.019,0.098C30.373,8.476,30.358,8.505,30.332,8.523z
		 M26.141,8.85c-0.005,0.015-0.005,0.022,0,0.027C26.141,8.87,26.141,8.86,26.141,8.85z M26.008,7.966
		c0.047-0.008,0.125-0.07,0.081-0.114C26.055,7.883,26.028,7.92,26.008,7.966z M25.584,7.736c0,0.049-0.043,0.056-0.052,0.099
		C25.596,7.857,25.619,7.76,25.584,7.736z M27.187,6.099c0.008-0.027,0.023,0.004,0.05,0c-0.002-0.092,0.008-0.194-0.05-0.229
		C27.173,5.96,27.22,5.99,27.22,6.066C27.187,6.047,27.142,6.092,27.187,6.099z M26.958,3.887c0.018-0.024,0.055-0.033,0.05-0.081
		C26.964,3.797,26.914,3.863,26.958,3.887z M26.033,9.009c0.021-0.044,0.069-0.062,0.083-0.115
		C26.013,8.88,26.015,8.982,26.033,9.009z M26.275,6.496c0.008,0.023-0.021,0.084,0.016,0.082c0.012-0.048,0.039-0.081,0.065-0.114
		C26.307,6.451,26.324,6.509,26.275,6.496z M25.763,6.591c-0.005,0.03,0.019,0.035,0.017,0.064c-0.008,0-0.019,0.014,0,0.017
		c0.033-0.059,0.045,0.04,0.064,0.05c-0.001-0.029,0.004-0.052,0.017-0.066C25.801,6.66,25.815,6.591,25.763,6.591z M25.66,6.471
		c0.045,0.006,0.06,0.007,0.098,0.049c-0.005-0.05,0.048,0.042,0.05-0.016c-0.047-0.026-0.083-0.06-0.133-0.082
		C25.677,6.444,25.668,6.458,25.66,6.471z M25.99,6.722c-0.045-0.137-0.04-0.093-0.133-0.163C25.857,6.659,25.96,6.654,25.99,6.722z
		 M29.122,4.974c0.005-0.021,0.021-0.031,0.017-0.065c-0.04-0.002-0.08-0.003-0.081,0.032C29.089,4.941,29.077,4.985,29.122,4.974z
		 M27.942,9.829C28,9.837,28.068,9.772,28.04,9.747C28.019,9.784,27.934,9.762,27.942,9.829z M29.707,9.003
		c-0.026,0.037-0.043,0.063-0.017,0.098c0.003-0.013,0.013-0.019,0.031-0.016C29.714,9.034,29.762,9.018,29.707,9.003z
		 M29.644,9.131c-0.013,0.043-0.06,0.051-0.065,0.099c0.021-0.001,0.036,0.008,0.048,0.017C29.621,9.206,29.698,9.166,29.644,9.131z
		 M29.087,9.588c-0.062-0.012-0.088-0.021-0.098,0.049C29.046,9.643,29.096,9.675,29.087,9.588z M29.415,9.538
		c0.057,0.002,0.076-0.032,0.066-0.099c-0.019,0-0.033,0-0.05,0C29.412,9.46,29.412,9.498,29.415,9.538z M30.66,8.112
		c0.022,0.043,0.077,0.14,0.147,0.082C30.744,8.182,30.746,8.103,30.66,8.112z M30.479,8.293c0.033,0.061,0.067,0.117,0.131,0.148
		c-0.048,0-0.1-0.002-0.098,0.049c0.031,0.022,0.069,0.038,0.115,0.049c0.025-0.034,0.017-0.102,0.097-0.082
		C30.713,8.303,30.542,8.368,30.479,8.293z M30.61,8.653c-0.021-0.001-0.023-0.021-0.05-0.017c-0.028,0.064-0.161,0.025-0.147,0.132
		c0.067-0.026,0.083-0.03,0.164-0.017C30.59,8.722,30.605,8.692,30.61,8.653z M28.167,9.538c-0.051,0.035-0.036,0.157,0.017,0.181
		C28.226,9.682,28.273,9.549,28.167,9.538 M27.66,9.243c-0.029,0.027-0.041,0.068-0.033,0.131c0.097,0.027,0.145,0.017,0.229,0.065
		c0.033-0.032,0.012-0.094,0-0.131c-0.084-0.003-0.051,0.062-0.098,0.065V9.292C27.724,9.277,27.71,9.243,27.66,9.243 M27.872,9.047
		c-0.044-0.012-0.031,0.032-0.064,0.032c-0.036-0.084-0.134-0.105-0.197-0.164c-0.036,0.022-0.093,0.028-0.083,0.099
		c0.042,0.049,0.057,0.011,0.116,0c0.031,0.031,0.005,0.06,0,0.099c0.118-0.026,0.111,0.067,0.114,0.114
		c0.055,0.008,0.093-0.006,0.131-0.017C27.893,9.147,27.891,9.09,27.872,9.047 M28.43,9.555c0-0.098-0.102,0.005-0.099-0.082
		c0.033-0.043,0.059-0.097,0.049-0.181c-0.108,0-0.188-0.148-0.294-0.049c0.01,0.159,0.228,0.02,0.229,0.196
		c-0.02-0.014-0.043-0.021-0.082-0.016c-0.007,0.019-0.017,0.037-0.032,0.049C28.229,9.609,28.363,9.503,28.43,9.555 M27.185,9.079
		c0.058,0.021,0.228-0.065,0.197-0.131C27.32,8.997,27.205,8.99,27.185,9.079 M27.054,9.161c0.047-0.013,0.043,0.023,0.083,0.017
		c0.021-0.021,0.008-0.077,0.033-0.099C27.115,9.056,27.052,9.084,27.054,9.161 M27.118,9.357c-0.005,0.044-0.005,0.082,0.052,0.066
		C27.161,9.392,27.163,9.353,27.118,9.357 M28.348,8.915v0.082C28.397,9.022,28.397,8.89,28.348,8.915 M28.445,8.965
		c0.032-0.023,0.083-0.026,0.1-0.066c-0.058-0.003-0.062-0.057-0.115-0.065C28.407,8.857,28.396,8.964,28.445,8.965 M26.939,9.752
		c0.052-0.112,0.003-0.264-0.05-0.361c0,0.109-0.147,0.081-0.181,0.196C26.778,9.645,26.816,9.798,26.939,9.752 M26.956,9.193
		c-0.024-0.003-0.028-0.026-0.05-0.032c-0.021,0.027-0.058,0.04-0.05,0.099C26.918,9.266,26.953,9.247,26.956,9.193 M28.136,9.096
		c-0.028-0.054-0.128-0.028-0.165,0C27.983,9.125,28.131,9.164,28.136,9.096 M28.283,9.079c0.04,0.096,0.228,0.046,0.326,0.082
		C28.59,9,28.368,9.109,28.283,9.079 M29.971,5.188C29.992,5.187,30,5.173,30.004,5.153c-0.027,0-0.05,0.001-0.07,0.001
		C29.942,5.169,29.954,5.18,29.971,5.188z M30.487,5.143c-0.164,0.005-0.3,0.007-0.406,0.01c0.005,0.01,0.005,0.021,0.005,0.035
		c-0.036-0.035-0.036,0.004-0.033,0.049c-0.022,0.002-0.048,0.004-0.049-0.016c-0.038-0.005-0.019,0.047-0.05,0.048
		c0.022,0.029,0.119,0.086,0.017,0.1c0.02-0.024,0.02-0.042,0-0.066c-0.016,0.051-0.068,0.062-0.13,0.066
		c0.021-0.036-0.003-0.122,0.048-0.132c-0.027-0.009-0.032-0.042-0.032-0.081c-0.087,0.002-0.125,0.002-0.125,0.002
		s-0.198,0.192-0.278,0.316v0.002c0,0-0.278,0.282-0.966,0.119c-0.454-0.108-0.637-0.199-0.711-0.25
		c-0.033-0.024-0.058-0.041-0.058-0.041s0.029,0.031,0.055,0.051c0.148,0.118,0.612,0.443,1.133,0.416
		c0.428-0.024,0.537-0.076,0.563-0.104c0.012,0.036,0.026,0.077,0.047,0.12c-0.057,0.028-0.446,0.226-0.867,0.182
		c-0.454-0.047-0.721-0.197-0.721-0.197s0.651,0.418,1.105,0.29c0.275-0.076,0.461-0.124,0.568-0.149
		c0.026,0.026,0.057,0.046,0.091,0.06c-0.05,0.055-0.225,0.227-0.467,0.265c-0.29,0.044-0.442,0.06-0.442,0.06
		s0.624,0.023,0.805-0.089c0.143-0.091,0.244-0.19,0.278-0.229c0.054,0.011,0.106,0.023,0.158,0.034
		c-0.002,0.037-0.027,0.108-0.149,0.194C29.693,6.332,29.551,6.4,29.551,6.4s0.327-0.053,0.473-0.194
		c0.09-0.089,0.138-0.151,0.161-0.189c0.099-0.011,0.21-0.06,0.353-0.186c0.111-0.077,0.424-0.372,0.518-0.436
		C31.18,5.31,31.146,5.24,31.2,5.224c0.096-0.031,0.172-0.063,0.229-0.094c0.003-0.075,0.003-0.148,0-0.224
		C31.19,5.007,30.824,5.135,30.487,5.143z M26.979,4.215c-0.016-0.082,0.051-0.08,0.05-0.147c-0.078,0.028-0.073-0.009-0.147-0.017
		C26.84,4.146,26.904,4.227,26.979,4.215z M29.745,3.347c0,0,0.155,0.029,0.253-0.088c0.099-0.118,0.037-0.286,0.037-0.286
		s-0.14-0.15-0.267-0.116c-0.128,0.035-0.257,0.129-0.232,0.268C29.56,3.265,29.745,3.347,29.745,3.347z M26.996,7.074l0.618-0.011
		l-0.898,0.489l0.933-0.361c0,0-0.034,0.046-0.338,0.431c-0.179,0.227-0.369,0.42-0.495,0.541c-0.088,0.085-0.146,0.135-0.146,0.135
		s0.085-0.03,0.19-0.092c0.08-0.046,0.173-0.108,0.252-0.188c0.188-0.187,0.651-0.805,0.651-0.805s-0.148,0.479-0.348,0.781
		c-0.1,0.152-0.233,0.289-0.343,0.389c-0.109,0.099-0.192,0.159-0.192,0.159s0.109-0.06,0.229-0.132
		c0.074-0.043,0.151-0.093,0.212-0.136c0.164-0.117,0.678-1.224,0.678-1.224s-0.06,0.338-0.314,0.862
		c-0.1,0.203-0.271,0.407-0.446,0.581c-0.153,0.154-0.31,0.284-0.415,0.367c-0.078,0.063-0.13,0.101-0.13,0.101s0.058,0,0.188-0.048
		c0.01-0.004,0.024-0.01,0.036-0.018c0.098-0.053,0.269-0.183,0.428-0.342c0.106-0.105,0.209-0.225,0.28-0.339
		c0.198-0.314,0.583-1.26,0.583-1.26l-0.081-0.045l-0.128-0.07l-0.21-0.012L26.996,7.074z M27.793,6.901
		c0.043,0.001,0.024,0.064,0.064,0.065c-0.005-0.05,0.128-0.048,0.066-0.098c-0.003,0.024-0.025,0.001-0.033-0.017
		c0.01,0,0.02-0.014,0-0.016C27.866,6.864,27.796,6.849,27.793,6.901z M27.867,7.089C27.876,7.052,27.905,7,27.851,6.99
		C27.866,7.049,27.81,7.074,27.867,7.089z M30.151,5.623c0.021-0.038,0.107-0.013,0.115-0.065
		C30.192,5.535,30.116,5.591,30.151,5.623z"/>
	<g opacity="0.5">
		<path d="M51.205,9.054c0,0.151-0.117,0.271-0.273,0.271c-0.152,0-0.274-0.119-0.274-0.271c0-0.148,0.122-0.268,0.274-0.268
			C51.088,8.786,51.205,8.905,51.205,9.054z M50.725,9.054c0,0.119,0.088,0.214,0.209,0.214c0.117,0,0.204-0.095,0.204-0.213
			S51.051,8.84,50.932,8.84S50.725,8.937,50.725,9.054z M50.891,9.193h-0.063V8.926c0.025-0.004,0.06-0.008,0.104-0.008
			c0.049,0,0.071,0.008,0.092,0.02c0.015,0.012,0.024,0.033,0.024,0.06c0,0.029-0.02,0.052-0.055,0.062v0.004
			c0.026,0.009,0.042,0.028,0.05,0.064c0.008,0.04,0.014,0.057,0.02,0.066h-0.067c-0.007-0.01-0.012-0.033-0.021-0.065
			C50.97,9.1,50.952,9.086,50.919,9.086h-0.028V9.193z M50.893,9.042h0.027c0.035,0,0.063-0.012,0.063-0.039
			c0-0.023-0.019-0.04-0.058-0.04c-0.017,0-0.028,0.001-0.033,0.003V9.042z"/>
	</g>
</g>
</svg>
