<?xml version="1.0" encoding="utf-8"?>
<!-- Generator: Adobe Illustrator 16.0.3, SVG Export Plug-In . SVG Version: 6.00 Build 0)  -->
<!DOCTYPE svg PUBLIC "-//W3C//DTD SVG 1.1//EN" "http://www.w3.org/Graphics/SVG/1.1/DTD/svg11.dtd">
<svg version="1.1" id="Layer_1" xmlns="http://www.w3.org/2000/svg" xmlns:xlink="http://www.w3.org/1999/xlink" x="0px" y="0px"
	 width="41px" height="12px" viewBox="0 0 41 12" enable-background="new 0 0 41 12" xml:space="preserve">
<g opacity="0.7">
	<g>
		<g>
			<g>
				<ellipse fill="#565656" cx="17.287" cy="5.774" rx="0.438" ry="0.418"/>
			</g>
			<path fill="#565656" d="M5.258,3.352v4.084c0,0-0.004,0.213,0.118,0.336C5.477,7.873,5.73,7.881,5.73,7.881l0.798,0.002
				c0,0,0.278,0,0.387-0.104c0.092-0.092,0.092-0.342,0.092-0.342V3.345l0.855,0.004l0.003,4.34c0,0-0.003,0.453-0.225,0.695
				C7.387,8.658,7.005,8.689,7.005,8.689L5.254,8.695c0,0-0.302-0.006-0.587-0.299c-0.27-0.273-0.266-0.67-0.266-0.67l-0.01-4.369
				L5.258,3.352z"/>
			<polygon fill="#565656" points="11.863,3.345 11.854,8.695 10.958,8.697 10.965,6.139 9.37,6.142 9.371,8.697 8.432,8.697 
				8.434,3.353 9.367,3.345 9.37,5.29 10.963,5.285 10.963,3.348 			"/>
			<path fill="#565656" d="M14.959,3.347c0,0,0.263,0.001,0.615,0.343c0.314,0.307,0.306,0.724,0.306,0.724l-0.005,0.738
				c0,0-0.062,0.375-0.349,0.63c-0.406,0.335-0.58,0.29-0.927,0.364c0.562,0.798,2.077,2.549,2.077,2.549l-1.104,0.002l-2.244-2.72
				l0.005,2.712h-0.905l-0.001-5.338L14.959,3.347z M14.668,4.203h-1.335l-0.005,1.083l1.369-0.004c0,0,0.334-0.083,0.333-0.546
				C15.028,4.327,14.668,4.203,14.668,4.203z"/>
			<path fill="#565656" d="M18.489,7.879c0,0,0.184,0.014,0.343-0.182c0.11-0.135,0.103-0.348,0.103-0.348l-0.004-4l0.925,0.003
				l-0.012,4.286c0,0,0.016,0.311-0.267,0.666c-0.284,0.363-0.745,0.393-0.745,0.393l-1.624-0.008l-0.667-0.809L18.489,7.879z"/>
			<path fill="#565656" d="M30.212,8.695h-2.498V7.881l2.176-0.006c0,0,0.236,0.076,0.367-0.15c0.123-0.213-0.131-0.43-0.131-0.43
				l-2.072-2.33c0,0-0.418-0.377-0.242-0.965c0.162-0.555,0.914-0.656,0.914-0.656l2.455,0.007l0.008,0.769l-2.02,0.002
				c0,0-0.371-0.047-0.457,0.129c-0.08,0.161,0.104,0.351,0.104,0.351l2.014,2.263c0,0,0.518,0.533,0.18,1.228
				C30.728,8.674,30.212,8.695,30.212,8.695z"/>
			<polygon fill="#565656" points="26.554,8.695 24.683,5.476 24.683,8.697 23.761,8.689 23.763,3.351 24.478,3.352 26.368,6.667 
				26.374,3.345 27.269,3.345 27.274,8.697 			"/>
			<polygon fill="#565656" points="20.339,8.697 20.34,3.348 23.272,3.345 23.271,4.124 21.212,4.121 21.216,5.484 23.278,5.484 
				23.276,6.249 21.222,6.257 21.212,7.881 23.278,7.883 23.276,8.695 			"/>
			<path fill="#565656" d="M2.142,7.879c0,0-0.211,0.031-0.374-0.17C1.625,7.533,1.664,7.281,1.664,7.281l0.004-3.932L0.765,3.353
				l0.009,4.198c0,0-0.004,0.445,0.291,0.768C1.38,8.664,1.747,8.697,1.747,8.697l2.285-0.008L4.027,7.881L2.142,7.879z"/>
			<polygon fill="#565656" points="31.632,8.697 31.634,3.348 34.567,3.345 34.563,4.124 32.505,4.121 32.509,5.484 34.571,5.484 
				34.567,6.249 32.511,6.257 32.505,7.881 34.571,7.883 34.571,8.695 			"/>
			<polygon fill="#565656" points="37.808,8.695 35.937,5.476 35.937,8.697 35.015,8.689 35.017,3.351 35.731,3.352 37.622,6.667 
				37.628,3.345 38.522,3.345 38.528,8.697 			"/>
		</g>
	</g>
	<g>
		<path fill="#565656" d="M39.69,3.302c0.305,0,0.545,0.247,0.545,0.555c0,0.312-0.24,0.557-0.547,0.557
			c-0.301,0-0.549-0.244-0.549-0.557c0-0.309,0.248-0.555,0.549-0.555H39.69z M39.688,3.39c-0.244,0-0.443,0.208-0.443,0.467
			c0,0.263,0.199,0.471,0.445,0.471c0.248,0.001,0.443-0.208,0.443-0.468c0-0.262-0.195-0.47-0.443-0.47H39.688z M39.583,4.18
			h-0.096V3.562c0.051-0.007,0.102-0.015,0.174-0.015c0.094,0,0.158,0.021,0.195,0.047c0.035,0.027,0.055,0.069,0.055,0.127
			c0,0.082-0.055,0.131-0.121,0.15v0.006c0.055,0.01,0.092,0.059,0.105,0.15c0.012,0.097,0.027,0.132,0.037,0.153h-0.104
			C39.817,4.16,39.8,4.103,39.788,4.021c-0.016-0.078-0.055-0.108-0.135-0.108h-0.07V4.18z M39.583,3.837h0.074
			c0.084,0,0.15-0.028,0.15-0.105c0-0.053-0.041-0.109-0.15-0.109c-0.031,0-0.055,0.003-0.074,0.005V3.837z"/>
	</g>
</g>
</svg>
