<?xml version="1.0" encoding="utf-8"?>
<!-- Generator: Adobe Illustrator 16.0.3, SVG Export Plug-In . SVG Version: 6.00 Build 0)  -->
<!DOCTYPE svg PUBLIC "-//W3C//DTD SVG 1.1//EN" "http://www.w3.org/Graphics/SVG/1.1/DTD/svg11.dtd">
<svg version="1.1" id="Layer_1" xmlns="http://www.w3.org/2000/svg" xmlns:xlink="http://www.w3.org/1999/xlink" x="0px" y="0px"
	 width="38px" height="12px" viewBox="0 0 38 12" enable-background="new 0 0 38 12" xml:space="preserve">
<g opacity="0.5">
	<path d="M1.087,7.868l1.331-6.036h2.521l0.264,2.853l1.572-2.853h2.55L7.996,7.868H6.218l0.406-1.845l0.231-0.939l0.341-1.09H7.18
		L5.229,7.868H3.854L3.61,3.995H3.592L3.481,4.884L3.316,5.823L2.865,7.868H1.087z"/>
	<path d="M10.917,7.005c-0.344,0-0.52-0.151-0.471-0.369c0.125-0.57,0.851-0.437,1.481-0.713C11.836,6.526,11.53,7.005,10.917,7.005
		z M13.478,7.868l0.019-0.085c-0.187-0.183-0.167-0.31-0.112-0.561l0.451-2.054c0.232-1.048,0.276-1.819-1.804-1.819
		c-1.734,0-2.517,0.543-2.721,1.475h1.676c0.125-0.377,0.464-0.428,0.706-0.428c0.186,0,0.561,0.043,0.491,0.361
		c-0.181,0.821-3.109-0.084-3.547,1.911C8.436,7.582,9.081,7.993,9.912,7.993c0.654,0,1.187-0.134,1.783-0.594l-0.02,0.469H13.478z"
		/>
	<path d="M27.668,7.868h-1.617l0.143-0.646c-0.568,0.604-1.035,0.771-1.756,0.771c-0.954,0-1.446-0.586-1.17-1.844l0.59-2.674h1.744
		l-0.522,2.372c-0.134,0.604,0.034,0.796,0.453,0.796c0.502,0,0.744-0.378,0.894-1.057l0.467-2.111h1.742L27.668,7.868z"/>
	<path d="M28.978,3.476h1.601l-0.146,0.653c0.294-0.334,0.937-0.779,1.566-0.779c0.785,0,1.149,0.335,1.256,0.804
		c0.492-0.528,1.048-0.804,1.694-0.804c1.281,0,1.524,0.721,1.262,1.919l-0.573,2.599h-1.743l0.492-2.238
		C34.528,4.984,34.46,4.724,34,4.724c-0.513,0-0.711,0.445-0.827,0.972l-0.477,2.172h-1.745l0.492-2.238
		c0.143-0.646,0.075-0.906-0.387-0.906c-0.511,0-0.709,0.445-0.825,0.972l-0.48,2.172h-1.742L28.978,3.476z"/>
	<g>
		<polygon points="33.716,8.913 34.02,8.913 34.153,8.411 33.849,8.411 		"/>
		<polygon points="33.113,8.913 33.418,8.913 33.55,8.411 33.247,8.411 		"/>
		<polygon points="32.512,8.913 32.814,8.913 32.948,8.411 32.645,8.411 		"/>
		<polygon fill="#484848" points="0.876,8.913 32.212,8.913 32.346,8.411 1.009,8.411 		"/>
		<polygon fill="#484848" points="34.317,8.913 35.473,8.913 35.604,8.411 34.451,8.411 		"/>
	</g>
	<g>
		<path d="M14.288,9.341L14.22,9.649h-0.542l-0.197,0.907h-0.388l0.197-0.907H12.75l0.067-0.309H14.288z"/>
		<path d="M15.807,9.341l-0.062,0.286h-0.98l-0.039,0.176h0.931l-0.058,0.269h-0.931l-0.042,0.193h0.988l-0.063,0.292h-1.353
			l0.266-1.216H15.807z"/>
		<path d="M17.376,10.087c-0.013,0.074-0.018,0.099-0.023,0.125c-0.042,0.185-0.113,0.276-0.256,0.319
			c-0.102,0.03-0.243,0.043-0.496,0.043c-0.494,0-0.64-0.016-0.727-0.071c-0.069-0.046-0.092-0.112-0.079-0.236
			c0.006-0.055,0.024-0.156,0.059-0.311c0.059-0.271,0.087-0.371,0.13-0.439c0.102-0.163,0.242-0.194,0.874-0.194
			c0.328,0,0.439,0.013,0.513,0.056c0.09,0.055,0.109,0.143,0.067,0.334l-0.014,0.064h-0.37c0.015-0.081,0.014-0.097-0.004-0.115
			c-0.022-0.024-0.127-0.034-0.362-0.034c-0.229,0-0.298,0.006-0.341,0.036c-0.052,0.036-0.082,0.107-0.122,0.292
			c-0.041,0.184-0.042,0.242-0.004,0.274c0.035,0.033,0.095,0.04,0.345,0.04c0.39,0,0.398-0.003,0.439-0.183H17.376z"/>
		<path d="M18.13,9.341l-0.096,0.436h0.837l0.095-0.436h0.388l-0.265,1.216h-0.388l0.096-0.439h-0.836l-0.096,0.439h-0.388
			l0.265-1.216H18.13z"/>
		<path d="M20.242,9.341l0.439,0.905h0.038l0.188-0.905h0.378l-0.268,1.216h-0.643l-0.441-0.907h-0.04l-0.188,0.907h-0.377
			l0.266-1.216H20.242z"/>
		<path d="M23.034,9.405c0.078,0.071,0.079,0.193,0.002,0.543c-0.076,0.35-0.129,0.472-0.238,0.543
			c-0.109,0.07-0.225,0.083-0.732,0.083c-0.509,0-0.619-0.013-0.697-0.083c-0.077-0.071-0.077-0.193-0.003-0.543
			c0.078-0.35,0.13-0.469,0.24-0.543c0.108-0.07,0.223-0.083,0.744-0.083C22.845,9.322,22.956,9.337,23.034,9.405z M21.816,9.715
			c-0.031,0.04-0.054,0.11-0.086,0.265c-0.034,0.151-0.034,0.201,0.003,0.235c0.04,0.038,0.097,0.044,0.4,0.044
			c0.303,0,0.361-0.006,0.42-0.044c0.048-0.033,0.073-0.085,0.104-0.231c0.04-0.182,0.044-0.252,0.021-0.292
			c-0.032-0.049-0.069-0.055-0.425-0.055C21.907,9.637,21.869,9.645,21.816,9.715z"/>
		<path d="M23.772,9.341l-0.197,0.905h0.864l-0.067,0.311h-1.254l0.268-1.216H23.772z"/>
		<path d="M26.328,9.405c0.078,0.071,0.078,0.193,0.003,0.543c-0.078,0.35-0.131,0.472-0.24,0.543
			c-0.106,0.07-0.225,0.083-0.73,0.083c-0.51,0-0.62-0.013-0.696-0.083c-0.078-0.071-0.079-0.193-0.003-0.543
			s0.13-0.469,0.239-0.543c0.107-0.07,0.223-0.083,0.741-0.083C26.139,9.322,26.25,9.337,26.328,9.405z M25.11,9.715
			c-0.029,0.04-0.052,0.11-0.084,0.265c-0.034,0.151-0.034,0.201,0.002,0.235c0.037,0.038,0.097,0.044,0.399,0.044
			c0.302,0,0.363-0.006,0.419-0.044c0.05-0.033,0.075-0.085,0.106-0.231c0.039-0.182,0.043-0.252,0.02-0.292
			c-0.031-0.049-0.068-0.055-0.425-0.055C25.2,9.637,25.162,9.645,25.11,9.715z"/>
		<path d="M28.15,9.867L28.144,9.9c-0.026,0.119-0.08,0.328-0.098,0.386c-0.045,0.143-0.143,0.226-0.294,0.256
			c-0.13,0.024-0.262,0.032-0.59,0.032c-0.417,0-0.541-0.016-0.629-0.086c-0.062-0.047-0.08-0.116-0.064-0.244
			c0.005-0.049,0.027-0.173,0.06-0.319c0.071-0.324,0.129-0.448,0.246-0.517c0.101-0.062,0.3-0.086,0.726-0.086
			c0.451,0,0.614,0.031,0.674,0.126c0.036,0.06,0.035,0.135-0.003,0.313h-0.37c0.015-0.071,0.015-0.086-0.008-0.103
			c-0.029-0.026-0.111-0.032-0.394-0.032c-0.435,0-0.438,0.001-0.505,0.317c-0.044,0.205-0.048,0.268-0.014,0.3
			c0.024,0.025,0.057,0.031,0.159,0.034l0.216,0.005c0.315,0,0.383-0.007,0.426-0.037c0.023-0.021,0.034-0.041,0.055-0.137h-0.487
			l0.054-0.242H28.15z"/>
		<path d="M28.872,9.341l-0.266,1.216h-0.389l0.267-1.216H28.872z"/>
		<path d="M30.455,9.341l-0.062,0.286h-0.98l-0.038,0.176h0.931l-0.057,0.269h-0.933l-0.042,0.193h0.987l-0.062,0.292h-1.354
			l0.267-1.216H30.455z"/>
		<path d="M30.812,10.153c-0.017,0.072-0.016,0.096,0.009,0.115c0.03,0.021,0.07,0.025,0.331,0.025c0.397,0,0.397,0,0.421-0.11
			c0.016-0.07-0.008-0.089-0.126-0.091l-0.192-0.007l-0.097-0.004c-0.087-0.004-0.182-0.007-0.293-0.013
			c-0.298-0.01-0.365-0.086-0.308-0.354c0.052-0.231,0.14-0.335,0.315-0.373c0.076-0.013,0.242-0.021,0.541-0.021
			c0.345,0,0.471,0.016,0.544,0.075c0.061,0.047,0.075,0.125,0.045,0.264C32,9.672,31.995,9.697,31.987,9.723h-0.356
			c0.01-0.066,0.009-0.083-0.015-0.1c-0.027-0.019-0.071-0.022-0.346-0.022c-0.3,0-0.328,0.008-0.349,0.097
			c-0.011,0.046,0.001,0.069,0.037,0.079c0.03,0.01,0.13,0.014,0.385,0.021c0.399,0.013,0.476,0.021,0.543,0.071
			c0.071,0.052,0.084,0.136,0.049,0.299c-0.048,0.221-0.119,0.323-0.257,0.37c-0.079,0.027-0.235,0.036-0.598,0.036
			c-0.376,0-0.521-0.018-0.594-0.071c-0.072-0.052-0.085-0.124-0.05-0.286l0.016-0.063H30.812z"/>
	</g>
	<path d="M23.353,4.249c0.181-1.551-0.648-2.465-2.493-2.465c-1.166,0-2.287,0.584-3.01,1.59c-0.073-0.009-0.143-0.024-0.217-0.024
		c-0.678,0-1.177,0.326-1.573,1.013h-0.016l0.195-0.888h-1.584l-0.968,4.393h1.743l0.335-1.518c0.209-0.946,0.644-1.283,1.356-1.283
		c0.003,0,0.007,0.001,0.011,0.001c-0.371,1.894,0.567,3.069,2.522,3.069c1.594,0,2.914-0.938,3.434-2.498h-1.902
		c-0.202,0.578-0.603,1.022-1.24,1.022c-1.005,0-1.015-0.794-0.828-1.642c0.257-1.165,0.808-1.76,1.503-1.76
		c0.619,0,0.935,0.359,0.854,0.989H23.353z"/>
</g>
<g opacity="0.5">
	<path d="M36.535,7.192v0.073h-0.174v0.496h-0.086V7.266h-0.174V7.192H36.535z M37.086,7.762l-0.022-0.343
		c-0.004-0.045,0-0.099-0.001-0.155h-0.006c-0.014,0.054-0.03,0.113-0.048,0.164L36.89,7.755h-0.065l-0.116-0.336
		c-0.015-0.046-0.027-0.102-0.042-0.155h-0.004c-0.001,0.055,0,0.103-0.003,0.155l-0.021,0.343h-0.082L36.6,7.192h0.113l0.111,0.31
		c0.014,0.043,0.026,0.089,0.039,0.143h0.003c0.015-0.054,0.026-0.104,0.041-0.145l0.111-0.308h0.112l0.043,0.569H37.086z"/>
</g>
</svg>
