<?xml version="1.0" encoding="utf-8"?>
<!-- Generator: Adobe Illustrator 23.1.1, SVG Export Plug-In . SVG Version: 6.00 Build 0)  -->
<svg version="1.1" id="Layer_1" xmlns="http://www.w3.org/2000/svg" xmlns:xlink="http://www.w3.org/1999/xlink" x="0px" y="0px"
	 viewBox="0 0 100 33" style="enable-background:new 0 0 100 33;" xml:space="preserve">
<style type="text/css">
	.st0{fill:#231F20;}
</style>
<g>
	<path class="st0" d="M70.93,14.55c-0.01-0.01-0.02,0-0.02-0.01c-0.32-0.3-0.83-0.48-1.42-0.48c-0.63,0-1.01,0.04-1.52,0.26
		c-0.36,0.16-1.07,0.71-1.05,0.06c0-0.08-0.07-0.18-0.11-0.21c-0.1-0.08-0.32-0.15-0.55-0.05c-0.21,0.09-0.31,0.23-0.66,0.41
		c-0.39,0.2-0.91,0.48-1.4,0.57c-0.38,0.07-0.49,0.36-0.53,0.52c-0.04,0.16,0.04,0.36,0.25,0.44c0.21,0.08,0.51,0.16,0.55,0.34
		c0.04,0.21,0.02,0.32-0.16,1.1c-0.16,0.69-0.37,1.57-0.5,2.1c-0.14,0.53-0.12,0.66-0.48,0.78c-0.49,0.15-0.59,0.38-0.62,0.52
		c-0.03,0.13-0.01,0.26,0.05,0.34c0.06,0.09,0.15,0.15,0.35,0.15h2.8c0.16,0,0.35-0.02,0.46-0.09c0.1-0.07,0.21-0.14,0.25-0.34
		c0.05-0.25-0.05-0.53-0.4-0.6c-0.35-0.07-0.43-0.19-0.48-0.35c-0.06-0.16-0.04-0.31,0.06-0.7c0.31-1.3,0.48-2.03,0.73-3.1
		c0.08-0.18,0.22-0.37,0.5-0.64c0.49-0.46,1.69-0.71,2.09-0.05c0.22,0.54-0.05,1.24-0.22,1.99c-0.16,0.69-0.37,1.57-0.5,2.1
		c-0.14,0.53-0.12,0.66-0.48,0.78c-0.49,0.15-0.59,0.38-0.62,0.52c-0.03,0.13-0.01,0.26,0.05,0.34c0.06,0.09,0.15,0.15,0.35,0.15
		h2.8c0.16,0,0.35-0.02,0.46-0.09c0.1-0.07,0.22-0.14,0.25-0.34c0.05-0.25-0.05-0.53-0.4-0.6s-0.43-0.19-0.48-0.35
		c-0.06-0.16-0.04-0.31,0.06-0.7c0.44-1.86,0.31-1.33,0.82-3.55C71.24,15.59,71.38,14.96,70.93,14.55"/>
	<path class="st0" d="M46.01,14.08c-0.42-0.17-1.1,0.17-1.24,0.23c-0.36,0.16-1.04,0.72-1.02,0.07c0-0.08-0.07-0.18-0.11-0.21
		c-0.1-0.08-0.32-0.15-0.55-0.05c-0.21,0.09-0.31,0.23-0.66,0.41c-0.39,0.2-0.91,0.48-1.4,0.57c-0.38,0.07-0.49,0.36-0.53,0.52
		c-0.04,0.16,0.04,0.36,0.25,0.44c0.21,0.08,0.51,0.16,0.55,0.34c0.04,0.21,0.02,0.32-0.16,1.1c-0.16,0.69-0.37,1.57-0.5,2.1
		c-0.14,0.53-0.12,0.66-0.48,0.78c-0.49,0.15-0.59,0.38-0.62,0.52c-0.03,0.13-0.01,0.26,0.05,0.34c0.06,0.09,0.15,0.15,0.35,0.15
		h2.8c0.16,0,0.35-0.02,0.46-0.09c0.1-0.07,0.21-0.14,0.25-0.34c0.05-0.25-0.05-0.53-0.4-0.6c-0.35-0.07-0.43-0.19-0.48-0.35
		c-0.06-0.16-0.04-0.31,0.06-0.7c0.31-1.3,0.67-2.92,0.73-3.1c0.05-0.18,0.03-0.29,0.31-0.55c0.42-0.39,0.76-0.15,1.26,0.05
		c0.74,0.3,1.29-0.25,1.41-0.63C46.45,14.77,46.42,14.26,46.01,14.08"/>
	<path class="st0" d="M76.12,12.82c0-0.22-0.08-0.43-0.21-0.6c-0.19-0.26-0.49-0.43-0.82-0.43c-0.58,0-1.03,0.47-1.03,1.03
		c0,0.58,0.45,1.03,1.03,1.03c0.34,0,0.64-0.17,0.82-0.41C76.04,13.25,76.12,13.04,76.12,12.82"/>
	<path class="st0" d="M75.74,14.18c-0.1-0.08-0.32-0.15-0.55-0.05c-0.21,0.09-0.31,0.23-0.66,0.41c-0.4,0.2-0.91,0.48-1.4,0.57
		c-0.38,0.07-0.49,0.36-0.53,0.52c-0.04,0.16,0.04,0.36,0.25,0.44c0.21,0.08,0.51,0.16,0.55,0.34c0.04,0.21,0.02,0.32-0.16,1.1
		c-0.16,0.69-0.37,1.57-0.5,2.1c-0.14,0.53-0.12,0.66-0.48,0.78c-0.49,0.15-0.59,0.38-0.62,0.52c-0.03,0.13-0.01,0.26,0.05,0.34
		c0.06,0.09,0.15,0.15,0.35,0.15h2.8c0.16,0,0.35-0.02,0.46-0.09c0.1-0.07,0.21-0.14,0.25-0.34c0.05-0.25-0.05-0.53-0.4-0.6
		c-0.35-0.07-0.43-0.19-0.48-0.35s-0.04-0.31,0.06-0.7c0.44-1.86,0.6-2.53,1.11-4.75C75.87,14.4,75.85,14.26,75.74,14.18"/>
	<path class="st0" d="M50.75,14.22c-0.1,0-0.88,0-1.08,0c-0.2,0-0.27-0.14-0.19-0.41c0.08-0.27,0.36-1.23,0.42-1.46
		c0.07-0.26,0.02-0.5-0.25-0.55c-0.18-0.03-0.53-0.05-0.78,0.47c-0.26,0.54-0.72,1.69-1.26,1.91c-0.27,0.11-0.48,0.05-0.67,0.14
		c-0.19,0.08-0.28,0.16-0.38,0.37c-0.1,0.21-0.08,0.37,0.03,0.47c0.1,0.09,0.23,0.11,0.43,0.11c0.14,0,0.19,0.1,0.16,0.23
		c-0.4,1.46-0.81,2.97-0.99,3.69c-0.18,0.71-0.13,1.11,0.05,1.46c0.07,0.15,0.2,0.31,0.43,0.46c0.23,0.15,0.42,0.23,0.91,0.3
		c0.65,0.09,1.49,0.05,1.76-0.47c0.14-0.27,0.01-0.6-0.56-0.56c-0.58,0.04-1.05-0.1-0.84-0.88c0,0,0.88-3.44,0.95-3.72
		c0.07-0.28,0.26-0.46,0.57-0.52c0.26-0.05,0.64-0.07,0.83-0.07c0.24,0,0.42-0.05,0.51-0.16c0.09-0.1,0.12-0.17,0.17-0.34
		C51.07,14.4,50.92,14.22,50.75,14.22"/>
	<path class="st0" d="M55.34,14.22c-0.1,0-0.88,0-1.08,0c-0.2,0-0.27-0.14-0.19-0.41c0.08-0.27,0.36-1.23,0.42-1.46
		c0.07-0.26,0.02-0.5-0.25-0.55c-0.18-0.03-0.53-0.05-0.78,0.47c-0.26,0.54-0.72,1.69-1.26,1.91c-0.27,0.11-0.48,0.05-0.67,0.14
		c-0.19,0.08-0.28,0.16-0.38,0.37c-0.1,0.21-0.08,0.37,0.03,0.47c0.1,0.09,0.23,0.11,0.43,0.11c0.14,0,0.19,0.1,0.16,0.23
		c-0.4,1.46-0.81,2.97-0.99,3.69c-0.18,0.71-0.13,1.11,0.05,1.46c0.07,0.15,0.2,0.31,0.43,0.46c0.23,0.15,0.42,0.23,0.91,0.3
		c0.65,0.09,1.49,0.05,1.76-0.47c0.14-0.27,0.01-0.6-0.56-0.56c-0.58,0.04-1.05-0.1-0.84-0.88c0,0,0.88-3.44,0.95-3.72
		c0.07-0.28,0.26-0.46,0.57-0.52c0.26-0.05,0.64-0.07,0.83-0.07c0.24,0,0.42-0.05,0.51-0.16c0.09-0.1,0.12-0.17,0.17-0.34
		C55.66,14.4,55.51,14.22,55.34,14.22"/>
	<path class="st0" d="M58.84,12.82c0-0.22-0.08-0.43-0.21-0.6c-0.19-0.26-0.49-0.43-0.82-0.43c-0.58,0-1.03,0.47-1.03,1.03
		c0,0.58,0.45,1.03,1.03,1.03c0.34,0,0.64-0.17,0.82-0.41C58.77,13.25,58.84,13.04,58.84,12.82"/>
	<path class="st0" d="M58.47,14.18c-0.1-0.08-0.32-0.15-0.55-0.05c-0.21,0.09-0.31,0.23-0.66,0.41c-0.4,0.2-0.91,0.48-1.4,0.57
		c-0.38,0.07-0.49,0.36-0.53,0.52c-0.04,0.16,0.04,0.36,0.25,0.44c0.21,0.08,0.51,0.16,0.55,0.34c0.04,0.21,0.02,0.32-0.16,1.1
		c-0.16,0.69-0.37,1.57-0.5,2.1c-0.14,0.53-0.12,0.66-0.48,0.78c-0.49,0.15-0.59,0.38-0.62,0.52c-0.03,0.13-0.01,0.26,0.05,0.34
		c0.06,0.09,0.15,0.15,0.35,0.15h2.8c0.16,0,0.35-0.02,0.46-0.09c0.1-0.07,0.21-0.14,0.25-0.34c0.05-0.25-0.05-0.53-0.4-0.6
		c-0.35-0.07-0.43-0.19-0.48-0.35c-0.06-0.16-0.04-0.31,0.06-0.7c0.44-1.86,0.6-2.53,1.11-4.75C58.6,14.4,58.58,14.26,58.47,14.18"
		/>
	<path class="st0" d="M63.03,12.82c0-0.22-0.08-0.43-0.21-0.6c-0.19-0.26-0.49-0.43-0.82-0.43c-0.58,0-1.03,0.47-1.03,1.03
		c0,0.58,0.45,1.03,1.03,1.03c0.34,0,0.64-0.17,0.82-0.41C62.96,13.25,63.03,13.04,63.03,12.82"/>
	<path class="st0" d="M62.66,14.18c-0.1-0.08-0.32-0.15-0.55-0.05c-0.21,0.09-0.31,0.23-0.66,0.41c-0.4,0.2-0.91,0.48-1.4,0.57
		c-0.38,0.07-0.49,0.36-0.53,0.52c-0.04,0.16,0.04,0.36,0.25,0.44c0.21,0.08,0.51,0.16,0.55,0.34c0.04,0.21,0.02,0.32-0.16,1.1
		c-0.16,0.69-0.37,1.57-0.5,2.1c-0.14,0.53-0.12,0.66-0.48,0.78c-0.49,0.15-0.59,0.38-0.62,0.52c-0.03,0.13-0.01,0.26,0.05,0.34
		c0.06,0.09,0.15,0.15,0.35,0.15h2.8c0.16,0,0.35-0.02,0.46-0.09c0.1-0.07,0.21-0.14,0.25-0.34c0.05-0.25-0.05-0.53-0.4-0.6
		c-0.35-0.07-0.43-0.19-0.48-0.35c-0.06-0.16-0.04-0.31,0.06-0.7c0.44-1.86,0.6-2.53,1.11-4.75C62.79,14.4,62.76,14.26,62.66,14.18"
		/>
	<path class="st0" d="M37.25,18.51c-0.09,0.37-0.16,0.76-0.34,1.07c-0.18,0.31-0.5,0.5-1.02,0.57c-0.19,0.02-0.16,0.02-0.33,0.02
		c-0.62,0-1.19-0.29-1.03-0.98c0.05-0.24,0.31-0.72,0.69-0.93c0.35-0.19,0.44-0.23,0.67-0.3c0.23-0.07,0.56-0.15,0.98-0.19
		C37.3,17.73,37.34,18.13,37.25,18.51 M39.75,15.44c-0.21-0.86-1.24-1.4-2.39-1.4c-0.47,0-0.87,0.02-1.46,0.17
		c-0.86,0.22-1.64,0.69-1.86,1.46c-0.15,0.51,0.22,0.84,0.72,0.84c0.48,0,0.75-0.24,1.14-0.65c0.39-0.41,0.76-0.9,1.31-0.9
		s0.79,0.37,0.6,1.03c-0.22,0.78-1.31,0.89-1.71,0.96c-0.52,0.1-1.17,0.25-1.49,0.41c-1.23,0.59-2.19,1.42-2.19,2.64
		c0,0.26,0.1,0.51,0.29,0.76c0.22,0.31,0.71,0.56,1.33,0.62c1.25,0.11,2.05-0.08,2.86-0.4c0.74-0.29,0.33,0.4,1.11,0.4
		c0.4,0,0.63-0.02,0.81-0.06c0.53-0.12,0.75-1.02,0.34-1.22C38.9,20,38.77,19.9,38.87,19.5c0.1-0.4,0.73-2.79,0.8-3.06
		C39.74,16.19,39.82,15.73,39.75,15.44"/>
	<path class="st0" d="M21.18,11.96c0,0-1.44,5.93-1.69,6.82c-0.24,0.9-1.76,1.36-2.35,1.36H7.5c-2.26,0-3.29,1.4-3.29,1.4
		s0.06-0.3,0.18-0.75c0.07-0.25,1-4.02,1.46-5.79c0.27-1.05,0.9-2.27,1.24-2.66c1.13-1.28,2.82-2.02,5.15-2.02h8.08
		C21.24,10.32,21.4,11.02,21.18,11.96 M100,9.06H31.81c-1.06,0-1.73,0.84-2.11,1.48l-3.25,5.63c-0.13,0.19-0.23,0.13-0.24,0
		l-0.24-5.03c-0.02-1.08-0.05-1.5-0.48-1.87c-0.17-0.15-0.43-0.22-0.68-0.22H12.79c-2.03,0-5.47,0.17-7.81,2.69
		c-0.55,0.6-1.6,2.12-2.51,4.27c-1.39,3.28-2.27,5.26-2.32,5.37c-0.25,0.57-0.27,1.19,0.4,1.51c0.84,0.4,1.96,0.8,2.85,0.98
		c0.57,0.11,0.91,0.07,1.44-0.62c0.1-0.13,0.18-0.25,0.27-0.4c0.66-1.03,1.55-1.47,2.58-1.47h8.84c0.29,0,0.6-0.02,0.9-0.05
		c1.96-0.22,3.92-1.04,4.34-2.81c0.42-1.77,1.53-6.33,1.53-6.33c0.05-0.18,0.3-0.16,0.3-0.02c0,0,0.44,7.05,0.48,7.81
		c0.05,0.76,0.04,1.32,0.43,1.39c0.26,0.05,0.45-0.07,0.62-0.34c0.33-0.53,5.09-8.89,5.09-8.89c0.06-0.14,0.29-0.09,0.25,0.07
		c0,0-1.71,6.9-1.76,7.06c-0.05,0.16-0.07,0.22-0.12,0.31c-0.41,0.71-1.25,0.4-1.68,1.37c-0.1,0.22,0.07,0.42,0.3,0.42h4.57
		c0.21,0,0.33-0.09,0.36-0.26c0.03-0.16,0.01-0.34-0.05-0.49c-0.06-0.15-0.17-0.26-0.3-0.37c-0.45-0.37-0.8-0.62-0.66-1.19
		c0.14-0.57,1.85-7.39,1.85-7.39c0.22-0.86,0.91-1.38,1.84-1.38h61.82c-0.9,1.97-2.98,4.96-6.35,6.97c-2.42,1.45-4.97,2.1-7.55,2.44
		c-1.82,0.24-4.45,0.11-6.53,1.67h5.38c1.65,0,3.49-0.16,5.02-0.52c5.88-1.4,10.19-5.19,12.82-10.57C99.66,9.91,99.85,9.49,100,9.06
		"/>
</g>
</svg>
