<?xml version="1.0" encoding="utf-8"?>
<!-- Generator: Adobe Illustrator 16.0.3, SVG Export Plug-In . SVG Version: 6.00 Build 0)  -->
<!DOCTYPE svg PUBLIC "-//W3C//DTD SVG 1.1//EN" "http://www.w3.org/Graphics/SVG/1.1/DTD/svg11.dtd">
<svg version="1.1" id="Layer_1" xmlns="http://www.w3.org/2000/svg" xmlns:xlink="http://www.w3.org/1999/xlink" x="0px" y="0px"
	 width="32px" height="12px" viewBox="0 0 32 12" enable-background="new 0 0 32 12" xml:space="preserve">
<g opacity="0.75">
	<g>
		<path fill="#4F4F4F" d="M8.82,2.541L8.818,4.565L6.685,4.567l0-1.341c-0.001,0,0.002-0.683,0.002-0.683
			c0-0.922,1.361-1.238,2.316-1.237c0.941,0.002,2.322,0.315,2.318,1.233l0.012,0.004L11.33,9.431c0,0-0.02,0.109,0.095,0.234
			l-0.036,0.001l-1.94-0.003l-0.141-0.22C8.845,9.687,8.271,9.782,7.697,9.688c-0.435-0.036-1.011-0.28-1.01-1.048L6.686,5.943
			C6.701,5.56,6.993,5.234,7.332,5.101c0.544-0.207,1.364-0.204,1.865,0.098l0.003-2.659C9.198,2.542,9.198,2.376,9.019,2.371
			C9.019,2.371,8.821,2.33,8.82,2.541z M8.821,6.112v2.366c0,0,0,0.146,0.184,0.146c0.193,0,0.193-0.146,0.193-0.146V6.112
			c0,0,0-0.175-0.193-0.175C8.821,5.938,8.821,6.112,8.821,6.112z"/>
		<path fill="#4F4F4F" d="M19.201,2.541l-0.002,2.024l-2.133,0.002l-0.002-1.341l0.002-0.683c0-0.922,1.361-1.238,2.316-1.237
			c0.941,0.002,2.322,0.315,2.318,1.233l0.012,0.004l-0.002,6.888c0,0-0.02,0.109,0.094,0.234L21.77,9.666L19.83,9.663l-0.141-0.22
			c-0.463,0.243-1.037,0.339-1.611,0.244c-0.436-0.036-1.012-0.28-1.01-1.048l-0.002-2.697c0.016-0.383,0.307-0.709,0.645-0.842
			c0.545-0.207,1.365-0.204,1.865,0.098l0.004-2.659c0,0.002,0-0.163-0.182-0.168C19.398,2.371,19.201,2.33,19.201,2.541z
			 M19.201,6.112v2.366c0,0,0,0.146,0.184,0.146c0.195,0,0.195-0.146,0.195-0.146V6.112c0,0,0-0.175-0.195-0.175
			C19.201,5.938,19.201,6.112,19.201,6.112z"/>
		<path fill="#4F4F4F" d="M15.417,1.383c1.25,0,1.159,1.068,1.159,1.063l0.002,3.929c-0.002-0.003,0.018,0.825-0.977,0.824h-1.53
			l0.002,2.47l-2.082-0.002l0-8.284H15.417z M14.496,5.673L14.495,2.99c0.002-0.309-0.146-0.364-0.323-0.378
			c-0.099,0-0.099,0.115-0.1,0.107l0,3.261c0,0,0.001,0.115,0.102,0.117C14.423,6.096,14.497,5.949,14.496,5.673z"/>
		<polygon fill="#4F4F4F" points="22.191,9.667 22.191,1.383 24.381,1.383 24.381,8.71 25.578,8.71 25.578,9.667 		"/>
		<path fill="#4F4F4F" d="M27.828,2.541l-0.002,2.024l-2.133,0.002l-0.002-1.341l0.002-0.683c0-0.922,1.361-1.238,2.316-1.237
			c0.941,0.002,2.322,0.315,2.32,1.233l0.012,0.004l-0.004,6.888c0,0-0.02,0.109,0.096,0.234l-0.037,0.001l-1.939-0.003l-0.141-0.22
			c-0.463,0.243-1.037,0.339-1.611,0.244c-0.434-0.036-1.012-0.28-1.01-1.048l-0.002-2.697c0.016-0.383,0.309-0.709,0.646-0.842
			c0.545-0.207,1.363-0.204,1.865,0.098l0.002-2.659c0,0.002,0-0.163-0.182-0.168C28.025,2.371,27.828,2.33,27.828,2.541z
			 M27.828,6.112v2.366c0,0,0,0.146,0.186,0.146c0.193,0,0.193-0.146,0.193-0.146V6.112c0,0,0-0.175-0.193-0.175
			C27.828,5.938,27.828,6.112,27.828,6.112z"/>
		<path fill="#4F4F4F" d="M6.542,10.992L4.42,10.991c0,0-0.057-0.072-0.107-0.209c-0.236-0.729-0.348-1.509-0.348-2.341l0.002-1.525
			c0.01-0.203-0.037-0.378-0.171-0.381C3.792,6.538,3.083,6.538,3.08,6.536C2.955,6.538,2.955,6.657,2.956,6.657l-0.001,4.34
			L0.584,11L0.582,1.312L3.95,1.31c0.974,0,1.561,0.076,1.989,0.702C6.293,2.608,6.25,3.433,6.25,4.154
			C6.244,4.875,6.017,5.517,5.472,5.988C5.541,6.068,5.7,6.201,5.796,6.355c0.28,0.383,0.369,0.848,0.333,1.377
			c0.052,0.898-0.05,1.855,0.224,2.658l0.177,0.56L6.542,10.992z M3.783,5.249c0.091,0,0.166-0.074,0.166-0.166V2.708
			c0-0.091-0.074-0.165-0.166-0.165H3.121c-0.092,0-0.166,0.074-0.166,0.165v2.375c0,0.091,0.074,0.166,0.166,0.166H3.783z"/>
	</g>
	<path d="M30.9,2.119h-0.102V1.641h0.178c0.123,0,0.195,0.035,0.195,0.145c0,0.088-0.051,0.119-0.115,0.124l0.121,0.209h-0.119
		l-0.111-0.201H30.9V2.119z M30.99,1.837c0.047,0,0.072-0.01,0.072-0.062c0-0.049-0.053-0.053-0.09-0.053H30.9v0.115H30.99z
		 M30.973,2.324c-0.234,0-0.443-0.163-0.443-0.443c0-0.281,0.209-0.443,0.443-0.443c0.236,0,0.445,0.163,0.445,0.443
		C31.418,2.161,31.209,2.324,30.973,2.324z M30.973,1.541c-0.174,0-0.316,0.136-0.316,0.34c0,0.203,0.143,0.341,0.316,0.34v0.001
		c0.172,0,0.318-0.138,0.318-0.341C31.291,1.676,31.145,1.541,30.973,1.541z"/>
</g>
</svg>
