<?xml version="1.0" encoding="utf-8"?>
<!-- Generator: Adobe Illustrator 16.0.3, SVG Export Plug-In . SVG Version: 6.00 Build 0)  -->
<!DOCTYPE svg PUBLIC "-//W3C//DTD SVG 1.1//EN" "http://www.w3.org/Graphics/SVG/1.1/DTD/svg11.dtd">
<svg version="1.1" id="Layer_1" xmlns="http://www.w3.org/2000/svg" xmlns:xlink="http://www.w3.org/1999/xlink" x="0px" y="0px"
	 width="53px" height="12px" viewBox="0 0 53 12" enable-background="new 0 0 53 12" xml:space="preserve">
<g opacity="0.5">
	<path d="M3.913,5.605C4.336,5.7,4.863,5.868,5.207,6.141c0.396,0.325,0.634,0.801,0.634,1.311c0,0.669-0.326,1.286-0.862,1.682
		c-0.574,0.43-1.251,0.597-1.963,0.597c-0.572,0-1.161-0.097-1.682-0.334c-0.438-0.21-1.046-0.686-1.046-1.214
		c0-0.248,0.175-0.484,0.43-0.484c0.239,0,0.371,0.142,0.493,0.324C1.396,8.306,1.52,8.526,1.81,8.719
		c0.325,0.211,0.738,0.317,1.127,0.317c0.606,0,1.354-0.317,1.354-1.021c0-0.308-0.159-0.554-0.44-0.686
		C3.568,7.188,3.042,7.073,2.724,7.011C2.275,6.933,1.678,6.774,1.299,6.52C0.825,6.194,0.524,5.691,0.524,5.112
		c0-0.625,0.344-1.223,0.846-1.595c0.501-0.369,1.153-0.492,1.769-0.492c0.652,0,1.364,0.159,1.945,0.458
		c0.106,0.061,0.203,0.131,0.237,0.254c0.062,0.211,0.062,0.573,0.062,0.792c0,0.212-0.106,0.362-0.325,0.362
		c-0.476,0-0.405-1.25-1.848-1.25c-0.502,0-1.102,0.28-1.102,0.854c0,0.635,0.608,0.81,1.11,0.933L3.913,5.605z"/>
	<path d="M7.856,8.306c0,0.397,0.045,0.616,0.502,0.616c0.265,0,0.598-0.035,0.598,0.343c0,0.317-0.361,0.335-0.589,0.335H7.16
		C6.606,9.6,6.42,9.52,6.42,8.921v-2.86H6.246c-0.255,0-0.529,0-0.529-0.342c0-0.23,0.159-0.282,0.353-0.317
		C6.306,5.368,6.519,5.339,6.659,5.13c0.115-0.186,0.21-0.583,0.246-0.802C6.966,4.001,7.038,3.889,7.39,3.889
		c0.405,0,0.44,0.051,0.44,0.422v1.057h0.519c0.265,0,0.546,0.007,0.546,0.352c0,0.308-0.281,0.342-0.528,0.342H7.856V8.306z"/>
	<path d="M11.121,8.412c0,0.122,0,0.37,0.045,0.484c0.036,0.08,0.124,0.123,0.194,0.158c0.115,0.062,0.211,0.124,0.211,0.264
		c0,0.283-0.265,0.283-0.476,0.283H9.713c-0.211,0-0.476,0-0.476-0.283c0-0.14,0.097-0.201,0.213-0.264
		c0.068-0.035,0.158-0.078,0.193-0.158c0.043-0.114,0.043-0.362,0.043-0.484V6.8c0,0.124,0-0.061-0.053-0.237
		C9.581,6.37,9.502,6.326,9.317,6.237C9.185,6.175,9.079,6.105,9.079,5.947c0-0.219,0.264-0.325,0.433-0.396
		c0.183-0.07,0.729-0.255,0.922-0.255c0.396,0,0.459,0.625,0.501,0.917c0.211-0.434,0.644-0.917,1.154-0.917
		c0.377,0,0.659,0.271,0.659,0.651c0,0.274-0.159,0.608-0.466,0.608c-0.229,0-0.406-0.115-0.589-0.115
		c-0.186,0-0.326,0.167-0.405,0.326c-0.15,0.273-0.169,0.642-0.169,0.951V8.412z"/>
	<path d="M13.366,7.109c0-0.195,0-0.468-0.026-0.659c-0.035-0.187-0.105-0.229-0.256-0.319c-0.105-0.061-0.22-0.104-0.22-0.245
		c0-0.239,0.371-0.292,0.538-0.336c0.265-0.087,0.765-0.255,1.039-0.255c0.413,0,0.36,0.598,0.36,0.863v2.324
		c0,0.114-0.007,0.351,0.035,0.466c0.036,0.062,0.104,0.105,0.168,0.15c0.087,0.053,0.159,0.115,0.159,0.229
		c0,0.201-0.159,0.272-0.335,0.272H13.34c-0.177,0-0.334-0.072-0.334-0.272c0-0.115,0.068-0.177,0.157-0.229
		c0.062-0.044,0.131-0.088,0.169-0.15c0.043-0.115,0.034-0.352,0.034-0.466V7.109z M13.103,4.135c0-0.467,0.431-0.74,0.853-0.74
		c0.431,0,0.863,0.229,0.863,0.705c0,0.458-0.484,0.695-0.879,0.695C13.55,4.794,13.103,4.565,13.103,4.135z"/>
	<path d="M18.762,6.844l-0.115,0.098c0.572,0.51,1.013,1.153,1.382,1.812c0.07,0.142,0.115,0.203,0.246,0.283
		c0.125,0.07,0.203,0.123,0.203,0.273c0,0.229-0.219,0.291-0.405,0.291h-1.452c-0.193,0-0.441-0.028-0.441-0.283
		c0-0.201,0.264-0.201,0.264-0.369c0-0.273-0.652-1.126-0.897-1.32l-0.327,0.185v0.669c0,0.114-0.008,0.351,0.034,0.466
		c0.037,0.062,0.106,0.105,0.168,0.15c0.089,0.053,0.159,0.115,0.159,0.229c0,0.201-0.159,0.272-0.334,0.272H15.76
		c-0.176,0-0.333-0.072-0.333-0.272c0-0.115,0.07-0.177,0.157-0.229c0.062-0.044,0.132-0.088,0.167-0.15
		c0.044-0.115,0.037-0.352,0.037-0.466V4.75c0-0.193,0-0.466-0.027-0.659c-0.036-0.186-0.106-0.23-0.255-0.317
		c-0.106-0.062-0.22-0.106-0.22-0.247c0-0.237,0.369-0.291,0.536-0.334c0.265-0.088,0.767-0.256,1.04-0.256
		c0.413,0,0.36,0.599,0.36,0.863v3.397c0.334-0.124,1.348-0.871,1.348-1.178c0-0.081-0.054-0.116-0.116-0.15
		c-0.104-0.052-0.202-0.115-0.202-0.247c0-0.141,0.098-0.194,0.229-0.219c0.194-0.035,0.696-0.035,0.897-0.035
		c0.195,0,0.696-0.054,0.696,0.254c0,0.185-0.178,0.255-0.317,0.342c-0.176,0.097-0.379,0.309-0.519,0.45L18.762,6.844z"/>
	<path d="M23.083,9.027c0.475,0,0.837-0.211,1.188-0.528c0.124-0.105,0.186-0.193,0.361-0.193c0.124,0,0.253,0.106,0.253,0.237
		c0,0.316-0.472,0.687-0.712,0.818c-0.456,0.273-0.914,0.37-1.459,0.37c-1.198,0-2.368-0.783-2.368-2.076
		c0-1.48,1.277-2.359,2.649-2.359c0.783,0,1.804,0.361,1.804,1.285c0,0.652-0.667,1.021-1.206,1.197
		c-0.528,0.167-1.099,0.221-1.645,0.309C22.071,8.641,22.511,9.027,23.083,9.027z M23.426,6.484c0-0.334-0.177-0.572-0.528-0.572
		c-0.739,0-1.073,0.967-1.03,1.583C22.449,7.452,23.426,7.215,23.426,6.484z"/>
	<path d="M30.175,3.614c0.152-0.36,0.187-0.457,0.583-0.457h1.637c0.168,0,0.302,0.115,0.302,0.317c0,0.22-0.181,0.272-0.346,0.325
		c-0.237,0.07-0.256,0.202-0.256,0.431v4.252c0,0.186-0.036,0.387,0.16,0.482l0.096,0.054c0.116,0.071,0.212,0.125,0.212,0.283
		c0,0.237-0.237,0.299-0.429,0.299h-1.675c-0.193,0-0.431-0.062-0.431-0.299c0-0.158,0.098-0.211,0.211-0.283l0.099-0.054
		c0.19-0.095,0.157-0.296,0.157-0.482V4.661l-1.427,3.54c-0.158,0.37-0.194,0.553-0.641,0.553c-0.39,0-0.503-0.025-0.663-0.367
		l-1.549-3.628v3.741c0.008,0.107,0.026,0.213,0.055,0.292c0.062,0.157,0.193,0.193,0.335,0.246c0.15,0.062,0.217,0.123,0.217,0.291
		c0,0.298-0.395,0.272-0.599,0.272h-0.766c-0.202,0-0.598,0.026-0.598-0.272c0-0.168,0.073-0.229,0.219-0.291
		c0.141-0.053,0.275-0.088,0.337-0.246c0.026-0.079,0.042-0.185,0.052-0.292V4.275c0-0.036,0-0.116-0.026-0.185
		c-0.036-0.151-0.131-0.265-0.345-0.326c-0.164-0.053-0.333-0.097-0.333-0.308c0-0.291,0.273-0.3,0.5-0.3h1.719
		c0.424,0,0.465,0.273,0.599,0.625l1.231,3.159L30.175,3.614z"/>
	<path d="M36.939,8.394c0,0.124-0.011,0.371,0.041,0.484c0.047,0.087,0.111,0.132,0.193,0.167c0.121,0.062,0.223,0.123,0.223,0.272
		c0,0.283-0.267,0.283-0.478,0.283h-0.88c-0.447,0-0.447-0.15-0.473-0.546c-0.302,0.493-0.828,0.678-1.368,0.678
		c-0.828,0-1.584-0.457-1.584-1.364c0-1.251,1.584-1.559,2.552-1.559h0.302c0-0.527-0.258-0.922-0.82-0.922
		c-0.534,0-0.617,0.563-1.169,0.563c-0.256,0-0.547-0.116-0.547-0.423c0-0.616,1.388-0.731,1.824-0.731
		c0.49,0,1.037,0.079,1.469,0.326c0.544,0.316,0.715,0.765,0.715,1.381V8.394z M35.35,7.364c-0.622,0-1.254,0.308-1.254,1.013
		c0,0.335,0.195,0.633,0.552,0.633c0.292,0,0.519-0.186,0.682-0.422c0.19-0.309,0.183-0.589,0.183-0.942V7.364H35.35z"/>
	<path d="M40.069,6.97c0.669,0.174,1.288,0.421,1.288,1.238c0,0.495-0.291,0.917-0.707,1.18c-0.397,0.238-0.896,0.343-1.362,0.343
		c-0.416,0-0.793-0.062-1.164-0.229c-0.3-0.131-0.694-0.396-0.694-0.757c0-0.212,0.16-0.405,0.371-0.405
		c0.202,0,0.281,0.116,0.403,0.257c0.281,0.309,0.464,0.51,0.908,0.51c0.297,0,0.748-0.142,0.748-0.519
		c0-0.898-2.289-0.211-2.289-1.796c0-1.091,1.097-1.496,2.016-1.496c0.402,0,1.046,0.106,1.389,0.335
		c0.186,0.115,0.186,0.396,0.186,0.59c0,0.193-0.01,0.43-0.263,0.43c-0.396,0-0.361-0.758-1.216-0.758
		c-0.3,0-0.669,0.142-0.669,0.493c0,0.316,0.396,0.414,0.644,0.477L40.069,6.97z"/>
	<path d="M43.414,8.306c0,0.397,0.044,0.616,0.504,0.616c0.266,0,0.599-0.035,0.599,0.343c0,0.317-0.364,0.335-0.591,0.335h-1.208
		c-0.553,0-0.738-0.08-0.738-0.679v-2.86h-0.176c-0.253,0-0.526,0-0.526-0.342c0-0.23,0.157-0.282,0.352-0.317
		c0.237-0.035,0.448-0.063,0.591-0.272c0.113-0.186,0.206-0.583,0.247-0.802c0.06-0.327,0.13-0.439,0.48-0.439
		c0.408,0,0.441,0.051,0.441,0.422v1.057h0.521c0.261,0,0.542,0.007,0.542,0.352c0,0.308-0.281,0.342-0.526,0.342h-0.512V8.306z"/>
	<path d="M47.112,9.027c0.476,0,0.834-0.211,1.185-0.528c0.127-0.105,0.188-0.193,0.361-0.193c0.124,0,0.259,0.106,0.259,0.237
		c0,0.316-0.476,0.687-0.713,0.818c-0.462,0.273-0.919,0.37-1.463,0.37c-1.197,0-2.367-0.783-2.367-2.076
		c0-1.48,1.275-2.359,2.651-2.359c0.781,0,1.804,0.361,1.804,1.285c0,0.652-0.671,1.021-1.205,1.197
		c-0.529,0.167-1.104,0.221-1.646,0.309C46.099,8.641,46.54,9.027,47.112,9.027z M47.456,6.484c0-0.334-0.179-0.572-0.529-0.572
		c-0.738,0-1.073,0.967-1.029,1.583C46.478,7.452,47.456,7.215,47.456,6.484z"/>
	<path d="M51.082,8.412c0,0.122,0,0.37,0.041,0.484c0.039,0.08,0.127,0.123,0.196,0.158c0.113,0.062,0.212,0.124,0.212,0.264
		c0,0.283-0.264,0.283-0.476,0.283h-1.383c-0.209,0-0.473,0-0.473-0.283c0-0.14,0.093-0.201,0.209-0.264
		c0.07-0.035,0.158-0.078,0.194-0.158c0.046-0.114,0.046-0.362,0.046-0.484V6.8c0,0.124,0-0.061-0.057-0.237
		c-0.054-0.193-0.129-0.237-0.314-0.326c-0.135-0.062-0.238-0.132-0.238-0.291c0-0.219,0.264-0.325,0.432-0.396
		c0.186-0.07,0.728-0.255,0.921-0.255c0.4,0,0.46,0.625,0.506,0.917c0.212-0.434,0.641-0.917,1.154-0.917
		c0.376,0,0.66,0.271,0.66,0.651c0,0.274-0.162,0.608-0.473,0.608c-0.227,0-0.404-0.115-0.586-0.115
		c-0.186,0-0.327,0.167-0.404,0.326c-0.15,0.273-0.168,0.642-0.168,0.951V8.412z"/>
</g>
<g opacity="0.5">
	<path d="M52.212,8.737c0.272,0,0.501,0.214,0.501,0.495c0,0.287-0.229,0.5-0.501,0.5c-0.271,0-0.499-0.213-0.499-0.5
		C51.713,8.951,51.941,8.737,52.212,8.737z M52.212,9.659c0.232,0,0.411-0.184,0.411-0.427c0-0.237-0.179-0.422-0.411-0.422
		c-0.231,0-0.409,0.185-0.409,0.422C51.803,9.475,51.98,9.659,52.212,9.659z M52.02,8.942h0.225c0.139,0,0.203,0.055,0.203,0.167
		c0,0.106-0.066,0.15-0.152,0.158l0.165,0.257h-0.096l-0.16-0.25H52.11v0.25H52.02V8.942z M52.11,9.2h0.094
		c0.079,0,0.154-0.003,0.154-0.095c0-0.077-0.067-0.089-0.128-0.089h-0.12V9.2z"/>
</g>
</svg>
