<?xml version="1.0" encoding="utf-8"?>
<!-- Generator: Adobe Illustrator 16.0.3, SVG Export Plug-In . SVG Version: 6.00 Build 0)  -->
<!DOCTYPE svg PUBLIC "-//W3C//DTD SVG 1.1//EN" "http://www.w3.org/Graphics/SVG/1.1/DTD/svg11.dtd">
<svg version="1.1" id="Layer_1" xmlns="http://www.w3.org/2000/svg" xmlns:xlink="http://www.w3.org/1999/xlink" x="0px" y="0px"
	 width="44px" height="12px" viewBox="0 0 44 12" enable-background="new 0 0 44 12" xml:space="preserve">
<g opacity="0.6">
	<g>
		<path d="M37.252,2.755l-2.126,3.683l2.126,3.684h4.252l2.128-3.684l-2.128-3.683H37.252z"/>
	</g>
	<g>
		<g>
			<path fill="#CACACA" d="M40.313,4.629c0,0-0.733,0.713-0.969,0.94c-0.234-0.227-0.979-0.94-0.979-0.94h-1.645
				c0,0,1.536,1.469,1.813,1.734c-0.281,0.276-1.926,1.884-1.926,1.884h1.704c0,0,0.836-0.821,1.08-1.061
				c0.246,0.238,1.095,1.061,1.095,1.061h1.659c0,0-1.656-1.583-1.941-1.856c0.278-0.271,1.814-1.762,1.814-1.762H40.313z"/>
		</g>
	</g>
</g>
<path opacity="0.6" d="M3.029,5.383v2.933h-0.94V5.383H0.375V4.58h4.369v0.804H3.029z"/>
<path opacity="0.6" d="M9.154,8.369c-0.162-1.002-0.722-1.48-1.39-1.48H6.329v1.48H5.417v-1.48h-0.84V6.085h0.84V4.632h4.685
	C9.994,5.48,9.398,6.211,8.694,6.483c0.695,0.225,1.372,1.101,1.435,1.886H9.154z M6.329,5.391v0.695h1.427
	c0.442,0,1.002-0.289,1.164-0.695H6.329z"/>
<path opacity="0.6" d="M13.245,8.316c-0.289-0.515-0.479-1.164-0.479-1.868c0-0.713,0.189-1.354,0.479-1.869h4.197v0.804h-3.529
	c-0.136,0.334-0.208,0.695-0.208,1.065c0,0.361,0.072,0.722,0.208,1.064h2.582V6.836H15.41V6.033h2.031v2.284H13.245z"/>
<path opacity="0.6" d="M18.692,8.316c-0.29-0.515-0.479-1.164-0.479-1.868c0-0.713,0.189-1.354,0.479-1.869h4.196v0.804h-3.528
	c-0.135,0.334-0.208,0.695-0.208,1.065c0,0.361,0.073,0.722,0.208,1.064h2.582V6.836h-1.083V6.033h2.03v2.284H18.692z"/>
<path opacity="0.6" d="M24.228,8.316v-1.48h-0.839V6.033h0.839V4.58h4.208v0.758H25.14v0.695h2.754v0.803H25.14v0.722h3.296v0.759
	H24.228z"/>
<path opacity="0.6" d="M33.2,8.316c-0.162-1.002-0.722-1.48-1.392-1.48h-1.435v1.48h-0.912v-1.48h-0.838V6.033h0.838V4.58h4.688
	c-0.108,0.849-0.705,1.58-1.41,1.851c0.695,0.225,1.373,1.101,1.437,1.886H33.2z M30.374,5.338v0.695h1.427
	c0.442,0,1.002-0.289,1.164-0.695H30.374z"/>
<rect x="10.98" y="4.58" opacity="0.6" width="0.939" height="3.737"/>
<g opacity="0.6">
	<path fill="#FFFFFF" d="M42.934,6.127c0.165,0,0.304,0.131,0.304,0.302c0,0.176-0.139,0.305-0.304,0.305
		c-0.166,0-0.308-0.129-0.308-0.305C42.626,6.258,42.768,6.127,42.934,6.127z M42.934,6.69c0.14,0,0.249-0.111,0.249-0.261
		c0-0.145-0.109-0.257-0.249-0.257c-0.142,0-0.252,0.112-0.252,0.257C42.682,6.579,42.792,6.69,42.934,6.69z M42.813,6.253h0.138
		c0.085,0,0.125,0.034,0.125,0.102c0,0.065-0.04,0.092-0.093,0.097l0.102,0.157h-0.061l-0.096-0.153h-0.06v0.153h-0.056V6.253z
		 M42.869,6.411h0.06c0.047,0,0.092-0.002,0.092-0.058c0-0.047-0.039-0.055-0.077-0.055h-0.074V6.411z"/>
</g>
</svg>
