<?xml version="1.0" encoding="utf-8"?>
<!-- Generator: Adobe Illustrator 16.0.3, SVG Export Plug-In . SVG Version: 6.00 Build 0)  -->
<!DOCTYPE svg PUBLIC "-//W3C//DTD SVG 1.1//EN" "http://www.w3.org/Graphics/SVG/1.1/DTD/svg11.dtd">
<svg version="1.1" id="Calque_1" xmlns="http://www.w3.org/2000/svg" xmlns:xlink="http://www.w3.org/1999/xlink" x="0px" y="0px"
	 width="35px" height="12px" viewBox="0 0 35 12" enable-background="new 0 0 35 12" xml:space="preserve">
<g>
	<g opacity="0.6">
		<path fill="#FFFFFF" d="M5.625,9.916C3.466,9.916,1.709,8.16,1.709,6c0-2.159,1.757-3.916,3.916-3.916S9.542,3.841,9.542,6
			C9.542,8.16,7.785,9.916,5.625,9.916z"/>
		<path fill="#545454" d="M5.625,2.262C3.561,2.262,1.888,3.936,1.888,6c0,1.607,1.015,2.979,2.439,3.506
			c0.396-1.48,1.065-5.269,1.14-7.223c0,0,0.297,4.033,1.442,7.225c-0.362-0.374-1.002-1.37-1.228-1.719
			C5.614,8.245,5.539,8.937,5.479,9.735c0.048,0.001,0.098,0.003,0.147,0.003C7.69,9.738,9.364,8.064,9.364,6
			S7.69,2.262,5.625,2.262z"/>
	</g>
	<g opacity="0.6">
		<polygon points="22.053,2.57 21.447,3.821 20.924,2.57 15.228,2.57 14.533,4.037 13.919,2.57 9.742,2.57 12.504,9.422 
			18.951,9.421 19.27,8.715 19.539,9.422 23.145,9.422 23.59,8.409 24.02,9.421 30.514,9.421 33.291,2.57 		"/>
		<polygon fill="#FFFFFF" points="13.336,3.448 14.483,6.188 15.782,3.448 18.081,3.448 15.918,8.55 13.096,8.55 11.039,3.448 		"/>
		<polygon fill="#FFFFFF" points="20.342,3.448 21.391,5.949 22.602,3.448 24.637,3.448 26.635,8.55 24.6,8.55 23.605,6.199 
			22.572,8.55 20.143,8.55 19.332,6.426 18.384,8.55 16.359,8.55 18.514,3.448 		"/>
		<path fill="#FFFFFF" d="M31.336,5.137c0,0-3.023,0-3.164,0s-0.234,0.096-0.158,0.275C28.09,5.59,28.545,6.64,28.545,6.64h2.113
			l-0.795,1.91c0,0-1.953,0-2.393,0c-0.438,0-0.537-0.314-0.658-0.614c-0.119-0.302-1.33-3.323-1.41-3.522
			c-0.08-0.2-0.117-0.487-0.055-0.681c0.061-0.192,0.301-0.284,0.457-0.284c0.158,0,6.199,0,6.199,0L31.336,5.137z"/>
		<g>
			<path d="M31.262,8.69c0.227,0,0.404,0.176,0.404,0.396c0,0.224-0.178,0.397-0.406,0.397c-0.227,0-0.408-0.174-0.408-0.397
				c0-0.22,0.182-0.396,0.408-0.396H31.262z M31.258,8.771c-0.174,0-0.305,0.142-0.305,0.315c0,0.176,0.131,0.316,0.309,0.316
				c0.174,0.002,0.301-0.141,0.301-0.316c0-0.174-0.127-0.315-0.303-0.315H31.258z M31.197,9.29h-0.092V8.898
				c0.037-0.009,0.086-0.016,0.152-0.016c0.074,0,0.107,0.012,0.137,0.031c0.021,0.017,0.039,0.049,0.039,0.085
				c0,0.045-0.035,0.079-0.082,0.093v0.006c0.039,0.013,0.061,0.044,0.072,0.097c0.012,0.061,0.02,0.084,0.029,0.096h-0.1
				c-0.012-0.014-0.02-0.048-0.031-0.094c-0.008-0.043-0.031-0.062-0.082-0.062h-0.043V9.29z M31.199,9.068h0.043
				c0.053,0,0.092-0.016,0.092-0.058c0-0.036-0.025-0.061-0.084-0.061c-0.023,0-0.041,0.002-0.051,0.005V9.068z"/>
		</g>
	</g>
</g>
</svg>
