<?xml version="1.0" encoding="utf-8"?>
<!-- Generator: Adobe Illustrator 16.0.3, SVG Export Plug-In . SVG Version: 6.00 Build 0)  -->
<!DOCTYPE svg PUBLIC "-//W3C//DTD SVG 1.1//EN" "http://www.w3.org/Graphics/SVG/1.1/DTD/svg11.dtd">
<svg version="1.1" id="Layer_1" xmlns="http://www.w3.org/2000/svg" xmlns:xlink="http://www.w3.org/1999/xlink" x="0px" y="0px"
	 width="32px" height="12px" viewBox="0 0 32 12" enable-background="new 0 0 32 12" xml:space="preserve">
<g>
	<path opacity="0.75" fill="#FFFFFF" d="M1.888,9.424c9.368-1.865,18.856-1.865,28.223,0c0.348-1.673,0.693-3.346,1.041-5.02
		C21.1,2.397,10.9,2.397,0.848,4.404C1.195,6.078,1.542,7.751,1.888,9.424z"/>
	<path opacity="0.75" fill="#646464" d="M31.25,3.906c-10.121-2.02-20.382-2.02-30.501,0L0.248,4.007l1.246,6.014l0.494-0.1
		c9.298-1.853,18.726-1.853,28.027,0l0.494,0.1l1.244-6.014L31.25,3.906 M30.551,4.806c-0.137,0.653-0.705,3.402-0.834,4.026
		c-9.104-1.75-18.329-1.75-27.435,0c-0.146-0.71-0.682-3.3-0.833-4.026C11.107,2.941,20.893,2.941,30.551,4.806z"/>
	<path opacity="0.75" d="M1.888,9.424c9.368-1.865,18.856-1.865,28.223,0c0.348-1.673,0.693-3.346,1.041-5.02
		C21.1,2.397,10.9,2.397,0.848,4.404C1.195,6.078,1.542,7.751,1.888,9.424z"/>
	<path opacity="0.75" fill="#FFFFFF" d="M31.174,4.29c-10.068-2.012-20.28-2.012-30.348,0L0.71,4.313l1.086,5.25L1.911,9.54
		c9.349-1.86,18.829-1.86,28.179,0l0.113,0.023l1.088-5.25L31.174,4.29 M31.014,4.497c-0.045,0.212-0.949,4.585-0.992,4.791
		c-9.305-1.838-18.738-1.838-28.042,0C1.936,9.078,1.031,4.714,0.988,4.497C10.95,2.522,21.051,2.522,31.014,4.497z"/>
	<path opacity="0.75" fill="#646464" d="M9.352,8.737c0,0.457,0.371,0.828,0.827,0.828h12.282c0.457,0,0.826-0.371,0.826-0.828l0,0
		c0-0.457-0.369-0.827-0.826-0.827H10.179C9.723,7.91,9.352,8.28,9.352,8.737L9.352,8.737z"/>
	<path opacity="0.75" fill="#646464" d="M10.179,7.848c-0.491,0-0.89,0.398-0.89,0.89c0,0.492,0.399,0.892,0.89,0.892h12.282
		c0.49,0,0.891-0.399,0.891-0.892c0-0.491-0.4-0.89-0.891-0.89H10.179z M22.461,9.5H10.179c-0.42,0-0.763-0.341-0.763-0.763
		c0-0.42,0.342-0.763,0.763-0.763h12.282c0.422,0,0.764,0.343,0.764,0.763C23.225,9.159,22.883,9.5,22.461,9.5z"/>
	<g opacity="0.75">
		<path fill="#FFFFFF" d="M4.449,6.169C4.413,6.402,4.375,6.641,4.338,6.883S4.266,7.365,4.234,7.601
			C4.199,7.834,4.171,8.045,4.149,8.228c-0.071,0.005-0.15,0.017-0.237,0.031c-0.04,0.007-0.08,0.014-0.12,0.021
			c-0.04,0.007-0.078,0.018-0.117,0.032C3.62,8.176,3.546,7.999,3.457,7.781c-0.09-0.217-0.186-0.446-0.289-0.689
			C3.065,6.849,2.959,6.604,2.853,6.357c-0.107-0.248-0.207-0.475-0.298-0.68C2.464,5.472,2.386,5.296,2.323,5.151
			C2.261,5.007,2.22,4.918,2.202,4.885c0.069-0.006,0.135-0.012,0.201-0.02c0.063-0.007,0.128-0.015,0.188-0.026
			c0.062-0.012,0.124-0.026,0.186-0.04C2.839,4.784,2.901,4.767,2.962,4.75c0.079,0.215,0.163,0.436,0.251,0.662
			C3.302,5.637,3.39,5.859,3.479,6.078c0.088,0.218,0.174,0.431,0.258,0.637c0.083,0.205,0.16,0.395,0.231,0.568l0.009-0.002
			C4.01,7.05,4.046,6.799,4.085,6.529c0.04-0.271,0.078-0.535,0.113-0.794c0.036-0.258,0.069-0.497,0.099-0.714
			c0.03-0.218,0.052-0.392,0.067-0.52c0.04-0.001,0.08-0.003,0.117-0.005c0.038-0.003,0.076-0.007,0.116-0.014
			c0.04-0.008,0.077-0.017,0.114-0.028c0.036-0.01,0.074-0.022,0.112-0.036C4.848,4.493,4.887,4.591,4.94,4.715
			c0.053,0.123,0.114,0.259,0.182,0.408c0.069,0.148,0.142,0.306,0.219,0.47c0.077,0.166,0.154,0.33,0.23,0.492
			C5.649,6.246,5.72,6.4,5.787,6.544C5.853,6.69,5.909,6.818,5.954,6.929l0.009-0.001c0.028-0.231,0.056-0.485,0.084-0.762
			C6.076,5.889,6.104,5.621,6.13,5.362c0.026-0.259,0.05-0.497,0.071-0.71c0.021-0.215,0.034-0.377,0.04-0.485
			c0.078,0,0.144-0.002,0.196-0.013C6.471,4.148,6.505,4.14,6.539,4.129c0.035-0.011,0.07-0.023,0.106-0.036
			C6.634,4.165,6.617,4.278,6.593,4.437c-0.022,0.158-0.05,0.344-0.08,0.56C6.483,5.211,6.451,5.444,6.417,5.697
			c-0.034,0.252-0.066,0.508-0.1,0.764C6.283,6.717,6.252,6.969,6.222,7.214C6.191,7.459,6.166,7.68,6.145,7.873
			c-0.072,0.004-0.15,0.016-0.236,0.029c-0.041,0.008-0.08,0.016-0.12,0.021c-0.04,0.008-0.08,0.018-0.118,0.032
			c-0.163-0.407-0.339-0.81-0.527-1.208C4.956,6.35,4.76,5.946,4.555,5.535l-0.009,0C4.518,5.724,4.486,5.935,4.449,6.169z"/>
		<path fill="#FFFFFF" d="M7.112,4.758C7.08,4.532,7.046,4.307,7.007,4.081C7.062,4.08,7.118,4.077,7.182,4.074
			C7.243,4.07,7.312,4.062,7.391,4.053c0.077-0.011,0.146-0.022,0.207-0.035c0.062-0.012,0.119-0.025,0.17-0.038
			c0.012,0.23,0.027,0.458,0.046,0.685c0.019,0.227,0.045,0.485,0.077,0.777l0.082,0.715c0.034,0.292,0.065,0.549,0.099,0.774
			c0.033,0.225,0.068,0.444,0.106,0.662c-0.053-0.002-0.111,0.002-0.173,0.01C7.943,7.612,7.874,7.621,7.796,7.631
			C7.719,7.643,7.65,7.652,7.587,7.658c-0.062,0.01-0.118,0.021-0.17,0.035C7.406,7.475,7.389,7.252,7.369,7.024
			C7.35,6.797,7.323,6.54,7.29,6.248L7.209,5.533C7.176,5.242,7.145,4.983,7.112,4.758z"/>
		<path fill="#FFFFFF" d="M8.485,4.58C8.458,4.354,8.426,4.127,8.392,3.901c0.053,0,0.111-0.001,0.174-0.003
			c0.062-0.003,0.132-0.007,0.21-0.015c0.077-0.009,0.146-0.018,0.209-0.029c0.061-0.011,0.118-0.021,0.17-0.033
			c0.009,0.23,0.019,0.458,0.034,0.684C9.203,4.733,9.224,4.993,9.25,5.284l0.064,0.717c0.018,0.2,0.037,0.394,0.055,0.579
			C9.388,6.767,9.405,6.929,9.42,7.065c0.177-0.02,0.353-0.043,0.528-0.072c0.175-0.03,0.352-0.064,0.529-0.108
			c-0.002,0.04-0.005,0.075-0.005,0.107s0.003,0.075,0.008,0.132s0.011,0.1,0.016,0.131c0.006,0.032,0.013,0.059,0.021,0.078
			c-0.083,0.004-0.187,0.014-0.31,0.023c-0.122,0.012-0.29,0.027-0.502,0.051c-0.19,0.02-0.343,0.035-0.46,0.048
			C9.129,7.469,9.037,7.478,8.967,7.485C8.897,7.492,8.844,7.499,8.81,7.504C8.773,7.51,8.743,7.518,8.718,7.523
			C8.712,7.303,8.703,7.08,8.69,6.853C8.676,6.625,8.656,6.365,8.629,6.074L8.565,5.356C8.54,5.065,8.513,4.806,8.485,4.58z"/>
		<path fill="#FFFFFF" d="M10.665,4.362c-0.021-0.227-0.046-0.455-0.074-0.682c0.053,0.001,0.111,0.002,0.173,0.003
			c0.063,0,0.134-0.002,0.211-0.007c0.078-0.007,0.146-0.013,0.209-0.022s0.119-0.019,0.171-0.028
			c0.002,0.23,0.007,0.458,0.015,0.686s0.021,0.488,0.039,0.78l0.043,0.719c0.013,0.201,0.025,0.395,0.039,0.581
			c0.013,0.188,0.025,0.349,0.037,0.485c0.177-0.013,0.354-0.03,0.53-0.054C12.234,6.8,12.411,6.77,12.59,6.733
			c-0.004,0.039-0.006,0.074-0.008,0.106c0,0.032,0,0.077,0.003,0.132c0.004,0.057,0.008,0.1,0.013,0.132
			c0.005,0.03,0.012,0.057,0.02,0.077c-0.084,0.002-0.187,0.008-0.31,0.014c-0.123,0.008-0.291,0.019-0.505,0.035
			c-0.189,0.012-0.343,0.023-0.462,0.031c-0.115,0.01-0.208,0.016-0.277,0.021c-0.07,0.005-0.123,0.01-0.159,0.014
			c-0.037,0.005-0.067,0.009-0.09,0.015c0-0.219-0.003-0.442-0.01-0.67c-0.007-0.229-0.02-0.488-0.038-0.781l-0.043-0.719
			C10.705,4.849,10.686,4.588,10.665,4.362z"/>
		<path fill="#FFFFFF" d="M12.856,4.221c-0.016-0.228-0.032-0.457-0.054-0.685c0.053,0.003,0.111,0.006,0.173,0.008
			c0.062,0.001,0.132,0,0.21-0.003c0.078-0.003,0.147-0.009,0.21-0.016c0.062-0.007,0.118-0.015,0.172-0.023
			c-0.006,0.229-0.008,0.458-0.006,0.686c0.001,0.228,0.008,0.489,0.019,0.782l0.027,0.719c0.011,0.294,0.025,0.554,0.041,0.781
			c0.016,0.228,0.035,0.45,0.056,0.668c-0.053-0.006-0.11-0.007-0.172-0.004c-0.062,0.002-0.132,0.006-0.21,0.01
			c-0.077,0.003-0.147,0.006-0.209,0.01c-0.063,0.002-0.12,0.008-0.172,0.018c0.003-0.218,0.004-0.443,0.001-0.67
			c-0.002-0.228-0.009-0.487-0.02-0.781L12.895,5C12.884,4.708,12.871,4.447,12.856,4.221z"/>
		<path fill="#FFFFFF" d="M16.824,7.08c-0.073-0.007-0.145-0.01-0.211-0.009c-0.067,0.001-0.133,0.001-0.199,0.003
			c-0.066,0.002-0.131,0.002-0.198,0.003s-0.132,0.005-0.197,0.013c-0.052-0.171-0.104-0.347-0.159-0.527
			c-0.056-0.178-0.114-0.359-0.174-0.538c-0.1-0.002-0.199-0.004-0.298-0.005c-0.1,0-0.199,0-0.298,0.001
			c-0.082,0.002-0.162,0.003-0.243,0.006c-0.08,0.002-0.162,0.007-0.242,0.012c-0.06,0.18-0.116,0.361-0.167,0.541
			c-0.051,0.182-0.098,0.357-0.139,0.531c-0.037-0.006-0.073-0.01-0.109-0.01c-0.036,0-0.073,0-0.11,0
			c-0.037,0-0.074,0.003-0.111,0.004c-0.037,0-0.078,0.004-0.121,0.012c0.036-0.092,0.084-0.221,0.145-0.384
			c0.061-0.163,0.126-0.348,0.2-0.554c0.072-0.206,0.15-0.426,0.232-0.662c0.082-0.236,0.166-0.475,0.248-0.717
			c0.083-0.241,0.165-0.479,0.245-0.712c0.08-0.235,0.153-0.453,0.219-0.655c0.031,0.006,0.061,0.013,0.088,0.019
			c0.029,0.005,0.057,0.007,0.089,0.006c0.03,0,0.059-0.003,0.087-0.009c0.028-0.005,0.058-0.012,0.089-0.02
			c0.102,0.299,0.212,0.618,0.329,0.96c0.117,0.34,0.237,0.677,0.354,1.005c0.118,0.329,0.233,0.641,0.345,0.937
			C16.631,6.627,16.732,6.876,16.824,7.08 M15.146,4.456c-0.079,0.213-0.152,0.424-0.222,0.63c-0.068,0.209-0.137,0.419-0.203,0.636
			l0.852-0.01c-0.069-0.214-0.139-0.425-0.209-0.63C15.296,4.876,15.223,4.666,15.146,4.456z"/>
		<path fill="#FFFFFF" d="M17.176,5.901c-0.039,0.395-0.076,0.789-0.113,1.183c-0.037-0.008-0.076-0.014-0.114-0.016
			c-0.037-0.001-0.071-0.003-0.106-0.004c-0.036-0.002-0.073-0.004-0.109-0.006c-0.035,0-0.072,0.002-0.11,0.009
			c0.12-0.604,0.228-1.204,0.325-1.801c0.099-0.598,0.191-1.203,0.277-1.818c0.033,0.007,0.064,0.013,0.094,0.019
			s0.061,0.009,0.096,0.011c0.027,0.001,0.057,0,0.088-0.003s0.062-0.007,0.1-0.012c0.076,0.215,0.156,0.432,0.24,0.655
			c0.084,0.223,0.17,0.444,0.252,0.666c0.086,0.22,0.17,0.436,0.256,0.647c0.084,0.212,0.166,0.414,0.242,0.604
			c0.201-0.388,0.398-0.794,0.6-1.221c0.197-0.423,0.389-0.847,0.57-1.268c0.078,0.019,0.145,0.029,0.199,0.031
			c0.053,0.001,0.119-0.003,0.197-0.015c0.021,0.304,0.043,0.631,0.068,0.982c0.023,0.351,0.047,0.694,0.07,1.03
			c0.023,0.333,0.045,0.647,0.07,0.937c0.025,0.292,0.049,0.525,0.07,0.703c-0.062-0.011-0.123-0.017-0.188-0.019
			s-0.127-0.004-0.188-0.006C20,7.186,19.934,7.182,19.869,7.182c-0.064-0.004-0.129-0.002-0.195,0.002
			C19.672,6.82,19.658,6.426,19.637,6c-0.023-0.424-0.045-0.846-0.068-1.264h-0.01c-0.191,0.409-0.377,0.812-0.561,1.208
			c-0.186,0.395-0.369,0.793-0.549,1.192c-0.016-0.004-0.031-0.008-0.045-0.01c-0.012-0.002-0.027-0.004-0.043-0.004
			c-0.016-0.001-0.031,0-0.045,0.001s-0.027,0.004-0.045,0.006c-0.154-0.401-0.309-0.803-0.461-1.205
			c-0.154-0.402-0.311-0.808-0.475-1.221l-0.01,0C17.264,5.107,17.211,5.507,17.176,5.901z"/>
		<path fill="#FFFFFF" d="M21.84,3.958c-0.143-0.013-0.262,0.024-0.357,0.112c-0.098,0.087-0.15,0.194-0.16,0.321
			c-0.008,0.132,0.018,0.241,0.08,0.33c0.064,0.089,0.146,0.172,0.246,0.247c0.102,0.077,0.209,0.151,0.326,0.224
			c0.115,0.072,0.223,0.158,0.32,0.256c0.1,0.099,0.178,0.215,0.238,0.351c0.061,0.135,0.086,0.302,0.068,0.504
			c-0.012,0.176-0.053,0.335-0.123,0.474c-0.068,0.144-0.162,0.261-0.279,0.355c-0.113,0.094-0.25,0.164-0.404,0.204
			c-0.152,0.041-0.324,0.054-0.51,0.04c-0.168-0.016-0.314-0.049-0.443-0.101s-0.225-0.111-0.289-0.179
			c0.041-0.121,0.076-0.231,0.105-0.331s0.055-0.21,0.08-0.328l0.088,0.008c0.006,0.078,0.023,0.152,0.053,0.225
			c0.029,0.071,0.068,0.136,0.115,0.193c0.049,0.057,0.111,0.104,0.182,0.141c0.074,0.035,0.156,0.059,0.25,0.066
			c0.184,0.016,0.324-0.025,0.42-0.123c0.096-0.099,0.15-0.221,0.16-0.369c0.012-0.133-0.016-0.246-0.076-0.336
			c-0.064-0.09-0.143-0.173-0.24-0.247c-0.098-0.073-0.205-0.146-0.32-0.218c-0.117-0.073-0.223-0.157-0.318-0.255
			c-0.098-0.096-0.172-0.211-0.232-0.347c-0.057-0.135-0.08-0.301-0.066-0.502c0.014-0.184,0.055-0.343,0.121-0.479
			c0.068-0.135,0.154-0.248,0.258-0.334c0.105-0.087,0.221-0.149,0.35-0.188c0.129-0.039,0.262-0.051,0.402-0.04
			c0.166,0.014,0.312,0.049,0.434,0.106c0.123,0.056,0.225,0.128,0.311,0.217c-0.035,0.078-0.064,0.153-0.09,0.228
			c-0.025,0.074-0.059,0.167-0.098,0.282l-0.07-0.006C22.293,4.149,22.115,3.981,21.84,3.958z"/>
		<path fill="#FFFFFF" d="M23.031,4.889c0.111-0.217,0.252-0.4,0.428-0.552c0.174-0.151,0.373-0.263,0.604-0.331
			c0.232-0.069,0.482-0.086,0.75-0.052c0.246,0.033,0.473,0.101,0.678,0.207s0.377,0.245,0.516,0.421
			c0.141,0.176,0.244,0.387,0.309,0.636c0.064,0.249,0.078,0.531,0.043,0.846c-0.031,0.263-0.102,0.503-0.215,0.72
			c-0.113,0.216-0.26,0.399-0.434,0.549c-0.176,0.149-0.375,0.256-0.604,0.324c-0.227,0.065-0.471,0.081-0.73,0.047
			c-0.244-0.033-0.469-0.097-0.678-0.193c-0.207-0.096-0.381-0.23-0.521-0.406c-0.143-0.172-0.246-0.384-0.311-0.634
			c-0.066-0.248-0.082-0.538-0.043-0.868C22.85,5.345,22.922,5.107,23.031,4.889 M25.605,5.231c-0.029-0.187-0.08-0.349-0.154-0.487
			c-0.074-0.139-0.168-0.249-0.287-0.333c-0.117-0.084-0.25-0.138-0.4-0.157c-0.156-0.021-0.303,0.003-0.438,0.073
			c-0.135,0.069-0.252,0.172-0.357,0.308c-0.104,0.136-0.186,0.3-0.254,0.492c-0.066,0.193-0.115,0.4-0.141,0.625
			c-0.029,0.28-0.031,0.521,0,0.72s0.082,0.364,0.16,0.493c0.078,0.13,0.172,0.229,0.283,0.298c0.109,0.066,0.232,0.108,0.361,0.127
			c0.139,0.018,0.273,0.002,0.41-0.047c0.133-0.052,0.256-0.139,0.365-0.263c0.109-0.125,0.205-0.288,0.287-0.49
			c0.078-0.203,0.135-0.447,0.17-0.735C25.635,5.626,25.635,5.419,25.605,5.231z"/>
		<path fill="#FFFFFF" d="M26.928,4.772c0.02-0.164,0.039-0.31,0.055-0.436c0.086,0.031,0.152,0.052,0.205,0.061
			c0.053,0.008,0.121,0.015,0.209,0.016c0.266,0.483,0.529,0.958,0.791,1.428c0.258,0.467,0.525,0.944,0.801,1.429l0.072-0.455
			l0.082-0.506c0.025-0.171,0.053-0.339,0.076-0.503c0.027-0.167,0.049-0.319,0.07-0.458s0.037-0.261,0.047-0.361
			c0.012-0.103,0.018-0.172,0.016-0.207c0.084,0.031,0.15,0.052,0.205,0.06c0.051,0.011,0.121,0.017,0.209,0.017
			c-0.064,0.314-0.123,0.598-0.174,0.852C29.543,5.96,29.496,6.2,29.455,6.426c-0.043,0.225-0.082,0.449-0.119,0.668
			c-0.037,0.223-0.076,0.457-0.115,0.709l-0.102,0.624C29.061,8.408,29,8.394,28.936,8.382c-0.068-0.013-0.129-0.021-0.182-0.021
			c-0.496-0.953-1.031-1.918-1.6-2.896c-0.021,0.101-0.041,0.201-0.059,0.302c-0.016,0.101-0.033,0.204-0.051,0.308L26.947,6.68
			c-0.033,0.208-0.061,0.385-0.082,0.532c-0.021,0.147-0.039,0.271-0.053,0.372c-0.014,0.102-0.023,0.185-0.031,0.25
			C26.773,7.898,26.77,7.95,26.766,7.99c-0.035-0.015-0.07-0.027-0.107-0.033s-0.074-0.013-0.107-0.019
			c-0.068-0.013-0.139-0.022-0.209-0.028c0.01-0.027,0.033-0.124,0.068-0.293c0.037-0.169,0.08-0.375,0.129-0.62
			c0.051-0.243,0.102-0.508,0.156-0.792c0.053-0.286,0.102-0.562,0.145-0.825C26.877,5.139,26.908,4.938,26.928,4.772z"/>
	</g>
	<g opacity="0.75">
		<polygon fill="#FFFFFF" points="10.586,8.406 10.773,8.406 10.773,8.996 11.31,8.996 11.31,9.112 10.586,9.112 		"/>
		<path fill="#FFFFFF" d="M13.14,8.406h0.186v0.398c0,0.098,0.004,0.218,0.246,0.218c0.243,0,0.248-0.12,0.248-0.218V8.406h0.187
			v0.401c0,0.117-0.006,0.326-0.435,0.326c-0.427,0-0.432-0.209-0.432-0.326V8.406z"/>
		<polygon fill="#FFFFFF" points="18.658,8.406 19.426,8.406 19.426,8.517 18.842,8.517 18.842,8.695 19.402,8.695 19.402,8.807 
			18.842,8.807 18.842,9.004 19.436,9.004 19.436,9.112 18.658,9.112 		"/>
		<path fill="#FFFFFF" d="M21.652,8.386c0.137,0,0.408,0.021,0.434,0.225h-0.201c-0.008-0.055-0.068-0.114-0.225-0.114
			c-0.125,0-0.205,0.032-0.205,0.098c0,0.167,0.658,0.008,0.658,0.309c0,0.183-0.236,0.231-0.424,0.231
			c-0.316,0-0.445-0.102-0.449-0.25h0.201c0.004,0.094,0.102,0.139,0.254,0.139c0.113,0,0.219-0.027,0.219-0.104
			c0-0.176-0.652-0.022-0.652-0.313C21.262,8.447,21.438,8.386,21.652,8.386z"/>
		<path fill="#FFFFFF" d="M16.419,8.722c0.104,0,0.159-0.023,0.159-0.103c0-0.074-0.062-0.103-0.159-0.103h-0.321v0.205H16.419z
			 M15.914,8.406h0.56c0.225,0,0.299,0.082,0.299,0.191c0,0.093-0.065,0.15-0.148,0.172l0,0c0.108,0.019,0.13,0.093,0.13,0.192
			c0,0.033,0.002,0.112,0.037,0.15H16.59c-0.013-0.02-0.021-0.055-0.021-0.107c0-0.099-0.019-0.17-0.154-0.17h-0.317v0.277h-0.185
			V8.406"/>
	</g>
</g>
</svg>
