<?xml version="1.0" encoding="utf-8"?>
<!-- Generator: Adobe Illustrator 16.0.4, SVG Export Plug-In . SVG Version: 6.00 Build 0)  -->
<!DOCTYPE svg PUBLIC "-//W3C//DTD SVG 1.1//EN" "http://www.w3.org/Graphics/SVG/1.1/DTD/svg11.dtd">
<svg version="1.1" xmlns="http://www.w3.org/2000/svg" xmlns:xlink="http://www.w3.org/1999/xlink" x="0px" y="0px" width="132px"
	 height="70px" viewBox="0 0 132 70" enable-background="new 0 0 132 70" xml:space="preserve">
<symbol  id="Hamburger_Menu" viewBox="-14.559 -10.753 26.256 24.421">
	<g>
		<path fill="#333333" d="M11.441,7.101c0-0.553-0.448-1-1-1h-24c-0.552,0-1,0.447-1,1l0,0c0,0.552,0.448,1,1,1h24
			C10.993,8.101,11.441,7.652,11.441,7.101L11.441,7.101z"/>
	</g>
	<g>
		<path fill="#333333" d="M11.441,1.601c0-0.553-0.448-1-1-1h-24c-0.552,0-1,0.447-1,1l0,0c0,0.552,0.448,1,1,1h24
			C10.993,2.601,11.441,2.152,11.441,1.601L11.441,1.601z"/>
	</g>
	<g>
		<path fill="#333333" d="M-14.488-10.574v7.127h1.401l1.975-5.515l2.033,5.515h1.251v-7.127h-0.943v5.798l-1.966-5.321h-0.978
			l-1.907,5.337v-5.813H-14.488z"/>
		<path fill="#333333" d="M-5.993-10.574v7.127h3.982v-0.756h-2.971V-6.49h2.49v-0.747h-2.49v-2.582h3.179v-0.755H-5.993z"/>
		<path fill="#333333" d="M-0.646-10.574v7.127h0.991l3.589-5.504v5.504H4.8v-7.127H3.812L0.22-5.069v-5.505H-0.646z"/>
		<path fill="#333333" d="M6.582-3.447h1.012v-4.497c0-0.716,0.134-1.238,0.397-1.562c0.265-0.327,0.687-0.489,1.265-0.489
			c0.564,0,0.966,0.153,1.202,0.461c0.235,0.306,0.354,0.824,0.354,1.557v4.531h0.886v-4.518c0-0.972-0.199-1.68-0.599-2.122
			c-0.4-0.444-1.037-0.666-1.911-0.666c-0.889,0-1.545,0.23-1.97,0.688c-0.423,0.46-0.636,1.17-0.636,2.129V-3.447z"/>
	</g>
	<path fill="#333333" d="M11.441,12.668c0-0.553-0.448-1-1-1h-24c-0.552,0-1,0.447-1,1l0,0c0,0.552,0.448,1,1,1h24
		C10.993,13.668,11.441,13.22,11.441,12.668L11.441,12.668z"/>
</symbol>
<g id="Layer_2" display="none">
	<rect x="-56.105" display="inline" fill="#FFFFFF" width="320.001" height="70"/>
	<g id="logo_1_" display="inline">
		<path fill="#0078AE" d="M23.903,29.396c-0.055-0.133,0.481,0.396,0.669-0.092c0.046-0.123-0.269-0.959-0.486-1.743
			c-0.229-0.8-0.222-1.259-0.481-1.5c-0.454-0.405-1.308-0.3-2.692-0.405c-1.374-0.101-3.258-0.928-6.051-1.051
			c-2.528-0.111-5.065,0.002-7.367,1.023c-0.369,0.16-1.121,0.966-0.622,1.124c1.405,0.437,1.859,0.903,1.661,1.068
			c-0.869,0.726-1.992-0.537-2.001-0.108c0.225,1.237,1.582,1.715,2.557,2.331c0.814,0.519,1.826,0.606,2.691,0.991
			c0.867,0.385,1.559,1.146,2.437,1.625c0.574,0.322,1.242,0.729,1.445-0.225c1.27,0.569,2.464,1.191,3.369,2.365
			c0.178,0.225,0.6,0.039,0.732-0.34c0.419,0.512-0.19,1.187-0.551,1.23c-2.047,0.239-4.105-0.146-6.082,0.503
			c-0.353,0.116-0.438,0.683-0.234,0.96c0.556,0.791,1.445,1.102,2.285,1.58c1.09,0.629,1.231,2.062,2.199,2.793
			c1.72,1.312,2.462-1.709,3.328-2.906c0.627-0.869,1.485-1.423,2.226-2.143c0.185,0.48,0.575,0.66,1.056,0.527
			c0.318-0.08,0.326-0.453,0.348-0.654C24.591,34.038,24.907,31.672,23.903,29.396z"/>
		<path fill="#0078AE" d="M5.486,40.755c0,0,0.002,0.607,0.003,1.003c-0.001,0.818,0.348,1.101,1.074,1.099
			c0.416-0.004,0.653,0.004,0.653,0.004l7.579,0.004l-0.005,5.344l-8.566-0.004c0,0-0.252-0.004-0.436-0.004
			c-3.167,0.004-5.647-2.377-5.647-5.774c0-0.011,0-0.68,0-0.68V24.661l5.347-0.004L5.486,40.755z"/>
		<path fill="#EF3E42" d="M4,41.943L3.993,26.221l-2.384-0.003l0.009,7.975l-0.011,6.74c0,0,0,0.738,0,1.167
			c-0.002,2.762,1.743,4.646,4.414,4.646c0.377,0,0.723,0,0.723,0h6.653l-0.006-2.36l-6.276-0.002c0,0-0.472,0.005-0.962,0.005
			c-1.476-0.003-2.157-0.785-2.155-2.209C3.999,42.128,4,41.943,4,41.943z"/>
		<path fill="#0078AE" d="M25.908,24.657l5.347,0.004v17.085c0,0,0,0.669,0,0.68c0,3.397-2.48,5.778-5.641,5.774
			c-0.188,0-0.436,0.004-0.436,0.004l-8.564,0.004l-0.004-5.344l7.575-0.004c0,0,0.232-0.008,0.647-0.004
			c0.726,0.002,1.076-0.28,1.072-1.099c0.004-0.396,0.006-1.003,0.006-1.003L25.908,24.657z"/>
		<path fill="#EF3E42" d="M27.404,42.179c0.002,1.424-0.686,2.206-2.16,2.209c-0.492,0-0.964-0.005-0.964-0.005l-6.273,0.002
			l-0.005,2.36h6.649c0,0,0.344,0,0.728,0c2.666,0,4.419-1.884,4.419-4.646c0-0.429,0-1.167,0-1.167l-0.013-6.74l0.009-7.975
			l-2.385,0.003l-0.007,15.723C27.402,41.943,27.404,42.128,27.404,42.179z"/>
		<g>
			<g>
				<g>
					<path fill="#0078AE" d="M71.193,34.423c0.539,0,0.971-0.413,0.971-0.926c0-0.508-0.432-0.921-0.971-0.921
						c-0.531,0-0.967,0.413-0.967,0.921C70.227,34.01,70.662,34.423,71.193,34.423z"/>
				</g>
				<path fill="#0078AE" d="M44.616,28.142v9.028c0,0-0.013,0.471,0.258,0.741c0.221,0.225,0.783,0.238,0.783,0.238l1.762,0.012
					c0,0,0.617,0,0.854-0.234c0.212-0.203,0.21-0.75,0.21-0.75v-9.045l1.894,0.008l0.003,9.588c0,0-0.003,1.002-0.498,1.535
					c-0.571,0.608-1.403,0.679-1.403,0.679l-3.876,0.013c0,0-0.662-0.013-1.297-0.658c-0.594-0.609-0.585-1.486-0.585-1.486
					l-0.023-9.652L44.616,28.142z"/>
				<polygon fill="#0078AE" points="59.209,28.132 59.193,39.949 57.212,39.96 57.225,34.304 53.703,34.312 53.707,39.956 
					51.627,39.961 51.631,28.147 53.698,28.13 53.703,32.429 57.219,32.419 57.221,28.14 				"/>
				<path fill="#0078AE" d="M66.053,28.136c0,0,0.583,0.004,1.354,0.756c0.693,0.676,0.684,1.603,0.684,1.603l-0.014,1.63
					c0,0-0.136,0.83-0.777,1.391c-0.888,0.745-1.272,0.639-2.047,0.805c1.248,1.764,4.604,5.634,4.604,5.634l-2.451,0.007
					l-4.957-6.012l0.007,5.997H60.46l-0.001-11.804L66.053,28.136z M65.405,30.023h-2.951l-0.007,2.396l3.025-0.01
					c0,0,0.739-0.182,0.734-1.21C66.203,30.298,65.405,30.023,65.405,30.023z"/>
				<path fill="#0078AE" d="M73.85,38.146c0,0,0.412,0.029,0.76-0.396c0.25-0.301,0.23-0.772,0.23-0.772l-0.012-8.837l2.043,0.005
					l-0.02,9.472c0,0,0.034,0.688-0.594,1.48c-0.633,0.799-1.648,0.859-1.648,0.859l-3.585-0.018l-1.483-1.783L73.85,38.146z"/>
				<path fill="#0078AE" d="M99.761,39.952l-5.519-0.003l0.003-1.794l4.798-0.012c0,0,0.531,0.164,0.82-0.339
					c0.266-0.466-0.291-0.948-0.291-0.948l-4.584-5.149c0,0-0.924-0.833-0.536-2.133c0.362-1.222,2.024-1.445,2.024-1.445
					l5.421,0.013l0.02,1.703l-4.46,0.005c0,0-0.818-0.104-1.013,0.282c-0.173,0.355,0.229,0.777,0.229,0.777l4.45,5.001
					c0,0,1.144,1.173,0.401,2.71C100.905,39.909,99.761,39.952,99.761,39.952z"/>
				<polygon fill="#0078AE" points="91.678,39.952 87.543,32.837 87.543,39.961 85.504,39.945 85.509,28.141 87.092,28.142 
					91.271,35.47 91.281,28.132 93.264,28.132 93.271,39.961 				"/>
				<polygon fill="#0078AE" points="77.939,39.961 77.948,28.14 84.426,28.13 84.415,29.853 79.875,29.845 79.88,32.854 
					84.438,32.853 84.43,34.549 79.887,34.563 79.875,38.155 84.438,38.16 84.434,39.949 				"/>
				<path fill="#0078AE" d="M37.727,38.146c0,0-0.463,0.07-0.825-0.373c-0.311-0.391-0.23-0.947-0.23-0.947l0.015-8.686
					l-1.998,0.005l0.013,9.278c0,0-0.006,0.989,0.642,1.695c0.701,0.77,1.511,0.838,1.511,0.838l5.052-0.018l-0.013-1.783
					L37.727,38.146z"/>
				<polygon fill="#0078AE" points="102.895,39.961 102.903,28.14 109.381,28.13 109.375,29.853 104.831,29.845 104.841,32.854 
					109.396,32.853 109.385,34.549 104.85,34.563 104.831,38.155 109.396,38.16 109.394,39.949 				"/>
				<polygon fill="#0078AE" points="116.546,39.952 112.408,32.837 112.408,39.961 110.372,39.945 110.378,28.141 111.96,28.142 
					116.136,35.47 116.142,28.132 118.13,28.132 118.141,39.961 				"/>
			</g>
		</g>
		<path fill="#0078AE" d="M36.188,41.464c0.995,0,1.592,0.744,1.592,1.7c0,0.927-0.597,1.673-1.592,1.673
			c-1.002,0-1.589-0.746-1.589-1.673C34.599,42.208,35.186,41.464,36.188,41.464z M36.188,44.241c0.64,0,0.878-0.541,0.878-1.077
			c0-0.563-0.238-1.104-0.878-1.104s-0.88,0.541-0.88,1.104C35.308,43.7,35.548,44.241,36.188,44.241z"/>
		<path fill="#0078AE" d="M39.53,41.542h2.274v0.595H40.24v0.747h1.352v0.545H40.24v1.33H39.53V41.542z"/>
		<path fill="#0078AE" d="M46,41.542h0.713v1.23h1.304v-1.23h0.711v3.217h-0.711V43.37h-1.304v1.389H46V41.542z"/>
		<path fill="#0078AE" d="M52.07,41.464c1.004,0,1.591,0.744,1.591,1.7c0,0.927-0.587,1.673-1.591,1.673
			c-0.995,0-1.583-0.746-1.583-1.673C50.487,42.208,51.075,41.464,52.07,41.464z M52.07,44.241c0.64,0,0.882-0.541,0.882-1.077
			c0-0.563-0.242-1.104-0.882-1.104c-0.633,0-0.873,0.541-0.873,1.104C51.197,43.7,51.437,44.241,52.07,44.241z"/>
		<path fill="#0078AE" d="M56.862,41.464c1.002,0,1.59,0.744,1.59,1.7c0,0.927-0.587,1.673-1.59,1.673
			c-1.004,0-1.593-0.746-1.593-1.673C55.269,42.208,55.858,41.464,56.862,41.464z M56.862,44.241c0.641,0,0.878-0.541,0.878-1.077
			c0-0.563-0.238-1.104-0.878-1.104c-0.644,0-0.885,0.541-0.885,1.104C55.977,43.7,56.219,44.241,56.862,44.241z"/>
		<path fill="#0078AE" d="M60.201,41.542h1.392c0.834,0,1.467,0.522,1.467,1.588c0,0.936-0.479,1.629-1.467,1.629h-1.392V41.542z
			 M60.911,44.164h0.637c0.408,0,0.803-0.253,0.803-0.966c0-0.648-0.225-1.062-0.931-1.062h-0.508V44.164z"/>
		<path fill="#0078AE" d="M67.346,41.542h1.742c0.578,0,0.943,0.401,0.943,0.889c0,0.379-0.146,0.66-0.508,0.806v0.007
			c0.351,0.092,0.451,0.429,0.473,0.754c0.008,0.201,0.008,0.581,0.134,0.762h-0.712c-0.088-0.206-0.078-0.512-0.115-0.771
			c-0.043-0.336-0.177-0.487-0.535-0.487h-0.712v1.258h-0.71V41.542z M68.056,42.997h0.774c0.325,0,0.492-0.133,0.492-0.461
			c0-0.307-0.167-0.444-0.492-0.444h-0.774V42.997z"/>
		<path fill="#0078AE" d="M71.883,41.542h0.709v3.217h-0.709V41.542z"/>
		<path fill="#0078AE" d="M75.984,44.759h-0.8l-1.048-3.217h0.734l0.719,2.261h0.006l0.725-2.261h0.735L75.984,44.759z"/>
		<path fill="#0078AE" d="M78.598,41.542h2.42v0.595H79.31v0.69h1.567v0.547H79.31v0.79h1.747v0.595h-2.459V41.542z"/>
		<path fill="#0078AE" d="M82.801,41.542h1.738c0.58,0,0.945,0.401,0.945,0.889c0,0.379-0.146,0.66-0.504,0.806v0.007
			c0.348,0.092,0.445,0.429,0.47,0.754c0.011,0.201,0.005,0.581,0.136,0.762h-0.712c-0.088-0.206-0.081-0.512-0.117-0.771
			c-0.046-0.336-0.177-0.487-0.536-0.487h-0.707v1.258h-0.713V41.542z M83.514,42.997h0.771c0.324,0,0.49-0.133,0.49-0.461
			c0-0.307-0.166-0.444-0.49-0.444h-0.771V42.997z"/>
		<path fill="#0078AE" d="M87.296,44.065h0.712v0.693c0,0.413-0.312,0.686-0.707,0.746v-0.322c0.191-0.033,0.328-0.224,0.32-0.424
			h-0.325V44.065z"/>
		<path fill="#0078AE" d="M93.834,41.464c1.002,0,1.59,0.744,1.59,1.7c0,0.927-0.588,1.673-1.59,1.673
			c-1.001,0-1.588-0.746-1.588-1.673C92.246,42.208,92.833,41.464,93.834,41.464z M93.834,44.241c0.639,0,0.88-0.541,0.88-1.077
			c0-0.563-0.241-1.104-0.88-1.104s-0.877,0.541-0.877,1.104C92.957,43.7,93.195,44.241,93.834,44.241z"/>
		<path fill="#0078AE" d="M97.172,41.542h1.742c0.581,0,0.949,0.401,0.949,0.889c0,0.379-0.152,0.66-0.511,0.806v0.007
			c0.348,0.092,0.444,0.429,0.468,0.754c0.016,0.201,0.014,0.581,0.138,0.762h-0.71c-0.092-0.206-0.08-0.512-0.113-0.771
			c-0.053-0.336-0.185-0.487-0.543-0.487h-0.708v1.258h-0.712V41.542z M97.884,42.997h0.781c0.314,0,0.484-0.133,0.484-0.461
			c0-0.307-0.17-0.444-0.484-0.444h-0.781V42.997z"/>
		<path fill="#0078AE" d="M101.709,41.542h2.418v0.595h-1.71v0.69h1.567v0.547h-1.567v0.79h1.739v0.595h-2.447V41.542z"/>
		<path fill="#0078AE" d="M108.243,44.394c-0.251,0.32-0.573,0.443-0.892,0.443c-0.996,0-1.584-0.746-1.584-1.673
			c0-0.956,0.588-1.7,1.584-1.7c0.664,0,1.292,0.41,1.369,1.137h-0.679c-0.088-0.355-0.35-0.541-0.69-0.541
			c-0.633,0-0.874,0.541-0.874,1.104c0,0.536,0.241,1.077,0.874,1.077c0.465,0,0.73-0.249,0.774-0.695h-0.716v-0.528h1.357v1.741
			h-0.457L108.243,44.394z"/>
		<path fill="#0078AE" d="M112.057,41.464c0.995,0,1.592,0.744,1.592,1.7c0,0.927-0.597,1.673-1.592,1.673
			c-1.002,0-1.591-0.746-1.591-1.673C110.466,42.208,111.055,41.464,112.057,41.464z M112.057,44.241
			c0.641,0,0.878-0.541,0.878-1.077c0-0.563-0.237-1.104-0.878-1.104c-0.642,0-0.882,0.541-0.882,1.104
			C111.175,43.7,111.415,44.241,112.057,44.241z"/>
		<path fill="#0078AE" d="M115.399,41.542h0.704l1.352,2.158h0.004v-2.158h0.669v3.217h-0.711l-1.347-2.154h-0.011v2.154h-0.66
			V41.542z"/>
		<g>
			<path fill="#0078AE" d="M120.707,28.035c0.668,0,1.204,0.546,1.204,1.228c0,0.69-0.536,1.23-1.211,1.23
				c-0.666,0-1.215-0.54-1.215-1.23c0-0.682,0.549-1.228,1.215-1.228H120.707z M120.7,28.227c-0.534,0-0.982,0.462-0.982,1.036
				c0,0.582,0.448,1.038,0.989,1.038c0.549,0.007,0.982-0.456,0.982-1.032c0-0.58-0.434-1.042-0.982-1.042H120.7z M120.474,29.976
				h-0.216V28.61c0.113-0.018,0.221-0.035,0.388-0.035c0.205,0,0.344,0.042,0.421,0.103c0.08,0.06,0.126,0.154,0.126,0.286
				c0,0.18-0.119,0.287-0.27,0.33v0.012c0.119,0.023,0.207,0.131,0.229,0.33c0.034,0.215,0.069,0.294,0.093,0.34h-0.229
				c-0.035-0.046-0.069-0.171-0.099-0.349c-0.027-0.177-0.121-0.238-0.289-0.238h-0.155V29.976z M120.474,29.216h0.161
				c0.173,0,0.329-0.064,0.329-0.232c0-0.121-0.084-0.24-0.329-0.24c-0.077,0-0.119,0.006-0.161,0.011V29.216z"/>
		</g>
	</g>
	
		<use xlink:href="#Hamburger_Menu"  width="26.256" height="24.421" id="XMLID_5_" x="-14.559" y="-10.753" transform="matrix(1.3748 0 0 -1.3748 -25.6689 37.8154)" display="inline" overflow="visible"/>
</g>
<g id="Layer_1">
	<path fill="#0078AE" d="M25,29.566c-0.058-0.132,0.473,0.387,0.658-0.09c0.046-0.121-0.267-0.942-0.483-1.711
		c-0.222-0.788-0.209-1.234-0.471-1.472c-0.437-0.399-1.284-0.297-2.638-0.398c-1.353-0.101-3.206-0.914-5.943-1.033
		c-2.486-0.11-4.977,0.001-7.233,1.002c-0.362,0.16-1.106,0.951-0.609,1.105c1.373,0.427,1.821,0.886,1.627,1.049
		c-0.853,0.711-1.953-0.527-1.962-0.107c0.221,1.215,1.552,1.685,2.508,2.291c0.8,0.508,1.797,0.595,2.645,0.973
		c0.85,0.379,1.529,1.123,2.388,1.597c0.566,0.315,1.224,0.715,1.421-0.22c1.246,0.556,2.417,1.169,3.311,2.321
		c0.17,0.219,0.589,0.036,0.717-0.333c0.413,0.5-0.189,1.165-0.542,1.207c-2.011,0.237-4.028-0.145-5.973,0.494
		c-0.346,0.115-0.424,0.668-0.23,0.941c0.55,0.776,1.422,1.085,2.243,1.555c1.077,0.614,1.214,2.021,2.162,2.744
		c1.689,1.286,2.421-1.68,3.266-2.857c0.615-0.854,1.458-1.396,2.19-2.102c0.176,0.471,0.559,0.646,1.035,0.518
		c0.31-0.082,0.317-0.447,0.339-0.643C25.679,34.125,25.983,31.801,25,29.566z"/>
	<path fill="#0078AE" d="M6.917,40.721c0,0,0.001,0.597,0.004,0.985c-0.002,0.801,0.34,1.078,1.053,1.077
		c0.412-0.004,0.641,0.004,0.641,0.004l7.441,0.002l-0.006,5.25l-8.412-0.006c0,0-0.247-0.002-0.427-0.002
		c-3.107,0.004-5.543-2.334-5.543-5.67c0-0.01,0-0.67,0-0.67V24.917l5.25-0.005L6.917,40.721z"/>
	<path fill="#EF3E42" d="M5.455,41.887l-0.006-15.44l-2.342-0.002l0.008,7.831l-0.01,6.62c0,0,0,0.725,0,1.145
		C3.103,44.752,4.82,46.6,7.44,46.6c0.375,0,0.716,0,0.716,0h6.528l-0.004-2.314l-6.162-0.002c0,0-0.462,0.004-0.945,0.004
		c-1.453-0.002-2.122-0.77-2.12-2.168C5.453,42.069,5.455,41.887,5.455,41.887z"/>
	<path fill="#0078AE" d="M26.971,24.911l5.251,0.005v16.775c0,0,0,0.66,0,0.67c0,3.336-2.436,5.674-5.543,5.67
		c-0.181,0-0.428,0.002-0.428,0.002l-8.411,0.006l-0.006-5.25l7.441-0.002c0,0,0.229-0.008,0.64-0.004
		c0.713,0.001,1.055-0.276,1.054-1.077c0.001-0.389,0.004-0.985,0.004-0.985L26.971,24.911z"/>
	<path fill="#EF3E42" d="M28.436,42.119c0.002,1.398-0.667,2.166-2.12,2.168c-0.483,0-0.945-0.004-0.945-0.004l-6.162,0.002
		L19.205,46.6h6.528c0,0,0.341,0,0.715,0c2.62,0,4.338-1.848,4.336-4.561c0-0.42,0-1.145,0-1.145l-0.011-6.62l0.008-7.831
		l-2.342,0.002l-0.007,15.44C28.434,41.887,28.436,42.069,28.436,42.119z"/>
	<g>
		<g>
			<g>
				<path fill="#0078AE" d="M71.438,34.501c0.528,0,0.956-0.407,0.956-0.907c0-0.502-0.428-0.907-0.956-0.907
					c-0.523,0-0.954,0.405-0.954,0.907C70.484,34.094,70.915,34.501,71.438,34.501z"/>
			</g>
			<path fill="#0078AE" d="M45.338,28.335v8.862c0,0-0.011,0.463,0.254,0.73c0.217,0.223,0.769,0.234,0.769,0.234l1.732,0.011
				c0,0,0.604,0,0.838-0.229c0.201-0.198,0.2-0.736,0.2-0.736v-8.885l1.858,0.009l0.004,9.417c0,0-0.004,0.984-0.486,1.508
				c-0.553,0.597-1.38,0.664-1.38,0.664l-3.8,0.012c0,0-0.654-0.012-1.273-0.646c-0.584-0.596-0.576-1.459-0.576-1.459l-0.022-9.476
				L45.338,28.335z"/>
			<polygon fill="#0078AE" points="59.672,28.323 59.653,39.928 57.708,39.938 57.721,34.384 54.26,34.391 54.264,39.934 
				52.223,39.938 52.229,28.341 54.255,28.321 54.26,32.544 57.715,32.532 57.715,28.329 			"/>
			<path fill="#0078AE" d="M66.388,28.327c0,0,0.572,0.002,1.332,0.744c0.685,0.664,0.667,1.572,0.667,1.572l-0.014,1.6
				c0,0-0.13,0.815-0.758,1.368c-0.876,0.729-1.252,0.627-2.008,0.787c1.219,1.734,4.513,5.534,4.513,5.534l-2.402,0.006
				l-4.869-5.903l0.009,5.889h-1.962l-0.002-11.588L66.388,28.327z M65.755,30.181h-2.898l-0.008,2.351l2.966-0.009
				c0,0,0.732-0.179,0.728-1.187C66.54,30.453,65.755,30.181,65.755,30.181z"/>
			<path fill="#0078AE" d="M74.046,38.16c0,0,0.403,0.025,0.745-0.393c0.243-0.296,0.226-0.759,0.226-0.759l-0.011-8.678
				l2.004,0.006l-0.019,9.301c0,0,0.033,0.672-0.583,1.453c-0.617,0.783-1.617,0.844-1.617,0.844l-3.521-0.017l-1.449-1.753
				L74.046,38.16z"/>
			<path fill="#0078AE" d="M99.49,39.93l-5.423-0.002l0.003-1.762l4.718-0.011c0,0,0.516,0.159,0.8-0.333
				c0.263-0.457-0.286-0.932-0.286-0.932l-4.497-5.053c0,0-0.906-0.818-0.528-2.095c0.354-1.202,1.987-1.422,1.987-1.422
				l5.325,0.016l0.02,1.67l-4.386,0.004c0,0-0.802-0.103-0.989,0.278c-0.173,0.349,0.226,0.763,0.226,0.763l4.367,4.91
				c0,0,1.124,1.154,0.393,2.664C100.609,39.887,99.49,39.93,99.49,39.93z"/>
			<polygon fill="#0078AE" points="91.553,39.93 87.49,32.945 87.49,39.938 85.489,39.924 85.494,28.334 87.048,28.335 
				91.149,35.531 91.159,28.323 93.107,28.323 93.114,39.938 			"/>
			<polygon fill="#0078AE" points="78.06,39.938 78.066,28.329 84.433,28.321 84.423,30.012 79.957,30.006 79.968,32.963 
				84.443,32.961 84.436,34.624 79.977,34.641 79.957,38.166 84.443,38.172 84.44,39.928 			"/>
			<path fill="#0078AE" d="M38.573,38.16c0,0-0.456,0.066-0.811-0.369c-0.308-0.384-0.227-0.93-0.227-0.93l0.012-8.53l-1.96,0.006
				l0.019,9.112c0,0-0.009,0.969,0.628,1.663c0.688,0.755,1.484,0.823,1.484,0.823l4.959-0.017l-0.012-1.753L38.573,38.16z"/>
			<polygon fill="#0078AE" points="102.566,39.938 102.574,28.329 108.938,28.321 108.931,30.012 104.464,30.006 104.472,32.963 
				108.95,32.961 108.941,34.624 104.481,34.641 104.464,38.166 108.95,38.172 108.949,39.928 			"/>
			<polygon fill="#0078AE" points="115.973,39.93 111.908,32.945 111.908,39.938 109.909,39.924 109.914,28.334 111.465,28.335 
				115.568,35.531 115.579,28.323 117.525,28.323 117.535,39.938 			"/>
		</g>
	</g>
	<path fill="#0078AE" d="M37.063,41.418c0.982,0,1.56,0.729,1.56,1.666c0,0.912-0.578,1.643-1.56,1.643s-1.56-0.73-1.56-1.643
		C35.504,42.146,36.082,41.418,37.063,41.418z M37.063,44.143c0.627,0,0.862-0.531,0.862-1.059c0-0.551-0.235-1.082-0.862-1.082
		c-0.626,0-0.861,0.531-0.861,1.082C36.203,43.611,36.437,44.143,37.063,44.143z"/>
	<path fill="#0078AE" d="M40.343,41.492h2.231v0.584H41.04v0.73h1.33v0.539h-1.33v1.305h-0.697V41.492z"/>
	<path fill="#0078AE" d="M46.702,41.492H47.4v1.211h1.284v-1.211h0.696v3.158h-0.696v-1.362H47.4v1.362h-0.698V41.492z"/>
	<path fill="#0078AE" d="M52.661,41.418c0.982,0,1.56,0.729,1.56,1.666c0,0.912-0.577,1.643-1.56,1.643
		c-0.982,0-1.559-0.73-1.559-1.643C51.102,42.146,51.679,41.418,52.661,41.418z M52.661,44.143c0.626,0,0.862-0.531,0.862-1.059
		c0-0.551-0.236-1.082-0.862-1.082s-0.862,0.531-0.862,1.082C51.799,43.611,52.035,44.143,52.661,44.143z"/>
	<path fill="#0078AE" d="M57.363,41.418c0.981,0,1.559,0.729,1.559,1.666c0,0.912-0.578,1.643-1.559,1.643
		c-0.983,0-1.56-0.73-1.56-1.643C55.803,42.146,56.38,41.418,57.363,41.418z M57.363,44.143c0.626,0,0.861-0.531,0.861-1.059
		c0-0.551-0.235-1.082-0.861-1.082c-0.627,0-0.862,0.531-0.862,1.082C56.501,43.611,56.736,44.143,57.363,44.143z"/>
	<path fill="#0078AE" d="M60.643,41.492h1.368c0.821,0,1.439,0.514,1.439,1.561c0,0.916-0.471,1.598-1.439,1.598h-1.368V41.492z
		 M61.339,44.066h0.623c0.404,0,0.791-0.247,0.791-0.947c0-0.637-0.223-1.043-0.916-1.043h-0.498V44.066z"/>
	<path fill="#0078AE" d="M67.659,41.492h1.71c0.57,0,0.93,0.395,0.93,0.873c0,0.371-0.15,0.648-0.502,0.789v0.01
		c0.343,0.088,0.44,0.42,0.462,0.738c0.014,0.2,0.009,0.571,0.133,0.748h-0.697c-0.085-0.199-0.076-0.504-0.11-0.756
		c-0.05-0.332-0.178-0.477-0.53-0.477h-0.697v1.232h-0.697V41.492z M68.356,42.92h0.765c0.312,0,0.48-0.131,0.48-0.449
		c0-0.305-0.169-0.438-0.48-0.438h-0.765V42.92z"/>
	<path fill="#0078AE" d="M72.111,41.492h0.697v3.158h-0.697V41.492z"/>
	<path fill="#0078AE" d="M76.143,44.65h-0.787l-1.031-3.158h0.721l0.707,2.221h0.008l0.714-2.221h0.721L76.143,44.65z"/>
	<path fill="#0078AE" d="M78.711,41.492h2.371v0.584h-1.674v0.678h1.538v0.539h-1.538v0.773h1.71v0.584h-2.407V41.492z"/>
	<path fill="#0078AE" d="M82.835,41.492h1.71c0.569,0,0.928,0.395,0.928,0.873c0,0.371-0.149,0.648-0.501,0.789v0.01
		c0.343,0.088,0.439,0.42,0.463,0.738c0.012,0.2,0.008,0.571,0.133,0.748h-0.698c-0.083-0.199-0.076-0.504-0.11-0.756
		c-0.05-0.332-0.178-0.477-0.529-0.477h-0.695v1.232h-0.699V41.492z M83.534,42.92h0.761c0.312,0,0.481-0.131,0.481-0.449
		c0-0.305-0.169-0.438-0.481-0.438h-0.761V42.92z"/>
	<path fill="#0078AE" d="M87.251,43.969h0.699v0.682c0,0.406-0.312,0.676-0.694,0.734v-0.318c0.188-0.03,0.323-0.221,0.315-0.416
		h-0.32V43.969z"/>
	<path fill="#0078AE" d="M93.67,41.418c0.979,0,1.557,0.729,1.557,1.666c0,0.912-0.577,1.643-1.557,1.643
		c-0.985,0-1.561-0.73-1.561-1.643C92.109,42.146,92.685,41.418,93.67,41.418z M93.67,44.143c0.625,0,0.861-0.531,0.861-1.059
		c0-0.551-0.236-1.082-0.861-1.082c-0.63,0-0.865,0.531-0.865,1.082C92.805,43.611,93.04,44.143,93.67,44.143z"/>
	<path fill="#0078AE" d="M96.947,41.492h1.712c0.568,0,0.929,0.395,0.929,0.873c0,0.371-0.151,0.648-0.503,0.789v0.01
		c0.343,0.088,0.438,0.42,0.462,0.738c0.014,0.2,0.01,0.571,0.132,0.748h-0.696c-0.083-0.199-0.074-0.504-0.111-0.756
		c-0.049-0.332-0.178-0.477-0.529-0.477h-0.695v1.232h-0.699V41.492z M97.646,42.92h0.762c0.312,0,0.481-0.131,0.481-0.449
		c0-0.305-0.169-0.438-0.481-0.438h-0.762V42.92z"/>
	<path fill="#0078AE" d="M101.399,41.492h2.374v0.584h-1.677v0.678h1.537v0.539h-1.537v0.773h1.713v0.584h-2.41V41.492z"/>
	<path fill="#0078AE" d="M107.816,44.293c-0.245,0.312-0.564,0.434-0.87,0.434c-0.982,0-1.56-0.73-1.56-1.643
		c0-0.938,0.577-1.666,1.56-1.666c0.647,0,1.262,0.398,1.337,1.115h-0.665c-0.081-0.35-0.344-0.531-0.672-0.531
		c-0.627,0-0.862,0.531-0.862,1.082c0,0.527,0.235,1.059,0.862,1.059c0.452,0,0.717-0.244,0.757-0.682H107v-0.518h1.333v1.707
		h-0.446L107.816,44.293z"/>
	<path fill="#0078AE" d="M111.562,41.418c0.983,0,1.562,0.729,1.562,1.666c0,0.912-0.578,1.643-1.562,1.643
		c-0.98,0-1.561-0.73-1.561-1.643C110.001,42.146,110.581,41.418,111.562,41.418z M111.562,44.143c0.627,0,0.863-0.531,0.863-1.059
		c0-0.551-0.236-1.082-0.863-1.082s-0.863,0.531-0.863,1.082C110.698,43.611,110.935,44.143,111.562,44.143z"/>
	<path fill="#0078AE" d="M114.842,41.492h0.694l1.323,2.119h0.009v-2.119h0.655v3.158h-0.7l-1.319-2.113h-0.008v2.113h-0.654V41.492
		z"/>
	<g>
		<path fill="#0078AE" d="M120.058,28.23c0.658,0,1.182,0.535,1.182,1.203c0,0.679-0.523,1.208-1.187,1.208
			c-0.657,0-1.192-0.529-1.192-1.208c0-0.668,0.535-1.203,1.192-1.203H120.058z M120.053,28.418c-0.529,0-0.963,0.455-0.963,1.016
			c0,0.572,0.434,1.021,0.968,1.021c0.535,0.005,0.963-0.449,0.963-1.016c0-0.566-0.428-1.021-0.963-1.021H120.053z M119.828,30.134
			h-0.213v-1.342c0.111-0.017,0.219-0.033,0.379-0.033c0.203,0,0.337,0.043,0.417,0.102c0.08,0.059,0.123,0.149,0.123,0.277
			c0,0.177-0.117,0.284-0.263,0.326v0.011c0.119,0.021,0.198,0.128,0.226,0.326c0.031,0.208,0.063,0.289,0.085,0.332h-0.225
			c-0.032-0.043-0.063-0.166-0.091-0.343c-0.032-0.17-0.117-0.235-0.288-0.235h-0.15V30.134z M119.828,29.391h0.154
			c0.178,0,0.326-0.064,0.326-0.23c0-0.117-0.084-0.235-0.326-0.235c-0.068,0-0.117,0.005-0.154,0.011V29.391z"/>
	</g>
</g>
</svg>
